<svg id="Capa_1" data-name="Capa 1" xmlns="http://www.w3.org/2000/svg" viewBox="0 0 478 478"><defs><style>.cls-1{fill:#5798f6;}.cls-2{fill:#fff;}</style></defs><title>descarga AZUL</title><circle class="cls-1" cx="239" cy="239" r="239"/><path class="cls-2" d="M383.07,138.35c-19.71-20.9-44-35.15-71.42-44-6.42-2.07-12.42-.92-14.87,5.18-1.53,3.81-.64,9.53,1.19,13.44,1.25,2.65,5.85,4.09,9.23,5.33,70.87,26.07,111.49,92.5,102.34,167.53-10.77,88.27-96.29,149.52-184.17,131.89-63.64-12.76-113-63.31-123.48-126.32-10.74-64.87,19.08-128.52,76-161.1,9.52-5.45,20.08-9.08,30.17-13.52,7.1-3.12,9.85-8.79,7.2-15.71-2.47-6.43-8-9.1-15.05-6.94-2.05.63-4.09,1.32-6.11,2C126,120.66,78.2,185.18,75.68,256c-2.67,75,38,143.1,105.24,172.28,19.09,8.29,40.43,11.43,60.73,16.93h27.67c4.51-.7,9.05-1.27,13.53-2.13,70.79-13.49,120.42-53.29,143-121.9S432.59,190.85,383.07,138.35Z" transform="translate(-16.73 -26.69)"/><path class="cls-2" d="M189.17,246.85c-5.57-5.56-11.72-6.77-18-1.45-5.34,4.52-4.72,12.5,1,18.76.83.91,1.76,1.72,2.63,2.59Q209,301,243.27,335.17c9.44,9.43,14.49,9.42,24-.08q34.61-34.5,69.1-69.08c1.51-1.52,4-3.08,4.15-4.76.36-5,1.43-11.14-.87-15-3.33-5.57-10-5.65-15.46-1.79-3.23,2.26-6,5.28-8.74,8.14q-22.57,23.4-45.07,46.91l-2.9-1.88V288c0-80.2-.09-160.39.14-240.58,0-8-2-13.76-9.38-17.21h-7.38c-6.33,4.49-7.85,10.59-7.82,18.23.24,80.19.14,160.38.14,240.57v9.46l-3.33,1.81c-1.69-2.6-3-5.56-5.13-7.72C219.64,277.21,204.39,262.05,189.17,246.85Z" transform="translate(-16.73 -26.69)"/></svg>