<svg id="Capa_1" data-name="Capa 1" xmlns="http://www.w3.org/2000/svg" viewBox="0 0 160 90"><defs><style>.cls-1{fill:#fff;}</style></defs><title>astronomia snoopy</title><rect width="160" height="90"/><path class="cls-1" d="M17.64,27q.84-2.43,1.77-6.23T21,14.38l.54-2.58A13.82,13.82,0,0,1,23,11.71h.17c.56,0,1,0,1.45.07l.61.07q.69,3.48,1.42,7.25c.5,2.51.87,4.44,1.14,5.78l.56,2H27.5l-1,0H26c0-.12,0-.24,0-.37a8.78,8.78,0,0,0-.06-1c-.06-.49-.12-.87-.17-1.14L25.66,24c-.6-.06-1.27-.09-2-.09h-.15c-.79,0-1.52,0-2.19,0l-1,.05a3.35,3.35,0,0,0-.25.89,10.92,10.92,0,0,0-.18,1.3l-.06.63v.07Zm3.08-4.9,1,0,2,0,.74,0a2.74,2.74,0,0,0,.83-.06c0-.17-.06-.39-.11-.65s-.15-.76-.3-1.5-.28-1.43-.41-2.07l-.42-2.11A5.85,5.85,0,0,0,23.44,14l-.27.48c-.11.21-.32.62-.61,1.24s-.58,1.22-.84,1.82a11.93,11.93,0,0,0-.63,2.16C20.93,20.53,20.8,21.31,20.72,22.05Z"/><path class="cls-1" d="M29.15,25.46l1-2.05a4,4,0,0,0,1.72,1.07,5,5,0,0,0,1.47.3h.19a2.59,2.59,0,0,0,1.29-.47.75.75,0,0,0,.33-.57,1.24,1.24,0,0,0,0-.18,1.41,1.41,0,0,0-.7-.75,8.23,8.23,0,0,0-1.49-.71,6.8,6.8,0,0,1-1.46-.68A4,4,0,0,1,30,19.9a1.7,1.7,0,0,1-.22-.6c0-.12,0-.23,0-.34a2.28,2.28,0,0,1,.1-.7,2.25,2.25,0,0,1,.47-.83,4.43,4.43,0,0,1,.69-.61,3.57,3.57,0,0,1,.77-.46c.27-.12.49-.21.67-.27a2.13,2.13,0,0,1,.45-.13,4.59,4.59,0,0,1,.81-.07l.41,0a4.28,4.28,0,0,1,1,.23,6.26,6.26,0,0,1,.76.34,4.11,4.11,0,0,1,.47.32l.17.14-.76,2a6.44,6.44,0,0,0-.81-.63,2.54,2.54,0,0,0-.72-.33,3.48,3.48,0,0,0-.49-.1h-.44a2.11,2.11,0,0,0-1,.2c-.24.13-.37.28-.38.46a.92.92,0,0,0,.14.56,1.6,1.6,0,0,0,.49.52,4,4,0,0,0,.7.39c.29.14.63.29,1,.44l.82.34a4.38,4.38,0,0,1,1.32.93,2.42,2.42,0,0,1,.61,1,3.44,3.44,0,0,1,.12.81,2.05,2.05,0,0,1-.11.7,3.8,3.8,0,0,1-.18.47,4.06,4.06,0,0,1-.36.59,3.5,3.5,0,0,1-.58.63,3.4,3.4,0,0,1-.88.51,4.25,4.25,0,0,1-1.24.29l-.71,0a6.58,6.58,0,0,1-.9-.06,5.45,5.45,0,0,1-1.31-.32,8.19,8.19,0,0,1-.93-.43,3.19,3.19,0,0,1-.59-.38Z"/><path class="cls-1" d="M38.21,17.29l2.18,0c-.09-1.24-.18-2.15-.26-2.73a5.59,5.59,0,0,0,2.27-.37c0,.82,0,1.81-.07,3a16.17,16.17,0,0,0,3.34-.49A9.62,9.62,0,0,0,46,19h-.88q-1.34,0-2.79.06c0,.83,0,1.62,0,2.36,0,2.58,0,4.58.13,6a5.29,5.29,0,0,0-.67-.05,3.18,3.18,0,0,0-1.34.27c0-.32,0-.74,0-1.27l.06-3.17c0-.52,0-1,0-1.5,0-1,0-1.81,0-2.55a17.91,17.91,0,0,0-2.09.21c0-.18,0-.36,0-.53A5.94,5.94,0,0,0,38.21,17.29Z"/><path class="cls-1" d="M47.05,16.94a7.62,7.62,0,0,0,2.28-.27c0,.49,0,1.1-.07,1.84a8.86,8.86,0,0,1,.94-.71,6.91,6.91,0,0,1,1.63-.7,3.69,3.69,0,0,1,1-.17,2.44,2.44,0,0,1,.55.06,2.75,2.75,0,0,1,1.84,1.33,2.7,2.7,0,0,1,.34,1.32A4.57,4.57,0,0,1,55.35,21l-2.21-.48a1.4,1.4,0,0,0,.18-.49,1.45,1.45,0,0,0,0-.62A.57.57,0,0,0,53,19a2.21,2.21,0,0,0-.43-.05,1.71,1.71,0,0,0-.68.15,6.49,6.49,0,0,0-.84.41,4.36,4.36,0,0,0-.91.7,5.7,5.7,0,0,0-.88,1.06c0,.48,0,.94,0,1.38,0,1.53,0,2.81.13,3.82a6.06,6.06,0,0,0-.73,0,4.08,4.08,0,0,0-1.26.18q0-.25,0-.69c0-.29,0-.86.05-1.69,0-.6,0-1.17,0-1.73v-.67c0-.77,0-1.62-.11-2.54A20.41,20.41,0,0,0,47.05,16.94Z"/><path class="cls-1" d="M57.13,21.82v-.34a10.2,10.2,0,0,1,.15-1.76,4.53,4.53,0,0,1,.75-1.8,2.75,2.75,0,0,1,1.43-1.06,4.84,4.84,0,0,1,1.67-.28h0a5.06,5.06,0,0,1,1.63.25,2.84,2.84,0,0,1,.68.3,3.77,3.77,0,0,1,.48.35,2,2,0,0,1,.34.48c.11.22.2.39.25.51s.13.34.24.62a6.35,6.35,0,0,1,.27,1.51,11.53,11.53,0,0,1,.08,1.17q0,.91-.12,2.19a2.89,2.89,0,0,1-1,2.16,3.6,3.6,0,0,1-2,.79,4.24,4.24,0,0,1-.62,0,5.32,5.32,0,0,1-1.73-.29,3.12,3.12,0,0,1-1.66-1.18,5.66,5.66,0,0,1-.67-1.6A8.45,8.45,0,0,1,57.13,21.82ZM59,21.21v.25a7,7,0,0,0,.11,1.37,4.33,4.33,0,0,0,.41,1.3,1.69,1.69,0,0,0,.87.74,2.62,2.62,0,0,0,.91.17,2,2,0,0,0,.35,0,1.78,1.78,0,0,0,1-.49,2.26,2.26,0,0,0,.51-1.35c0-.53,0-1,0-1.36s0-.52,0-.73a5.63,5.63,0,0,0-.14-.93,3.89,3.89,0,0,0-.4-.9,1.35,1.35,0,0,0-.66-.5,2.54,2.54,0,0,0-.89-.16l-.89.16a1.71,1.71,0,0,0-.9.93A3.93,3.93,0,0,0,59,21.21Z"/><path class="cls-1" d="M66.77,17A7.5,7.5,0,0,0,69,16.77c0,.38,0,.88-.06,1.49a6.19,6.19,0,0,1,.76-.63,6,6,0,0,1,1-.53,2.38,2.38,0,0,1,1-.23h.17a2.34,2.34,0,0,1,1.16.44.38.38,0,0,1,.13.09,2.41,2.41,0,0,1,.31.36,3.49,3.49,0,0,1,.41.72,8.06,8.06,0,0,1,.38,1.23,12.63,12.63,0,0,1,.29,1.82c.05.54.08,1.19.08,1.95,0,.19,0,.39,0,.59,0,1-.09,2.16-.22,3.38a8.21,8.21,0,0,0-1.12-.09,3.15,3.15,0,0,0-.9.11l.1-.75q.06-.46.15-1.71c.06-.78.09-1.5.09-2.15v-.11a10.08,10.08,0,0,0-.2-2,2.58,2.58,0,0,0-.6-1.39l-.13-.12a.52.52,0,0,0-.35-.11,2.1,2.1,0,0,0-1.31.82,10.5,10.5,0,0,0-1.24,1.58c0,.36,0,.71,0,1,0,1.58,0,2.92.13,4l-.69,0a4.22,4.22,0,0,0-1.33.2c0-.17,0-.41,0-.7s0-.86.06-1.69,0-1.41,0-2.08c0-.11,0-.22,0-.32,0-.77,0-1.62-.09-2.54A20.21,20.21,0,0,0,66.77,17Z"/><path class="cls-1" d="M76.69,21.82v-.34a10.2,10.2,0,0,1,.15-1.76,4.26,4.26,0,0,1,.75-1.8A2.71,2.71,0,0,1,79,16.86a4.84,4.84,0,0,1,1.67-.28h0a5.11,5.11,0,0,1,1.63.25,3,3,0,0,1,1.15.65,2,2,0,0,1,.35.48l.25.51c0,.13.13.34.23.62a6.24,6.24,0,0,1,.28,1.51c0,.32.06.71.07,1.17s0,1.34-.11,2.19a3,3,0,0,1-1,2.16,3.6,3.6,0,0,1-2,.79,4.24,4.24,0,0,1-.62,0,5.38,5.38,0,0,1-1.74-.29,3.13,3.13,0,0,1-1.65-1.18,5.66,5.66,0,0,1-.68-1.6A9,9,0,0,1,76.69,21.82Zm1.85-.61v.25a7.9,7.9,0,0,0,.1,1.37,4.62,4.62,0,0,0,.42,1.3,1.69,1.69,0,0,0,.87.74,2.58,2.58,0,0,0,.91.17,1.9,1.9,0,0,0,.34,0,1.78,1.78,0,0,0,1-.49,2.2,2.2,0,0,0,.5-1.35c0-.53.06-1,.06-1.36s0-.52,0-.73a6.94,6.94,0,0,0-.14-.93,3.89,3.89,0,0,0-.4-.9,1.45,1.45,0,0,0-.66-.5,2.58,2.58,0,0,0-.89-.16l-.9.16a1.73,1.73,0,0,0-.89.93A3.75,3.75,0,0,0,78.54,21.21Z"/><path class="cls-1" d="M86.56,16.77h.12a6.81,6.81,0,0,0,2.16-.28c0,.29,0,.66,0,1.12a3.83,3.83,0,0,1,2.31-1,2.31,2.31,0,0,1,1.31.42,1,1,0,0,1,.33.3c.18-.18.36-.34.54-.5a7.09,7.09,0,0,1,.75-.52,3.89,3.89,0,0,1,.93-.44,2.07,2.07,0,0,1,.68-.1,1.84,1.84,0,0,1,.33,0,2.15,2.15,0,0,1,1,.41l.13.08.31.37a4.29,4.29,0,0,1,.42.71,9.13,9.13,0,0,1,.39,1.23,12.48,12.48,0,0,1,.29,1.81,18.9,18.9,0,0,1,.08,2V23c0,1-.09,2.15-.22,3.36a10.44,10.44,0,0,0-1.15-.08,2.83,2.83,0,0,0-.9.11c0-.2.06-.46.1-.78s.1-.9.16-1.76.1-1.62.1-2.3a9.78,9.78,0,0,0-.2-2,2,2,0,0,0-.62-1.28,1,1,0,0,0-.23-.22.21.21,0,0,0-.11,0,1.69,1.69,0,0,0-.61.19,4.08,4.08,0,0,0-1.33,1.18c.17.67.28,1.16.34,1.49a12.89,12.89,0,0,1,.1,1.76v.13c0,.8-.06,1.79-.18,3a10.44,10.44,0,0,0-1.13-.08,3.05,3.05,0,0,0-.9.11c0-.15,0-.35.09-.61s.09-.72.14-1.4.07-1.14.07-1.64v-.21A7.19,7.19,0,0,0,92,20.19a1.83,1.83,0,0,0-.63-1.11L91.19,19a.6.6,0,0,0-.34-.11,2.21,2.21,0,0,0-1.33.82,10.73,10.73,0,0,0-.79.95c0,.52,0,1,0,1.51,0,1.68.05,3.07.13,4.17l-.64,0a4,4,0,0,0-1.35.21c0-.17,0-.4,0-.7s0-.86,0-1.7c0-.6,0-1.19,0-1.75v-.67c0-.76,0-1.61-.11-2.53A22.46,22.46,0,0,0,86.56,16.77Z"/><path class="cls-1" d="M99.93,14.52l.43-.21,1-.53c.5-.27,1-.52,1.36-.77s.83-.52,1.28-.84a5.56,5.56,0,0,0,1-.83,24.71,24.71,0,0,0,1.34,2.17l-1.24.57c-.5.24-1.23.6-2.19,1.1a12,12,0,0,0-1.82,1.08A14,14,0,0,0,99.93,14.52Zm.86,3a7.26,7.26,0,0,0,2.34-.29,87.17,87.17,0,0,0,0,9.82,4.76,4.76,0,0,0-2,.17c0-.18,0-.41,0-.7s0-.86,0-1.7,0-1.64,0-2.41,0-1.61-.11-2.53A20.26,20.26,0,0,0,100.79,17.49Z"/><path class="cls-1" d="M105.81,25.08c0-.11,0-.21,0-.32a3.44,3.44,0,0,1,.09-.77,1.86,1.86,0,0,1,.46-.93,4.24,4.24,0,0,1,.93-.69,4,4,0,0,1,1.06-.4,8.63,8.63,0,0,1,1.1-.2,7.51,7.51,0,0,1,1-.06h1.13a9.77,9.77,0,0,1,1.07.07c0-1.91-.54-3.05-1.51-3.42a1.38,1.38,0,0,0-.41-.07,2.3,2.3,0,0,0-.6.07,3.23,3.23,0,0,0-.65.25,2,2,0,0,0-.57.55,2.46,2.46,0,0,0-.37.89,4.5,4.5,0,0,0-1.9-.77,1.3,1.3,0,0,0,0-.13c0-.06,0-.17.11-.33a4.15,4.15,0,0,1,.2-.47c.08-.14.19-.33.33-.54a2.17,2.17,0,0,1,.49-.55c.18-.14.39-.3.65-.47a2.2,2.2,0,0,1,.85-.34c.31-.05.67-.1,1.08-.13h.24a4.16,4.16,0,0,1,1.06.15A3,3,0,0,1,113,17q1.5,1.21,1.5,5.46c0,.85,0,1.79-.14,2.82a2.31,2.31,0,0,0,.4.53,4.26,4.26,0,0,0,.44.39l.19.13-1.48,1.58-.75-.77a3.24,3.24,0,0,1-.63.16,11.43,11.43,0,0,1-2.55.3,12.09,12.09,0,0,1-1.21-.07c-1.49-.13-2.42-.63-2.78-1.52A3.33,3.33,0,0,1,105.81,25.08Zm2-.33c0,.42.39.68,1.12.79a6.83,6.83,0,0,0,2.27,0,3.77,3.77,0,0,0,1.45-.39l0-1.4a21.94,21.94,0,0,0-2.23-.13l-.74,0a3.44,3.44,0,0,0-1.48.35A.86.86,0,0,0,107.78,24.75Z"/><path class="cls-1" d="M116.16,28.77l.18-.25c.07-.11.19-.34.36-.68s.32-.71.45-1.06a8.16,8.16,0,0,0,.3-1.32,7.15,7.15,0,0,0,0-1.53,25.17,25.17,0,0,0,2.45.6l-.09.41c0,.17-.12.49-.25,1s-.28.92-.43,1.35a11,11,0,0,1-.61,1.35,5.3,5.3,0,0,1-.8,1.17A7.35,7.35,0,0,0,116.16,28.77Z"/><path class="cls-1" d="M18.4,34.77h.12a6.92,6.92,0,0,0,2.17-.28c0,.29,0,.66-.05,1.12a3.87,3.87,0,0,1,2.31-1,2.29,2.29,0,0,1,1.31.42,1.08,1.08,0,0,1,.34.3c.18-.18.36-.34.54-.5a7.09,7.09,0,0,1,.75-.52,4,4,0,0,1,.92-.44,2.11,2.11,0,0,1,.68-.1,1.84,1.84,0,0,1,.33,0,2.07,2.07,0,0,1,1.05.41l.13.08a2.64,2.64,0,0,1,.31.37,3.7,3.7,0,0,1,.42.71,6.93,6.93,0,0,1,.39,1.23,12.48,12.48,0,0,1,.29,1.81,18.61,18.61,0,0,1,.09,2V41c0,1-.09,2.15-.23,3.36a10.44,10.44,0,0,0-1.14-.08,2.86,2.86,0,0,0-.91.11c0-.2.07-.46.11-.78s.09-.9.16-1.76.1-1.62.1-2.3a10.51,10.51,0,0,0-.2-2,2,2,0,0,0-.63-1.28.92.92,0,0,0-.22-.22.21.21,0,0,0-.12,0,1.74,1.74,0,0,0-.61.19,4.18,4.18,0,0,0-1.33,1.18c.17.67.29,1.16.34,1.49a12.47,12.47,0,0,1,.11,1.76v.13c0,.8-.07,1.79-.19,3a10.11,10.11,0,0,0-1.13-.08,3.15,3.15,0,0,0-.9.11c0-.15.06-.35.1-.61s.08-.72.14-1.4.07-1.14.07-1.64v-.21a7.21,7.21,0,0,0-.23-1.65,1.83,1.83,0,0,0-.63-1.11L23,37a.58.58,0,0,0-.34-.11,2.19,2.19,0,0,0-1.32.82,10.7,10.7,0,0,0-.8,1c0,.52,0,1,0,1.51,0,1.68,0,3.07.13,4.17l-.65,0a4,4,0,0,0-1.34.21c0-.17,0-.4,0-.7s0-.86.05-1.7c0-.6,0-1.19,0-1.75v-.67c0-.76,0-1.61-.11-2.53A20.06,20.06,0,0,0,18.4,34.77Z"/><path class="cls-1" d="M32.26,43.08c0-.11,0-.21,0-.32a3.44,3.44,0,0,1,.09-.77,1.86,1.86,0,0,1,.46-.93,4.14,4.14,0,0,1,2-1.09,8.63,8.63,0,0,1,1.1-.2,7.51,7.51,0,0,1,1-.06h1.13a9.43,9.43,0,0,1,1.06.07q0-2.87-1.5-3.42a1.38,1.38,0,0,0-.41-.07,2.3,2.3,0,0,0-.6.07,3.23,3.23,0,0,0-.65.25,2,2,0,0,0-.57.55,2.3,2.3,0,0,0-.37.89,4.5,4.5,0,0,0-1.9-.77,1.3,1.3,0,0,0,0-.13,2.41,2.41,0,0,1,.11-.33,4.15,4.15,0,0,1,.2-.47c.08-.14.19-.33.33-.54a2.34,2.34,0,0,1,.48-.55c.18-.14.4-.3.66-.47a2.2,2.2,0,0,1,.85-.34c.31-.05.67-.1,1.08-.13h.24a4.16,4.16,0,0,1,1.06.15,3,3,0,0,1,1.33.54Q41,36.22,41,40.46c0,.85,0,1.79-.14,2.82a2.31,2.31,0,0,0,.4.53,4.26,4.26,0,0,0,.44.39l.19.13-1.48,1.58-.75-.77a3.24,3.24,0,0,1-.63.16,11.43,11.43,0,0,1-2.55.3,12.09,12.09,0,0,1-1.21-.07c-1.49-.13-2.42-.63-2.78-1.52A3.33,3.33,0,0,1,32.26,43.08Zm2-.33c0,.42.39.68,1.12.79a6.62,6.62,0,0,0,1.1.09,6.77,6.77,0,0,0,1.17-.1,3.77,3.77,0,0,0,1.45-.39l0-1.4a22.1,22.1,0,0,0-2.23-.13l-.74,0a3.4,3.4,0,0,0-1.48.35A.84.84,0,0,0,34.23,42.75Z"/><path class="cls-1" d="M42.28,35.29l2.18,0c-.08-1.24-.17-2.15-.25-2.73a5.62,5.62,0,0,0,2.27-.37c0,.82-.06,1.81-.07,3a16.28,16.28,0,0,0,3.34-.49A9.11,9.11,0,0,0,50,37h-.88q-1.34,0-2.79.06c0,.83,0,1.62,0,2.36,0,2.58,0,4.58.13,6a5.43,5.43,0,0,0-.67-.05,3.25,3.25,0,0,0-1.35.27c0-.32,0-.74,0-1.27l.06-3.17c0-.52,0-1,0-1.5q0-1.44-.06-2.55a17.72,17.72,0,0,0-2.08.21c0-.18,0-.36,0-.53A5.48,5.48,0,0,0,42.28,35.29Z"/><path class="cls-1" d="M51.21,37.51a4.58,4.58,0,0,1,.46-1.33A5.55,5.55,0,0,1,52.52,35a4,4,0,0,1,1.2-.91A2.9,2.9,0,0,1,55,33.74h.1a3.65,3.65,0,0,1,2.22.76,2.54,2.54,0,0,1,.88,2,20.67,20.67,0,0,1-.32,3l-1.34,0a15.93,15.93,0,0,0-3.54.23s0,.1,0,.24a1.79,1.79,0,0,0,.07.59,5.68,5.68,0,0,0,.24.77,2.06,2.06,0,0,0,.51.77,2.37,2.37,0,0,0,.9.6,2.88,2.88,0,0,0,.42.14,3.87,3.87,0,0,0,.52,0h0l.71-.22a2.78,2.78,0,0,0,.72-.7,9.17,9.17,0,0,0,1.33,1.27,0,0,0,0,1,0,0,.64.64,0,0,1-.14.25,2.56,2.56,0,0,1-.41.45,3.68,3.68,0,0,1-2.56.87h-.15a3.35,3.35,0,0,1-2.53-1,6.58,6.58,0,0,1-1.66-4.6A10,10,0,0,1,51.21,37.51Zm1.92.24.62,0L55,37.66h.58a1.52,1.52,0,0,1,.48,0l0-.11s0-.14.08-.28a2.18,2.18,0,0,0,0-.43,1.23,1.23,0,0,0,0-.37.89.89,0,0,0-.17-.38.85.85,0,0,0-.35-.28,1.36,1.36,0,0,0-.6-.13h0a1.8,1.8,0,0,0-1.2.57A2.2,2.2,0,0,0,53.13,37.75Z"/><path class="cls-1" d="M60.43,34.77h.12a6.88,6.88,0,0,0,2.17-.28c0,.29,0,.66,0,1.12a3.87,3.87,0,0,1,2.31-1,2.29,2.29,0,0,1,1.31.42,1.08,1.08,0,0,1,.34.3c.18-.18.36-.34.54-.5a7.09,7.09,0,0,1,.75-.52,4,4,0,0,1,.92-.44,2.11,2.11,0,0,1,.68-.1,1.84,1.84,0,0,1,.33,0,2.07,2.07,0,0,1,1.05.41l.13.08a2.64,2.64,0,0,1,.31.37,3.25,3.25,0,0,1,.42.71,6.93,6.93,0,0,1,.39,1.23,13.93,13.93,0,0,1,.3,1.81c0,.55.08,1.21.08,2V41c0,1-.09,2.15-.23,3.36a10.44,10.44,0,0,0-1.14-.08,2.86,2.86,0,0,0-.91.11c0-.2.07-.46.11-.78s.09-.9.16-1.76.1-1.62.1-2.3a10.51,10.51,0,0,0-.2-2,2,2,0,0,0-.63-1.28.92.92,0,0,0-.22-.22.21.21,0,0,0-.12,0,1.74,1.74,0,0,0-.61.19,4.07,4.07,0,0,0-1.32,1.18c.17.67.28,1.16.33,1.49A12.47,12.47,0,0,1,68,40.58v.13a27.43,27.43,0,0,1-.19,3,10.11,10.11,0,0,0-1.13-.08,3.15,3.15,0,0,0-.9.11c0-.15.06-.35.1-.61s.08-.72.14-1.4.07-1.14.07-1.64v-.21a6.7,6.7,0,0,0-.23-1.65,1.83,1.83,0,0,0-.63-1.11L65.06,37a.58.58,0,0,0-.34-.11,2.19,2.19,0,0,0-1.32.82,10.7,10.7,0,0,0-.8,1c0,.52,0,1,0,1.51,0,1.68,0,3.07.13,4.17l-.65,0a4,4,0,0,0-1.34.21c0-.17,0-.4,0-.7s0-.86.05-1.7c0-.6,0-1.19,0-1.75v-.67c0-.76,0-1.61-.11-2.53A20.06,20.06,0,0,0,60.43,34.77Z"/><path class="cls-1" d="M74.42,43.08A3.71,3.71,0,0,1,74.49,42a2,2,0,0,1,.44-.93,3.76,3.76,0,0,1,.92-.69A4.56,4.56,0,0,1,76.9,40c.35-.08.72-.14,1.1-.19a7.14,7.14,0,0,1,1.11-.06h1.06a9.59,9.59,0,0,1,1.06.07c0-1.93-.53-3.09-1.51-3.46a1.35,1.35,0,0,0-.41-.08,2.36,2.36,0,0,0-.6.08,2.72,2.72,0,0,0-.65.25,1.84,1.84,0,0,0-.57.55,2.41,2.41,0,0,0-.37.9,4.46,4.46,0,0,0-1.89-.77s0-.08,0-.14,0-.16.1-.33a3.22,3.22,0,0,1,.21-.46c.08-.14.19-.32.33-.53a2.11,2.11,0,0,1,.48-.54c.18-.14.39-.3.65-.47a2.1,2.1,0,0,1,.85-.33A9.5,9.5,0,0,1,79,34.32a3.68,3.68,0,0,1,1.32.14A3,3,0,0,1,81.6,35q2,1.56,1.38,8.24a2.14,2.14,0,0,0,.39.55,3.31,3.31,0,0,0,.45.39l.19.14-1.49,1.59-.76-.77a3.15,3.15,0,0,1-.64.16,11.22,11.22,0,0,1-3.76.23C75.88,45.4,75,44.9,74.63,44A3.73,3.73,0,0,1,74.42,43.08Zm1.73-11.52.42-.21c.18-.09.52-.26,1-.53s.94-.51,1.35-.76.84-.52,1.28-.84a5.7,5.7,0,0,0,1-.83,24.85,24.85,0,0,0,1.33,2.16l-1.24.57c-.5.24-1.23.6-2.18,1.1a11.4,11.4,0,0,0-1.83,1.08A13.44,13.44,0,0,0,76.15,31.56Zm.13,11.17c0,.42.4.69,1.13.8a7.51,7.51,0,0,0,2.27,0,3.66,3.66,0,0,0,1.45-.4l0-1.41a17,17,0,0,0-3-.11,3.54,3.54,0,0,0-1.5.34A.89.89,0,0,0,76.28,42.73Z"/><path class="cls-1" d="M84.46,35.29l2.18,0c-.09-1.24-.18-2.15-.26-2.73a5.59,5.59,0,0,0,2.27-.37c0,.82-.05,1.81-.07,3a16.17,16.17,0,0,0,3.34-.49A9.62,9.62,0,0,0,92.2,37h-.88Q90,37,88.53,37c0,.83,0,1.62,0,2.36,0,2.58,0,4.58.13,6A5.29,5.29,0,0,0,88,45.3a3.18,3.18,0,0,0-1.34.27c0-.32,0-.74,0-1.27l.06-3.17c0-.52,0-1,0-1.5,0-1,0-1.81-.05-2.55a17.91,17.91,0,0,0-2.09.21c0-.18,0-.36,0-.53A5.94,5.94,0,0,0,84.46,35.29Z"/><path class="cls-1" d="M93.34,32.65a1.31,1.31,0,0,1,.37-.88,1.33,1.33,0,0,1,.88-.45h.19a1,1,0,0,1,.67.25,1,1,0,0,1,.34.8,1.29,1.29,0,0,1-.35.89,1.27,1.27,0,0,1-.87.44h-.18a1.09,1.09,0,0,1-.68-.25A1,1,0,0,1,93.34,32.65Zm0,2.84a22,22,0,0,1,.41,4c0,.84,0,1.61,0,2.3s0,1.24,0,1.77l-.09,1.66a3.25,3.25,0,0,1,.85-.18c.21,0,.39,0,.55,0h.26l.31,0c-.08-1-.12-2.32-.12-4s0-3,.06-4.17l.06-1.7a4.34,4.34,0,0,1-.92.21,7.57,7.57,0,0,1-.94.08Z"/><path class="cls-1" d="M97.26,39.28a6,6,0,0,1,.6-2.52,4.2,4.2,0,0,1,1.64-1.82,4.78,4.78,0,0,1,1.41-.58,5.93,5.93,0,0,1,1.34-.18,2.19,2.19,0,0,1,.36,0,2.61,2.61,0,0,1,1.43.44,3.27,3.27,0,0,0-.14.34,7.23,7.23,0,0,0-.19.81,4.46,4.46,0,0,0-.1.86,1.79,1.79,0,0,0,0,.23l-.23-.16a4,4,0,0,0-.57-.27,2.55,2.55,0,0,0-.84-.19h-.11a2.52,2.52,0,0,0-.93.2,3.11,3.11,0,0,0-1.11.76,2,2,0,0,0-.3.62A4.65,4.65,0,0,0,99.29,39c0,.23,0,.47,0,.72a6.18,6.18,0,0,0,0,.73,3.45,3.45,0,0,0,.5,1.45A3.28,3.28,0,0,0,101,43.08a1.74,1.74,0,0,0,.78.17h.12a3,3,0,0,0,1-.21,1.86,1.86,0,0,0,1-.79,9.83,9.83,0,0,0,1,1.92,3,3,0,0,1-1.66,1,5.07,5.07,0,0,1-1.25.17,3.33,3.33,0,0,1-.78-.09,3.9,3.9,0,0,1-1.67-.74,4.87,4.87,0,0,1-1.22-1.37,6.79,6.79,0,0,1-.76-1.81,7.59,7.59,0,0,1-.26-2Z"/><path class="cls-1" d="M106.06,43.08l0-.32a3,3,0,0,1,.1-.77,1.86,1.86,0,0,1,.46-.93,4,4,0,0,1,.93-.69,4.11,4.11,0,0,1,1-.4,9.13,9.13,0,0,1,1.11-.2,7.37,7.37,0,0,1,1-.06h1.14a9.59,9.59,0,0,1,1.06.07c0-1.91-.53-3.05-1.51-3.42a1.31,1.31,0,0,0-.4-.07,2.26,2.26,0,0,0-.6.07,3,3,0,0,0-.65.25,1.74,1.74,0,0,0-.57.55,2.3,2.3,0,0,0-.37.89,4.5,4.5,0,0,0-1.9-.77,1.3,1.3,0,0,0,0-.13,2.41,2.41,0,0,1,.11-.33,2.22,2.22,0,0,1,.2-.47c.08-.14.19-.33.33-.54a2.34,2.34,0,0,1,.48-.55c.18-.14.4-.3.65-.47a2.34,2.34,0,0,1,.85-.34c.32-.05.68-.1,1.08-.13h.25a4.22,4.22,0,0,1,1.06.15,3,3,0,0,1,1.32.54q1.52,1.22,1.51,5.46c0,.85,0,1.79-.14,2.82a2.05,2.05,0,0,0,.4.53,4.26,4.26,0,0,0,.44.39l.19.13-1.48,1.58-.76-.77a3.24,3.24,0,0,1-.63.16,11.34,11.34,0,0,1-2.54.3,12.09,12.09,0,0,1-1.21-.07c-1.49-.13-2.42-.63-2.78-1.52A3.33,3.33,0,0,1,106.06,43.08Zm2-.33c0,.42.39.68,1.12.79a6.62,6.62,0,0,0,1.1.09,6.77,6.77,0,0,0,1.17-.1,3.77,3.77,0,0,0,1.45-.39l0-1.4a22.1,22.1,0,0,0-2.23-.13l-.74,0a3.5,3.5,0,0,0-1.49.35A.85.85,0,0,0,108,42.75Z"/><path class="cls-1" d="M116.29,43.46l1-2.05A4,4,0,0,0,119,42.48a5,5,0,0,0,1.46.3h.2A2.59,2.59,0,0,0,122,42.3a.75.75,0,0,0,.33-.57,1.24,1.24,0,0,0,0-.18,1.43,1.43,0,0,0-.71-.75,7.82,7.82,0,0,0-1.48-.71,6.8,6.8,0,0,1-1.46-.68,3.78,3.78,0,0,1-1-.79,4,4,0,0,1-.52-.72,1.7,1.7,0,0,1-.22-.6,2,2,0,0,1,0-.34,2.28,2.28,0,0,1,.1-.7,2.12,2.12,0,0,1,.47-.83,4.43,4.43,0,0,1,.69-.61,3.57,3.57,0,0,1,.77-.46c.27-.12.49-.21.67-.27A2,2,0,0,1,120,34a4.59,4.59,0,0,1,.81-.07l.41,0a4.28,4.28,0,0,1,1,.23,6.06,6.06,0,0,1,.75.34,3.58,3.58,0,0,1,.48.32l.17.14L122.89,37a6.44,6.44,0,0,0-.81-.63,2.54,2.54,0,0,0-.72-.33,3.48,3.48,0,0,0-.49-.1h-.44a2.11,2.11,0,0,0-1,.2c-.24.13-.37.28-.38.46a.92.92,0,0,0,.14.56,1.6,1.6,0,0,0,.49.52,4,4,0,0,0,.7.39c.29.14.63.29,1,.44l.82.34a4.65,4.65,0,0,1,1.32.93,2.42,2.42,0,0,1,.61,1,3.44,3.44,0,0,1,.12.81,2.05,2.05,0,0,1-.11.7,3.8,3.8,0,0,1-.18.47,4.3,4.3,0,0,1-.37.59A3.45,3.45,0,0,1,123,44a3.4,3.4,0,0,1-.88.51,4.33,4.33,0,0,1-1.24.29l-.71,0a6.84,6.84,0,0,1-.91-.06,5.36,5.36,0,0,1-1.3-.32,8.19,8.19,0,0,1-.93-.43,2.87,2.87,0,0,1-.59-.38Z"/><path class="cls-1" d="M130.47,47.05l1.73-1.2.07.19c0,.07.11.2.23.39a2.51,2.51,0,0,0,.4.5,1.86,1.86,0,0,0,.61.36,1.57,1.57,0,0,0,.65.13h.16a4.26,4.26,0,0,0,1.37-.33c.89-.46,1.36-1.45,1.39-3,0-.34,0-.77,0-1.3l-.32.29a8.36,8.36,0,0,1-.77.54,5.38,5.38,0,0,1-1.11.58,3.4,3.4,0,0,1-1.28.22h0a2.39,2.39,0,0,1-1.31-.38l-.13-.08a3.71,3.71,0,0,1-.3-.32,2.73,2.73,0,0,1-.39-.65,5,5,0,0,1-.32-1.1,8.67,8.67,0,0,1-.17-1.62c0-.11,0-.23,0-.34,0-.54,0-1.2.1-2a27.9,27.9,0,0,1,.48-3c.5,0,.93.07,1.29.07a6.07,6.07,0,0,0,1-.07c0,.16-.08.39-.14.67s-.16.79-.31,1.52-.27,1.4-.37,2a4.4,4.4,0,0,0,0,.62A8.05,8.05,0,0,0,133,40.9a1.5,1.5,0,0,0,.55,1.11l.13.12a.68.68,0,0,0,.35.09,2.79,2.79,0,0,0,1.6-.86A13,13,0,0,0,137,40a45.69,45.69,0,0,0-.43-5.16,17.32,17.32,0,0,0,2.29-.18c.08,4.64.12,7.36.14,8.16v1.39c0,.32-.06.7-.11,1.13a4.76,4.76,0,0,1-.3,1.17,6,6,0,0,1-.59,1.06,4.57,4.57,0,0,1-.62.73,4.25,4.25,0,0,1-.81.59,3.88,3.88,0,0,1-1.15.43,5.54,5.54,0,0,1-1.19.11h-.7l-.47-.07a3.13,3.13,0,0,1-.55-.14,3,3,0,0,1-.56-.26,2.48,2.48,0,0,1-.57-.42,3.14,3.14,0,0,1-.48-.6A4.08,4.08,0,0,1,130.47,47.05Z"/><path class="cls-1" d="M18,57.28a5.83,5.83,0,0,1,.59-2.52,4.22,4.22,0,0,1,1.65-1.82,4.83,4.83,0,0,1,1.4-.58A6.09,6.09,0,0,1,23,52.18a2.07,2.07,0,0,1,.35,0,2.58,2.58,0,0,1,1.43.44,3.6,3.6,0,0,0-.13.34,6.62,6.62,0,0,0-.2.81,4.41,4.41,0,0,0-.09.86,1.77,1.77,0,0,0,0,.23l-.22-.16a4.63,4.63,0,0,0-.57-.27,2.67,2.67,0,0,0-.85-.19h-.1a2.44,2.44,0,0,0-.93.2,3.11,3.11,0,0,0-1.11.76,1.72,1.72,0,0,0-.31.62A4.29,4.29,0,0,0,20.06,57a5.58,5.58,0,0,0,0,.72,3.66,3.66,0,0,0,0,.73,3.43,3.43,0,0,0,.49,1.45,3.36,3.36,0,0,0,1.18,1.16,1.75,1.75,0,0,0,.79.17h.11a2.91,2.91,0,0,0,1-.21,1.88,1.88,0,0,0,1-.79,9.35,9.35,0,0,0,1,1.92,3,3,0,0,1-1.65,1,5.2,5.2,0,0,1-1.25.17,3.35,3.35,0,0,1-.79-.09,4,4,0,0,1-1.67-.74A5,5,0,0,1,19,61.13a7.13,7.13,0,0,1-.76-1.81,7.58,7.58,0,0,1-.25-2Z"/><path class="cls-1" d="M27.06,50.65a1.29,1.29,0,0,1,.36-.88,1.33,1.33,0,0,1,.88-.45h.19a1,1,0,0,1,.67.25,1,1,0,0,1,.35.8,1.3,1.3,0,0,1-.36.89,1.27,1.27,0,0,1-.86.44H28.1a1.09,1.09,0,0,1-.68-.25A1,1,0,0,1,27.06,50.65Zm0,2.84a22.89,22.89,0,0,1,.41,4c0,.84,0,1.61,0,2.3s0,1.24,0,1.77l-.09,1.66a3.26,3.26,0,0,1,.84-.18c.21,0,.39,0,.56,0H29l.31,0c-.08-1-.12-2.32-.12-4s0-3,.06-4.17l.06-1.7a4.2,4.2,0,0,1-.92.21,7.42,7.42,0,0,1-.94.08Z"/><path class="cls-1" d="M31.37,55.51a4.31,4.31,0,0,1,.46-1.33A5.51,5.51,0,0,1,32.67,53a4,4,0,0,1,1.2-.91,3,3,0,0,1,1.32-.31h.09a3.66,3.66,0,0,1,2.23.76,2.5,2.5,0,0,1,.87,2,18.18,18.18,0,0,1-.32,3l-1.34,0a15.82,15.82,0,0,0-3.53.23s0,.1,0,.24a1.55,1.55,0,0,0,.07.59,7.49,7.49,0,0,0,.23.77A2.19,2.19,0,0,0,34,60a2.54,2.54,0,0,0,.9.6,2.59,2.59,0,0,0,.43.14,3.68,3.68,0,0,0,.51,0h0l.71-.22a2.61,2.61,0,0,0,.71-.7,9.21,9.21,0,0,0,1.34,1.27s0,0,0,0a.52.52,0,0,1-.14.25,2.22,2.22,0,0,1-.41.45,3.65,3.65,0,0,1-2.55.87h-.16a3.37,3.37,0,0,1-2.53-1,6.58,6.58,0,0,1-1.66-4.6A10.07,10.07,0,0,1,31.37,55.51Zm1.91.24.62,0,1.27-.05h.57a1.52,1.52,0,0,1,.48,0l0-.11a2.17,2.17,0,0,0,.07-.28,1.64,1.64,0,0,0,.06-.42,1,1,0,0,0,0-.38.88.88,0,0,0-.16-.38,1,1,0,0,0-.36-.28,1.32,1.32,0,0,0-.59-.13h-.05a1.8,1.8,0,0,0-1.2.57A2.21,2.21,0,0,0,33.28,55.75Z"/><path class="cls-1" d="M40.35,53a7.53,7.53,0,0,0,2.28-.27c0,.38,0,.88-.06,1.49a5.52,5.52,0,0,1,.76-.63,6,6,0,0,1,1-.53,2.38,2.38,0,0,1,1-.23h.16a2.34,2.34,0,0,1,1.17.44.5.5,0,0,1,.13.09,2.41,2.41,0,0,1,.31.36,4,4,0,0,1,.41.72,8.06,8.06,0,0,1,.38,1.23,12.63,12.63,0,0,1,.29,1.82c.05.54.07,1.19.08,2,0,.19,0,.39,0,.59,0,1-.09,2.16-.22,3.38a8.34,8.34,0,0,0-1.12-.09,3.1,3.1,0,0,0-.9.11l.09-.75c0-.31.1-.88.16-1.71s.09-1.5.09-2.15v-.11a10.08,10.08,0,0,0-.2-2,2.58,2.58,0,0,0-.6-1.39l-.13-.12a.54.54,0,0,0-.35-.11,2.14,2.14,0,0,0-1.32.82A11.2,11.2,0,0,0,42.5,57.5c0,.36,0,.71,0,1,0,1.58,0,2.92.13,4l-.69,0a4.18,4.18,0,0,0-1.33.2c0-.17,0-.41,0-.7s0-.86.06-1.69,0-1.41,0-2.08c0-.11,0-.22,0-.32,0-.77,0-1.62-.09-2.54A20,20,0,0,0,40.35,53Z"/><path class="cls-1" d="M50,57.28a6,6,0,0,1,.59-2.52,4.22,4.22,0,0,1,1.65-1.82,4.78,4.78,0,0,1,1.41-.58A5.93,5.93,0,0,1,55,52.18a2,2,0,0,1,.35,0,2.55,2.55,0,0,1,1.43.44l-.13.34a5.48,5.48,0,0,0-.19.81,3.79,3.79,0,0,0-.1.86c0,.08,0,.15,0,.23a1.83,1.83,0,0,0-.22-.16,4,4,0,0,0-.57-.27,2.61,2.61,0,0,0-.85-.19h-.1a2.48,2.48,0,0,0-.93.2,3.11,3.11,0,0,0-1.11.76,1.91,1.91,0,0,0-.31.62A5.18,5.18,0,0,0,52,57a5.58,5.58,0,0,0,0,.72,6.18,6.18,0,0,0,0,.73,3.45,3.45,0,0,0,.5,1.45,3.25,3.25,0,0,0,1.17,1.16,1.78,1.78,0,0,0,.79.17h.12a3,3,0,0,0,1-.21,1.9,1.9,0,0,0,1-.79,9.88,9.88,0,0,0,1,1.92,2.89,2.89,0,0,1-1.65,1,5.13,5.13,0,0,1-1.25.17,3.42,3.42,0,0,1-.79-.09,3.91,3.91,0,0,1-1.66-.74A4.9,4.9,0,0,1,51,61.13a7.13,7.13,0,0,1-.76-1.81,7.58,7.58,0,0,1-.25-2Z"/><path class="cls-1" d="M59,50.65a1.26,1.26,0,0,1,.37-.88,1.28,1.28,0,0,1,.87-.45h.19a1,1,0,0,1,.67.25,1,1,0,0,1,.35.8,1.34,1.34,0,0,1-.35.89,1.31,1.31,0,0,1-.87.44h-.19a1.11,1.11,0,0,1-.68-.25A1,1,0,0,1,59,50.65Zm0,2.84a22.89,22.89,0,0,1,.41,4c0,.84,0,1.61,0,2.3s0,1.24,0,1.77l-.09,1.66a3.26,3.26,0,0,1,.84-.18c.21,0,.4,0,.56,0H61l.31,0c-.07-1-.11-2.32-.11-4s0-3,.06-4.17l0-1.7a4.07,4.07,0,0,1-.92.21,7.42,7.42,0,0,1-.94.08Z"/><path class="cls-1" d="M63.05,61.08l0-.32a3,3,0,0,1,.1-.77,1.86,1.86,0,0,1,.46-.93,4,4,0,0,1,.93-.69,4.11,4.11,0,0,1,1-.4,9.13,9.13,0,0,1,1.11-.2,7.37,7.37,0,0,1,1-.06h1.14a9.59,9.59,0,0,1,1.06.07c0-1.91-.53-3.05-1.51-3.42a1.32,1.32,0,0,0-.41-.07,2.19,2.19,0,0,0-.59.07,3,3,0,0,0-.65.25,1.74,1.74,0,0,0-.57.55,2.3,2.3,0,0,0-.37.89,4.5,4.5,0,0,0-1.9-.77,1.3,1.3,0,0,0,0-.13,2.41,2.41,0,0,1,.11-.33,2.22,2.22,0,0,1,.2-.47c.08-.14.19-.33.33-.54a2.34,2.34,0,0,1,.48-.55c.18-.14.4-.3.65-.47a2.34,2.34,0,0,1,.85-.34c.32-.05.68-.1,1.08-.13h.25a4.22,4.22,0,0,1,1.06.15,3,3,0,0,1,1.32.54q1.51,1.22,1.51,5.46c0,.85,0,1.79-.14,2.82a2.25,2.25,0,0,0,.39.53,5.51,5.51,0,0,0,.45.39l.19.13-1.48,1.58-.76-.77a3.24,3.24,0,0,1-.63.16,11.34,11.34,0,0,1-2.54.3A12.09,12.09,0,0,1,66,63.53c-1.49-.13-2.42-.63-2.78-1.52A3.33,3.33,0,0,1,63.05,61.08Zm2-.33c0,.42.38.68,1.12.79a6.62,6.62,0,0,0,1.1.09,6.77,6.77,0,0,0,1.17-.1,3.64,3.64,0,0,0,1.44-.39l0-1.4a22.1,22.1,0,0,0-2.23-.13l-.74,0a3.5,3.5,0,0,0-1.49.35A.85.85,0,0,0,65,60.75Z"/><path class="cls-1" d="M79.11,62.69a1,1,0,0,1-.36-.8,1.29,1.29,0,0,1,.36-.88,1.35,1.35,0,0,1,.87-.47,1.06,1.06,0,0,1,.86.25,1,1,0,0,1,.36.81A1.4,1.4,0,0,1,80,62.93,1.1,1.1,0,0,1,79.11,62.69Z"/><path class="cls-1" d="M88.27,62.69a1,1,0,0,1-.36-.8,1.29,1.29,0,0,1,.36-.88,1.35,1.35,0,0,1,.87-.47,1,1,0,0,1,.86.25,1,1,0,0,1,.36.81,1.29,1.29,0,0,1-.36.88,1.26,1.26,0,0,1-.86.45A1.1,1.1,0,0,1,88.27,62.69Z"/><path class="cls-1" d="M97.43,62.69a1,1,0,0,1-.36-.8,1.29,1.29,0,0,1,.36-.88,1.4,1.4,0,0,1,.87-.47,1,1,0,0,1,.86.25,1,1,0,0,1,.36.81,1.29,1.29,0,0,1-.36.88,1.26,1.26,0,0,1-.86.45A1.12,1.12,0,0,1,97.43,62.69Z"/><path class="cls-1" d="M55,78.64a.6.6,0,0,1-1.18,0,1.43,1.43,0,0,1-1.16.37c-3.4-.12-3.13-5.68.58-4.84a16,16,0,0,1,.31-2.61c.19-.6,1.62-1.17,1.62,0A48.15,48.15,0,0,1,55,78.64Zm-1.4-.35a20.24,20.24,0,0,1-.42-3.53C51,74.52,51.37,78.9,53.63,78.29Z"/><path class="cls-1" d="M59.82,78.24c-.73,1.44-3.67,1.21-3.93-1.29a2.89,2.89,0,0,1,2.21-3.18A1.5,1.5,0,0,1,59.84,76a4.55,4.55,0,0,1-1.93,1.8,1.4,1.4,0,0,0,1.49,0C59.64,77.72,60,77.76,59.82,78.24Zm-2.08-1c.54-.34,1.71-1.43,1.4-2.2a.31.31,0,0,0-.37-.22A2.09,2.09,0,0,0,57.53,77C57.57,77.28,57.63,77.34,57.74,77.28Z"/><path class="cls-1" d="M64.29,77.83c.65,1.31-1.77,1.92-3.35,1.07-.42-.22-.28-.87.52-.44,1,.55,2.35.12,1-.6-1.18-.61-2.41-1.46-1.85-2.93a2.22,2.22,0,0,1,3.67-.5c.51.74.35,1.86-.39,1.86a1.65,1.65,0,0,1-1-.36c-.22-.35-.07-.63-.15-1.17s-1.26-.21-1.17.57C61.69,76.4,63.83,76.93,64.29,77.83Z"/><path class="cls-1" d="M69.74,78.64a.61.61,0,0,1-1.19,0c-.06.09-.37.37-1.15.37-3.41-.12-3.14-5.68.57-4.84a17.23,17.23,0,0,1,.31-2.61c.2-.6,1.63-1.17,1.63,0A51.15,51.15,0,0,1,69.74,78.64Zm-1.41-.35a21.23,21.23,0,0,1-.41-3.53C65.72,74.52,66.07,78.9,68.33,78.29Z"/><path class="cls-1" d="M74.52,78.24c-.73,1.44-3.67,1.21-3.93-1.29a2.89,2.89,0,0,1,2.21-3.18A1.5,1.5,0,0,1,74.55,76a4.63,4.63,0,0,1-1.94,1.8,1.4,1.4,0,0,0,1.49,0C74.34,77.72,74.7,77.76,74.52,78.24Zm-2.08-1c.55-.34,1.72-1.43,1.4-2.2a.31.31,0,0,0-.37-.22A2.09,2.09,0,0,0,72.23,77C72.27,77.28,72.34,77.34,72.44,77.28Z"/><path class="cls-1" d="M80.85,78.24c-.73,1.44-3.67,1.21-3.93-1.29a2.89,2.89,0,0,1,2.21-3.18A1.5,1.5,0,0,1,80.88,76a4.63,4.63,0,0,1-1.94,1.8,1.42,1.42,0,0,0,1.5,0C80.67,77.72,81,77.76,80.85,78.24Zm-2.08-1c.55-.34,1.72-1.43,1.4-2.2a.31.31,0,0,0-.37-.22A2.09,2.09,0,0,0,78.56,77C78.6,77.28,78.67,77.34,78.77,77.28Z"/><path class="cls-1" d="M85,78c-.4,1.5-2.19,1.51-2.91-.37a12.14,12.14,0,0,1-.21-6.23c.08-.42,1.71-1,1.81.17.09,1.41-.8,7,.54,6.6.17,0,.22-.26.37-.45S85,77.75,85,78Z"/><path class="cls-1" d="M94.15,73.11a2.82,2.82,0,0,1-3.12,3c0,.69,0,2.1-.1,2.73,0,.39-1,.51-1.45,0-.6-1-.69-4.71-.28-6.31.15-.65,1.89-.6,1.89.24,0,2.39,0,2.73,0,2.75,1.54-.11,2-3.22.68-4.37a2.68,2.68,0,0,0-3.8.54c-1,1.34-.13,1.86.21,2.12A.84.84,0,0,1,88.29,75c-.6.72-1.37-.28-1.56-.94-.59-2,1.32-3.94,3.42-4.09C91.89,69.82,94.08,70.79,94.15,73.11Z"/><path class="cls-1" d="M97.5,78.66A2.15,2.15,0,0,1,94.12,77c-.39-3.6,4.49-4.21,4.22-1.31a8.87,8.87,0,0,0,.79,2.54C99.21,78.94,98.22,79.5,97.5,78.66Zm-.17-.48a3.77,3.77,0,0,1,.33-2.12c.09-.8,0-1.46-.61-1.46s-1.34,1.07-1.31,2.24S96.5,78.61,97.33,78.18Z"/><path class="cls-1" d="M103,73.92c2,.13,2,3.29.52,4.39a3.13,3.13,0,0,1-2,.53,7.27,7.27,0,0,1-.19,2.52c-.16.38-1,.7-1.3,0-.46-1-1-7.94.86-7.9.41,0,.2.67.2,1.35a2.39,2.39,0,0,1,1.88-.93Zm-1.45,4.32a1.84,1.84,0,0,0,2-2.3c-.24-1.33-2.06-1-2.07,1.1Q101.52,77.6,101.55,78.24Z"/><path class="cls-1" d="M108.48,78.66A2.15,2.15,0,0,1,105.1,77c-.39-3.6,4.48-4.21,4.21-1.31a8.87,8.87,0,0,0,.79,2.54C110.18,78.94,109.19,79.5,108.48,78.66Zm-.17-.48a3.69,3.69,0,0,1,.32-2.12c.09-.8,0-1.46-.61-1.46s-1.34,1.07-1.31,2.24S107.47,78.61,108.31,78.18Z"/><path class="cls-1" d="M113.92,78c-.4,1.5-2.18,1.51-2.91-.37a12.25,12.25,0,0,1-.21-6.23c.08-.42,1.72-1,1.81.17.09,1.41-.79,7,.55,6.6.16,0,.22-.26.36-.45S114,77.75,113.92,78Z"/><path class="cls-1" d="M118.56,76.26c0,4.07-4.92,3.8-4.55-.06C114.42,72.86,118.56,73.13,118.56,76.26Zm-.75.12c-1.46,0-1.11-1.31-1.31-1.55-1,.1-1.51,3.29-.12,3.71C117.24,78.79,117.93,77.7,117.81,76.38Z"/><path class="cls-1" d="M122.48,78.66A2.15,2.15,0,0,1,119.1,77c-.39-3.6,4.48-4.21,4.21-1.31a8.87,8.87,0,0,0,.79,2.54C124.18,78.94,123.19,79.5,122.48,78.66Zm-.17-.48a3.69,3.69,0,0,1,.32-2.12c.09-.8,0-1.46-.61-1.46s-1.34,1.07-1.31,2.24S121.48,78.61,122.31,78.18Z"/><path class="cls-1" d="M128,73.92c2,.13,2,3.29.52,4.39a3.17,3.17,0,0,1-2,.53,7.27,7.27,0,0,1-.19,2.52c-.16.38-1,.7-1.3,0-.46-1-1-7.94.86-7.9.41,0,.21.67.21,1.35a2.36,2.36,0,0,1,1.87-.93Zm-1.46,4.32a1.84,1.84,0,0,0,2-2.3c-.23-1.33-2-1-2.07,1.1C126.49,77.41,126.51,77.81,126.52,78.24Z"/><path class="cls-1" d="M133.45,78.66A2.15,2.15,0,0,1,130.07,77c-.39-3.6,4.48-4.21,4.21-1.31a9.2,9.2,0,0,0,.79,2.54C135.15,78.94,134.16,79.5,133.45,78.66Zm-.17-.48a3.69,3.69,0,0,1,.32-2.12c.09-.8,0-1.46-.61-1.46s-1.34,1.07-1.31,2.24S132.45,78.61,133.28,78.18Z"/><path class="cls-1" d="M140.64,78.41c-.29,1.12-1.89.87-1.6-.12.74-2.73.4-3.73-.41-3.56-.49.08-1.53.92-1.11,2.87l.1.33a1.27,1.27,0,0,1,0,.61.8.8,0,0,1-1.36.39,5.9,5.9,0,0,1-.62-4.2c.14-.51.51-1.16,1-1.17s.42.35.36.68a3.73,3.73,0,0,0,.11,1.58,2.19,2.19,0,0,1,1.76-1.88C140.87,73.67,141.24,76,140.64,78.41Z"/></svg>