<svg id="Capa_1" data-name="Capa 1" xmlns="http://www.w3.org/2000/svg" viewBox="0 0 90 90"><defs><style>.cls-1{fill:#166952;}.cls-2{fill:#bdd5ce;}.cls-3{fill:#1d1d1b;}.cls-4{fill:#7dc4e8;}.cls-5{fill:#8ab8ad;}.cls-6{fill:#efc939;}.cls-7{fill:#5a5757;}.cls-8{fill:#eeefef;}</style></defs><title>logo unpa</title><path class="cls-1" d="M45.1,89.91A44.91,44.91,0,1,1,90,45,45,45,0,0,1,45.1,89.91Zm0-88.82A43.91,43.91,0,1,0,89,45,44,44,0,0,0,45.1,1.09Z"/><path class="cls-2" d="M71.2,61.89a12.8,12.8,0,0,1,.18,1.76c0,.4.06.8.06,1.2,0,.23,0,.46-.06.69s.09.38.33.3a4.73,4.73,0,0,1,1.62-.22,3.31,3.31,0,0,1,2.52.94A2.51,2.51,0,0,1,76,69.83a14.79,14.79,0,0,0-1.69,2.52,10.07,10.07,0,0,0-.89,2.5c-.06.28-.11.55-.17.82a2.07,2.07,0,0,1-1-.32,4.1,4.1,0,0,0-1.6-.43,4.94,4.94,0,0,0-1.91.21c-.09,0-.17.08-.25,0s0-.16,0-.25c.11-.36.21-.73.31-1.09a.47.47,0,0,0,0-.16c0-.14-.1-.2-.22-.13a1.25,1.25,0,0,0-.22.16A18.14,18.14,0,0,1,66.73,75a31.54,31.54,0,0,1-3,1.77,7,7,0,0,0-1.28.79.31.31,0,0,1-.22.07.24.24,0,0,0-.13.07h0a1.68,1.68,0,0,0-.95.26,36.66,36.66,0,0,1-4.75,1.67C55,80,53.52,80.37,52,80.66c-.78.14-1.58.26-2.37.37s-1.39.16-2.08.24c-.31,0-.62.06-.93.08-1.61.11-3.22.07-4.82.08a24.45,24.45,0,0,1-2.57-.16,38.67,38.67,0,0,1-6-1.07,33.88,33.88,0,0,1-4.49-1.52c-.61-.25-1.2-.54-1.8-.82a18.79,18.79,0,0,1-1.82-1,1,1,0,0,0-.5-.16c0-.09-.05-.14-.1-.21a2.27,2.27,0,0,0-.53-.39A24.44,24.44,0,0,1,21.09,74c-.68-.58-1.35-1.17-2-1.8-.26-.26-.49-.55-.75-.81s-.33-.24-.59-.08a5.92,5.92,0,0,0-1.28,1.06,5,5,0,0,0-1.06,2.24c-.06.25,0,.52-.14.75a2,2,0,0,1-.73-.84,10.16,10.16,0,0,1-.53-1,30.88,30.88,0,0,0-2.13-3.81c-.13-.19-.28-.38-.41-.56a1.75,1.75,0,0,1-.18-1.63,1.66,1.66,0,0,1,.45-.69,7.46,7.46,0,0,1,1.42-1.21,9.5,9.5,0,0,1,2.56-1.09,2.45,2.45,0,0,0,.29-.08.7.7,0,0,0,.43-.47,6.5,6.5,0,0,0,.18-1,13.54,13.54,0,0,1,.46-2.68c.06-.16,0-.34.08-.5a7.1,7.1,0,0,1,.2.76,9.39,9.39,0,0,0,1.12,2.6,16.59,16.59,0,0,0,3.33,3.81.53.53,0,0,0,.36.15,7.91,7.91,0,0,0,1.93,1.58c.08.06.17.13.28.07a.25.25,0,0,0,.08-.28,3.09,3.09,0,0,1-.05-.86,10.83,10.83,0,0,0-.12-1.5c0-.32-.18-.62-.22-.94a.52.52,0,0,0,0-.51,1,1,0,0,1-.12-.34,12.88,12.88,0,0,0-.62-2.18,9.5,9.5,0,0,0-1.51-2.57.94.94,0,0,1-.3-.58c.24-.06.43.09.62.18a10.42,10.42,0,0,1,2.35,1.47A12.12,12.12,0,0,1,27.3,64a16.62,16.62,0,0,1,1.8,4.66,11.86,11.86,0,0,1,.3,2c0,.21,0,.42.06.63a.65.65,0,0,0,.38.55,12.21,12.21,0,0,0,1.3.53,39.89,39.89,0,0,0,5.23,1.59q1.4.32,2.82.51c.82.12,1.65.22,2.48.31.43,0,.87.08,1.3.08.7,0,1.4.12,2.11.06s1.24,0,1.86-.11l1.1-.09c.45,0,.89-.07,1.33-.13.73-.11,1.45-.22,2.17-.37A29.63,29.63,0,0,0,55.66,73a18.58,18.58,0,0,0,2.15-.81.54.54,0,0,0,.36-.56c0-.37.09-.73.11-1.1a9.76,9.76,0,0,1,.36-1.85,11.93,11.93,0,0,1,.75-2.1,14.93,14.93,0,0,1,1.51-2.63,12,12,0,0,1,1.76-2,12.87,12.87,0,0,1,4.07-2.44,1.46,1.46,0,0,1,.62-.08.39.39,0,0,1-.15.38,5.66,5.66,0,0,0-.69.78A11.79,11.79,0,0,0,65,63.2a16.47,16.47,0,0,0-.81,2.46c0,.18,0,.25.17.28-.06.15-.16.27-.22.42a5.68,5.68,0,0,0-.33,2c0,.13-.08.32.08.4s.29-.08.4-.17l2-1.56a.7.7,0,0,0,.31-.46.39.39,0,0,0,.31-.08c.12-.1.25-.19.36-.3,1.2-1.16,2.36-2.36,3.45-3.63A4.65,4.65,0,0,1,71.2,61.89Zm-43,14.77.07.07a1.1,1.1,0,0,0,.68.24,1.26,1.26,0,0,0,1.25-.46,2.38,2.38,0,0,0,.51-.89,1.52,1.52,0,0,0-.31-1.47c-.05-.06-.1-.13-.18,0l-.06-.06a1,1,0,0,0-.9-.42,1.43,1.43,0,0,0-1.39.54,2,2,0,0,0-.4,1.48,1.2,1.2,0,0,0,.48.86A1.27,1.27,0,0,1,28,76c.28-.61.54-1.22.81-1.84a.56.56,0,0,1,.44-.36,1.4,1.4,0,0,1,.81.41,1.26,1.26,0,0,1,0,.43c-.19.41-.38.83-.56,1.25a10.07,10.07,0,0,0-.41,1l-.13.07a3.91,3.91,0,0,1-.68-.14s0-.06-.06-.07,0,0,0,0Zm26,2.23c-.08,0-.19,0-.28.1s-.21.05-.28-.08,0-.17-.06-.26c-.17-.57-.34-1.14-.52-1.71a2.06,2.06,0,0,1-.11-.82l.27-.19a1.23,1.23,0,0,1,.79-.22.74.74,0,0,1,.65.5c.08.25,0,.39-.3.47.08-.31,0-.41-.27-.46a.78.78,0,0,0-.4,0,.47.47,0,0,0-.26.55c.05.21.17.29.43.28a1.81,1.81,0,0,0,.23,0,.6.6,0,0,0,.35-.08.76.76,0,0,0,.44-.79.66.66,0,0,0-.62-.6,2.33,2.33,0,0,0-.37,0,1.27,1.27,0,0,0-1.08.48,1.83,1.83,0,0,0,.33,2.89.94.94,0,0,0,.47.12.42.42,0,0,1,.35,0,1.36,1.36,0,0,0,1.27-.34c.06-.09.14-.19-.07-.18s-.08,0-.06-.11a1.89,1.89,0,0,0,.09-.21.87.87,0,0,0-.09-.82,3.14,3.14,0,0,1-.19,1.12Zm-7.74,1c.07,0,0,.16.12.17l0,0a1.1,1.1,0,0,1,.39-.9s0,0,0-.06c.16-.09.32,0,.48,0s.22.17.28.3.14.35.22.52a.34.34,0,0,0,.4.22,1.07,1.07,0,0,1,.4,0c.25-.07.25-.08.17-.27-.4-.92-.81-1.84-1.22-2.75a.26.26,0,0,0-.28-.19c-.41-.16-.6,0-.62.36a1.69,1.69,0,0,1,0,.23,8.83,8.83,0,0,0-.47,2.7C46.44,80,46.4,79.94,46.44,79.88Zm-4.51-3.15c-.29,0-.55,0-.69.3-.06.12-.19.1-.3.1a.76.76,0,0,0-1-.36,1,1,0,0,0,.14.37c.18.32.37.63.55,1a1.91,1.91,0,0,1,.3.7,2.7,2.7,0,0,0-.64.57c-.16.22-.48.31-.54.64a.45.45,0,0,0,.32-.16c.21-.21.42-.42.64-.62s.25-.26.45-.22a4.63,4.63,0,0,1,.37.78.79.79,0,0,0,.9.48c.14,0,.17-.09.13-.21l-.09-.18-.68-1.3a.57.57,0,0,1-.1-.31,5,5,0,0,1,.92-.39.5.5,0,0,0,.28-.75.7.7,0,0,0-.46-.36A1.2,1.2,0,0,0,41.93,76.73Zm-7.11-.61a26.62,26.62,0,0,0-1.54,2.53c.2,0,.24-.14.29-.25a.86.86,0,0,1,1.14-.53L35,78a5.14,5.14,0,0,1,.09.87c0,.33.19.43.62.4.19,0,.19,0,.14-.41,0,0,0-.09,0-.14l-.21-2.53a1.1,1.1,0,0,0-.06-.26.32.32,0,0,0-.3-.23.34.34,0,0,0-.34.17A.73.73,0,0,0,34.82,76.12ZM59.7,75.7a.56.56,0,0,1,.52.25l.21.26c.26.33.42.35.76.1s.25-.19,0-.41a1.37,1.37,0,0,1-.17-.17c-.58-.61-1.15-1.23-1.73-1.85l-.17-.17a.36.36,0,0,0-.56.31,1.74,1.74,0,0,0,.07.29c.05.92.2,1.83.3,2.74a.29.29,0,0,0,0,.1.1.1,0,0,0,.14.06s0-.07,0-.11-.06-.19-.08-.29a.83.83,0,0,1,.44-1C59.58,75.79,59.66,75.78,59.7,75.7Z"/><path class="cls-3" d="M46.37,17.22c0,.17-.13.21-.28.21a2.35,2.35,0,0,1-.59-.1.4.4,0,0,1-.28-.45c0-.52,0-1,.09-1.57a4.75,4.75,0,0,0,0-.53c0-.21-.07-.29-.27-.32A10.55,10.55,0,0,0,44,14.4c-.17,0-.23.11-.29.24a7.52,7.52,0,0,0-.6,2.08c0,.25,0,.51-.08.77s0,.32-.25.29c-.09,0-.12.06-.12.16,0,.71-.11,1.42-.09,2.15A5.62,5.62,0,0,0,41,18.76,6.92,6.92,0,0,0,39,18c0,.15.13.19.21.25a9.23,9.23,0,0,1,3,3.86,1.08,1.08,0,0,0,.18.24.08.08,0,0,1,0,.12.1.1,0,0,1-.09,0,1.56,1.56,0,0,0-1-.56,7.26,7.26,0,0,0-1.73-.34.31.31,0,0,0-.25.05,8.19,8.19,0,0,1,2.31,1.9.09.09,0,0,1,0,.13,3.69,3.69,0,0,0-3.3,0,5.16,5.16,0,0,1,1.78.43,2.51,2.51,0,0,1,1.37,1.2,2.93,2.93,0,0,0-1.8.4c.06.08.25.14,0,.27a1.72,1.72,0,0,0-.52.52,1.55,1.55,0,0,0-.3,1c.2-.07.32-.25.49-.33s.36-.18.55-.25.37-.12.6-.19a1,1,0,0,1-.23.47,9.09,9.09,0,0,0-1.81,4.72,10.66,10.66,0,0,0-.06,2,1.09,1.09,0,0,1,0,.36,3,3,0,0,0-.51-.33c-.13-.25-.41-.25-.62-.39a4.23,4.23,0,0,0-1-.62c0-.1-.05-.16-.11-.22a1.4,1.4,0,0,0-1-.43c-.32-.14-.64-.26-1-.41A16.31,16.31,0,0,0,32,31a11.72,11.72,0,0,0-1.29-.35l-1.26-.26c-.61-.11-1.23-.22-1.85-.27a22,22,0,0,0-2.81-.08l-1,.05c-.37,0-.39,0-.35-.37a6,6,0,0,1,.36-1.23c.13-.38.23-.78.38-1.17s.25-.41.56-.29c.67.27,1.38.46,2.06.71.32.12.44.09.58-.21.29-.61.6-1.22.91-1.81.11-.22.06-.35-.16-.48l-1.9-1.15-.1-.07c-.15-.1-.14-.22-.06-.36a23.94,23.94,0,0,1,1.41-1.94c.19-.25.33-.25.59,0L29.67,23c.26.22.43.22.66,0,.41-.47.86-.9,1.3-1.35l0,0c.26-.27.28-.32,0-.59s-.58-.69-.88-1-.35-.39-.52-.6a.41.41,0,0,1,.08-.64c.55-.41,1.08-.84,1.66-1.21.33-.21.45-.19.67.12.42.6.87,1.17,1.26,1.79.14.22.26.22.5.09l1.74-.92c.29-.15.3-.23.15-.54a6.66,6.66,0,0,1-.31-.73,11.72,11.72,0,0,0-.44-1.17.85.85,0,0,1-.05-.36c0-.11,0-.17.18-.22.51-.19,1-.37,1.54-.53a5.79,5.79,0,0,1,.74-.23c.28,0,.35,0,.44.24.2.68.4,1.35.59,2s.23.52.71.42l1.6-.32h.1c.39-.09.43-.15.4-.54-.06-.74-.12-1.47-.19-2.2,0-.17,0-.27.21-.29l.43,0a13.8,13.8,0,0,0,1.57-.05h0c.46.21,1,.06,1.45.18a.67.67,0,0,1,.19.05.25.25,0,0,1,.15.3,3.06,3.06,0,0,0-.08.8,1.88,1.88,0,0,1-.11.62,1.09,1.09,0,0,0-.06.36c0,.52.11.64.58.76a2.56,2.56,0,0,0,.27.05Z"/><path class="cls-1" d="M66.57,35.39a19.46,19.46,0,0,0-4.17-.33,22.47,22.47,0,0,0-3.66.36,23.73,23.73,0,0,0-2.62.62,24.62,24.62,0,0,0-2.65,1,21.37,21.37,0,0,0-4.69,2.79c-.43.33-.82.71-1.23,1.07A7.2,7.2,0,0,1,46.05,42a5.12,5.12,0,0,1-2.46.49,7.77,7.77,0,0,1-1.44-.18,5.75,5.75,0,0,1-2.34-1.14c-.46-.37-.86-.81-1.3-1.19a18.6,18.6,0,0,0-2.18-1.68,18.18,18.18,0,0,0-1.82-1A19.48,19.48,0,0,0,31.28,36l-1.41-.39a16.11,16.11,0,0,0-2.75-.46,21.12,21.12,0,0,0-3.18-.08,22,22,0,0,0-2.8.3,1.6,1.6,0,0,1-.44,0c0-.13,0-.21.11-.29.52-.59,1.05-1.18,1.56-1.78a.85.85,0,0,1,.51-.27,21.56,21.56,0,0,1,4.54-.34,21.87,21.87,0,0,1,3.51.44,26.89,26.89,0,0,1,4,1.17,3.82,3.82,0,0,1,.46.21A23.18,23.18,0,0,1,38.12,36a3,3,0,0,0,.51.24c0,.14.14.19.24.27a18.47,18.47,0,0,1,1.91,1.63l1.62,1.6a1.56,1.56,0,0,0,2.38-.07,16.71,16.71,0,0,1,4.1-3.43c.49-.3,1-.58,1.49-.88A14.48,14.48,0,0,1,52,34.67a20.82,20.82,0,0,1,2-.73,29.64,29.64,0,0,1,4.75-1c.84-.08,1.67-.15,2.51-.15a11.37,11.37,0,0,1,3.43.43,6.13,6.13,0,0,0,.79.82c.33.46.77.82,1.11,1.27A0,0,0,0,0,66.57,35.39Z"/><path class="cls-1" d="M31.85,47.76a26.71,26.71,0,0,0-.12,3.45v3.22a.65.65,0,0,0,.36.65,2.61,2.61,0,0,0,.53.26.64.64,0,0,1,.53.68.76.76,0,0,1-.53.69,2,2,0,0,1-.49.07H29c-.26,0-.51-.12-.78-.13a1.46,1.46,0,0,1-.41-.59.84.84,0,0,1,.55-.65,1.81,1.81,0,0,0,.77-.42.78.78,0,0,0,.24-.59q0-3.41,0-6.81c0-.33,0-.65,0-1,0-.52-.11-.67-.59-.8a1.89,1.89,0,0,1-.41-.18.71.71,0,0,1-.27-.77.57.57,0,0,1,.5-.41,5.91,5.91,0,0,1,.84,0c1,0,2,0,2.95,0a1.74,1.74,0,0,1,1.26.51c.7.66,1.44,1.29,2.17,1.93.49.42,1,.86,1.45,1.29l2,1.78.21.21a.15.15,0,0,0,.18,0,.1.1,0,0,0,.06-.16c-.09-.16,0-.3,0-.44a11.24,11.24,0,0,0,0-2.17,1.85,1.85,0,0,1,0-.47.85.85,0,0,0-.67-1,3.06,3.06,0,0,1-.58-.27.8.8,0,0,1-.22-.89.53.53,0,0,1,.25-.15,2.89,2.89,0,0,1,1-.2H42.3a1,1,0,0,1,.87.33.46.46,0,0,1,.06.63.8.8,0,0,1-.55.41.87.87,0,0,0-.22,0,.83.83,0,0,0-.62.8,3.62,3.62,0,0,0,0,.93,1.51,1.51,0,0,1,0,.3V56a1.27,1.27,0,0,1,0,.2c0,.42-.09.48-.49.5l-1.4,0c-.27,0-.35-.08-.36-.34a3.74,3.74,0,0,1,0-.67,1.61,1.61,0,0,0-.49-1.42,29.64,29.64,0,0,0-2.15-2l-1.74-1.57-1.76-1.58L33,48.7A8.77,8.77,0,0,0,31.85,47.76Z"/><path class="cls-1" d="M49.51,44.07a29.39,29.39,0,0,1,4,.19,11.16,11.16,0,0,1,3.26.87,5,5,0,0,1,1.5.9,4.78,4.78,0,0,1,1.53,2.55,3.25,3.25,0,0,1-.05,1.55,3.18,3.18,0,0,1-1.13,1.61,4.28,4.28,0,0,1-1.68.76,16.61,16.61,0,0,1-4,.34c-.45,0-.91,0-1.37,0-.71,0-.86.18-.85.94a2.19,2.19,0,0,0,.14.71.72.72,0,0,0,.57.49,1.11,1.11,0,0,1,.43.19.66.66,0,0,1,.3.77.71.71,0,0,1-.67.44c-.92,0-1.83,0-2.75,0h-2a.61.61,0,0,0-.23,0,.46.46,0,0,1-.41,0,2.53,2.53,0,0,0-.23-.12.46.46,0,0,1-.33-.47c0-.46,0-.45.42-.65l.59-.26a.79.79,0,0,0,.47-.83c0-.54,0-1.09,0-1.64V46.78c0-.18,0-.36,0-.54a.64.64,0,0,0-.57-.65,2,2,0,0,1-.37-.08,1,1,0,0,1-.64-.62c-.07-.13,0-.28.13-.41A.73.73,0,0,1,46,44.2a3.3,3.3,0,0,1,.89-.13Zm1.22,4.49h0c0,.58,0,1.16,0,1.75a.89.89,0,0,0,1,1c.32,0,.65,0,1,0a3.72,3.72,0,0,0,2.18-.74,2.38,2.38,0,0,0,.84-2.43,2.42,2.42,0,0,0-.55-1,4,4,0,0,0-3.35-1.36c-.75.05-1,.37-1,1.12Z"/><path class="cls-1" d="M19.75,57a22.15,22.15,0,0,1-2.57-.15,7.45,7.45,0,0,1-2.29-.72,3.06,3.06,0,0,1-1.19-1.15,2.28,2.28,0,0,1-.32-.89,8.51,8.51,0,0,1,.07-3.22A10.46,10.46,0,0,0,13.62,49a2.83,2.83,0,0,1,.16-1,2.4,2.4,0,0,0,.07-.6c0-.32.06-.64.07-1a.55.55,0,0,0-.39-.55c-.15-.05-.3-.15-.44-.18-.31-.06-.43-.3-.57-.51a.36.36,0,0,1,.28-.56c1.47-.11,2.94-.21,4.41-.34a3.65,3.65,0,0,1,1.14.15l.38.11a.55.55,0,0,1,.33.78.57.57,0,0,1-.51.37l-.23,0a.8.8,0,0,0-.73.78q-.18,1.32-.27,2.67c-.05.81-.11,1.62-.18,2.44a5.93,5.93,0,0,0,0,1.33,4.27,4.27,0,0,0,.23,1,1.86,1.86,0,0,0,1.38,1.17,5.1,5.1,0,0,0,1.35.17,5.17,5.17,0,0,0,2.13-.47,1.8,1.8,0,0,0,.81-.87,2.22,2.22,0,0,0,.23-.43,3.4,3.4,0,0,0,.1-1.38c-.07-1.53-.2-3.06-.36-4.58a1.84,1.84,0,0,1,0-.33,2.56,2.56,0,0,0-.18-1,.62.62,0,0,0-.48-.44,1.3,1.3,0,0,1-.81-.51c-.2-.26-.16-.41.14-.54l2.12-.93a.62.62,0,0,1,.5,0c.63.27,1.27.51,1.91.77a.49.49,0,0,1,.16.74,1,1,0,0,1-.54.42c-.12,0-.22.1-.34.13a.58.58,0,0,0-.39.62,9.57,9.57,0,0,0,.11,1.6c.11.7.14,1.4.2,2.1s.11,1.43.16,2.14c0,.29,0,.58.05.87a3.67,3.67,0,0,1-.48,2,2.59,2.59,0,0,1-.74.77,4,4,0,0,1-1.13.61c-.31.1-.61.21-.93.29a8.2,8.2,0,0,1-1.71.17Z"/><path class="cls-1" d="M71.19,56.28H69a2.33,2.33,0,0,0-.53,0,.92.92,0,0,1-.4-.05.49.49,0,0,1-.36-.45.66.66,0,0,1,.43-.8l.3-.13c.26-.1.35-.23.29-.47a3.48,3.48,0,0,0-.23-.64,1.52,1.52,0,0,0-1.18-.8,16,16,0,0,0-4,0,1.35,1.35,0,0,0-1,.68,4.32,4.32,0,0,0-.32.69.45.45,0,0,0,.31.65,2,2,0,0,1,.61.34.41.41,0,0,1,0,.7,1.54,1.54,0,0,1-.89.28c-1,0-2.08,0-3.12,0a1.91,1.91,0,0,1-1-.2.63.63,0,0,1,0-1,3.16,3.16,0,0,1,.72-.28,1.62,1.62,0,0,0,1-.82c.2-.34.41-.67.6-1s.24-.53.39-.79.43-.71.63-1.08.27-.45.38-.68.3-.54.45-.8c.3-.51.57-1,.86-1.55l.57-1c.26-.49.52-1,.81-1.46a8.43,8.43,0,0,0,.59-1.06.91.91,0,0,1,1-.58,9.88,9.88,0,0,0,1.72,0,.61.61,0,0,1,.69.37l1.12,2.55,1.32,3c.49,1.12,1,2.23,1.45,3.35a6.53,6.53,0,0,0,.65,1.15,1,1,0,0,0,.72.49,2.74,2.74,0,0,1,.49.19c.28.1.31.36.33.6a.43.43,0,0,1-.28.51,1.46,1.46,0,0,1-.55.11H71.19Zm-6-4.92,1.23-.07a2.72,2.72,0,0,0,.49-.13c.38-.12.47-.27.3-.62-.31-.65-.52-1.35-.87-2a1.66,1.66,0,0,1-.19-.46,1.76,1.76,0,0,0-.32-.66c-.16-.22-.28-.21-.42,0a.78.78,0,0,0-.11.2c-.28.58-.55,1.15-.82,1.73l-.61,1.3c-.15.33-.09.44.26.53A3.43,3.43,0,0,0,65.24,51.36Z"/><path class="cls-4" d="M50.37,35.4c-.5.3-1,.58-1.49.88a16.71,16.71,0,0,0-4.1,3.43,1.56,1.56,0,0,1-2.38.07l-1.62-1.6a18.47,18.47,0,0,0-1.91-1.63c-.1-.08-.22-.13-.24-.27l.34-.1a2.2,2.2,0,0,0-.75-.55,2.33,2.33,0,0,1-.59-.44c-.27-.22-.53-.45-.8-.66s-.33-.32-.28-.5.22-.37.55-.37l.19,0a.89.89,0,0,0,.63.29,3,3,0,0,1,.51.33,1.82,1.82,0,0,0,.68.49,1,1,0,0,0,.87.52.47.47,0,0,0,.33.16,1.33,1.33,0,0,0,1.07.52.36.36,0,0,0,.26-.5,2.62,2.62,0,0,0-1-.92.42.42,0,0,0-.2-.33c-.07-.59-.07-.61.37-.79l.56.23a1.11,1.11,0,0,0,.95.65c.05.11.16.13.26.16.11.24.11.24.38.21s.56.34.91.29a.52.52,0,0,0,.4.27,2.61,2.61,0,0,0,.69.07c.13.09.24.09.31-.08s0-.22-.11-.29l-.13,0a2.31,2.31,0,0,0-.71-.75c0-.24,0-.45.31-.53a1.52,1.52,0,0,1,.54.23.87.87,0,0,0,.52.17.26.26,0,0,0,.22.15,1.05,1.05,0,0,0,.74.38c.19,0,.35.13.54.13a.73.73,0,0,0,.72.26c.14.08.27,0,.4,0,0,.13.13.16.24.19A8.88,8.88,0,0,0,50.37,35.4Z"/><path class="cls-1" d="M45.89,28.1l-.26,0c0-.09.12-.19,0-.24-.25-.14-.45-.41-.79-.33-.15-.05-.31-.09-.33-.29s0-.23,0-.34a.27.27,0,0,0-.34-.19c-.17.05-.09.19-.09.3s0,.23.11.34,0,.17-.09.08a1,1,0,0,0-.46-.22.4.4,0,0,1-.15-.19c.06-.07.1-.16,0-.23s-.15,0-.21,0a1.17,1.17,0,0,0-.33.37c0,.07,0,.13,0,.17a.94.94,0,0,1-.28.48l-.09,0c-.28-.2-.32-.19-.44.14a3,3,0,0,1-.29.6.56.56,0,0,0-.09.41l-.27.31c-.14-.17-.23.05-.35.06.07-.49.15-1,.19-1.46A1.64,1.64,0,0,1,42,26.77a1.15,1.15,0,0,1,.86-.3c.27,0,.32,0,.3-.27a12.56,12.56,0,0,0-.31-2.59,2.41,2.41,0,0,0-.08-.25,3.57,3.57,0,0,1-.23-1.61c0-.16,0-.27.23-.2s.18-.07.19-.17a2.11,2.11,0,0,1,.22-.56.32.32,0,0,1,.37-.22c.22,0,.24,0,.24-.24,0-1.65,0-3.31,0-5,0-.11-.1-.32.13-.31s.11.19.11.29a26,26,0,0,0,.6,4l.44-.7c.12-.2.23-.38.5-.4a.45.45,0,0,0,.34-.29,1,1,0,0,1,1.1-.49.9.9,0,0,0,.2.27h0a.2.2,0,0,1-.07.26,4.94,4.94,0,0,0-1.2,1.66c-.05.11-.12.21-.18.32-.19-.14-.35,0-.52.06a2.42,2.42,0,0,1-.87.33c0,.1.12.15.09.24s-.08,0,0,.08a2.19,2.19,0,0,0,.7.62c0,.1-.08.17-.12.26s-.09.13,0,.19,0,.09-.05.13,0,.08,0,.12S45,22,45,22l.09-.1c.18-.17.22-.17.42,0,0,0,.07.09.13.09a.33.33,0,0,0,.08-.31,4.6,4.6,0,0,1,.14-.74v-.07h0a3.73,3.73,0,0,1,1.17-.69,4.16,4.16,0,0,0,.85-.47,4.48,4.48,0,0,1,2-.72,1.67,1.67,0,0,1,.64,0,1,1,0,0,1-.28.21c-.66.41-1.3.86-1.93,1.33A5.92,5.92,0,0,0,46.89,22c-.36.55-.69,1.12-1.09,1.65l0,.09a.29.29,0,0,0,.24,0c.1,0,.17,0,.19.1s.14.18.27.19a3.39,3.39,0,0,1,1.75.77,1.34,1.34,0,0,1,.53.9l-.36-.19a4,4,0,0,0-2.31-.55A2,2,0,0,0,45,25.4a.15.15,0,0,0-.08.16,2.08,2.08,0,0,1,1.58.52A1.7,1.7,0,0,1,47,27a1.93,1.93,0,0,0-1.26-.42c-.06.1,0,.16,0,.23a2.62,2.62,0,0,0,.82,1.08.23.23,0,0,1,.11.31l0,0C46.4,27.81,46.2,27.78,45.89,28.1Z"/><path class="cls-5" d="M62.28,77.6a.31.31,0,0,0,.22-.07,7,7,0,0,1,1.28-.79,31.54,31.54,0,0,0,3-1.77,18.14,18.14,0,0,0,1.72-1.31,1.25,1.25,0,0,1,.22-.16c.12-.07.21,0,.22.13a.47.47,0,0,1,0,.16c-.1.36-.2.73-.31,1.09,0,.09-.07.17,0,.25s.16,0,.25,0a4.94,4.94,0,0,1,1.91-.21,4.1,4.1,0,0,1,1.6.43,2.07,2.07,0,0,0,1,.32,2.34,2.34,0,0,1-1,1.85,6.4,6.4,0,0,1-2.18,1.06,9.87,9.87,0,0,1-1.34.23,17.67,17.67,0,0,1-2.3.17,11.57,11.57,0,0,1-1.94-.13l-1.18-.19a2.76,2.76,0,0,1-1.07-.39c-.31-.2-.33-.32-.09-.6h0A.16.16,0,0,0,62.28,77.6Z"/><path class="cls-5" d="M22.19,67.07a.53.53,0,0,1-.36-.15,16.59,16.59,0,0,1-3.33-3.81,9.39,9.39,0,0,1-1.12-2.6,7.1,7.1,0,0,0-.2-.76,1.79,1.79,0,0,1,.4-.83,1.55,1.55,0,0,1,.77-.49,3.65,3.65,0,0,1,2.07,0,2.27,2.27,0,0,1,.94.48.31.31,0,0,0,.18.09.94.94,0,0,0,.3.58,9.5,9.5,0,0,1,1.51,2.57A12.88,12.88,0,0,1,24,64.29a1,1,0,0,0,.12.34.52.52,0,0,1,0,.51c-.1-.1-.21-.2-.31-.31a1.21,1.21,0,0,0-.67-.35,1,1,0,0,0-1.26,1.16A13.53,13.53,0,0,0,22.19,67.07Z"/><path class="cls-5" d="M15.29,75.33c.14-.23.08-.5.14-.75a5,5,0,0,1,1.06-2.24,5.92,5.92,0,0,1,1.28-1.06c.26-.16.37-.14.59.08s.49.55.75.81c.63.63,1.3,1.22,2,1.8A24.44,24.44,0,0,0,24,76.12a2.27,2.27,0,0,1,.53.39c.05.07.11.12.1.21a6.42,6.42,0,0,1-1.88.48,26.74,26.74,0,0,1-3.58,0,12.06,12.06,0,0,1-1.7-.14,2.75,2.75,0,0,1-1.79-1c-.11-.13-.18-.28-.29-.4S15.32,75.44,15.29,75.33Z"/><path class="cls-5" d="M64.35,65.94c-.16,0-.21-.1-.17-.28A16.47,16.47,0,0,1,65,63.2a11.79,11.79,0,0,1,1.52-2.62,5.66,5.66,0,0,1,.69-.78.39.39,0,0,0,.15-.38,3.45,3.45,0,0,1,2.88,0,1.74,1.74,0,0,1,1,1.54,4.52,4.52,0,0,1,0,.9,4.08,4.08,0,0,0-.54.63c-1.09,1.27-2.25,2.47-3.45,3.63-.11.11-.24.2-.36.3a.39.39,0,0,1-.31.08c0-.13,0-.26-.08-.39a.7.7,0,0,0-.65-.61A1.62,1.62,0,0,0,64.35,65.94Z"/><path class="cls-4" d="M16.1,38A3.42,3.42,0,0,1,17,35.63a5.1,5.1,0,0,1,2.54-1.79,4,4,0,0,1,1.82-.05c.14,0,.16.08.09.2a1.69,1.69,0,0,1-.34.41,3.34,3.34,0,0,0-.82,1.39,2.37,2.37,0,0,0-.08,1.09,3.7,3.7,0,0,1-.05,1.75A2.21,2.21,0,0,1,18,40.22a2.59,2.59,0,0,1-1.07-.44,1.72,1.72,0,0,1-.76-1A3.25,3.25,0,0,1,16.1,38Z"/><path class="cls-3" d="M48.28,34.94c-.13,0-.26.11-.4,0s.21-.17.21-.32a22.39,22.39,0,0,1,3.41-2.3,21.21,21.21,0,0,1,6.57-2.19,25.32,25.32,0,0,1,5.22-.25h.13c.23,0,.29-.06.22-.28-.22-.72-.45-1.43-.69-2.14-.1-.3-.19-.33-.51-.22l-2.06.7c-.37.13-.42.1-.6-.25-.32-.65-.64-1.3-1-1.95-.19-.38-.17-.45.19-.66L60.78,24c.27-.16.29-.25.11-.5-.37-.52-.75-1-1.14-1.54-.22-.3-.29-.29-.59-.05l-1.72,1.39c-.26.21-.33.2-.56,0-.54-.56-1.07-1.12-1.61-1.67-.24-.26-.24-.31,0-.59l1.32-1.56.11-.13c.15-.21.15-.3,0-.45-.47-.35-.91-.73-1.4-1s-.48-.21-.72.13a11.89,11.89,0,0,0-.86,1.24,3.71,3.71,0,0,1-.28.41.56.56,0,0,1-.75.16,1,1,0,0,1-.23-.13c-.39-.29-.83-.48-1.24-.74a1.41,1.41,0,0,0-.49-.2c-.17,0-.19-.12-.16-.26s0-.12.06-.19c.27-.67.53-1.34.8-2,.14-.36.1-.46-.26-.56-.57-.18-1.14-.38-1.71-.58-.35-.12-.46-.07-.56.29-.17.56-.31,1.12-.48,1.67a2.25,2.25,0,0,1-.27.68c-.1-.17-.06-.37-.14-.53v-.07c.1-.32.18-.65.29-1s.24-.85.38-1.28a.27.27,0,0,1,.32-.23.71.71,0,0,1,.2,0c.77.25,1.55.47,2.31.77l.19.08c.21.1.26.21.17.43l-.73,1.83c-.19.48-.34.61.33.9a11.38,11.38,0,0,1,1.19.64.36.36,0,0,0,.57-.12c.4-.6.87-1.15,1.24-1.77.16-.27.3-.3.58-.14a10.73,10.73,0,0,1,1.3.9c.29.22.57.43.84.67s.16.22,0,.36-.38.47-.58.69-.57.71-.88,1-.25.42,0,.71l1.16,1.17a.34.34,0,0,0,.53,0c.53-.4,1-.84,1.56-1.22.13-.09.2-.23.37-.28a.3.3,0,0,1,.32.09,7.19,7.19,0,0,1,.7.85,12.19,12.19,0,0,1,.93,1.33c.19.3.18.32-.13.51l-1.75,1.07-.16.1c-.21.16-.22.23-.11.45.22.45.44.89.67,1.34l.13.27c.13.29.23.33.5.24l2.16-.76c.31-.1.37-.06.5.23.39.92.62,1.88.92,2.82a.64.64,0,0,1,0,.2c0,.11,0,.19-.17.19h-.27A23,23,0,0,0,58,30.5a23.29,23.29,0,0,0-2.44.57c-.5.14-1,.32-1.48.49a20.1,20.1,0,0,0-5.51,3.16C48.45,34.79,48.33,34.82,48.28,34.94Z"/><path class="cls-4" d="M65.46,34.06a6,6,0,0,1-.79-.81l.83,0c3.35,0,6.7,0,10,0,.81,0,1.61,0,2.41,0a1.33,1.33,0,0,1,.4.05.34.34,0,0,1,.24.35c0,.26-.11.37-.33.39A2.43,2.43,0,0,1,78,34H65.81A.49.49,0,0,0,65.46,34.06Z"/><path class="cls-1" d="M67.82,34.13a12.55,12.55,0,0,0,1.61.26,55.66,55.66,0,0,0,6.32.36l2.61,0c.21,0,.28.14.19.33s-.12.08-.2.08H77.18l-7.84.07-2,0a.56.56,0,0,1-.54-.31,1.46,1.46,0,0,1-.19-.94C67,34.1,67.43,34.07,67.82,34.13Z"/><path class="cls-4" d="M19,31.5a2.55,2.55,0,0,1,2,.78,1.07,1.07,0,0,1,.25.42c.06.14,0,.21-.15.22H21a2.28,2.28,0,0,0-1.78.67,1.36,1.36,0,0,1-1,.4,1.08,1.08,0,0,1-1-1,2.43,2.43,0,0,0,0-.27,1,1,0,0,1,.65-1A2,2,0,0,1,19,31.5Z"/><path class="cls-3" d="M24.49,11.91a.84.84,0,0,1,.65.35c.17.2.3.44.45.65a.15.15,0,0,1-.05.25l-.09.05c-.34.24-.36.24-.58-.11a4.68,4.68,0,0,1-.45-.62.26.26,0,0,0-.26-.16c-.13,0-.17.07-.22.16a.88.88,0,0,1-.51.27,2.7,2.7,0,0,0,.57.85.43.43,0,0,0,.09.1.39.39,0,0,1-.22.69.25.25,0,0,1-.3-.08c-.48-.72-1-1.38-1.55-2.08a.32.32,0,0,1,.12-.5,1.19,1.19,0,0,0,.36-.26,3.12,3.12,0,0,1,.83-.61.74.74,0,0,1,1.11.7l0,.3C24.41,11.92,24.45,11.92,24.49,11.91Zm-1.09.76a.76.76,0,0,1,.51-.56.14.14,0,0,0,.08-.23c-.14-.18-.25-.37-.39-.54s-.22-.25-.51-.07l-.36.24c-.16.11-.17.22,0,.35a5.46,5.46,0,0,1,.36.48A.8.8,0,0,0,23.4,12.67Z"/><path class="cls-3" d="M36.31,4.57c0-.07,0-.16.1-.16a1,1,0,0,1,.9.4,2.07,2.07,0,0,1,.33,2.07.91.91,0,0,1-.51.56,2.49,2.49,0,0,1-.74.25.14.14,0,0,0-.14.07c-.09.35-.39.19-.6.25s-.18-.13-.2-.23c-.09-.47-.24-.93-.35-1.39s-.15-.67-.22-1a.76.76,0,0,1,0-.3A.15.15,0,0,1,35.05,5a2.23,2.23,0,0,0,.51-.12l.06.1c-.09.05-.08.13,0,.2a.58.58,0,0,1,.11.3c.14.58.28,1.15.43,1.72.09.4.16.43.54.31a1.45,1.45,0,0,0,.22-.09c.26-.1.28-.14.22-.42-.16-.67-.33-1.34-.5-2A.43.43,0,0,0,36.31,4.57Z"/><path class="cls-3" d="M26.65,11.65l-.19.27a.12.12,0,0,0,0,.13.11.11,0,0,0,.14,0,1.62,1.62,0,0,0,1-.92.51.51,0,0,0-.51-.66,2.59,2.59,0,0,0-.62.1,6.85,6.85,0,0,1-.89.14c-.42,0-.62-.15-.64-.56a1.16,1.16,0,0,1,.28-1,1.61,1.61,0,0,1,1.15-.44.44.44,0,0,1,.4.3c.05.14.08.28-.08.38s0-.11,0-.17a.36.36,0,0,0-.26-.38A.38.38,0,0,0,26,9c.33,0,.59,0,.6.38,0,.1.1,0,.15,0a1.1,1.1,0,0,0-.14.18c-.06.16-.18.18-.32.19-.49,0-.61-.15-.42-.62.09-.06.06-.1,0-.12s-.11,0-.13.11a.7.7,0,0,0-.46.63c0,.26.08.37.34.39a1.66,1.66,0,0,0,.59-.09,5.33,5.33,0,0,1,.76-.2.81.81,0,0,1,1,1A1.68,1.68,0,0,1,27.2,12a1.59,1.59,0,0,1-1.18.28c-.33,0-.44-.18-.43-.52a1.3,1.3,0,0,1,.09-.52.81.81,0,0,1,.95-.34.5.5,0,0,1,.23.75c0,.07-.23.06-.28,0s.14-.12.15-.17c.06-.29,0-.42-.3-.48a.79.79,0,0,0-.54.14c-.14.09-.14.27-.19.41a.27.27,0,0,0,.13.32,1.4,1.4,0,0,1,.06-.24.5.5,0,0,1,.45-.33C26.54,11.33,26.61,11.48,26.65,11.65Zm-.79.28v0a0,0,0,0,0,0,0s0,0,0,0Z"/><path class="cls-3" d="M65.78,11.63a.82.82,0,0,0-1,.38c-.08.13-.18.23-.27.35l-.69.89a.5.5,0,0,0,.21.82l.18.07c.22.1.3.09.46-.07a10.64,10.64,0,0,0,.73-.93,8,8,0,0,0,.51-.64c.1-.13.25-.25.09-.43,0,0,0-.06,0-.09s.08,0,.12,0,.19.18.23.3A1.52,1.52,0,0,1,66,13.76a1.8,1.8,0,0,1-.9.65,1.31,1.31,0,0,1-1.16-.13,1.51,1.51,0,0,1-.61-1.19,1.75,1.75,0,0,1,.35-1.19A1.47,1.47,0,0,1,65.78,11.63Z"/><path class="cls-3" d="M52.41,6.4a2.19,2.19,0,0,1-.84-.05c-.12,0-.25,0-.27.17a4,4,0,0,1-.18.66.25.25,0,0,1-.3.2,1.6,1.6,0,0,1-.23,0,.19.19,0,0,1-.2-.22,1.75,1.75,0,0,1,.1-.64c.15-.5.27-1,.37-1.52L51,4.6c.09-.31.22-.4.53-.33a2.31,2.31,0,0,0,.68.15c.2.25.53.16.78.27a.91.91,0,0,1,.5,1,.94.94,0,0,1-1.32.71s0-.11,0-.11c.22,0,.23-.15.24-.32a1.61,1.61,0,0,1,.25-.82c.16-.25.07-.39-.22-.43A2.22,2.22,0,0,1,52,4.68c-.16-.06-.22,0-.26.16a10.29,10.29,0,0,1-.29,1.09c0,.1,0,.15.1.16l.23,0C51.9,6.12,52.45,6.27,52.41,6.4Z"/><path class="cls-3" d="M70,18.3a.51.51,0,0,1-.46-.19,2.76,2.76,0,0,1-.55-.58c-.12-.21-.28-.21-.49-.07a2.93,2.93,0,0,0-.42.37.35.35,0,0,1-.39.1.73.73,0,0,1-.3-.41.34.34,0,0,1,.14-.25L69.11,16c.11-.09.19-.19.29-.28a.34.34,0,0,1,.58,0,8,8,0,0,1,.84,1,1.4,1.4,0,0,0,.1.16.8.8,0,0,1,.07.94A1,1,0,0,1,70,18.3ZM70.65,17a.94.94,0,0,0-.56-.74.12.12,0,0,0-.15,0c-.25.25-.57.42-.81.69s-.18.25,0,.45a1.5,1.5,0,0,0,.35.36c.18.14.23.16.33,0a1.29,1.29,0,0,1,.74-.64C70.6,17.07,70.66,17,70.65,17Z"/><path class="cls-3" d="M20.28,16.55c-.14-.25-.27-.5-.4-.75a1.06,1.06,0,0,0-.26-.34.64.64,0,0,1-.65.28c-.31,0-.34-.06-.31-.4.12,0,.23-.08.22-.2s.07-.28.27-.28a.09.09,0,0,0,.11-.09c0-.08-.07-.11-.14-.12a.48.48,0,0,0-.5.38.6.6,0,0,1-.11.3c-.08,0-.19.09-.18-.11a.77.77,0,0,1,.88-.75.58.58,0,0,1,.39.37c.29.55.57,1.1.86,1.64.07.15.11.31.35.28s.22.21.21.37a.42.42,0,0,1-.39.35,1,1,0,0,1-.39-.08c-.52-.25-1.08-.44-1.62-.66a4.5,4.5,0,0,0-.78-.27c-.16,0-.19-.17-.11-.32.21-.4.29-.43.7-.27.59.25,1.16.53,1.77.73,0,0,.08.09.13,0S20.32,16.57,20.28,16.55Z"/><path class="cls-3" d="M72.77,23.35a.18.18,0,0,0,.22,0c.49-.35,1-.68,1.48-1,.06,0,.13-.05.17-.09s.13,0,.18,0,0,.12-.06.15c-.39.26-.78.5-1.16.76a7.17,7.17,0,0,0-1.06.74.32.32,0,0,1-.48-.07.52.52,0,0,1,0-.47c.24-.59.46-1.18.65-1.79,0-.13.18-.29.07-.38s-.27.08-.39.15c-.37.23-.73.49-1.1.74-.12.08-.24.13-.34,0l1.83-1.22c.16-.11.32-.23.48-.33s.25-.15.39,0a.37.37,0,0,1,.14.44c-.11.27-.21.54-.33.8C73.19,22.27,73,22.83,72.77,23.35Z"/><path class="cls-3" d="M16.46,18.1a14.15,14.15,0,0,1,1.69,1.28,3.81,3.81,0,0,0,.32.24c.12.06.21.15.17.28a.37.37,0,0,1-.29.33H18c-.78,0-1.56-.08-2.36-.07,0,.14.13.2.22.26.41.32.83.63,1.25.94l.12.11c.05.05.1.1,0,.16s-.11.08-.18,0l-.33-.27c-.39-.3-.77-.62-1.16-.94-.2-.15-.4-.3-.59-.46a.32.32,0,0,1,.09-.56.77.77,0,0,1,.37,0l2.13.17a.6.6,0,0,0,.32,0,3.44,3.44,0,0,0-.78-.7,7.57,7.57,0,0,1-.7-.57Z"/><path class="cls-3" d="M58.6,10c.33-.32.67-.62,1-.94s.69-.61,1-.92a.23.23,0,0,1,.32,0,.36.36,0,0,1,.22.4c-.09.45-.17.91-.27,1.36a9.42,9.42,0,0,0-.25,1.39c0,.06,0,.12-.06.15a.29.29,0,0,1-.31,0c-.12-.09-.33-.07-.35-.29a2.36,2.36,0,0,1,.09-.7c.05-.18,0-.28-.14-.37a2.11,2.11,0,0,1-.27-.18c-.29-.18-.41-.17-.66.06C58.84,10.05,58.76,10.17,58.6,10Zm1.79-1.33-.76.64c-.14.14-.15.23,0,.35a1.45,1.45,0,0,0,.5.24A2.88,2.88,0,0,0,60.39,8.69Z"/><path class="cls-3" d="M65.87,15a6.06,6.06,0,0,1,.66-.36l1.34-.73a.4.4,0,0,1,.55.12c0,.08.09.15,0,.24s0,.13-.07.19c-.39.8-.77,1.61-1.16,2.41-.12.24-.14.24-.35.07a.56.56,0,0,1-.13-.82s0-.1.08-.14c.2-.31.2-.39-.06-.61a.84.84,0,0,0-.94-.19Zm.66-.11c.15.17.26.32.38.44s.22.1.31-.06.21-.34.3-.52.16-.25.08-.41A4.94,4.94,0,0,0,66.53,14.9Z"/><path class="cls-3" d="M70.48,21.64l-.2-.19a.5.5,0,0,1-.06-.75c.07-.1.12-.21.19-.31s.14-.22,0-.35,0-.12,0-.19.16-.13,0-.22a.43.43,0,0,0-.38-.09,1.24,1.24,0,0,0-.31.1.45.45,0,0,1-.47,0l1.15-.44c.27-.12.55-.21.82-.33a2.17,2.17,0,0,0,.33-.19c.24-.16.45-.16.58,0a.36.36,0,0,1,0,.45c-.33.52-.67,1-1,1.56ZM71.42,19c-.3.11-.54.18-.76.27s-.16.12-.1.29.31.2,0,.33c0,0,0,.08.07.09a.12.12,0,0,0,.14-.06C71,19.63,71.21,19.37,71.42,19Z"/><path class="cls-3" d="M32.68,7.43a10,10,0,0,0,0-1.34,1.58,1.58,0,0,1,0-.43.29.29,0,0,1,.51-.16,2.76,2.76,0,0,1,.37.46c.49.64,1,1.28,1.45,1.9,0,0,.1.11,0,.16a.88.88,0,0,1-.48.22c-.14,0-.29,0-.35-.18a2.14,2.14,0,0,0-.13-.19c-.16-.34-.34-.43-.64-.38a.7.7,0,0,0-.57.57.72.72,0,0,0,0,.48c0,.06.09.19-.06.21s-.11-.1-.11-.18C32.68,8.19,32.68,7.81,32.68,7.43Zm.18.08.66-.15c.09,0,.13-.06.1-.16a3.5,3.5,0,0,0-.72-1A6.8,6.8,0,0,0,32.86,7.51Z"/><path class="cls-3" d="M53.55,7.29A4.78,4.78,0,0,1,54,6.57c.23-.37.5-.71.74-1.07a.26.26,0,0,1,.3-.14.38.38,0,0,1,.34.31c0,.27,0,.55,0,.83,0,.66,0,1.32,0,2,0,.28-.07.34-.33.25a.28.28,0,0,0-.13,0c-.19,0-.25-.11-.26-.27s0-.44,0-.67,0-.3-.24-.25-.15,0-.21-.08A1.26,1.26,0,0,0,53.55,7.29ZM54.77,6c-.1,0-.14.06-.18.12s-.23.36-.34.54-.17.4.16.56l.15.07c.15,0,.21,0,.21-.14C54.78,6.76,54.77,6.38,54.77,6Z"/><path class="cls-3" d="M21.46,12.62a8.11,8.11,0,0,1-.62.55c-.14.15-.15.2,0,.36l.12.12c.23.27.23.27.5,0a.57.57,0,0,1,.51-.2,2.15,2.15,0,0,1-.45.41c-.18.13-.18.15-.05.34a4.43,4.43,0,0,0,.47.6c.13.13.27.26.4.41s.24.46-.1.66a.24.24,0,0,1-.34,0c-.59-.59-1.1-1.22-1.63-1.85-.23-.28-.18-.43.11-.68s.51-.48.78-.71S21.35,12.48,21.46,12.62Z"/><path class="cls-3" d="M45.28,4.6c-.24,0-.55-.08-.7.09s0,.45,0,.69,0,.49-.05.73.09.36.36.37h.36l.09.07c-.5,0-.94,0-1.38,0a.15.15,0,0,1-.16-.17V6.06c0-.69,0-1.38.08-2.07s-.06-.57.59-.55c.41,0,.82,0,1.27,0a.39.39,0,0,1-.45.21,1.33,1.33,0,0,0-.4,0,.3.3,0,0,0-.3.3,2.2,2.2,0,0,0,0,.51,1.45,1.45,0,0,1,.72.13A.06.06,0,0,1,45.28,4.6Z"/><path class="cls-3" d="M19.61,18.76l-.36.38c-.21.21-.25.21-.46,0l-1.2-1.11c-.23-.21-.48-.39-.7-.61a.23.23,0,0,1,0-.36,1.12,1.12,0,0,1,.17-.21c.14-.15.22-.15.4,0a1.64,1.64,0,0,1,.25.21c.56.56,1.17,1.06,1.75,1.59C19.48,18.68,19.53,18.7,19.61,18.76Z"/><path class="cls-3" d="M62.41,12.8a2,2,0,0,1-.88-.44,1.53,1.53,0,0,0-.21-.14c-.32-.18-.36-.41-.15-.72l.89-1.3c.14-.21.27-.44.42-.65s.19-.22.41-.11a.59.59,0,0,1,.17.1c.19.17.2.24.06.45l-.94,1.37c-.14.2-.28.4-.4.6s-.09.26.1.38A1.84,1.84,0,0,1,62.41,12.8Z"/><path class="cls-3" d="M27.4,8.22c0-.11,0-.17.11-.22l.23-.11c.23-.1.32-.09.43.12.19.36.39.71.6,1.06s.43.8.69,1.16c.11.15.09.23-.06.33s-.23.13-.34.21-.26,0-.32-.09c-.23-.52-.57-1-.82-1.48-.13-.28-.35-.52-.48-.81A.27.27,0,0,1,27.4,8.22Z"/><path class="cls-3" d="M47.61,6.76a1.48,1.48,0,0,1-.86,0,1.78,1.78,0,0,0-.47-.06c-.24,0-.25,0-.27-.28a1.22,1.22,0,0,1,0-.27c.06-.6.13-1.19.19-1.79a4.89,4.89,0,0,0,0-.54.22.22,0,0,1,.2-.25.76.76,0,0,1,.51.09c.11,0,.11.16.09.26-.15.78-.17,1.57-.28,2.35,0,.3,0,.3.25.33A1.35,1.35,0,0,1,47.61,6.76Z"/><path class="cls-3" d="M58,6.69a1,1,0,0,0-.42.54,1.12,1.12,0,0,1-.16.37.73.73,0,0,0-.13.73c-.2,0-.29.09-.35.24s-.14.28-.19.42-.3.39-.54.29S55.87,9,56,8.69s.38-.79.57-1.18.31-.69.48-1,.15-.25.38-.13A1,1,0,0,1,58,6.69Z"/><path class="cls-3" d="M29.41,7.14c-.05.09,0,.15,0,.22l1.11,2.22a1.42,1.42,0,0,1,.08.18c0,.05,0,.12,0,.14s-.25.17-.4.19-.27,0-.38-.21l-.75-1.56c-.1-.2-.24-.39-.34-.59A.36.36,0,0,1,29,7.17c.15,0,.26-.11.4-.13Z"/><path class="cls-3" d="M41.38,6.68c-.2.16-.44.09-.67.12s-.1-.08-.11-.17c0-.49-.09-1-.14-1.47L40.34,4.1a2.44,2.44,0,0,1,0-.27c0-.09,0-.16.14-.16a3.28,3.28,0,0,1,.63,0v0h0c0,.75.12,1.48.18,2.22a3.13,3.13,0,0,0,.08.75A0,0,0,0,1,41.38,6.68Z"/><path class="cls-3" d="M31.27,9c0-.21-.16-.35-.25-.52a3.84,3.84,0,0,1-.39-.85,2,2,0,0,0-.51-.79c0-.06,0-.12,0-.18A1,1,0,0,1,31.2,7a2.26,2.26,0,0,1,.68,1.56,1.59,1.59,0,0,1-.22.76.22.22,0,0,1-.21.13c-.13,0-.09-.09-.07-.16s0-.09,0-.12h0Z"/><path class="cls-3" d="M16.1,23.4a.82.82,0,0,1-1.29.14,2.8,2.8,0,0,0-.33-.24c-.37-.27-.74-.52-1.12-.76a.33.33,0,0,1-.19-.37c.09-.41.33-.52.66-.26.56.42,1.14.8,1.7,1.22A2.5,2.5,0,0,0,16.1,23.4Z"/><path class="cls-3" d="M42,3.58a1.41,1.41,0,0,1,1.07,1.27,2,2,0,0,1-.29,1.37.65.65,0,0,1-.64.39V6.56c.2-.19.14-.44.12-.66-.06-.48-.11-1-.15-1.43a1.64,1.64,0,0,0-.2-.8Q41.9,3.57,42,3.58Z"/><path class="cls-6" d="M42.72,30.25a.67.67,0,0,1,.05-.19,2.19,2.19,0,0,1,.52-.76c.2-.19.35-.18.5,0a2,2,0,0,1,.34.82.34.34,0,0,1,0,.2c-.14.27-.27.54-.42.79s-.2.17-.34.06a2.26,2.26,0,0,1-.61-.82S42.73,30.3,42.72,30.25Z"/><path class="cls-6" d="M41.82,28.93a.56.56,0,0,1,.09-.41,3,3,0,0,0,.29-.6c.12-.33.16-.34.44-.14l.09,0a2,2,0,0,1,.47.6.44.44,0,0,1-.05.53,3.19,3.19,0,0,1-.26.26,2.11,2.11,0,0,0-.36.43c-.15.23-.29.23-.43,0a1.51,1.51,0,0,1-.15-.37A1.48,1.48,0,0,0,41.82,28.93Z"/><path class="cls-6" d="M41.15,28.19a2.59,2.59,0,0,1-.24,1,.41.41,0,0,1,0,.09c-.25.4-.43.39-.64,0a4.74,4.74,0,0,1-.24-.51,1,1,0,0,1,.69-1.29c.27-.06.38,0,.43.27S41.13,28.05,41.15,28.19Z"/><path class="cls-6" d="M42.38,30.77a.24.24,0,0,1,.17.09,8.47,8.47,0,0,1,.67.79.39.39,0,0,1,0,.49,2.75,2.75,0,0,0-.23.56c-.08.23-.24.28-.44.13A1.23,1.23,0,0,1,42,31.6a4.64,4.64,0,0,1,.17-.64C42.2,30.86,42.26,30.77,42.38,30.77Z"/><path class="cls-3" d="M42.82,64.72c-.1-.09-.21-.1-.2-.25a1.75,1.75,0,0,1,.24,0,.19.19,0,0,1,.21.18,1.6,1.6,0,0,1,0,.49c0,.09,0,.22.12.22s.21-.07.2-.21a2.07,2.07,0,0,0,0-.5c0-.11,0-.16.13-.16A1.59,1.59,0,0,0,44,64.4a.23.23,0,0,1,.25,0c.09.09.17,0,.27,0,.35-.15.52,0,.54.34,0,.18,0,.36,0,.54s0,.13-.09.15a.24.24,0,0,1-.22,0,.11.11,0,0,1,0-.17c.1-.14,0-.28,0-.42s0-.17-.08-.19a.22.22,0,0,0-.26.09.73.73,0,0,0-.07.52c0,.1,0,.18-.1.22a.21.21,0,0,1-.19,0,.16.16,0,0,1,0-.18c.11-.16,0-.33.06-.49s-.12-.23-.26-.15a.29.29,0,0,0-.16.28c0,.1,0,.2,0,.3,0,.26-.17.38-.4.25a.65.65,0,0,0-.71,0c-.09,0-.17.09-.27,0a.37.37,0,0,1-.17-.26c0-.33,0-.43.38-.48Zm0,.29a.4.4,0,0,0-.32,0c-.1,0-.18.12-.12.23s.15.11.25.06A.35.35,0,0,0,42.85,65Z"/><path class="cls-6" d="M45.66,34.05a.87.87,0,0,1-.52-.17,1.52,1.52,0,0,0-.54-.23,1,1,0,0,1,.12-.38c.18-.32.35-.65.52-1s.23-.2.35,0,.22.38.33.57a.74.74,0,0,1,0,.82C45.82,33.81,45.74,33.93,45.66,34.05Z"/><path class="cls-6" d="M45.31,31.26a6,6,0,0,1-.54-.73.3.3,0,0,1,0-.4,2.2,2.2,0,0,0,.39-.7c.11-.26.23-.28.43-.1a1,1,0,0,1,.2,1.41A1.7,1.7,0,0,1,45.31,31.26Z"/><path class="cls-6" d="M41.2,29.3c.12,0,.21-.23.35-.06a3.32,3.32,0,0,1,.34.8,1.63,1.63,0,0,1-.12,1.11c-.09.18-.16.19-.3.05s-.37-.42-.55-.63a.5.5,0,0,1-.14-.4A1.23,1.23,0,0,1,41.2,29.3Z"/><path class="cls-3" d="M55.7,62.88a2.8,2.8,0,0,1,0-.6.65.65,0,0,0,0-.49.11.11,0,0,1,.14-.15.65.65,0,0,0,.53,0,.66.66,0,0,0,.4-.34c.12.16,0,.39.33.44a.56.56,0,0,0-.38.6c0,.07,0,.17.08.18s.23,0,.27-.12a1.6,1.6,0,0,0,0-.23.56.56,0,0,1,.59-.53c.37,0,.44.08.4.45,0,.17-.09.34,0,.51a.1.1,0,0,1-.09.15c-.15,0-.29.09-.44.11a.37.37,0,0,1-.41-.15c-.07-.12-.17-.09-.27,0s-.19.15-.33.13-.25-.12-.19-.2,0-.31.11-.44.05-.21,0-.23-.25,0-.33.09a1.11,1.11,0,0,0-.15.43A.79.79,0,0,1,55.7,62.88Zm2.14-.78c0-.1,0-.24-.13-.29a.29.29,0,0,0-.34.21,1.65,1.65,0,0,0-.07.32c0,.09,0,.19.11.23a.3.3,0,0,0,.31-.08A.65.65,0,0,0,57.84,62.1Z"/><path class="cls-6" d="M43.94,32.36a3,3,0,0,0-.07-.32.63.63,0,0,1,.1-.69,4.53,4.53,0,0,0,.23-.44c.14-.2.28-.21.42,0a1.25,1.25,0,0,1,0,1.83Z"/><path class="cls-6" d="M39.94,31.33a7.12,7.12,0,0,1-.62-1,1.43,1.43,0,0,1,.07-1.13c.09-.2.27-.21.39,0a5.36,5.36,0,0,1,.4.69A1.39,1.39,0,0,1,39.94,31.33Z"/><path class="cls-5" d="M45,21.78c-.09-.06,0-.13,0-.19s.13-.16.12-.26,0-.23-.08-.29a1.44,1.44,0,0,1-.39-.31.3.3,0,0,0-.2-.1c0-.09,0-.14-.09-.24a2.42,2.42,0,0,0,.87-.33c.17-.08.33-.2.52-.06a.69.69,0,0,0,.09.41.79.79,0,0,1,.1.44h0c-.07,0-.06,0,0,.07a4.6,4.6,0,0,0-.14.74s-.09.06-.15,0c-.3-.19-.3-.19-.55,0Z"/><path class="cls-4" d="M35.24,32.32a1.4,1.4,0,0,1,1,.43c.06.06.13.12.11.22a.39.39,0,0,0-.08.21.73.73,0,0,1-.62.6.63.63,0,0,1-.67-.38.72.72,0,0,1,.09-.79C35.11,32.51,35.23,32.46,35.24,32.32Z"/><path class="cls-3" d="M57.84,8.66a1.27,1.27,0,0,0,.42-.75.76.76,0,0,1,.24-.39c.21-.21.2-.26,0-.46a.11.11,0,0,1,0-.06.48.48,0,0,1,.65.24.92.92,0,0,1-.18,1.33.65.65,0,0,1-.51.2A1.09,1.09,0,0,1,57.84,8.66Z"/><path class="cls-3" d="M14.84,21a.72.72,0,0,1-.12.47.61.61,0,0,1-.8.24.21.21,0,0,1-.08-.11.94.94,0,0,1,.45-1.1.37.37,0,0,1,.4.05l1.07.74c.18.13.36.29.56.41a.67.67,0,0,1,.2,1c-.07-.17-.08-.18,0-.27a.34.34,0,0,0-.12-.46,11,11,0,0,0-1.07-.76,1.68,1.68,0,0,1-.37-.27.08.08,0,0,0-.08-.06s0-.06-.06,0,0,.06,0,.08A.07.07,0,0,0,14.84,21Zm-.82.5c.15-.51.15-.51.65-.72-.19-.14-.26-.15-.42,0A.66.66,0,0,0,14,21.48Z"/><path class="cls-6" d="M47.43,33.25c.1.34-.16.61-.29.92,0,.11-.13.11-.21,0a2.5,2.5,0,0,1-.51-1,.2.2,0,0,1,0-.13A2.72,2.72,0,0,1,47,32.2c.11-.12.18-.1.27.07A2,2,0,0,1,47.43,33.25Z"/><path class="cls-6" d="M42.29,34.34a1.11,1.11,0,0,1-.95-.65,5.65,5.65,0,0,1,.26-1c.07-.21.16-.24.34-.12A1.32,1.32,0,0,1,42.43,34C42.39,34.11,42.33,34.22,42.29,34.34Z"/><path class="cls-6" d="M46.83,31.63a1.39,1.39,0,0,1-.49.81c-.1.08-.21,0-.3,0a.91.91,0,0,1-.15-1.15c.11-.16.19-.33.29-.49s.21-.16.32,0A2,2,0,0,1,46.83,31.63Z"/><path class="cls-4" d="M43.94,32.36l.66.37c0,.08,0,.16,0,.24a.7.7,0,0,1-.6.77.92.92,0,0,1-.62-.39L43.2,33A.77.77,0,0,1,43.94,32.36Z"/><path class="cls-6" d="M41.44,32a2.5,2.5,0,0,1-.27.88c-.05.11-.16.11-.2,0-.15-.4-.4-.74-.57-1.13a.76.76,0,0,1,.08-.67.22.22,0,0,1,.39-.06c.18.21.35.43.51.65A.52.52,0,0,1,41.44,32Z"/><path class="cls-6" d="M40.78,33.46c-.44.18-.44.2-.37.79-.24.18-.27.18-.42-.06s-.42-.61-.3-1l.12,0c.31-.12.36-.23.23-.53l-.19-.39c.23-.16.24-.16.38,0A2.33,2.33,0,0,1,40.78,33.46Z"/><path class="cls-6" d="M45.89,28.1c.31-.32.51-.29.79.08l0,0a1.13,1.13,0,0,1-.29,1.13c-.2.2-.28.19-.44,0a.67.67,0,0,0-.09-.14A.75.75,0,0,1,45.89,28.1Z"/><path class="cls-3" d="M40,65.52a.78.78,0,0,1-.44-.13s-.11-.11-.16,0-.42.17-.65.16l-.17,0c-.15,0-.18,0-.15-.21a2.46,2.46,0,0,0,0-1c0-.16.07-.18.17-.19s.19,0,.16.15a4.33,4.33,0,0,0,0,.8c0,.23.08.28.31.24s.41-.11.43-.45a.52.52,0,0,1,.74-.44.69.69,0,0,1,.33.68A.55.55,0,0,1,40,65.52Zm.27-.56c0-.31-.16-.47-.39-.36s-.16.22-.16.37,0,.27.19.32S40.26,65.22,40.26,65Z"/><path class="cls-6" d="M45,28.88a2.77,2.77,0,0,1-.39.9.12.12,0,0,1-.22,0A2.58,2.58,0,0,1,44,29a.86.86,0,0,1,.41-.82.25.25,0,0,1,.31,0A1.2,1.2,0,0,1,45,28.88Z"/><path class="cls-6" d="M40.61,34.58a2.62,2.62,0,0,1,1,.92.36.36,0,0,1-.26.5,1.33,1.33,0,0,1-1.07-.52C40.38,35.17,40.36,34.83,40.61,34.58Z"/><path class="cls-3" d="M39.89,62.76a1.46,1.46,0,0,1,0-.72c0-.16,0-.19-.18-.17a.35.35,0,0,0-.32.28c0,.11,0,.22-.08.32s-.07.24-.24.29a2.34,2.34,0,0,1,0-.46.78.78,0,0,0,0-.52c-.05-.09,0-.12.13-.12.3,0,.6,0,.9,0l.53,0c.27,0,.36.11.32.39a1.3,1.3,0,0,0,0,.59c.05.15-.1.18-.19.22s-.09-.05-.1-.1a1.11,1.11,0,0,1,0-.36,2,2,0,0,0,0-.23c0-.1,0-.25-.13-.27a.3.3,0,0,0-.33.2c0,.14-.06.29-.1.42S40.05,62.71,39.89,62.76Z"/><path class="cls-6" d="M43.66,27.18a1,1,0,0,1,.46.22c.11.09.08,0,.09-.08s0-.26-.11-.34-.08-.25.09-.3a.27.27,0,0,1,.34.19c0,.11.11.22,0,.34a.39.39,0,0,0-.3.42c0,.3-.27.52-.51.71-.07.06-.14,0-.21,0a.9.9,0,0,1-.31-.57.36.36,0,0,1,.17-.37A2.68,2.68,0,0,1,43.66,27.18Z"/><path class="cls-6" d="M43.2,33l.19.38a.92.92,0,0,0,.62.39,2.27,2.27,0,0,1-.34.82c-.13.2-.24.2-.4,0A1.06,1.06,0,0,1,43,34C43,33.67,42.9,33.29,43.2,33Z"/><path class="cls-3" d="M45.84,62.81a3.53,3.53,0,0,1,0-1.17.69.69,0,0,0,.49,0,.39.39,0,0,1,.26,0,.67.67,0,0,0,.57,0c.16-.06.36.23.33.44a.44.44,0,0,1-.07.19.41.41,0,0,0,0,.4c-.11.07-.22.09-.28,0a.2.2,0,0,1,0-.25c.1-.11.05-.25.08-.38s0-.15-.1-.19a.16.16,0,0,0-.22.09,1.27,1.27,0,0,0-.15.41,1.87,1.87,0,0,1-.08.32.13.13,0,0,1-.15.09c-.1,0-.09-.09-.08-.15s0-.38.08-.57.06-.17-.06-.18-.19-.06-.26.07a2.08,2.08,0,0,0-.19.49A.85.85,0,0,1,45.84,62.81Z"/><path class="cls-6" d="M47.36,30.28a1.16,1.16,0,0,1-.11.54c-.09.17-.26.18-.33,0a5.92,5.92,0,0,0-.33-.61.63.63,0,0,1,.15-.79c.19-.16.28-.15.4,0A1.76,1.76,0,0,1,47.36,30.28Z"/><path class="cls-6" d="M38.65,33.25c0-.16,0-.33,0-.49a.22.22,0,0,1,.2-.2.2.2,0,0,1,.23.15,1.75,1.75,0,0,1-.06,1.56c0,.06-.08.12-.16.11a.15.15,0,0,1-.12-.14A4.07,4.07,0,0,1,38.65,33.25Z"/><path class="cls-3" d="M54.26,62.36a.51.51,0,0,1-.26.24c-.06,0-.13.06-.18,0s0-.12,0-.18c.17-.24.18-.32,0-.49s-.17-.13-.27,0a.43.43,0,0,0-.18.3c0,.28-.09.57-.13.85a.21.21,0,0,1-.28.19c-.08,0-.15-.08-.1-.17s.1-.46.2-.68a.85.85,0,0,0,0-.59c0-.13,0-.19.13-.15a.87.87,0,0,0,.48,0,.41.41,0,0,1,.52.38.88.88,0,0,1,0,.17Z"/><path class="cls-6" d="M39,32.11c-.27-.08-.33-.14-.27-.39s.08-.5.12-.75,0-.23.18-.26.2.06.26.16a2.41,2.41,0,0,1,.35.72.65.65,0,0,1,0,.39c-.24.09-.38-.15-.59-.17C39,31.91,39,32,39,32.11Z"/><path class="cls-3" d="M35.34,64.92c0-.46.12-.54.52-.63s.36-.05.47.25a1.37,1.37,0,0,1,.07.29.55.55,0,0,1-.53.68c-.07,0-.15,0-.23,0s-.28-.08-.3-.25A.78.78,0,0,0,35.34,64.92Zm.82,0c0-.08,0-.21-.11-.24a.24.24,0,0,0-.27.14.44.44,0,0,0-.07.19c0,.1-.05.21.07.26a.24.24,0,0,0,.32-.11A.45.45,0,0,0,36.16,64.94Z"/><path class="cls-6" d="M44.29,34.18a2.31,2.31,0,0,1,.71.75,1.85,1.85,0,0,0-.07.41,2.61,2.61,0,0,1-.69-.07.52.52,0,0,1-.4-.27Z"/><path class="cls-3" d="M35.23,65.19c-.24.41-.64.32-1,.32-.1,0-.09-.09-.09-.15s0-.4,0-.6,0-.2,0-.3-.11-.17,0-.23a.45.45,0,0,1,.25-.07,2.48,2.48,0,0,1,.47,0c.13,0,.24.15.19.27s0,.37.16.53Zm-.6.12c.23,0,.34-.08.33-.22s-.16-.23-.38-.23a.2.2,0,0,0-.21.23C34.37,65.25,34.45,65.31,34.63,65.31Zm-.08-.65c.17,0,.33-.08.32-.18s-.12-.17-.24-.17-.26.07-.26.22S34.47,64.66,34.55,64.66Z"/><path class="cls-4" d="M39,32.11c0-.1,0-.2,0-.3.21,0,.35.26.59.17a.28.28,0,0,0,.25.23l.19.39c.13.3.08.41-.23.53l-.12,0a2.07,2.07,0,0,1-.52-.75C39.12,32.32,39.05,32.22,39,32.11Z"/><path class="cls-3" d="M37,61.62h.23a.42.42,0,0,1,.43.38.66.66,0,0,1-.28.62.2.2,0,0,1-.13,0,.08.08,0,0,1,0-.12c0-.09.08-.17.12-.27a.25.25,0,0,0-.15-.35.26.26,0,0,0-.32.19.9.9,0,0,0-.05.46c0,.11,0,.2-.14.21s-.19-.06-.16-.22a12.31,12.31,0,0,0,.18-1.34c0-.09.06-.15.16-.13a.14.14,0,0,1,.12.17,1.47,1.47,0,0,0,0,.36S36.92,61.63,37,61.62Z"/><path class="cls-3" d="M33.21,61.84c.12,0,.19,0,.26-.11a.75.75,0,0,1,.71,0s0,.12,0,.19a2.28,2.28,0,0,0,0,.69c0,.12-.06.18-.18.19l-.4,0c-.3,0-.44-.11-.47-.43s.11-.36.07-.55Zm.75.25c0-.08,0-.21-.11-.26s-.28,0-.33.06a.68.68,0,0,0-.09.54.2.2,0,0,0,.34.1A.53.53,0,0,0,34,62.09Z"/><path class="cls-3" d="M36.24,61.91c0,.23-.1.45,0,.69s-.1.19-.19.15a.62.62,0,0,0-.38,0c-.3.09-.45-.05-.47-.36s.08-.43.06-.65.07-.13.16-.13.13.08.12.17,0,.33-.07.49,0,.23.08.26.21,0,.29-.14a.84.84,0,0,0,.17-.53c0-.05,0-.11,0-.16a.17.17,0,0,1,.17-.08c.08,0,.1.07.1.14S36.24,61.87,36.24,61.91Z"/><path class="cls-3" d="M49,64.46l.12,0c.33-.07.4,0,.43.32,0,.16,0,.33.05.49s0,.24-.15.24-.19-.1-.14-.22-.12-.32,0-.5-.17-.12-.27,0a.67.67,0,0,0-.17.49c0,.12.09.3-.14.29s-.1-.18-.1-.29v-.9a.35.35,0,0,0-.11-.3c.33-.11.34-.1.35.19a2.44,2.44,0,0,1,0,.27C48.89,64.58,48.94,64.51,49,64.46Z"/><path class="cls-5" d="M48,17.22c.08.16,0,.36.14.53S48,18,48,18.16s-.15.16-.25.06a3.11,3.11,0,0,1-.23-.28c-.09-.11-.19-.22-.36-.18h0a.44.44,0,0,0-.2-.47c0-.1,0-.06.09-.07H48Z"/><path class="cls-3" d="M54.4,62.17c.18-.47.42-.62.84-.55a.26.26,0,0,1,.14.48.92.92,0,0,1-.51.2c-.08,0-.18,0-.17.11a.17.17,0,0,0,.15.15.66.66,0,0,0,.47-.06.5.5,0,0,1-.54.32c-.24,0-.33-.12-.4-.44Zm.31-.07a.49.49,0,0,0,.44-.1.13.13,0,0,0,.06-.14.14.14,0,0,0-.16-.08C54.88,61.81,54.79,61.91,54.71,62.1Z"/><path class="cls-3" d="M42.61,62.4a1.2,1.2,0,0,1,0-.33c0-.09.09-.17,0-.22a.22.22,0,0,0-.29.09,2,2,0,0,0-.13.41.94.94,0,0,1-.06.29.16.16,0,0,1-.24.1.14.14,0,0,1-.05-.23c.13-.14.08-.31.11-.47s0-.19-.12-.26-.12,0-.08-.1.11-.07.18-.07.2.2.31.15.17-.14.28-.15c.28,0,.46.16.4.43a1.71,1.71,0,0,0-.06.5.15.15,0,0,1-.16.19c-.13,0-.1-.11-.1-.2A.59.59,0,0,1,42.61,62.4Z"/><path class="cls-3" d="M43.77,61.62l.19,0c.16,0,.21.11.17.26a1.25,1.25,0,0,0,0,.69.1.1,0,0,1-.11.13,1.23,1.23,0,0,0-.46.07c-.24.05-.37,0-.44-.28a.83.83,0,0,1,.13-.7A.53.53,0,0,1,43.77,61.62Zm-.44.68c0,.13,0,.25.15.27a.26.26,0,0,0,.31-.14,1.36,1.36,0,0,0,.1-.36c0-.1,0-.2-.12-.25a.25.25,0,0,0-.3.09A.59.59,0,0,0,43.33,62.3Z"/><path class="cls-3" d="M52.29,62.77c-.34,0-.39-.05-.42-.31a.85.85,0,0,1,.13-.62.7.7,0,0,1,.87-.13.11.11,0,0,1,.05.11,2.85,2.85,0,0,0,0,.77.16.16,0,0,1-.13.17c-.1,0-.17,0-.23-.1s-.06-.1,0-.17.07-.23.13-.33,0-.24-.11-.3a.22.22,0,0,0-.32.07.7.7,0,0,0-.05.58C52.19,62.59,52.24,62.66,52.29,62.77Z"/><path class="cls-3" d="M37.56,65.47a.72.72,0,0,0-.59,0c-.18.11-.29,0-.34-.22s0-.54-.1-.79c0,0,0-.08.06-.1a.2.2,0,0,1,.22,0,.36.36,0,0,1,.08.27v.44c0,.12.09.15.19.1a.54.54,0,0,0,.21-.65c0-.07-.06-.11,0-.17a.14.14,0,0,1,.18,0,.18.18,0,0,1,.11.19A5.1,5.1,0,0,1,37.56,65.47Z"/><path class="cls-3" d="M54.13,65.47a.69.69,0,0,0-.58,0c-.22.1-.33,0-.34-.23s0-.29,0-.43a1,1,0,0,1-.05-.42c.24,0,.29,0,.3.23s0,.33,0,.5.1.13.19.09a.53.53,0,0,0,.21-.63c0-.08-.09-.13,0-.18a.18.18,0,0,1,.26.07.14.14,0,0,1,0,.06A5.56,5.56,0,0,1,54.13,65.47Z"/><path class="cls-3" d="M49,62.77a.48.48,0,0,1,0-.33A3.62,3.62,0,0,1,49,62c0-.11-.1-.24,0-.31s.21,0,.32,0l.27,0A.35.35,0,0,1,50,62a2.65,2.65,0,0,0-.05.56.15.15,0,0,1-.17.17c-.1,0-.12-.09-.11-.17s0-.35.07-.53,0-.19-.09-.23a.23.23,0,0,0-.29.1,1.3,1.3,0,0,0-.15.43A.51.51,0,0,1,49,62.77Z"/><path class="cls-3" d="M38.09,62.46c0,.15.19.17.27.28-.4.11-.59,0-.61-.43a.7.7,0,0,1,.83-.7c.13,0,.27.09.29.24a.35.35,0,0,1-.21.31,2,2,0,0,1-.56.19C38,62.38,38,62.42,38.09,62.46Zm0-.39a.41.41,0,0,0,.43-.07s.08-.08,0-.15a.14.14,0,0,0-.13-.07C38.25,61.78,38.17,61.9,38.09,62.07Z"/><path class="cls-6" d="M48.09,34.65c0,.15-.2.17-.21.32a.73.73,0,0,1-.72-.26c.06-.14.13-.28.2-.42a1.09,1.09,0,0,1,.14-.23c.17-.19.27-.16.36.08A1.3,1.3,0,0,0,48.09,34.65Z"/><path class="cls-3" d="M48.23,62.7c-.42.1-.54,0-.55-.37a.67.67,0,0,1,.63-.74.39.39,0,0,1,.34.1.23.23,0,0,1,0,.39.79.79,0,0,1-.43.21c-.1,0-.23,0-.27.1s.08.17.14.24A.67.67,0,0,0,48.23,62.7ZM48,62.11a.55.55,0,0,0,.4-.08c.06-.05.12-.1.08-.19a.16.16,0,0,0-.2-.06A.35.35,0,0,0,48,62.11Z"/><path class="cls-3" d="M45.87,64.7c0-.07-.17-.06-.16-.18.27,0,.32,0,.4.2a3.2,3.2,0,0,1,.09.62c0,.08,0,.12-.11.12a1.19,1.19,0,0,0-.49.05.28.28,0,0,1-.37-.21c-.06-.3,0-.47.26-.51l.33-.05Zm0,.31a.31.31,0,0,0-.28,0,.17.17,0,0,0-.12.23c0,.1.13.11.22.07A.24.24,0,0,0,45.89,65Z"/><path class="cls-3" d="M51.06,61.85a.28.28,0,0,1-.33,0,.13.13,0,0,0-.18,0c0,.09,0,.11.09.15l.12.06c.24.14.29.21.24.36s-.21.36-.46.34-.33,0-.4-.22,0-.14,0-.18a.14.14,0,0,1,.16,0,.68.68,0,0,0,.12.12.16.16,0,0,0,.25-.06c.06-.12-.07-.12-.13-.15-.26-.16-.32-.28-.26-.53,0-.06,0-.12.08-.14a.91.91,0,0,1,.46,0C51,61.64,51,61.76,51.06,61.85Z"/><path class="cls-3" d="M30.91,62.72c-.16.05-.33.11-.44,0a.69.69,0,0,1,0-.64.7.7,0,0,1,.84-.4c.09,0,.19.07.21.19a.28.28,0,0,1-.13.29.81.81,0,0,1-.45.18c-.08,0-.19,0-.22.11s0,.16.12.22Zm-.18-.61a.49.49,0,0,0,.43-.12s.07-.09,0-.15a.12.12,0,0,0-.13-.07C30.89,61.77,30.8,61.86,30.73,62.11Z"/><path class="cls-6" d="M40,35.32a1,1,0,0,1-.87-.52,1.25,1.25,0,0,0,.16-.24c.11-.19.22-.22.41-.11a.61.61,0,0,1,.31.48C40,35.06,40,35.19,40,35.32Z"/><path class="cls-6" d="M44.87,27.5c.34-.08.54.19.79.33.09.05,0,.15,0,.24a1.59,1.59,0,0,1-.15.21.2.2,0,0,1-.27,0,1,1,0,0,1-.43-.62C44.76,27.66,44.84,27.57,44.87,27.5Z"/><path class="cls-6" d="M47.78,32.42a2.08,2.08,0,0,1-.43-.57.63.63,0,0,1,.08-.67c.06-.1.14-.1.22,0a.48.48,0,0,1,.09.14A2.28,2.28,0,0,1,47.78,32.42Z"/><path class="cls-3" d="M30.06,61.28c.12.11,0,.29.17.37s0,.09,0,.14c-.27.36-.27.36,0,.69,0,0,.05.07,0,.12s-.33.22-.47.16-.13-.14-.07-.27a2,2,0,0,0,.11-.77A.58.58,0,0,1,30.06,61.28Z"/><path class="cls-6" d="M46.62,34.58a1.05,1.05,0,0,1-.74-.38c0-.1.08-.2.13-.3s.33-.24.5,0a.58.58,0,0,1,.12.33C46.63,34.34,46.62,34.46,46.62,34.58Z"/><path class="cls-3" d="M47.93,64.47c-.14.18-.27.31-.24.53s.09.27.32.26a.59.59,0,0,0,.35-.08c-.14.33-.31.41-.61.33s-.32-.27-.3-.71C47.47,64.58,47.57,64.51,47.93,64.47Z"/><path class="cls-3" d="M33.22,61.83a.46.46,0,0,0-.45.44.83.83,0,0,1-.1.38.14.14,0,0,1-.14.07.11.11,0,0,1-.08-.13c0-.12,0-.24,0-.36.06-.28.06-.28-.17-.45,0,0,0-.05-.07-.09a.56.56,0,0,1,.42,0,.56.56,0,0,0,.36,0c.19-.07.17.07.17.18Z"/><path class="cls-6" d="M41.33,26.57c.14,0,.24,0,.27.18a.2.2,0,0,1-.18.24,1.42,1.42,0,0,1-.41.14.2.2,0,0,1-.2-.09c0-.08,0-.13.09-.17a.41.41,0,0,0,.16-.16A.22.22,0,0,1,41.33,26.57Z"/><path class="cls-3" d="M32.15,61.81c-.2.31-.16.68-.4,1a.4.4,0,0,1-.08-.44,1.06,1.06,0,0,0,0-.56c0-.14.05-.2.18-.14A2,2,0,0,1,32.15,61.81Z"/><path class="cls-3" d="M42,64.56c-.16,0-.3.09-.3.25s-.14.43.15.54a.29.29,0,0,1-.34.07,4.91,4.91,0,0,1,0-.86c0-.24.07-.27.31-.19.08,0,.15.1.25.08Z"/><path class="cls-3" d="M52.61,66a5.57,5.57,0,0,0,0-1.22,1.23,1.23,0,0,0,0-.2s0-.09.06-.11a.12.12,0,0,1,.15,0,.27.27,0,0,1,.07.14A2.32,2.32,0,0,1,52.61,66Z"/><path class="cls-3" d="M41.68,61.79c-.21.34-.23.72-.42,1a2.36,2.36,0,0,1,0-1.18C41.43,61.65,41.51,61.81,41.68,61.79Z"/><path class="cls-3" d="M51,66c-.06-.06,0-.12,0-.19a5.72,5.72,0,0,0,0-1.17c0-.08,0-.16.08-.18s.14,0,.19.11a.45.45,0,0,1,0,.23A2.86,2.86,0,0,1,51,66Z"/><path class="cls-3" d="M49.79,65.56a1,1,0,0,0,0-.83c-.06-.09,0-.16.12-.2s.12.06.16.11,0,.17,0,.26,0,.29,0,.43C50.12,65.66,50.12,65.66,49.79,65.56Z"/><path class="cls-3" d="M51.79,65v.3c0,.07,0,.14-.07.17a.21.21,0,0,1-.22,0,.13.13,0,0,1,0-.18,1.19,1.19,0,0,0,0-.62c0-.08,0-.19.1-.2s.16.08.17.19,0,.24,0,.36Z"/><path class="cls-6" d="M43,27.35c-.07,0-.06-.1,0-.17a1.17,1.17,0,0,1,.33-.37c.06-.06.13-.1.21,0s0,.16,0,.23S43.22,27.28,43,27.35Z"/><path class="cls-6" d="M42.93,34.71c-.27,0-.27,0-.38-.21.09-.06.08-.26.25-.21s.12.2.12.32A.34.34,0,0,1,42.93,34.71Z"/><path class="cls-3" d="M36.34,4.43c.08.08.13.14,0,.16s-.53.34-.75.34l-.06-.1A4.11,4.11,0,0,1,36.34,4.43Z"/><path class="cls-3" d="M30.11,6.69c0,.06,0,.12,0,.18-.29,0-.48.17-.71.27l0-.1s0-.08,0-.09C29.66,6.88,29.84,6.66,30.11,6.69Z"/><path class="cls-3" d="M65.87,15l-.06.18c-.1.07-.19.15-.29.21a.11.11,0,0,1-.15,0c-.05,0,0-.11,0-.14A1.09,1.09,0,0,1,65.87,15Z"/><path class="cls-4" d="M37.92,34a.89.89,0,0,1-.63-.29v-.1C37.51,33.73,37.79,33.73,37.92,34Z"/><path class="cls-3" d="M42.14,6.56v.05a2,2,0,0,1-.76.07,0,0,0,0,0,0,0A2,2,0,0,1,42.14,6.56Z"/><path class="cls-5" d="M47,17.29a.44.44,0,0,1,.2.47.9.9,0,0,1-.2-.27Z"/><path class="cls-7" d="M16.46,18.1v.17c-.14,0-.14-.17-.24-.23h0A.2.2,0,0,1,16.46,18.1Z"/><path class="cls-3" d="M42,64.56l0-.11s.1,0,.1.06S42.09,64.58,42,64.56Z"/><path class="cls-7" d="M16.21,18V18c.06,0,0,0,0,.06Z"/><path class="cls-3" d="M51,66h-.06s.05,0,.06,0Z"/><path class="cls-3" d="M14.84,21a.07.07,0,0,1-.05,0l.05,0a.08.08,0,0,1,.08.06Z"/><path class="cls-3" d="M45.28,4.6a.06.06,0,0,0,0-.06s.06,0,0,0Z"/><path class="cls-3" d="M48,17.22H47.9l.06-.06Z"/><path class="cls-3" d="M40.89,78.8a1.91,1.91,0,0,0-.3-.7c-.18-.33-.37-.64-.55-1a1,1,0,0,1-.14-.37.76.76,0,0,1,1,.36,6.1,6.1,0,0,0,.39.86c0,.12.15.15.27.16s0,.09,0,.12a.57.57,0,0,0,.1.31l.68,1.3.09.18c0,.12,0,.21-.13.21a.79.79,0,0,1-.9-.48,4.63,4.63,0,0,0-.37-.78A.32.32,0,0,0,40.89,78.8Z"/><path class="cls-3" d="M58.65,74.31a1.74,1.74,0,0,1-.07-.29.36.36,0,0,1,.56-.31l.17.17c.58.62,1.15,1.24,1.73,1.85a1.37,1.37,0,0,0,.17.17c.23.22.23.23,0,.41s-.5.23-.76-.1L60.22,76a.56.56,0,0,0-.52-.25s0,0,0,0,.12-.2,0-.31c-.3-.3-.55-.65-.88-.93C58.82,74.3,58.73,74.31,58.65,74.31Z"/><path class="cls-3" d="M34.82,76.12a.73.73,0,0,1,.1-.28.34.34,0,0,1,.34-.17.32.32,0,0,1,.3.23,1.1,1.1,0,0,1,.06.26l.21,2.53s0,.09,0,.14c0,.38,0,.39-.14.41-.43,0-.61-.07-.62-.4A5.14,5.14,0,0,0,35,78v-.25c0-.19,0-.38,0-.57a3,3,0,0,0,0-.79A.22.22,0,0,0,34.82,76.12Z"/><path class="cls-3" d="M52.93,76.12a2.06,2.06,0,0,0,.11.82c.18.57.35,1.14.52,1.71,0,.09,0,.18.06.26l0,.13a.94.94,0,0,1-.47-.12A1.83,1.83,0,0,1,52.79,76C52.81,76.1,52.86,76.12,52.93,76.12Z"/><path class="cls-3" d="M46.81,77.39c0-.07,0-.15,0-.23,0-.33.21-.52.62-.36.44,1,.89,2,1.34,3a.27.27,0,0,1,0,.26,1.07,1.07,0,0,0-.4,0,.33.33,0,0,1-.4-.22c-.08-.17-.15-.34-.22-.52a.44.44,0,0,0-.29-.3v-.11c.13,0,.29,0,.2-.23-.15-.37-.31-.75-.48-1.12,0-.11-.09,0-.13.06s-.05-.12-.13-.12S46.87,77.4,46.81,77.39Z"/><path class="cls-3" d="M30.2,74.11c.08-.09.13,0,.18,0a1.52,1.52,0,0,1,.31,1.47,2.38,2.38,0,0,1-.51.89,1.26,1.26,0,0,1-1.25.46v-.1l.13-.07c.17,0,.2-.2.26-.32.26-.58.5-1.16.77-1.73A1.1,1.1,0,0,0,30.2,74.11Z"/><path class="cls-3" d="M29.25,73.76a.56.56,0,0,0-.44.36c-.27.62-.53,1.23-.81,1.84a1.27,1.27,0,0,0-.07.55,1.2,1.2,0,0,1-.48-.86,2,2,0,0,1,.4-1.48,1.43,1.43,0,0,1,1.39-.54Z"/><path class="cls-2" d="M41.6,78.15c-.12,0-.23,0-.27-.16a6.1,6.1,0,0,1-.39-.86c.11,0,.24,0,.3-.1.14-.31.4-.33.69-.3,0,.16.1.18.22.18a.53.53,0,0,1,.35.1.44.44,0,0,1,.23.45.34.34,0,0,1-.37.28c.17-.38.07-.62-.27-.68a.51.51,0,0,0-.3,0l-.31.12c-.17.08-.2.19-.09.34a.56.56,0,0,0,.54.26c0,.11-.07.15-.14.19S41.63,78.06,41.6,78.15Z"/><path class="cls-3" d="M52.93,76.12c-.07,0-.12,0-.14-.09a1.27,1.27,0,0,1,1.08-.48,2.33,2.33,0,0,1,.37,0,.66.66,0,0,1,.62.6.76.76,0,0,1-.44.79.6.6,0,0,1-.35.08c0-.18.18-.26.27-.38.29-.08.38-.22.3-.47a.74.74,0,0,0-.65-.5,1.23,1.23,0,0,0-.79.22Z"/><path class="cls-3" d="M35,77.72V78l-.29-.1a.86.86,0,0,0-1.14.53c0,.11-.09.23-.29.25a26.62,26.62,0,0,1,1.54-2.53.22.22,0,0,1,.14.24c-.1,0-.2,0-.25.14-.15.28-.31.57-.44.86s-.05.25.16.31A1,1,0,0,0,35,77.72Z"/><path class="cls-3" d="M58.65,74.31c.08,0,.17,0,.18.11A6,6,0,0,0,59,75.54c0,.22.14.27.36.22l.39-.1s0,0,0,0-.12.09-.19.13a.83.83,0,0,0-.44,1c0,.1,0,.19.08.29s0,.09,0,.11a.1.1,0,0,1-.14-.06.29.29,0,0,1,0-.1C58.85,76.14,58.7,75.23,58.65,74.31Z"/><path class="cls-3" d="M54.34,76.68c-.09.12-.25.2-.27.38a1.81,1.81,0,0,1-.23,0c-.26,0-.38-.07-.43-.28a.47.47,0,0,1,.26-.55.78.78,0,0,1,.4,0C54.36,76.27,54.42,76.37,54.34,76.68Z"/><path class="cls-3" d="M47.47,78.89V79c-.16,0-.33,0-.48,0-.44.1-.54.44-.58.83,0,.06,0,.16-.07.21a8.83,8.83,0,0,1,.47-2.7c.06,0,.11,0,.12.09s0,.28-.09.43a2.83,2.83,0,0,0-.11.58c0,.12-.07.29.13.34A2.53,2.53,0,0,0,47.47,78.89Z"/><path class="cls-3" d="M41.6,78.15c0-.09.11-.12.19-.16s.15-.08.14-.19a2,2,0,0,0,.43-.06.34.34,0,0,0,.37-.28A.44.44,0,0,0,42.5,77a.53.53,0,0,0-.35-.1c-.12,0-.22,0-.22-.18a1.2,1.2,0,0,1,.46,0,.7.7,0,0,1,.46.36.5.5,0,0,1-.28.75,5,5,0,0,0-.92.39C41.59,78.24,41.59,78.2,41.6,78.15Z"/><path class="cls-3" d="M53.59,79l0-.13c.07.13.2.19.28.08s.2,0,.28-.1a1,1,0,0,0,.79-.28c.11-.11,0-.11-.08-.15a3.14,3.14,0,0,0,.19-1.12.87.87,0,0,1,.09.82,1.89,1.89,0,0,1-.09.21c0,.06,0,.11.06.11s.13.09.07.18a1.36,1.36,0,0,1-1.27.34A.42.42,0,0,0,53.59,79Z"/><path class="cls-2" d="M48.8,80a.27.27,0,0,0,0-.26c-.45-1-.89-2-1.34-3a.26.26,0,0,1,.28.19c.41.91.82,1.83,1.22,2.75C49.05,79.93,49.05,79.94,48.8,80Z"/><path class="cls-3" d="M40.89,78.8a.32.32,0,0,1,.23.21c-.2,0-.32.1-.45.22s-.43.41-.64.62a.45.45,0,0,1-.32.16c.06-.33.38-.42.54-.64A2.7,2.7,0,0,1,40.89,78.8Z"/><path class="cls-3" d="M30.2,74.11a1.1,1.1,0,0,1-.12.64c-.27.57-.51,1.15-.77,1.73-.06.12-.09.28-.26.32a10.07,10.07,0,0,1,.41-1c.18-.42.37-.84.56-1.25a1.26,1.26,0,0,0,0-.43c.06,0,.05-.08.08-.12Z"/><path class="cls-3" d="M30.14,74.05s0,.1-.08.12a1.4,1.4,0,0,0-.81-.41v-.13A1,1,0,0,1,30.14,74.05Z"/><path class="cls-2" d="M46.44,79.88c0-.39.15-.73.58-.83,0,0,0,0,0,.06a1.1,1.1,0,0,0-.39.9l0,0C46.46,80,46.51,79.92,46.44,79.88Z"/><path class="cls-2" d="M54.89,78.46s.19,0,.08.15a1,1,0,0,1-.79.28Z"/><path class="cls-3" d="M28.92,76.87V77a1.1,1.1,0,0,1-.68-.24h0A3.91,3.91,0,0,0,28.92,76.87Z"/><path class="cls-7" d="M28.18,76.66l0,0s0,0,0,0Z"/><path class="cls-3" d="M28.18,76.66s.07,0,.06.07h0l-.07-.07Z"/><path class="cls-8" d="M62.28,77.6a.16.16,0,0,1-.13.07A.24.24,0,0,1,62.28,77.6Z"/><path class="cls-4" d="M44.93,35.34a1.85,1.85,0,0,1,.07-.41l.13,0c.1.07.19.14.11.29S45.06,35.43,44.93,35.34Z"/><path class="cls-5" d="M45,21.78l.1-.07c.25-.23.25-.23.55,0,.06,0,.1,0,.15,0a.33.33,0,0,1-.08.31c-.06,0-.09-.05-.13-.09-.2-.15-.24-.15-.42,0L45,22s-.07.07-.11,0,0-.08,0-.12S44.93,21.83,45,21.78Z"/><path class="cls-5" d="M44.4,20.63a.3.3,0,0,1,.2.1A1.44,1.44,0,0,0,45,21c.12.06.22.15.08.29a2.19,2.19,0,0,1-.7-.62C44.32,20.66,44.37,20.64,44.4,20.63Z"/><path class="cls-6" d="M44.1,27c.14.08.11.21.11.34C44.15,27.21,44.05,27.12,44.1,27Z"/><path class="cls-5" d="M45.89,20.91c-.06,0-.07-.05,0-.07Z"/><path class="cls-3" d="M25.86,11.93h0s0,0,0,0a0,0,0,0,1,0,0Z"/><path class="cls-3" d="M14.79,20.94s0-.06,0-.08.05,0,.06,0Z"/><path class="cls-2" d="M59.71,75.66l-.39.1c-.22,0-.31,0-.36-.22a6,6,0,0,1-.13-1.12c.33.28.58.63.88.93C59.83,75.46,59.78,75.56,59.71,75.66Z"/><path class="cls-2" d="M35,77.72a1,1,0,0,1-.58,0c-.21-.06-.25-.13-.16-.31s.29-.58.44-.86c0-.1.15-.12.25-.14a3,3,0,0,1,0,.79C35,77.34,35,77.53,35,77.72Z"/><path class="cls-2" d="M47.5,78.89a2.53,2.53,0,0,1-.61-.06,3,3,0,0,1,0-.43,7.49,7.49,0,0,0,.15-.8s.08-.17.13-.06c.18.37.33.75.49,1.12C47.79,78.87,47.64,78.87,47.5,78.89Z"/><path class="cls-2" d="M47.09,77.6a7.49,7.49,0,0,1-.15.8,3,3,0,0,0,0,.43c-.19,0-.16-.2-.14-.32,0-.27.11-.54.17-.81a1.7,1.7,0,0,0,0-.22C47,77.48,47,77.58,47.09,77.6Z"/><path class="cls-3" d="M42.36,77.74a2,2,0,0,1-.43.06.56.56,0,0,1-.54-.26c-.11-.15-.08-.26.09-.34l.31-.12a.51.51,0,0,1,.3,0C42.43,77.12,42.53,77.36,42.36,77.74Z"/><path class="cls-3" d="M53.55,7.29,53.14,8s.06.13.21,0a5.58,5.58,0,0,0,.49-.83Z"/><path class="cls-3" d="M57.81,6.52l.94.45-.28.09a2,2,0,0,0-.71-.34C57.43,6.68,57.81,6.52,57.81,6.52Z"/><path class="cls-3" d="M57.16,8.26s.7.54.89.43A7.06,7.06,0,0,1,57.16,8.26Z"/><path class="cls-3" d="M16.1,23.4l.42-.68,0-.27a4.8,4.8,0,0,1-.57.95C15.75,23.52,16.1,23.4,16.1,23.4Z"/><path class="cls-3" d="M18.57,15.22s-.1.12.09.12l0,.34a.44.44,0,0,1-.36-.37Z"/><path class="cls-3" d="M30.68,9.76s.77-.32.91-.64v.29a4.88,4.88,0,0,1-.94.49c-.33.1,0,0,0,0Z"/><path class="cls-3" d="M41.93,76.72s-.62,0-.59.59h.17a.47.47,0,0,1,.52-.43Z"/></svg>