<svg id="Capa_1" data-name="Capa 1" xmlns="http://www.w3.org/2000/svg" viewBox="0 0 656.77 612"><defs><style>.cls-1{fill:#f6b5c6;}.cls-2{fill:#1e2346;}.cls-3{fill:#e5b906;}.cls-4{fill:#225ca4;}.cls-5{fill:#edc503;}.cls-6{fill:#ec6409;}.cls-7{fill:#d9e7f7;}.cls-8{fill:#fff;}</style></defs><title>TELESCOPIO 1</title><g id="_13" data-name="13"><path class="cls-1" d="M220,316.12c-2.69,3.65-5.36,7.4-8,11.1a4,4,0,0,1-.44.79c-2.43,3.33-4.74,6.65-7.16,10.1-1.31,1.85-2.61,3.81-4,5.72q10.5,5.34,20.87,10.58c1-2.62,2.18-5.31,3.51-8.2l.7-1.61c1.05-2.17,2.14-4.51,3.36-6.75.1-.13,1.41-2.6,1.41-2.6,1.9-3.46,3.82-6.68,5.83-9.63L233.24,324l-6.33-3.74c-.06,0-1.95-1.18-1.95-1.18l-.48-.3Z" transform="translate(-89.67)"/><path class="cls-2" d="M225,319c-3.17,4.49-2.5,11.42,2,16.66a16.69,16.69,0,0,0,2.09,2l1.31-2.47c1.9-3.46,3.82-6.68,5.83-9.63L233.24,324l-6.33-3.74C226.85,320.16,225,319,225,319Z" transform="translate(-89.67)"/><path class="cls-1" d="M211.69,316.93a12.56,12.56,0,0,0,2.53,1.95,28.47,28.47,0,0,1,5,3.32c1.21,1,1.8,1.32,2.19,2.07a4.73,4.73,0,0,1,.41,2.72,46.74,46.74,0,0,0,18,6.48,24.87,24.87,0,0,0,10.78-1c4.25-1.48,4.79-3.21,4.92-3.73a4,4,0,0,0-.22-2,2.26,2.26,0,0,1,.52-2c.47-.43,1-.16,1.43-.59a1.73,1.73,0,0,0-.17-2.29c-.41-.23.28-1.53.5-1.73a1.89,1.89,0,0,0,.75-1.05c.12-.91-.79-1.69-1.13-2-3.59-3.37-3.67-10.6-3.35-12a24.15,24.15,0,0,0,.45-2.78,11.82,11.82,0,0,0,.07-1.54,20.78,20.78,0,0,0-1.84-8.41c-.29-.68-.57-1.32-.89-1.9a29.11,29.11,0,0,0-17.1-13.87,30.6,30.6,0,0,0-16.71,1,27.62,27.62,0,0,0-11.89,16,11.77,11.77,0,0,0-.35,1.46C203.9,303.75,207.76,311.06,211.69,316.93Z" transform="translate(-89.67)"/><path class="cls-1" d="M255.4,316.55a3.92,3.92,0,0,1,1.23-1c.62-.33.94-.2,1.45-.58a2.3,2.3,0,0,0,.82-2.67,2.91,2.91,0,0,0-1.68-1.41c-.83-.38-2.08-1.34-3.84-4l-.18,5.06Q254.3,314.23,255.4,316.55Z" transform="translate(-89.67)"/><path class="cls-2" d="M249.19,309.78a.56.56,0,0,1-.53-.65,6.42,6.42,0,0,1,5.48-5.11.49.49,0,0,1,.61.46.54.54,0,0,1-.46.61,5.36,5.36,0,0,0-4.56,4.25A.55.55,0,0,1,249.19,309.78Z" transform="translate(-89.67)"/><path class="cls-2" d="M250.74,307.87c.19,1.34,1.07,2.32,2,2.19s1.49-1.31,1.3-2.64-1.07-2.32-2-2.19S250.55,306.54,250.74,307.87Z" transform="translate(-89.67)"/><path class="cls-3" d="M243.65,302.59c.27.36,1.47-.58,5.43-1.87,2.7-.88,3.76-1,3.76-1.36,0-.6-2.49-1.58-4.78-1C245.15,299.05,243.25,302.07,243.65,302.59Z" transform="translate(-89.67)"/><path class="cls-2" d="M254.86,322.72a6.41,6.41,0,0,1-2.37-.47.55.55,0,0,1,.41-1,5.63,5.63,0,0,0,1.34.35,5.92,5.92,0,0,0,2.24-.21.53.53,0,0,1,.69.35.54.54,0,0,1-.36.68A6.56,6.56,0,0,1,254.86,322.72Z" transform="translate(-89.67)"/><path class="cls-3" d="M204.86,293.19c3.31,8.9,16.33,11.54,25,10.56a30,30,0,0,0,10.53-3.41c5.24-2.57,17.14-9.82,16-16.4-.51-3.06-3.89-1.91-14.25-9-4.43-3.06-6.31-5-9.32-4.61-3.46.41-5.25,3.45-7.67,2.6-1.95-.69-1.57-2.92-3.27-3.84-3.68-2-13.29,4.19-16.47,13.2C204.7,284.31,203.17,288.64,204.86,293.19Z" transform="translate(-89.67)"/><path class="cls-3" d="M204.42,286.34c-9,12.55,5.76,37.81,14.89,37.5,6.24-.22,10.83-12.44,12.06-19.84.56-3.31,3.06-18.32-5.7-23.39C219.05,276.77,208.79,280.24,204.42,286.34Z" transform="translate(-89.67)"/><path class="cls-1" d="M224.5,311.31c.6,3.76,3.34,6.46,6.12,6s4.55-3.86,3.95-7.63-3.34-6.46-6.12-6S223.9,307.54,224.5,311.31Z" transform="translate(-89.67)"/><path class="cls-2" d="M230,317.92a5.68,5.68,0,0,1-4.51-2.62.55.55,0,1,1,.89-.64,4.39,4.39,0,0,0,4.12,2.13,3.44,3.44,0,0,0,1.85-.93.53.53,0,0,1,.77,0,.55.55,0,0,1,0,.77,4.62,4.62,0,0,1-2.41,1.21A3.89,3.89,0,0,1,230,317.92Z" transform="translate(-89.67)"/><path class="cls-2" d="M231.1,314.15a.56.56,0,0,1-.47-.26L227.12,308a.55.55,0,0,1,.19-.75.54.54,0,0,1,.75.18l3.51,5.85a.55.55,0,0,1-.19.75A.57.57,0,0,1,231.1,314.15Z" transform="translate(-89.67)"/><path class="cls-2" d="M229.26,310.68c-.49-.16-.62-.48-.51-.76l.9-2.16a.55.55,0,0,1,.71-.29.56.56,0,0,1,.3.72l-.9,2.16A.56.56,0,0,1,229.26,310.68Z" transform="translate(-89.67)"/><path class="cls-1" d="M167.44,421a161.07,161.07,0,0,0,43.92,20.66l11.51-74.5,2.23-14.42c-6.66-6.29-13.3-12.51-19.94-18.84a50.65,50.65,0,0,0-7.23,7.84c-2.05,2.64-4.14,5.58-6.66,9.13C181.94,364.21,171.76,388.86,167.44,421Z" transform="translate(-89.67)"/><path class="cls-1" d="M199.05,558.71c1.24,2.69,2.81,5.84,4.6,9.26,1,1.8,2.08,3.76,3.2,5.73,1.24,2.13,2.59,4.32,4.05,6.62,3.36-.45,6.68-1,10-1.4q-1.68-5.13-3-10.78A143.4,143.4,0,0,1,214,534.29c0-3.48.17-6.85.45-10.11.23-1.07.45-2.24.62-3.54,0,0,.11-.84.17-1.68a39,39,0,0,0-.39-7.3c0-.28-.06-.39-.06-.56a20,20,0,0,1-13.42-.9,18.33,18.33,0,0,1-5.13-3.51,17.16,17.16,0,0,0-.29,3.69l0,.55a8.86,8.86,0,0,1,.06,1.29,44,44,0,0,1-1,11.06,61.61,61.61,0,0,1-2.53,8.42C191.64,534.29,190.4,540.07,199.05,558.71Z" transform="translate(-89.67)"/><path class="cls-1" d="M243.74,599.93H205.4a9.69,9.69,0,0,1-2.33-5.33,10.42,10.42,0,0,1,1.6-5.86,34.77,34.77,0,0,0,3.71-13.55l10.69-2.36c5,8.31,10.41,12.38,14.6,14.56,4.92,2.57,10.73,4,11.51,7.84A6.18,6.18,0,0,1,243.74,599.93Z" transform="translate(-89.67)"/><path class="cls-4" d="M204,600l43-.4a11.08,11.08,0,0,0-1.35-7.17c-1.94-3.09-4.92-3.47-8.59-5.24-9.67-4.64-12.32-13.19-14.75-12.16-.87.36-1.72,2-1,8.11-4.32,4.38-6.67,4.8-8,4.29s-1.95-2.23-3.66-2.46c-1.56-.22-3,.93-3.94,1.88a9.64,9.64,0,0,0-2.42,3.29C201.14,594.73,203.58,599.31,204,600Z" transform="translate(-89.67)"/><path class="cls-1" d="M120.44,535.58c-1.48,2.57-3.12,5.68-4.87,9.13-.87,1.87-1.85,3.88-2.8,5.93-1,2.24-2,4.61-3,7.14,2.32,2.48,4.66,4.88,7,7.32q3.19-4.35,7-8.73A143.77,143.77,0,0,1,149,533.56c2.83-2,5.67-3.84,8.48-5.5,1-.44,2.09-.94,3.24-1.55,0,0,.75-.4,1.47-.84a38.13,38.13,0,0,0,5.71-4.56,9.36,9.36,0,0,1,2.1-1.53c.57-.31,1.88-1.63,5-5.79-1.22.13-8.73.78-13.72-4.5a13.9,13.9,0,0,1-2.89-4.63c-.27.2-.51.44-.83.67a10.93,10.93,0,0,1-1,.79,43.5,43.5,0,0,1-9.59,5.6,64.08,64.08,0,0,1-8.33,2.84C136,515.37,130.6,517.72,120.44,535.58Z" transform="translate(-89.67)"/><path class="cls-1" d="M112.82,595.9,90.57,564.69a9.61,9.61,0,0,1,3-5,10.41,10.41,0,0,1,5.71-2.1,35.07,35.07,0,0,0,13.18-4.85l8.13,7.33c-3.88,8.87-4,15.67-3.38,20.35.76,5.49,3,11,.3,13.91A6.19,6.19,0,0,1,112.82,595.9Z" transform="translate(-89.67)"/><path class="cls-4" d="M89.67,563.56l25.27,34.74A11.12,11.12,0,0,0,120,593c1.39-3.38,0-6-.73-10-1.83-10.56,3.59-17.68,1.35-19.07-.81-.49-2.61-.25-7.19,3.89-6.08-1-7.79-2.64-8.16-4s.68-2.89-.12-4.42-2.51-1.9-3.82-2.12a9.66,9.66,0,0,0-4.09,0C92.33,558.19,90,562.85,89.67,563.56Z" transform="translate(-89.67)"/><path class="cls-1" d="M186.4,445.51c2.85,18.33,5.76,36.66,8.56,55,0,.21,0,.36.1.56.2,1.17.41,2.39.56,3.56,0,.21,0,.41.1.62.1.76.25,1.63.36,2.49.1.46.15,1,.25,1.58a7.24,7.24,0,0,0,.15.81c0,.16.05.31.05.46.16.21.36.41.62.71a15.27,15.27,0,0,0,7.63,4.13,15.79,15.79,0,0,0,10.13-1.22c.05-.31,0-.41.05-.56a15,15,0,0,1,.77-5.86c.1-.35.2-.61.2-.66.41-1.22.82-2.55,1.17-3.92a92.42,92.42,0,0,0,1.63-45.92,96.1,96.1,0,0,0-6.57-19.45C203.56,440.42,195.06,442.92,186.4,445.51Z" transform="translate(-89.67)"/><path class="cls-2" d="M195,500.55c0,.21,0,.36.1.56.2,1.17.41,2.39.56,3.56,0,.21,0,.41.1.62,7.13-.67,14.26-1.38,21.38-2-1.32-.82-2.59-1.63-3.92-2.49C207.07,500.7,201,500.65,195,500.55Z" transform="translate(-89.67)"/><path class="cls-5" d="M191.29,506a96.18,96.18,0,0,0,14.44,71l13.34-4.14a488.65,488.65,0,0,1,.88-69.56c.84-9.47,2.38-23.1-.31-41.21a147.93,147.93,0,0,0-7.71-29.84l-25.71,9.48Z" transform="translate(-89.67)"/><path class="cls-1" d="M166.11,439.89c-2.22,18.42-4.39,36.85-6.67,55.3,0,.21-.05.36-.06.57-.12,1.18-.25,2.41-.42,3.58,0,.21-.06.41-.07.61-.11.77-.2,1.64-.33,2.5,0,.47-.13,1-.19,1.59,0,.21-.08.51-.07.83,0,.14,0,.3-.07.45s.23.49.39.85a15.41,15.41,0,0,0,6.24,6,15.82,15.82,0,0,0,10.08,1.57c.13-.28.11-.39.2-.53a14.78,14.78,0,0,1,2.32-5.43c.19-.31.36-.53.38-.58.72-1.06,1.47-2.23,2.18-3.45A92.51,92.51,0,0,0,194,460a96.53,96.53,0,0,0-1.05-20.5C184,439.64,175.14,439.74,166.11,439.89Z" transform="translate(-89.67)"/><path class="cls-5" d="M180.76,510.79l-56.93,52.74q-5.68-5.4-11.39-10.78A80.24,80.24,0,0,1,124.88,527a81.17,81.17,0,0,1,30.69-25.27q6.27-38.49,12.56-77L198.21,444a98.74,98.74,0,0,1,0,19.25A103.58,103.58,0,0,1,180.76,510.79Z" transform="translate(-89.67)"/><path class="cls-6" d="M162.48,419.63A54.36,54.36,0,0,0,180.23,441c4.33,3,12.79,9,24.73,9a36.73,36.73,0,0,0,12.45-2.21,207.56,207.56,0,0,0,9-102.24l-21.26-11.62a166.64,166.64,0,0,0-15.85,19.81A172.65,172.65,0,0,0,162.48,419.63Z" transform="translate(-89.67)"/><path class="cls-2" d="M190.3,494c-.49-.17-.62-.49-.5-.77a99.07,99.07,0,0,0,8.3-37,.55.55,0,0,1,.54-.54.56.56,0,0,1,.55.57,99.89,99.89,0,0,1-8.39,37.43A.54.54,0,0,1,190.3,494Z" transform="translate(-89.67)"/><path class="cls-2" d="M158.37,504.59a.54.54,0,0,1-.34-.12l-2.81-2.28a.55.55,0,0,1-.07-.77.53.53,0,0,1,.76-.08l2.81,2.28a.53.53,0,0,1,.07.76A.51.51,0,0,1,158.37,504.59Z" transform="translate(-89.67)"/><path class="cls-2" d="M193.09,507.24c-.2,0-2-.76-2-.76a.54.54,0,1,1,.4-1l1.8.71a.54.54,0,0,1-.2,1.05Z" transform="translate(-89.67)"/><path class="cls-2" d="M210.56,594.14a2.64,2.64,0,1,1,2.63-2.64A2.64,2.64,0,0,1,210.56,594.14Zm0-4.18a1.54,1.54,0,1,0,1.54,1.54A1.54,1.54,0,0,0,210.56,590Z" transform="translate(-89.67)"/><path class="cls-2" d="M101.87,566.16a2.64,2.64,0,1,1,2.64-2.63A2.63,2.63,0,0,1,101.87,566.16Zm0-4.18a1.55,1.55,0,1,0,1.54,1.55A1.55,1.55,0,0,0,101.87,562Z" transform="translate(-89.67)"/><path class="cls-1" d="M270.43,366c-3.68,4.26-7.43,8.45-11.11,12.71-4.7-1.37-9.68-3-14.95-4.91-3.46-1.3-7.14-2.75-10.83-4.41-4-1.8-8.23-3.82-12.49-6.06-5.55-3-10.75-6.07-15.45-9.17a12.77,12.77,0,0,1,2.1-12.63,12.43,12.43,0,0,1,7.8-4c9.52,4.91,19.05,9.81,28.51,14.72C252.82,356.87,261.63,361.42,270.43,366Z" transform="translate(-89.67)"/><path class="cls-2" d="M244.37,373.77c-3.46-1.3-7.14-2.75-10.83-4.41V357.81c3.47-1.87,6.93-3.68,10.47-5.56C244.16,359.47,244.23,366.62,244.37,373.77Z" transform="translate(-89.67)"/><path class="cls-6" d="M234.58,380.25l-33.69-20.9c-.37-1.91-1.45-8.8,2.7-15a18.41,18.41,0,0,1,4.67-4.79l4.21-3.34,32,14.59Z" transform="translate(-89.67)"/><path class="cls-4" d="M742.37,204c14.4,34.74-12.42,76.29-32.48,107.39-18.22,28.22-50.63,66.32-65.88,59.56-10.78-4.77-1.4-26.79-19-46.92-14.72-16.88-31.21-12.77-37-27.08-6.92-17.09,13-31.94,7.22-44.22-7.4-15.74-47.28-6.48-78.73-7.61-81.39-2.91-172-77.72-165.83-135.87,3.95-37.22,48.53-76.58,82.12-74,12.8,1,21,7.82,39.71,6.32,21.9-1.77,36.88-13.26,44-18C552.51-.75,619-9.75,663.86,13.55,707.27,36.07,736.78,92,723.42,120.94c-6.09,13.2-18.36,14.88-19.85,28C701.2,169.78,731.1,176.75,742.37,204Z" transform="translate(-89.67)"/><path class="cls-3" d="M398.06,110.55c0-1.33-.11-11.15-8.1-17.54a21.89,21.89,0,0,0-12.89-4.65A30.8,30.8,0,0,0,386.19,81a32,32,0,0,0,7.16-18c.07,1.24.77,10.49,8.64,15.9a20,20,0,0,0,11.48,3.42,26.64,26.64,0,0,0-11.53,9.77A27.08,27.08,0,0,0,398.06,110.55Z" transform="translate(-89.67)"/><path class="cls-3" d="M688.31,146.64c0-1.33-.11-11.15-8.1-17.55a21.78,21.78,0,0,0-12.89-4.64,30.84,30.84,0,0,0,9.11-7.4,31.82,31.82,0,0,0,7.16-18c.08,1.24.78,10.49,8.64,15.9a20.07,20.07,0,0,0,11.49,3.42,26.61,26.61,0,0,0-11.53,9.78A27,27,0,0,0,688.31,146.64Z" transform="translate(-89.67)"/><path class="cls-3" d="M666.21,194.68c0-1.07-.09-9-6.54-14.17a17.6,17.6,0,0,0-10.42-3.75,24.93,24.93,0,0,0,7.37-6,25.78,25.78,0,0,0,5.78-14.54c.06,1,.63,8.47,7,12.84a16.11,16.11,0,0,0,9.28,2.76,21.54,21.54,0,0,0-9.32,7.9A21.82,21.82,0,0,0,666.21,194.68Z" transform="translate(-89.67)"/><path class="cls-3" d="M640.13,288.29a11.36,11.36,0,0,0-4-8.67,10.77,10.77,0,0,0-6.36-2.29,15.44,15.44,0,0,0,4.5-3.66,15.79,15.79,0,0,0,3.54-8.9,10.57,10.57,0,0,0,4.26,7.86,9.94,9.94,0,0,0,5.68,1.69,13.15,13.15,0,0,0-5.7,4.83A13.42,13.42,0,0,0,640.13,288.29Z" transform="translate(-89.67)"/><path class="cls-3" d="M679.19,307.41c0-1.07-.09-9-6.51-14.1a17.6,17.6,0,0,0-10.36-3.73,24.93,24.93,0,0,0,7.33-5.94,25.7,25.7,0,0,0,5.75-14.47c.06,1,.62,8.43,6.94,12.77a16,16,0,0,0,9.23,2.75,21.39,21.39,0,0,0-9.26,7.86A21.63,21.63,0,0,0,679.19,307.41Z" transform="translate(-89.67)"/><path class="cls-3" d="M432.7,128.09a11.43,11.43,0,0,0-4-8.7,10.83,10.83,0,0,0-6.39-2.31,15.25,15.25,0,0,0,4.52-3.67,15.82,15.82,0,0,0,3.55-8.93,10.66,10.66,0,0,0,4.28,7.89,10,10,0,0,0,5.7,1.7,13.12,13.12,0,0,0-5.72,4.84A13.41,13.41,0,0,0,432.7,128.09Z" transform="translate(-89.67)"/><path class="cls-2" d="M408.74,604.28a5.32,5.32,0,0,1-4.73-5.89l30-247.83a5.34,5.34,0,0,1,10.6,1.28l-30,247.83A5.3,5.3,0,0,1,408.74,604.28Z" transform="translate(-89.67)"/><path class="cls-2" d="M419.86,612H398.63a8.24,8.24,0,0,1,8.24-8.24h4.76a8.23,8.23,0,0,1,8.23,8.24Z" transform="translate(-89.67)"/><path class="cls-2" d="M348.51,602.69a5.33,5.33,0,0,1-3.36-6.76l85.31-250.44a5.34,5.34,0,0,1,10.11,3.44L355.25,599.38A5.32,5.32,0,0,1,348.51,602.69Z" transform="translate(-89.67)"/><path class="cls-2" d="M359.53,610H338.3a8.23,8.23,0,0,1,8.23-8.24h4.76a8.24,8.24,0,0,1,8.24,8.24Z" transform="translate(-89.67)"/><path class="cls-2" d="M538.5,602.69a5.33,5.33,0,0,0,3.36-6.76L456.55,345.49a5.34,5.34,0,0,0-10.11,3.44l85.32,250.45A5.32,5.32,0,0,0,538.5,602.69Z" transform="translate(-89.67)"/><path class="cls-2" d="M527.48,610h21.23a8.23,8.23,0,0,0-8.23-8.24h-4.76a8.24,8.24,0,0,0-8.24,8.24Z" transform="translate(-89.67)"/><rect class="cls-2" x="352.55" y="255.91" width="12.63" height="68.33"/><rect class="cls-2" x="506.79" y="53.95" width="19.52" height="13.76" transform="translate(-39.26 291.57) rotate(-33.05)"/><rect class="cls-7" x="241.87" y="146.89" width="388.65" height="113.1" transform="translate(-130.05 270.81) rotate(-33.05)"/><rect class="cls-2" x="263.64" y="242.66" width="23.46" height="130.85" transform="translate(-213.14 200.03) rotate(-33.05)"/><rect class="cls-2" x="324.92" y="215.77" width="10.83" height="113.1" transform="translate(-184.74 224.23) rotate(-33.05)"/><rect class="cls-2" x="479.49" y="114.22" width="13.84" height="113.1" transform="translate(-104.1 292.92) rotate(-33.05)"/><rect class="cls-7" x="596.76" y="48.86" width="28.47" height="81.67" transform="translate(-39.73 347.74) rotate(-33.05)"/><rect class="cls-7" x="621.4" y="49.5" width="19" height="54.49" transform="matrix(0.84, -0.55, 0.55, 0.84, -29.45, 356.5)"/><rect class="cls-2" x="637.82" y="49.63" width="12.86" height="36.88" transform="translate(-22.55 362.36) rotate(-33.05)"/><path class="cls-2" d="M621.34,132.23a.53.53,0,0,1-.46-.25L578.4,66.7a.54.54,0,0,1,.16-.75.53.53,0,0,1,.76.15l42.48,65.29a.55.55,0,0,1-.16.75A.55.55,0,0,1,621.34,132.23Z" transform="translate(-89.67)"/><path class="cls-2" d="M636.69,103.61a.54.54,0,0,1-.46-.25l-27.07-41.6a.55.55,0,0,1,.91-.6l27.07,41.6a.53.53,0,0,1-.16.75A.46.46,0,0,1,636.69,103.61Z" transform="translate(-89.67)"/><path class="cls-2" d="M381.09,307.31a.54.54,0,0,1-.45-.25L319,212.25a.55.55,0,0,1,.16-.75.53.53,0,0,1,.76.16l61.68,94.8a.55.55,0,0,1-.16.76A.53.53,0,0,1,381.09,307.31Z" transform="translate(-89.67)"/><path class="cls-2" d="M386.39,303.86a.56.56,0,0,1-.46-.25l-61.68-94.8a.53.53,0,0,1,.16-.75.51.51,0,0,1,.75.16L386.85,303a.55.55,0,0,1-.16.75A.58.58,0,0,1,386.39,303.86Z" transform="translate(-89.67)"/><rect class="cls-2" x="487.87" y="86.27" width="14.74" height="10.29" transform="translate(-59.39 284.89) rotate(-33.05)"/><path class="cls-7" d="M448.33,70.29h74.81a0,0,0,0,1,0,0V92.4a0,0,0,0,1,0,0H446.89a0,0,0,0,1,0,0V71.74a1.45,1.45,0,0,1,1.45-1.45Z" transform="translate(-55.56 277.68) rotate(-33.05)"/><path class="cls-2" d="M481.07,302.11l-57.13,33a12.14,12.14,0,0,1-12.14-21l57.12-33a12.14,12.14,0,0,1,12.15,21Z" transform="translate(-89.67)"/><path class="cls-7" d="M460.12,348.91H433.65a6.17,6.17,0,1,1,0-12.33h26.47a6.17,6.17,0,1,1,0,12.33Z" transform="translate(-89.67)"/><rect class="cls-7" x="337.36" y="320.18" width="38.8" height="17.9" rx="1.02"/><path class="cls-2" d="M461.32,337.75H431a.55.55,0,0,1,0-1.1h30.33a.55.55,0,0,1,0,1.1Z" transform="translate(-89.67)"/><path class="cls-8" d="M396.21,120.64a4.36,4.36,0,1,1-4.36-4.35A4.36,4.36,0,0,1,396.21,120.64Z" transform="translate(-89.67)"/><circle class="cls-8" cx="294.04" cy="114" r="1.86"/><circle class="cls-8" cx="281.91" cy="111.57" r="1.02"/><circle class="cls-8" cx="332.45" cy="98.04" r="5.53"/><path class="cls-8" d="M413.37,116.62a4,4,0,1,1-4-4A4,4,0,0,1,413.37,116.62Z" transform="translate(-89.67)"/><path class="cls-8" d="M435.32,54.39a3.84,3.84,0,1,1-3.83-3.84A3.84,3.84,0,0,1,435.32,54.39Z" transform="translate(-89.67)"/><circle class="cls-8" cx="324.67" cy="58.45" r="2.26"/><path class="cls-8" d="M456,67a6.14,6.14,0,1,1-6.14-6.14A6.14,6.14,0,0,1,456,67Z" transform="translate(-89.67)"/><circle class="cls-8" cx="524.74" cy="196.48" r="6.96"/><circle class="cls-8" cx="508.99" cy="203.74" r="2.71"/><circle class="cls-8" cx="529.16" cy="183.56" r="4.42"/><circle class="cls-8" cx="555.15" cy="193.95" r="4.43"/><circle class="cls-8" cx="550.5" cy="211.41" r="4.96"/><path class="cls-8" d="M630.17,227.31a4.4,4.4,0,1,1-4.39-4.4A4.39,4.39,0,0,1,630.17,227.31Z" transform="translate(-89.67)"/><circle class="cls-8" cx="628.69" cy="221.84" r="5.47"/><circle class="cls-8" cx="624.54" cy="208.29" r="3.12"/><path class="cls-8" d="M699.88,219.64a3.27,3.27,0,1,1-3.27-3.27A3.26,3.26,0,0,1,699.88,219.64Z" transform="translate(-89.67)"/><circle class="cls-8" cx="614.95" cy="198.7" r="4.74"/><circle class="cls-8" cx="597.76" cy="209.57" r="3.12"/><path class="cls-8" d="M715.69,256.75a3.16,3.16,0,1,1-3.16-3.15A3.15,3.15,0,0,1,715.69,256.75Z" transform="translate(-89.67)"/><path class="cls-8" d="M690.63,256.75a3.16,3.16,0,1,1-3.16-3.15A3.15,3.15,0,0,1,690.63,256.75Z" transform="translate(-89.67)"/><circle class="cls-8" cx="579.9" cy="252.84" r="2.26"/><path class="cls-8" d="M657.77,330.08a4.29,4.29,0,1,1-4.29-4.29A4.28,4.28,0,0,1,657.77,330.08Z" transform="translate(-89.67)"/><path class="cls-8" d="M655.18,314.57a2.32,2.32,0,1,1-2.32-2.32A2.32,2.32,0,0,1,655.18,314.57Z" transform="translate(-89.67)"/><path class="cls-8" d="M645.69,318a3.47,3.47,0,1,1-3.46-3.47A3.46,3.46,0,0,1,645.69,318Z" transform="translate(-89.67)"/><path class="cls-8" d="M636.56,303.46a4.29,4.29,0,1,1-4.28-4.29A4.28,4.28,0,0,1,636.56,303.46Z" transform="translate(-89.67)"/><path class="cls-8" d="M617.32,16.41a3.16,3.16,0,1,1-3.16-3.16A3.16,3.16,0,0,1,617.32,16.41Z" transform="translate(-89.67)"/><path class="cls-8" d="M605.5,23.33a3.76,3.76,0,1,1-3.76-3.76A3.76,3.76,0,0,1,605.5,23.33Z" transform="translate(-89.67)"/><circle class="cls-8" cx="494.02" cy="21.82" r="8.57"/><path class="cls-8" d="M667.77,35.66a5.27,5.27,0,1,1-5.26-5.26A5.25,5.25,0,0,1,667.77,35.66Z" transform="translate(-89.67)"/><circle class="cls-8" cx="604.39" cy="67.27" r="6.44"/><path class="cls-8" d="M675,57.77a3.61,3.61,0,1,1-3.61-3.61A3.61,3.61,0,0,1,675,57.77Z" transform="translate(-89.67)"/><path class="cls-1" d="M264.31,365.62a34.21,34.21,0,0,1-3,4.06,33.07,33.07,0,0,1-3.83,3.76l-.38,12.42c2.85,2.47,5.14,2.69,6.28,2.66,0,0,4.75-.17,12.36-9.24.21-.24.7-.85,1.45-1.68s1.3-1.36,2.5-2.8c5.58-6.7,9.56-13.57,14.12-21.57.28-.52.57-1,.83-1.48,1.24-2.23,2.25-4.06,2.93-5.33l-4.1-4.23-6.14-.15C271.65,356.88,265.85,363.18,264.31,365.62Z" transform="translate(-89.67)"/><path class="cls-1" d="M303.67,338.84a60.56,60.56,0,0,1,8.58,1.34c4.58,1.05,10.21,2.91,10.07,3.63-.07.36-1.64.58-8.76-.19,6,.39,9,.87,9,1.42q0,1.14-16.48,2.7c4.46,0,7.94-.08,10.33-.14,2,0,4.79-.12,4.91.5.05.25-.36.52-.51.63-2.24,1.52-13,2.82-15,3.06,7.49.41,11.25.88,11.25,1.42s-4.38,1.26-13.18,2L288,352.46q-.58-5-1.18-9.93Z" transform="translate(-89.67)"/><path class="cls-1" d="M301.26,337.86c1.8.52,2.7,1,2.71,1.56q0,1.09-5.25,2.24l-10.48,1.47-1.41-.6c1.35-1.36,5.51-5.2,11.29-5.11A13.07,13.07,0,0,1,301.26,337.86Z" transform="translate(-89.67)"/><path class="cls-2" d="M319,344.64c-.08,0-5.86-.86-5.86-.86a.54.54,0,1,1,.16-1.07l5.77.85a.54.54,0,0,1-.07,1.08Z" transform="translate(-89.67)"/><path class="cls-2" d="M304.94,344.2a.54.54,0,0,1-.54-.46.55.55,0,0,1,.47-.62l6.15-.87a.51.51,0,0,1,.61.46.54.54,0,0,1-.46.62l-6.15.87Z" transform="translate(-89.67)"/><path class="cls-2" d="M293.18,341.2a.54.54,0,0,1-.08-1.08l9.76-1.58a.59.59,0,0,1,.63.45.55.55,0,0,1-.46.63l-9.76,1.57Z" transform="translate(-89.67)"/><path class="cls-1" d="M269,373.48c-3.68,4.25-7.44,8.44-11.12,12.7-4.69-1.37-9.67-3-14.94-4.91-3.47-1.3-7.15-2.74-10.83-4.4-4-1.81-8.23-3.83-12.49-6.07-5.56-3-10.76-6.06-15.45-9.16A12.76,12.76,0,0,1,206.22,349a12.5,12.5,0,0,1,7.8-4c9.53,4.91,19.06,9.82,28.51,14.73C251.34,364.38,260.15,368.93,269,373.48Z" transform="translate(-89.67)"/><path class="cls-2" d="M242.9,381.27c-3.47-1.3-7.15-2.74-10.83-4.4V365.32c3.46-1.88,6.93-3.68,10.46-5.56C242.68,367,242.75,374.13,242.9,381.27Z" transform="translate(-89.67)"/><path class="cls-6" d="M233.1,387.76l-33.69-20.91c-.37-1.91-1.45-8.8,2.71-15a18.33,18.33,0,0,1,4.66-4.78l4.21-3.34,32,14.59Z" transform="translate(-89.67)"/><path class="cls-2" d="M261.31,370.22c-.26-.06-17.06-8.89-17.06-8.89a.54.54,0,1,1,.51-1l16.8,8.83a.53.53,0,0,1,.23.73A.54.54,0,0,1,261.31,370.22Z" transform="translate(-89.67)"/><path class="cls-2" d="M262.09,369.27a.54.54,0,0,1-.34-.12.55.55,0,0,1-.09-.76l3.84-4.78a.56.56,0,0,1,.77-.09.55.55,0,0,1,.08.77l-3.83,4.78A.57.57,0,0,1,262.09,369.27Z" transform="translate(-89.67)"/><rect class="cls-2" x="486.34" y="286.66" width="7.21" height="100.92" transform="translate(-194.45 337.39) rotate(-34.56)"/><rect class="cls-2" x="497.19" y="337.12" width="15.34" height="43.32" transform="translate(424.3 -260.52) rotate(55.44)"/></g></svg>