<?xml version="1.0" encoding="utf-8"?>
<!-- Generator: Adobe Illustrator 25.2.3, SVG Export Plug-In . SVG Version: 6.00 Build 0)  -->
<svg version="1.1" id="Flat" xmlns="http://www.w3.org/2000/svg" xmlns:xlink="http://www.w3.org/1999/xlink" x="0px" y="0px"
	 viewBox="0 0 64 64" enable-background="new 0 0 64 64" xml:space="preserve">
<g id="Color_copy">
	<g>
		<g>
			<path fill="#FF7373" d="M30,5l0.1,0.5c0.9,4.8,7.3,6.1,10,2l0.3-0.4l-0.1,0.5c-1,4.8,3.4,9.4,7.4,6.6l0.4-0.3l-0.3,0.4
				c-2.8,4.1,1.8,8.4,6.6,7.4l0.5-0.1l-0.4,0.3c-4.1,2.7-2.9,9,2,10L57,32l-0.5,0.1c-4.8,0.9-6.1,7.3-2,10l0.4,0.3l-0.5-0.1
				c-4.8-1-9.4,3.4-6.6,7.4l0.3,0.4l-0.4-0.3c-4.1-2.8-8.4,1.8-7.4,6.6l0.1,0.5l-0.3-0.4c-2.7-4.1-9-2.9-10,2L30,59l-0.1-0.5
				c-0.9-4.8-7.3-6.1-10-2l-0.3,0.4l0.1-0.5c1-4.8-4.4-8.4-8.4-5.6l-0.4,0.3l0.3-0.4c2.8-4.1-0.8-9.4-5.6-8.4l-0.5,0.1l0.4-0.3
				c4.1-2.7,2.9-9-2-10L3,32l0.5-0.1c4.8-0.9,6.1-7.3,2-10l-0.4-0.3l0.5,0.1c4.8,1,8.4-4.4,5.6-8.4l-0.3-0.4l0.4,0.3
				c4.1,2.8,9.4-0.8,8.4-5.6l-0.1-0.5l0.3,0.4c2.7,4.1,9,2.9,10-2L30,5z"/>
			<path fill="#EF5350" d="M30,53.5c-1.3-1.4-3.2-2.3-5.3-2.3c-1,0-2,0.2-2.9,0.6c-0.3-0.7-0.6-1.4-1.1-2c-1.4-1.7-3.5-2.7-5.6-2.7
				c-0.1,0-0.1,0-0.2,0c0-1.2-0.2-2.4-0.8-3.6c-0.8-1.6-2.2-2.8-3.8-3.4c0.6-1.3,0.8-2.8,0.5-4.4C10.3,34.3,9.6,33,8.5,32
				c1.1-1,1.8-2.3,2.1-3.9c0.3-1.5,0.1-3.1-0.5-4.4c1.6-0.6,3-1.8,3.8-3.4c0.6-1.1,0.9-2.4,0.8-3.6c0.1,0,0.1,0,0.2,0
				c2.1,0,4.2-1,5.6-2.7c0.5-0.6,0.9-1.3,1.1-2c0.9,0.4,1.9,0.6,2.9,0.6h0c2.1,0,4-0.9,5.3-2.3c1.3,1.4,3.2,2.3,5.3,2.3
				c1,0,1.9-0.2,2.8-0.6c0.3,1.1,0.8,2.1,1.5,2.9c1.2,1.5,3,2.4,4.8,2.5c0,0.9,0.3,1.8,0.7,2.6c0.9,1.8,2.7,3.1,4.7,3.7
				c-0.5,1.3-0.7,2.7-0.4,4.2c0.3,1.5,1.1,2.9,2.1,3.9c-1.1,1-1.8,2.3-2.1,3.9c-0.3,1.5-0.1,2.9,0.4,4.2c-2,0.6-3.8,1.9-4.7,3.7
				c-0.4,0.8-0.7,1.7-0.7,2.6c-1.8,0-3.5,0.9-4.8,2.5c-0.7,0.9-1.2,1.9-1.5,2.9c-0.9-0.4-1.8-0.6-2.8-0.6
				C33.2,51.2,31.3,52.1,30,53.5z"/>
			<circle fill="#E53935" cx="30" cy="32" r="18"/>
			<circle fill="#C62828" cx="30" cy="32" r="14"/>
		</g>
		<g>
			<circle fill="#FCF2AD" cx="42" cy="32" r="19"/>
			<path fill="#F9DBAF" d="M57.9,42.3C54.5,47.6,48.7,51,42,51c-10.5,0-19-8.5-19-19c0-8.8,6-16.2,14.1-18.4
				c-1.9,3-3.1,6.5-3.1,10.4c0,10.5,8.5,19,19,19C54.7,43,56.4,42.8,57.9,42.3z"/>
			<path fill="#EDB88E" d="M39.1,25.5l0.9,1c0.9,1,1.2,2.4,0.8,3.7l0,0c-0.3,0.9-0.9,1.6-1.7,2.1l-0.9,0.5c-0.9,0.5-2,0.6-3,0.3
				l-0.9-0.3c-0.6-0.2-1.2-0.6-1.6-1.1l-0.8-0.9c-0.9-1.1-1.2-2.5-0.7-3.9l0.3-0.8c0.4-1.1,1.4-1.9,2.5-2.2l0,0
				c0.7-0.2,1.5-0.2,2.2,0.1l1.4,0.5C38.1,24.7,38.7,25.1,39.1,25.5z"/>
			<path fill="#EDB88E" d="M41.8,38.5l0.6-0.4c1-0.6,2.2-0.6,3.2,0l0.1,0.1c0.8,0.5,1.3,1.4,1.3,2.4v0.2c0,1.3-0.9,2.5-2.2,2.8
				l-0.6,0.2c-0.8,0.2-1.6,0.1-2.3-0.4l-0.1-0.1c-1.1-0.7-1.5-2.1-1.1-3.3l0,0C40.9,39.3,41.3,38.8,41.8,38.5z"/>
			<path fill="#F9DBAF" d="M49.8,23.5l0.6-0.4c1-0.6,2.2-0.6,3.2,0l0.1,0.1c0.8,0.5,1.3,1.4,1.3,2.4v0.2c0,1.3-0.9,2.5-2.2,2.8
				l-0.6,0.2c-0.8,0.2-1.6,0.1-2.3-0.4l-0.1-0.1c-1.1-0.7-1.5-2.1-1.1-3.3l0,0C48.9,24.3,49.3,23.8,49.8,23.5z"/>
			<circle fill="#F9DBAF" cx="53" cy="35" r="2"/>
			<circle fill="#EDB88E" cx="32" cy="39" r="2"/>
			<path fill="#EDB88E" d="M37.8,16.2c-0.3,0.9-0.9,1.6-1.7,2.1l-0.9,0.5c-0.9,0.5-2,0.6-3,0.3l-0.9-0.3c-0.6-0.2-1.2-0.6-1.6-1
				l0-0.1c2.3-2,5-3.4,8-4.1C38,14.4,38,15.3,37.8,16.2z"/>
			<path fill="#EDB88E" d="M39.9,50.9c-3.4-0.4-6.5-1.6-9.1-3.5c0.5-0.7,1.2-1.2,2.1-1.4h0c0.7-0.2,1.5-0.2,2.2,0.1l1.4,0.5
				c0.6,0.2,1.2,0.6,1.6,1l0.9,1C39.6,49.2,39.9,50,39.9,50.9z"/>
			<path fill="#DA9367" d="M40,26.5l-0.9-1c-0.4-0.5-1-0.8-1.6-1.1L36.1,24c-0.7-0.2-1.4-0.3-2.2-0.1l0,0c-1.1,0.3-2.1,1.1-2.5,2.2
				L31.1,27c-0.5,1.3-0.3,2.8,0.7,3.9l0.8,0.9c0.4,0.5,1,0.8,1.6,1.1l0.9,0.3c0.4,0.1,0.9,0.2,1.3,0.2C35,30.8,34.2,28,34,25
				c0,0,0.1,0,0.1,0l1.4,0.5c0.6,0.2,1.2,0.6,1.6,1.1l0.9,1c0.9,1,1.2,2.4,0.8,3.7c-0.3,0.8-0.8,1.5-1.5,1.9
				c0.3-0.1,0.6-0.2,0.9-0.3l0.9-0.5c0.8-0.5,1.4-1.2,1.7-2.1C41.2,28.9,40.9,27.5,40,26.5z"/>
			<path fill="#DA9367" d="M45.7,38.2l-0.1-0.1c-1-0.6-2.2-0.6-3.2,0l-0.6,0.4c-0.5,0.4-0.9,0.9-1.1,1.5c-0.4,1.2,0.1,2.6,1.1,3.3
				l0.1,0.1c0.7,0.4,1.5,0.6,2.3,0.4l0.6-0.2c1.3-0.3,2.2-1.5,2.2-2.8v-0.2C47,39.6,46.5,38.7,45.7,38.2z M46,41.7
				c-1.7-0.7-3.2-1.5-4.6-2.6c1-0.6,2.2-0.6,3.2,0l0.1,0.1c0.8,0.5,1.3,1.4,1.3,2.4V41.7z"/>
			<path fill="#DA9367" d="M37.1,13.7c-2.8,0.7-5.4,2.1-7.5,4l0,0.1c0.4,0.5,1,0.9,1.6,1l0.9,0.3c0.8,0.3,1.7,0.2,2.6-0.1
				C35.2,17.1,36,15.3,37.1,13.7z"/>
			<path fill="#DA9367" d="M31.9,47L31.9,47c0.7-0.2,1.5-0.2,2.2,0.1l1.4,0.5c0.6,0.2,1.2,0.6,1.6,1.1l0.9,1
				c0.3,0.3,0.5,0.7,0.7,1.1c0.4,0.1,0.8,0.1,1.2,0.2c0-0.9-0.3-1.7-0.9-2.4l-0.9-1c-0.4-0.5-1-0.8-1.6-1L35.1,46
				c-0.7-0.2-1.5-0.3-2.2-0.1h0c-0.8,0.2-1.6,0.7-2.1,1.4c0,0,0,0,0.1,0C31.3,47.3,31.6,47.1,31.9,47z"/>
			<path fill="#DA9367" d="M32,37c-0.8,0-1.5,0.5-1.8,1.1c0.2-0.1,0.5-0.2,0.8-0.2c1.1,0,2,0.9,2,2c0,0.3-0.1,0.6-0.2,0.9
				c0.7-0.3,1.2-1,1.2-1.8C34,37.9,33.1,37,32,37z"/>
			<path fill="#EDB88E" d="M53,33c-0.8,0-1.5,0.5-1.8,1.1c0.2-0.1,0.5-0.2,0.8-0.2c1.1,0,2,0.9,2,2c0,0.3-0.1,0.6-0.2,0.9
				c0.7-0.3,1.2-1,1.2-1.8C55,33.9,54.1,33,53,33z"/>
			<path fill="#EDB88E" d="M53.7,23.2l-0.1-0.1c-1-0.6-2.2-0.6-3.2,0l-0.6,0.4c-0.4,0.2-0.6,0.5-0.9,0.9l0.5-0.3
				c1-0.6,2.2-0.6,3.2,0l0.1,0.1c0.8,0.5,1.3,1.4,1.3,2.4v0.2c0,0.5-0.1,1-0.4,1.5c0.8-0.5,1.4-1.4,1.4-2.5v-0.2
				C55,24.6,54.5,23.7,53.7,23.2z"/>
			<circle fill="#F9DBAF" cx="46" cy="32" r="1"/>
			<circle fill="#DA9367" cx="27" cy="32" r="1"/>
			<circle fill="#F9DBAF" cx="44" cy="22" r="1"/>
			<circle fill="#F9DBAF" cx="53" cy="41" r="1"/>
			<circle fill="#DA9367" cx="48" cy="46" r="1"/>
		</g>
	</g>
</g>
</svg>
