<svg id="Capa_1" data-name="Capa 1" xmlns="http://www.w3.org/2000/svg" viewBox="0 0 612 569.79"><defs><style>.cls-1{fill:#fff268;}.cls-2{fill:#ffea47;}.cls-3{fill:#ffdb47;}.cls-4{fill:#fcbe03;}.cls-5{fill:#d5d5d5;}.cls-6{fill:#5c5d5e;}.cls-7{fill:#bbb;}.cls-8{fill:#dadada;}.cls-9{fill:#8b8a8d;}</style></defs><title>eclipse 1</title><path class="cls-1" d="M284.9,111.24l1.05,5.28c9.5,50.65,77,64.37,105.52,21.1l3.16-4.22-1.05,5.28c-10.55,50.65,35.88,99.18,78.08,69.64l4.22-3.17-3.16,4.23c-29.55,43.26,19,88.63,69.64,78.08l5.27-1.06-4.22,3.17c-43.26,28.49-30.6,95,21.11,105.52l5.27,1.05-5.27,1.06c-50.65,9.49-64.37,77-21.11,105.51l4.22,3.17-5.27-1.06c-50.65-10.55-99.19,35.88-69.64,78.09l3.16,4.22L471.66,584C428.4,554.42,383,603,393.58,653.6l1.05,5.28-3.16-4.22c-28.49-43.26-95-30.6-105.52,21.1L284.9,681l-1.06-5.28c-9.5-50.65-77-64.36-105.52-21.1l-3.16,4.22,1.05-5.28C186.77,603,129.79,565,87.58,594.51l-4.22,3.17,3.16-4.22c29.55-43.26-8.44-99.19-59.09-88.64l-5.27,1.06,4.22-3.17c43.26-28.49,30.6-95-21.1-105.51L0,396.14l5.28-1.05c50.64-9.5,64.36-77,21.1-105.52l-4.22-3.17,5.27,1.06C78.08,298,116.07,241,86.52,198.82l-3.16-4.22,4.22,3.17c43.26,29.54,99.19-8.44,88.63-59.09l-1.05-5.28,3.16,4.22c28.49,43.27,95,30.6,105.52-21.1Z" transform="translate(0 -111.24)"/><path class="cls-2" d="M284.9,623a76.76,76.76,0,0,0-86.53-17.94c-3.16-7.38-6.33-14.77-11.6-21.1C172,566,149.83,555.47,127.68,555.47h-2.11c0-12.66-2.11-25.32-8.45-38A74,74,0,0,0,77,481.61c6.33-13.72,8.44-29.55,5.27-46.43C77,420.41,69.64,406.69,58,396.14Q75.44,380.31,80.19,355a77,77,0,0,0-5.27-46.43A74,74,0,0,0,115,272.69c6.33-11.61,9.5-25.33,8.45-38h2.11c22.15,0,44.31-10.55,59.09-28.49a59.6,59.6,0,0,0,11.6-21.1,75.72,75.72,0,0,0,30.6,6.33h0a76.41,76.41,0,0,0,55.93-24.27,76.37,76.37,0,0,0,55.92,24.27,70.86,70.86,0,0,0,29.55-6.33c3.16,11.6,8.44,22.15,15.82,30.6a70.87,70.87,0,0,0,50.65,26.38c0,9.49,3.17,19,7.39,27.43,9.49,19,28.49,32.71,49.59,39-5.28,13.72-7.39,28.49-4.22,44.32A82.55,82.55,0,0,0,509.65,394q-17.41,15.83-22.16,41.15c-3.17,15.83-1.06,30.6,4.22,44.32-21.1,6.33-40.1,20.05-49.59,39-4.22,8.44-7.39,17.94-7.39,27.44-19,0-36.93,9.49-50.65,26.37A94.24,94.24,0,0,0,368.26,603a70.86,70.86,0,0,0-29.55-6.33C318.66,598.73,298.61,608.23,284.9,623Z" transform="translate(0 -111.24)"/><circle class="cls-3" cx="284.9" cy="284.9" r="189.93"/><circle class="cls-4" cx="284.9" cy="284.9" r="147.72"/><circle class="cls-5" cx="411.52" cy="284.9" r="200.48"/><path class="cls-6" d="M579.29,504.82c-35.88,55.93-97.08,91.8-167.77,91.8A200.4,200.4,0,0,1,211,396.14C211,303.29,274.34,225.2,359.81,202c-20,31.65-32.71,68.59-32.71,109.74A200.4,200.4,0,0,0,527.59,512.21C545.52,512.21,563.46,510.1,579.29,504.82Z" transform="translate(0 -111.24)"/><path class="cls-7" d="M380.92,327.55l9.49,10.56a40.41,40.41,0,0,1,8.45,39h0c-3.17,9.49-9.5,16.88-17.94,22.16l-9.5,5.27a41.26,41.26,0,0,1-31.65,3.17l-9.5-3.17A37.52,37.52,0,0,1,313.39,393l-8.45-9.5c-9.49-11.61-12.66-26.38-7.38-41.15l3.16-8.44c4.22-11.61,14.78-20.05,26.38-23.22h0a35.13,35.13,0,0,1,23.22,1.06L365.09,317A51.9,51.9,0,0,1,380.92,327.55Z" transform="translate(0 -111.24)"/><path class="cls-7" d="M409.41,464.73l6.33-4.22a32.38,32.38,0,0,1,33.76,0l1.06,1.05a29.7,29.7,0,0,1,13.72,25.33V489c0,13.71-9.5,26.38-23.22,29.54l-6.33,2.11c-8.44,2.11-16.88,1.06-24.27-4.22l-1-1c-11.61-7.39-15.83-22.16-11.61-34.83h0C399.91,473.17,404.13,467.89,409.41,464.73Z" transform="translate(0 -111.24)"/><path class="cls-8" d="M493.82,306.45l6.33-4.22a32.4,32.4,0,0,1,33.77,0l1.05,1.06a29.68,29.68,0,0,1,13.72,25.32v2.11c0,13.72-9.5,26.38-23.21,29.54l-6.34,2.12c-8.44,2.11-16.88,1.05-24.26-4.23l-1.06-1c-11.61-7.39-15.83-22.16-11.61-34.82h0C484.32,314.89,488.54,309.62,493.82,306.45Z" transform="translate(0 -111.24)"/><circle class="cls-8" cx="527.59" cy="316.55" r="21.1"/><circle class="cls-7" cx="306" cy="358.76" r="21.1"/><path class="cls-7" d="M367.2,229.42c-3.17,9.5-9.5,16.89-17.94,22.16l-9.49,5.28A41.28,41.28,0,0,1,308.11,260l-9.5-3.16a45.94,45.94,0,0,1-16.88-10.55v-1.06A195.56,195.56,0,0,1,366.14,202C369.31,210.43,369.31,219.93,367.2,229.42Z" transform="translate(0 -111.24)"/><path class="cls-7" d="M389.36,595.57c-35.88-4.22-68.59-16.88-96-36.93a36.39,36.39,0,0,1,22.16-14.78h0a35.11,35.11,0,0,1,23.21,1.06l14.77,5.28a46.07,46.07,0,0,1,16.89,10.55l9.49,10.55C386.19,577.63,389.36,586.07,389.36,595.57Z" transform="translate(0 -111.24)"/><path class="cls-9" d="M390.41,338.11l-9.49-10.56c-4.22-5.27-10.55-8.44-16.89-11.6l-14.77-4.22c-7.38-2.11-14.77-3.17-23.21-1.06h0c-11.61,3.17-22.16,11.61-26.38,23.22l-3.17,9.49c-5.27,13.72-3.16,29.55,7.39,41.15l8.44,9.5c4.22,5.28,10.55,8.44,16.88,11.61l9.5,3.16a61.5,61.5,0,0,0,13.72,2.11,214.93,214.93,0,0,1-25.33-88.63h1.06l14.77,5.27a37.54,37.54,0,0,1,16.88,11.61l9.5,10.55a40.41,40.41,0,0,1,8.44,39c-3.16,8.45-8.44,15.83-15.83,20.05l9.5-3.16,9.5-5.28c8.44-5.27,14.77-12.66,17.94-22.16C403.08,363.43,399.91,348.66,390.41,338.11Z" transform="translate(0 -111.24)"/><path class="cls-9" d="M450.56,461.56l-1.06-1.05a32.38,32.38,0,0,0-33.76,0l-6.33,4.22a34.45,34.45,0,0,0-11.61,15.82c-4.22,12.67,1.06,27.44,11.61,34.83l1,1c7.39,4.22,15.83,6.33,24.27,4.22l6.33-2.11c13.72-3.16,23.22-15.83,23.22-29.54v-2.11A29.7,29.7,0,0,0,450.56,461.56Zm3.16,36.93c-17.93-7.38-33.76-15.83-48.53-27.43a32.38,32.38,0,0,1,33.76,0l1.06,1.05a29.7,29.7,0,0,1,13.71,25.33Z" transform="translate(0 -111.24)"/><path class="cls-9" d="M359.81,203a185.77,185.77,0,0,0-79.13,42.21v1.06c4.22,5.27,10.55,9.49,16.88,10.55l9.5,3.16c8.44,3.17,17.93,2.11,27.43-1A179.27,179.27,0,0,1,359.81,203Z" transform="translate(0 -111.24)"/><path class="cls-9" d="M304.94,554.42h0a35.19,35.19,0,0,1,23.22,1.05l14.77,5.28a37.52,37.52,0,0,1,16.88,11.6l9.5,10.56c3.17,3.16,5.28,7.38,7.39,11.6,4.22,1.06,8.44,1.06,12.66,2.11a37.83,37.83,0,0,0-9.5-25.32l-9.49-10.55c-4.23-5.28-10.56-8.44-16.89-10.55l-14.77-6.34c-7.39-2.11-15.83-3.16-23.21-1.05h0a39.63,39.63,0,0,0-22.16,14.77h1.05C298.61,557.58,301.78,555.47,304.94,554.42Z" transform="translate(0 -111.24)"/><path class="cls-9" d="M306,448.9a21.75,21.75,0,0,0-19,11.61,19.78,19.78,0,0,1,8.44-2.11,21.16,21.16,0,0,1,21.1,21.1c0,3.16-1.05,6.33-2.11,9.5a20.85,20.85,0,0,0,12.66-19A21.16,21.16,0,0,0,306,448.9Z" transform="translate(0 -111.24)"/><path class="cls-7" d="M527.59,406.69a21.77,21.77,0,0,0-19,11.61,19.82,19.82,0,0,1,8.44-2.11,21.17,21.17,0,0,1,21.11,21.1c0,3.17-1.06,6.33-2.11,9.5a20.85,20.85,0,0,0,12.66-19A21.17,21.17,0,0,0,527.59,406.69Z" transform="translate(0 -111.24)"/><path class="cls-7" d="M535,303.29l-1.05-1.06a32.4,32.4,0,0,0-33.77,0l-6.33,4.22c-4.22,2.11-6.33,5.28-9.5,9.5l5.28-3.17a32.4,32.4,0,0,1,33.77,0l1,1.06a29.68,29.68,0,0,1,13.72,25.32v2.11a29.83,29.83,0,0,1-4.22,15.83,31.07,31.07,0,0,0,14.77-26.38v-2.11A29.68,29.68,0,0,0,535,303.29Z" transform="translate(0 -111.24)"/><circle class="cls-8" cx="453.72" cy="284.9" r="10.55"/><circle class="cls-9" cx="253.24" cy="284.9" r="10.55"/><circle class="cls-8" cx="432.62" cy="179.38" r="10.55"/><circle class="cls-8" cx="527.59" cy="379.86" r="10.55"/><circle class="cls-7" cx="474.83" cy="432.62" r="10.55"/></svg>