<svg id="Capa_1" data-name="Capa 1" xmlns="http://www.w3.org/2000/svg" viewBox="0 0 740 478"><defs><style>.cls-1,.cls-4{fill:none;}.cls-2{fill:#f3deb7;}.cls-3{fill:#9a7366;}.cls-4{stroke:#fff;stroke-miterlimit:10;}.cls-5{fill:#dedfd3;}.cls-6{fill:#d1c8b4;}.cls-7{fill:#aaa394;}.cls-8{fill:#d8d0b9;}.cls-9{fill:#919ba5;}.cls-10{fill:#b9b2a1;}.cls-11{fill:#9b9990;}.cls-12{fill:#cbc8b6;}.cls-13{fill:#b9b2a0;}.cls-14{fill:#e2b182;}.cls-15{fill:#e7bf8b;}.cls-16{fill:#455f7e;}</style></defs><title>jupiter 2</title><polygon class="cls-1" points="615 237 615 237 615 237 615 237"/><path class="cls-2" d="M0,0Z" transform="translate(-23 -66)"/><path class="cls-3" d="M0,0Z" transform="translate(-23 -66)"/><path class="cls-4" d="M0,0Z" transform="translate(-23 -66)"/><path class="cls-5" d="M0,0Z" transform="translate(-23 -66)"/><path class="cls-6" d="M0,0Z" transform="translate(-23 -66)"/><path class="cls-4" d="M0,0Z" transform="translate(-23 -66)"/><path class="cls-7" d="M0,0Z" transform="translate(-23 -66)"/><path class="cls-8" d="M0,0Z" transform="translate(-23 -66)"/><path class="cls-9" d="M0,0Z" transform="translate(-23 -66)"/><path class="cls-4" d="M0,0Z" transform="translate(-23 -66)"/><path class="cls-10" d="M0,0Z" transform="translate(-23 -66)"/><path class="cls-4" d="M0,0Z" transform="translate(-23 -66)"/><path class="cls-4" d="M0,0Z" transform="translate(-23 -66)"/><path class="cls-11" d="M0,0Z" transform="translate(-23 -66)"/><path class="cls-12" d="M0,0Z" transform="translate(-23 -66)"/><path class="cls-12" d="M0,0Z" transform="translate(-23 -66)"/><ellipse class="cls-13" cx="447" cy="375" rx="39" ry="25" transform="translate(-91 34) rotate(-12)"/><ellipse class="cls-14" cx="451" cy="378" rx="29" ry="19" transform="translate(-91 35) rotate(-12)"/><ellipse class="cls-3" cx="455" cy="381" rx="21" ry="13" transform="translate(-92 36) rotate(-12)"/><ellipse class="cls-15" cx="452" cy="380" rx="11" ry="6" transform="translate(-92 35) rotate(-12)"/><path class="cls-16" d="M0,0Z" transform="translate(-23 -66)"/></svg>