<svg id="Capa_1" data-name="Capa 1" xmlns="http://www.w3.org/2000/svg" viewBox="0 0 624 624"><defs><style>.cls-1,.cls-4{fill:none;}.cls-2{fill:#f3deb7;}.cls-3{fill:#9a7366;}.cls-4{stroke:#fff;stroke-miterlimit:10;}.cls-5{fill:#dedfd3;}.cls-6{fill:#d1c8b4;}.cls-7{fill:#aaa394;}.cls-8{fill:#d8d0b9;}.cls-9{fill:#919ba5;}.cls-10{fill:#b9b2a1;}.cls-11{fill:#9b9990;}.cls-12{fill:#cbc8b6;}.cls-13{fill:#b9b2a0;}.cls-14{fill:#e2b182;}.cls-15{fill:#e7bf8b;}</style></defs><title>jupiter planeta</title><path class="cls-1" d="M0,0Z" transform="translate(-84 6)"/><path class="cls-2" d="M0,0Z" transform="translate(-84 6)"/><path class="cls-3" d="M0,0Z" transform="translate(-84 6)"/><path class="cls-4" d="M0,0Z" transform="translate(-84 6)"/><path class="cls-5" d="M0,0Z" transform="translate(-84 6)"/><path class="cls-6" d="M0,0Z" transform="translate(-84 6)"/><path class="cls-4" d="M0,0Z" transform="translate(-84 6)"/><path class="cls-7" d="M0,0Z" transform="translate(-84 6)"/><path class="cls-8" d="M0,0Z" transform="translate(-84 6)"/><path class="cls-9" d="M0,0Z" transform="translate(-84 6)"/><path class="cls-4" d="M0,0Z" transform="translate(-84 6)"/><path class="cls-10" d="M0,0Z" transform="translate(-84 6)"/><path class="cls-4" d="M0,0Z" transform="translate(-84 6)"/><path class="cls-4" d="M0,0Z" transform="translate(-84 6)"/><path class="cls-11" d="M0,0Z" transform="translate(-84 6)"/><path class="cls-12" d="M0,0Z" transform="translate(-84 6)"/><path class="cls-12" d="M0,0Z" transform="translate(-84 6)"/><ellipse class="cls-13" cx="354" cy="413" rx="51" ry="33"/><ellipse class="cls-14" cx="358" cy="419" rx="38" ry="24"/><ellipse class="cls-3" cx="363" cy="423" rx="27" ry="17"/><ellipse class="cls-15" cx="360" cy="421" rx="14" ry="8"/></svg>