<svg id="Capa_1" data-name="Capa 1" xmlns="http://www.w3.org/2000/svg" viewBox="0 0 677 677"><defs><style>.cls-1{fill:#d21e1b;}.cls-2{fill:#eb5a50;}.cls-3{fill:#b91a18;}.cls-4{fill:#e74134;}.cls-5{fill:#ee7563;}</style></defs><title>marte planeta</title><path class="cls-1" d="M0,0ZM0,0ZM0,0ZM0,0ZM0,0ZM0,0ZM0,0ZM0,0ZM0,0Z" transform="translate(-43 32)"/><path class="cls-2" d="M0,0ZM0,0ZM0,0ZM0,0Z" transform="translate(-43 32)"/><path class="cls-3" d="M0,0Z" transform="translate(-43 32)"/><path class="cls-4" d="M0,0Z" transform="translate(-43 32)"/><path class="cls-3" d="M0,0Z" transform="translate(-43 32)"/><path class="cls-5" d="M0,0Z" transform="translate(-43 32)"/><path class="cls-3" d="M0,0Z" transform="translate(-43 32)"/><path class="cls-2" d="M0,0Z" transform="translate(-43 32)"/><path class="cls-2" d="M0,0Z" transform="translate(-43 32)"/><path class="cls-5" d="M0,0Z" transform="translate(-43 32)"/><path class="cls-2" d="M0,0Z" transform="translate(-43 32)"/><path class="cls-2" d="M0,0Z" transform="translate(-43 32)"/><path class="cls-5" d="M0,0Z" transform="translate(-43 32)"/><path class="cls-5" d="M0,0Z" transform="translate(-43 32)"/><path class="cls-2" d="M0,0Z" transform="translate(-43 32)"/><path class="cls-3" d="M0,0Z" transform="translate(-43 32)"/><path class="cls-5" d="M0,0Z" transform="translate(-43 32)"/><path class="cls-2" d="M0,0Z" transform="translate(-43 32)"/><path class="cls-3" d="M0,0Z" transform="translate(-43 32)"/><path class="cls-2" d="M0,0Z" transform="translate(-43 32)"/><path class="cls-2" d="M0,0Z" transform="translate(-43 32)"/><path class="cls-5" d="M0,0Z" transform="translate(-43 32)"/><path class="cls-2" d="M0,0Z" transform="translate(-43 32)"/><path class="cls-2" d="M0,0Z" transform="translate(-43 32)"/><path class="cls-5" d="M0,0Z" transform="translate(-43 32)"/><path class="cls-5" d="M0,0Z" transform="translate(-43 32)"/><path class="cls-3" d="M0,0Z" transform="translate(-43 32)"/><path class="cls-2" d="M0,0Z" transform="translate(-43 32)"/><path class="cls-3" d="M0,0Z" transform="translate(-43 32)"/><path class="cls-3" d="M0,0Z" transform="translate(-43 32)"/><path class="cls-3" d="M0,0Z" transform="translate(-43 32)"/><path class="cls-3" d="M0,0Z" transform="translate(-43 32)"/><path class="cls-3" d="M0,0Z" transform="translate(-43 32)"/><path class="cls-4" d="M0,0Z" transform="translate(-43 32)"/><path class="cls-3" d="M0,0Z" transform="translate(-43 32)"/><path class="cls-3" d="M0,0Z" transform="translate(-43 32)"/><path class="cls-3" d="M0,0Z" transform="translate(-43 32)"/><path class="cls-3" d="M0,0Z" transform="translate(-43 32)"/><path class="cls-3" d="M0,0Z" transform="translate(-43 32)"/><path class="cls-3" d="M0,0Z" transform="translate(-43 32)"/><path class="cls-3" d="M0,0Z" transform="translate(-43 32)"/><path class="cls-3" d="M0,0Z" transform="translate(-43 32)"/><path class="cls-4" d="M0,0Z" transform="translate(-43 32)"/><path class="cls-1" d="M0,0ZM0,0ZM0,0Z" transform="translate(-43 32)"/><path class="cls-1" d="M0,0ZM0,0ZM0,0Z" transform="translate(-43 32)"/><path class="cls-1" d="M0,0Z" transform="translate(-43 32)"/><path class="cls-1" d="M0,0Z" transform="translate(-43 32)"/><path class="cls-1" d="M0,0Z" transform="translate(-43 32)"/><path class="cls-1" d="M0,0Z" transform="translate(-43 32)"/><path class="cls-3" d="M0,0Z" transform="translate(-43 32)"/><path class="cls-1" d="M0,0Z" transform="translate(-43 32)"/><path class="cls-3" d="M0,0Z" transform="translate(-43 32)"/><path class="cls-3" d="M0,0Z" transform="translate(-43 32)"/><path class="cls-3" d="M0,0Z" transform="translate(-43 32)"/><path class="cls-3" d="M0,0Z" transform="translate(-43 32)"/><path class="cls-3" d="M0,0Z" transform="translate(-43 32)"/><path class="cls-3" d="M0,0Z" transform="translate(-43 32)"/><path class="cls-3" d="M0,0Z" transform="translate(-43 32)"/><path class="cls-3" d="M0,0Z" transform="translate(-43 32)"/></svg>