<svg id="Capa_1" data-name="Capa 1" xmlns="http://www.w3.org/2000/svg" viewBox="0 0 1210 1219"><defs><style>.cls-1,.cls-12{fill:#5f2212;}.cls-2{fill:#dd3d45;}.cls-10,.cls-3{fill:#782b12;}.cls-15,.cls-4{fill:#ea6226;}.cls-5{fill:#86a34a;}.cls-6{fill:#fbb925;}.cls-14,.cls-7{fill:#f39426;}.cls-8{fill:#782f16;}.cls-11,.cls-9{fill:#747372;}.cls-9{stroke:#747372;}.cls-10,.cls-12,.cls-14,.cls-15,.cls-9{stroke-miterlimit:10;}.cls-10{stroke:#782b12;}.cls-12{stroke:#5f2212;}.cls-13{fill:#b28b7f;}.cls-14{stroke:#f39426;}.cls-15{stroke:#ea6226;}.cls-16{fill:#f5a780;}</style></defs><title>marte 2</title><path class="cls-1" d="M0,0ZM0,0ZM0,0ZM0,0Z" transform="translate(209 530)"/><path class="cls-2" d="M0,0ZM0,0ZM0,0ZM0,0ZM0,0Z" transform="translate(209 530)"/><path class="cls-3" d="M0,0ZM0,0Z" transform="translate(209 530)"/><path class="cls-4" d="M0,0ZM0,0Z" transform="translate(209 530)"/><path class="cls-5" d="M0,0Z" transform="translate(209 530)"/><path class="cls-6" d="M0,0Z" transform="translate(209 530)"/><path class="cls-7" d="M0,0ZM0,0Z" transform="translate(209 530)"/><path class="cls-5" d="M0,0Z" transform="translate(209 530)"/><path class="cls-6" d="M0,0Z" transform="translate(209 530)"/><path class="cls-8" d="M0,0Z" transform="translate(209 530)"/><path class="cls-8" d="M0,0Z" transform="translate(209 530)"/><path class="cls-1" d="M0,0Z" transform="translate(209 530)"/><path class="cls-6" d="M0,0Z" transform="translate(209 530)"/><path class="cls-3" d="M0,0Z" transform="translate(209 530)"/><path class="cls-8" d="M0,0Z" transform="translate(209 530)"/><path class="cls-8" d="M0,0Z" transform="translate(209 530)"/><path class="cls-9" d="M0,0Z" transform="translate(209 530)"/><path class="cls-8" d="M0,0ZM0,0Z" transform="translate(209 530)"/><path class="cls-10" d="M0,0Z" transform="translate(209 530)"/><path class="cls-11" d="M0,0Z" transform="translate(209 530)"/><path class="cls-1" d="M0,0Z" transform="translate(209 530)"/><path class="cls-11" d="M0,0Z" transform="translate(209 530)"/><path class="cls-3" d="M0,0Z" transform="translate(209 530)"/><path class="cls-3" d="M0,0ZM0,0Z" transform="translate(209 530)"/><path class="cls-3" d="M0,0Z" transform="translate(209 530)"/><path class="cls-12" d="M0,0Z" transform="translate(209 530)"/><path class="cls-12" d="M0,0ZM0,0Z" transform="translate(209 530)"/><path class="cls-12" d="M0,0ZM0,0Z" transform="translate(209 530)"/><path class="cls-12" d="M0,0ZM0,0Z" transform="translate(209 530)"/><path class="cls-3" d="M0,0Z" transform="translate(209 530)"/><path class="cls-3" d="M0,0Z" transform="translate(209 530)"/><path class="cls-3" d="M0,0Z" transform="translate(209 530)"/><path class="cls-3" d="M0,0Z" transform="translate(209 530)"/><path class="cls-3" d="M0,0Z" transform="translate(209 530)"/><path class="cls-3" d="M0,0Z" transform="translate(209 530)"/><path class="cls-3" d="M0,0Z" transform="translate(209 530)"/><path class="cls-3" d="M0,0Z" transform="translate(209 530)"/><path class="cls-3" d="M0,0Z" transform="translate(209 530)"/><path class="cls-3" d="M0,0Z" transform="translate(209 530)"/><path class="cls-3" d="M0,0Z" transform="translate(209 530)"/><path class="cls-3" d="M0,0Z" transform="translate(209 530)"/><path class="cls-6" d="M0,0Z" transform="translate(209 530)"/><path class="cls-2" d="M0,0Z" transform="translate(209 530)"/><path class="cls-2" d="M0,0Z" transform="translate(209 530)"/><path class="cls-2" d="M0,0Z" transform="translate(209 530)"/><path class="cls-2" d="M0,0ZM0,0Z" transform="translate(209 530)"/><path class="cls-13" d="M0,0Z" transform="translate(209 530)"/><path class="cls-10" d="M0,0ZM0,0Z" transform="translate(209 530)"/><path class="cls-14" d="M0,0Z" transform="translate(209 530)"/><path class="cls-14" d="M0,0ZM0,0Z" transform="translate(209 530)"/><path class="cls-14" d="M0,0Z" transform="translate(209 530)"/><path class="cls-15" d="M0,0ZM0,0ZM0,0Z" transform="translate(209 530)"/><path class="cls-4" d="M0,0Z" transform="translate(209 530)"/><path class="cls-7" d="M0,0Z" transform="translate(209 530)"/><path class="cls-13" d="M0,0Z" transform="translate(209 530)"/><path class="cls-14" d="M0,0Z" transform="translate(209 530)"/><path class="cls-14" d="M0,0Z" transform="translate(209 530)"/><path class="cls-16" d="M0,0Z" transform="translate(209 530)"/><path class="cls-3" d="M0,0Z" transform="translate(209 530)"/><path class="cls-10" d="M0,0ZM0,0Z" transform="translate(209 530)"/><path class="cls-1" d="M0,0Z" transform="translate(209 530)"/><path class="cls-1" d="M0,0Z" transform="translate(209 530)"/><path class="cls-1" d="M0,0Z" transform="translate(209 530)"/><path class="cls-2" d="M0,0Z" transform="translate(209 530)"/><path class="cls-8" d="M0,0Z" transform="translate(209 530)"/><path class="cls-7" d="M0,0Z" transform="translate(209 530)"/><path class="cls-4" d="M0,0Z" transform="translate(209 530)"/><path class="cls-4" d="M0,0Z" transform="translate(209 530)"/><path class="cls-7" d="M0,0Z" transform="translate(209 530)"/><path class="cls-10" d="M0,0Z" transform="translate(209 530)"/><path class="cls-4" d="M0,0Z" transform="translate(209 530)"/><path class="cls-4" d="M0,0Z" transform="translate(209 530)"/><path class="cls-6" d="M0,0Z" transform="translate(209 530)"/><path class="cls-3" d="M0,0Z" transform="translate(209 530)"/><polygon class="cls-3" points="592 860 616 894 595 897 584 874 592 860"/><path class="cls-5" d="M0,0Z" transform="translate(209 530)"/></svg>