<svg id="Capa_1" data-name="Capa 1" xmlns="http://www.w3.org/2000/svg" viewBox="0 0 575 576"><defs><style>.cls-1{fill:#3c81c3;}.cls-2{fill:#2864ae;}.cls-3{fill:#2f72b9;}.cls-4{fill:#6fb1e2;}.cls-5{fill:#19499a;}</style></defs><title>neptuno planeta</title><path class="cls-1" d="M0,0Z" transform="translate(-109 -18)"/><path class="cls-2" d="M0,0Z" transform="translate(-109 -18)"/><path class="cls-3" d="M0,0Z" transform="translate(-109 -18)"/><path class="cls-3" d="M0,0Z" transform="translate(-109 -18)"/><path class="cls-3" d="M0,0Z" transform="translate(-109 -18)"/><path class="cls-3" d="M0,0Z" transform="translate(-109 -18)"/><path class="cls-2" d="M0,0Z" transform="translate(-109 -18)"/><path class="cls-4" d="M0,0Z" transform="translate(-109 -18)"/><path class="cls-4" d="M0,0Z" transform="translate(-109 -18)"/><path class="cls-5" d="M0,0Z" transform="translate(-109 -18)"/><path class="cls-1" d="M0,0Z" transform="translate(-109 -18)"/><path class="cls-2" d="M0,0Z" transform="translate(-109 -18)"/><path class="cls-3" d="M0,0Z" transform="translate(-109 -18)"/><path class="cls-3" d="M0,0Z" transform="translate(-109 -18)"/><path class="cls-3" d="M0,0Z" transform="translate(-109 -18)"/><path class="cls-3" d="M0,0Z" transform="translate(-109 -18)"/><path class="cls-2" d="M0,0Z" transform="translate(-109 -18)"/><path class="cls-4" d="M0,0Z" transform="translate(-109 -18)"/><path class="cls-4" d="M0,0Z" transform="translate(-109 -18)"/><path class="cls-5" d="M0,0Z" transform="translate(-109 -18)"/></svg>