<svg id="Capa_1" data-name="Capa 1" xmlns="http://www.w3.org/2000/svg" viewBox="0 0 745 527"><defs><style>.cls-1{fill:#4a95d1;}.cls-2{fill:#384395;}.cls-3{fill:#3463ad;}.cls-4{fill:#009ca6;}.cls-5{fill:#6d7ca1;}.cls-6{fill:#909dbb;}.cls-7{fill:#6d7ba0;}.cls-8{fill:#252f58;}</style></defs><title>neptuno 4</title><path class="cls-1" d="M0,0ZM0,0ZM0,0Z" transform="translate(-21 -45)"/><path class="cls-2" d="M0,0Z" transform="translate(-21 -45)"/><path class="cls-3" d="M0,0Z" transform="translate(-21 -45)"/><path class="cls-2" d="M0,0ZM0,0Z" transform="translate(-21 -45)"/><path class="cls-4" d="M0,0Z" transform="translate(-21 -45)"/><path class="cls-3" d="M0,0Z" transform="translate(-21 -45)"/><path class="cls-1" d="M0,0Z" transform="translate(-21 -45)"/><path class="cls-2" d="M0,0Z" transform="translate(-21 -45)"/><path class="cls-1" d="M0,0Z" transform="translate(-21 -45)"/><path class="cls-3" d="M0,0Z" transform="translate(-21 -45)"/><path class="cls-1" d="M0,0Z" transform="translate(-21 -45)"/><path class="cls-1" d="M0,0Z" transform="translate(-21 -45)"/><path class="cls-1" d="M0,0Z" transform="translate(-21 -45)"/><path class="cls-1" d="M0,0Z" transform="translate(-21 -45)"/><path class="cls-3" d="M0,0Z" transform="translate(-21 -45)"/><path class="cls-2" d="M0,0Z" transform="translate(-21 -45)"/><path class="cls-1" d="M0,0Z" transform="translate(-21 -45)"/><path class="cls-1" d="M0,0Z" transform="translate(-21 -45)"/><path class="cls-2" d="M0,0Z" transform="translate(-21 -45)"/><path class="cls-3" d="M0,0Z" transform="translate(-21 -45)"/><path class="cls-3" d="M0,0Z" transform="translate(-21 -45)"/><path class="cls-2" d="M0,0Z" transform="translate(-21 -45)"/><path class="cls-5" d="M0,0Z" transform="translate(-21 -45)"/><path class="cls-3" d="M0,0Z" transform="translate(-21 -45)"/><path class="cls-2" d="M0,0Z" transform="translate(-21 -45)"/><path class="cls-2" d="M0,0Z" transform="translate(-21 -45)"/><path class="cls-6" d="M0,0Z" transform="translate(-21 -45)"/><path class="cls-6" d="M0,0Z" transform="translate(-21 -45)"/><path class="cls-6" d="M0,0Z" transform="translate(-21 -45)"/><path class="cls-6" d="M0,0Z" transform="translate(-21 -45)"/><path class="cls-6" d="M0,0Z" transform="translate(-21 -45)"/><path class="cls-3" d="M0,0Z" transform="translate(-21 -45)"/><path class="cls-1" d="M0,0Z" transform="translate(-21 -45)"/><path class="cls-1" d="M0,0Z" transform="translate(-21 -45)"/><path class="cls-7" d="M0,0Z" transform="translate(-21 -45)"/><path class="cls-7" d="M0,0Z" transform="translate(-21 -45)"/><path class="cls-7" d="M0,0Z" transform="translate(-21 -45)"/><path class="cls-7" d="M0,0Z" transform="translate(-21 -45)"/><path class="cls-5" d="M0,0Z" transform="translate(-21 -45)"/><path class="cls-6" d="M0,0Z" transform="translate(-21 -45)"/><path class="cls-5" d="M0,0Z" transform="translate(-21 -45)"/><path class="cls-5" d="M0,0Z" transform="translate(-21 -45)"/><path class="cls-1" d="M0,0Z" transform="translate(-21 -45)"/><path class="cls-2" d="M0,0Z" transform="translate(-21 -45)"/><path class="cls-1" d="M0,0Z" transform="translate(-21 -45)"/><path class="cls-3" d="M0,0Z" transform="translate(-21 -45)"/><path class="cls-1" d="M0,0Z" transform="translate(-21 -45)"/><path class="cls-1" d="M0,0Z" transform="translate(-21 -45)"/><path class="cls-1" d="M0,0Z" transform="translate(-21 -45)"/><path class="cls-1" d="M0,0Z" transform="translate(-21 -45)"/><path class="cls-2" d="M0,0Z" transform="translate(-21 -45)"/><path class="cls-3" d="M0,0Z" transform="translate(-21 -45)"/><path class="cls-3" d="M0,0Z" transform="translate(-21 -45)"/><path class="cls-7" d="M0,0Z" transform="translate(-21 -45)"/><path class="cls-3" d="M0,0Z" transform="translate(-21 -45)"/><path class="cls-3" d="M0,0Z" transform="translate(-21 -45)"/><path class="cls-5" d="M0,0Z" transform="translate(-21 -45)"/><path class="cls-7" d="M0,0Z" transform="translate(-21 -45)"/><path class="cls-5" d="M0,0Z" transform="translate(-21 -45)"/><path class="cls-8" d="M0,0Z" transform="translate(-21 -45)"/><path class="cls-5" d="M0,0Z" transform="translate(-21 -45)"/><path class="cls-5" d="M0,0Z" transform="translate(-21 -45)"/><path class="cls-5" d="M0,0Z" transform="translate(-21 -45)"/><path class="cls-5" d="M0,0Z" transform="translate(-21 -45)"/><path class="cls-5" d="M0,0Z" transform="translate(-21 -45)"/><path class="cls-8" d="M0,0Z" transform="translate(-21 -45)"/><path class="cls-8" d="M0,0Z" transform="translate(-21 -45)"/><path class="cls-1" d="M0,0Z" transform="translate(-21 -45)"/></svg>