<svg id="Capa_1" data-name="Capa 1" xmlns="http://www.w3.org/2000/svg" viewBox="0 0 707 455"><defs><style>.cls-1{fill:#919ebb;}.cls-2{fill:#f3b13f;}.cls-3{fill:#c0c5da;}.cls-4{fill:#f3c142;}.cls-5{fill:#ef8d3f;}.cls-6{fill:#f5d579;}.cls-7{fill:#f4d578;}.cls-8{fill:#909cb8;}.cls-9{fill:#f0bf42;}.cls-10{fill:#f3c041;}.cls-11{fill:#f0b03f;}.cls-12{fill:#eeac42;}.cls-13{fill:#f4c040;}.cls-14{fill:#ecc865;}.cls-15{fill:#1068b1;}.cls-16{fill:#3ea753;}</style></defs><title>saturno 1</title><path class="cls-1" d="M0,0ZM0,0ZM0,0ZM0,0ZM0,0Z" transform="translate(-27 -85)"/><path class="cls-2" d="M0,0ZM0,0Z" transform="translate(-27 -85)"/><path class="cls-3" d="M0,0Z" transform="translate(-27 -85)"/><path class="cls-4" d="M0,0Z" transform="translate(-27 -85)"/><path class="cls-5" d="M0,0Z" transform="translate(-27 -85)"/><path class="cls-4" d="M0,0ZM0,0ZM0,0Z" transform="translate(-27 -85)"/><path class="cls-6" d="M0,0Z" transform="translate(-27 -85)"/><path class="cls-7" d="M0,0Z" transform="translate(-27 -85)"/><path class="cls-8" d="M0,0Z" transform="translate(-27 -85)"/><path class="cls-6" d="M0,0Z" transform="translate(-27 -85)"/><path class="cls-7" d="M0,0Z" transform="translate(-27 -85)"/><path class="cls-7" d="M0,0Z" transform="translate(-27 -85)"/><path class="cls-4" d="M0,0Z" transform="translate(-27 -85)"/><path class="cls-9" d="M0,0ZM0,0Z" transform="translate(-27 -85)"/><path class="cls-2" d="M0,0Z" transform="translate(-27 -85)"/><path class="cls-10" d="M0,0Z" transform="translate(-27 -85)"/><path class="cls-4" d="M0,0Z" transform="translate(-27 -85)"/><path class="cls-7" d="M0,0Z" transform="translate(-27 -85)"/><path class="cls-7" d="M0,0Z" transform="translate(-27 -85)"/><path class="cls-5" d="M0,0Z" transform="translate(-27 -85)"/><path class="cls-5" d="M0,0Z" transform="translate(-27 -85)"/><path class="cls-11" d="M0,0Z" transform="translate(-27 -85)"/><path class="cls-12" d="M0,0Z" transform="translate(-27 -85)"/><path class="cls-5" d="M0,0Z" transform="translate(-27 -85)"/><path class="cls-3" d="M0,0Z" transform="translate(-27 -85)"/><path class="cls-5" d="M0,0Z" transform="translate(-27 -85)"/><path class="cls-10" d="M0,0Z" transform="translate(-27 -85)"/><path class="cls-11" d="M0,0Z" transform="translate(-27 -85)"/><path class="cls-12" d="M0,0Z" transform="translate(-27 -85)"/><path class="cls-3" d="M0,0Z" transform="translate(-27 -85)"/><path class="cls-3" d="M0,0Z" transform="translate(-27 -85)"/><path class="cls-3" d="M0,0Z" transform="translate(-27 -85)"/><path class="cls-5" d="M0,0Z" transform="translate(-27 -85)"/><path class="cls-3" d="M0,0Z" transform="translate(-27 -85)"/><path class="cls-13" d="M0,0Z" transform="translate(-27 -85)"/><path class="cls-3" d="M0,0Z" transform="translate(-27 -85)"/><path class="cls-5" d="M0,0Z" transform="translate(-27 -85)"/><path class="cls-3" d="M0,0Z" transform="translate(-27 -85)"/><path class="cls-2" d="M0,0Z" transform="translate(-27 -85)"/><path class="cls-2" d="M0,0Z" transform="translate(-27 -85)"/><path class="cls-3" d="M0,0Z" transform="translate(-27 -85)"/><polygon class="cls-3" points="512 380 513 380 512 379 512 380"/><path class="cls-13" d="M0,0Z" transform="translate(-27 -85)"/><path class="cls-5" d="M0,0Z" transform="translate(-27 -85)"/><path class="cls-4" d="M0,0Z" transform="translate(-27 -85)"/><path class="cls-4" d="M0,0Z" transform="translate(-27 -85)"/><polygon class="cls-10" points="326 238 325 237 326 238 326 238"/><polygon class="cls-10" points="326 238 327 238 326 238 326 238"/><path class="cls-14" d="M0,0Z" transform="translate(-27 -85)"/><path class="cls-14" d="M0,0Z" transform="translate(-27 -85)"/><polygon class="cls-14" points="325 88 324 89 325 89 325 88"/><path class="cls-5" d="M0,0Z" transform="translate(-27 -85)"/><path class="cls-5" d="M0,0Z" transform="translate(-27 -85)"/><path class="cls-12" d="M0,0Z" transform="translate(-27 -85)"/><path class="cls-7" d="M0,0Z" transform="translate(-27 -85)"/><path class="cls-15" d="M0,0ZM0,0ZM0,0Z" transform="translate(-27 -85)"/><path class="cls-16" d="M0,0Z" transform="translate(-27 -85)"/><path class="cls-16" d="M0,0Z" transform="translate(-27 -85)"/><path class="cls-16" d="M0,0Z" transform="translate(-27 -85)"/><path class="cls-16" d="M0,0Z" transform="translate(-27 -85)"/><path class="cls-15" d="M0,0ZM0,0ZM0,0Z" transform="translate(-27 -85)"/><path class="cls-16" d="M0,0Z" transform="translate(-27 -85)"/><path class="cls-16" d="M0,0Z" transform="translate(-27 -85)"/><path class="cls-16" d="M0,0Z" transform="translate(-27 -85)"/><path class="cls-16" d="M0,0Z" transform="translate(-27 -85)"/><path class="cls-15" d="M0,0ZM0,0ZM0,0Z" transform="translate(-27 -85)"/><path class="cls-16" d="M0,0Z" transform="translate(-27 -85)"/><path class="cls-16" d="M0,0Z" transform="translate(-27 -85)"/><path class="cls-16" d="M0,0Z" transform="translate(-27 -85)"/><path class="cls-16" d="M0,0Z" transform="translate(-27 -85)"/><path class="cls-15" d="M0,0ZM0,0ZM0,0Z" transform="translate(-27 -85)"/><path class="cls-16" d="M0,0Z" transform="translate(-27 -85)"/><path class="cls-16" d="M0,0Z" transform="translate(-27 -85)"/><path class="cls-16" d="M0,0Z" transform="translate(-27 -85)"/><path class="cls-16" d="M0,0Z" transform="translate(-27 -85)"/><path class="cls-15" d="M0,0ZM0,0ZM0,0Z" transform="translate(-27 -85)"/><path class="cls-16" d="M0,0Z" transform="translate(-27 -85)"/><path class="cls-16" d="M0,0Z" transform="translate(-27 -85)"/><path class="cls-16" d="M0,0Z" transform="translate(-27 -85)"/><path class="cls-16" d="M0,0Z" transform="translate(-27 -85)"/><path class="cls-15" d="M0,0ZM0,0ZM0,0Z" transform="translate(-27 -85)"/><path class="cls-16" d="M0,0Z" transform="translate(-27 -85)"/><path class="cls-16" d="M0,0Z" transform="translate(-27 -85)"/><path class="cls-16" d="M0,0Z" transform="translate(-27 -85)"/><path class="cls-16" d="M0,0Z" transform="translate(-27 -85)"/><path class="cls-15" d="M0,0ZM0,0ZM0,0Z" transform="translate(-27 -85)"/><path class="cls-16" d="M0,0Z" transform="translate(-27 -85)"/><path class="cls-16" d="M0,0Z" transform="translate(-27 -85)"/><path class="cls-16" d="M0,0Z" transform="translate(-27 -85)"/><path class="cls-16" d="M0,0Z" transform="translate(-27 -85)"/><path class="cls-15" d="M0,0ZM0,0ZM0,0Z" transform="translate(-27 -85)"/><path class="cls-16" d="M0,0Z" transform="translate(-27 -85)"/><path class="cls-16" d="M0,0Z" transform="translate(-27 -85)"/><path class="cls-16" d="M0,0Z" transform="translate(-27 -85)"/><path class="cls-16" d="M0,0Z" transform="translate(-27 -85)"/></svg>