<svg id="Capa_1" data-name="Capa 1" xmlns="http://www.w3.org/2000/svg" viewBox="0 0 792 607"><defs><style>.cls-1{fill:#919ebb;}.cls-2{fill:#f3b13f;}.cls-3{fill:#c0c5da;}.cls-4{fill:#f3c142;}.cls-5{fill:#ef8d3f;}.cls-6{fill:#f5d579;}.cls-7{fill:#f4d578;}.cls-8{fill:#909cb8;}.cls-9{fill:#f0bf42;}.cls-10{fill:#f3c041;}.cls-11{fill:#f0b03f;}.cls-12{fill:#eeac42;}.cls-13{fill:#f4c040;}.cls-14{fill:#ecc865;}.cls-15{fill:#fff;}.cls-16{fill:#8e664c;}.cls-17{fill:#3d74b9;}</style></defs><title>saturno 3</title><path class="cls-1" d="M0,0ZM0,0ZM0,0ZM0,0ZM0,0Z" transform="translate(0 -5)"/><path class="cls-2" d="M0,0ZM0,0Z" transform="translate(0 -5)"/><path class="cls-3" d="M0,0Z" transform="translate(0 -5)"/><path class="cls-4" d="M0,0Z" transform="translate(0 -5)"/><path class="cls-5" d="M0,0Z" transform="translate(0 -5)"/><path class="cls-4" d="M0,0ZM0,0ZM0,0Z" transform="translate(0 -5)"/><path class="cls-6" d="M0,0Z" transform="translate(0 -5)"/><path class="cls-7" d="M0,0Z" transform="translate(0 -5)"/><path class="cls-8" d="M0,0Z" transform="translate(0 -5)"/><path class="cls-6" d="M0,0Z" transform="translate(0 -5)"/><path class="cls-7" d="M0,0Z" transform="translate(0 -5)"/><path class="cls-7" d="M0,0Z" transform="translate(0 -5)"/><path class="cls-4" d="M0,0Z" transform="translate(0 -5)"/><path class="cls-9" d="M0,0ZM0,0Z" transform="translate(0 -5)"/><path class="cls-2" d="M0,0Z" transform="translate(0 -5)"/><path class="cls-10" d="M0,0Z" transform="translate(0 -5)"/><path class="cls-4" d="M0,0Z" transform="translate(0 -5)"/><path class="cls-7" d="M0,0Z" transform="translate(0 -5)"/><path class="cls-7" d="M0,0Z" transform="translate(0 -5)"/><path class="cls-5" d="M0,0Z" transform="translate(0 -5)"/><path class="cls-5" d="M0,0Z" transform="translate(0 -5)"/><path class="cls-11" d="M0,0Z" transform="translate(0 -5)"/><path class="cls-12" d="M0,0Z" transform="translate(0 -5)"/><path class="cls-5" d="M0,0Z" transform="translate(0 -5)"/><path class="cls-3" d="M0,0Z" transform="translate(0 -5)"/><path class="cls-5" d="M0,0Z" transform="translate(0 -5)"/><path class="cls-10" d="M0,0Z" transform="translate(0 -5)"/><path class="cls-11" d="M0,0Z" transform="translate(0 -5)"/><path class="cls-12" d="M0,0Z" transform="translate(0 -5)"/><path class="cls-3" d="M0,0Z" transform="translate(0 -5)"/><path class="cls-3" d="M0,0Z" transform="translate(0 -5)"/><path class="cls-3" d="M0,0Z" transform="translate(0 -5)"/><path class="cls-5" d="M0,0Z" transform="translate(0 -5)"/><path class="cls-3" d="M0,0Z" transform="translate(0 -5)"/><path class="cls-13" d="M0,0Z" transform="translate(0 -5)"/><path class="cls-3" d="M0,0Z" transform="translate(0 -5)"/><path class="cls-5" d="M0,0Z" transform="translate(0 -5)"/><path class="cls-3" d="M0,0Z" transform="translate(0 -5)"/><path class="cls-2" d="M0,0Z" transform="translate(0 -5)"/><path class="cls-2" d="M0,0Z" transform="translate(0 -5)"/><path class="cls-3" d="M0,0Z" transform="translate(0 -5)"/><polygon class="cls-3" points="492 473 493 473 492 473 492 473"/><path class="cls-13" d="M0,0Z" transform="translate(0 -5)"/><path class="cls-5" d="M0,0Z" transform="translate(0 -5)"/><path class="cls-4" d="M0,0Z" transform="translate(0 -5)"/><path class="cls-4" d="M0,0Z" transform="translate(0 -5)"/><polygon class="cls-10" points="358 292 357 291 357 292 358 292"/><polygon class="cls-10" points="357 292 358 292 358 292 357 292"/><path class="cls-14" d="M0,0Z" transform="translate(0 -5)"/><path class="cls-14" d="M0,0Z" transform="translate(0 -5)"/><polygon class="cls-14" points="396 152 395 153 396 153 396 152"/><path class="cls-5" d="M0,0Z" transform="translate(0 -5)"/><path class="cls-5" d="M0,0Z" transform="translate(0 -5)"/><path class="cls-12" d="M0,0Z" transform="translate(0 -5)"/><path class="cls-7" d="M0,0Z" transform="translate(0 -5)"/><path class="cls-15" d="M0,0Z" transform="translate(0 -5)"/><path class="cls-15" d="M0,0Z" transform="translate(0 -5)"/><path class="cls-15" d="M0,0Z" transform="translate(0 -5)"/><path class="cls-15" d="M0,0Z" transform="translate(0 -5)"/><path class="cls-15" d="M0,0Z" transform="translate(0 -5)"/><path class="cls-15" d="M0,0Z" transform="translate(0 -5)"/><path class="cls-15" d="M0,0Z" transform="translate(0 -5)"/><path class="cls-15" d="M0,0Z" transform="translate(0 -5)"/><path class="cls-15" d="M0,0Z" transform="translate(0 -5)"/><path class="cls-15" d="M0,0Z" transform="translate(0 -5)"/><path class="cls-15" d="M0,0Z" transform="translate(0 -5)"/><path class="cls-16" d="M0,0Z" transform="translate(0 -5)"/><polygon class="cls-16" points="189 59 189 59 189 59 189 59"/><path class="cls-16" d="M0,0Z" transform="translate(0 -5)"/><path class="cls-16" d="M0,0Z" transform="translate(0 -5)"/><path class="cls-17" d="M0,0Z" transform="translate(0 -5)"/><path class="cls-17" d="M0,0Z" transform="translate(0 -5)"/><path class="cls-17" d="M0,0Z" transform="translate(0 -5)"/><path class="cls-17" d="M0,0Z" transform="translate(0 -5)"/><path class="cls-17" d="M0,0Z" transform="translate(0 -5)"/><path class="cls-17" d="M0,0Z" transform="translate(0 -5)"/><path class="cls-17" d="M0,0Z" transform="translate(0 -5)"/><path class="cls-17" d="M0,0Z" transform="translate(0 -5)"/><path class="cls-17" d="M0,0Z" transform="translate(0 -5)"/><path class="cls-17" d="M0,0V612H792V0Z" transform="translate(0 -5)"/></svg>