<svg id="Capa_1" data-name="Capa 1" xmlns="http://www.w3.org/2000/svg" viewBox="0 0 613 611"><defs><style>.cls-1{fill:#fff;}.cls-1,.cls-4{stroke:#9f9f9f;}.cls-1,.cls-3,.cls-4{stroke-miterlimit:10;stroke-width:0.5px;}.cls-2{fill:#99d5eb;}.cls-3{fill:#f7b52b;stroke:#d79f26;}.cls-4{fill:none;}</style></defs><title>urano 1</title><path class="cls-1" d="M0,0Z" transform="translate(-125 0)"/><path class="cls-2" d="M0,0Z" transform="translate(-125 0)"/><path class="cls-2" d="M0,0Z" transform="translate(-125 0)"/><path class="cls-3" d="M0,0Z" transform="translate(-125 0)"/><path class="cls-3" d="M0,0Z" transform="translate(-125 0)"/><path class="cls-1" d="M0,0Z" transform="translate(-125 0)"/><path class="cls-3" d="M0,0Z" transform="translate(-125 0)"/><polygon class="cls-3" points="268 239 268 251 253 251 253 277 283 301 304 301 334 279 334 251 321 251 321 219 268 239"/><line class="cls-3" x1="253" y1="277" x2="334" y2="279"/><line class="cls-4" x1="119" y1="111" x2="129" y2="146"/><path class="cls-3" d="M0,0ZM0,0Z" transform="translate(-125 0)"/></svg>