<svg id="Capa_1" data-name="Capa 1" xmlns="http://www.w3.org/2000/svg" viewBox="0 0 1622 909"><defs><style>.cls-1{fill:#acc6c1;}.cls-2{fill:#79b2ab;}.cls-3{fill:#61b5ae;}.cls-4{fill:#37b5ae;}.cls-5{fill:#36a6a0;}.cls-6{fill:#36958f;}.cls-7{fill:#156c6f;}.cls-8{fill:#24888b;}.cls-9{fill:#9ccfc7;}.cls-10{fill:#ceded8;}</style></defs><title>urano planeta</title><path class="cls-1" d="M0,0ZM0,0Z" transform="translate(393 111)"/><path class="cls-2" d="M0,0ZM0,0Z" transform="translate(393 111)"/><path class="cls-1" d="M0,0Z" transform="translate(393 111)"/><path class="cls-3" d="M0,0Z" transform="translate(393 111)"/><path class="cls-4" d="M0,0Z" transform="translate(393 111)"/><path class="cls-5" d="M0,0Z" transform="translate(393 111)"/><path class="cls-6" d="M0,0Z" transform="translate(393 111)"/><path class="cls-6" d="M0,0Z" transform="translate(393 111)"/><path class="cls-4" d="M0,0Z" transform="translate(393 111)"/><path class="cls-7" d="M0,0Z" transform="translate(393 111)"/><path class="cls-8" d="M0,0Z" transform="translate(393 111)"/><path class="cls-4" d="M0,0Z" transform="translate(393 111)"/><path class="cls-9" d="M0,0Z" transform="translate(393 111)"/><path class="cls-6" d="M0,0Z" transform="translate(393 111)"/><path class="cls-4" d="M0,0Z" transform="translate(393 111)"/><path class="cls-4" d="M0,0Z" transform="translate(393 111)"/><path class="cls-6" d="M0,0Z" transform="translate(393 111)"/><path class="cls-6" d="M0,0Z" transform="translate(393 111)"/><path class="cls-4" d="M0,0Z" transform="translate(393 111)"/><path class="cls-4" d="M0,0Z" transform="translate(393 111)"/><path class="cls-10" d="M0,0Z" transform="translate(393 111)"/><path class="cls-9" d="M0,0Z" transform="translate(393 111)"/><path class="cls-9" d="M0,0Z" transform="translate(393 111)"/><path class="cls-1" d="M0,0Z" transform="translate(393 111)"/><path class="cls-10" d="M0,0Z" transform="translate(393 111)"/><path class="cls-5" d="M0,0Z" transform="translate(393 111)"/><path class="cls-6" d="M0,0Z" transform="translate(393 111)"/><path class="cls-1" d="M0,0Z" transform="translate(393 111)"/><path class="cls-4" d="M0,0Z" transform="translate(393 111)"/><path class="cls-1" d="M0,0Z" transform="translate(393 111)"/><path class="cls-4" d="M0,0Z" transform="translate(393 111)"/><path class="cls-5" d="M0,0Z" transform="translate(393 111)"/><path class="cls-3" d="M0,0Z" transform="translate(393 111)"/><path class="cls-8" d="M0,0Z" transform="translate(393 111)"/><path class="cls-5" d="M0,0Z" transform="translate(393 111)"/><path class="cls-2" d="M0,0Z" transform="translate(393 111)"/><path class="cls-6" d="M0,0Z" transform="translate(393 111)"/></svg>