<svg id="Capa_1" data-name="Capa 1" xmlns="http://www.w3.org/2000/svg" viewBox="0 0 825 772"><defs><style>.cls-1{fill:#5080c1;}.cls-2{fill:#7fb7e4;}.cls-3{fill:#cee9f2;}.cls-4{fill:none;stroke:#5080c1;stroke-linecap:round;stroke-linejoin:round;stroke-width:19px;}</style></defs><title>urano 3</title><path class="cls-1" d="M0,0ZM0,0ZM0,0ZM0,0ZM0,0ZM0,0ZM0,0ZM0,0ZM0,0Z" transform="translate(16 80)"/><path class="cls-2" d="M0,0Z" transform="translate(16 80)"/><path class="cls-3" d="M0,0Z" transform="translate(16 80)"/><path class="cls-3" d="M0,0Z" transform="translate(16 80)"/><path class="cls-3" d="M0,0Z" transform="translate(16 80)"/><path class="cls-2" d="M0,0Z" transform="translate(16 80)"/><path class="cls-2" d="M0,0Z" transform="translate(16 80)"/><path class="cls-3" d="M0,0Z" transform="translate(16 80)"/><path class="cls-3" d="M0,0ZM0,0Z" transform="translate(16 80)"/><line class="cls-4" x1="424" y1="100" x2="424" y2="10"/><line class="cls-4" x1="676" y1="119" x2="750" y2="46"/><line class="cls-4" x1="183" y1="119" x2="143" y2="46"/><line class="cls-4" x1="723" y1="340" x2="815" y2="340"/><line class="cls-4" x1="105" y1="340" x2="10" y2="340"/><line class="cls-4" x1="298" y1="546" x2="220" y2="595"/><line class="cls-4" x1="553" y1="546" x2="624" y2="595"/><line class="cls-4" x1="423" y1="676" x2="425" y2="762"/><polygon class="cls-1" points="298 571 303 600 317 593 309 607 329 612 309 617 317 631 302 623 297 653 293 623 279 631 286 617 266 612 286 607 279 593 293 600 298 571"/><polygon class="cls-1" points="656 434 661 464 675 456 667 470 687 475 667 480 675 494 660 487 655 516 651 487 637 494 644 480 624 475 644 470 637 456 651 463 656 434"/></svg>