<svg id="Capa_1" data-name="Capa 1" xmlns="http://www.w3.org/2000/svg" viewBox="0 0 478 478"><defs><style>.cls-1{fill:#5798f6;}.cls-2{fill:#fff;}</style></defs><title>BOCINA OFF AZUL</title><circle class="cls-1" cx="239" cy="239" r="239"/><path class="cls-2" d="M273.57,256q0-56.76,0-113.52c0-6.64-1.71-12-8.31-14.87-6.41-2.75-11.15.08-15.81,4.25-27.07,24.26-54.29,48.37-81.33,72.67-3.29,3-6.54,4.5-11.06,4.37-10.24-.28-20.51-.26-30.75,0-13.75.32-21.3,7.93-21.4,21.51q-.2,25.63,0,51.27c.11,13.68,7.57,21.17,21.4,21.47,10,.21,20,.25,30,0a15.69,15.69,0,0,1,11.79,4.46c26.67,24,53.53,47.76,80.25,71.69,4.94,4.42,9.82,8.25,16.93,5.18,7.31-3.15,8.29-9.31,8.26-16.35C273.5,330.68,273.56,293.33,273.57,256Zm-33.74-37.29q-32.16,11.88-64.25,23.91l-.78-1.34q32.12-26.44,64.2-52.9c3-2.47,4.18-1.81,4.16,2q-.06,11.7,0,23.41C243.18,216.21,242.31,217.78,239.83,218.69Z" transform="translate(-17 -17)"/><path class="cls-2" d="M403.6,221.43c-5-19.7-12.55-37.9-23.84-54.65-7.11-10.54-7.17-10.5-17.26-3.42-3.4,2.38-6.71,4.9-10.21,7.11s-3.89,4-1.16,7.41a121.4,121.4,0,0,1,21.17,40.63h0c7.79,24.52,7.65,49.06.07,73.6h0c-3,9.62-6.58,19-12.16,27.5-3.13,4.8-6.08,9.73-9.49,14.33-1.66,2.24-2.3,4-.57,6.34l-1-.74a5.38,5.38,0,0,0,1,.74c3.16,2.26,6.34,4.5,9.49,6.79,11.37,8.27,11.36,8.28,20.09-2.27,11.08-17.24,19.58-35.56,24.14-55.67.9-4-.57-8.28,2-11.89C407.5,258.54,408.3,240.08,403.6,221.43Z" transform="translate(-17 -17)"/><path class="cls-2" d="M352.15,253.12a95.7,95.7,0,0,0-3.41-24.24,103.17,103.17,0,0,0-18-36.38c-2.62-3.47-4.74-4-8.27-1.2a115.37,115.37,0,0,1-14.34,10c-4.95,2.87-5.14,5.37-1.14,9.27,2.21,2.16,3.61,5.15,5.38,7.77A68,68,0,0,1,322.09,248h0a31.2,31.2,0,0,1,0,11.56c-.3,17.61-7.32,32.4-19,45.22h0c-2.68,2.58.38,3.46,1.45,4.93,6,1.83,10.1,6.54,15.25,9.65,2.26,1.36,4.09,3.54,7,3.56A103.82,103.82,0,0,0,348.7,283.1a12.12,12.12,0,0,1,.29-1.33A115.28,115.28,0,0,0,352.15,253.12Z" transform="translate(-17 -17)"/><rect class="cls-2" x="241.25" y="-49.82" width="29.5" height="611.65" rx="14.64" transform="translate(239 -123.04) rotate(45)"/></svg>