<svg id="Capa_1" data-name="Capa 1" xmlns="http://www.w3.org/2000/svg" viewBox="0 0 1061.75 1109.39"><defs><style>.cls-1{fill:#fff;}.cls-2{fill:#3f1f36;}.cls-3{fill:#cc5357;}.cls-4{fill:#e4afa0;}.cls-5{fill:#b83232;}.cls-6{fill:#040508;}.cls-7{fill:#dd9993;}.cls-8{fill:#6f4465;}.cls-9{fill:#d88588;}.cls-10{fill:#6f4566;}.cls-11{fill:#d88487;}.cls-12{fill:#402136;}</style></defs><title>11</title><polygon class="cls-1" points="408.61 811.01 327.9 824.42 278.76 964.07 689.07 1036.07 761.16 841.51 639.27 798.24 408.61 811.01"/><path class="cls-2" d="M340.49,511.86l4.14,42.44q4.92,31.91,9.85,63.81h0q5,24.14,10,48.26c11.66,56,32.23,107.16,77.67,145,36.07,27.28,76.56,37.89,121.73,35.77,22.08-1,44.12-.06,65.8-5.6,13.39-3.43,25.89-9,38.5-14.47,12.11-7.8,24.2-15.57,34.69-25.6,33.41-31.94,51.86-72,62.63-116,6-24.64,10.83-49.57,16.18-74.37,2.91-21.8,5.86-43.6,8.72-65.41,1.22-9.27,2.26-18.56,3.38-27.84-.78-8.17,1.24-16.11,2-24.16-1.74-15.46,3.42-29.79,7.29-44.34,3.53-13.22,6.86-26.49,10.27-39.73h0c2.63-11.4,5.5-22.74,7.86-34.19C829.92,333,839.32,290.72,838.07,247c-.81-28.24-13.49-49.24-37.59-63.64-19.43-11.61-40.8-17-63-19.12-6.43-.6-9.1-2.75-10.52-9.19-3.62-16.43-8.87-32.44-19.36-46-25.34-32.72-61.56-40.72-100-43.58-2.64,3-6.2,1.86-9.38,1.88q-25,.16-49.92,0c-3.18,0-6.75,1.14-9.33-2-50.09,2.61-98.53,12-143,36.42-41.91,23-71.1,56-77.33,105.21-3.06,24.13,0,48.32,2,72.4,3.94,47.85,8.26,95.66,12.41,143.49a478.45,478.45,0,0,1,5.51,53.82Q339.51,494.29,340.49,511.86ZM598.4,700.79a68.33,68.33,0,0,1-30.12,4.93c-6.19.67-12.8-.58-19.25-2.44-4.19-1.2-7.6-4.39-6.54-8.83,1.2-5,5.42-4.48,9.85-3.46,13.9,3.19,27.8,4.8,41.25-2.24,3.54-1.85,7.58-2.06,9.49,2.28C605.08,695.61,602.4,699.19,598.4,700.79Zm39.09-57.74c-21.83,20.45-48.5,27.52-77.42,28.56-18.5.1-35.88-4.78-52.92-11.23a25.58,25.58,0,0,1-4.46-2.33c-3.52-2.19-5.51-5.34-3.59-9.33,2.22-4.6,6-3.26,9.53-1.57a121.58,121.58,0,0,0,47.45,12.07c27.7,1.33,52.14-7.46,73.38-25.23,3.83-3.2,7.66-8.06,12.53-1.92C646.59,637.87,640.81,640,637.49,643.05Zm-273-221c13.68-32.72,21.73-66.91,26.6-103.55,12.61,7.74,25.15,13.61,39,16.07,37.44,6.66,71.8-3.34,103.29-22.09,44.18-26.28,91.56-36.8,142.42-36.93,28.08-.07,46.52,12.35,58.87,36.28,11,21.39,16.53,44.6,22.29,67.72,1.3,5.2,1.7,10.76,3.81,15.6,13.78,31.61,7.19,63-.66,94.37C757,501.82,755,514.46,749.21,526h0a168.2,168.2,0,0,1-20.33,50.53c-7,15.26-17.23,27.94-31.2,37.39-2.51,1.7-4.95,4.81-8.78,1.48-24.19-21-52.59-19.27-81.17-13.94-11.43,2.13-22.61,6.21-33.49,10.45-6.16,2.4-11.17,2.13-17.17-.22-26.21-10.23-53-17.11-81.53-11.63-10.78,2.07-20.7,6.1-28.49,13.94-3.54,3.56-6,2.77-9.48.46-14.38-9.58-24.51-22.68-32-38.06h0c-9.42-15-15.37-31.41-20.08-48.35-11.17-32.17-16.84-65.57-21.92-99.09A13.39,13.39,0,0,1,364.44,422.07Z" transform="translate(-26.58 -64.04)"/><path class="cls-3" d="M1076.59,1173.32c1.68,0,3.38-.15,5,0,5.16.51,7.3-1.21,6.57-6.84-4.64-35.51-12.06-70.25-28-102.68-12.28-25.07-30.33-42.94-57-54-36.31-15-71.32-33.22-106.71-50.41-35.07-17-69.93-34.52-104.88-51.8h0c-11.88,31.87-26,62.67-46.21,90.2-34.49,46.93-79.77,76.26-137.88,86.16-52.82,9-102.72,0-150.9-21.06-19-8.31-36.2-20.58-51.9-34.17-31.2-27-57.19-58.52-76.05-95.43-4.21-8.24-11.11-15.32-11.9-25.19h0c-1.53.66-3.1,1.23-4.58,2C245,944.93,178.32,980.73,109,1011.12c-24.68,10.82-41.44,27.68-53.3,50.94-15.83,31-23.31,64.44-27.9,98.54-2.06,15.32-3.23,12.65,11.67,12.65Q558,1173.38,1076.59,1173.32Z" transform="translate(-26.58 -64.04)"/><path class="cls-3" d="M442.74,1046.52c25.37,15,52.59,25.48,81.79,29.79,58.31,8.61,114.05,2.31,163.68-32.39,36.69-25.67,62.14-60.79,80.52-101.23,4.57-10.05,8.48-20.42,12.33-30.78,1.29-3.47,2.63-6.14,6.69-6.36h0c-14.91-7.73-30.08-15-44.61-23.36-8-4.59-9.82-2.72-12.22,5.6-23.33,81-86.61,132.45-165.21,135.22-65.29,2.3-117.94-22-157.21-74.48-14.21-19-24.93-39.94-33.17-62.11-2.32-6.25-4.49-7.23-10.45-3.79-13.95,8.06-28.37,15.31-42.6,22.89,11.1,20.22,21.76,40.7,35.14,59.57C380.58,997.76,408,1026,442.74,1046.52Z" transform="translate(-26.58 -64.04)"/><path class="cls-4" d="M657.13,835.29c-23.62,9.13-47.79,15.67-73.42,15-27.39-.75-55,2.17-81.9-6.09-17.4-5.34-34.21-11.79-49.42-22-4.26-2.86-8-6-10.22-10.76a259.17,259.17,0,0,1-15.74,56.09c-3.55,8.93-2.92,15.75,3.25,23.09,15.21,18.09,34.66,29.53,56.51,37.4,29,10.45,59.24,11.66,89.59,10.18,33.89-1.65,63.63-13.32,86.43-39.42,9.91-11.36,17.83-23.38,12.42-40.12-3.27-10.14-4.36-21-6.43-31.52h0C665.86,831.66,661.5,833.6,657.13,835.29Z" transform="translate(-26.58 -64.04)"/><path class="cls-4" d="M563.9,847.18c-45.17,2.12-85.66-8.49-121.73-35.77,2.22,4.71,6,7.9,10.22,10.76,15.21,10.21,32,16.66,49.42,22,26.89,8.26,54.51,5.34,81.9,6.09,25.63.7,49.8-5.84,73.42-15,4.37-1.69,8.73-3.63,11.07-8.18h0c-12.61,5.43-25.11,11-38.5,14.47C608,847.12,586,846.14,563.9,847.18Z" transform="translate(-26.58 -64.04)"/><path class="cls-4" d="M323.75,599.57c9.36,7.87,21.67,10.42,30.74,18.55h0c-7.23-14.13-7.16-29.9-10-45a188.5,188.5,0,0,1-2.45-19c0-2.92-.22-5.82-.5-8.71-1.93-5.51-3.83-11-5.24-16.67-3.6-14.47-14-18.26-27.05-19-4.2-.23-11.69,2.45-11.44-4.07.27-7.12,7-6.21,12.59-4.42,2.81.89,6.87,1.77,8.63-.54,2.63-3.43-1.62-6.15-3.37-8.42-7-9-14.15-17.9-22.9-25.3-2.58-2.18-6.22-4.09-2.54-7.87,3.27-3.36,6-.82,8.6,1.56,14.36,13.24,27.26,27.7,36.91,44.83.6,1.08,1.12,2.22,1.76,3.27-2.28-21.95-1.61-44.11-4.84-66-1-6.57-2.57-13.31.37-19.88-2.12-.91-4.21-1.89-6.37-2.73-11.73-4.53-23.63-7.89-36.13-3.26-24.22,9-36.94,28.9-33.88,57.55C262.05,525,284.69,566.73,323.75,599.57Z" transform="translate(-26.58 -64.04)"/><path class="cls-4" d="M341.56,545.39c.28,2.89.49,5.79.5,8.71a188.5,188.5,0,0,0,2.45,19c2.81,15.1,2.74,30.87,10,45q-4.92-31.89-9.85-63.81C343.65,551.32,342.6,548.35,341.56,545.39Z" transform="translate(-26.58 -64.04)"/><path class="cls-4" d="M332.67,442.79c3.23,21.9,2.56,44.06,4.84,66a7.81,7.81,0,0,0,3,3.06q-1-17.57-1.94-35.13A478.45,478.45,0,0,0,333,422.91C330.1,429.48,331.7,436.22,332.67,442.79Z" transform="translate(-26.58 -64.04)"/><path class="cls-4" d="M802.57,462.4c-2.41,9.32-4.21,18.56-4.1,28.1,5.55-6.55,11-13.16,16.86-19.44,3.61-3.88,8.07-7,12.15-10.41,2-1.68,4-4.32,6.77-1.5s1.31,5.48-1,7.85c-8.6,8.9-18,17-25.17,27.26-1.28,1.84-4.35,3.13-3.27,5.68,1.33,3.15,4.71,1.55,7.2,1.74,3,.22,6-.07,9.05.07,2.52.12,6.06-.69,6.22,3.2s-3,5-6.28,4.82c-8.93-.45-17.21,1.16-24.52,6.08,0,.79,0,1.58.11,2.38-2.76,27.35-6,54.64-10.47,81.77a25.13,25.13,0,0,1-4.44,11.09c3.28-1.63,6.68-3,9.82-4.91,25.35-15.09,42.16-38,56-63.14,13.54-24.65,21.93-51,20.86-79.68-1.05-28.08-19.64-47.18-47.41-48.39-4-.17-7.48-.15-7.61-5.38v0C813.81,428,807.07,445,802.57,462.4Z" transform="translate(-26.58 -64.04)"/><path class="cls-4" d="M795.77,493.68c.91-1.05,1.8-2.12,2.7-3.18-.11-9.54,1.69-18.78,4.1-28.1,4.5-17.38,11.24-34.38,10.76-52.79-3.41,13.24-6.74,26.51-10.27,39.73C799.19,463.89,794,478.22,795.77,493.68Z" transform="translate(-26.58 -64.04)"/><path class="cls-4" d="M796.61,518.23c-.08-.8-.09-1.59-.11-2.38-.91.62-1.82,1.26-2.7,2-1.12,9.28-2.16,18.57-3.38,27.84-2.86,21.81-5.81,43.61-8.72,65.41A25.13,25.13,0,0,0,786.14,600C790.61,572.87,793.85,545.58,796.61,518.23Z" transform="translate(-26.58 -64.04)"/><path class="cls-5" d="M447,1054.43c27.06,15.59,56.93,23.85,87.92,28.08,36.67,5,72.35,1.22,107.47-10.25,36.34-11.87,65.36-33.87,90-62.51,23.62-27.45,38.92-59.56,52.78-92.53,1.52-3.62,1.9-8,6.49-9.61l-3.88-2.06h0C777,928.31,769,952.25,755.66,973.87c-34.46,56-81.42,95.25-147.73,105.17-92.88,13.89-170.72-15.15-232.57-86.58-19.77-22.83-35.17-48.26-49.47-74.56-2.09-3.84-4.13-7.76-3.61-12.38l-5.49,2.6h0c11,14.94,18.41,32,28.27,47.61C371.09,997,404.89,1030.18,447,1054.43Z" transform="translate(-26.58 -64.04)"/><path class="cls-5" d="M404.74,1028.74c15.7,13.59,32.86,25.86,51.9,34.17,48.18,21,98.08,30.07,150.9,21.06,58.11-9.9,103.39-39.23,137.88-86.16,20.23-27.53,34.33-58.33,46.21-90.2h0c-4.59,1.57-5,6-6.49,9.61-13.86,33-29.16,65.08-52.78,92.53-24.64,28.64-53.66,50.64-90,62.51-35.12,11.47-70.8,15.25-107.47,10.25-31-4.23-60.86-12.49-87.92-28.08-42.08-24.25-75.88-57.48-101.91-98.7-9.86-15.63-17.3-32.67-28.27-47.61.79,9.87,7.69,17,11.9,25.19C347.55,970.22,373.54,1001.72,404.74,1028.74Z" transform="translate(-26.58 -64.04)"/><path class="cls-5" d="M325.89,917.9c14.3,26.3,29.7,51.73,49.47,74.56,61.85,71.43,139.69,100.47,232.57,86.58,66.31-9.92,113.27-49.17,147.73-105.17,13.3-21.62,21.38-45.56,32.09-68.32-4.06.22-5.4,2.89-6.69,6.36-3.85,10.36-7.76,20.73-12.33,30.78-18.38,40.44-43.83,75.56-80.52,101.23-49.63,34.7-105.37,41-163.68,32.39-29.2-4.31-56.42-14.84-81.79-29.79C408,1026,380.58,997.76,357.42,965.09c-13.38-18.87-24-39.35-35.14-59.57C321.76,910.14,323.8,914.06,325.89,917.9Z" transform="translate(-26.58 -64.04)"/><path class="cls-6" d="M568.73,65.24c13-.81,25.9,3,38.86.23C584.71,63.22,561.84,64,539,65.39,548.89,68.19,558.85,65.85,568.73,65.24Z" transform="translate(-26.58 -64.04)"/><path class="cls-6" d="M548.29,67.36q25,.15,49.92,0c3.18,0,6.74,1.14,9.38-1.88-13,2.73-25.87-1-38.86-.23-9.88.61-19.84,3-29.77.15C541.54,68.5,545.11,67.34,548.29,67.36Z" transform="translate(-26.58 -64.04)"/><path class="cls-4" d="M385.53,528c28.46-10.57,57-10.61,85.34.05,8.6,3.23,17.19,8.24,17.3,18.81s-7.58,15.63-16.67,19c-18.44,6.85-37.09,11.26-56.94,6.9-3.2-.7-7.73-1.94-8.95,3.59,7.45,15.38,17.58,28.48,32,38.06,3.46,2.31,5.94,3.1,9.48-.46,7.79-7.84,17.71-11.87,28.49-13.94,28.52-5.48,55.32,1.4,81.53,11.63,6,2.35,11,2.62,17.17.22,10.88-4.24,22.06-8.32,33.49-10.45,28.58-5.33,57-7.1,81.17,13.94,3.83,3.33,6.27.22,8.78-1.48,14-9.45,24.15-22.13,31.2-37.39-11-4.66-23-.6-34.39-3.78s-23.51-4.78-33.66-12c-11.41-8.08-11.61-18.28-.44-26.79,8.26-6.29,18-8.68,27.79-10.79,20.54-4.43,41-4.58,61,2.8h0c5.74-11.5,7.79-24.14,10.86-36.42,7.85-31.34,14.44-62.76.66-94.37-2.11-4.84-2.51-10.4-3.81-15.6-5.76-23.12-11.24-46.33-22.29-67.72-12.35-23.93-30.79-36.35-58.87-36.28-50.86.13-98.24,10.65-142.42,36.93-31.49,18.75-65.85,28.75-103.29,22.09-13.86-2.46-26.4-8.33-39-16.07-4.87,36.64-12.92,70.83-26.6,103.55a13.39,13.39,0,0,0-.83,6.86C368.69,462.45,374.36,495.85,385.53,528ZM660.7,508.09c-2,3.61-4.57,6.51-9.32,6.53s-7.48-3.15-9-6.84c-6.3-15-6.23-30,.89-44.77,1.83-3.79,4.69-6.88,9.2-6.75s7.13,3.31,9,7.08c3.53,7.08,4.4,14.69,4.39,22.46S664.61,501.19,660.7,508.09ZM629.42,404c1-9.84,7.74-15.66,19-15.29,20.63,2.73,41.65,7.93,59,22.63,8.7,7.35,10.55,16.24,5.31,23.86-4.83,7-13.21,8.2-23.34,3-14.65-7.56-29.8-13.62-46.08-16.71C633.17,419.54,628.44,413.45,629.42,404ZM546.65,574.22c3.77-25.41,7-50.89,10.31-76.37.6-4.72,1.69-9.79,6.81-9.47,6.28.4,5.88,6.63,5.37,11.1-2.06,18.22-4.54,36.4-6.91,54.59-.65,5-1.49,9.89-2.2,14.84-.74,5.17-3.3,11.28,1.54,15s11.36,3.84,17.41,1.8c5.58-1.88,13-8.59,15.76,1,2.81,10-8.1,9.33-14.06,11.66-2.62,1-6,.17-9,.17l0,.55c-3.32-.39-6.73-.41-9.94-1.22C544.7,593.61,544,591.93,546.65,574.22Zm-58.79-64.93c-4.37,7.2-11,7.32-16.24.66-8.14-10.37-8.42-38.48-.49-48.9,4.83-6.35,10.94-6.48,15.54.19,5.09,7.41,6.63,15.94,6.3,25.3C493.3,494.27,492.15,502.22,487.86,509.29Zm-59.53-96.15c18.29-16.47,40.76-22.63,64.56-24.38,9.11-.67,15.87,7.59,15.91,18.6-.59,7-4.8,12.65-13.1,14.06-17.37,2.95-33.36,9.45-48.86,17.53-7.95,4.15-15.61,3.95-21.62-3.53C419.61,428.44,420.63,420.08,428.33,413.14Z" transform="translate(-26.58 -64.04)"/><path class="cls-7" d="M416.64,570.43c12.93,2.23,25.47.35,38-2.25A67.92,67.92,0,0,0,474.56,561c13.38-7.58,13.95-19.85.41-27.18-18.24-9.86-38.22-12-58.76-10-10.29,1-20.08,5.59-30.68,4.16,4.71,16.94,10.66,33.36,20.08,48.35h0C407,570,408.14,569,416.64,570.43Z" transform="translate(-26.58 -64.04)"/><path class="cls-7" d="M414.56,572.78c19.85,4.36,38.5,0,56.94-6.9,9.09-3.37,16.77-8.57,16.67-19s-8.7-15.58-17.3-18.81c-28.34-10.66-56.88-10.62-85.34-.05,10.6,1.43,20.39-3.15,30.68-4.16,20.54-2,40.52.14,58.76,10,13.54,7.33,13,19.6-.41,27.18a67.92,67.92,0,0,1-19.89,7.14c-12.56,2.6-25.1,4.48-38,2.25-8.5-1.47-9.6-.43-11,5.94h0C406.83,570.84,411.36,572.08,414.56,572.78Z" transform="translate(-26.58 -64.04)"/><polygon class="cls-7" points="379.02 512.33 379.02 512.33 379.02 512.33 379.02 512.33"/><path class="cls-7" d="M728.48,524.16c-20.17-2.64-39.45.62-58.27,7.7a27.71,27.71,0,0,0-7.77,4.62c-9,7.42-9,15.81.91,22.11,15.52,9.87,33.25,11.82,51.15,13.11,5,.36,11.74-3.09,14.38,4.8A168.2,168.2,0,0,0,749.21,526h0C742,528.65,735.33,525.06,728.48,524.16Z" transform="translate(-26.58 -64.04)"/><path class="cls-7" d="M688.18,523.17c-9.78,2.11-19.53,4.5-27.79,10.79-11.17,8.51-11,18.71.44,26.79,10.15,7.19,22.11,8.75,33.66,12s23.34-.88,34.39,3.78c-2.64-7.89-9.41-4.44-14.38-4.8-17.9-1.29-35.63-3.24-51.15-13.11-9.92-6.3-9.93-14.69-.91-22.11a27.71,27.71,0,0,1,7.77-4.62c18.82-7.08,38.1-10.34,58.27-7.7,6.85.9,13.55,4.49,20.73,1.81C729.16,518.59,708.72,518.74,688.18,523.17Z" transform="translate(-26.58 -64.04)"/><path class="cls-8" d="M629.46,634c-21.24,17.77-45.68,26.56-73.38,25.23a121.58,121.58,0,0,1-47.45-12.07c-3.5-1.69-7.31-3-9.53,1.57-1.92,4,.07,7.14,3.59,9.33a25.58,25.58,0,0,0,4.46,2.33c17,6.45,34.42,11.33,52.92,11.23,28.92-1,55.59-8.11,77.42-28.56,3.32-3.1,9.1-5.18,4.5-11C637.12,625.93,633.29,630.79,629.46,634Z" transform="translate(-26.58 -64.04)"/><path class="cls-9" d="M337.77,511.44c-3-1.14-4.13-4.49-5.71-7.06a168.14,168.14,0,0,0-29.91-36.56c-2.33-2.12-4-5.5-8.88-5.09,6.93,8.46,15.12,15,21,23.55,1.13,1.66,2.65,3.06,3.71,4.77,1.9,3.06,5.23,6.05,3.19,10s-6.29,3-9.95,2.93c-2.8,0-5.89-1.88-8.84,1.69,5.16,2.61,10.66,1.6,15.68,2.69,9.29,2,15.69,6.56,19.11,15.84,1.05,2.82,2,5.67,2.8,8.54a160.42,160.42,0,0,1-2.11-20.63Z" transform="translate(-26.58 -64.04)"/><path class="cls-9" d="M337.77,511.44l.06.64a160.42,160.42,0,0,0,2.11,20.63,168.37,168.37,0,0,1,4.69,21.59l-4.14-42.44h0A6.52,6.52,0,0,1,337.77,511.44Z" transform="translate(-26.58 -64.04)"/><path class="cls-9" d="M337.14,524.17c-3.42-9.28-9.82-13.82-19.11-15.84-5-1.09-10.52-.08-15.68-2.69,2.95-3.57,6-1.73,8.84-1.69,3.66.06,7.9,1,9.95-2.93s-1.29-6.91-3.19-10c-1.06-1.71-2.58-3.11-3.71-4.77-5.85-8.55-14-15.09-21-23.55,4.88-.41,6.55,3,8.88,5.09a168.14,168.14,0,0,1,29.91,36.56c1.58,2.57,2.69,5.92,5.71,7.06-.1-.88-.17-1.76-.26-2.64-.64-1.05-1.16-2.19-1.76-3.27-9.65-17.13-22.55-31.59-36.91-44.83-2.58-2.38-5.33-4.92-8.6-1.56-3.68,3.78,0,5.69,2.54,7.87,8.75,7.4,15.94,16.29,22.9,25.3,1.75,2.27,6,5,3.37,8.42-1.76,2.31-5.82,1.43-8.63.54-5.63-1.79-12.32-2.7-12.59,4.42-.25,6.52,7.24,3.84,11.44,4.07,13.09.7,23.45,4.49,27.05,19,1.41,5.64,3.31,11.16,5.24,16.67-.41-4.24-1-8.47-1.62-12.68C339.11,529.84,338.19,527,337.14,524.17Z" transform="translate(-26.58 -64.04)"/><path class="cls-9" d="M339.94,532.71c.62,4.21,1.21,8.44,1.62,12.68,1,3,2.09,5.93,3.07,8.91A168.37,168.37,0,0,0,339.94,532.71Z" transform="translate(-26.58 -64.04)"/><path class="cls-9" d="M340.49,511.86h0a7.81,7.81,0,0,1-3-3.06c.09.88.16,1.76.26,2.64A6.52,6.52,0,0,0,340.49,511.86Z" transform="translate(-26.58 -64.04)"/><path class="cls-9" d="M811.73,504.36c-3.27-.43-7.13.07-8.69-3.68-1.35-3.25,1.2-5.64,3-8.06,5.12-7.09,11.21-13.3,17.37-19.47,2.77-2.78,6.26-5.07,7.95-10.8-9,4.3-14.23,10.95-20,17.16-4.2,4.52-6.3,11.51-12.76,13.61,0,.35,0,.69,0,1,.08,6.61-1.8,13-2.07,19.61,6.37-7,16.67-5.35,25.7-7.73C818.36,503.56,814.93,504.77,811.73,504.36Z" transform="translate(-26.58 -64.04)"/><path class="cls-9" d="M796.53,513.77c.27-6.57,2.15-13,2.07-19.61,0-.35,0-.69,0-1a12,12,0,0,1-2.8.56c-.73,8.05-2.75,16-2,24.16h0A17.55,17.55,0,0,1,796.53,513.77Z" transform="translate(-26.58 -64.04)"/><path class="cls-9" d="M811.33,479.51c5.75-6.21,10.93-12.86,20-17.16-1.69,5.73-5.18,8-7.95,10.8-6.16,6.17-12.25,12.38-17.37,19.47-1.75,2.42-4.3,4.81-3,8.06,1.56,3.75,5.42,3.25,8.69,3.68s6.63-.8,10.5,1.68c-9,2.38-19.33.69-25.7,7.73,0,.69,0,1.39,0,2.08,7.31-4.92,15.59-6.53,24.52-6.08,3.24.16,6.43-.91,6.28-4.82s-3.7-3.08-6.22-3.2c-3-.14-6.05.15-9.05-.07-2.49-.19-5.87,1.41-7.2-1.74-1.08-2.55,2-3.84,3.27-5.68C815.23,484,824.67,475.9,833.27,467c2.29-2.37,3.81-5,1-7.85s-4.77-.18-6.77,1.5c-4.08,3.44-8.54,6.53-12.15,10.41C809.49,477.34,804,484,798.47,490.5c0,.87,0,1.75.1,2.62C805,491,807.13,484,811.33,479.51Z" transform="translate(-26.58 -64.04)"/><path class="cls-9" d="M796.53,513.77a17.55,17.55,0,0,0-2.73,4.06h0c.88-.73,1.79-1.37,2.7-2C796.49,515.16,796.5,514.46,796.53,513.77Z" transform="translate(-26.58 -64.04)"/><path class="cls-9" d="M798.47,490.5c-.9,1.06-1.79,2.13-2.7,3.18a12,12,0,0,0,2.8-.56C798.52,492.25,798.48,491.37,798.47,490.5Z" transform="translate(-26.58 -64.04)"/><path class="cls-10" d="M593.59,688.75c-13.45,7-27.35,5.43-41.25,2.24-4.43-1-8.65-1.54-9.85,3.46-1.06,4.44,2.35,7.63,6.54,8.83,6.45,1.86,13.06,3.11,19.25,2.44a68.33,68.33,0,0,0,30.12-4.93c4-1.6,6.68-5.18,4.68-9.76C601.17,686.69,597.13,686.9,593.59,688.75Z" transform="translate(-26.58 -64.04)"/><path class="cls-2" d="M446.84,439c15.5-8.08,31.49-14.58,48.86-17.53,8.3-1.41,12.51-7.09,13.1-14.06,0-11-6.8-19.27-15.91-18.6-23.8,1.75-46.27,7.91-64.56,24.38-7.7,6.94-8.72,15.3-3.11,22.28C431.23,442.9,438.89,443.1,446.84,439Z" transform="translate(-26.58 -64.04)"/><path class="cls-2" d="M643.32,421.47c16.28,3.09,31.43,9.15,46.08,16.71,10.13,5.23,18.51,4.06,23.34-3,5.24-7.62,3.39-16.51-5.31-23.86-17.38-14.7-38.4-19.9-59-22.63-11.24-.37-17.95,5.45-19,15.29C628.44,413.45,633.17,419.54,643.32,421.47Z" transform="translate(-26.58 -64.04)"/><path class="cls-11" d="M561.71,597.87c3.21.81,6.62.83,9.94,1.22l0-.55c3,0,6.38.85,9-.17,6-2.33,16.87-1.66,14.06-11.66-2.72-9.63-10.18-2.92-15.76-1-6.05,2-12.54,1.9-17.41-1.8s-2.28-9.79-1.54-15c.71-4.95,1.55-9.88,2.2-14.84,2.37-18.19,4.85-36.37,6.91-54.59.51-4.47.91-10.7-5.37-11.1-5.12-.32-6.21,4.75-6.81,9.47-3.27,25.48-6.54,51-10.31,76.37C544,591.93,544.7,593.61,561.71,597.87Z" transform="translate(-26.58 -64.04)"/><path class="cls-12" d="M652.44,456.26c-4.51-.13-7.37,3-9.2,6.75-7.12,14.76-7.19,29.78-.89,44.77,1.55,3.69,4.13,6.87,9,6.84s7.28-2.92,9.32-6.53c3.91-6.9,5-14.48,5.15-22.29s-.86-15.38-4.39-22.46C659.57,459.57,656.9,456.39,652.44,456.26Z" transform="translate(-26.58 -64.04)"/><path class="cls-2" d="M486.67,461.24c-4.6-6.67-10.71-6.54-15.54-.19-7.93,10.42-7.65,38.53.49,48.9,5.22,6.66,11.87,6.54,16.24-.66s5.44-15,5.11-22.75C493.3,477.18,491.76,468.65,486.67,461.24Z" transform="translate(-26.58 -64.04)"/></svg>