<svg id="Capa_1" data-name="Capa 1" xmlns="http://www.w3.org/2000/svg" viewBox="0 0 986.35 1146.96"><defs><style>.cls-1{fill:#d1685e;}.cls-2{fill:#dc947c;}.cls-3{fill:#a1544e;}.cls-4{fill:#d67f7a;}.cls-5{fill:#7e403e;}.cls-6{fill:#d78370;}.cls-7{fill:#6e211e;}.cls-8{fill:#d8b4b3;}.cls-9{fill:#352735;}.cls-10{fill:#342635;}.cls-11{fill:#342634;}.cls-12{fill:#be6c56;}.cls-13{fill:#bd6c55;}</style></defs><title>12</title><path class="cls-1" d="M274,1139.63a289.46,289.46,0,0,1,5.57,36.31c.53,6.31,2.9,7.41,8.26,7.18,7.29-.3,14.6-.07,21.9-.07q303.35,0,606.68.2c8.51,0,12-1.93,13.82-10.72,6.8-32.77,16-65,26.47-96.73,12.61-38.42,26.78-76.32,47.42-111.32,3-5,4.59-11.69,11.08-14.2h0c-8.8-12.74-21.33-21.42-33.76-29.93C922,879.6,854.54,856.15,787.4,832.17h0c-23.34,20.56-51.52,32-80.39,41.74C673.15,885.32,638,890,602.39,889.4a275.35,275.35,0,0,1-97.11-19.06A225.58,225.58,0,0,1,436.53,828a8.92,8.92,0,0,0-5.16-2.52h0c-51,18.16-102.19,36.08-151,59.74-31.66,15.35-62.33,32.39-88,57.09,17.75,22.19,30,47.55,42,73.08C252.9,1055.07,264.85,1096.92,274,1139.63Z" transform="translate(-106.83 -38.12)"/><path class="cls-2" d="M528.45,662.05a134.35,134.35,0,0,0,71.75,22.23C629,685,656.57,682,682,667.5c2.36-1.35,5.27-3.29,6.07,1.68h0c.84-4.6,3.4-7.73,7.28-10.49A150.22,150.22,0,0,0,719.79,637c25.15-27.74,41.24-60.48,51.58-96,3-10.32,5.67-18.08,18.34-16.05.4.07.92-.57,1.38-.87h0c-15-.66-15.12-.69-11.64-16.12,3.24-14.36,4.32-29,6-43.54-15.11,1.15-15.57,1.2-17.11-13.43-2.39-22.82-4.13-45.71-6-68.58q-2-23.87-3.74-47.75c-.23-3-.73-5.3-4.32-6.09-39-8.64-55.95-37.19-64.22-72.75-1.59-6.83-3.34-6.36-8.42-4.44-23.61,8.92-47.76,15.95-72.75,19.81-12.26,2.79-24.8,3.45-37.24,4.82-30,3.31-59.84,1-89.47-3.74-6.69-1.07-6.93,1.35-6.72,6.29.85,20.87-1,41.4-8.11,61.21-.94,2.63-1.56,5.72-3.35,7.64-10.59,11.32-9.3,25.63-10.45,39.35-2.3,27.31-4.63,54.63-6.76,82-.55,7.16-6.93,3.92-10.12,6.28-2.05,11.13,1.13,21.82,2.75,32.65.8,5.35,4.29,10.63.62,16.16h0c4.75.52,4.09,4.58,4.93,7.62,11.32,41.14,28.62,79,58.84,110.12,5.05,5.2,11.49,9.06,15.18,15.58h0C523,657.09,525.48,660.12,528.45,662.05ZM699.27,443.78c.1,6.84-1,13.46-4.46,19.45-3.9,6.75-9.39,7-13.91,1-7-9.43-6.81-34.18.35-43.46,4.19-5.44,9.21-5.46,12.89.39C698.46,428,699.6,435.77,699.27,443.78Zm-14.91-73.55c18.68-.05,36.67,12,43,28.82-36.87-17.54-41.48-21.84-79.81-3.89C653.45,379.66,667.29,370.27,684.36,370.23ZM622.5,522.94c9.12-6.41,7.68-14.6,5.91-23.83-3.22-16.72-5.41-33.64-4-50.9,6.1,19.14,9,38.9,11.31,58.81.87,7.37-2,12.37-7.52,16.52-3.7,2.79-7.38,5.6-11.92,7.62C618.33,528.38,619.83,524.83,622.5,522.94Zm45.68,56.61c-35.62,27.07-79.52,24.66-102.24,4.14C606.6,597.06,625.59,595.69,668.18,579.55ZM482.29,397.76c7.17-17.75,21-27.33,37.05-27.6,18.83-.32,36.3,10.89,44.73,30.4C537,383.07,510.67,376.27,482.29,397.76Zm35.38,65.66c-6.94-13.56-7-27.7-.13-41.3,3.81-7.55,10.7-7.16,14.66.45a37.92,37.92,0,0,1,4.17,20.07c.25,7.44-.76,14.38-4.43,20.59C527.78,470.28,521.35,470.6,517.67,463.42Z" transform="translate(-106.83 -38.12)"/><path class="cls-3" d="M433.11,408.25c.71,20.44,1.23,40.88,1.83,61.31,0,1.62,0,3.29,1,4.61.21-.21.39-.41.63-.61,5.4-2.4,7.47-6.39,8.09-12.44,3.25-31.27,4.84-62.68,8-93.95.43-4.24.77-8.4,3.37-12,12.79-17.65,15.32-38.26,16.84-59.11.41-5.59-.11-11.24.16-16.85.41-8.87,2.06-10.31,10.85-9.12,18.65,2.52,37.35,4.85,56.16,4.91,22.49.07,44.82-2.85,67.11-5.61a8,8,0,0,1,1.11-.88,252.2,252.2,0,0,0,43.29-36.79c23.32-25.19,44.07-52.29,58.8-83.84a404.1,404.1,0,0,0,19-49.08c.56-1.78.53-4,2.58-5.07h0a206.59,206.59,0,0,0-59.1-39.13l15.62,32.89c-34.11-27.22-71-42.17-113.13-49.39,14.33,19.12,28.87,35.75,43.33,52.43,3.39,2.14,5.78,5.15,8.52,10.2a35.17,35.17,0,0,1-10.47-8.08h0C574.2,62.69,526.64,48,474.89,45.62,484.26,53,493.45,60.17,502.14,68l25.53,23a8.45,8.45,0,0,1-6-1.5C494.79,74,465.79,65.08,435,61.42c-6.64-.79-8.28.25-5.87,7.35,7.84,23,14.88,46.28,22.85,71.39-16.27-12.23-33.41-18.1-50.48-24.15-5.57-2-8.07-.89-7.81,5.58.26,6.7-.67,13.43-.51,20.14.91,38.25,10.93,74.29,27.92,108.32,4.57,9.15,6.19,18.27,6.52,28.14C429,318,430.54,357.8,432,397.6,434.21,401,433,404.71,433.11,408.25Z" transform="translate(-106.83 -38.12)"/><path class="cls-3" d="M607.16,269.41c-22.29,2.76-44.62,5.68-67.11,5.61-18.81-.06-37.51-2.39-56.16-4.91-8.79-1.19-10.44.25-10.85,9.12-.27,5.61.25,11.26-.16,16.85-1.52,20.85-4.05,41.46-16.84,59.11-2.6,3.58-2.94,7.74-3.37,12-3.19,31.27-4.78,62.68-8,93.95-.62,6.05-2.69,10-8.09,12.44-.24.2-.42.4-.63.61a3.84,3.84,0,0,0,.75.76h0c3.19-2.36,9.57.88,10.12-6.28,2.13-27.33,4.46-54.65,6.76-82,1.15-13.72-.14-28,10.45-39.35,1.79-1.92,2.41-5,3.35-7.64,7.09-19.81,9-40.34,8.11-61.21-.21-4.94,0-7.36,6.72-6.29,29.63,4.78,59.46,7.05,89.47,3.74,12.44-1.37,25-2,37.24-4.82C607.45,270.72,606,270.54,607.16,269.41Z" transform="translate(-106.83 -38.12)"/><path class="cls-4" d="M1080.77,1122.41c-6.34-32.32-17-63.4-26.63-94.78-4-13-9.39-25.35-13.64-38.16a91.13,91.13,0,0,0-25.29-39.19c-4,9-9.92,16.91-14.57,25.55-14.26,26.55-25.58,54.3-35.17,82.85q-9.37,27.93-17.77,56.17c-5.81,19.69-10.47,39.63-15.46,59.49-1.71,6.81-4.57,9.65-12,9.65q-316.51-.29-633,0c-7.64,0-9.46-3.14-10.29-9.62a560.51,560.51,0,0,0-38.16-142.89c-11.66-28.32-25.64-55.56-42.87-81-1.69-2.5-4.18-4.7-3.5-8.22a104.94,104.94,0,0,0-31,42.2c-16.76,42-29.31,85.35-40,129.22-5.24,21.45-9.22,43.2-14.09,64.75-1.14,5,.18,6.77,5.13,6.51,3.08-.15,6.18.12,9.27.12q88.47,0,177-.11,391.83,0,783.65.11c11.58,0,12.33-1,9.72-12.64C1088.19,1155.77,1084.06,1139.17,1080.77,1122.41Zm-16.34,42.42c-17.1-3.36-34.45-1.27-51.74-1.19-12,0-24.25,1-36.43-.32-10.18-1.11-20.67-2.08-31.79,1.88-1.12-8.61,2.61-17,.58-25.32-.32-1.35,2.27-4.7,3.91-5,12.1-2.31,8.85-11.16,7.95-18.54-.84-7,4.74-19.65,10.9-23.69,5.21-3.4,5.58-8.3,3.68-14-1.17-3.5-3.83-7.22-.79-11.07a2.27,2.27,0,0,1,2.23-.12c3,3,1.46,6.89,1.48,10.34q.24,34.95,0,69.92c0,4.89,1.33,8.2,6.2,9.51,4.67,1.25,7.46.38,7.43-5.45-.14-32.29.16-64.59-.27-96.87-.08-5.94-2.93-11.81-4.28-17.76-2-8.88-1-10.48,7.71-10.85,5.06-.21,7.21-2.29,6.89-7.21-.23-3.62.12-7.39-.8-10.83-.85-3.18-.58-5.52,1.86-7.5,7.09-5.73,8.74-14.07,10.67-22.24.53-2.27.53-5.14,3.66-4.06,2.54.88,6.43.87,6.74,4.8.09,1.12-1.75,2.88-.14,3.6,12.38,5.54,8.65,16.24,8.45,25.78-.06,2.92,1.23,4.59,3.68,6,2.67,1.52,4.88.93,6.93-.82,1.79-1.53,2.47-4.28,6.53-5.5-4.66,7.11-7,12.88-3.3,20.83,1.51,3.27-1.24,10.33-1.89,15.69-.53,4.25-.33,7.74,5.35,8.47,3.91.51,12,13.54,10.17,16.68-3.23,5.41-.58,8.09,3.64,10.35-1.83,3-6.64,3-5.67,7.13s4.71,3.94,8,4.6c7.84,1.57,10.88,9.29,5.79,15.55-2.73,3.34-1.28,5,1.1,6.82s5,3.72,1.78,6.57c-6.51,5.83-2.72,13.11-3,19.72-.1,2.73,2.81,5.32,5.87,5,5.88-.62,6.24,2.16,5.58,6.82-.5,3.55-.74,7.49,4.88,9.15C1077,1165.65,1071.3,1166.18,1064.43,1164.83Z" transform="translate(-106.83 -38.12)"/><path class="cls-4" d="M195.87,950.5c17.23,25.45,31.21,52.69,42.87,81A560.51,560.51,0,0,1,276.9,1174.4c.83,6.48,2.65,9.63,10.29,9.62q316.51-.35,633,0c7.45,0,10.31-2.84,12-9.65,5-19.86,9.65-39.8,15.46-59.49q8.35-28.29,17.77-56.17c9.59-28.55,20.91-56.3,35.17-82.85,4.65-8.64,10.6-16.53,14.57-25.55-6.49,2.51-8.13,9.2-11.08,14.2-20.64,35-34.81,72.9-47.42,111.32-10.44,31.77-19.67,64-26.47,96.73-1.83,8.79-5.31,10.73-13.82,10.72q-303.33-.39-606.68-.2c-7.3,0-14.61-.23-21.9.07-5.36.23-7.73-.87-8.26-7.18a289.46,289.46,0,0,0-5.57-36.31c-9.16-42.71-21.11-84.56-39.68-124.27-11.94-25.53-24.21-50.89-42-73.08C191.69,945.8,194.18,948,195.87,950.5Z" transform="translate(-106.83 -38.12)"/><path class="cls-5" d="M655.52,230.79c-12.93,14.11-28,26-43.17,37.68a436.86,436.86,0,0,0,67.76-18.89c8.61-3.14,10-2.29,12.2,6.56,6.46,26.17,17.63,49.14,42.48,62.95a66.71,66.71,0,0,0,18.06,6.81c5.11,1.14,7.52,4.26,8,9.4,2.76,28.19,4.41,56.48,7,84.69,1,11.17,1.73,22.36,2.9,33.53.64,6.08,2.43,9.53,9.08,9.07a8.61,8.61,0,0,1,5.68,1.44c1-18.34,1.14-36.74,3.61-55h0c-.07-3.05-.22-6.1-.18-9.14.27-21.67,2.51-43.28,1.7-65-2.31-1.95-1.55-4.63-1.55-7.05q-.08-47.73,0-95.46c0-2.42-.76-5.1,1.6-7h0c2.17-53.59-18.25-97.1-58.74-131.65-1.93,15.81-8.35,30.26-14.51,44.6C702.57,172.93,680.8,203.17,655.52,230.79Z" transform="translate(-106.83 -38.12)"/><path class="cls-5" d="M779.83,462.59c-6.65.46-8.44-3-9.08-9.07-1.17-11.17-1.89-22.36-2.9-33.53-2.56-28.21-4.21-56.5-7-84.69-.51-5.14-2.92-8.26-8-9.4a66.71,66.71,0,0,1-18.06-6.81c-24.85-13.81-36-36.78-42.48-62.95-2.19-8.85-3.59-9.7-12.2-6.56a436.86,436.86,0,0,1-67.76,18.89q-1.74,1.32-3.46,2.66c25-3.86,49.14-10.89,72.75-19.81,5.08-1.92,6.83-2.39,8.42,4.44,8.27,35.56,25.19,64.11,64.22,72.75,3.59.79,4.09,3.05,4.32,6.09q1.75,23.88,3.74,47.75c1.92,22.87,3.66,45.76,6,68.58,1.54,14.63,2,14.58,17.11,13.43,0-.11,0-.22,0-.33A8.61,8.61,0,0,0,779.83,462.59Z" transform="translate(-106.83 -38.12)"/><path class="cls-5" d="M729.36,98.82a404.1,404.1,0,0,1-19,49.08c-14.73,31.55-35.48,58.65-58.8,83.84a252.2,252.2,0,0,1-43.29,36.79,8,8,0,0,0-1.11.88l.75-.09c1.48-.27,3-.57,4.44-.85,15.17-11.67,30.24-23.57,43.17-37.68,25.28-27.62,47.05-57.86,61.91-92.44,6.16-14.34,12.58-28.79,14.51-44.6h0C729.89,94.83,729.92,97,729.36,98.82Z" transform="translate(-106.83 -38.12)"/><path class="cls-5" d="M607.91,269.32l-.75.09c-1.12,1.13.29,1.31,1.73,1.72q1.73-1.33,3.46-2.66C610.87,268.75,609.39,269.05,607.91,269.32Z" transform="translate(-106.83 -38.12)"/><path class="cls-2" d="M595.7,843.85c29.64,1.57,59.3.72,88.44-6.44,20.51-5,41-10.21,59.57-20.68h0c-17.37-7.39-30.12-19.77-39-36.26-.53,3.13-2.7,3-5.1,2.68-31.8-4.36-63.33-9.87-92.89-23.19-22.54-10.16-43-23.73-62.64-38.63-5.33-4.05-10.47-8.34-15.6-12.63-2.33-2-4.57-3.25-7.45-1.19h0c-.06,1.34-.27,2.61-1.56,3.38-1.19,9.2-2,18.47-3.66,27.58-3.28,18-7.55,35.74-18.23,51-5.7,8.13-11.47,16.64-22,19.56,22.25,11.74,45.3,21.75,69.77,27.48A288.88,288.88,0,0,0,595.7,843.85Z" transform="translate(-106.83 -38.12)"/><path class="cls-4" d="M439.6,827.94a240.52,240.52,0,0,0,93.23,48.89c17,4.61,34.51,7.15,52.13,9.06,29.95,3.24,59.36-.36,88.65-5.59,18.83-3.36,36.88-9.63,54.69-16.67a230.41,230.41,0,0,0,53.64-29.48,10.31,10.31,0,0,1,5.46-2c-3.79-1.66-7.46-3.65-11.37-4.89-10.81-3.42-20.53-10.16-32.32-10.55.59,4-2.89,4.37-5.21,5.41-33.72,15-69.13,22.78-106,24.38a331.62,331.62,0,0,1-84.5-7.09c-24-5.18-46.47-14.72-68.36-25.65-1.92-1-4.19-1.94-4.14-4.76-1.59-1.27-3.29-2.28-5.33-1.08-12.31,7.26-26.2,11-38.83,17.5C434.88,823.76,437.25,826,439.6,827.94Z" transform="translate(-106.83 -38.12)"/><path class="cls-4" d="M436.53,828a225.58,225.58,0,0,0,68.75,42.37,275.35,275.35,0,0,0,97.11,19.06C638,890,673.15,885.32,707,873.91c28.87-9.73,57-21.18,80.39-41.74a10.31,10.31,0,0,0-5.46,2,230.41,230.41,0,0,1-53.64,29.48c-17.81,7-35.86,13.31-54.69,16.67-29.29,5.23-58.7,8.83-88.65,5.59-17.62-1.91-35.08-4.45-52.13-9.06a240.52,240.52,0,0,1-93.23-48.89c-2.35-2-4.72-4.18-8.22-2.5h0A8.92,8.92,0,0,1,436.53,828Z" transform="translate(-106.83 -38.12)"/><path class="cls-4" d="M479.68,813.78C501.57,824.71,524,834.25,548,839.43a331.62,331.62,0,0,0,84.5,7.09c36.83-1.6,72.24-9.36,106-24.38,2.32-1,5.8-1.39,5.21-5.41h0c-18.61,10.47-39.06,15.63-59.57,20.68-29.14,7.16-58.8,8-88.44,6.44a288.88,288.88,0,0,1-50.39-7.35c-24.47-5.73-47.52-15.74-69.77-27.48C475.49,811.84,477.76,812.82,479.68,813.78Z" transform="translate(-106.83 -38.12)"/><path class="cls-6" d="M520.9,688.34c.38,6.06.12,12.17.1,18.26a2.6,2.6,0,0,1,.25-.33c5.17-3.53,8.61.52,11.79,3.23a363,363,0,0,0,62.52,42.63c14.7,8,30.26,13.51,46.25,17.84,20.57,5.58,41.44,9.8,62.86,10.5-2.18-5-5.06-9.84-6.42-15.06-8.23-31.54-11.12-63.7-10.14-96.23-4.08-.06-7.59,1.68-11.15,3.38-19.5,9.28-39.67,14.41-61.66,14-22.86-.43-45.38-.75-66.58-10.86-10.66-5.08-21.25-10.13-29.73-18.63.14,2.23.27,4.46.41,6.7C522.67,671.78,520.38,680.15,520.9,688.34Z" transform="translate(-106.83 -38.12)"/><path class="cls-6" d="M615.3,686.56c22,.41,42.16-4.72,61.66-14,3.56-1.7,7.07-3.44,11.15-3.38h0c-.8-5-3.71-3-6.07-1.68C656.57,682,629,685,600.2,684.28a134.35,134.35,0,0,1-71.75-22.23c-3-1.93-5.45-5-9.46-5h0c8.48,8.5,19.07,13.55,29.73,18.63C569.92,685.81,592.44,686.13,615.3,686.56Z" transform="translate(-106.83 -38.12)"/><path class="cls-6" d="M595.56,752.13A363,363,0,0,1,533,709.5c-3.18-2.71-6.62-6.76-11.79-3.23a2.6,2.6,0,0,0-.25.33c0,.3,0,.61,0,.91h0c2.88-2.06,5.12-.76,7.45,1.19,5.13,4.29,10.27,8.58,15.6,12.63,19.62,14.9,40.1,28.47,62.64,38.63,29.56,13.32,61.09,18.83,92.89,23.19,2.4.33,4.57.45,5.1-2.68-21.42-.7-42.29-4.92-62.86-10.5C625.82,765.64,610.26,760.08,595.56,752.13Z" transform="translate(-106.83 -38.12)"/><path class="cls-6" d="M435.45,474.63c-3.1-1.1-2.91-4.35-2.84-6.82.48-16.82-2.63-33.49-1.95-50.32.27-6.65,3.3-13.1,1.35-19.89.84,8.28-1.42,11.68-11.17,11.87-20.18.38-33,10.58-38.2,27.24-7.41,23.75,6,66.22,25.8,81.15,9.49,7.16,20,9.8,31.6,5.89h0c-2.36-13.39-5.55-26.64-6.33-40.28C433.52,480.22,433.33,477.12,435.45,474.63Z" transform="translate(-106.83 -38.12)"/><path class="cls-6" d="M439.42,507.59c-1.62-10.83-4.8-21.52-2.75-32.65a6.38,6.38,0,0,1-1.22-.31c-2.12,2.49-1.93,5.59-1.74,8.84.78,13.64,4,26.89,6.33,40.28C443.71,518.22,440.22,512.94,439.42,507.59Z" transform="translate(-106.83 -38.12)"/><path class="cls-6" d="M430.66,417.49c-.68,16.83,2.43,33.5,1.95,50.32-.07,2.47-.26,5.72,2.84,6.82.14-.16.31-.31.47-.46-1-1.32-.94-3-1-4.61-.6-20.43-1.12-40.87-1.83-61.31-.13-3.54,1.1-7.3-1.1-10.65C434,404.39,430.93,410.84,430.66,417.49Z" transform="translate(-106.83 -38.12)"/><path class="cls-6" d="M435.92,474.17c-.16.15-.33.3-.47.46a6.38,6.38,0,0,0,1.22.31h0A3.84,3.84,0,0,1,435.92,474.17Z" transform="translate(-106.83 -38.12)"/><path class="cls-6" d="M788.82,444.06c-.8,6.66,1.43,14-3.17,20.08a5.58,5.58,0,0,1,.48.37c2.54,11.49-1.71,22.54-2.29,33.83a48.45,48.45,0,0,1-1.22,6.58c-2.54,13.36-2.54,13.36,8.47,19.1h0c6.45-.87,11.37-4.62,15.81-8.89,17-16.33,23.09-37.46,24.37-60,1.64-28.7-13.13-44.24-42.15-46.12h0C791.32,420.73,790.22,432.49,788.82,444.06Z" transform="translate(-106.83 -38.12)"/><path class="cls-6" d="M782.62,504.92a48.45,48.45,0,0,0,1.22-6.58c.58-11.29,4.83-22.34,2.29-33.83a5.58,5.58,0,0,0-.48-.37l-.15.22c-1.73,14.55-2.81,29.18-6,43.54-3.48,15.43-3.34,15.46,11.64,16.12C780.08,518.28,780.08,518.28,782.62,504.92Z" transform="translate(-106.83 -38.12)"/><path class="cls-6" d="M785.65,464.14c4.6-6.07,2.37-13.42,3.17-20.08,1.4-11.57,2.5-23.33.3-35-2.47,18.25-2.57,36.65-3.61,55Z" transform="translate(-106.83 -38.12)"/><path class="cls-6" d="M785.51,464c0,.11,0,.22,0,.33l.15-.22Z" transform="translate(-106.83 -38.12)"/><path class="cls-7" d="M790,242c1.81,28.24-.36,56.46-.08,84.68,0,2.75-.68,5.61.76,8.24,1.4-36.51,2.09-73,0-109.53C788.86,230.86,789.61,236.53,790,242Z" transform="translate(-106.83 -38.12)"/><path class="cls-7" d="M789.08,232.42q-.06,47.73,0,95.46c0,2.42-.76,5.1,1.55,7.05-1.44-2.63-.74-5.49-.76-8.24-.28-28.22,1.89-56.44.08-84.68-.35-5.48-1.1-11.15.72-16.61h0C788.32,227.32,789.08,230,789.08,232.42Z" transform="translate(-106.83 -38.12)"/><path class="cls-2" d="M520.11,674.44c-.18-3.56.76-7.2-.71-10.67l0,47.12h0c.88-1.22.67-2.88,1.46-4.14C519.2,696,520.66,685.2,520.11,674.44Z" transform="translate(-106.83 -38.12)"/><path class="cls-2" d="M521,707.51h0c0-.26-.06-.51-.1-.76-.79,1.26-.58,2.92-1.46,4.14C520.72,710.12,520.93,708.85,521,707.51Z" transform="translate(-106.83 -38.12)"/><path class="cls-2" d="M520.11,674.44c.55,10.76-.91,21.58.78,32.31l.11-.15c0-6.09.28-12.2-.1-18.26-.52-8.19,1.77-16.56-1.5-24.57C520.87,667.24,519.93,670.88,520.11,674.44Z" transform="translate(-106.83 -38.12)"/><path class="cls-2" d="M520.89,706.75c0,.25.05.5.1.76,0-.3,0-.61,0-.91Z" transform="translate(-106.83 -38.12)"/><path class="cls-8" d="M621.54,95.16a21.2,21.2,0,0,1-2.88-4.61l-1.95,2.12h0a7.73,7.73,0,0,1,3,.92A8.89,8.89,0,0,1,621.54,95.16Z" transform="translate(-106.83 -38.12)"/><path class="cls-8" d="M627.18,100.75c-2.74-5-5.13-8.06-8.52-10.2a21.2,21.2,0,0,0,2.88,4.61,8.89,8.89,0,0,0-1.79-1.57,7.73,7.73,0,0,0-3-.92A35.17,35.17,0,0,0,627.18,100.75Z" transform="translate(-106.83 -38.12)"/><path class="cls-9" d="M531.94,463.23c3.67-6.21,4.68-13.15,4.43-20.59a37.92,37.92,0,0,0-4.17-20.07c-4-7.61-10.85-8-14.66-.45-6.87,13.6-6.81,27.74.13,41.3C521.35,470.6,527.78,470.28,531.94,463.23Z" transform="translate(-106.83 -38.12)"/><path class="cls-10" d="M681.25,420.75c-7.16,9.28-7.36,34-.35,43.46,4.52,6.07,10,5.77,13.91-1,3.46-6,4.56-12.61,4.46-19.45.33-8-.81-15.78-5.13-22.64C690.46,415.29,685.44,415.31,681.25,420.75Z" transform="translate(-106.83 -38.12)"/><path class="cls-11" d="M727.4,399.05c-6.37-16.82-24.36-28.87-43-28.82-17.07,0-30.91,9.43-36.77,24.93C685.92,377.21,690.53,381.51,727.4,399.05Z" transform="translate(-106.83 -38.12)"/><path class="cls-11" d="M564.07,400.56c-8.43-19.51-25.9-30.72-44.73-30.4-16.09.27-29.88,9.85-37.05,27.6C510.67,376.27,537,383.07,564.07,400.56Z" transform="translate(-106.83 -38.12)"/><path class="cls-12" d="M668.18,579.55c-42.59,16.14-61.58,17.51-102.24,4.14C588.66,604.21,632.56,606.62,668.18,579.55Z" transform="translate(-106.83 -38.12)"/><path class="cls-13" d="M635.73,507c-2.32-19.91-5.21-39.67-11.31-58.81-1.42,17.26.77,34.18,4,50.9,1.77,9.23,3.21,17.42-5.91,23.83-2.67,1.89-4.17,5.44-6.21,8.22,4.54-2,8.22-4.83,11.92-7.62C633.7,519.39,636.6,514.39,635.73,507Z" transform="translate(-106.83 -38.12)"/><path class="cls-4" d="M1079.13,1152.55c.66-4.66.3-7.44-5.58-6.82-3.06.32-6-2.27-5.87-5,.25-6.61-3.54-13.89,3-19.72,3.19-2.85.64-4.74-1.78-6.57s-3.83-3.48-1.1-6.82c5.09-6.26,2-14-5.79-15.55-3.3-.66-7-.41-8-4.6s3.84-4.14,5.67-7.13c-4.22-2.26-6.87-4.94-3.64-10.35,1.87-3.14-6.26-16.17-10.17-16.68-5.68-.73-5.88-4.22-5.35-8.47.65-5.36,3.4-12.42,1.89-15.69-3.68-8-1.36-13.72,3.3-20.83-4.06,1.22-4.74,4-6.53,5.5-2.05,1.75-4.26,2.34-6.93.82-2.45-1.4-3.74-3.07-3.68-6,.2-9.54,3.93-20.24-8.45-25.78-1.61-.72.23-2.48.14-3.6-.31-3.93-4.2-3.92-6.74-4.8-3.13-1.08-3.13,1.79-3.66,4.06-1.93,8.17-3.58,16.51-10.67,22.24-2.44,2-2.71,4.32-1.86,7.5.92,3.44.57,7.21.8,10.83.32,4.92-1.83,7-6.89,7.21-8.71.37-9.72,2-7.71,10.85,1.35,5.95,4.2,11.82,4.28,17.76.43,32.28.13,64.58.27,96.87,0,5.83-2.76,6.7-7.43,5.45-4.87-1.31-6.24-4.62-6.2-9.51q.29-35,0-69.92c0-3.45,1.53-7.33-1.48-10.34a2.27,2.27,0,0,0-2.23.12c-3,3.85-.38,7.57.79,11.07,1.9,5.68,1.53,10.58-3.68,14-6.16,4-11.74,16.73-10.9,23.69.9,7.38,4.15,16.23-7.95,18.54-1.64.31-4.23,3.66-3.91,5,2,8.35-1.7,16.71-.58,25.32,11.12-4,21.61-3,31.79-1.88,12.18,1.32,24.4.36,36.43.32,17.29-.08,34.64-2.17,51.74,1.19,6.87,1.35,12.52.82,19.58-3.13C1078.39,1160,1078.63,1156.1,1079.13,1152.55Z" transform="translate(-106.83 -38.12)"/></svg>