<svg id="Capa_1" data-name="Capa 1" xmlns="http://www.w3.org/2000/svg" viewBox="0 0 1106.17 1166.65"><defs><style>.cls-1{fill:#fff;}.cls-2{fill:#d1695e;}.cls-3{fill:#372538;}.cls-4{fill:#d1695f;}.cls-5{fill:#db9087;}.cls-6{fill:#d16a5f;}.cls-7{fill:#db9089;}.cls-8{fill:#db9186;}.cls-9{fill:#7d4928;}.cls-10{fill:#c86e66;}.cls-11{fill:#a1534d;}.cls-12{fill:#fffffe;}.cls-13{fill:#372737;}.cls-14{fill:#362636;}.cls-15{fill:#342635;}</style></defs><title>6</title><path class="cls-1" d="M640.93,303c-.16.4-.35.77-.5,1.18l1.1-.56a3.27,3.27,0,0,1-.35-.3C641.08,303.21,641,303.1,640.93,303Z" transform="translate(-46.91 -17.96)"/><path class="cls-1" d="M610.55,282.38l-.33-.49a4.25,4.25,0,0,1-.25.39Z" transform="translate(-46.91 -17.96)"/><path class="cls-1" d="M603.12,910.91l-.12,0h-.36l.29.55C603,911.29,603.05,911.1,603.12,910.91Z" transform="translate(-46.91 -17.96)"/><path class="cls-2" d="M1132.54,1088.07h0c-3.34-4-1.73-9-3.13-13.5-8.31-26.7-16.75-53.38-24.2-80.32-11.78-42.6-35.09-76.76-71.33-102.25a544.68,544.68,0,0,0-80-46.12C894.72,817.74,832.46,797.46,771.44,774h0c-3.19.23-5.86.83-7.87,4.06q-35,56.15-70.28,112.11c-5.67,9-11.47,17.94-17.27,26.88-1.18,1.81-2.4,4.08-4.86,4-2.72-.14-2.92-3-3.78-4.85-6.83-15-11-31.07-19-45.54h0c-12.35,12.31-22.8,26.45-36.42,37.53a16.26,16.26,0,0,0-2,2c-9.91,11.49-9.43,11-21.09.76-13.76-12-26-26-42.65-34.49q-9.47,24-18.93,47.93c-1.13,2.86-1.56,6.13-5.42,8.23q-20-28.92-40-57.85-31-44.84-62.17-89.6c-1.53-2.2-2.61-5.24-6.12-5.28h0c-32.47,12-65.09,23.69-97.38,36.2C266.5,835.3,217.65,856.42,173.57,887c-26.15,18.13-50.79,38.47-63.65,68.29-18.47,42.81-31.49,87.6-42.4,132.94q525.12,0,1050.25.06C1122.69,1088.26,1127.61,1088.13,1132.54,1088.07Z" transform="translate(-46.91 -17.96)"/><path class="cls-3" d="M387.21,342.39c2.86,22.39,5.24,44.86,6.83,67.37.72,10.17,7.26,6.76,12.5,7.4,6.71.81,5.61-3.8,5.75-7.83.11-3.22.26-6.44.41-9.66a85.07,85.07,0,0,1,.76-15.62c.35-25.18.73-50.35,1-75.53a6.66,6.66,0,0,1,3.21-6.19c22.76-15.44,31.67-39,37.43-64.38,3.11-13.73,4.06-27.76,5.23-43.23C501.19,240,548,272.31,610,282.28a4.25,4.25,0,0,0,.25-.39L592.1,255.17c20.55,10.36,41.24,19.76,64.42,26.61-6,6.64-11.9,12.27-15.59,21.22.08.1.15.21.25.32a3.27,3.27,0,0,0,.35.3L656,296.21c23.75-12.12,46.76-13.11,70.83.85,10.33,6,17.56,14.69,26.63,21.61,5.34,4.08,7.71,4,8.73-3a40.91,40.91,0,0,1,3.44-11.77c2.65,34.5,3.39,68.95-.21,103.41.21,2.3-.27,5.27,1.56,6.27a12.75,12.75,0,0,0,1.77.33,9,9,0,0,0,1.61-.23c5.29-1.26,13.08,4,15.17-6a374.47,374.47,0,0,0,6.61-51.35c1.63-24.48-.36-48.94.13-73.4-.44-4.76-.87-9.53-1.53-16.73l25.52,30.24c1-3,1.88-5,2.41-7.09a262.63,262.63,0,0,0,8-79.45c-4.59-82.42-45.41-139.86-120.1-173.78C615.89-5,509.33,28.58,444.85,88.09c-4.15,3.83-7.52,5-13.12,4-31.32-5.77-57.48,6.73-73.17,34.44a121.12,121.12,0,0,0-13.09,36.27c-10.92,54.62-5.26,107.69,15.3,159.3h0C378.69,319.21,384.79,323.42,387.21,342.39Zm328.19-65c-8-3.34-14.48-6.48-21.72-6.83-2.66-.13-3.76-1.74-3.61-4.44.58-11-1.77-21.76-2.87-33.06C696.3,247.4,705.39,261.71,715.4,277.43Z" transform="translate(-46.91 -17.96)"/><path class="cls-4" d="M1145.39,1141.19h0c-3.07-5.13-8.13-3.77-12.69-3.77q-273.63,0-547.27,0-259,0-518,0c-5.25,0-10.86-1.06-13.17,5.66h0c-2.12,10.16-3.78,20.44-6.48,30.44-2.31,8.61-.44,11.14,9,11.13q540.21-.37,1080.41-.22c3.15,0,6.32-.25,9.45,0,5.5.43,7.31-1.52,6.06-7.13C1150,1165.29,1147.8,1153.22,1145.39,1141.19Z" transform="translate(-46.91 -17.96)"/><path class="cls-5" d="M1138,1109.1a70.25,70.25,0,0,0-5.41-21c-.3,4-3.62,3-5.75,3.1-5.33.39-10.71.11-16.07.11q-512,0-1024.09-.08c-6.44,0-13.34,1.75-19.11-3a63.48,63.48,0,0,0-5.69,22.65l1065.1,0C1130.7,1110.87,1134.51,1111.18,1138,1109.1Z" transform="translate(-46.91 -17.96)"/><path class="cls-5" d="M86.63,1091.2q512,.13,1024.09.08c5.36,0,10.74.28,16.07-.11,2.13-.15,5.45.86,5.75-3.1h0c-4.93.06-9.85.19-14.77.19q-525.13,0-1050.25-.06C73.29,1093,80.19,1091.2,86.63,1091.2Z" transform="translate(-46.91 -17.96)"/><path class="cls-6" d="M62.21,1130.2c5.58-.77,11.32-.35,17-.35H1129.43a87.1,87.1,0,0,1,9.42.43c4,.44,2.38-2.74,3.12-4.41h0l-4-16.77h0c-2.15,3.83-5.86,4.45-9.72,4.71s-7.56.17-11.34.17q-518,0-1036-.08c-6.42,0-13.33,1.76-19.08-3.05L58.14,1126C58.33,1128.52,58,1130.78,62.21,1130.2Z" transform="translate(-46.91 -17.96)"/><path class="cls-6" d="M80.91,1113.9q518,.13,1036,.08c3.78,0,7.56.08,11.34-.17s7.57-.88,9.72-4.71h0c-3.44,2.08-7.25,1.77-11,1.77l-1065.1,0C67.58,1115.66,74.49,1113.9,80.91,1113.9Z" transform="translate(-46.91 -17.96)"/><path class="cls-7" d="M422.13,784.81c9.13,13.21,18.78,26,27.69,39.4,21.82,32.75,44.93,64.61,67.19,97,1.46,2.14,2.31,6,5.83,5.16,2.58-.61,2.69-4,3.6-6.28,4.9-12.28,9.21-24.79,14.09-37.08,1.13-2.88,1.67-6.17,4.9-7.74a10.38,10.38,0,0,1,1.32-.17c5.44-12.43,8.16-26,14.88-37.89l-.15-.29c-2-4-5.31-6.93-8.41-10q-36.18-36.21-72.33-72.48c-2.87-2.89-7.53-5.05-6.49-10.5-6.75-6.56-13.73-12.89-20.17-19.75-3.94-4.2-6.27-5.15-9.5.73-10.12,18.42-20.64,36.61-31,54.9C418.75,777.44,420.21,782,422.13,784.81Z" transform="translate(-46.91 -17.96)"/><path class="cls-7" d="M419.69,785.12q31.17,44.75,62.17,89.6,20,28.9,40,57.85c3.86-2.1,4.29-5.37,5.42-8.23q9.45-24,18.93-47.93h0c.19-.42.36-.84.55-1.26a10.38,10.38,0,0,0-1.32.17c-3.23,1.57-3.77,4.86-4.9,7.74-4.88,12.29-9.19,24.8-14.09,37.08-.91,2.26-1,5.67-3.6,6.28-3.52.83-4.37-3-5.83-5.16-22.26-32.44-45.37-64.3-67.19-97-8.91-13.36-18.56-26.19-27.69-39.4-1.92-2.77-3.38-7.37-8.56-5h0C417.08,779.88,418.16,782.92,419.69,785.12Z" transform="translate(-46.91 -17.96)"/><path class="cls-7" d="M480.74,754.46q36,36.39,72.33,72.48c3.1,3.1,6.39,6,8.41,10l.15.29q.69-1.23,1.44-2.43c-5.05-7.7-12.3-13.34-18.65-19.82-23.29-23.78-46.76-47.38-70.17-71C473.21,749.41,477.87,751.57,480.74,754.46Z" transform="translate(-46.91 -17.96)"/><path class="cls-7" d="M710.36,748.26q-34.36,34.65-69,69.09c-3.08,3.08-6.55,5.88-8,10.23l-.45,1.32a266.49,266.49,0,0,1,15.23,41c.15,0,.28-.06.44-.06,4.33,1.3,5.06,5.33,6.33,8.75,4,10.6,8.56,20.93,12.51,31.52.84,2.25,1.31,5.47,4,6,3.1.61,3.76-2.77,5.07-4.75,23.76-35.86,46-72.7,69.4-108.79,5.28-8.15,11.66-15.59,15.6-24.64,1.8-4.13,5.17-6.36,10-3.91-4.77-3.75,1.59-7.8-.58-12.14-8.48-17-16.39-34.29-26.15-54.94-10.44,11.56-19.44,21.52-28.43,31.49h0C717.24,743.44,713,745.55,710.36,748.26Z" transform="translate(-46.91 -17.96)"/><path class="cls-7" d="M761.48,777.91c-3.94,9.05-10.32,16.49-15.6,24.64-23.4,36.09-45.64,72.93-69.4,108.79-1.31,2-2,5.36-5.07,4.75-2.68-.52-3.15-3.74-4-6-3.95-10.59-8.56-20.92-12.51-31.52-1.27-3.42-2-7.45-6.33-8.75-.16,0-.29,0-.44.06.06.24.14.48.2.72h0c8,14.47,12.2,30.56,19,45.54.86,1.9,1.06,4.71,3.78,4.85,2.46.12,3.68-2.15,4.86-4,5.8-8.94,11.6-17.87,17.27-26.88q35.22-56,70.28-112.11c2-3.23,4.68-3.83,7.87-4.06h0C766.65,771.55,763.28,773.78,761.48,777.91Z" transform="translate(-46.91 -17.96)"/><path class="cls-7" d="M631.26,825.39h0c.57,1.16,1.11,2.33,1.65,3.51l.45-1.32c1.49-4.35,5-7.15,8-10.23q34.49-34.54,69-69.09c2.68-2.71,6.88-4.82,5.92-9.85h0c-13,13.22-26.14,26.33-39,39.7C662,794,645.33,808.4,631.26,825.39Z" transform="translate(-46.91 -17.96)"/><path class="cls-8" d="M65.47,1134.4c2.83,0,5.67-.09,8.5-.09h1052a109.84,109.84,0,0,1,11.33.32c4.15.42,7.15,2.22,8.12,6.56h0c-.52-5.24-1.11-10.47-3.42-15.31,1.5,3.56,1.07,6.18-3.38,6.77a63.33,63.33,0,0,1-8.49.25q-530.52,0-1061-.2c-4.06,0-12.64,4.12-10.91-6.68a36.66,36.66,0,0,0-3.85,17C55.08,1136.37,59.48,1134.41,65.47,1134.4Z" transform="translate(-46.91 -17.96)"/><path class="cls-8" d="M67.46,1137.38q259,0,518,0,273.65,0,547.27,0c4.56,0,9.62-1.36,12.69,3.77-1-4.34-4-6.14-8.12-6.56a109.84,109.84,0,0,0-11.33-.32H74c-2.83,0-5.67.08-8.5.09-6,0-10.39,2-11.18,8.64h0C56.6,1136.32,62.21,1137.38,67.46,1137.38Z" transform="translate(-46.91 -17.96)"/><path class="cls-8" d="M69.05,1132.7q530.52.27,1061.05.2a63.33,63.33,0,0,0,8.49-.25c4.45-.59,4.88-3.21,3.38-6.77h0c-.74,1.67.84,4.85-3.12,4.41a87.1,87.1,0,0,0-9.42-.43H79.19c-5.66,0-11.4-.42-17,.35-4.23.58-3.88-1.68-4.07-4.18C56.41,1136.82,65,1132.7,69.05,1132.7Z" transform="translate(-46.91 -17.96)"/><path class="cls-9" d="M684.12,595.46c-41.29,30-87.63,32.27-135.67,24-16.12-2.76-30.84-9.71-45.83-18.74,0,8.47.38,15.65-.1,22.77-.58,8.63,2.17,17.5-1.7,25.9h0c.15,10.32-1.85,20.42-3.17,30.59-2.47,19-9.38,36.71-16.1,54.46,11-6.42,23.75-5.76,35.65-7.45,64-9.1,117.16-39.63,165.23-81,5.27-4.53,3.34-11.3,7.56-15.64v-7.18h0q-.07-12.27-.14-24.53C689.83,594.11,689.27,591.72,684.12,595.46Z" transform="translate(-46.91 -17.96)"/><path class="cls-9" d="M412.29,409.33c-.14,4,1,8.64-5.75,7.83-5.24-.64-11.78,2.77-12.5-7.4-1.59-22.51-4-45-6.83-67.37-2.42-19-8.52-23.18-26.44-20.28h0c-11.64,5.57-16.83,15.95-18.91,27.66-4.63,26.05,2.69,50.2,16.33,71.74C367.39,436,381,446.92,400.46,445h0c-2.45-4.25-2.35-9.1-3.16-13.73-1.41-8.08-1.87-11,1.34-12.27,1.72-.67,4.48-.86,8.75-1.08,5-.25,5.41-2.59,5.48-6.55s-.08-7.8-.17-11.7C412.55,402.89,412.4,406.11,412.29,409.33Z" transform="translate(-46.91 -17.96)"/><path class="cls-9" d="M799.49,312.66c-4.28-1.71-5.47-4.09-5.7-8.37-.37-7.11,1.32-14.39-1.48-21.33h0c-.49,24.46,1.5,48.92-.13,73.4a374.47,374.47,0,0,1-6.61,51.35c-2.09,10-9.88,4.75-15.17,6a9,9,0,0,1-1.61.23c.47.05,1,.1,1.5.13,4.79.26,8.05.45,10.18,1.07,4.6,1.33,3.85,4.67,1.51,15.06-.84,3.72-1.69,7.31-5.11,9.61,13.79-.35,23.58-8.06,31.39-18.25,14.41-18.8,20.7-40.68,21.33-64.06C830.19,335.12,820.52,321.07,799.49,312.66Z" transform="translate(-46.91 -17.96)"/><path class="cls-10" d="M595.72,903.29q-16.38-32.82-33.65-65.19c-3.8,12.82-6.56,26.06-14.9,37,4.83-.12,8.19,3.28,11.43,6.21,10.95,9.93,22.68,18.94,33.43,29.11,7.51,7.11,8.43,6.34,15.82-.64,12.82-12.1,24-25.76,36.63-38a6.22,6.22,0,0,1,3.49-1.93,164.35,164.35,0,0,1-15.53-39.63c-8.15,23.84-16,47.78-23.92,71.7-1.11,3.34-.85,8.4-5.4,8.93-.07.19-.13.38-.19.58l-.29-.55C598.36,911.09,597.29,906.43,595.72,903.29Z" transform="translate(-46.91 -17.96)"/><path class="cls-10" d="M644.48,871.84c-12.67,12.22-23.81,25.88-36.63,38-7.39,7-8.31,7.75-15.82.64-10.75-10.17-22.48-19.18-33.43-29.11-3.24-2.93-6.6-6.33-11.43-6.21-.32.42-.63.85-1,1.27h0c16.61,8.51,28.89,22.46,42.65,34.49,11.66,10.19,11.18,10.73,21.09-.76a16.26,16.26,0,0,1,2-2c13.62-11.08,24.07-25.22,36.42-37.53h0c-.13-.23-.24-.47-.37-.7A6.22,6.22,0,0,0,644.48,871.84Z" transform="translate(-46.91 -17.96)"/><path class="cls-10" d="M562.07,838.1q17.26,32.35,33.65,65.19c1.57,3.14,2.64,7.8,6.92,7.65l-39.57-76.11h0C562.72,835.92,562.4,837,562.07,838.1Z" transform="translate(-46.91 -17.96)"/><path class="cls-10" d="M608.52,902c7.91-23.92,15.77-47.86,23.92-71.7-.41-1.63-.81-3.25-1.18-4.89h0l-28.14,85.52C607.67,910.38,607.41,905.32,608.52,902Z" transform="translate(-46.91 -17.96)"/><path class="cls-10" d="M562.07,838.1l-.44-.84c-6.72,11.92-9.44,25.46-14.88,37.89h.42C555.51,864.16,558.27,850.92,562.07,838.1Z" transform="translate(-46.91 -17.96)"/><path class="cls-10" d="M547.17,875.14h-.42c-.19.42-.36.84-.55,1.26h0C546.54,876,546.85,875.56,547.17,875.14Z" transform="translate(-46.91 -17.96)"/><path class="cls-10" d="M563.07,834.83h0q-.75,1.2-1.44,2.43l.44.84C562.4,837,562.72,835.92,563.07,834.83Z" transform="translate(-46.91 -17.96)"/><path class="cls-10" d="M648,869.91l.17,0a266.49,266.49,0,0,0-15.23-41c-.15.46-.31.92-.47,1.38A164.35,164.35,0,0,0,648,869.91Z" transform="translate(-46.91 -17.96)"/><path class="cls-10" d="M648,869.91c.13.23.24.47.37.7-.06-.24-.14-.48-.2-.72Z" transform="translate(-46.91 -17.96)"/><path class="cls-10" d="M632.91,828.9c-.54-1.18-1.08-2.35-1.65-3.51.37,1.64.77,3.26,1.18,4.89C632.6,829.82,632.76,829.36,632.91,828.9Z" transform="translate(-46.91 -17.96)"/><path class="cls-11" d="M707,725.56c-11.33-25.93-14.88-53.44-15.46-81.5-.09-4.58,1.49-9.45-1.55-13.73-4.22,4.34-2.29,11.11-7.56,15.64-48.07,41.42-101.21,71.95-165.23,81-11.9,1.69-24.62,1-35.65,7.45h0c-4,2-3.91,7.06-7.3,9.49,23.41,23.67,46.88,47.27,70.17,71,6.35,6.48,13.6,12.12,18.65,19.82h0l39.57,76.11H603l.12,0,28.14-85.52h0c14.07-17,30.77-31.43,46-47.28,12.86-13.37,26-26.48,39-39.7C709.16,737.09,709.05,730.25,707,725.56Z" transform="translate(-46.91 -17.96)"/><path class="cls-11" d="M780.47,415.15c-2.13-.62-5.39-.81-10.18-1.07-.53,0-1-.08-1.5-.13a12.75,12.75,0,0,1-1.77-.33c-1.83-1-1.35-4-1.56-6.27,3.6-34.46,2.86-68.91.21-103.41a40.91,40.91,0,0,0-3.44,11.77c-1,6.93-3.39,7-8.73,3-9.07-6.92-16.3-15.62-26.63-21.61-24.07-14-47.08-13-70.83-.85l-14.51,7.41-1.1.56c.15-.41.34-.78.5-1.18,3.69-8.95,9.6-14.58,15.59-21.22-23.18-6.85-43.87-16.25-64.42-26.61l18.12,26.72.33.49-.58-.1c-62-10-108.78-42.29-149.63-87.56-1.17,15.47-2.12,29.5-5.23,43.23-5.76,25.38-14.67,48.94-37.43,64.38a6.66,6.66,0,0,0-3.21,6.19c-.28,25.18-.66,50.35-1,75.53a85.07,85.07,0,0,0-.76,15.62c.09,3.9.24,7.8.17,11.7s-.46,6.3-5.48,6.55c-4.27.22-7,.41-8.75,1.08-3.21,1.25-2.75,4.19-1.34,12.27.81,4.63.71,9.48,3.16,13.73h0c4,.35,3.45,3.68,4.25,6.29,9.34,30.65,19.53,61,37.88,87.71,13.15,19.19,26.41,38.18,46.5,51.22,7.63,4.95,13.24,11.29,12,22.37-1.39,12.12-.27,24.54-.24,36.82,3.87-8.4,1.12-17.27,1.7-25.9.48-7.12.1-14.3.1-22.77,15,9,29.71,16,45.83,18.74,48,8.25,94.38,5.95,135.67-24,5.15-3.74,5.71-1.35,5.73,3.16q0,12.25.14,24.53h0c3.5-8.49.85-17.39,1.73-26,.34-3.37,0-6.34,3.22-9.21a247.09,247.09,0,0,0,53.79-69.61c13-25,21.9-51.18,28.14-78.46,3.42-2.3,4.27-5.89,5.11-9.61C784.32,419.82,785.07,416.48,780.47,415.15ZM456.82,304.83c7.68-20.38,27.84-34.25,47.95-34.4,19.66-.16,35.57,10.53,43.83,31.38C516.58,276.91,486.87,285.27,456.82,304.83Zm37.12,70.37c-7.09-10.95-6.79-36.44.56-47.17,4.79-7,11.15-7,15.6.3s5.45,15.28,5.54,24.53c-.29,6.91-.93,14.73-5.05,21.75C505.64,383.05,499.14,383.24,493.94,375.2ZM681.62,491.61a146.27,146.27,0,0,1-74.86,27.47c-36.94,3-70.52-7.16-102.05-25.59a38,38,0,0,1-4.58-3.21c-.36-.29-.29-1.11-.47-1.88,2.85-2.81,6.5-1.47,9.73-1.48,39.31-.17,78.63-.34,118-.2,17.27.06,34.43-2.92,51.72-1.67,2,.15,4.89-1.12,5.87,1.51S683.3,490.4,681.62,491.61Zm11.76-117.08c-4.46,9.16-11.84,8.75-17-.15-4.08-7.06-4.6-14.9-4.66-19.63,0-11.12,1-18.88,5-25.87,4.6-7.93,11.78-8.45,16-.57C700.79,343.42,700.81,359.27,693.38,374.53Z" transform="translate(-46.91 -17.96)"/><path class="cls-11" d="M690.07,266.16c-.15,2.7.95,4.31,3.61,4.44,7.24.35,13.67,3.49,21.72,6.83-10-15.72-19.1-30-28.2-44.33C688.3,244.4,690.65,255.12,690.07,266.16Z" transform="translate(-46.91 -17.96)"/><path class="cls-12" d="M606.76,519.08a146.27,146.27,0,0,0,74.86-27.47c1.68-1.21,4.26-2.52,3.31-5.05s-3.83-1.36-5.87-1.51c-17.29-1.25-34.45,1.73-51.72,1.67-39.32-.14-78.64,0-118,.2-3.23,0-6.88-1.33-9.73,1.48.18.77.11,1.59.47,1.88a38,38,0,0,0,4.58,3.21C536.24,511.92,569.82,522,606.76,519.08Z" transform="translate(-46.91 -17.96)"/><path class="cls-13" d="M510.59,374.61c4.12-7,4.76-14.84,5.05-21.75-.09-9.25-1.18-17.36-5.54-24.53s-10.81-7.29-15.6-.3c-7.35,10.73-7.65,36.22-.56,47.17C499.14,383.24,505.64,383.05,510.59,374.61Z" transform="translate(-46.91 -17.96)"/><path class="cls-14" d="M693.38,374.53c7.43-15.26,7.41-31.11-.64-46.22-4.2-7.88-11.38-7.36-16,.57-4,7-5,14.75-5,25.87.06,4.73.58,12.57,4.66,19.63C681.54,383.28,688.92,383.69,693.38,374.53Z" transform="translate(-46.91 -17.96)"/><path class="cls-15" d="M548.6,301.81c-8.26-20.85-24.17-31.54-43.83-31.38-20.11.15-40.27,14-47.95,34.4C486.87,285.27,516.58,276.91,548.6,301.81Z" transform="translate(-46.91 -17.96)"/></svg>