<svg id="Capa_1" data-name="Capa 1" xmlns="http://www.w3.org/2000/svg" viewBox="0 0 1063.22 1172.7"><defs><style>.cls-1{fill:#fff;}.cls-2{fill:#578fb4;}.cls-3{fill:#e1a59e;}.cls-11,.cls-4{fill:#69add2;}.cls-5{fill:#d8877d;}.cls-6{fill:#fffefe;}.cls-7{fill:#372636;}.cls-8{fill:#222220;}.cls-9{fill:#d7887e;}.cls-10{fill:#d7877e;}.cls-11{opacity:0.1;}.cls-12{fill:#3e3e3d;}</style></defs><title>7</title><path class="cls-1" d="M447.65,175.66l.08-.06.31-.16-.48-.33Z" transform="translate(-36.8 -15.08)"/><path class="cls-2" d="M1056.38,1010.26c-15.62-56-50.22-93.89-98.69-122.16-51.53-30-106.62-51.83-162.62-71.62h0c-7,14-17.65,25-29.27,34.95-24.8,21.28-53.56,35.88-84.17,46.46-24.45,8.45-49.86,13.13-75.73,15.78a388.07,388.07,0,0,1-54.3,1.39c-62.82-2.43-121.33-18.62-172.39-56.86a160,160,0,0,1-39-41.22h0c-20.95,7.89-42.1,15.31-62.82,23.77-46.34,18.91-91.8,39.62-131.77,70.44C123.78,928,104.38,947.26,94.4,973.62c-24.91,65.81-43.21,133.49-56.47,202.58-2.58,13.45-1.36,11.44,10.16,11.44q302.27,0,604.54,0,219.09,0,438.18.13c7.52,0,10.5-.41,8.7-9.72C1088.51,1121.23,1071.9,1065.94,1056.38,1010.26Z" transform="translate(-36.8 -15.08)"/><path class="cls-3" d="M474.67,657.58c.47-9.92.13-19.87.13-31,17.78,10.32,35.7,17.9,55.39,20,40,4.23,78.78,2,113.81-21,3.61-2.38,6.69-7.74,12.57-4.86.42-2.69.94-5.06,3.34-7.09,37.57-31.86,59.26-73.6,73-119.86,3.28-11.06,6.06-19.7,19.93-17.2.69.12,1.57-.77,2.36-1.19h0c-16.62-.51-16.63-.51-13.31-16.54,3.73-18,5.7-36.16,7.49-54.39-16.34-1.54-16.19-1.56-18.47-17.3-7.51-52-12.46-104.23-16.08-156.61-.43-6.13-1.91-7.06-7.58-4.84-15.74,6.15-31.89,11-48.76,13.06h0c-41.86,5.78-82.47.66-122-13.88C507,214,480,198.65,454.75,180.05c-1.8-1.33-3.7-2.56-6.71-4.61l-.31.16-.08.06a107.31,107.31,0,0,1-2.46,49.76c-8.3,29.3-26.34,51.53-51.61,67.78-7.36,4.74-9.64,9.21-8.78,18.15,2.82,29.18,4.18,58.51,6.28,87.76.35,4.84-.61,8.16-5.74,9.65-5.46,1.59-10.08,5.46-15.92,6.14h0c.15,17,3.86,33.39,7.3,49.86,2.18,10.45,2.37,10.4-8.45,10.36-2.12,0-4.23,0-6.35.06h0c1.68.56,3.48,1.82,5,1.57,10.13-1.62,13.47,3.43,16.11,12.65C398.29,542.57,423,589.89,469.44,623c3.27,2.32,3.58,5.18,3.56,8.62-.06,15.13,0,30.26,0,45.39h0C476.77,670.81,474.36,664,474.67,657.58Zm44.8-101.71c39.44,11.45,75.77,9.07,110.28-10.75C604.63,575,553.18,579.23,519.47,555.87ZM658,409.59c-4.76,7.52-11.34,7.84-15.27,0-7.51-14.88-7.48-30.29.22-45.13,3.73-7.18,10.4-7,14.77-.09,4.5,7.13,5.26,15.25,5.17,19.94C662.75,395.47,662.14,403,658,409.59Zm-.26-100.36c17.93.91,29.64,11.12,38.34,27.5-38-17.38-42-19-89.19,4.25C619,320,634.55,308.07,657.69,309.23ZM578.78,475.89c9.42-7.08,10.34-16.14,7.79-26.64-4.23-17.35-4-35.26-6.19-52.86-.29-2.28.21-4.66.34-7,6.57,17.64,10,35.52,12.34,53.64.35,2.68.93,5.33,1.35,8,1.61,10.12,1.18,19.31-9.66,24.74-4.59,2.3-6.83,8.08-13.16,10.19C572.48,480.43,575.93,478,578.78,475.89ZM431.41,340.52c9.33-19.14,23.66-30.5,44.9-31.34,18.88-.75,33.44,8.93,41.49,28C488,315.15,459.61,323,431.41,340.52ZM466.51,409c-3.77-6.72-5.06-14.08-4.58-22a37.73,37.73,0,0,1,4.53-21.52c4.45-8.12,11.55-8.51,15.7-.4,7.44,14.54,7.47,29.7,0,44.25C477.93,417.59,471.09,417.21,466.51,409Zm3.2,108.23c61.46-.58,121.52.23,182.27-2.34C623.06,557.11,512,558.57,469.71,517.27Z" transform="translate(-36.8 -15.08)"/><path class="cls-3" d="M448.19,854.24c88.18,37.15,175.37,35,260.41-10.15,17.86-9.48,34.41-21.33,47-37.76q-21-8.43-42-16.87c-32-12.88-43.6-40.48-51.37-70.89-4.1-16.05-4.53-32.64-7.18-48.9-11.22,2.65-17.93,12.08-26.26,18.61-40.48,31.69-85.16,53.4-136.15,61.38-12.55,2-25,5.26-37.9,3.61h0c-9.47,18.19-24.05,30.57-43,38-10.93,4.28-21.83,8.64-32.74,13C397.69,826.91,421.58,843,448.19,854.24Z" transform="translate(-36.8 -15.08)"/><path class="cls-4" d="M348.69,824.77c21.29,27.1,49,45.49,79.84,59.92,51.81,24.26,106.82,30.69,163,27.77,50.78-2.64,99.17-15.47,143.25-41.82,20.38-12.19,38.71-26.91,53-46.24,2.13-2.89,4-6.13,7.33-7.92C785,811,773.7,808.54,763.34,803.81c-3.81-1.74-5.52.67-7.76,2.52h0c1.28,5.58-3,8.25-6.21,11.18-30.64,27.92-66.55,46.34-106.65,55.68-53.94,12.55-108,12.15-161.44-3.51a237.32,237.32,0,0,1-92.23-50.84c-4.31-3.85-11.19-6.71-10.1-14.61-14,1-26.1,7.67-38.74,12.75h0C344.53,817.94,346.33,821.77,348.69,824.77Z" transform="translate(-36.8 -15.08)"/><path class="cls-4" d="M379.21,858.2c51.06,38.24,109.57,54.43,172.39,56.86a388.07,388.07,0,0,0,54.3-1.39c25.87-2.65,51.28-7.33,75.73-15.78,30.61-10.58,59.37-25.18,84.17-46.46,11.62-10,22.29-21,29.27-34.95h0c-3.36,1.79-5.2,5-7.33,7.92-14.24,19.33-32.57,34.05-53,46.24-44.08,26.35-92.47,39.18-143.25,41.82-56.19,2.92-111.2-3.51-163-27.77-30.81-14.43-58.55-32.82-79.84-59.92-2.36-3-4.16-6.83-8.48-7.79A160,160,0,0,0,379.21,858.2Z" transform="translate(-36.8 -15.08)"/><path class="cls-4" d="M389.05,818.84a237.32,237.32,0,0,0,92.23,50.84c53.41,15.66,107.5,16.06,161.44,3.51,40.1-9.34,76-27.76,106.65-55.68,3.21-2.93,7.49-5.6,6.21-11.18h0c-12.57,16.43-29.12,28.28-47,37.76-85,45.15-172.23,47.3-260.41,10.15-26.61-11.22-50.5-27.33-69.24-50C377.86,812.13,384.74,815,389.05,818.84Z" transform="translate(-36.8 -15.08)"/><path class="cls-5" d="M588,713.12c19-11.8,37.49-24.33,54.55-38.87,3.51-3,6.72-7.41,12.47-4.58.72-16.35-.45-32.75,1.54-49h0c-20.67,13.58-42.29,25.26-67.27,28.1-35.57,4-70.77,3.8-103.68-13.53-8.05-4.23-8.2-4-8.27,5.08-.06,9.39.21,18.78-.14,28.16-.13,3.26.9,7.56-4.23,8.54h0c-2.49,26.3-6.3,52.27-18.26,76.3,7.71-3.15,16-2.52,24-3.74C517.3,743.66,554.56,733.93,588,713.12Z" transform="translate(-36.8 -15.08)"/><path class="cls-5" d="M477.21,668.43c.35-9.38.08-18.77.14-28.16.07-9.09.22-9.31,8.27-5.08,32.91,17.33,68.11,17.58,103.68,13.53,25-2.84,46.6-14.52,67.27-28.1h0c-5.88-2.88-9,2.48-12.57,4.86-35,23.08-73.83,25.28-113.81,21-19.69-2.08-37.61-9.66-55.39-20,0,11.16.34,21.11-.13,31-.31,6.46,2.1,13.23-1.69,19.39h0C478.11,676,477.08,671.69,477.21,668.43Z" transform="translate(-36.8 -15.08)"/><path class="cls-5" d="M492.62,749.66c51-8,95.67-29.69,136.15-61.38,8.33-6.53,15-16,26.26-18.61-5.75-2.83-9,1.59-12.47,4.58C625.5,688.79,607,701.32,588,713.12c-33.45,20.81-70.71,30.54-109.25,36.41-8,1.22-16.33.59-24,3.74h0C467.62,754.92,480.07,751.62,492.62,749.66Z" transform="translate(-36.8 -15.08)"/><path class="cls-5" d="M755.47,401.09c-.44,2.4-2.37,4.53-5.46,3.49,3,7.88-.08,15.82-.61,23.65-.75,11.15-3.07,22.15-5.72,33-1.73,7.11-1.21,11.94,7.7,11.84a4.82,4.82,0,0,1,3.8,2.2,36.38,36.38,0,0,0,13.53-7.18c21.39-18,28.31-42.43,29.58-68.76,1.4-28.94-12.71-44.34-41.71-47.74h0C759.49,368.17,758.48,384.68,755.47,401.09Z" transform="translate(-36.8 -15.08)"/><path class="cls-5" d="M751.38,473.08c-8.91.1-9.43-4.73-7.7-11.84,2.65-10.86,5-21.86,5.72-33,.53-7.83,3.59-15.77.61-23.65a5.61,5.61,0,0,1-.65-.23c-1.79,18.23-3.76,36.43-7.49,54.39-3.32,16-3.31,16,13.31,16.54h0A4.82,4.82,0,0,0,751.38,473.08Z" transform="translate(-36.8 -15.08)"/><path class="cls-5" d="M749.85,404.19l.16.39c3.09,1,5-1.09,5.46-3.49,3-16.41,4-32.92,1.11-49.49-1.81,14.11-1.36,28.31-2,42.47C754.46,397.88,754.86,402.58,749.85,404.19Z" transform="translate(-36.8 -15.08)"/><path class="cls-5" d="M749.85,404.19a4,4,0,0,1-.49.16,5.61,5.61,0,0,0,.65.23Z" transform="translate(-36.8 -15.08)"/><path class="cls-5" d="M364,473.56c11.1-3.35,11.12-3.35,8.73-14.64-2.32-10.92-3.79-22-5.43-33-.54-3.6-.74-7.21,1-10.63.22-.28.46-.51.7-.77-4-3.59-4.25-8.81-5.34-13.53-3.07-13.24-5.14-26.69-8.27-39.92a14.63,14.63,0,0,1,.74-9.74,21.37,21.37,0,0,1-4.07,1.83c-18.69,4-30.16,15.53-32.16,34.35-2.85,26.82,3.89,51.5,20.87,72.84,5.49,6.9,12.27,12.49,21.13,14.85A4.88,4.88,0,0,1,364,473.56Z" transform="translate(-36.8 -15.08)"/><path class="cls-5" d="M368.27,475.12c10.82,0,10.63.09,8.45-10.36-3.44-16.47-7.15-32.91-7.3-49.86h0c-.15-.13-.26-.27-.4-.4-.24.26-.48.49-.7.77-1.72,3.42-1.52,7-1,10.63,1.64,11,3.11,22.1,5.43,33,2.39,11.29,2.37,11.29-8.73,14.64a4.88,4.88,0,0,0-2.12,1.62h0C364,475.16,366.15,475.11,368.27,475.12Z" transform="translate(-36.8 -15.08)"/><path class="cls-5" d="M355.41,361.05c3.13,13.23,5.2,26.68,8.27,39.92,1.09,4.72,1.34,9.94,5.34,13.53l.26-.28q-6.57-31.46-13.13-62.91A14.63,14.63,0,0,0,355.41,361.05Z" transform="translate(-36.8 -15.08)"/><path class="cls-5" d="M369,414.5c.14.13.25.27.4.4-.05-.23-.1-.46-.14-.68Z" transform="translate(-36.8 -15.08)"/><path class="cls-6" d="M652,514.93c-60.75,2.57-120.81,1.76-182.27,2.34C512,558.57,623.06,557.11,652,514.93Z" transform="translate(-36.8 -15.08)"/><path class="cls-7" d="M482.16,409.36c7.47-14.55,7.44-29.71,0-44.25-4.15-8.11-11.25-7.72-15.7.4A37.73,37.73,0,0,0,461.93,387c-.48,7.93.81,15.29,4.58,22C471.09,417.21,477.93,417.59,482.16,409.36Z" transform="translate(-36.8 -15.08)"/><path class="cls-7" d="M642.9,364.5c-7.7,14.84-7.73,30.25-.22,45.13,3.93,7.8,10.51,7.48,15.27,0,4.19-6.62,4.8-14.12,4.89-25.24.09-4.69-.67-12.81-5.17-19.94C653.3,357.48,646.63,357.32,642.9,364.5Z" transform="translate(-36.8 -15.08)"/><path class="cls-8" d="M696,336.73c-8.7-16.38-20.41-26.59-38.34-27.5C634.55,308.07,619,320,606.84,341,654,317.76,658.05,319.35,696,336.73Z" transform="translate(-36.8 -15.08)"/><path class="cls-8" d="M517.8,337.15c-8-19-22.61-28.72-41.49-28-21.24.84-35.57,12.2-44.9,31.34C459.61,323,488,315.15,517.8,337.15Z" transform="translate(-36.8 -15.08)"/><path class="cls-9" d="M519.47,555.87c33.71,23.36,85.16,19.09,110.28-10.75C595.24,564.94,558.91,567.32,519.47,555.87Z" transform="translate(-36.8 -15.08)"/><path class="cls-10" d="M584.75,475.76c10.84-5.43,11.27-14.62,9.66-24.74-.42-2.66-1-5.31-1.35-8-2.34-18.12-5.77-36-12.34-53.64-.13,2.34-.63,4.72-.34,7,2.22,17.6,2,35.51,6.19,52.86,2.55,10.5,1.63,19.56-7.79,26.64-2.85,2.15-6.3,4.54-7.19,10.06C577.92,483.84,580.16,478.06,584.75,475.76Z" transform="translate(-36.8 -15.08)"/><path class="cls-8" d="M801.66,73.29c-1-10.91-2.48-21.85-6.46-32.86-23.47,36.23-51.62,55.18-78.15,52.66,16.79-12.81,23.39-30.24,24.83-50.33-3.3-.36-4.77,2-6.65,3.29C719,57.43,701,60.71,681.63,58a198.31,198.31,0,0,1-29.18-6.6c-32.15-9.68-63.54-21.65-95.76-31.2C512.58,7.09,477.09,19.63,447.41,53,432,69.21,421.2,88.32,412.09,108.49c-1.7,3.77-2.66,6.05-8.3,4.79-11.82-2.63-22.82.87-31.82,9.16-18.34,16.92-27.94,38-30.56,62.8-2.82,26.63-.49,53,2,79.43,2.77,29.07,7.51,57.9,12.71,86.64q6.56,31.45,13.13,62.91c0,.22.09.45.14.68h0c5.84-.68,10.46-4.55,15.92-6.14,5.13-1.49,6.09-4.81,5.74-9.65-2.1-29.25-3.46-58.58-6.28-87.76-.86-8.94,1.42-13.41,8.78-18.15,25.27-16.25,43.31-38.48,51.61-67.78a107.31,107.31,0,0,0,2.46-49.76l-.09-.55.48.33c3,2.05,4.91,3.28,6.71,4.61C480,198.65,507,214,536.45,224.78c39.55,14.54,80.16,19.66,122,13.88h0c16.87-2,33-6.91,48.76-13.06,5.67-2.22,7.15-1.29,7.58,4.84,3.62,52.38,8.57,104.63,16.08,156.61,2.28,15.74,2.13,15.76,18.47,17.3a4,4,0,0,0,.49-.16c5-1.61,4.61-6.31,4.77-10.12.6-14.16.15-28.36,2-42.47h0l-.07-.07h0c0-20.18.19-40.36-.22-60.53-.2-9.54,1.32-19.19-1.2-28.65h0c-.47-17.85-.73-35.72-1.53-53.56-.26-6,1.07-9.91,6.72-13.19,11.17-6.49,19.7-15.95,26.23-27.13C803.91,138.71,804.7,106.25,801.66,73.29Z" transform="translate(-36.8 -15.08)"/><path class="cls-11" d="M727.19,369.94c.48-6.29-1.81-12-4.4-17.27A27.71,27.71,0,0,0,705,338.21c-4-1.13-8.15-1.5-12-2.71-6.83-2.17-13.91-2.72-20.79-3.12a264.53,264.53,0,0,0-41.26.84,2.45,2.45,0,0,0-.91.14c-4.06,2.17-8.71,1-13,2.35-2.49.79-5.56.7-7.94,1.5-5.36,1.79-10.79,3.45-15.69,6.84-5.45,3.77-7.86,9.06-9.54,14.74-1.41,4.78-1.17,9.94-1.34,15-.19,5.42.65,10.71,1.43,15.94a27.06,27.06,0,0,0,2,7.09,76.49,76.49,0,0,0,6.78,12.43c2.18,3.11,3.87,6.63,6.58,9.34,5,4.94,9.77,9.92,15.87,13.7a75.1,75.1,0,0,0,20.39,9A73.36,73.36,0,0,0,658,443.94c3.06-.16,6.14,0,10.46,0,6-.74,13.24.1,20.6-1s12.84-4.3,18.08-8.78c4.75-4.06,7.87-9.4,10.9-14.74a48.64,48.64,0,0,0,5.22-14c.91-4.39,2.11-8.71,2.83-13.16.84-5.21,1.68-10.42,2.45-15.64C728.9,374.15,727,372.18,727.19,369.94Z" transform="translate(-36.8 -15.08)"/><path class="cls-11" d="M521.38,364.35c-1.27-5-3-9.67-6.12-13.48-3.56-4.38-8.56-7.37-13.44-10.21-2.66-1.54-6-1.71-8.84-2.76a58.57,58.57,0,0,0-13.68-3.06c-7.09-.8-14.21-2.52-21.48-1.67a55.48,55.48,0,0,1-6.45,0c-7,.82-14.09-.68-21.26,1.05-4.85,1.17-10.22.8-15.36,1.45a37.62,37.62,0,0,0-8,1.5c-9.43,3.38-16.13,10.28-21.26,18.69-4,6.64-5,14.06-5.06,21.71,0,4,1.86,7.74,1.07,11.73s1.19,7.32,1.74,11c.38,2.44,1.28,5.19,1.91,7.74a52.48,52.48,0,0,0,3.67,11c2.55,5.12,5.43,10.18,10.12,13.86a19,19,0,0,1,3.44,3.5c4.22,5.58,10.78,6,16.74,7.37a77.21,77.21,0,0,0,10.36,1.72c6.9.56,13.72,2.08,20.71,2.25,3.42.08,6.6-1.09,9.88-1.26a83.2,83.2,0,0,0,19.4-3.66c8.33-2.45,14.72-7.77,21.3-13,1.6-1.26,1.57-3.55,3.32-4.65,2.6-1.63,4.08-4.42,5.36-6.86,4.55-8.67,9.51-17.24,11.61-26.95.4-1.87,1.47-3.72,1.3-5.5C521.73,378.72,523.24,371.52,521.38,364.35Z" transform="translate(-36.8 -15.08)"/><path class="cls-12" d="M756,332.92a3.5,3.5,0,0,1,.2-2.38c.86-1.74-.1-1.93-1.46-2.45-4.23-1.61-8.74-2.13-13.08-3.28-2.7-.71-5.52-1.84-8.47-1.76-4.08.12-8.16-.82-12-1.63-6.5-1.39-13.24.67-19.49-2-18.22.8-36.47-1.25-54.72,1.08-6.47.83-13.18.5-19.72,1.39a45.12,45.12,0,0,0-8.57,1.67,57.77,57.77,0,0,1-9.62,2.06c-4.65.76-9.11,2.28-13.8,2.91-3.5.48-6.92,1.84-10.58,2.11a31.79,31.79,0,0,0-8.23,1.62,56.3,56.3,0,0,1-14,3.09,120.11,120.11,0,0,1-30.75-1.17,3.89,3.89,0,0,1-.88-.27c-3.29-1.31-6.88-.89-10.32-1.82-2.72-.75-5.8-1.12-8.43-2-6.65-2.32-13.54-3.62-20.3-5.37A110.65,110.65,0,0,0,473.07,322c-10.12-.83-20.34,0-30.5-1.16-2.89-.34-5.87,1.14-9,1a223.51,223.51,0,0,0-32.92,1.24c-.4,0-.91-.05-1.2.15-3.61,2.65-8,1.1-12.05,2.24-4.5,1.28-9.37,2.11-14.06,3-5.57,1.09-11.23,1.89-16.72,3.41-2.17.6-4,1.23-3.87,4.36.28,7.67.1,15.36.09,23,0,4.9,0,4.9,4.86,5.2,3.17.19,6.14,2.53,6.22,5.49.18,6.84,1.51,13.51,2.36,20.25.58,4.52,2.2,8.66,3.28,13,1.16,4.64,3.22,9,4.4,13.63a48.34,48.34,0,0,0,3.46,9.12,45.45,45.45,0,0,0,4.12,6.27c2.21,3.13,4,6.77,7.34,8.79a32,32,0,0,1,5.43,4.4c4.61,4.39,10.49,6.38,16.22,8.64,3.76,1.48,8,1.41,11.66,2.71,5.43,1.93,11,.82,16.42,2,9.14,2,18.55-.91,27.88-1a2.2,2.2,0,0,0,.89-.16c3.79-2,8.1-2.12,12.12-3.26A95.49,95.49,0,0,0,497.14,447c8-4.13,13.88-10.73,18.71-17.94,4.08-6.08,8.81-11.8,11.13-19.18a71.82,71.82,0,0,1,5.76-13.19c1.56-2.81,1.89-6.08,2.8-9.13,1-3.39,2.42-6.68,3.29-10.13.94-3.75,6.53-9.23,10.89-9.35,6.89-.19,10.32,4.38,13.65,8.91,3.09,4.21,3.41,9.8,5.61,14.42,3.2,6.71,6.14,13.59,10.41,19.81,3.48,5.06,6.68,10.28,11.11,14.61,3.59,3.51,7.21,7,10.65,10.66,5,5.33,11.39,8.92,17.69,12.05a72.16,72.16,0,0,0,15.78,5.84c8.29,1.9,16.52,3.48,25,3.44h6.15c6.33-.7,12.74,1,19.09-1.2,3.13-1.07,6.6-1.25,9.87-2.22,2.28-.68,4.22-1.94,6.42-2.63A43.29,43.29,0,0,0,718,441.8c4-3.73,8.1-7.3,10.81-12.12,2.27-4,4.61-8,6-12.48.92-2.94,1.55-6,2.88-8.78,2-4.14,2.23-8.64,3.14-13a73.05,73.05,0,0,0,1.71-10c.33-4.72,2-9.32,2.18-14.14.26-5.51,4-10.84,9.84-11.77,1.58-.25,2.6-1.14,2.49-2.59C756.52,348.92,758.56,340.82,756,332.92ZM521.08,391.37c-2.1,9.71-7.06,18.28-11.61,26.95-1.28,2.44-2.76,5.23-5.36,6.86-1.75,1.1-1.72,3.39-3.32,4.65-6.58,5.19-13,10.51-21.3,13a83.2,83.2,0,0,1-19.4,3.66c-3.28.17-6.46,1.34-9.88,1.26-7-.17-13.81-1.69-20.71-2.25a77.21,77.21,0,0,1-10.36-1.72c-6-1.34-12.52-1.79-16.74-7.37a19,19,0,0,0-3.44-3.5c-4.69-3.68-7.57-8.74-10.12-13.86a52.48,52.48,0,0,1-3.67-11c-.63-2.55-1.53-5.3-1.91-7.74-.55-3.63-2.51-7.1-1.74-11s-1.1-7.75-1.07-11.73c.06-7.65,1-15.07,5.06-21.71,5.13-8.41,11.83-15.31,21.26-18.69a37.62,37.62,0,0,1,8-1.5c5.14-.65,10.51-.28,15.36-1.45,7.17-1.73,14.22-.23,21.26-1.05a55.48,55.48,0,0,0,6.45,0c7.27-.85,14.39.87,21.48,1.67A58.57,58.57,0,0,1,493,337.9c2.83,1.05,6.18,1.22,8.84,2.76,4.88,2.84,9.88,5.83,13.44,10.21,3.11,3.81,4.85,8.53,6.12,13.48,1.86,7.17.35,14.37,1,21.52C522.55,387.65,521.48,389.5,521.08,391.37Zm207.45-14.7c-.77,5.22-1.61,10.43-2.45,15.64-.72,4.45-1.92,8.77-2.83,13.16a48.64,48.64,0,0,1-5.22,14c-3,5.34-6.15,10.68-10.9,14.74-5.24,4.48-10.69,7.73-18.08,8.78s-14.6.21-20.6,1c-4.32,0-7.4-.13-10.46,0a73.36,73.36,0,0,1-22.44-2.69,75.1,75.1,0,0,1-20.39-9c-6.1-3.78-10.91-8.76-15.87-13.7-2.71-2.71-4.4-6.23-6.58-9.34a76.49,76.49,0,0,1-6.78-12.43,27.06,27.06,0,0,1-2-7.09c-.78-5.23-1.62-10.52-1.43-15.94.17-5-.07-10.2,1.34-15,1.68-5.68,4.09-11,9.54-14.74,4.9-3.39,10.33-5.05,15.69-6.84,2.38-.8,5.45-.71,7.94-1.5,4.27-1.37,8.92-.18,13-2.35a2.45,2.45,0,0,1,.91-.14,264.53,264.53,0,0,1,41.26-.84c6.88.4,14,.95,20.79,3.12,3.83,1.21,8,1.58,12,2.71a27.71,27.71,0,0,1,17.83,14.46c2.59,5.23,4.88,11,4.4,17.27C727,372.18,728.9,374.15,728.53,376.67Z" transform="translate(-36.8 -15.08)"/></svg>