<svg id="Capa_1" data-name="Capa 1" xmlns="http://www.w3.org/2000/svg" viewBox="0 0 1100.41 1152.22"><defs><style>.cls-1{fill:#fff;}.cls-2{fill:#603a18;}.cls-3{fill:#e4b881;}.cls-4{fill:#568fb4;}.cls-5{fill:#568eb4;}.cls-6{fill:#578fb4;}.cls-7{fill:#568fb5;}.cls-8{fill:#cc9979;}.cls-9{fill:#d7857c;}.cls-10{fill:#845432;}.cls-11{fill:#eecbb4;}.cls-12{fill:#ab6748;}.cls-13{fill:#e1a59d;}.cls-14{fill:#362635;}.cls-15{fill:#372635;}.cls-16{fill:#342634;}.cls-17{fill:#332634;}.cls-18{fill:#d6867c;}.cls-19{fill:#d7877d;}</style></defs><title>5</title><polyline class="cls-1" points="0 1152.21 1100.41 1152.21 1084.65 1096.83 1069.54 1015.03 1042.43 952.42 1001.95 879.59 128.97 856.74 70.94 912.98 42.47 980.87 30.3 1024.45 19.19 1059.76 0.1 1146.41"/><path class="cls-1" d="M502.29,591.72h0a.57.57,0,0,1,0,.13l.1-.06Z" transform="translate(-45.06 -25.16)"/><path class="cls-1" d="M504.22,643.63h0s0,0,0,.07l.07,0-.06,0Z" transform="translate(-45.06 -25.16)"/><path class="cls-1" d="M625.67,273.3c-.07.15-.16.27-.24.41l.89.15Z" transform="translate(-45.06 -25.16)"/><path class="cls-1" d="M749.77,354.79a5.38,5.38,0,0,1-.72-.3c0,.36,0,.71,0,1.08Z" transform="translate(-45.06 -25.16)"/><path class="cls-2" d="M353,475.42a375.59,375.59,0,0,0,80.39,46.05c3.81,1.61,8.24,5.45,12.83.95-11.2-22-19.05-45.22-25.8-68.86-.83-2.93-.61-6.24-4.14-7.64h0c-20.27,6-35.56-2.56-46.77-18.18-16.07-22.38-23-47.71-18.48-75.36a36.42,36.42,0,0,1,15.45-24.44c4.91-3.49,6.91-3.31,6.74,3.25-.34,13.74,2.39,27.13,5.81,40.3,5.07,19.53,13.59,37.2,29.8,50.21,4.13-.36,3.66-3.44,3.67-6.22.09-23.59-.38-47.19,1.91-70.72,5.27-54.33,11.4-108.46,37.21-157.93,8-15.27,18.17-28.57,32-39.38,7.58-5.95,8-1,8.92,4A156.54,156.54,0,0,0,505,190.22c22.29,48.14,60.68,74.45,112.59,82.13,1.94.29,3.9.66,7.84,1.36.08-.14.17-.26.24-.41-15.55-13.62-30.69-24.88-40.25-44.1,8.44,4.16,14.87,7.83,21.67,10.58,20.68,8.35,41.55,16,64.09,17.94,5.22.45,6.09,0,4.19-5.06a194.44,194.44,0,0,1-8.1-27.39c51.23,27,80.8,68,81.78,129.22a5.38,5.38,0,0,0,.72.3c12.91-14.38,21.64-28.57,25.78-45.93.93,6.82,2.32,13.62,2.74,20.47,2.13,35.31,3.17,70.71-.19,105.94-2.31,24.22-3.65,48.73-10.88,72.27.67,10.08-3.4,19.3-5.63,28.78-4.3,18.31-9.84,36.29-17.69,53.48-2.24,4.9-5,9.05-10.25,11,10.72.7-1.85,7.38,4.05,10.07,30.62-10,56-30,78.61-54.2l1.77,1.4q-8.13,16.32-16.25,32.65a116.05,116.05,0,0,0,25.28-16.15c28.93-24,50.9-53.24,59.1-90.22,10.65-48,13.14-96.69,10.37-145.94-2.14-38.17-6.31-75.76-15.25-112.94-7.83-32.54-20.05-63.35-37.62-91.49C827.52,108,805,87.52,778.46,71.82a363.45,363.45,0,0,0-84.31-36,258.58,258.58,0,0,0-95.78-9.6C573,28.51,549,36.36,529.75,53.92c-6.75,6.16-13.24,8.64-21.62,7.28-6.47-1.06-12.8-.41-19.27-.16-40.82,1.53-71.53,21.74-96.4,52.15a194.2,194.2,0,0,0-28.64,48.53,630.3,630.3,0,0,0-24.08,67.1,548.71,548.71,0,0,0-17.39,82.53c-4.78,36.75-6.84,73.45-2.8,110.27,1.16,10.62,1.35,21.55,5,31.83h0C335.4,459,343.4,468.22,353,475.42Zm467.22-79.24c2.31-13.08,4.92-26.14,6.48-39.32.85-7.09,3.48-6.61,8.37-4.11,8.9,4.53,14.15,11.78,16.81,21.2,8.57,30.37-14.14,73.69-45.9,85A623.52,623.52,0,0,0,820.18,396.18Z" transform="translate(-45.06 -25.16)"/><path class="cls-3" d="M660.66,958.1a801.5,801.5,0,0,0,140.06-24h0c28.54-8.56,56.5-18.76,84.32-29.37,29-13.45,58-27,83.91-46-18.09-9.63-36.66-18.27-55.44-26.47C868.79,812.8,822.48,797.43,777,780c-26.76-10.25-54-19.89-67.52-48.51-14.48,1.63-28.39-2.15-42.47-4.37-48.17-7.58-90.37-28.71-129.27-57.17-11.43-8.36-22.29-17.49-33.42-26.27l-.07,0c-1,4.33,1.34,9.13-1.85,13.15h0c-.9,19.35-5,38.15-10.85,56.49-8.7,27-24.94,46.86-52.46,57.71-72.43,28.56-147,52-216.4,88,23.21,17,49,29.51,74.85,41.73,2.77,1.31,5.49,2.7,8.23,4h0c27.95,10.45,56,20.47,84.54,29.34h0a823.85,823.85,0,0,0,104,20.3A814.09,814.09,0,0,0,660.66,958.1Z" transform="translate(-45.06 -25.16)"/><path class="cls-4" d="M66.55,1121.94l528.31,0h528.31c2.18,0,4.37-.16,6.53,0,4.65.39,6.09-1.29,4.84-6-2.5-9.31-5-18.63-6.78-28.1-1.29-7-4.21-9.43-11.7-9.43q-516.18.32-1032.35.2c-3.74,0-7.51.36-11.19-.07-5-.58-7.26,1.41-8.28,6.28-1.84,8.81-4.25,17.5-6.37,26.26C55.26,1121.92,55.28,1121.94,66.55,1121.94Z" transform="translate(-45.06 -25.16)"/><path class="cls-5" d="M85.17,1049.43q255.22,0,510.44,0H987.53c40.13,0,80.25-.22,120.38.16,8.28.08,9.38-2.28,6.69-9.42a196.28,196.28,0,0,1-7.72-24.93c-1.73-7.46-5.52-9.24-13-9.23q-431.11.33-862.23.19c-45.42,0-90.83.1-136.24-.16-5.93,0-9.06,1.48-10.55,7.45-2.11,8.43-5,16.66-7.56,25C74,1049.36,74,1049.43,85.17,1049.43Z" transform="translate(-45.06 -25.16)"/><path class="cls-6" d="M108.82,977.54h965.61c4.36,0,8.72-.25,13.06,0,5,.34,6-1.39,4.29-6-4-10.79-8.12-21.48-13.92-31.5-2.44-4.22-5.17-5.88-10.33-5.85-45.71.28-91.43.22-137.14.17q-64.83-.06-129.67-.3h0c-1.7,4.21-5.85,4.29-9.29,5.17a760.23,760.23,0,0,1-123.9,21c-27.53,2.39-55.11,4.31-82.75,3.64-62.3-1.51-123.87-8.78-184.31-24.38-3.73-1-8.23-.92-10.19-5.41h0c-4.35.13-8.7.37-13,.37q-115.22,0-230.44-.07c-34.07,0-34.07,0-45.62,32.08C97.21,977.54,97.21,977.54,108.82,977.54Z" transform="translate(-45.06 -25.16)"/><path class="cls-6" d="M400.47,939.54c60.44,15.6,122,22.87,184.31,24.38,27.64.67,55.22-1.25,82.75-3.64a760.23,760.23,0,0,0,123.9-21c3.44-.88,7.59-1,9.29-5.17a801.5,801.5,0,0,1-140.06,24,814.09,814.09,0,0,1-166.4-3.67,823.85,823.85,0,0,1-104-20.3C392.24,938.62,396.74,938.58,400.47,939.54Z" transform="translate(-45.06 -25.16)"/><path class="cls-7" d="M1131.26,1151.1q-534.72.51-1069.43.28c-13.06,0-12.61.09-15.41,13.1-3.27,15.18-1.09,12.75,11.34,12.75q268.76.06,537.51,0h536.59c15,0,14.61,0,12.64-14.6C1143.38,1154.35,1140.86,1151.09,1131.26,1151.1Z" transform="translate(-45.06 -25.16)"/><path class="cls-8" d="M690.53,601c-14.47,6.9-28.25,15.53-44.33,18.5-51.54,9.5-100.52,5.55-143.82-27.72l-.1.06c-.66,17.31,3.12,34.45,1.94,51.78h0l.06,0c4.27-1.48,6.92,1.78,9.69,4.13,25.65,21.72,53.11,40.52,83.49,55.21,27.17,13.15,56.12,19.23,85.46,24.44,8.81,1.56,18,.64,26.52,4-17.32-37.43-20.09-77.18-18.77-117.59q-.07-6.43-.14-12.88Z" transform="translate(-45.06 -25.16)"/><path class="cls-9" d="M597.46,703c-30.38-14.69-57.84-33.49-83.49-55.21-2.77-2.35-5.42-5.61-9.69-4.13,11.13,8.78,22,17.91,33.42,26.27,38.9,28.46,81.1,49.59,129.27,57.17,14.08,2.22,28,6,42.47,4.37-8.52-3.39-17.71-2.47-26.52-4C653.58,722.24,624.63,716.16,597.46,703Z" transform="translate(-45.06 -25.16)"/><path class="cls-10" d="M503.47,644c.25-.12.5-.21.74-.3,0,0,0-.05,0-.07h0c-1.55-1.5-1-3.44-1.13-5.24-.56-10.32,1.48-20.74-3.14-30.88-1.95-4.26-1.12-9.75.72-14.53a8.66,8.66,0,0,1,1.61-1.13.57.57,0,0,0,0-.13h0c-23.12-19.17-40.36-43.09-55.67-68.58-3.36,6-8.79,2.73-12.69.86-14.53-6.94-29.84-12.3-43.57-20.89-19.44-12.18-38.75-24.56-56.07-39.75a69.29,69.29,0,0,1-9.69-9.91c.14,2.48-.05,5,.49,7.43,7.06,31.31,18.08,61,36,87.88,11.75,17.59,25.42,33.3,45.23,47.31-3.47-10.71-2.9-19.21-4.12-27.52.76-.16,1.25-.38,1.35-.27,24.16,29.25,55.92,43.1,93.11,45.67,5.5.38,5.66,3.44,5.64,7.46-.05,11.81,0,23.63,0,35.44h0C504.1,652.68,502.29,648.21,503.47,644Z" transform="translate(-45.06 -25.16)"/><path class="cls-10" d="M334.29,463.36c17.32,15.19,36.63,27.57,56.07,39.75,13.73,8.59,29,13.95,43.57,20.89,3.9,1.87,9.33,5.17,12.69-.86-.15-.24-.3-.48-.44-.72h0c-4.59,4.5-9,.66-12.83-.95A375.59,375.59,0,0,1,353,475.42c-9.56-7.2-17.56-16.4-28.36-22h0A69.29,69.29,0,0,0,334.29,463.36Z" transform="translate(-45.06 -25.16)"/><path class="cls-11" d="M504.21,643.7c-.24.09-.49.18-.74.3-1.18,4.21.63,8.68-1.11,12.85C505.55,652.83,503.2,648,504.21,643.7Z" transform="translate(-45.06 -25.16)"/><path class="cls-12" d="M502.28,591.85a8.66,8.66,0,0,0-1.61,1.13c-1.84,4.78-2.67,10.27-.72,14.53,4.62,10.14,2.58,20.56,3.14,30.88.1,1.8-.42,3.74,1.13,5.24C505.4,626.3,501.62,609.16,502.28,591.85Z" transform="translate(-45.06 -25.16)"/><path class="cls-4" d="M227.69,865.75c-2.42-1.56-6.05-2.5-5-6.74-3.4-2.5-6.63-2.2-10.33-.2-21.94,11.87-43,25.1-62.26,40.94-1.52,1.24-4,2.13-3,5H305.73c-19.7-4.49-36.39-15.67-54.05-24.65C243.39,875.93,235.54,870.8,227.69,865.75Z" transform="translate(-45.06 -25.16)"/><path class="cls-4" d="M222.65,859c-1,4.24,2.62,5.18,5,6.74,7.85,5,15.7,10.18,24,14.39,17.66,9,34.35,20.16,54.05,24.65-2.74-1.35-5.46-2.74-8.23-4C271.61,888.52,245.86,876,222.65,859Z" transform="translate(-45.06 -25.16)"/><path class="cls-4" d="M963.61,865.59c-21.35,13.84-43.91,25.47-66.93,36.24C893,903.57,889,903.9,885,904.75h162c-23.08-19.76-46.16-34.17-70.35-47-3.26-1.73-5.24,0-7.71,1h0C969.36,862.78,966.12,864,963.61,865.59Z" transform="translate(-45.06 -25.16)"/><path class="cls-4" d="M896.68,901.83c23-10.77,45.58-22.4,66.93-36.24,2.51-1.63,5.75-2.81,5.34-6.79h0c-26,19-54.92,32.51-83.91,46C889,903.9,893,903.57,896.68,901.83Z" transform="translate(-45.06 -25.16)"/><path class="cls-10" d="M761.45,525.41c1.09-4.66,2.9-9.17,3.42-13.94-8.74,14.9-16.09,30.58-27.42,44-13.58,16.15-26.63,32.54-45.29,43.25a5.33,5.33,0,0,0-1.44,1.92,8.31,8.31,0,0,1,.84.57c2.46,4.41,1.75,8.59-.89,12.63,14.64-3.34,29.22-6.87,43-13.08h0C749.61,578.14,755.32,551.71,761.45,525.41Z" transform="translate(-45.06 -25.16)"/><path class="cls-10" d="M743.9,589.8c7.85-17.19,13.39-35.17,17.69-53.48,2.23-9.48,6.3-18.7,5.63-28.78q-1.2,1.95-2.35,3.93c-.52,4.77-2.33,9.28-3.42,13.94-6.13,26.3-11.84,52.73-27.8,75.4h0C738.91,598.85,741.66,594.7,743.9,589.8Z" transform="translate(-45.06 -25.16)"/><path class="cls-12" d="M691.56,601.26a8.31,8.31,0,0,0-.84-.57,2.32,2.32,0,0,1-.19.31h0q.08,6.43.14,12.88C693.31,609.85,694,605.67,691.56,601.26Z" transform="translate(-45.06 -25.16)"/><path class="cls-3" d="M512.66,595.67c18.69,12.33,38.75,21.9,61.06,23.9,36.76,3.31,73.42,3.46,106.83-16.44,2.94-1.76,6.08-4.62,9.89-2.58-.59-2.82,1.61-4.08,3.48-5.4,28.7-20.43,49.43-47.45,65.45-78.48,1.53-3,2-7.25,5.61-8.66,0-.21,0-.4,0-.61,7-30.07,10.27-60.58,11.11-91.43.36-13.34,2.53-26.63,1.7-40-1.13-18-1.31-36-3.25-53.91a30.23,30.23,0,0,1-.37-3.55c-2.4,11.15-9.23,21.12-16.45,30.86-2,2.65-4,6.55-7.9,5.46l0,0-.69.78c0-.37,0-.72,0-1.08-3.16-1.45-2.8-5.35-2.89-8.43-.84-31.09-11.89-58.27-31.71-81.92-11.86-14.16-26.23-25.41-43.75-35.27,1.74,8.34,4.47,14.77,6.3,21.44,2.26,8.3.87,10.31-7.83,9.6-21.67-1.78-41.75-9.49-61.75-17.3a111.79,111.79,0,0,1-16.27-7.88c8.13,12.39,17.84,20.44,27,29,1.36,1.26,3,2.17,4.42,3.42,1.8,1.64,4.34,3.21,3.11,6.11l0,.06.65.56-.89-.15c-1.36,2.36-4.07,1.76-6.29,1.4-16.62-2.71-32.94-6.48-48.27-13.8-44.06-21.06-67.86-57.68-79.76-103.49-2.68-10.31-3.94-10.77-12.06-3.35-20.92,19.12-32.22,43.95-40.72,70.22-13.49,41.7-18.55,84.83-21.82,128.36-1.47,19.61-.94,39.14-1.61,58.7-.15,4.15,1.28,9.54-4.9,10.93,6.82,5.83,7,13.7,6.36,21.82,3.81,1,5.27,4.08,6.17,7.47a440.07,440.07,0,0,0,23.94,66.34,9.71,9.71,0,0,1,.75,3.61c-.12.28-.25.51-.38.76,6.65,2.71,8.27,9.78,11.61,15,11.49,17.84,24.66,34.08,40.64,48.05,1.79,1.56,4.21,2.92,3.2,6l.09.07C506.62,589.59,509.67,593.7,512.66,595.67ZM697.53,378.13c-4.43,8.36-12,8.73-16.18.34-7.47-15-7.59-30.63.22-45.6,4.14-8,11-7.59,15.59.3a39.91,39.91,0,0,1,5,21.73C702.33,363.46,701.24,371.15,697.53,378.13ZM680,276c21.88-2.75,42.73,9.25,53.15,31.78-28.85-18-57.82-25.6-88.26-2.38C648.13,290.23,663.27,278.06,680,276ZM609,444.67c6.56-6.25,8.71-12.88,6.64-22.23-4.67-21.08-5.64-42.69-7.48-64.15l3-.53c2.84,13.69,5.95,27.34,8.42,41.1,1.74,9.71,2.54,19.58,3.86,29.37,1,7.26-1.56,12.35-8,16.3-4.58,2.84-8.3,7.08-14.06,12.14C602.16,449.59,606.2,447.35,609,444.67Zm56,56.44c-32.87,29.07-98.14,25.93-126-3.72C604.3,520.38,605.51,515.93,665,501.11ZM463.19,304c7.72-18.15,21.08-28.18,40.18-28.42,22.76-.27,38.15,12.08,48.75,32.29C523.13,290.16,493.93,281.73,463.19,304Zm37.48,74.25c-3.9-6.92-4.92-14.57-4.76-22.42-.1-7.83.84-15.53,4.69-22.45,4.56-8.21,12.07-8.58,16.2-.36,7.51,14.93,7.62,30.48.11,45.44C512.71,386.84,505.28,386.48,500.67,378.29Z" transform="translate(-45.06 -25.16)"/><path class="cls-3" d="M446.84,522.68c.13-.25.26-.48.38-.76a9.71,9.71,0,0,0-.75-3.61A440.07,440.07,0,0,1,422.53,452c-.9-3.39-2.36-6.43-6.17-7.47l-.12,1.42c3.53,1.4,3.31,4.71,4.14,7.64,6.75,23.64,14.6,46.88,25.8,68.86h0Z" transform="translate(-45.06 -25.16)"/><path class="cls-3" d="M622.59,267.13c-1.38-1.25-3.06-2.16-4.42-3.42-9.18-8.54-18.89-16.59-27-29a111.79,111.79,0,0,0,16.27,7.88c20,7.81,40.08,15.52,61.75,17.3,8.7.71,10.09-1.3,7.83-9.6-1.83-6.67-4.56-13.1-6.3-21.44,17.52,9.86,31.89,21.11,43.75,35.27,19.82,23.65,30.87,50.83,31.71,81.92.09,3.08-.27,7,2.89,8.43-1-61.27-30.55-102.17-81.78-129.22a194.44,194.44,0,0,0,8.1,27.39c1.9,5,1,5.51-4.19,5.06-22.54-1.94-43.41-9.59-64.09-17.94-6.8-2.75-13.23-6.42-21.67-10.58,9.56,19.22,24.7,30.48,40.25,44.1l0-.06C626.93,270.34,624.39,268.77,622.59,267.13Z" transform="translate(-45.06 -25.16)"/><path class="cls-3" d="M757.71,349.35c7.22-9.74,14-19.71,16.45-30.86a1.84,1.84,0,0,1,.18-.84c-.05.28-.12.56-.18.84a30.23,30.23,0,0,0,.37,3.55C776.47,340,776.65,358,777.78,376c.83,13.39-1.34,26.68-1.7,40-.84,30.85-4.08,61.36-11.11,91.43,0,.21,0,.4,0,.61a7.21,7.21,0,0,1,2.24-.47c7.23-23.54,8.57-48.05,10.88-72.27,3.36-35.23,2.32-70.63.19-105.94-.42-6.85-1.81-13.65-2.74-20.47-4.14,17.36-12.87,31.55-25.78,45.93l0,0C753.75,355.9,755.74,352,757.71,349.35Z" transform="translate(-45.06 -25.16)"/><path class="cls-13" d="M774.16,318.49c.06-.28.13-.56.18-.84A1.84,1.84,0,0,0,774.16,318.49Z" transform="translate(-45.06 -25.16)"/><path class="cls-3" d="M414.9,411.75c.67-19.56.14-39.09,1.61-58.7,3.27-43.53,8.33-86.66,21.82-128.36,8.5-26.27,19.8-51.1,40.72-70.22,8.12-7.42,9.38-7,12.06,3.35,11.9,45.81,35.7,82.43,79.76,103.49,15.33,7.32,31.65,11.09,48.27,13.8,2.22.36,4.93,1,6.29-1.4-3.94-.7-5.9-1.07-7.84-1.36-51.91-7.68-90.3-34-112.59-82.13a156.54,156.54,0,0,1-12.54-38.77c-.87-5-1.34-9.95-8.92-4-13.79,10.81-24,24.11-32,39.38-25.81,49.47-31.94,103.6-37.21,157.93-2.29,23.53-1.82,47.13-1.91,70.72,0,2.78.46,5.86-3.67,6.22.43.32.83.65,1.21,1C416.18,421.29,414.75,415.9,414.9,411.75Z" transform="translate(-45.06 -25.16)"/><path class="cls-3" d="M680.55,603.13c-33.41,19.9-70.07,19.75-106.83,16.44-22.31-2-42.37-11.57-61.06-23.9-3-2-6-6.08-10.28-3.88,43.3,33.27,92.28,37.22,143.82,27.72,16.08-3,29.86-11.6,44.33-18.5a4.64,4.64,0,0,1-.09-.46C686.63,598.51,683.49,601.37,680.55,603.13Z" transform="translate(-45.06 -25.16)"/><path class="cls-3" d="M499.09,585.69c-16-14-29.15-30.21-40.64-48.05-3.34-5.18-5-12.25-11.61-15l-.22.46c15.31,25.49,32.55,49.41,55.67,68.58h0C503.3,588.61,500.88,587.25,499.09,585.69Z" transform="translate(-45.06 -25.16)"/><path class="cls-13" d="M446.18,522.41h0c.14.24.29.48.44.72l.22-.46Z" transform="translate(-45.06 -25.16)"/><path class="cls-3" d="M765,508c-3.62,1.41-4.08,5.69-5.61,8.66-16,31-36.75,58.05-65.45,78.48-1.87,1.32-4.07,2.58-3.48,5.4l.28.14a5.33,5.33,0,0,1,1.44-1.92c18.66-10.71,31.71-27.1,45.29-43.25,11.33-13.47,18.68-29.15,27.42-44A23.41,23.41,0,0,0,765,508Z" transform="translate(-45.06 -25.16)"/><path class="cls-13" d="M764.87,511.47q1.15-2,2.35-3.93A7.21,7.21,0,0,0,765,508,23.41,23.41,0,0,1,764.87,511.47Z" transform="translate(-45.06 -25.16)"/><path class="cls-13" d="M690.53,601h0a2.32,2.32,0,0,0,.19-.31l-.28-.14A4.64,4.64,0,0,0,690.53,601Z" transform="translate(-45.06 -25.16)"/><path class="cls-8" d="M388.64,401.36c-11.54-19.36-15.61-41-17.71-63-.21-2.15.14-4.34-.45-6.47-.18-.62-.52-1.11-1.59-1.74-7.24,3-10.81,9.46-13.46,16.35-10.74,27.91,4.64,76,29.54,92.89,9.48,6.44,20.12,6.21,30.86,5.2-2.22-7.24-2.95-14.95-6.5-21.78C398.64,419.33,393.8,410,388.64,401.36Z" transform="translate(-45.06 -25.16)"/><path class="cls-8" d="M415.83,444.55c-10.74,1-21.38,1.24-30.86-5.2-24.9-16.91-40.28-65-29.54-92.89,2.65-6.89,6.22-13.39,13.46-16.35,1.07.63,1.41,1.12,1.59,1.74.59,2.13.24,4.32.45,6.47,2.1,22.08,6.17,43.68,17.71,63,5.16,8.66,10,18,20.69,21.41-.19-.35-.34-.72-.54-1.07-16.21-13-24.73-30.68-29.8-50.21-3.42-13.17-6.15-26.56-5.81-40.3.17-6.56-1.83-6.74-6.74-3.25A36.42,36.42,0,0,0,351,352.38c-4.53,27.65,2.41,53,18.48,75.36,11.21,15.62,26.5,24.17,46.77,18.18h0C416.09,445.47,416,445,415.83,444.55Z" transform="translate(-45.06 -25.16)"/><path class="cls-3" d="M409.33,422.77c3.55,6.83,4.28,14.54,6.5,21.78l.52-.05h0c.64-8.12.46-16-6.36-21.82a5.07,5.07,0,0,1-.56.13Z" transform="translate(-45.06 -25.16)"/><path class="cls-9" d="M409.44,422.81a5.07,5.07,0,0,0,.56-.13c-.38-.33-.78-.66-1.21-1,.2.35.35.72.54,1.07Z" transform="translate(-45.06 -25.16)"/><path class="cls-9" d="M416.35,444.5l-.52.05c.13.46.26.92.41,1.37h0l.12-1.42Z" transform="translate(-45.06 -25.16)"/><path class="cls-8" d="M851.84,374c-2.66-9.42-7.91-16.67-16.81-21.2-4.89-2.5-7.52-3-8.37,4.11-1.56,13.18-4.17,26.24-6.48,39.32a623.52,623.52,0,0,1-14.24,62.74C837.7,447.64,860.41,404.32,851.84,374Z" transform="translate(-45.06 -25.16)"/><path class="cls-14" d="M516.91,378.5c7.51-15,7.4-30.51-.11-45.44-4.13-8.22-11.64-7.85-16.2.36-3.85,6.92-4.79,14.62-4.69,22.45-.16,7.85.86,15.5,4.76,22.42C505.28,386.48,512.71,386.84,516.91,378.5Z" transform="translate(-45.06 -25.16)"/><path class="cls-15" d="M697.16,333.17c-4.61-7.89-11.45-8.26-15.59-.3-7.81,15-7.69,30.56-.22,45.6,4.17,8.39,11.75,8,16.18-.34,3.71-7,4.8-14.67,4.61-23.23A39.91,39.91,0,0,0,697.16,333.17Z" transform="translate(-45.06 -25.16)"/><path class="cls-16" d="M552.12,307.91c-10.6-20.21-26-32.56-48.75-32.29-19.1.24-32.46,10.27-40.18,28.42C493.93,281.73,523.13,290.16,552.12,307.91Z" transform="translate(-45.06 -25.16)"/><path class="cls-17" d="M733.16,307.74C722.74,285.21,701.89,273.21,680,276c-16.74,2.1-31.88,14.27-35.11,29.4C675.34,282.14,704.31,289.71,733.16,307.74Z" transform="translate(-45.06 -25.16)"/><path class="cls-18" d="M665,501.11c-59.48,14.82-60.69,19.27-126-3.72C566.85,527,632.12,530.18,665,501.11Z" transform="translate(-45.06 -25.16)"/><path class="cls-19" d="M623.5,428.23c-1.32-9.79-2.12-19.66-3.86-29.37-2.47-13.76-5.58-27.41-8.42-41.1l-3,.53c1.84,21.46,2.81,43.07,7.48,64.15,2.07,9.35-.08,16-6.64,22.23-2.82,2.68-6.86,4.92-7.54,12,5.76-5.06,9.48-9.3,14.06-12.14C621.94,440.58,624.48,435.49,623.5,428.23Z" transform="translate(-45.06 -25.16)"/></svg>