<svg id="Capa_1" data-name="Capa 1" xmlns="http://www.w3.org/2000/svg" viewBox="0 0 1131 1144.44"><defs><style>.cls-1{fill:#f7f0ec;}.cls-2{fill:#cc5456;}.cls-3{fill:#b83233;}.cls-4{fill:#b93233;}.cls-5{fill:#e5b09f;}.cls-6{fill:#222220;}.cls-7{fill:#c08342;}.cls-8{fill:#daa869;}.cls-9{fill:#895425;}.cls-10,.cls-14{fill:#e7b141;}.cls-11{fill:#f9f2ee;}.cls-12{fill:#000307;}.cls-13{fill:#fff;opacity:0.1;}.cls-14{stroke:#dc911b;stroke-miterlimit:10;stroke-width:0.5px;}</style></defs><title>avatar irais</title><polygon class="cls-1" points="350.41 1144.44 814.18 1144.44 814.18 927.37 350.84 915.2 350.41 1144.44"/><path class="cls-2" d="M93.81,1026.66a64.26,64.26,0,0,1,20.35-13.47c22.73-9.71,45-20.37,67.21-31.22-.18-.63-.35-1.27-.53-1.9h0c-7.56,1.23-14,5.36-20.42,8.92-25.37,14.06-55.52,19.56-76.08,42.25C88.89,1032.63,91.29,1029.16,93.81,1026.66Z" transform="translate(-34.5 -35.28)"/><path class="cls-2" d="M1036.9,991.07c-10.45-5.64-21.55-10.25-32.34-15.39-.26-.17-.53-.32-.8-.48-6.33,8.24-7.59,18.69-11.07,28.07-21.05,56.79-45.66,112-70.32,167.32-2.18,4.88-5.09,7.65-10.9,7.26-6.46-.44-13-.1-19.3-.1-1.55-3.65.81-5.52,2.23-7.73,30.35-47,53.84-97.56,76-148.77,7.61-17.58,14.89-35.3,22.31-53a11.45,11.45,0,0,1-1-1.36c-.34-9.62,4.49-17.8,7.93-26.22s1.4-13.19-6.15-17.73c-33.39-20-70.34-30.12-107.72-38.9-30.36-7.12-61.35-10.63-92.19-14.93l-.86-.38a881,881,0,0,1-22.28,125.69h0c-2.2,8.62-4,17.38-6.67,25.85-19,60-39,119.61-95.27,159.24h486.31c1.37,0,2.75-.11,4.12,0,5.56.52,7.13-1.81,6.35-7.3-6.89-48.53-17.16-95.89-46.29-136.89h0c-1.4.05-2.91-.06-3.84-1.06C1093.8,1011.39,1063.11,1005.24,1036.9,991.07Z" transform="translate(-34.5 -35.28)"/><path class="cls-2" d="M793.61,869.15c30.84,4.3,61.83,7.81,92.19,14.93,37.38,8.78,74.33,18.86,107.72,38.9,7.55,4.54,9.54,9.43,6.15,17.73s-8.27,16.6-7.93,26.22a11.45,11.45,0,0,0,1,1.36l.38-.9h0c1.83-5.14,3.59-10.3,5.49-15.41,9.48-25.55,9.61-25.8-15.61-38.3C923.12,884,858.51,873.5,793,866.93c-.06.62-.14,1.22-.2,1.84Z" transform="translate(-34.5 -35.28)"/><path class="cls-2" d="M1093.42,1013.66c-29.26-13.7-58.79-26.85-88.21-40.22-.51.57-1,1.16-1.45,1.76.27.16.54.31.8.48,10.79,5.14,21.89,9.75,32.34,15.39,26.21,14.17,56.9,20.32,78.28,43.24.93,1,2.44,1.11,3.84,1.06C1111.52,1026.92,1103.75,1018.49,1093.42,1013.66Z" transform="translate(-34.5 -35.28)"/><path class="cls-3" d="M186.08,988.49c20.69,60.74,45.87,119.65,72.6,177.92,4.23,9.21,8.79,10.41,24.91,7-6.42-12.22-13.45-23.92-20-35.83-27.47-49.57-49.12-101.81-71.35-153.8-1.06-2.48-1.91-5-1.58-7.64-2.14,2.35-5.21,3.6-8,5.17C184.61,983.17,185.2,985.92,186.08,988.49Z" transform="translate(-34.5 -35.28)"/><path class="cls-3" d="M190.61,976.13a9.1,9.1,0,0,1,.6-2.3l-10.37,6.24h0a7.12,7.12,0,0,1,1.77,1.23C185.4,979.73,188.47,978.48,190.61,976.13Z" transform="translate(-34.5 -35.28)"/><path class="cls-3" d="M190.61,976.13c-.33,2.64.52,5.16,1.58,7.64,22.23,52,43.88,104.23,71.35,153.8,6.6,11.91,13.63,23.61,20,35.83-16.12,3.42-20.68,2.22-24.91-7-26.73-58.27-51.91-117.18-72.6-177.92-.88-2.57-1.47-5.32-3.47-7.19-.27.15-.54.3-.8.46l-.44.21c1.58,5.62,3,11.28,4.92,16.79,11.26,32.71,24.46,64.67,38,96.5,10.83,25.53,22.16,50.84,33.21,76.27,1.41,3.26,2.72,6.27,7.09,6.21,8-.11,16,0,25.73,0-41-65.28-69.58-134.23-98.66-202.91A10.33,10.33,0,0,1,190.61,976.13Z" transform="translate(-34.5 -35.28)"/><path class="cls-3" d="M190.61,976.13a10.33,10.33,0,0,0,1-1.33c-.14-.32-.28-.64-.41-1A9.1,9.1,0,0,0,190.61,976.13Z" transform="translate(-34.5 -35.28)"/><path class="cls-3" d="M182.61,981.3a7.12,7.12,0,0,0-1.77-1.23c.18.63.35,1.27.53,1.9l.44-.21C182.07,981.6,182.34,981.45,182.61,981.3Z" transform="translate(-34.5 -35.28)"/><path class="cls-4" d="M988.12,986.87c-23.47,56.7-48.31,112.76-79.33,165.86-4.07,7-9.13,13.4-12.73,21,18.88,2.82,20.44,2.13,27.67-13.69,26.5-58,51.65-116.53,72.89-176.69,1.19-3.35,1.75-7.56,5.19-9.2-3-1.48-6.13-2.73-8.46-5.15C994.1,975.6,990.46,981.19,988.12,986.87Z" transform="translate(-34.5 -35.28)"/><path class="cls-4" d="M993.35,969c2.33,2.42,5.48,3.67,8.46,5.15a7.83,7.83,0,0,1,3.4-.71l-12.12-6.05h0A15.39,15.39,0,0,1,993.35,969Z" transform="translate(-34.5 -35.28)"/><path class="cls-4" d="M996.62,983.35c-21.24,60.16-46.39,118.7-72.89,176.69-7.23,15.82-8.79,16.51-27.67,13.69,3.6-7.6,8.66-14,12.73-21,31-53.1,55.86-109.16,79.33-165.86,2.34-5.68,6-11.27,5.23-17.87-.22-.23-.43-.46-.64-.71-7.42,17.66-14.7,35.38-22.31,53-22.16,51.21-45.65,101.75-76,148.77-1.42,2.21-3.78,4.08-2.23,7.73,6.32,0,12.84-.34,19.3.1,5.81.39,8.72-2.38,10.9-7.26,24.66-55.27,49.27-110.53,70.32-167.32,3.48-9.38,4.74-19.83,11.07-28.07q-1-.56-2-1.05C998.37,975.79,997.81,980,996.62,983.35Z" transform="translate(-34.5 -35.28)"/><path class="cls-4" d="M992.71,968.29c.21.25.42.48.64.71a15.39,15.39,0,0,0-.26-1.61h0Z" transform="translate(-34.5 -35.28)"/><path class="cls-4" d="M1003.76,975.2c.46-.6.94-1.19,1.45-1.76a7.83,7.83,0,0,0-3.4.71Q1002.8,974.65,1003.76,975.2Z" transform="translate(-34.5 -35.28)"/><path class="cls-5" d="M782.2,861.1c-9.64-5.43-20.57-8.62-28.79-16.54h0c-.25.81-.53,1.6-.78,2.41-13,40.93-34.89,75.87-74.08,96.12-59.31,30.63-117.28,24.61-171.31-13.4-29.88-21-50.49-50.16-64.17-84-.22-.54-.45-1.07-.66-1.61h0l-57.49,31h0l-10.09,5.58L408,986.21l13.9-1.91c0,.64,0,1.27,0,1.91h0a2.76,2.76,0,0,1,3.47-1.34c39.22,15.37,80,23.29,121.89,26.52a709.64,709.64,0,0,0,124.29-1.17,472.11,472.11,0,0,0,92.3-18.84c3.49-1.07,6.07-1.53,6.65,3.08h0a881,881,0,0,0,22.28-125.69c.06-.62.14-1.22.2-1.84C789.37,865,785.76,863.1,782.2,861.1Z" transform="translate(-34.5 -35.28)"/><path class="cls-2" d="M570.08,1175.78c-25.84-12.28-47.33-30.21-66.15-51.45-36.13-40.79-61.32-88.15-82.06-138.12-14.83-35.6-27.51-71.92-36.53-109.45-.14-.58-.29-1.15-.43-1.73h0c-39.77.69-79,6.06-117.66,15-30.33,7-59.87,16.53-86.19,34.13-5.32,3.56-6.27,6.74-3.93,12.47,5,12.28,9.42,24.82,14.08,37.25.13.33.27.65.41,1,29.08,68.68,57.61,137.63,98.66,202.91-9.73,0-17.73-.08-25.73,0-4.37.06-5.68-3-7.09-6.21-11-25.43-22.38-50.74-33.21-76.27-13.5-31.83-26.7-63.79-38-96.5-1.89-5.51-3.34-11.17-4.92-16.79-22.19,10.85-44.48,21.51-67.21,31.22a64.26,64.26,0,0,0-20.35,13.47c-2.52,2.5-4.92,6-9.47,4.58-6.62,9.55-13.52,18.89-18.78,29.37-16.82,33.54-24.64,69.57-30.16,106.29-1.88,12.52-1.89,12.65,10.7,12.65h530C572.8,1177.47,571.52,1176.46,570.08,1175.78Z" transform="translate(-34.5 -35.28)"/><path class="cls-6" d="M1083,852.3c-24.39-27.79-53.4-50.21-83-72-27.3-20.12-56-38.42-81.1-61.44-23.37-21.44-34.35-47.79-31.69-79.93,2.14-25.82,9.66-50.36,15.87-75.23,6.62-26.5,14.62-52.7,17.26-80.07-8.07,31.76-27,56.73-49.79,79.18-2.45,2.4-5.43,4.56-9.26,3.35-1.95,26.67-20.41,37.31-43.39,25.48a8.74,8.74,0,0,0-.71,1.13c-13.45,34-29.52,66.5-53.13,94.66-31.95,38.13-70.37,66.65-120.71,74.52-61.63,9.64-117.72-3.53-166.69-43.67-36-29.49-59.55-67.61-78-109.47-2.35-5.33-4.23-10.87-6.75-16.11-.1-.2-.21-.38-.31-.57-21.66,11.24-40.31,0-42-26-5.25,1.28-8.68-2.25-11.77-5.47-29.67-30.9-51.88-65.63-56.71-109.12-.51-1.82-1-3.65-1.54-5.46.72,19.21,4.16,38.06,7.6,56.91,6.7,36.7,17.91,72.3,26.55,108.52,12,50.16-1.22,90.41-43.45,120.76-22.8,16.38-45.35,33.11-68,49.75-32.9,24.21-64.92,49.4-90.23,82-38.72,49.85-48.68,104.48-28.85,164.06a40,40,0,0,0,1.84,7,42.49,42.49,0,0,0,8.28,13.72c3.21,3.5,12.33,12.1,38.83,14.84,29.76,3.07,64.65-2.91,78.17-1.47,15.38,1.64,15.69,3.62,30.14,4.44,23.76,1.34,30.45-4,51.19-5.2,34.28-2,36.94,10.82,63.8,6.68,6.23-1,30.52-4.7,47.47-23.74,17.46-19.61,18.27-45.48,17.19-62.62.18.5.35.95.51,1.38l-.53-1.55c-.22-3.49-.52-6.62-.77-9.24a150.23,150.23,0,0,0-6.29-29.89c-.71-19.52,2.9-42.61,18.08-62.77,21.21-28.16,40.85-18.53,54.9-43,7.3-12.72,9.94-29.18,8.49-44.77,63.08,4.38,125.17.29,183.51-28.06C687.27,759.32,696,754,706,748.56c3.71,19.84,8.59,39,10.58,58.54,1.91,18.8,10.53,30,28.51,34.56h0c1-2.3,2.76-4.06,5.26-3.32,2.82.83,3.92,3.2,3,6.21h0c8.22,7.92,19.15,11.11,28.79,16.54,3.56,2,7.17,3.89,10.75,5.83,65.56,6.57,130.17,17.1,190,46.75,25.22,12.5,25.09,12.75,15.61,38.3-1.9,5.11-3.66,10.27-5.49,15.41l12.12,6.05c29.42,13.37,59,26.52,88.21,40.22,10.33,4.83,18.1,13.26,25.6,21.71h0c6.94-16.93,10.5-34.64,11.86-52.8C1134.69,931.91,1115.71,889.59,1083,852.3Z" transform="translate(-34.5 -35.28)"/><path class="cls-6" d="M421.87,986.21l-1.16-3.12c.7,2,1.16,3.11,1.16,3.12Z" transform="translate(-34.5 -35.28)"/><path class="cls-7" d="M719.45,725.91c4.06-11.25,3.78-16.83,2.9-20.94-14.8-69.05-280.13-100.09-300.6-62.05-3.74,7,4,10,24.16,52.69,3.51,7.43,18.31,39.23,28.59,73,17.05,55.94,5.7,64.8,18.91,74C535.18,871.72,688.71,811,719.45,725.91Z" transform="translate(-34.5 -35.28)"/><path class="cls-1" d="M460.09,386.19a5.9,5.9,0,0,1,.49.59.47.47,0,0,0,.06.09c.2-.33.41-.64.6-1Z" transform="translate(-34.5 -35.28)"/><path class="cls-1" d="M803.1,372.6a44.6,44.6,0,0,1,3.22,6.45A7.65,7.65,0,0,0,803.1,372.6Z" transform="translate(-34.5 -35.28)"/><path class="cls-8" d="M349.64,566.09h0c.32-6.94,2.8-13.32,5.13-19.73,1.26-3.45,3.3-6.35,7.56-5,4.79,1.52,3.28,5,2.22,8.36-2.68,8.6-7.37,17.07-2.34,26.37h0c6.53,2.95,13.56,4.94,19,10,5.27-1.21,10.41-2.07,12.55,4.85,12.33,28.19,25,56.16,43.5,81.09,36.56,49.28,83.63,81.66,145.56,88.73,66.47,7.58,122.74-13.67,168.31-62.85,26.66-28.78,45.48-62.35,60.2-98.42,1.27-3.1,2.89-6,4.35-9.07,3.14-6.53,8.66-5.28,14.09-4.32h0c5.34-5.16,12.42-7,18.92-10,4.62-8.5,1.16-16.41-1.82-24.33-1.41-3.76-4.43-8.24,1.44-10.23,5.08-1.72,7.1,2.83,8.5,6.77,2.05,5.76,4.2,11.54,4.48,17.76,27.32-20.75,44.36-48.91,57.6-79.82a28.31,28.31,0,0,1,1.45-2.64h0c9.15-27.24,15.49-54.69,6.26-83.32-11.38-18.35-26.37-30.2-49.44-28.66-16.32,1.09-26.06,10.57-26.2,26.89-.28,32.32-2.35,64.4-12.28,95.46-1,3.18-2.32,6.26-4.22,11.32-9.3-18-14.64-35.35-19.44-52.88-6.45-23.58-10.78-47.47-8.74-72.08,0-.45.05-.88.05-1.3a44.6,44.6,0,0,0-3.22-6.45l-.15-.13c-40.15-31.39-65.57-74.19-90.53-117.31a156.87,156.87,0,0,1-8.21-15.4c-2.73-6.26-5.09-6-10.07-1.67C656.5,271.21,617.07,302,574.86,329.16c-13.23,8.5-26.77,16.5-41,25.22,13.22,5.73,24.38,13,32.6,26.15-45.15-16.78-81.2,4.31-118.68,28.22,2.76-9.57,8.46-14.72,12.83-21.88a.47.47,0,0,1-.06-.09,5.9,5.9,0,0,0-.49-.59c-17.75,4.62-34.46,7.89-51.61,8.3-6.17.15-4.17,5.57-4.38,8.69-2.21,33.22-11.89,64.47-24.37,95-.75,1.83-1.84,3.52-2.89,5.51-7.06-10.85-12.1-32.29-14.7-55.7-2.27-20.5-2.34-41.08-3.4-61.62-.33-6.36-2.84-8.85-8.25-11-34-13.28-68.34,8.65-70.59,45.37-.36,5.74.42,11.6-1.7,17.17h0c-.36,2.86-1.36,5.83,1.43,8.12a2.7,2.7,0,0,1,1.11,1.64c.11,1.29.29,2.55.43,3.83,4.69,16.75,9.07,33.6,17.22,49.18C311.44,525.72,326.51,549.05,349.64,566.09Zm360-95c-5.49,9.14-14.43,9.46-18.9,0-7.71-16.35-7.62-33.22,1-49.22,5.12-9.46,13.35-8.75,18.77.8,4,7.1,4.45,14.95,4.82,23.07C715.17,454.38,714.32,463.2,709.59,471.08Zm18.57-109.3c18.39,11.22,33.63,25.6,43.4,45.61-36.45-22.21-72.75-43.78-119.56-25.15C670.91,352.92,701.47,345.48,728.16,361.78Zm-141,198.93c4-30.32,8.17-60.63,12.14-91,.6-4.59,2.52-9,7.07-8.45,8.38,1,4.21,8.49,5.57,13.35-3,24.24-5.55,48.6-9.09,72.82-2.44,16.73,3.66,22.5,20.24,17.54,3.25-1,6.35-2.59,9.65-3.24s6.26.34,7.33,4c1,3.34-.24,5.84-3.13,7.91-9.87,7.06-36.41,6.47-45.95-1C586.79,569.48,586.51,565.26,587.12,560.71Zm-48.71,59.83c2.62-5.51,7.46-3,11.61-1.12,45.58,20.24,88.29,17,127.51-15.45,3.52-2.9,7.23-7.63,12.14-2.21,5.54,6.13-.55,9.5-4.08,12.43C665.25,631,639,645.67,602.35,644.05c-19.81,1.1-38.68-4.47-57.15-12.15C539.88,629.69,535.49,626.66,538.41,620.54ZM508,420.65c4.93-7.14,11.34-7.16,16.61-.3,8.74,11.35,9.39,39.66,1.2,51.92-4.94,7.39-12.2,7.6-17.27.21-5.43-7.92-6.89-16.94-6.28-26.26C501.77,437.09,502.68,428.31,508,420.65Z" transform="translate(-34.5 -35.28)"/><path class="cls-6" d="M918.88,486.26c-13.24,30.91-30.28,59.07-57.6,79.82v.07c3.83,1.21,6.81-.95,9.26-3.35,22.83-22.45,41.72-47.42,49.79-79.18h0A28.31,28.31,0,0,0,918.88,486.26Z" transform="translate(-34.5 -35.28)"/><path class="cls-8" d="M811.31,599.49c-14.72,36.07-33.54,69.64-60.2,98.42-45.57,49.18-101.84,70.43-168.31,62.85-61.93-7.07-109-39.45-145.56-88.73-18.48-24.93-31.17-52.9-43.5-81.09-.72.42-1.43.81-2.14,1.18.1.19.21.37.31.57,2.52,5.24,4.4,10.78,6.75,16.11,18.44,41.86,42,80,78,109.47,49,40.14,105.06,53.31,166.69,43.67,50.34-7.87,88.76-36.39,120.71-74.52,23.61-28.16,39.68-60.7,53.13-94.66a8.74,8.74,0,0,1,.71-1.13c-.74-.38-1.48-.78-2.23-1.21C814.2,593.44,812.58,596.39,811.31,599.49Z" transform="translate(-34.5 -35.28)"/><path class="cls-6" d="M349.65,566.17a.22.22,0,0,1,0-.08h0c-23.13-17-38.2-40.37-51.25-65.33-8.15-15.58-12.53-32.43-17.22-49.18,4.83,43.49,27,78.22,56.71,109.12C341,563.92,344.4,567.45,349.65,566.17Z" transform="translate(-34.5 -35.28)"/><path class="cls-6" d="M279.67,410.35c4.84-31.89,41.73-51.83,74.14-36.37,4.41,2.1,6.43,5.71,7.29,10.49,1.9,10.53,2.25,21.13,2.18,31.79-.14,22.44,3.48,44.44,8.15,66.3a56.88,56.88,0,0,0,5.28,14.95c12.62-29.94,21.3-59,23.68-89.73,1.1-14.19.92-14.42,15.2-16.53,10.53-1.55,21.15-2.34,31.55-4.85,4.25-1,9.61-3.89,12.95-.21l1.15-.3c-.19.34-.4.65-.6,1,2.88,4.2-2.87,7.67-4.65,13,31.89-18.91,63.36-36.46,102.4-23.43-4.88-7.66-4.88-7.66-17.9-15.64-9.89-6.06-9.91-8.36.42-14.37A819.72,819.72,0,0,0,617.45,296c22.89-17,45.31-34.57,66.8-53.32,1.55-1.35,3.09-2.72,4.72-4,11-8.6,13.46-7.95,20.14,4.13,22.3,40.34,45.12,80.51,79.1,112.4,6.08,5.71,11.19,11.14,14.89,17.34a7.65,7.65,0,0,1,3.22,6.45,49.29,49.29,0,0,1,3.22,19.25c-.46,31.68,9.06,62.32,21.18,91.76.74,1.8.89,4.13,3.85,5,6.77-15.62,8.76-32.31,10.72-48.93,1.89-16,3.58-32.15,2.24-48.27-1.33-15.95,8.39-24.5,23.31-27.84,20.32-4.54,37.91,2.21,51.18,18.93,2.72,3.43,2.88,7.64,4.57,11.35.67-33.16-4.91-65.47-13.14-97.45-8.14-31.66-22.79-60.69-35.42-90.6-13.53-32.07-30.87-61.36-56-85.23C762.32,70.4,691.4,38.35,608.81,35.49,535.92,33,469.57,53,414.26,101.85,363,147.17,327,203.49,302.72,267.33c-20.94,55-27.49,112.17-24.52,170.66h0C280.05,428.85,278.27,419.58,279.67,410.35Z" transform="translate(-34.5 -35.28)"/><path class="cls-6" d="M870.84,370c-14.92,3.34-24.64,11.89-23.31,27.84,1.34,16.12-.35,32.26-2.24,48.27-2,16.62-3.95,33.31-10.72,48.93-3-.87-3.11-3.2-3.85-5C818.6,460.62,809.08,430,809.54,398.3a49.29,49.29,0,0,0-3.22-19.25c0,.42,0,.85-.05,1.3-2,24.61,2.29,48.5,8.74,72.08,4.8,17.53,10.14,34.9,19.44,52.88,1.9-5.06,3.2-8.14,4.22-11.32,9.93-31.06,12-63.14,12.28-95.46.14-16.32,9.88-25.8,26.2-26.89,23.07-1.54,38.06,10.31,49.44,28.66-1.69-3.71-1.85-7.92-4.57-11.35C908.75,372.23,891.16,365.48,870.84,370Z" transform="translate(-34.5 -35.28)"/><path class="cls-6" d="M350.49,375.44c5.41,2.11,7.92,4.6,8.25,11,1.06,20.54,1.13,41.12,3.4,61.62,2.6,23.41,7.64,44.85,14.7,55.7,1.05-2,2.14-3.68,2.89-5.51,12.48-30.56,22.16-61.81,24.37-95,.21-3.12-1.79-8.54,4.38-8.69,17.15-.41,33.86-3.68,51.61-8.3-3.34-3.68-8.7-.82-12.95.21-10.4,2.51-21,3.3-31.55,4.85-14.28,2.11-14.1,2.34-15.2,16.53-2.38,30.7-11.06,59.79-23.68,89.73a56.88,56.88,0,0,1-5.28-14.95c-4.67-21.86-8.29-43.86-8.15-66.3.07-10.66-.28-21.26-2.18-31.79-.86-4.78-2.88-8.39-7.29-10.49-32.41-15.46-69.3,4.48-74.14,36.37-1.4,9.23.38,18.5-1.47,27.63,2.12-5.57,1.34-11.43,1.7-17.17C282.15,384.09,316.45,362.16,350.49,375.44Z" transform="translate(-34.5 -35.28)"/><path class="cls-6" d="M788.21,355.26c-34-31.89-56.8-72.06-79.1-112.4-6.68-12.08-9.1-12.73-20.14-4.13-1.63,1.27-3.17,2.64-4.72,4C662.76,261.47,640.34,279,617.45,296a819.72,819.72,0,0,1-76.54,50.38c-10.33,6-10.31,8.31-.42,14.37,13,8,13,8,17.9,15.64-39-13-70.51,4.52-102.4,23.43,1.78-5.32,7.53-8.79,4.65-13-4.37,7.16-10.07,12.31-12.83,21.88,37.48-23.91,73.53-45,118.68-28.22-8.22-13.14-19.38-20.42-32.6-26.15,14.2-8.72,27.74-16.72,41-25.22,42.21-27.13,81.64-58,119.28-91.07,5-4.38,7.34-4.59,10.07,1.67a156.87,156.87,0,0,0,8.21,15.4c25,43.12,50.38,85.92,90.53,117.31l.15.13C799.4,366.4,794.29,361,788.21,355.26Z" transform="translate(-34.5 -35.28)"/><path class="cls-9" d="M545.2,631.9c18.47,7.68,37.34,13.25,57.15,12.15,36.63,1.62,62.9-13,83.24-29.86,3.53-2.93,9.62-6.3,4.08-12.43-4.91-5.42-8.62-.69-12.14,2.21-39.22,32.4-81.93,35.69-127.51,15.45-4.15-1.84-9-4.39-11.61,1.12C535.49,626.66,539.88,629.69,545.2,631.9Z" transform="translate(-34.5 -35.28)"/><path class="cls-6" d="M771.56,407.39c-9.77-20-25-34.39-43.4-45.61-26.69-16.3-57.25-8.86-76.16,20.46C698.81,363.61,735.11,385.18,771.56,407.39Z" transform="translate(-34.5 -35.28)"/><path class="cls-7" d="M591,572.72c9.54,7.43,36.08,8,45.95,1,2.89-2.07,4.11-4.57,3.13-7.91-1.07-3.66-4.13-4.62-7.33-4s-6.4,2.27-9.65,3.24c-16.58,5-22.68-.81-20.24-17.54,3.54-24.22,6.11-48.58,9.09-72.82-1.36-4.86,2.81-12.34-5.57-13.35-4.55-.54-6.47,3.86-7.07,8.45-4,30.33-8.11,60.64-12.14,91C586.51,565.26,586.79,569.48,591,572.72Z" transform="translate(-34.5 -35.28)"/><path class="cls-6" d="M691.74,421.84c-8.67,16-8.76,32.87-1,49.22,4.47,9.48,13.41,9.16,18.9,0,4.73-7.88,5.58-16.7,5.74-25.37-.37-8.12-.8-16-4.82-23.07C705.09,413.09,696.86,412.38,691.74,421.84Z" transform="translate(-34.5 -35.28)"/><path class="cls-6" d="M508.52,472.48c5.07,7.39,12.33,7.18,17.27-.21,8.19-12.26,7.54-40.57-1.2-51.92-5.27-6.86-11.68-6.84-16.61.3-5.3,7.66-6.21,16.44-5.74,25.57C501.63,455.54,503.09,464.56,508.52,472.48Z" transform="translate(-34.5 -35.28)"/><path class="cls-10" d="M861.28,566.08c-.28-6.22-2.43-12-4.48-17.76-1.4-3.94-3.42-8.49-8.5-6.77-5.87,2-2.85,6.47-1.44,10.23,3,7.92,6.44,15.83,1.82,24.33a17.93,17.93,0,0,1-1.48,3.47C844.15,585,839,586.43,833,586.3c-1.05,0-2.12-.09-3.21-.19h0c-5.43-1-11-2.21-14.09,4.32.75.43,1.49.83,2.23,1.21,23,11.83,41.44,1.19,43.39-25.48l-.06,0Z" transform="translate(-34.5 -35.28)"/><path class="cls-11" d="M861.22,566.13l.06,0v-.07Z" transform="translate(-34.5 -35.28)"/><path class="cls-10" d="M381.19,586.09c-1.09.11-2.16.18-3.2.2-6,.14-11.19-1.26-14.26-6.67a17.68,17.68,0,0,1-1.52-3.53h0c-5-9.3-.34-17.77,2.34-26.37,1.06-3.4,2.57-6.84-2.22-8.36-4.26-1.35-6.3,1.55-7.56,5-2.33,6.41-4.81,12.79-5.13,19.73l.08.06-.07,0c1.64,25.91,20.29,37.19,42,26,.71-.37,1.42-.76,2.14-1.18C391.6,584,386.46,584.88,381.19,586.09Z" transform="translate(-34.5 -35.28)"/><path class="cls-11" d="M349.64,566.09h0a.22.22,0,0,0,0,.08l.07,0Z" transform="translate(-34.5 -35.28)"/><path class="cls-6" d="M848.68,576.11c-6.5,3-13.58,4.83-18.92,10C836.54,583.66,844.3,583.09,848.68,576.11Z" transform="translate(-34.5 -35.28)"/><path class="cls-6" d="M847.2,579.58c-4.48,2.76-9.46,4.54-14.24,6.72C839,586.43,844.15,585,847.2,579.58Z" transform="translate(-34.5 -35.28)"/><path class="cls-6" d="M833,586.3c4.78-2.18,9.76-4,14.24-6.72a17.93,17.93,0,0,0,1.48-3.47c-4.38,7-12.14,7.55-18.92,10h0C830.84,586.21,831.91,586.27,833,586.3Z" transform="translate(-34.5 -35.28)"/><path class="cls-6" d="M381.19,586.09c-5.42-5.06-12.45-7.05-19-10h0C366.61,583.07,374.37,583.69,381.19,586.09Z" transform="translate(-34.5 -35.28)"/><path class="cls-6" d="M378,586.29c-4.77-2.18-9.77-3.93-14.26-6.67C366.8,585,372,586.43,378,586.29Z" transform="translate(-34.5 -35.28)"/><path class="cls-6" d="M378,586.29c1,0,2.11-.09,3.2-.2-6.82-2.4-14.58-3-19-10a17.68,17.68,0,0,0,1.52,3.53C368.22,582.36,373.22,584.11,378,586.29Z" transform="translate(-34.5 -35.28)"/><path class="cls-8" d="M454,841.08c12.1-3.4,19.18-11.15,21.26-23.69.9-5.39,2.65-10.64,3.95-16,1.25-5.13,3.93-7.34,9.55-6.7,16,1.83,32.18.55,48.28.87,55.87,1.11,109.08-9.1,157.94-37.46,7.08-4.11,9.47-1.81,10.75,5.51,2.76,15.86,6.89,31.57,8.54,47.53,1.88,18.19,11.9,27.44,28.41,31.71a8.87,8.87,0,0,0,2.07,0c.12-.42.23-.84.36-1.26h0c-18-4.54-26.6-15.76-28.51-34.56-2-19.5-6.87-38.7-10.58-58.54-10,5.47-18.74,10.76-27.91,15.22-60,29.13-123.87,32.66-188.74,27.68-9.94-.76-12.22,2.34-13.74,10.28-3.08,16-5,33-24.76,38.25.19.48.4.94.6,1.42C452.3,841.29,453.15,841.19,454,841.08Z" transform="translate(-34.5 -35.28)"/><path class="cls-8" d="M576.19,950.36c78.42,14.06,141.6-26,166.88-101.8.62-1.86,1.14-3.75,1.67-5.63a8.87,8.87,0,0,1-2.07,0c-16.51-4.27-26.53-13.52-28.41-31.71-1.65-16-5.78-31.67-8.54-47.53-1.28-7.32-3.67-9.62-10.75-5.51C646.11,786.49,592.9,796.7,537,795.59c-16.1-.32-32.24,1-48.28-.87-5.62-.64-8.3,1.57-9.55,6.7-1.3,5.33-3.05,10.58-3.95,16-2.08,12.54-9.16,20.29-21.26,23.69-.84.11-1.69.21-2.53.33C475.08,898.16,513.91,939.2,576.19,950.36Z" transform="translate(-34.5 -35.28)"/><path class="cls-12" d="M821.47,406.58c0-3.39-1.33-5.15-4.71-5.57-2.87-.36-5.76-.59-8.64-.83-6-.5-11.91-1-17.85-1.46q-10.35-.89-20.72-1.22c-4.8-.15-9.6-.29-14.4-.29-12.41,0-24.82-.35-37.23.4-7.49.45-15,.76-22.49,1.26q-15.57,1-31.17,1.46-12,.33-23.9.54c-10.64.18-21.28.36-31.93.42-13,.07-26-.27-39-.53-6.06-.12-12.13-.15-18.2-.36-8.36-.28-16.73-.49-25.08-1-5.33-.35-10.66-.63-16-.92-7.49-.42-15-.92-22.49-1.18-5.39-.19-10.79,0-16.18,0-8-.13-16,.06-24.05.21q-9.7.19-19.39.9c-8.7.64-17.39,1.39-26.09,2.16a31.94,31.94,0,0,0-6.31.78c-2.62.76-3.66,2.29-3.53,5,.09,1.81.1,3.62.06,5.43-.15,7-.37,14-.49,21a7.88,7.88,0,0,0,2.25,5.66,19.77,19.77,0,0,1,3.14,4.41,99.4,99.4,0,0,1,6,13.7c3.55,10.43,5.67,21.23,8.15,31.93,1.76,7.6,3.78,15.13,7.36,22.11,4.6,9,10.9,16.33,20.42,20.32,7.55,3.17,15.32,5.48,23.62,5.88,9.59.45,19.16.79,28.77.61a257.77,257.77,0,0,0,30.28-2.28,116.3,116.3,0,0,0,21.37-4.7,48.11,48.11,0,0,0,20.4-12.61,61.3,61.3,0,0,0,11.23-17.49c4.26-9.68,7.68-19.7,11.45-29.58,2.14-5.6,4.05-11.29,7.19-16.44a15.56,15.56,0,0,1,22.7-4.67c3,2.25,4.76,5.4,6.33,8.68,3.44,7.2,5.75,14.86,8.7,22.26,3.11,7.81,5.66,15.86,9.51,23.38,4.59,9,10.62,16.69,19.51,21.83,6.76,3.91,14.12,6.13,21.69,7.66,13.92,2.81,28,3.8,42.2,4,7.06.12,14.12-.16,21.18-.36a79.28,79.28,0,0,0,23.4-3.88c8-2.71,15.06-6.69,20.41-13.4a59.21,59.21,0,0,0,9.64-18c3-8.8,4.59-18,6.8-27,2-8.13,3.83-16.31,7.31-24,1.77-3.94,3.13-8.18,6.12-11.38,2.74-2.94,3.35-6.3,3.08-10C821.41,421.8,821.41,414.19,821.47,406.58Zm-245.19,49c-1.57,8.61-3.08,17.24-4.8,25.82-2.68,13.35-8.55,25-19.19,33.82-4.71,3.91-10.32,6-16.08,7.82a124.27,124.27,0,0,1-25.09,4.73,243.25,243.25,0,0,1-27.25,1.2c-12.61-.24-25-1.71-37-6.13a58.68,58.68,0,0,1-5.65-2.58c-5.7-2.82-8.79-7.89-11.48-13.29a81.63,81.63,0,0,1-7.07-22.62c-1.84-10.56-2.74-21.24-3.62-31.92-.49-6-1-12-1.17-18a28.18,28.18,0,0,1,1.63-10.78,16.75,16.75,0,0,1,9.37-9.64,71.89,71.89,0,0,1,22.5-5.48c7.54-.66,15.09-.82,22.64-1.23h7.6c11.73,0,23.46.23,35.14,1.29,13.41,1.22,26.75,2.93,39.72,6.77,5.27,1.57,10.32,3.57,14.47,7.35a22,22,0,0,1,7.28,16.22C578.44,444.58,577.29,450.09,576.28,455.6Zm218.64-8.83c-.35,4.82-.72,9.65-1.19,14.47-.57,5.75-1.18,11.51-1.92,17.25a102,102,0,0,1-5.43,22.56,65.84,65.84,0,0,1-5.93,11.84c-2.82,4.52-7.08,7.11-11.79,9.15a82.63,82.63,0,0,1-20,5.4A131.91,131.91,0,0,1,728.12,529a250.74,250.74,0,0,1-31.47-1.86A104.5,104.5,0,0,1,671,520.81c-9.09-3.58-15.66-10-20.69-18.22a67.57,67.57,0,0,1-9-24.88c-1.34-8.15-3-16.24-4.47-24.36a72.65,72.65,0,0,1-1.54-13.87c.11-8.62,3.87-15.18,11.17-19.67,5.1-3.14,10.82-4.67,16.56-6.06a218.26,218.26,0,0,1,29-4.68c10.27-1.06,20.57-1.49,30.9-1.67,7.2-.13,14.39,0,21.59.21a194.3,194.3,0,0,1,22.86,1.53,65,65,0,0,1,17.74,5.11c6.43,2.94,9.38,8.29,10.22,15C796.09,435.14,795.33,441,794.92,446.77Z" transform="translate(-34.5 -35.28)"/><path class="cls-13" d="M785.15,414.25a65,65,0,0,0-17.74-5.11,194.3,194.3,0,0,0-22.86-1.53c-7.2-.2-14.39-.34-21.59-.21-10.33.18-20.63.61-30.9,1.67a218.26,218.26,0,0,0-29,4.68c-5.74,1.39-11.46,2.92-16.56,6.06-7.3,4.49-11.06,11.05-11.17,19.67a72.65,72.65,0,0,0,1.54,13.87c1.48,8.12,3.13,16.21,4.47,24.36a67.57,67.57,0,0,0,9,24.88c5,8.19,11.6,14.64,20.69,18.22a104.5,104.5,0,0,0,25.65,6.35A250.74,250.74,0,0,0,728.12,529a131.91,131.91,0,0,0,20.49-1.58,82.63,82.63,0,0,0,20-5.4c4.71-2,9-4.63,11.79-9.15a65.84,65.84,0,0,0,5.93-11.84,102,102,0,0,0,5.43-22.56c.74-5.74,1.35-11.5,1.92-17.25.47-4.82.84-9.65,1.19-14.47.41-5.82,1.17-11.63.45-17.48C794.53,422.54,791.58,417.19,785.15,414.25Z" transform="translate(-34.5 -35.28)"/><path class="cls-13" d="M571,422.72c-4.15-3.78-9.2-5.78-14.47-7.35-13-3.84-26.31-5.55-39.72-6.77-11.68-1.06-23.41-1.27-35.14-1.29h-7.6c-7.55.41-15.1.57-22.64,1.23a71.89,71.89,0,0,0-22.5,5.48,16.75,16.75,0,0,0-9.37,9.64,28.18,28.18,0,0,0-1.63,10.78c.13,6,.68,12,1.17,18,.88,10.68,1.78,21.36,3.62,31.92A81.63,81.63,0,0,0,429.78,507c2.69,5.4,5.78,10.47,11.48,13.29a58.68,58.68,0,0,0,5.65,2.58c11.92,4.42,24.35,5.89,37,6.13a243.25,243.25,0,0,0,27.25-1.2,124.27,124.27,0,0,0,25.09-4.73c5.76-1.77,11.37-3.91,16.08-7.82,10.64-8.85,16.51-20.47,19.19-33.82,1.72-8.58,3.23-17.21,4.8-25.82,1-5.51,2.16-11,2-16.66A22,22,0,0,0,571,422.72Z" transform="translate(-34.5 -35.28)"/><path class="cls-14" d="M750.36,838.34c-2.5-.74-4.25,1-5.26,3.32h0c-.13.42-.24.84-.36,1.26-.53,1.88-1,3.77-1.67,5.63-25.28,75.8-88.46,115.86-166.88,101.8-62.28-11.16-101.11-52.2-124.73-109-.2-.48-.41-.94-.6-1.42-4.8-2.78-8.29-2.82-8.46,4h0c.21.54.44,1.07.66,1.61,13.68,33.87,34.29,63,64.17,84,54,38,112,44,171.31,13.4,39.19-20.25,61-55.19,74.08-96.12.25-.81.53-1.6.78-2.41h0C754.28,841.54,753.18,839.17,750.36,838.34Z" transform="translate(-34.5 -35.28)"/><circle class="cls-6" cx="407.9" cy="816.54" r="2.32"/><circle class="cls-6" cx="495.74" cy="910.76" r="2.32"/><circle class="cls-6" cx="416.36" cy="833.7" r="2.32"/><circle class="cls-6" cx="508.72" cy="917.86" r="2.32"/><circle class="cls-6" cx="525.06" cy="923.19" r="2.32"/><circle class="cls-6" cx="566.97" cy="929.69" r="2.32"/><circle class="cls-6" cx="543.91" cy="927.97" r="2.32"/><circle class="cls-6" cx="591.95" cy="927.97" r="2.32"/><circle class="cls-6" cx="635.63" cy="914.76" r="2.32"/><circle class="cls-6" cx="656.49" cy="903.66" r="2.32"/><circle class="cls-6" cx="677.36" cy="887.15" r="2.32"/><circle class="cls-6" cx="694.88" cy="866.38" r="2.32"/><circle class="cls-6" cx="707.49" cy="845.33" r="2.32"/><circle class="cls-6" cx="714.91" cy="828.55" r="2.32"/><circle class="cls-6" cx="719.42" cy="814.72" r="2.32"/><circle class="cls-6" cx="614.05" cy="922.98" r="2.32"/><circle class="cls-6" cx="426.19" cy="850.39" r="2.32"/><circle class="cls-6" cx="434.66" cy="861.89" r="2.32"/><circle class="cls-6" cx="446.9" cy="876.07" r="2.32"/><circle class="cls-6" cx="461.09" cy="889.06" r="2.32"/><circle class="cls-6" cx="478.43" cy="901.57" r="2.32"/><path class="cls-14" d="M729.52,828.59c-2.23-1.12-3.79,1.56-4.68,5.08h0c-.11.64-.22,1.28-.32,1.93-.47,2.88-.93,5.76-1.48,8.6-22.5,115.72-78.7,176.88-148.48,155.41-55.4-17-89.94-79.69-111-166.33-.18-.73-.36-1.44-.53-2.17-4.27-4.23-7.38-4.31-7.53,6.19h0c.19.83.39,1.64.59,2.46,12.17,51.71,30.51,96.2,57.09,128.29,48.07,58,99.64,67.22,152.4,20.45,34.87-30.91,54.3-84.25,65.91-146.74.22-1.23.47-2.44.69-3.68h0C733,833.48,732,829.86,729.52,828.59Z" transform="translate(-34.5 -35.28)"/><path class="cls-14" d="M604.17,1067.11l-1.65,0c-28.12-1-47.41-27.54-67.83-55.62-37.44-51.51-62-114-73.11-185.74a2.21,2.21,0,0,1,1.69-2.57,2.08,2.08,0,0,1,2.37,1.83c11,71,35.28,132.79,72.29,183.71,19.81,27.24,38.52,53,64.72,53.92,34,1.19,59.1-39.67,97.13-101.57,30.36-49.41,42.26-87.45,35.35-113a80.76,80.76,0,0,0-15.4-29.77,2.37,2.37,0,0,1,.19-3.15,2,2,0,0,1,2.91.2,85.49,85.49,0,0,1,16.26,31.46c2.7,10,10.94,40.58-35.88,116.79C665,1025.71,639.57,1067.11,604.17,1067.11Z" transform="translate(-34.5 -35.28)"/><ellipse class="cls-14" cx="572.35" cy="1044.92" rx="12.06" ry="13.09"/><ellipse class="cls-6" cx="572.35" cy="1044.92" rx="10.94" ry="11.88"/></svg>