<svg id="Capa_1" data-name="Capa 1" xmlns="http://www.w3.org/2000/svg" viewBox="0 0 1013.97 1164.72"><defs><style>.cls-1{fill:#fff;}.cls-2{fill:#578fb4;}.cls-3{fill:#e2a89e;}.cls-4{fill:#3f2d1e;}.cls-5{fill:#e2eff5;}.cls-6{fill:#5d4f44;}.cls-7{fill:#d67f7b;}.cls-8{fill:#76afcf;}.cls-9{fill:#b34f5a;}.cls-10{fill:#b3515b;}.cls-11{fill:#262a3d;}.cls-12{fill:#252a3c;}.cls-13{fill:#c7d8e2;}.cls-14{fill:none;}.cls-15{fill:#7b5b67;}.cls-16{fill:#d6867c;}.cls-17{fill:#cd5754;}.cls-18{fill:#98c1d2;opacity:0.5;}</style></defs><title>avatar 1</title><path class="cls-1" d="M703.68,695.69a19.4,19.4,0,0,0-1.32-1.77A5.8,5.8,0,0,0,703.68,695.69Z" transform="translate(-93.88 -15.37)"/><path class="cls-1" d="M574.85,203.24a3.87,3.87,0,0,1,.36-.82c.09-.15.2-.26.3-.4l-2.23-.1C573.8,202.37,574.33,202.8,574.85,203.24Z" transform="translate(-93.88 -15.37)"/><path class="cls-2" d="M1067.75,991.56c-6.08-28.07-12.1-55.93-34.76-76.46a192.6,192.6,0,0,0-58.48-36.36c-46.35-18.46-95.74-25.44-143.69-37.83h0c-6.48.68-3.39,4.53-2.46,7.57,9.2,30.25,11.37,61.19,9.84,92.62-.37,7.67-.76,10.17-9.5,6.41-25.48-11-51.93-19-79.72-21.85h0c-12.23,1.08-18.1,11.76-26,18.56-24.67,21.14-50.25,41-78.85,56.24-41,21.9-64.44,20-101.73-7.32-24.78-18.16-48.17-38.22-72.12-57.51-6-4.8-12-9.29-19.49-10-1.85,0-3.71.08-5.56.16h0c-31.25,3.33-61,12.23-90.56,24.68-6.77-38.4,1.23-74.77,10.43-111-3.44.67-6.89,1.26-10.3,2-46.06,10.4-92.38,19.82-136.41,37.6-37.15,15-61.27,41.76-74.18,79.62-14.06,41.22-20.38,84.19-30,126.41-7.11,31.15-13.47,62.47-20.28,94.26,3.52.22,6.21.52,8.91.52q497.73,0,995.46.21c9.38,0,10.87-2.12,8.76-11.33C1093.51,1109.79,1080.55,1050.69,1067.75,991.56Z" transform="translate(-93.88 -15.37)"/><path class="cls-3" d="M583.31,709.78c54.41,2.61,71.39-4.19,117.35-26.23,1.83,3.14.14,7.16,1.7,10.37a19.4,19.4,0,0,1,1.32,1.77h0c1.32-7.1-2.2-14.68,7-20.46,26.8-16.86,47.11-40.63,65-66.4,27.79-40,44.8-84.48,55.25-131.74l2.63-28.66c-1.1-39.87-3.78-79.51-14.18-118.32-6.46-24.13-19.21-45.21-30.65-67-9.29-17.67-18.08-35.51-21.56-55.41-.93-5.32-3.49-6.55-8.91-6-22.94,2.19-45.88,4.32-68.89,5.87-35.7,2.41-71,1.17-106.18-5.11a62.76,62.76,0,0,0-7.69-.44c-.1.14-.21.25-.3.4a3.87,3.87,0,0,0-.36.82c19.49,16.38,38.24,29,60.86,35.54-54.17,2.15-107.72.8-158.72-20.33-8.69-3.6-17.17-7.72-24.68-13.41-4.63-3.51-7.26-3.57-9.22,2.51-13.7,42.6-34.27,82.12-54.53,121.81-15.12,29.61-17.68,62-18.5,94.58-.33,12.91-.05,25.84,0,38.76h0l2.52,14.47h0c.73,3,1.5,6,2.18,9.08,15.1,67.6,45.79,126.43,97.2,173.78,5.35,4.92,13.1,7.22,16.16,14.63,13.74,7.26,27.19,15.16,41.3,21.61A145.64,145.64,0,0,0,583.31,709.78ZM652,327.44c6-21.43,23.45-25.66,41.9-26.26,35-1.14,62.64,12.79,81.11,43.25-38.09-15.41-76.72-17.34-116.2-8.92-2.63.56-5.81,1.59-7.84-.55C648.71,332.56,651.3,330,652,327.44Zm19.65,100.1c-8.76-.57-13.36-6.18-14.15-14.36-.7-7.28,6.49-13.72,14.29-13.87,9.09-.14,13.67,5.08,14.57,13.42C687.21,420.54,679.57,428.05,671.66,427.54Zm-77.18-11.26c6.06-.22,6.1,4.73,6.1,9.18v39.77q0,18.72,0,37.44c0,4.37.17,9.41-6,9.3-5.15-.09-5.64-4.51-5.64-8.59q0-39.19,0-78.38C589,420.9,589.4,416.46,594.48,416.28ZM545.12,567.85c.81-5.85,5.8-5.38,11.11-4.28,24.56,5.1,48.93,2.88,72.64-4.63A142.47,142.47,0,0,0,678,532.41c3.43-2.88,7.46-6.29,11-1.81,3.37,4.27-.48,8.13-3.93,10.8-23.91,18.49-50.7,30.35-80.76,34.37-6.56.88-13.18,1.26-21.62,2.05-7.93-3.08-18.41-.49-28.21-3.69C550.67,572.87,544.31,573.78,545.12,567.85ZM426.63,342.7c-3.28,1.61-6.05,4.94-10.47,4.3,16.21-30,53.64-48.08,86.66-42.6,8.49,1.4,16.88,2.74,24.8,6.15,3.51,1.51,7.13,2.77,7.78,7.7.92,7,4.15,15.34.1,20.38-3.14,3.9-10.44-2.06-15.76-3.65C487.59,325.39,456.69,327.89,426.63,342.7Zm92.16,84.67c-8.4.43-14.22-4.16-14.81-13.06-.57-8.69,3.84-14,12.63-14.9,8.6-.87,15.44,5.15,15.82,14.61C531.86,421.39,527.24,426.93,518.79,427.37Z" transform="translate(-93.88 -15.37)"/><path class="cls-4" d="M367.05,457.56c-.09-28.82-1-57.63,4.64-86.25,3.38-17.09,8.28-33.48,16.46-48.75,18.88-35.25,36.05-71.24,49.57-108.94,5.37-15,8.29-15.65,22.16-7.54,29.36,17.2,61.88,23.41,95,28.06,25.62,3.6,51.46.14,76.86,4.18-21.62-2.77-37.81-15.8-53.95-28.83-1.84-1.48-3.8-3.8-3-6.25-.52-.44-1.05-.87-1.57-1.32l2.23.1c2.16-3.05,6-2.92,9.27-2.22,13.86,2.95,28,2.55,42,4.19,38.91,4.56,77.3-1.12,115.85-4,1.95-.15,3.87-.63,5.81-.85,18.05-2,18.91-1.5,23.54,15.81,5.62,21,15.23,40.33,26.35,58.77,23.72,39.32,32.9,82.51,36,127.57,1,14.27,2.52,28.5,2.49,42.81,5.91-9.37,6.69-20.74,9.91-31,5.54-17.71,8.75-36.15,13-54.28h0c4.18-27.81,9-55.53,9.06-83.79-11.56-44.89-28.57-87.47-55.71-125.35-30.8-43-70.53-73-123.33-84.76-24.91-5.56-49.95-8-75.17-8.45-38.29-.71-76.75-2.14-114.82,2.53-23.83,2.92-47.66,7.57-70.4,16-3.33,1.24-6.46,2.82-10.13,2.15h0a56.68,56.68,0,0,0-14,29.07c-1.16,7.36-4.43,9-11.49,9-28.34,0-48.08,13.53-59.13,39.64-15,35.45-12.72,72.59-10.15,109.62,2.21,32,10,63.1,15,94.66,8.46,31.09,15.49,62.58,26.12,93.06C366.1,454,366.48,455.8,367.05,457.56Z" transform="translate(-93.88 -15.37)"/><path class="cls-4" d="M577.84,209.49c16.14,13,32.33,26.06,53.95,28.83-25.4-4-51.24-.58-76.86-4.18-33.17-4.65-65.69-10.86-95-28.06-13.87-8.11-16.79-7.45-22.16,7.54-13.52,37.7-30.69,73.69-49.57,108.94-8.18,15.27-13.08,31.66-16.46,48.75-5.66,28.62-4.73,57.43-4.64,86.25a11.81,11.81,0,0,0,3,5.14c0-12.92-.29-25.85,0-38.76.82-32.56,3.38-65,18.5-94.58,20.26-39.69,40.83-79.21,54.53-121.81,2-6.08,4.59-6,9.22-2.51,7.51,5.69,16,9.81,24.68,13.41,51,21.13,104.55,22.48,158.72,20.33-22.62-6.51-41.37-19.16-60.86-35.54C574,205.69,576,208,577.84,209.49Z" transform="translate(-93.88 -15.37)"/><path class="cls-4" d="M834.27,401.34c-3.08-45.06-12.26-88.25-36-127.57C787.17,255.33,777.56,236,771.94,215c-4.63-17.31-5.49-17.82-23.54-15.81-1.94.22-3.86.7-5.81.85-38.55,2.83-76.94,8.51-115.85,4-13.92-1.64-28.1-1.24-42-4.19-3.26-.7-7.11-.83-9.27,2.22a62.76,62.76,0,0,1,7.69.44c35.18,6.28,70.48,7.52,106.18,5.11,23-1.55,46-3.68,68.89-5.87,5.42-.51,8,.72,8.91,6,3.48,19.9,12.27,37.74,21.56,55.41,11.44,21.75,24.19,42.83,30.65,67,10.4,38.81,13.08,78.45,14.18,118.32a32.78,32.78,0,0,0,3.19-4.28C836.79,429.84,835.25,415.61,834.27,401.34Z" transform="translate(-93.88 -15.37)"/><path class="cls-3" d="M589,924c3.31,2,6.34,4.44,9.49,6.67h0l6.33-.06h0c15.09-10.94,30.91-21,45.12-33,33.71-28.43,62.42-60.95,78-103.24h0l-7.27-14.19c-12.38,9-27.39,6-40.65,6.54-71.74,2.64-137.54-16.88-196.6-58.15-3.88,22-9.12,43.56-19.37,63.61,5.29,24.18,20.71,42.39,36.38,60.16C525.81,881.13,556,904.28,589,924Z" transform="translate(-93.88 -15.37)"/><path class="cls-5" d="M365,853.77c-6,20.36-7.72,41.39-10.09,62.32-.13,1.16-.18,2.33-.21,3.5-.23,7.87-1.07,17.78,3.36,22.62,5.29,5.77,12.88-2.85,19.6-4.62,21.86-5.76,43.33-13.15,66.12-14.74a31,31,0,0,1,12,1.19,263.78,263.78,0,0,1,36.42-2.55h0c34-.75,67.82,1.09,101.18,8.07-48.3-27.61-90.74-61.85-120.89-109.68-5.2-8.25-12-16.57-8.55-27.74-17.27.49-34.2,2-50.95,7.51-21.62,7.05-41.19,15.39-48,39.79h0C369.08,844.19,366.39,849.21,365,853.77Z" transform="translate(-93.88 -15.37)"/><path class="cls-5" d="M354.62,950.47c29.54-12.45,59.31-21.35,90.56-24.68h0q5.31-1,10.64-1.75a31,31,0,0,0-12-1.19c-22.79,1.59-44.26,9-66.12,14.74-6.72,1.77-14.31,10.39-19.6,4.62-4.43-4.84-3.59-14.75-3.36-22.62,0-1.17.08-2.34.21-3.5,2.37-20.93,4.06-42,10.09-62.32,1.35-4.56,4-9.58,0-14.34h0C355.85,875.7,347.85,912.07,354.62,950.47Z" transform="translate(-93.88 -15.37)"/><path class="cls-5" d="M445.2,925.79c1.85-.08,3.71-.13,5.56-.16A22.77,22.77,0,0,0,445.2,925.79Z" transform="translate(-93.88 -15.37)"/><path class="cls-5" d="M472.54,819.87c30.15,47.83,72.59,82.07,120.89,109.68,1.68.35,3.36.7,5,1.08h0c-3.15-2.23-6.18-4.69-9.49-6.67-33-19.68-63.17-42.83-88.61-71.67-15.67-17.77-31.09-36-36.38-60.16C460.54,803.3,467.34,811.62,472.54,819.87Z" transform="translate(-93.88 -15.37)"/><path class="cls-6" d="M546,53.09c40.68.25,81.38-1.4,121.93,4.25C723.21,65,768.56,90.06,804.24,132.88c29.88,35.86,47.8,77.86,62.31,121.57a45.42,45.42,0,0,1,2.13,20.61c2.73-3.85,1.82-8.3,1.85-12.5.27-28.58-3.21-56.75-9-84.72C845.33,100.34,800.7,50.07,723,30a452.44,452.44,0,0,0-101.55-14.4C571.88,14.24,523.33,19,476.84,37.3c-22.27,8.76-43.34,19.58-57.72,39.91,9.4-7,20.75-9.14,31.69-11.88C482,57.51,513.73,52.89,546,53.09Z" transform="translate(-93.88 -15.37)"/><path class="cls-4" d="M429.25,75.06C452,66.6,475.82,62,499.65,59c38.07-4.67,76.53-3.24,114.82-2.53,25.22.47,50.26,2.89,75.17,8.45,52.8,11.78,92.53,41.77,123.33,84.76,27.14,37.88,44.15,80.46,55.71,125.35a45.42,45.42,0,0,0-2.13-20.61c-14.51-43.71-32.43-85.71-62.31-121.57-35.68-42.82-81-67.85-136.31-75.54-40.55-5.65-81.25-4-121.93-4.25-32.27-.2-64,4.42-95.19,12.24-10.94,2.74-22.29,4.84-31.69,11.88h0C422.79,77.88,425.92,76.3,429.25,75.06Z" transform="translate(-93.88 -15.37)"/><path class="cls-5" d="M717.19,824.22c-26.48,44.61-63.59,78.28-107.26,105.14,31-7.06,62.5-8.54,94.2-7.91a171.59,171.59,0,0,1,39,2.92,17.57,17.57,0,0,1,7.09-1.43c25.24,1.49,48.74,9.91,72.18,18.38,12.35,4.46,12,4.74,12.42-8,1-27.83-1.14-55.26-8.86-82.17-1.13-3.92-5-10.88,4.91-10.29-5.22-1.83-7.85-5.77-9-11-1.16-5.53-3.37-10.94-8.2-13.76-26.45-15.46-53.89-27.57-85.79-21.86C729.28,806.06,722.66,815,717.19,824.22Z" transform="translate(-93.88 -15.37)"/><path class="cls-5" d="M825.91,851.2c7.72,26.91,9.82,54.34,8.86,82.17-.43,12.69-.07,12.41-12.42,8-23.44-8.47-46.94-16.89-72.18-18.38a17.57,17.57,0,0,0-7.09,1.43q3,.58,5.9,1.29h0c27.79,2.83,54.24,10.9,79.72,21.85,8.74,3.76,9.13,1.26,9.5-6.41,1.53-31.43-.64-62.37-9.84-92.62-.93-3-4-6.89,2.46-7.57h0C820.91,840.32,824.78,847.28,825.91,851.2Z" transform="translate(-93.88 -15.37)"/><path class="cls-5" d="M649.92,897.56c-14.21,12-30,22.07-45.12,33h0q2.57-.63,5.13-1.21c43.67-26.86,80.78-60.53,107.26-105.14,5.47-9.21,12.09-18.16,10.69-29.9h0C712.34,836.61,683.63,869.13,649.92,897.56Z" transform="translate(-93.88 -15.37)"/><path class="cls-7" d="M497.06,734.08Q577.72,784.59,672.83,784c16-.06,31.8-3.14,47.78-3.88-11.25-27-15.09-55.53-16.93-84.44h0a5.8,5.8,0,0,1-1.32-1.77c-4.51-5.4-9.27-3.64-15.93-.45-65.57,31.43-129.26,27.3-190.69-11.67a30.3,30.3,0,0,1-7.66-7.14h0q-2.35,26.93-4.72,53.86h0C489.09,727.5,492.88,731.46,497.06,734.08Z" transform="translate(-93.88 -15.37)"/><polygon class="cls-7" points="609.8 680.32 609.8 680.32 609.79 680.32 609.8 680.32"/><path class="cls-7" d="M495.74,681.8c61.43,39,125.12,43.1,190.69,11.67,6.66-3.19,11.42-5,15.93.45-1.56-3.21.13-7.23-1.7-10.37-46,22-62.94,28.84-117.35,26.23a145.64,145.64,0,0,1-53.93-13.51c-14.11-6.45-27.56-14.35-41.3-21.61A30.3,30.3,0,0,0,495.74,681.8Z" transform="translate(-93.88 -15.37)"/><path class="cls-7" d="M680,786.67c13.26-.49,28.27,2.45,40.65-6.54-16,.74-31.81,3.82-47.78,3.88q-95,.39-175.77-49.93c-4.18-2.62-8-6.58-13.7-5.56h0C542.42,769.79,608.22,789.31,680,786.67Z" transform="translate(-93.88 -15.37)"/><path class="cls-7" d="M860.58,369.07a652.64,652.64,0,0,1-18.31,70.33c-1.1,3.41-1.82,7.6-5.56,8.76,0,.4,0,.8,0,1.21-.32,9.57,1,19.48-5.75,27.72,36.29-3.51,66.35-18.18,85.13-50.53,14.51-25,5.27-50.35-20.81-62-11.44-5.1-23.56-5.06-35.63-5.72C861.6,362.1,861.29,365.53,860.58,369.07Z" transform="translate(-93.88 -15.37)"/><path class="cls-7" d="M836.71,448.16a8.12,8.12,0,0,1-3.14.27l-2.63,28.66c6.72-8.24,5.43-18.15,5.75-27.72C836.7,449,836.7,448.56,836.71,448.16Z" transform="translate(-93.88 -15.37)"/><path class="cls-7" d="M846.67,413.13c-3.22,10.28-4,21.65-9.91,31,0,1.34,0,2.67,0,4,3.74-1.16,4.46-5.35,5.56-8.76a652.64,652.64,0,0,0,18.31-70.33c.71-3.54,1-7-1-10.22h0C855.42,377,852.21,395.42,846.67,413.13Z" transform="translate(-93.88 -15.37)"/><path class="cls-7" d="M836.71,448.16c0-1.34,0-2.67,0-4a32.78,32.78,0,0,1-3.19,4.28A8.12,8.12,0,0,0,836.71,448.16Z" transform="translate(-93.88 -15.37)"/><path class="cls-7" d="M367.06,462.16c-1.82-1-2.48-3.33-3.14-5.24A705.11,705.11,0,0,1,338.62,366a10.64,10.64,0,0,1,.75-6.84c-3.51.11-7,.05-10.53.35-18.84,1.64-36,8.2-44.6,25.62-8.86,18-3.89,35.85,8.54,51.33,20.47,25.48,47.42,38.41,79.76,40.7-3.92-4.07-5.11-9.16-5.48-14.56Z" transform="translate(-93.88 -15.37)"/><path class="cls-7" d="M370,462.7h0a4.65,4.65,0,0,1-3-.54v.45c.37,5.4,1.56,10.49,5.48,14.56h0Z" transform="translate(-93.88 -15.37)"/><path class="cls-7" d="M338.62,366a705.11,705.11,0,0,0,25.3,90.91c.66,1.91,1.32,4.2,3.14,5.24,0-1.53,0-3.07,0-4.6-.57-1.76-.95-3.59-1.56-5.33-10.63-30.48-17.66-62-26.12-93.06A10.64,10.64,0,0,0,338.62,366Z" transform="translate(-93.88 -15.37)"/><path class="cls-7" d="M367.06,462.16a4.65,4.65,0,0,0,3,.54h0a11.81,11.81,0,0,1-3-5.14C367.06,459.09,367.06,460.63,367.06,462.16Z" transform="translate(-93.88 -15.37)"/><path class="cls-8" d="M703.6,924.76c-1.2,0-2.39,0-3.58,0a634.63,634.63,0,0,1-77.26,53.62c-13.27,7.74-28.33,8.08-41.45,1.22-29.84-15.59-57.41-34.93-84.56-54.81h-4.22c-10.82,1.31-21.67,1-32.51.84a50.82,50.82,0,0,1,11.53,7.44c20.78,17.26,42.16,33.77,63.14,50.79,3.64,3,7.48,5.68,11.21,8.54,31.69,24.32,64.38,24.79,98.45,4.92,32.3-18.83,61.51-41.71,89.35-66.46a45.19,45.19,0,0,1,6.38-4.9C727.91,925.94,715.78,924.44,703.6,924.76Z" transform="translate(-93.88 -15.37)"/><path class="cls-8" d="M733.7,930.85c-27.84,24.75-57.05,47.63-89.35,66.46-34.07,19.87-66.76,19.4-98.45-4.92-3.73-2.86-7.57-5.57-11.21-8.54-21-17-42.36-33.53-63.14-50.79A50.82,50.82,0,0,0,460,925.62c-3.09,0-6.17,0-9.26,0,7.52.71,13.53,5.2,19.49,10,23.95,19.29,47.34,39.35,72.12,57.51,37.29,27.32,60.74,29.22,101.73,7.32,28.6-15.28,54.18-35.1,78.85-56.24,7.93-6.8,13.8-17.48,26-18.56h0c-3,.23-5.94.29-8.9.29A45.19,45.19,0,0,0,733.7,930.85Z" transform="translate(-93.88 -15.37)"/><path class="cls-8" d="M445.18,925.8h0Z" transform="translate(-93.88 -15.37)"/><path class="cls-8" d="M492.53,924.78h4.22q-2.25-1.63-4.49-3.28h0A263.78,263.78,0,0,0,455.83,924a35.29,35.29,0,0,1,4.19,1.58C470.86,925.74,481.71,926.09,492.53,924.78Z" transform="translate(-93.88 -15.37)"/><path class="cls-8" d="M455.83,924q-5.32.75-10.64,1.75h0a22.77,22.77,0,0,1,5.56-.16c3.09,0,6.17,0,9.26,0A35.29,35.29,0,0,0,455.83,924Z" transform="translate(-93.88 -15.37)"/><path class="cls-8" d="M703.6,924.76c12.18-.32,24.31,1.18,36.48,1.19a22,22,0,0,1,3-1.58,171.59,171.59,0,0,0-39-2.92c-1.36,1.11-2.74,2.19-4.11,3.29C701.21,924.75,702.4,924.74,703.6,924.76Z" transform="translate(-93.88 -15.37)"/><path class="cls-8" d="M740.08,926c3,0,5.93-.06,8.9-.29q-2.94-.7-5.9-1.29A22,22,0,0,0,740.08,926Z" transform="translate(-93.88 -15.37)"/><path class="cls-4" d="M658.82,335.51c39.48-8.42,78.11-6.49,116.2,8.92C756.55,314,728.88,300,693.91,301.18c-18.45.6-35.88,4.83-41.9,26.26-.71,2.52-3.3,5.12-1,7.52C653,337.1,656.19,336.07,658.82,335.51Z" transform="translate(-93.88 -15.37)"/><path class="cls-4" d="M535.5,338.63c4-5,.82-13.42-.1-20.38-.65-4.93-4.27-6.19-7.78-7.7-7.92-3.41-16.31-4.75-24.8-6.15-33-5.48-70.45,12.6-86.66,42.6,4.42.64,7.19-2.69,10.47-4.3,30.06-14.81,61-17.31,93.11-7.72C525.06,336.57,532.36,342.53,535.5,338.63Z" transform="translate(-93.88 -15.37)"/><path class="cls-9" d="M554.51,574.13c9.8,3.2,20.28.61,28.21,3.69,8.44-.79,15.06-1.17,21.62-2.05,30.06-4,56.85-15.88,80.76-34.37,3.45-2.67,7.3-6.53,3.93-10.8-3.55-4.48-7.58-1.07-11,1.81a142.47,142.47,0,0,1-49.15,26.53c-23.71,7.51-48.08,9.73-72.64,4.63-5.31-1.1-10.3-1.57-11.11,4.28S550.67,572.87,554.51,574.13Z" transform="translate(-93.88 -15.37)"/><path class="cls-10" d="M594.61,512c6.14.11,6-4.93,6-9.3q0-18.72,0-37.44V425.46c0-4.45,0-9.4-6.1-9.18-5.08.18-5.52,4.62-5.52,8.72q0,39.18,0,78.38C589,507.46,589.46,511.88,594.61,512Z" transform="translate(-93.88 -15.37)"/><path class="cls-11" d="M671.8,399.31c-7.8.15-15,6.59-14.29,13.87.79,8.18,5.39,13.79,14.15,14.36,7.91.51,15.55-7,14.71-14.81C685.47,404.39,680.89,399.17,671.8,399.31Z" transform="translate(-93.88 -15.37)"/><path class="cls-12" d="M516.61,399.41c-8.79.88-13.2,6.21-12.63,14.9.59,8.9,6.41,13.49,14.81,13.06s13.07-6,13.64-13.35C532.05,404.56,525.21,398.54,516.61,399.41Z" transform="translate(-93.88 -15.37)"/><path class="cls-13" d="M571.26,971.27c20.47,12.77,40.19,12.19,60.21-1,19.54-12.9,38.62-26.43,57.53-40.19a76.9,76.9,0,0,1,8.52-5.32,517.11,517.11,0,0,0-85,7c-2.16.36-4.29.73-6.23-.17-.32.19-.63.4-1,.59a11.58,11.58,0,0,1-6.94.23l-1.27-.73c-3,1.92-6.42,1.26-9.69.51-28.92-6.62-58.3-7.38-87.73-7.41,11.16,5.61,20.79,13.71,31.25,20.46C544.42,953.9,557.69,962.8,571.26,971.27Z" transform="translate(-93.88 -15.37)"/><path class="cls-13" d="M598.42,932.4a11.58,11.58,0,0,0,6.94-.23c.33-.19.64-.4,1-.59a5.58,5.58,0,0,1-1.52-1l-6.33.06a7.71,7.71,0,0,1-1.32,1Z" transform="translate(-93.88 -15.37)"/><path class="cls-13" d="M587.46,932.18c3.27.75,6.69,1.41,9.69-.51-1.25-.7-2.48-1.41-3.72-2.12-33.36-7-67.16-8.82-101.18-8.07h0a68.38,68.38,0,0,1,7.47,3.28C529.16,924.8,558.54,925.56,587.46,932.18Z" transform="translate(-93.88 -15.37)"/><path class="cls-13" d="M598.47,930.63h0c-1.68-.38-3.36-.73-5-1.08,1.24.71,2.47,1.42,3.72,2.12A7.71,7.71,0,0,0,598.47,930.63Z" transform="translate(-93.88 -15.37)"/><path class="cls-13" d="M612.55,931.75a517.11,517.11,0,0,1,85-7q3.24-1.76,6.61-3.28c-31.7-.63-63.2.85-94.2,7.91-1.2.74-2.39,1.49-3.61,2.22C608.26,932.48,610.39,932.11,612.55,931.75Z" transform="translate(-93.88 -15.37)"/><path class="cls-13" d="M609.93,929.36q-2.56.58-5.13,1.21h0a5.58,5.58,0,0,0,1.52,1C607.54,930.85,608.73,930.1,609.93,929.36Z" transform="translate(-93.88 -15.37)"/><path class="cls-13" d="M622.76,978.36A634.63,634.63,0,0,0,700,924.74h-2.5a76.9,76.9,0,0,0-8.52,5.32c-18.91,13.76-38,27.29-57.53,40.19-20,13.22-39.74,13.8-60.21,1-13.57-8.47-26.84-17.37-40.28-26-10.46-6.75-20.09-14.85-31.25-20.46h-3c27.15,19.88,54.72,39.22,84.56,54.81C594.43,986.44,609.49,986.1,622.76,978.36Z" transform="translate(-93.88 -15.37)"/><path class="cls-13" d="M499.73,924.77a68.38,68.38,0,0,0-7.47-3.28q2.24,1.65,4.49,3.28Z" transform="translate(-93.88 -15.37)"/><path class="cls-13" d="M700,924.74c1.37-1.1,2.75-2.18,4.11-3.29q-3.37,1.53-6.61,3.28Z" transform="translate(-93.88 -15.37)"/><path class="cls-14" d="M382.25,389.44a9.23,9.23,0,0,1-2.76,1.79l1.81,1.24C381.6,391.45,381.94,390.45,382.25,389.44Z" transform="translate(-93.88 -15.37)"/><path class="cls-14" d="M361.59,391.94h0c0,.36,0,.71,0,1.07.42,0,.85-.07,1.27-.08-.43-.32-.85-.65-1.25-1Z" transform="translate(-93.88 -15.37)"/><path class="cls-14" d="M801.53,368.68h0c0-.12.06-.25.1-.37l-.31.05.21.32Z" transform="translate(-93.88 -15.37)"/><path class="cls-15" d="M856.66,361.5c-4.08-3.6-5.09,2.58-8,2.89h0l-.18.17c-10.39,10-21,19.85-31.07,30.16-5.32,5.43-7.27,2.63-7.94-2.66-1.08-8.39-4.84-15.73-7.9-23.38h0l-.21-.32c-.84-1.27-1.7-2.52-2.49-3.82-26.85-44.32-86-57.22-128.79-28.14-18.48,12.55-30.86,29.38-36.67,51.07-.93,3.48-1.26,12-7.46,2.75l-2.22-1.42L615,383.17l-1-.65c-15.23-4.76-29.15-2.39-42.13,7-10,7.31-10.24,7.06-14.31-5.12C535.29,318,453.12,298.89,404.72,349c-11,11.35-17.66,25.11-22.47,40.43-.31,1-.65,2-.95,3l-1.81-1.24c-6.83-4.67-13.29-8.56-18.21-14.46h0c-.64-.41-1.26-.85-1.9-1.27a227.39,227.39,0,0,1-29.15-22.67c-.2-.18-.4-.34-.59-.52-5.83,0-7.71,3.6-7.82,8.75l1.05.85,10.79,8.64h0a258.54,258.54,0,0,1,27.93,21.4h0c.4.35.82.68,1.25,1,6.43,4.83,15.52,7.05,16.7,17.07.61,5.25.9,10.55,1.66,15.78,6.58,45,44,77.48,90.66,76.95,46.19-.53,80.49-31.14,88.36-77.21,2.12-12.36,8.14-20.43,17.21-27.35,14.69-11.23,29.85-10.51,40.67,1.62.64.48,1.23,1,1.83,1.48,6,5.07,9.93,11.09,10.42,19.87.43,7.57,3.27,15,5.12,22.49l.12.49h0c1,2.06,2.12,4.1,3.08,6.19C656,488.45,699.47,510,740.28,500.67c27.66-6.33,47.73-22.76,62.12-46.73h0c.11-.33.23-.66.34-1,3.86-11.13,8.74-22,8.55-34.17-.07-3.86,2.48-6.66,5.26-9.14q11-9.81,22-19.68c6.24-7.38,13.67-13.46,21.18-19.46a2.43,2.43,0,0,0,.25-.2h0C863.06,365.82,859.17,363.71,856.66,361.5ZM390.25,410.79c.16-42.77,37.53-79.93,80.15-79.7,44.68.24,80.92,36.73,80.48,81-.44,45.09-36.33,80.37-81.27,79.91C425.77,491.6,390.09,455.06,390.25,410.79Zm250.08.67c-.1-42.79,37.18-80.4,79.63-80.34,45.43.08,81.25,36,81.13,81.36-.12,44.1-36,79.52-80.62,79.5C676.69,492,640.42,455.51,640.33,411.46Z" transform="translate(-93.88 -15.37)"/><path class="cls-16" d="M635.47,443.64a6.17,6.17,0,0,0-.77-.17l-.05,0c.31.21.6.43.94.62h0Z" transform="translate(-93.88 -15.37)"/><path class="cls-17" d="M803.59,452.77c-.31,0-.57.13-.85.19-.11.32-.23.65-.34,1a17.51,17.51,0,0,0,1.38-1.15Z" transform="translate(-93.88 -15.37)"/><path class="cls-18" d="M470.4,331.09c-42.62-.23-80,36.93-80.15,79.7-.16,44.27,35.52,80.81,79.36,81.25,44.94.46,80.83-34.82,81.27-79.91C551.32,367.82,515.08,331.33,470.4,331.09Z" transform="translate(-93.88 -15.37)"/><path class="cls-18" d="M720,331.12c-42.45-.06-79.73,37.55-79.63,80.34.09,44.05,36.36,80.49,80.14,80.52,44.58,0,80.5-35.4,80.62-79.5C801.21,367.11,765.39,331.2,720,331.12Z" transform="translate(-93.88 -15.37)"/></svg>