<svg id="Capa_1" data-name="Capa 1" xmlns="http://www.w3.org/2000/svg" viewBox="0 0 1077.96 1161.88"><defs><style>.cls-1{fill:#7b4140;}.cls-2{fill:#a1524d;}.cls-3{fill:#b9b3ba;}.cls-4{fill:#f5f3f5;}.cls-5{fill:#1c161e;}.cls-6{fill:#d1695e;}.cls-7{fill:#dc947c;}.cls-8{fill:#d67f7a;}.cls-9{fill:#d88470;}.cls-10{fill:#d88370;}.cls-11{fill:#e1a263;}.cls-12{fill:#e1a363;}.cls-13{fill:#fff;}.cls-14{fill:#372836;}.cls-15{fill:#362736;}.cls-16{fill:#3a2937;}.cls-17{fill:#392937;}.cls-18{fill:#c36f57;}.cls-19{fill:#c47058;}.cls-20{fill:#372736;}.cls-21{fill:#382836;}</style></defs><title>3</title><path class="cls-1" d="M288.73,859.39c-22.49-14-43.68-29.51-60.52-50.4-36-44.62-39.7-88.4-11.69-138.31,12.57-22.4,28.93-41.86,47.27-59.48,41.78-40.11,61.34-88.31,56.12-146.31-1.88-21-6.59-41.45-9.57-62.2-14.82-103-.91-199.69,65.43-283.84C401.66,86,435.7,64.71,477.07,56.74c31.65-6.09,61.29.28,87.48,19.26,7.7,5.58,12,4.63,19.81-.52C631.29,44.39,682.18,24,737,50c92.66,43.85,179.66,142.47,170.75,265.76-2.65,36.77-16.27,71-24.55,106.53-7.94,34-13.21,68.35-9.59,103.13,4.91,47.25,32,81.89,67.86,110.47,22.72,18.11,44,37.19,56.8,64.09,31.6,66.29,6.05,134.64-61.53,163.85-1.65-8.81,7.51-7.67,10.88-11.85,61.24-40.19,67-118.58,21.73-173.76,48.85,60.95,33.21,139-21.59,173.4-7.16,3.8-13.1,9.59-20.71,12.67-15.61-.59-29.92-4.35-40.57-16.91,8.19-10.75,19.59-18.53,25.39-31.7,13.24-30.08,2.35-56.3-11.37-82.14C885.59,705.43,866.66,680,848,654.3c-18.43-25.32-34-52.14-44.75-81.88-4.82-13.35-5.52-26.82-5.81-40.25-.37-17.39-.76-35,3-52.24,3.38-5.26,9.63-6.4,14.24-9.91C839.9,450.79,847.85,424,847,393.86c-.27-9.24-4.81-17.92-11.3-24.91-4.36-4.69-9.69-9.57-16.41-7.55-6.4,1.92-4.35,9-5.13,14-2.88,18.3-4.58,36.77-8.34,54.94-1.18,5.71-1.76,12-9.72,12.47-15.85-13.61-18.18-33.11-20.74-51.68a809.13,809.13,0,0,1-6.87-89.05c-.9-33.45-13.57-63.3-28.36-83.34,16.09,20.3,22.19,51.44,22,85.14-.17,37.06-3.57,74.34,3.91,111.19.85,4.17,2,10.27-3.06,11.49-5.2,1.26-6.26-5-7.46-8.87-6.88-22.12-9.19-45.07-9.94-68-.68-20.52-1-41-3.39-61.42-5.93-49.87-34.22-84-76.34-108.25-9.78-5.63-20.65-8.89-31-13.32-9.61-4.13-14.61-1.65-16.18,8.93-3.58,24.08-13.23,45.74-25.92,66.46-19.33,31.56-49,49.51-78.94,64.44,17.75-.17,32.1,9.9,43.29,25.48,2,2.77,3.8,6.31,1,9.35-2.24,2.42-5.55,1.07-8.31.19-4.67-1.5-9-3.91-13.37-6-15.31-7.22-30.57-8.52-46.9-2.47-5.72,2.12-13.07,11.13-19.88-.12-1.5-2.48-2.84,1.95-4.11,3.16-32.95,31.68-37.43,70.37-26.63,112.28,9.94,38.53,30,71.94,53.83,103.4,7.63,10.08,15.48,20.26,17.28,33.46-.48,2.41-1.71,4.05-4.33,4.26-7.53-2.92-7.57-11.55-13.6-17.64,29,44.78,37.75,92.9,34.9,143.79-6.52,61.29-37.12,97.93-93.32,108-42.39,7.61-83.15,21.45-124.09,34.5C302.87,860.4,296,864.56,288.73,859.39Z" transform="translate(-61.02 -38.12)"/><path class="cls-2" d="M698.84,277.15c-28.1-7.85-55.56-17.24-79.69-33.56-1.45,1.27-2.62,1.8-2.67,2.41-1.88,23.85-3.46,24.9-26.25,15.13-31.8-13.62-56.3-36.27-76.07-64-6-8.46-9.29-9.43-16.87-1.81-20,20.16-31.82,45-42.23,70.72-10.65-11.3-22.74-21.11-32.4-33.51-19.39-24.91-29.07-52.52-26.51-84.17C422.35,110.85,466,90.2,515.93,117.4c6.63,3.61,9.21.78,13-3.79C575.4,57.31,667.46,41,731.1,63.45c7.65,4.25,7.42,12.25,8.63,19.22,9.46,54.55,2.06,107-21.05,157.13C712.79,252.58,707.94,266,698.84,277.15Z" transform="translate(-61.02 -38.12)"/><path class="cls-1" d="M698.84,288.85c1.87-17.44,13.35-30.88,19.53-46.57,16.56-42,25.74-84.71,19-130.15-1.84-12.4-2.24-25-6.29-37C796.37,94.21,838.53,136,853.93,202.64c12.91,55.84,3.34,110.37-12.71,164.19-.41,23.38-10.27,42.85-23.87,64.29-4.92-13.69-.58-24.18-3.92-33.95C812.1,348.62,790,307.92,765.8,267.36c-3.9,3.28-2.64,6.35-2.22,8.83,4.94,29.07,6.44,23.71-21.88,20.9C727.28,295.66,713.12,291.68,698.84,288.85Z" transform="translate(-61.02 -38.12)"/><path class="cls-3" d="M933.57,865c-2.08-1.5-5.81.58-6.87-3.15l19.41-11.34a4.59,4.59,0,0,1,2.87,2.63c-2.72,5.11-11.27,3.52-12.24,10.64Z" transform="translate(-61.02 -38.12)"/><path class="cls-2" d="M696,629.85c52.17-36.84,77.56-90.55,94.26-149.73,3.91-2.89,7.83-3.51,11.76,0,1.55,19.35-.75,38.66-.55,58,.33,31.4,13.87,57.63,29.17,82.86C847,648,867,672.74,884.29,699.21c13.79,21.11,27.58,42.4,34.34,67.27,9,33.25-4.86,69.07-31.87,80.92-44.56-17-90.18-31.24-133.81-50.77-17.6-7.88-31.53-19.25-39.53-37.15-4.55-2.44-7-6.52-8.84-11.13-14.22-35.71-13.92-73-11.69-110.4C693.07,635.08,694.77,632.48,696,629.85Z" transform="translate(-61.02 -38.12)"/><path class="cls-4" d="M949,853.16l-2.87-2.63C1005,811,1012.59,727.32,958.83,669.28c19.89,8.32,40.92,46.12,43.58,80.52C1005.9,795,986.18,828.73,949,853.16Z" transform="translate(-61.02 -38.12)"/><path class="cls-5" d="M537.47,694.65c-2.9-2.34-4.28-6.7-9.79-6.69-4.83,8.23,2,18.79-4.07,27C527.46,661,513,611.66,486.39,565.29c-.63-1.1-.54-2.61-1.14-5.84,10.84,8.37,14.38,19.7,20.74,29,19.5,29.57,29.38,62.61,34.93,97.18A9,9,0,0,1,537.47,694.65Z" transform="translate(-61.02 -38.12)"/><path class="cls-5" d="M478.92,306.59c-47.67,30.56-64.28,74.76-55.78,130C405.22,375.74,435.58,324,475.85,303.82,479,302.4,479.38,304,478.92,306.59Z" transform="translate(-61.02 -38.12)"/><path class="cls-5" d="M537.47,694.65c-2.57-32.13-11.23-62.6-24.92-91.71-2.26-4.81-4.38-9.68-6.57-14.53l2.49-2.58c11.52,15,14.83,33.72,23.21,50.12,11.5,20.23,15.61,41.77,11,64.67-1.16,5.75,1,11.76-1.81,17.26v17.2l-3.37,0Z" transform="translate(-61.02 -38.12)"/><path class="cls-5" d="M478.92,306.59l-3.06-2.77c7.27-5.38,15.14-9.4,24.75-9.74Z" transform="translate(-61.02 -38.12)"/><path class="cls-6" d="M916.12,858.22c37.56,15.45,73.48,33.88,106.5,57.76,31.35,22.69,55.12,50.79,65.83,88.78,4,14,8.57,27.9,12.89,41.85-11.4,13.19-28.23,17.13-43.11,23.31a1007.64,1007.64,0,0,1-220.87,63.46c-63.6,10.65-127.39,19.16-192.13,21.11-37.13,1.12-74.27,3-111.35,2-99.82-2.75-198.93-11.9-296.29-35.84C192,1109.43,147,1096.38,103,1079.75c-4.5-1.7-9.55-2.49-12.83-6.62a716.07,716.07,0,0,1,30.61-93c10.54-26.07,30.77-44.95,52.75-61.59,33.67-25.5,71-44.6,110.09-60.2,7.67-2.38,14.46.73,21.2,3.57,92,38.65,188,54.73,287.52,54.75,68.73,0,136.58-4.91,203.81-20,36-8.07,70-21.78,104.5-34C905.77,860.91,910.73,858.88,916.12,858.22Z" transform="translate(-61.02 -38.12)"/><path class="cls-7" d="M511.17,624.1c-12.45-13.33-23.92-27.62-38.33-39-2-3.18-4-6.39-6.82-9-21.35-30.65-33.49-65.25-43.5-100.79-5-24.62-9.58-49.28-7.09-74.6a431.6,431.6,0,0,1,26.83-144.89c7.72-19.51,15.29-39.12,28-56.23a133.83,133.83,0,0,1,11-13.64c14.89-15.39,16.54-15,29.81,1.48,20.1,25,42.86,47,73.28,59.22,14.79,6,15.63,5.56,20.21-10,3-10.22,9.06-6.87,14.61-3.51,22.84,13.83,47.75,22.2,73.44,28.69,15.68,3.77,31.58,6.29,47.5,8.73,9.23,1.41,14.34-.82,12.16-11.57-1.14-5.58-3.5-13.52,2.91-15.75,6.26-2.2,9.52,5.66,12.23,10.43,21.57,38,40.75,76.82,41,122,1.64,30.59-5.4,60.38-8.09,90.56-8.55,22.09-13.32,45.49-23.22,67.15-6.65,14.55-13.82,28.8-22.52,42.22-2.55,3-4.1,6.62-6.18,9.91-4-.75-6.38,1.66-8.5,4.33-13,16.31-29.53,28.85-44.54,43-18.08,17-41.13,21.37-64.32,23.85-37.07,4-72.7-1.3-105.39-20.76C520.14,632.71,514.76,629.56,511.17,624.1Z" transform="translate(-61.02 -38.12)"/><path class="cls-8" d="M90.21,1073.13c3.86.44,8.08,0,11.52,1.45,37.82,15.8,77.23,26.91,116.72,37.16a1152.05,1152.05,0,0,0,135.64,26.39c83.69,11.33,167.72,16.53,252,14,56.78-1.69,113.48-5.24,169.92-13.57,62.58-9.24,124.53-20.66,185.17-38.73a906.9,906.9,0,0,0,125.22-47.22c4.85-2.26,9.93-4,14.91-6,16.19,42.76,25.06,87.45,34.73,131.93.82,3.79,1.66,7.58,2.46,11.38,1.38,6.48-.17,10.6-7.88,10-2.92-.22-5.86,0-8.8,0H77.65c-18.54,0-18.41,0-14.58-18.21C70.76,1145.17,77.36,1108.37,90.21,1073.13Z" transform="translate(-61.02 -38.12)"/><path class="cls-8" d="M916.12,858.22c-8.63,9.85-21.56,10.76-32.65,15.25-54.88,22.24-112.1,34.4-170.85,41.72-52.11,6.48-104.21,6.11-156.31,5C498.86,919,442.47,909.45,386.73,894.8c-35.51-9.34-68.79-24.08-103.06-36.43C314.78,842,348.43,831.94,381,819.25c22.16-8.63,45.42-14.67,65.91-27.3,18.12-11.17,28-28.83,33.47-48.18,3.61-12.79,8.23-18.46,21.41-14.16,14.15-7.6,29.41-4.84,44.06-3.47,15.44,1.43,30.82,2,46.26,2.21,37.46,2.31,75,3.58,112.37,7.25,16.29.25,20.36,12.8,27.22,24.45,12.22,20.8,28.76,37.49,52.56,46.49C828.43,823.25,873.56,837.49,916.12,858.22Z" transform="translate(-61.02 -38.12)"/><path class="cls-9" d="M704.51,735.6c-5.29,3.3-11.18,3.26-17,2.91q-47.3-2.85-94.57-5.87c-26-13.7-49.93-30.37-72.74-48.86-6-4.86-8.21-9.88-8.1-17.38.16-11.14,1.35-22.37-.87-33.47,0-2.94,0-5.89,0-8.83,21,9.69,40.5,22.92,64.16,26.56,38.82,6,76.44,4.32,111.83-14.92,2.5-1.36,5.45-1.92,8.18-2.85A449,449,0,0,0,704.51,735.6Z" transform="translate(-61.02 -38.12)"/><path class="cls-10" d="M804.63,373.73c5,8.64.77,18.29,3.51,29.24,11.59-19.55,17.08-40,24.29-59.6,1.87,1.46,3.55,3.31,5.65,4.29,21,9.8,29.63,26.12,27,49.33a124.91,124.91,0,0,1-20.94,56.72c-7.11,6.78-14.33-3-20.8.08,5.28.46,12.1-.89,14,7.49-13.5,14-25.58,16-38.89,6.56-6-9.85-.54-20.15.78-29.4C802.37,416.89,804.62,395.45,804.63,373.73Z" transform="translate(-61.02 -38.12)"/><path class="cls-9" d="M373.61,360.47c2.78.71,5.69,2.36,8.31,2,11.4-1.65,15.32,4.49,16.52,14.39,1.13,9.33,6.14,17.11,10.48,25.18,5.59,10.39,8.05,4.91,10.46-1.83-3,26,3.88,51.14,6.18,76.68-14.58,11.56-34,6-45.47-13.06,1.6-9.84,10.77-7.34,16.28-10.16-6.67-.34-13.72,5.87-20.82.08C358.37,423,352,392,373.61,360.47Z" transform="translate(-61.02 -38.12)"/><path class="cls-7" d="M511.18,632.93c5,9.7,1.92,20.09,2.31,30.13.28,7.17,1.67,11.87,8.07,17a549,549,0,0,0,59.59,42c4.61,2.79,9.43,5.27,11.74,10.57l-91.08-3c8.55-18.17,9.05-37.61,9.09-57.14C510.92,659.29,511.08,646.11,511.18,632.93Z" transform="translate(-61.02 -38.12)"/><path class="cls-11" d="M375.55,453.73c7.49-1.32,15-2.53,22.46-4,3.57-.71,8.1-3.7,9.1,2.3.81,4.83-4,3.92-7.11,4.74-6.31,1.66-13.26,1.43-18.66,6-15,10.06-29.7,20-38.09,37.29-14.82,30.61-8.08,65.76,18.12,87.8,25.69,21.6,64.6,22.31,91,1.93,5.7-4.4,9.61-11.36,17.53-12.69,6.76.57,4.9,4.27,2.93,8-28.39,32.88-71.16,40.15-108.4,18.42-33.17-19.35-49-63.33-35.41-99.31C337.71,481.22,354.51,465.45,375.55,453.73Z" transform="translate(-61.02 -38.12)"/><path class="cls-12" d="M837,459.87c-5.63-3.57-12-3.19-18.22-3.29-3-.05-6.76-.85-6.43-4.15.47-4.82,4.28-3.48,7.81-2.75,7.95,1.64,16,2.72,24,4,13.63,8.46,26.94,16.83,36.49,30.65,25.37,36.71,18.3,87-16.89,113.92-36.25,27.69-86.53,22.14-115.36-12.75-1.12-3.24-5-7.13,2-8.44,5.54,0,8.58,4.12,12.2,7.27,44.83,39,109.09,18,121.58-39.87,5.79-26.81-8.65-58.08-34-73.78C845.29,467.69,839.16,466.15,837,459.87Z" transform="translate(-61.02 -38.12)"/><path class="cls-13" d="M837,459.87c43.19,15,64,65.48,45,103.77-26.57,53.56-92,60.43-131.59,13.45,18.69-32.71,34.49-66.61,42.31-103.74.73-3.49,2.73-4.88,5.81-5.51C812.9,472.82,825.61,469.65,837,459.87Z" transform="translate(-61.02 -38.12)"/><path class="cls-13" d="M469.91,577.06c-28.52,36.08-78,42.23-111.06,13.8-35-30.05-36.74-79.82-3.62-113.76,7-7.2,15.1-13.8,26.11-14.37,11.86,13.72,25.39,22.23,44.22,14.14l19.79,52.56C451.69,546.25,460.64,561.74,469.91,577.06Z" transform="translate(-61.02 -38.12)"/><path class="cls-14" d="M707.81,389.49c-1.76,9.95.85,25.87-13.37,25.71-12.86-.15-12-16.22-12-26,.1-10-1.37-26.47,13.08-26.11C708.37,363.41,706.55,378.67,707.81,389.49Z" transform="translate(-61.02 -38.12)"/><path class="cls-15" d="M529.51,390.67c-1.72,9.41.59,24.43-12,24.59-13.79.18-12.15-14.86-12.83-25.23-.45-6.81.06-13.59,3.1-20,2-4.21,4.06-8,9.3-7.94s7.23,4.1,9.17,8.23C529.22,376.71,529,383.57,529.51,390.67Z" transform="translate(-61.02 -38.12)"/><path class="cls-16" d="M471.45,337.45c9.62-18.12,22.32-26.89,39.57-27.4,21-.63,35.7,10.38,48.47,29.84-16.78-5.12-29.35-14-44.45-15.31S487.06,330.42,471.45,337.45Z" transform="translate(-61.02 -38.12)"/><path class="cls-17" d="M652.79,336c8.62-17.66,22.29-27.08,41.08-25.87s33.43,10.59,42.09,29C708.7,324,681.46,317.08,652.79,336Z" transform="translate(-61.02 -38.12)"/><path class="cls-18" d="M672.88,522.76c-20.73,21.94-72.94,25.58-97.46,4.58,17.39,5.06,32.8,8.81,48.64,7.42A162.72,162.72,0,0,0,672.88,522.76Z" transform="translate(-61.02 -38.12)"/><path class="cls-19" d="M627.85,397.94c14.6,19.1,21.7,41.29,28.77,63.38,2.9,9.05-7.32,11.42-12.12,17.35,11.79-14.68,1.83-26.81-2.93-39.68C636.56,425.47,632.38,411.64,627.85,397.94Z" transform="translate(-61.02 -38.12)"/><path class="cls-20" d="M529.28,388.91c-2.46,9.7.57,26.92-14,26.7-12.37-.19-12.19-16.45-12.45-27.48-.26-10.85.7-25.6,12.79-25.76C527.91,362.21,528.2,377.09,529.28,388.91Z" transform="translate(-61.02 -38.12)"/><path class="cls-21" d="M681.42,385.91c.42-8.59-.6-22.56,11.7-23.41,13.14-.92,11.19,14.26,14,23.38a15.55,15.55,0,0,1,0,8.66c-2.65,8.48-2.26,22.07-13.09,21.82-11.82-.26-11.24-13.58-12.53-23A66.67,66.67,0,0,1,681.42,385.91Z" transform="translate(-61.02 -38.12)"/><path class="cls-21" d="M649.25,337.17c10.63-18.84,24-27.35,42.14-27.2,21,.17,34.78,12,44.8,29.55-14-5.44-27.2-12.83-42.18-14.69C678.84,323,665.88,330.73,649.25,337.17Z" transform="translate(-61.02 -38.12)"/></svg>