<svg id="Capa_1" data-name="Capa 1" xmlns="http://www.w3.org/2000/svg" viewBox="0 0 1131.13 1139.99"><defs><style>.cls-1{fill:#e4afa0;}.cls-2{fill:#b83131;}.cls-3{fill:#266db3;}.cls-4{fill:#266cb3;}.cls-5{fill:#275496;}.cls-6{fill:#276db3;}.cls-7{fill:#276cb3;}.cls-8{fill:#275497;}.cls-9{fill:#275597;}.cls-10{fill:#3f1f36;}.cls-11{fill:#cc5357;}.cls-12{fill:#3f2036;}.cls-13{fill:#cc5456;}.cls-14{fill:#dd9993;}.cls-15{fill:#d88488;}.cls-16{fill:#d88487;}.cls-17{fill:#402037;}.cls-18{fill:#d88588;}</style></defs><title>9</title><path class="cls-1" d="M380,582.09c18.65,47.3,44.3,89.81,84.54,122,41.95,33.57,90.15,46.07,143.43,41.73,26.73-2.18,51.6-10.3,76.12-20.25h0c2.48-3.77,6.27-5.34,10.47-6.21,28.66-17.28,51.14-41.15,71.6-67.18h0c.33-2.34,1.44-4,3.94-4.39-.71-3.59,1.68-6.07,3.31-8.73a332.78,332.78,0,0,0,29-60.5c1.56-4.32,2.6-9.34,9.16-7.91h0c15.59-6.54,30.19-14.42,42.63-26.3C888,512.1,908.92,473,915.88,427c3.5-23.14-.06-44.93-19.82-61.35-8.1-6.73-18.56-7.05-27.14-12.08h0c-5.87,6.74-13.95,8.84-22.19,8.94-6.92.09-8.22,2.74-8.21,9,0,19.42-2.19,38.61-7.78,57.3A58.86,58.86,0,0,1,821.47,448c-11.41,14.92-30.3,14.37-40.46-1.47-9.63-15-11.23-32.34-12.2-49.49-1.84-32.66.59-65.18,5-97.56-23.09-6.52-46.91-9-70.53-12.28a997.3,997.3,0,0,0-182.92-8.71c-42.14,2-84,6.62-125,17.06h0c0,42.28-.63,84.51-10,126.05a76.92,76.92,0,0,1-8.71,22.92c-6.83,11.38-18,13-28.14,4.22-8.51-7.42-12.16-17.6-14.63-28.09a179.79,179.79,0,0,1-4.28-49.07c.3-6.73.7-11.5-9.09-9.16-9,2.14-16.82-1.5-21-10.64h0c.43,6.31-5.12,5.93-8.68,7.52-16.87,7.58-27.45,20.05-30.51,38.5-4.87,29.42,3.3,56.82,15.18,82.87C291.73,516.49,316,546,350.69,566h0c7.23,1.9,14.38,4.15,21.69,5.58C378.57,572.82,378.44,578.12,380,582.09ZM838.06,442.25c9.71-13.29,19.91-26.19,32.43-37,2.73-2.36,6.29-6.4,10.1-2.35,4,4.27-.91,6.34-3.2,9.41-7.49,10-19,16.43-25,27.78-1.09,2.08-4.61,3.38-3.18,6.17,1.6,3.12,5.16,1.74,7.81,1.61,3.16-.14,6.26-1.37,9.43-1.7,3.62-.39,6.61,1,6.76,5.06a4.85,4.85,0,0,1-5.58,5.2c-29.93-2.89-37.32,17.47-42.2,40.54-.45,2.08-1,4.13-1.62,6.18-.08.27-.55.44-2,1.54C824.75,482.49,824.6,460.7,838.06,442.25ZM486.2,406.43c5.27-8.93,12.57-9.13,18.31-.62,7.84,11.62,8.15,39.08.56,50.37-5,7.45-12,7.75-17.24.47-5.69-7.89-6.73-17-6.52-26.46C481.11,421.89,481.87,413.76,486.2,406.43ZM623.63,659.17c-9.71,5.17-20.18,6.4-32.07,6.26-6.84.76-14.42-1.07-21.85-3.61-4.12-1.41-6.78-4.17-5.54-8.91,1.31-5,4.79-3.69,8.51-3,15.47,3,30.89,4.75,45.77-3,3.36-1.76,7.3-1.45,9.14,2.61C629.52,653.81,627.73,657,623.63,659.17Zm45.72-205.12c-3.53-6.87-4.05-14.36-4.51-21.87.37-9.33,1.23-18.58,6.51-26.7s13.26-8.35,17.58.12c8.32,16.3,7.73,33.08,0,49.5-1.84,3.89-5,7-10.08,6.63S671.36,458,669.35,454.05Zm128.83,26.19c6.87,4.07,11.69,9.79,10.87,18.29s-7,13.06-13.94,16.13c-28.85,12.81-58.52,14.2-88.58,4.81-11.81-3.69-25.07-8.77-25.53-22.59-.42-12.9,12.29-17.79,23.06-22.19,13.43-5.47,27.51-7,43-7.57C764.19,468.14,782.07,470.69,798.18,480.24ZM656.25,341.66c1.88-9.27,8.13-14.91,17.51-14,23.8,2.22,46.42,8.36,65.32,24.14,4.78,4,9,8.36,8.41,14.06.09,13.74-11.41,22.16-22.94,16.59-18.72-9.05-37.7-16.63-58.14-21C657,359.33,654.42,350.72,656.25,341.66ZM566.07,547.94c2.29-18,4.74-36,7.2-54,1.78-13,3.78-26.06,5.43-39.12.57-4.57,1-9,7-8.69,6.87.41,6.49,5.89,6,10.43-1.43,13.45-3.27,26.86-5,40.27-1.81,13.76-4,27.46-5.5,41.26-1.11,10.66-.18,11.13,13.49,11.16,4.94-.18,9.86.51,14.42-2.84,3.53-2.6,7.82-2.39,10,2.2,1.72,3.68.21,6.67-3.29,9.11-10.16,7.07-37.32,6.55-47-1C565.69,554.29,565.67,551.08,566.07,547.94Zm84.48,44.73c2.25-1.75,4.46-3.57,6.77-5.23,3.43-2.46,7.37-6.46,10.78-.87,2.58,4.23,1.48,8.36-2.93,12.15a124.36,124.36,0,0,1-78,30.3c-24.55-.14-43.42-5.32-61.95-12.09a15.19,15.19,0,0,1-5.47-3.3c-2.3-2.33-6.7-4.2-3.78-8.68,2.49-3.81,5.76-4.41,10.23-2.57,12.53,5.17,25.1,10.13,38.72,12.18C596.65,619.35,625.2,612.45,650.55,592.67ZM442.79,352.37c19-16.07,41.94-22.43,66.08-24.81,10.23-1,18.17,7.44,18.52,19.38-.39,7.61-4.67,13.89-13.58,15.37-18.53,3.1-35.51,10.11-52,18.68-9.72,5-18.9,3.21-23.83-4.07C432.41,368.73,434,359.79,442.79,352.37ZM385.57,482.46c7.88-6.56,17.55-9.52,27.35-11.65,27.27-5.94,53.88-4.52,79.29,8.13,7.87,3.92,13.64,9.44,13.43,18.94-.19,9-7.34,12.32-13.73,16.3-16.24,10.11-34.71,9.65-52.7,11.8-18.14-2.27-36.42-3.22-52.09-14.32C373.74,502.17,373,492.9,385.57,482.46Zm-28.72,28.43c-2.94.88-3.36-1.72-4-3.7-3.55-10.81-6-21.9-9.84-32.69-4.56-12.81-14.1-15.91-25.31-17.77-2.43-.41-5,0-7.49-.11-3.54-.13-8.31.25-7.89-4.74.37-4.38,4.48-6,8.15-5.89,5.74,1,12.71,5.41,15.09-.31,2.22-5.32-5.47-9.07-8.85-13.51A204.19,204.19,0,0,0,296.55,410c-2.24-2.19-5.4-4.67-1.53-7.89,3.27-2.72,6-.5,8.39,1.82,17.13,16.28,32.08,34,43.21,55.24,7.92,15.11,7.12,31.68,11.73,47.21C358.9,508.25,358.9,510.27,356.85,510.89Z" transform="translate(-13.85 -23.72)"/><path class="cls-2" d="M497,36.12a13.33,13.33,0,0,0-2.18.68h0C495.56,36.56,496.29,36.35,497,36.12Z" transform="translate(-13.85 -23.72)"/><path class="cls-2" d="M395.84,293.83c4.9-4.16,11.05-4.78,17-6.05,66-14.18,133-15.31,199.89-12.81,50.06,1.87,99.8,8.73,149.14,17.85,4.54.84,9.27,1.41,12.7,5.09.15.59.27,1.17.39,1.75,32.62,4.83,64.52,12.93,96.38,21.24h0c11.27-11,12.64-25.21,11.91-39.51-.9-17.8-5-34.69-20.53-46.24-7.38,4.71-12.63-2.43-19-3.44-11.7-1.86-16.25-9.2-18.77-20.66-8-36.34-22.47-70.44-38.76-103.8-2.64-5.41-6.16-10.49-7.15-16.63h0a45.73,45.73,0,0,0-12.72-10.78c-2.07,6.82,3.63,11,6.24,15.73a482.24,482.24,0,0,1,46,115.28c1,4,1.52,8.2,2.54,13.88a731.68,731.68,0,0,0-76.67-20.1c-9.71-2-14.41-5.18-16.27-16.37-7.66-46.25-22.1-90.78-37.88-134.85-1.68-4.68-4.08-9.19-3.85-14.4h0l-6.24-2.18c-2.64.44-3.23,1.09-2,4.12,14.36,34.32,25.61,69.71,34.88,105.7,3.82,14.83,6.3,30,9.63,45,1.53,6.87-1.29,7.84-7.29,6.85-16.87-2.76-33.81-5.12-50.72-7.67-1.41-.21-2.78-.69-4.19-.85-22.72-2.64-21.77-2.72-23.82-24.53-4-42.92-7.12-86-14.27-128.56-.59-3.51-.39-7.15-.55-10.72h0L611.64,26,603.24,27c9.84-1,12.86,4.42,13.75,13.18,2.85,28,6.35,56,9.18,84,1.83,18.1,2.8,36.28,4.43,54.4.64,7.18-2.23,9.93-9.2,9-21.73-2.91-43.59-2.13-65.41-2-6.73.06-7.44-3.43-7.43-8.8,0-24,3.49-47.73,5.32-71.59,1.72-22.37,5.64-44.58,7.39-66.95.3-3.83,7-8.67-.09-12.57.51-.08,1-.13,1.51-.21a13.43,13.43,0,0,0-1.5.21l-6,.4c3,13.63-1.88,26.69-3.05,40-2.15,24.49-5.51,48.88-7.57,73.39-1.11,13.14-3.48,26.24-2.48,39.54.44,5.85-2.47,8.48-8.33,8.49-24,0-47.6,3.7-71.21,7.46-11,1.75-6.17-6.84-5.39-10.39q6.85-30.83,15.09-61.33C479.41,96.68,489.1,70.9,498.46,45c1.3-3.61,4.4-8.54-3.63-8.19-18.07,44.77-33,90.65-41.26,138.17-3,17.44-9.15,24.77-26.47,27.69-20.61,3.49-40.86,9.82-60.61,17.19-2.43.91-5.29,3.52-7.9.78s.14-5.38.77-8c11.26-46.12,31.55-88.53,53.64-130.2.75-1.43,2.43-2.92.33-4.62l-12.81,11C400,98.23,393.37,105,389.74,113c-7.54,16.53-15.08,33-21.43,50-6.21,16.64-11.71,33.58-15.13,51-1.73,8.81-5.16,14.68-13.88,16.35-7.73,1.49-14,10.53-23.13,4.66h0a10.19,10.19,0,0,1-7.47,8.24c-8.61,2.58-11.91,8.88-13.56,17.13-4.6,23-.87,45.16,6.22,67,30.07-13.57,60.8-25.19,93.25-31.74A13,13,0,0,1,395.84,293.83Z" transform="translate(-13.85 -23.72)"/><path class="cls-2" d="M677.83,36.11c.79.25,1.58.47,2.37.72A6.61,6.61,0,0,0,677.83,36.11Z" transform="translate(-13.85 -23.72)"/><path class="cls-2" d="M605.75,25c2,.28,3.93.58,5.89.94A18.49,18.49,0,0,0,605.75,25Z" transform="translate(-13.85 -23.72)"/><path class="cls-2" d="M774.55,297.91c-3.43-3.68-8.16-4.25-12.7-5.09-49.34-9.12-99.08-16-149.14-17.85-66.94-2.5-133.9-1.37-199.89,12.81-5.93,1.27-12.08,1.89-17,6.05a13,13,0,0,0-1.23,1.86l.67-.15h0c41-10.44,82.89-15.08,125-17.06a997.3,997.3,0,0,1,182.92,8.71c23.62,3.26,47.44,5.76,70.53,12.28.39,0,.78.13,1.18.18C774.82,299.08,774.7,298.5,774.55,297.91Z" transform="translate(-13.85 -23.72)"/><path class="cls-3" d="M39.57,1111h1088.1c2.87,0,5.73.08,8.6.13h0c-3.08-16.56-7.42-32.74-14.74-48-.49,2.74-1.78,4.66-4.87,4.69s-6.45.08-9.67.08q-528.4,0-1056.81-.08c-4.75,0-10.15,2-14.15-2.62h0c-6.34,13.85-10.27,28.43-13.22,43.32h0C28.05,1111.66,33.87,1111,39.57,1111Z" transform="translate(-13.85 -23.72)"/><path class="cls-4" d="M74,1046.39q514.22,0,1028.45,0c3.94,0,7.89,0,11.83.06-8.55-17.74-19.19-33.78-36.19-44.67h0c-3.92,2.67-8.37,1.45-12.55,1.45q-482.74.09-965.5,0c-5.66,0-11.58.9-16.15-3.81h0c-18.2,10.45-29.75,26.57-38.51,45.09C54.82,1046.93,64.44,1046.39,74,1046.39Z" transform="translate(-13.85 -23.72)"/><path class="cls-5" d="M224.53,938.7c71.28.07,142.56.46,213.83-.32,12.63-.14,22.7,4.94,33.52,9,26.58,9.85,53.92,14.92,82.19,17.8,31.43,3.2,61.82-.14,92.18-6.91,13.28-3,25.94-8.29,37.82-14.67a40.76,40.76,0,0,1,20.35-4.85q112.83.12,225.66,0c4.17,0,8.63,1.34,12.47-1.6l-40.61-19.9c-8.19,0-16.37.07-24.56.07q-71,0-142,0c-3,0-7.3,1.79-8.73-1.84s2.82-5.34,4.94-7.5c7.78-7.93,15.88-15.49,20.28-26.13,2.4-5.8,7.08-7.64,13.69-7.78,16-.35,32.09,2.43,48-1.54h0L701.56,815.68c.68,3.84.67,8,2.16,11.47,7,16.34-.46,28.79-10.31,40.74-24,29.11-55.78,42.6-92.57,45.31C555.11,916.58,511,911,470.93,886.65a110,110,0,0,1-12.14-8.81c-23.53-19.2-24.41-22.26-15.49-50.42,1.18-3.74,2-7.59,3-11.39L340,872.22h0c7.73,4.3,16.08,1.17,24.11,1.88,4,.36,8,.18,10.59,3.87,8.78,12.4,20.2,22.1,31.95,31.48,2.15,1.71,5.92,3,4.47,6.32-1.35,3.11-5.13,1.43-7.76,1.44-43.33.1-86.67.27-130-.13-6.61-.07-13.27,4.3-19.84,0h0l-40.41,20.13C216.61,939.83,220.7,938.7,224.53,938.7Z" transform="translate(-13.85 -23.72)"/><path class="cls-6" d="M1131.06,1163.48c2.87,0,5.74-.14,8.6,0,4.21.17,6-1.59,5.09-5.81-2.25-10.45-1.51-21.44-5.72-31.54-.46,4.06-2.12,6.7-6.81,6.36-2.86-.21-5.74,0-8.61,0q-545.23,0-1090.48-.08c-4.81,0-10.11,1.78-14.37-2.26h0c-2.87,6.66-2.42,14-4.12,20.85-2.58,10.47,1.09,12.76,11.63,12.75Q578.66,1163.26,1131.06,1163.48Z" transform="translate(-13.85 -23.72)"/><path class="cls-1" d="M443.4,836.54c-4.79,11.66-1.65,19.84,6.82,28.8,27.63,29.26,63.16,39.45,101.22,44.34,30.62,4,60.72,2.5,90-8.24,23-8.44,40.84-23.4,55.24-42.85,5.88-8,7.92-16.45,5.33-26.34-1.38-5.28-4.1-11-.48-16.57-.79-3.45-1.71-6.88-2.36-10.35q-7.2-38.49-14.3-77c.07,5.93-5,7.42-8.79,9.66-36.52,21.7-76.45,32.64-118.36,37.38-33.16,3.75-66.28,2.65-99.42-.19-5,13.31-5.47,28-12,40.84h0C450.14,823.51,446,830.22,443.4,836.54Z" transform="translate(-13.85 -23.72)"/><path class="cls-1" d="M458.79,877.84a110,110,0,0,0,12.14,8.81C511,911,555.11,916.58,600.84,913.2c36.79-2.71,68.58-16.2,92.57-45.31,9.85-11.95,17.3-24.4,10.31-40.74-1.49-3.5-1.48-7.63-2.16-11.47-3.62,5.6-.9,11.29.48,16.57,2.59,9.89.55,18.39-5.33,26.34C682.31,878,664.49,893,641.47,901.44c-29.31,10.74-59.41,12.19-90,8.24-38.06-4.89-73.59-15.08-101.22-44.34-8.47-9-11.61-17.14-6.82-28.8,2.6-6.32,6.74-13,2.9-20.51h0c-1,3.8-1.81,7.65-3,11.39C434.38,855.58,435.26,858.64,458.79,877.84Z" transform="translate(-13.85 -23.72)"/><path class="cls-7" d="M1035.24,981.83h0l-92.69-44.74h0c-3.87,7.69-11.18,5.07-17.09,5.1-59.87.24-119.74.14-179.61.14-3.23,0-6.46.16-9.68,0-24.23-1.39-46.87,2.21-69.8,12.25-40.34,17.65-83.49,18-126.82,12.89a286.4,286.4,0,0,1-81.68-22c-6.88-3-13.91-3.07-21.07-3.07-68.83,0-137.66.07-206.5-.16-5.94,0-13.19,2.5-17.23-5l-89,44.28c6.45.11,12.9.32,19.36.32Z" transform="translate(-13.85 -23.72)"/><path class="cls-7" d="M230.3,942.19c68.84.23,137.67.13,206.5.16,7.16,0,14.19.06,21.07,3.07a286.4,286.4,0,0,0,81.68,22c43.33,5.15,86.48,4.76,126.82-12.89,22.93-10,45.57-13.64,69.8-12.25,3.22.18,6.45,0,9.68,0,59.87,0,119.74.1,179.61-.14,5.91,0,13.22,2.59,17.09-5.1h0c-3.84,2.94-8.3,1.6-12.47,1.6q-112.83.13-225.66,0a40.76,40.76,0,0,0-20.35,4.85c-11.88,6.38-24.54,11.7-37.82,14.67-30.36,6.77-60.75,10.11-92.18,6.91-28.27-2.88-55.61-8-82.19-17.8-10.82-4-20.89-9.09-33.52-9-71.27.78-142.55.39-213.83.32-3.83,0-7.92,1.13-11.46-1.48C217.11,944.69,224.36,942.18,230.3,942.19Z" transform="translate(-13.85 -23.72)"/><path class="cls-5" d="M33.66,1128.64q539.37.08,1078.76,0c8.95,0,17.94.38,26.61-2.56l-2.76-15c-3.13,2.88-7,3.33-11,3.5s-7.88.13-11.83.13H48.57a139.91,139.91,0,0,1-15-.35c-4.34-.46-8.61-1.24-10.7-5.88a69.37,69.37,0,0,0-4.06,21.61h0C23.62,1128.55,28.63,1128.64,33.66,1128.64Z" transform="translate(-13.85 -23.72)"/><path class="cls-5" d="M33.52,1114.37a139.91,139.91,0,0,0,15,.35H1113.42c3.95,0,7.89,0,11.83-.13s7.89-.62,11-3.5h0c-2.87,0-5.73-.13-8.6-.13H39.57c-5.7,0-11.52.7-16.75-2.47h0C24.91,1113.13,29.18,1113.91,33.52,1114.37Z" transform="translate(-13.85 -23.72)"/><path class="cls-5" d="M33.13,1132.37q545.25.14,1090.48.08c2.87,0,5.75-.19,8.61,0,4.69.34,6.35-2.3,6.81-6.36-8.67,2.94-17.66,2.56-26.61,2.56q-539.38,0-1078.76,0c-5,0-10-.09-14.9,1.47C23,1134.15,28.32,1132.37,33.13,1132.37Z" transform="translate(-13.85 -23.72)"/><path class="cls-8" d="M1099,1064.12c7.54,0,15-.45,22.56-1h0c-1.31-6-4.07-11.41-7.23-16.63h0c-3,3.21-7,3.29-10.94,3.53s-7.88.13-11.83.13H75.92c-6.46,0-12.93.19-19.35-.49-4.24-.44-8.76-.52-11.18-5.07a66.91,66.91,0,0,0-9.36,20.6h0a54.38,54.38,0,0,1,12.8-1.13Q573.91,1064.19,1099,1064.12Z" transform="translate(-13.85 -23.72)"/><path class="cls-8" d="M50.18,1067.79q528.41.14,1056.81.08c3.22,0,6.45,0,9.67-.08s4.38-2,4.87-4.69c-7.51.57-15,1-22.56,1q-525.08-.06-1050.14-.08a54.38,54.38,0,0,0-12.8,1.13C40,1069.8,45.43,1067.79,50.18,1067.79Z" transform="translate(-13.85 -23.72)"/><path class="cls-8" d="M56.57,1049.64c6.42.68,12.89.49,19.35.49H1091.53c4,0,7.89.1,11.83-.13s8-.32,10.94-3.53h0c-3.94,0-7.89-.06-11.83-.06q-514.23,0-1028.45,0c-9.58,0-19.2.54-28.63-1.82C47.81,1049.12,52.33,1049.2,56.57,1049.64Z" transform="translate(-13.85 -23.72)"/><path class="cls-9" d="M681.61,999.54q182.76,0,365.51,0c10.41,0,20.76.1,31,2.3h0c-13.28-8.84-28.43-13.62-42.87-20-3,3.23-7,3.37-10.91,3.61s-7.88.15-11.82.15q-432.94,0-865.88-.1c-7.63,0-15.92,2.22-22.57-4a357.08,357.08,0,0,0-40.15,18h0Q382.76,999.69,681.61,999.54Z" transform="translate(-13.85 -23.72)"/><path class="cls-9" d="M100.06,1003.29q482.75,0,965.5,0c4.18,0,8.63,1.22,12.55-1.45-10.23-2.2-20.58-2.31-31-2.3q-182.76.11-365.51,0-298.86,0-597.7-.06C88.48,1004.19,94.4,1003.29,100.06,1003.29Z" transform="translate(-13.85 -23.72)"/><path class="cls-9" d="M146.63,985.49q432.93.18,865.88.1c3.94,0,7.89.09,11.82-.15s8-.38,10.91-3.61H143.42c-6.46,0-12.91-.21-19.36-.32C130.71,987.71,139,985.49,146.63,985.49Z" transform="translate(-13.85 -23.72)"/><path class="cls-10" d="M473.66,772.91c57.35,4,113.71.27,167.75-21.55a219.38,219.38,0,0,0,43.49-23c-.27-.92-.54-1.84-.8-2.76h0a17.77,17.77,0,0,1-8.4,6.39C601.8,761.23,531,757.32,466.17,709c-34.63-25.8-60-60.16-77.49-100-3.88-8.84-8.7-17.27-11.84-26.45-2-5.75-6.54-8-12-9.61-5.09-1.48-10.61-2.3-14.18-7h0c-1.87,6.13-3.95,12.2-5.59,18.4-5.57,21.1-11.17,42.29-8.67,64.4,1.1,9.67,3.56,19.64,14,23.54,10.17,3.78,18-2.41,24.9-8.71s13.24-13.72,20.72-21.6c-.58,3.71-.89,6.14-1.35,8.54-4.51,23.54-8.67,47-5.66,71.25,3.84,30.82,26.21,41.24,51.76,23.53,9-6.21,16.3-14.22,24.59-23.75-.47,19.48-4.86,36.37-7.1,53.55C463,771.09,468.32,772.53,473.66,772.91Z" transform="translate(-13.85 -23.72)"/><path class="cls-10" d="M364.87,573c5.43,1.57,10,3.86,12,9.61,3.14,9.18,8,17.61,11.84,26.45,17.45,39.8,42.86,74.16,77.49,100,64.8,48.3,135.63,52.21,209.52,23a17.77,17.77,0,0,0,8.4-6.39c-24.52,9.95-49.39,18.07-76.12,20.25-53.28,4.34-101.48-8.16-143.43-41.73-40.24-32.2-65.89-74.71-84.54-122-1.56-4-1.43-9.27-7.62-10.47-7.31-1.43-14.46-3.68-21.69-5.58C354.26,570.7,359.78,571.52,364.87,573Z" transform="translate(-13.85 -23.72)"/><path class="cls-10" d="M557.75,775.38c41.91-4.74,81.84-15.68,118.36-37.38,3.78-2.24,8.86-3.73,8.79-9.66a219.38,219.38,0,0,1-43.49,23c-54,21.82-110.4,25.57-167.75,21.55-5.34-.38-10.71-1.82-15.33,2.28h0C491.47,778,524.59,779.13,557.75,775.38Z" transform="translate(-13.85 -23.72)"/><path class="cls-11" d="M732.1,190.52c1,5.74,4,8.57,9.53,10,22.88,5.76,46.08,10.32,68.5,17.91,9.18,3.11,6.42-3.39,5.32-7.49-7.63-28.37-17-56.15-29.71-82.69-6.19-12.91-13.12-25.44-19.48-38.25-1.39-2.8-6.73-6.87,0-10.13C742.52,60.7,716,46.82,686.44,39h0c10.13,16.33,14.16,35,20.06,52.91C717.16,124.22,726.23,157,732.1,190.52Z" transform="translate(-13.85 -23.72)"/><path class="cls-11" d="M728.17,188.26c1.86,11.19,6.56,14.41,16.27,16.37a731.68,731.68,0,0,1,76.67,20.1c-1-5.68-1.52-9.85-2.54-13.88a482.24,482.24,0,0,0-46-115.28c-2.61-4.72-8.31-8.91-6.24-15.73-6.78,3.26-1.44,7.33,0,10.13,6.36,12.81,13.29,25.34,19.48,38.25,12.74,26.54,22.08,54.32,29.71,82.69,1.1,4.1,3.86,10.6-5.32,7.49-22.42-7.59-45.62-12.15-68.5-17.91-5.56-1.4-8.52-4.23-9.53-10-5.87-33.55-14.94-66.3-25.6-98.6C700.6,74,696.57,55.34,686.44,39c-.23,5.21,2.17,9.72,3.85,14.4C706.07,97.48,720.51,142,728.17,188.26Z" transform="translate(-13.85 -23.72)"/><path class="cls-11" d="M494.84,36.8v0l0,0Z" transform="translate(-13.85 -23.72)"/><path class="cls-11" d="M412.41,89.23c-13.06,27.1-26.85,53.86-37.32,82.16-4.73,12.8-8.09,26-11.94,39-1.71,5.79.38,7.42,5.82,5.49,23-8.17,46.61-14.11,70.33-19.7,6.53-1.55,7.95-6.36,9-11.88a757,757,0,0,1,37-131.19c2.26-5.92,3.56-12.5,9.48-16.33h0l.06,0a220.52,220.52,0,0,0-81.51,41.05h0C418.72,82.05,414.05,85.84,412.41,89.23Z" transform="translate(-13.85 -23.72)"/><path class="cls-11" d="M413,82.45c-22.09,41.67-42.38,84.08-53.64,130.2-.63,2.62-3.27,5.38-.77,8s5.47.13,7.9-.78c19.75-7.37,40-13.7,60.61-17.19,17.32-2.92,23.45-10.25,26.47-27.69,8.25-47.52,23.19-93.4,41.26-138.17h0c-5.92,3.83-7.22,10.41-9.48,16.33a757,757,0,0,0-37,131.19c-1,5.52-2.45,10.33-9,11.88-23.72,5.59-47.34,11.53-70.33,19.7-5.44,1.93-7.53.3-5.82-5.49,3.85-13.06,7.21-26.24,11.94-39,10.47-28.3,24.26-55.06,37.32-82.16,1.64-3.39,6.31-7.18.92-11.4h0C415.43,79.53,413.75,81,413,82.45Z" transform="translate(-13.85 -23.72)"/><path class="cls-11" d="M494.8,36.81h0Z" transform="translate(-13.85 -23.72)"/><path class="cls-11" d="M494.81,36.81l0,0-.06,0Z" transform="translate(-13.85 -23.72)"/><path class="cls-11" d="M626.61,41.29c6.16,44,10.83,88.17,13.52,132.52.52,8.57,3.83,12.16,12.22,12.66,18.63,1.12,37,4.58,55.38,7.42,11.42,1.77,11.79,1.31,9.71-10C709,137.49,695.1,92.71,678.2,48.8c-1.16-3-2.71-5.93-2.83-9.2-.09-2.58.86-3.6,2.46-3.49a236.57,236.57,0,0,0-55.93-10h0C625.8,30.45,625.88,36.05,626.61,41.29Z" transform="translate(-13.85 -23.72)"/><path class="cls-11" d="M675.37,39.6c.12,3.27,1.67,6.2,2.83,9.2,16.9,43.91,30.75,88.69,39.24,135.05,2.08,11.35,1.71,11.81-9.71,10-18.41-2.84-36.75-6.3-55.38-7.42-8.39-.5-11.7-4.09-12.22-12.66-2.69-44.35-7.36-88.52-13.52-132.52-.73-5.24-.81-10.84-4.71-15.15.16,3.57,0,7.21.55,10.72,7.15,42.59,10.23,85.64,14.27,128.56,2,21.81,1.1,21.89,23.82,24.53,1.41.16,2.78.64,4.19.85,16.91,2.55,33.85,4.91,50.72,7.67,6,1,8.82,0,7.29-6.85-3.33-15-5.81-30.14-9.63-45-9.27-36-20.52-71.38-34.88-105.7-1.26-3-.67-3.68,2-4.12-.79-.25-1.58-.47-2.37-.72C676.23,36,675.28,37,675.37,39.6Z" transform="translate(-13.85 -23.72)"/><path class="cls-11" d="M501.93,42.79c-1,6.4-3.63,12.37-5.86,18.42a848.43,848.43,0,0,0-34.51,118.68c-2.32,11.05-1.44,11.71,9.85,10.22,18.46-2.45,36.88-5.71,55.57-5.67,8.77,0,11.74-3.57,12.15-12.16,2.19-46.21,8.18-92.06,13.75-137.94a20.07,20.07,0,0,1,2.35-8.21,205.24,205.24,0,0,0-58.21,10C501.35,35.17,502.73,37.85,501.93,42.79Z" transform="translate(-13.85 -23.72)"/><path class="cls-11" d="M494.83,36.82c8-.35,4.93,4.58,3.63,8.19-9.36,25.89-19,51.67-26.17,78.28q-8.18,30.51-15.09,61.33c-.78,3.55-5.62,12.14,5.39,10.39,23.61-3.76,47.22-7.46,71.21-7.46,5.86,0,8.77-2.64,8.33-8.49-1-13.3,1.37-26.4,2.48-39.54,2.06-24.51,5.42-48.9,7.57-73.39,1.17-13.31,6-26.37,3.05-40a20.07,20.07,0,0,0-2.35,8.21c-5.57,45.88-11.56,91.73-13.75,137.94-.41,8.59-3.38,12.18-12.15,12.16-18.69,0-37.11,3.22-55.57,5.67-11.29,1.49-12.17.83-9.85-10.22A848.43,848.43,0,0,1,496.07,61.21c2.23-6.05,4.82-12,5.86-18.42.8-4.94-.58-7.62-4.91-6.67-.73.23-1.46.44-2.18.68Z" transform="translate(-13.85 -23.72)"/><path class="cls-11" d="M494.78,36.82h0Z" transform="translate(-13.85 -23.72)"/><path class="cls-11" d="M494.8,36.81h0v0Z" transform="translate(-13.85 -23.72)"/><path class="cls-11" d="M566,32.94c-3.27,23.79-6,47.64-8.41,71.52-2.15,21-4.23,42.06-5.26,63.16-.66,13.39.59,14.19,13.51,14.39,16.47.27,32.93-.57,49.38,1.63,9.91,1.32,12.39-1.15,11.63-11.41-3.24-43.58-7.52-87.06-13.49-130.37-.75-5.41-3-9.39-8.68-11-1.88-.52-4.25-1.29-4-4.72A12.89,12.89,0,0,1,605.75,25a150.46,150.46,0,0,0-43.06.48C568.2,25.07,566.46,29.68,566,32.94Z" transform="translate(-13.85 -23.72)"/><path class="cls-11" d="M561.27,38.3c-1.75,22.37-5.67,44.58-7.39,67-1.83,23.86-5.29,47.6-5.32,71.59,0,5.37.7,8.86,7.43,8.8,21.82-.18,43.68-1,65.41,2,7,.94,9.84-1.81,9.2-9-1.63-18.12-2.6-36.3-4.43-54.4-2.83-28-6.33-56-9.18-84C616.1,31.46,613.08,26,603.24,27l8.4-1.06c-2-.36-3.92-.66-5.89-.94a12.89,12.89,0,0,0-5.07,1.12c-.24,3.43,2.13,4.2,4,4.72,5.68,1.59,7.93,5.57,8.68,11,6,43.31,10.25,86.79,13.49,130.37.76,10.26-1.72,12.73-11.63,11.41-16.45-2.2-32.91-1.36-49.38-1.63-12.92-.2-14.17-1-13.51-14.39,1-21.1,3.11-42.14,5.26-63.16C560,80.58,562.74,56.73,566,32.94c.45-3.26,2.19-7.87-3.32-7.42-.5.08-1,.13-1.51.21C568.28,29.63,561.57,34.47,561.27,38.3Z" transform="translate(-13.85 -23.72)"/><path class="cls-10" d="M862.25,321.67c-26.26-6.2-52.55-12.25-79-17.77a20.6,20.6,0,0,1-8.13-3.29c2.55,13.75-2.15,27.18-2.73,40.8-1.23,29.38-3,58.74,4.75,87.6,4.11,15.39,13.21,25.79,23.88,25.75,14.91-.06,20.55-11.68,25.09-23.08,7.25-18.21,7.67-37.81,9.73-57,1.5-14,1.17-14.44,14.66-16.09,6.49-.8,11.61-5.84,18.39-5h0c4.66-10.6,3-21.66,2.39-32.64h0C868.5,323.51,865.31,322.39,862.25,321.67Z" transform="translate(-13.85 -23.72)"/><path class="cls-10" d="M850.53,358.59c-13.49,1.65-13.16,2.06-14.66,16.09-2.06,19.19-2.48,38.79-9.73,57-4.54,11.4-10.18,23-25.09,23.08-10.67,0-19.77-10.36-23.88-25.75-7.71-28.86-6-58.22-4.75-87.6.58-13.62,5.28-27.05,2.73-40.8a14.91,14.91,0,0,1-1.39-1.13c-4.36,32.38-6.79,64.9-5,97.56,1,17.15,2.57,34.47,12.2,49.49,10.16,15.84,29,16.39,40.46,1.47a58.86,58.86,0,0,0,9.27-19.23c5.59-18.69,7.82-37.88,7.78-57.3,0-6.24,1.29-8.89,8.21-9,8.24-.1,16.32-2.2,22.19-8.94C862.14,352.75,857,357.79,850.53,358.59Z" transform="translate(-13.85 -23.72)"/><path class="cls-10" d="M775.15,300.61a20.6,20.6,0,0,0,8.13,3.29c26.42,5.52,52.71,11.57,79,17.77,3.06.72,6.25,1.84,9.07-.77-31.86-8.31-63.76-16.41-96.38-21.24C775,300,775.09,300.29,775.15,300.61Z" transform="translate(-13.85 -23.72)"/><path class="cls-10" d="M774.94,299.66c-.4-.05-.79-.13-1.18-.18a14.91,14.91,0,0,0,1.39,1.13C775.09,300.29,775,300,774.94,299.66Z" transform="translate(-13.85 -23.72)"/><path class="cls-10" d="M325.32,359c7.06-.54,7,6.14,7,11a279.76,279.76,0,0,0,2.43,38.48c1.58,11.48,4.44,22.51,11.16,32.1C355.3,454,367,453.28,375.13,439c4.49-7.87,6.85-16.47,8.63-25.26,6.87-33.78,7.39-68.11,8.94-102.36.21-4.77-.58-9.74,1.23-14.26-2.94,2.87-7,3.5-10.84,4.43a379.2,379.2,0,0,0-70.78,24.78c-3.41,1.59-7,4.19-10.95,1.09-1.26,8.07-3.48,16.06-1.95,24.34h0C307.62,355.67,315.54,359.71,325.32,359Z" transform="translate(-13.85 -23.72)"/><path class="cls-10" d="M320.39,362.42c9.79-2.34,9.39,2.43,9.09,9.16a179.79,179.79,0,0,0,4.28,49.07c2.47,10.49,6.12,20.67,14.63,28.09,10.1,8.8,21.31,7.16,28.14-4.22a76.92,76.92,0,0,0,8.71-22.92c9.41-41.54,10-83.77,10-126a10.48,10.48,0,0,1-1.35,1.58c-1.81,4.52-1,9.49-1.23,14.26-1.55,34.25-2.07,68.58-8.94,102.36-1.78,8.79-4.14,17.39-8.63,25.26-8.16,14.27-19.83,15-29.25,1.54-6.72-9.59-9.58-20.62-11.16-32.1A279.76,279.76,0,0,1,332.29,370c0-4.86.09-11.54-7-11-9.78.74-17.7-3.3-25.9-7.19C303.57,360.92,311.39,364.56,320.39,362.42Z" transform="translate(-13.85 -23.72)"/><path class="cls-10" d="M312.31,326.34a379.2,379.2,0,0,1,70.78-24.78c3.85-.93,7.9-1.56,10.84-4.43a13.36,13.36,0,0,1,.68-1.44c-32.45,6.55-63.18,18.17-93.25,31.74C305.35,330.53,308.9,327.93,312.31,326.34Z" transform="translate(-13.85 -23.72)"/><path class="cls-10" d="M394.61,295.69a13.36,13.36,0,0,0-.68,1.44,10.48,10.48,0,0,0,1.35-1.58h0Z" transform="translate(-13.85 -23.72)"/><path class="cls-3" d="M801.89,877.42c-11.07.43-22.16.07-33.24.2-5.16,0-10.36.6-13.2,5.51a112.75,112.75,0,0,1-22.25,27.7c4.28,4.3,8.74,2.93,12.67,2.94q65.42.16,130.82,0c8.62,0,17.06.62,25.25,3.41l-88.47-44.77C811.5,878.41,806.2,877.25,801.89,877.42Z" transform="translate(-13.85 -23.72)"/><path class="cls-3" d="M765.52,874c-6.61.14-11.29,2-13.69,7.78-4.4,10.64-12.5,18.2-20.28,26.13-2.12,2.16-6.32,4-4.94,7.5s5.74,1.83,8.73,1.84q71,.15,142,0c8.19,0,16.37,0,24.56-.07-8.19-2.79-16.63-3.43-25.25-3.41q-65.4.18-130.82,0c-3.93,0-8.39,1.36-12.67-2.94a112.75,112.75,0,0,0,22.25-27.7c2.84-4.91,8-5.46,13.2-5.51,11.08-.13,22.17.23,33.24-.2,4.31-.17,9.61,1,11.58-5h0C797.61,876.39,781.5,873.61,765.52,874Z" transform="translate(-13.85 -23.72)"/><path class="cls-10" d="M701.74,717.65a12.15,12.15,0,0,1-7.17,1.72c8.47,11.65,18.21,22,30.82,29.23,21.2,12.08,40.2,3.66,45.18-20.14,5.4-25.75,1.42-51.09-4.4-76.27h0C751,680.24,727.55,700.1,701.74,717.65Z" transform="translate(-13.85 -23.72)"/><path class="cls-10" d="M694.57,719.37a12.15,12.15,0,0,0,7.17-1.72c25.81-17.55,49.28-37.41,64.43-65.46C745.71,678.22,723.23,702.09,694.57,719.37Z" transform="translate(-13.85 -23.72)"/><path class="cls-3" d="M373.49,914c9.92-.37,19.89.18,30.34-1.27-11.95-10-22-21.49-32.75-32.18-4.67-4.63-11.6-2.44-17.56-3.12-4.88-.55-11.1,1.88-13.56-5.17l-86.48,44.87h0C293.34,910.44,333.5,915.45,373.49,914Z" transform="translate(-13.85 -23.72)"/><path class="cls-3" d="M273.32,917.08c43.33.4,86.67.23,130,.13,2.63,0,6.41,1.67,7.76-1.44,1.45-3.33-2.32-4.61-4.47-6.32-11.75-9.38-23.17-19.08-31.95-31.48-2.61-3.69-6.59-3.51-10.59-3.87-8-.71-16.38,2.42-24.11-1.88,2.46,7,8.68,4.62,13.56,5.17,6,.68,12.89-1.51,17.56,3.12,10.79,10.69,20.8,22.16,32.75,32.18-10.45,1.45-20.42.9-30.34,1.27-40,1.49-80.15-3.52-120,3.13C260.05,921.38,266.71,917,273.32,917.08Z" transform="translate(-13.85 -23.72)"/><path class="cls-12" d="M775,642.34a13.56,13.56,0,0,1-4.92,5.46c7.49,8.08,14.41,16.78,24.31,22.26,11.82,6.55,21.56,3.5,27-8.73a39.71,39.71,0,0,0,3.15-13.44c2-26.82-5.06-52.09-13-77.23-5.28,5.11-7.79,11.79-10.05,18.5C795.18,608.13,784.71,625,775,642.34Z" transform="translate(-13.85 -23.72)"/><path class="cls-12" d="M802.45,578.57a332.78,332.78,0,0,1-29,60.5c-1.63,2.66-4,5.14-3.31,8.73a13.56,13.56,0,0,0,4.92-5.46c9.68-17.31,20.15-34.21,26.53-53.18,2.26-6.71,4.77-13.39,10.05-18.5C805.05,569.23,804,574.25,802.45,578.57Z" transform="translate(-13.85 -23.72)"/><path class="cls-13" d="M352.87,204.31c9.39-40.82,24.71-79.87,47.65-115.43-25.41,20.51-43.66,46.71-58.67,75.25C330.07,186.52,320,209.66,316.17,235h0c1.92-1.16,4.18-.79,6.24-1.34C337.93,229.49,348.58,223,352.87,204.31Z" transform="translate(-13.85 -23.72)"/><path class="cls-13" d="M339.3,230.36c8.72-1.67,12.15-7.54,13.88-16.35,3.42-17.39,8.92-34.33,15.13-51,6.35-17,13.89-33.51,21.43-50,3.63-8,10.21-14.77,10.78-24.12-22.94,35.56-38.26,74.61-47.65,115.43-4.29,18.71-14.94,25.18-30.46,29.37-2.06.55-4.32.18-6.24,1.34C325.34,240.89,331.57,231.85,339.3,230.36Z" transform="translate(-13.85 -23.72)"/><path class="cls-13" d="M856.67,233a15.16,15.16,0,0,1,6,2.11c-2.23-16.78-8.14-32.47-14.69-47.88C832.18,150,810.7,116.64,779,90.62c22.21,33.92,36.43,71.5,46.1,110.37C829.81,219.8,838.79,229.56,856.67,233Z" transform="translate(-13.85 -23.72)"/><polygon class="cls-13" points="765.18 66.9 765.18 66.9 765.18 66.9 765.18 66.9"/><path class="cls-13" d="M786.18,107.25c16.29,33.36,30.76,67.46,38.76,103.8,2.52,11.46,7.07,18.8,18.77,20.66,6.36,1,11.61,8.15,19,3.44a15.16,15.16,0,0,0-6-2.11c-17.88-3.48-26.86-13.24-31.54-32-9.67-38.87-23.89-76.45-46.1-110.37h0C780,96.76,783.54,101.84,786.18,107.25Z" transform="translate(-13.85 -23.72)"/><polygon class="cls-13" points="765.18 66.9 765.18 66.9 765.18 66.9 765.18 66.9"/><path class="cls-14" d="M387.12,511.66c15.67,11.1,33.95,12.05,52.09,14.32,18-2.15,36.46-1.69,52.7-11.8,6.39-4,13.54-7.33,13.73-16.3.21-9.5-5.56-15-13.43-18.94-25.41-12.65-52-14.07-79.29-8.13-9.8,2.13-19.47,5.09-27.35,11.65C373,492.9,373.74,502.17,387.12,511.66Z" transform="translate(-13.85 -23.72)"/><path class="cls-14" d="M704.06,474.69c-10.77,4.4-23.48,9.29-23.06,22.19.46,13.82,13.72,18.9,25.53,22.59,30.06,9.39,59.73,8,88.58-4.81,6.9-3.07,13.14-7.71,13.94-16.13s-4-14.22-10.87-18.29c-16.11-9.55-34-12.1-51.13-13.12C731.57,467.71,717.49,469.22,704.06,474.69Z" transform="translate(-13.85 -23.72)"/><path class="cls-10" d="M461.77,381c16.53-8.57,33.51-15.58,52-18.68,8.91-1.48,13.19-7.76,13.58-15.37-.35-11.94-8.29-20.39-18.52-19.38-24.14,2.38-47,8.74-66.08,24.81-8.81,7.42-10.38,16.36-4.85,24.55C442.87,384.2,452.05,386,461.77,381Z" transform="translate(-13.85 -23.72)"/><path class="cls-10" d="M666.41,361.37c20.44,4.41,39.42,12,58.14,21,11.53,5.57,23-2.85,22.94-16.59.58-5.7-3.63-10.07-8.41-14.06-18.9-15.78-41.52-21.92-65.32-24.14-9.38-.87-15.63,4.77-17.51,14C654.42,350.72,657,359.33,666.41,361.37Z" transform="translate(-13.85 -23.72)"/><path class="cls-15" d="M516,605c-2.92,4.48,1.48,6.35,3.78,8.68a15.19,15.19,0,0,0,5.47,3.3c18.53,6.77,37.4,12,61.95,12.09a124.36,124.36,0,0,0,78-30.3c4.41-3.79,5.51-7.92,2.93-12.15-3.41-5.59-7.35-1.59-10.78.87-2.31,1.66-4.52,3.48-6.77,5.23-25.35,19.78-53.9,26.68-85.62,21.89-13.62-2-26.19-7-38.72-12.18C521.74,600.54,518.47,601.14,516,605Z" transform="translate(-13.85 -23.72)"/><path class="cls-16" d="M568.77,556.7c9.64,7.57,36.8,8.09,47,1,3.5-2.44,5-5.43,3.29-9.11-2.14-4.59-6.43-4.8-10-2.2-4.56,3.35-9.48,2.66-14.42,2.84-13.67,0-14.6-.5-13.49-11.16,1.45-13.8,3.69-27.5,5.5-41.26,1.77-13.41,3.61-26.82,5-40.27.48-4.54.86-10-6-10.43-6-.35-6.41,4.12-7,8.69-1.65,13.06-3.65,26.08-5.43,39.12-2.46,18-4.91,36-7.2,54C565.67,551.08,565.69,554.29,568.77,556.7Z" transform="translate(-13.85 -23.72)"/><path class="cls-17" d="M688.88,455.1c7.78-16.42,8.37-33.2,0-49.5-4.32-8.47-12.34-8.18-17.58-.12s-6.14,17.37-6.51,26.7c.46,7.51,1,15,4.51,21.87,2,3.93,4.44,7.33,9.45,7.68S687,459,688.88,455.1Z" transform="translate(-13.85 -23.72)"/><path class="cls-18" d="M346.62,459.19c-11.13-21.23-26.08-39-43.21-55.24-2.44-2.32-5.12-4.54-8.39-1.82-3.87,3.22-.71,5.7,1.53,7.89a204.19,204.19,0,0,1,20.14,22.15c3.38,4.44,11.07,8.19,8.85,13.51-2.38,5.72-9.35,1.35-15.09.31-3.67-.14-7.78,1.51-8.15,5.89-.42,5,4.35,4.61,7.89,4.74,2.5.1,5.06-.3,7.49.11,11.21,1.86,20.75,5,25.31,17.77,3.84,10.79,6.29,21.88,9.84,32.69.66,2,1.08,4.58,4,3.7,2-.62,2-2.64,1.5-4.49C353.74,490.87,354.54,474.3,346.62,459.19Z" transform="translate(-13.85 -23.72)"/><path class="cls-10" d="M487.83,456.65c5.25,7.28,12.23,7,17.24-.47,7.59-11.29,7.28-38.75-.56-50.37-5.74-8.51-13-8.31-18.31.62-4.33,7.33-5.09,15.46-4.89,23.76C481.1,439.6,482.14,448.76,487.83,456.65Z" transform="translate(-13.85 -23.72)"/><path class="cls-18" d="M823.85,503.16c.58-2.05,1.17-4.1,1.62-6.18,4.88-23.07,12.27-43.43,42.2-40.54a4.85,4.85,0,0,0,5.58-5.2c-.15-4.07-3.14-5.45-6.76-5.06-3.17.33-6.27,1.56-9.43,1.7-2.65.13-6.21,1.51-7.81-1.61-1.43-2.79,2.09-4.09,3.18-6.17,6-11.35,17.47-17.74,25-27.78,2.29-3.07,7.21-5.14,3.2-9.41-3.81-4.05-7.37,0-10.1,2.35-12.52,10.8-22.72,23.7-32.43,37-13.46,18.45-13.31,40.24-16.21,62.45C823.3,503.6,823.77,503.43,823.85,503.16Z" transform="translate(-13.85 -23.72)"/><path class="cls-15" d="M618.45,646.94c-14.88,7.76-30.3,6-45.77,3-3.72-.73-7.2-2.05-8.51,3-1.24,4.74,1.42,7.5,5.54,8.91,7.43,2.54,15,4.37,21.85,3.61,11.89.14,22.36-1.09,32.07-6.26,4.1-2.18,5.89-5.36,4-9.62C625.75,645.49,621.81,645.18,618.45,646.94Z" transform="translate(-13.85 -23.72)"/></svg>