<svg id="Capa_1" data-name="Capa 1" xmlns="http://www.w3.org/2000/svg" viewBox="0 0 942.8 1174.93"><defs><style>.cls-1{fill:#fff;}.cls-2{fill:#cb4d55;}.cls-3{fill:#de9988;}.cls-4{fill:#392637;}.cls-5{fill:#4d3548;}.cls-6{fill:#d6807b;}.cls-7{fill:#d57866;}.cls-8{fill:#ba2a40;}.cls-9{fill:#ad514b;}.cls-10{fill:#28283d;}.cls-11{fill:#28283b;}</style></defs><title>13</title><path class="cls-1" d="M545.26,222.75c0,.07.09.12.14.2s.12.26.18.4c.3-.32.6-.62.89-.94Z" transform="translate(-128.6 -18.68)"/><path class="cls-2" d="M1047.93,1041.24c-12-71.69-50.79-123.7-118.23-151-41.93-16.95-86-28.73-129-42.83h0c-4.39-.18-7.36,2.31-10.34,5.15a278.47,278.47,0,0,1-92.55,58.56c-11.35,4.39-22.86,7.93-34.44,11.47-5.61,1.71-5.87,8.28-7.66,12.84-7.58,19.35-15.13,38.69-23.77,57.61-6.15,13.47-11.52,27.3-17.47,40.86-3.48,8-7.32,15.76-11.22,23.52-.69,1.37-1.32,3.6-3.46,3.5s-2.65-2.09-3.29-3.65c-6.39-15.59-12.8-31.14-18-47.23-8.84-27.61-18.35-55-27.42-82.54-1.06-3.2-2.66-4.45-5.94-5.57-20.66-7.07-42.25-11-62.54-19.36-31.31-12.86-61.39-27.91-89.07-47.55a55,55,0,0,0-6.55-3.43h0c-39.47,12.45-79.69,23.06-117.83,39-64,26.72-102.91,75.71-115.7,144-8.63,46.06-15.22,92.5-22.27,138.84-1,6.46-4.28,13-1.52,19.82h0c2.12-2,4.75-1.2,7.16-1.2q463.61-.06,927.22,0c2.18,0,4.54-.66,6.39,1.2h0c2.64-7.63-1-14.81-2-22Q1058.65,1106.13,1047.93,1041.24Z" transform="translate(-128.6 -18.68)"/><path class="cls-3" d="M450.93,649.65a221.46,221.46,0,0,0,87.4,47.05c5.73,1.61,8.11.13,9.69-5.21,2.84-9.55,6.21-18.94,9.1-28.48,1.17-3.84,2.42-5.09,6.81-3.53,26.93,9.55,54.05,11,81.05.28,4.76-1.89,4.39,1.91,5.21,3.92,3.92,9.69,7.61,19.48,11.28,29.27,1.35,3.6,3.1,4.59,7.25,3.58,31.26-7.59,56.83-24.77,79.82-46.46,2.67-2.53,5.38-5,8.09-7.48.07-.06.45.14.6.29a2.74,2.74,0,0,1,.34.66h0c2-2.8,3.84-5.68,5.92-8.4a335.44,335.44,0,0,0,25.27-37.63c18.73-32.7,33.1-67.2,42-103.9,1-4.26,2.7-6.21,7.46-6.21,6.14,0,12.39-.19,18.31-2.37h0a53.89,53.89,0,0,0-14,.52c-7.45,1.52-9.8-1-7.92-8.3a238.57,238.57,0,0,0,5.32-30.47,1238.46,1238.46,0,0,1-51.06-208C787,227,782.58,221.25,771,218.21c-29-7.65-57.37-4.58-85.7,2.78-32.81,8.53-64,22.23-96.65,31.14-24.49,6.67-49.23,10.74-74.69,7.18-4.18-.59-8.29-1.68-12.42-2.61a26.67,26.67,0,0,1-3.44-1.45c17.87-7.71,33.59-17.05,47.47-31.9-.06-.14-.11-.27-.18-.4s-.1-.13-.14-.2c-13.92,3.84-26.18,8.05-38.81,10.85-33.92,7.51-68,9.68-102.45,4.36-4.44-.69-5.88.38-6.57,5.08-5.43,37-8.81,74.21-13.27,111.31-4.76,39.58-9.8,79.14-19.54,117.9h0c0,.25,0,.49.06.73,1.24,12.89,1.24,12.89-11.82,13.34,1.85,1.86,4.29,1.44,6.36,1.13,7-1,9.57,2.18,10.79,8.73,2.45,13.21,7.19,25.85,11.82,38.39,15.33,41.5,36.43,79.8,65.34,113.54C449.34,646.31,449.94,648.78,450.93,649.65Zm273.48-356.1c32.36,1.8,63.18,28.09,68,59.49-42.87-36.2-89.89-34.57-138.85-17C662.27,310.75,694.73,291.9,724.41,293.55ZM697,395.27a14.88,14.88,0,0,1-15.43,14.8c-8.68-.07-14.78-6.47-14.62-15.33S673.25,380,682.17,380A14.7,14.7,0,0,1,697,395.27ZM594.11,455.19h.14c0-11,0-21.94,0-32.92,0-4.55.35-9.19,6.1-9.14,5.24,0,5.77,4.36,5.75,8.7q-.15,34-.1,68.09c0,4.42-.88,8.5-6.11,8.39s-5.81-4.38-5.78-8.7C594.16,478.14,594.11,466.67,594.11,455.19Zm2,59.92c3.81,2.4,5.87,1.27,9.13-.57,23.43-13.24,47.62-14.95,71.16-1.28,23.2,13.47,34,34.86,34.3,61.56,0,.37-.34.74-.78,1.67-7.07-11.43-16.94-18.19-30.12-19.71h0c-4.51,30.47-30.42,54.2-61.14,57.19-18.12,1.76-35.73,1.4-52.64-6-22.87-9.94-38-26.45-42.85-51.43-13.83.76-24.12,7.73-32.17,19.12-3.76-25.78,15.54-57,41.36-66.65C554.47,500.81,576,502.41,596.16,515.11Zm-93.1-120A14.77,14.77,0,0,1,518.13,380c8.82.11,15.16,6.35,15.15,14.93a14.7,14.7,0,0,1-15,15.15A15,15,0,0,1,503.06,395.06Zm-92.51-44.21c-1-22.2,26-50.79,54.56-57.75,32.54-7.94,69.38,10.24,83.53,42.14C499.25,317.12,453.07,318.55,410.55,350.85Z" transform="translate(-128.6 -18.68)"/><path class="cls-4" d="M363.23,470.65c10.21-45.29,15.71-91.31,21.12-137.33,3.2-27.25,6-54.55,9.75-81.74,2.74-19.72,4.34-16.07,17.72-14.59,42.38,4.68,83.64-.41,124-13.86,3.09-1,7.4-3.53,9.45-.38l1.21-.34c-.29.32-.59.62-.89.94,1.67,3.63-2.66,6.27-5.24,8.48a158.94,158.94,0,0,1-36.59,23.28c6.36,1.5,11.32,2.56,16.51,2.85,27.3,1.53,53.71-3.11,79.61-11.3,21.67-6.85,42.85-15.13,64.52-21.92,24.34-7.63,49-14,74.86-13.15a160.34,160.34,0,0,1,33.23,4.94c11.5,2.84,17.13,9.27,18.47,21.14,1.87,16.6,5.28,33,8.51,49.42,10.2,51.75,24.22,102.48,40.21,152.7.42,1.32.87,2.65,1.24,4,4.89-15,6.87-30.74,10.64-46,3-12,5.31-24.21,7.94-36.33h0c5.91-34.05,12.29-68,14.07-102.64,1.47-28.68,1.59-57.27-8.13-84.88-9.11-25.86-26.07-42-54.66-43.1-3.78-.14-5.1-2.3-6.85-4.67-9-12.17-17.65-24.7-28.54-35.38C768.83,94,764.14,88.6,759,86.69a243.19,243.19,0,0,0-52.29-12.6c-16-2.17-31.82-1-47.56.48a379.78,379.78,0,0,0-46,7.8c-28.75,6.43-55.62,18-82.94,28.25-14.3,5.38-28.08,12.2-42.65,17a319.11,319.11,0,0,1-57.81,13c-26.13,3.47-49.73-2.72-72.69-14-6.73-3.29-11.66-9.05-17.94-13-2.48-1.55-3-3.86-1.23-6.41-1.5-.85-3-1.74-4.49-2.54-7.19-3.79-7.24-3.78-7.45,4.28-.35,13.41,3.26,25.88,9.95,38.07C323,145.2,314.57,138.15,308,127.31a52.49,52.49,0,0,0-3.24,18.28c-.53,30,10.43,55.37,31.15,76.75,2.4,2.47,4.93,4.47,4.49,8.74-4.56,43.59-1.08,87,3,130.42,4.19,34.81,9.48,69.43,18.29,103.43C362.11,466.83,362.22,468.93,363.23,470.65Z" transform="translate(-128.6 -18.68)"/><path class="cls-4" d="M535.81,223.13c-40.35,13.45-81.61,18.54-124,13.86-13.38-1.48-15-5.13-17.72,14.59-3.79,27.19-6.55,54.49-9.75,81.74-5.41,46-10.91,92-21.12,137.33a5.49,5.49,0,0,0,1.39,1.6h0c9.74-38.76,14.78-78.32,19.54-117.9C388.62,317.25,392,280,397.43,243c.69-4.7,2.13-5.77,6.57-5.08,34.42,5.32,68.53,3.15,102.45-4.36,12.63-2.8,24.89-7,38.81-10.85C543.21,219.6,538.9,222.1,535.81,223.13Z" transform="translate(-128.6 -18.68)"/><path class="cls-4" d="M839.67,439.79c-16-50.22-30-101-40.21-152.7-3.23-16.41-6.64-32.82-8.51-49.42-1.34-11.87-7-18.3-18.47-21.14a160.34,160.34,0,0,0-33.23-4.94c-25.84-.85-50.52,5.52-74.86,13.15-21.67,6.79-42.85,15.07-64.52,21.92-25.9,8.19-52.31,12.83-79.61,11.3-5.19-.29-10.15-1.35-16.51-2.85a158.94,158.94,0,0,0,36.59-23.28c2.58-2.21,6.91-4.85,5.24-8.48-13.88,14.85-29.6,24.19-47.47,31.9a26.67,26.67,0,0,0,3.44,1.45c4.13.93,8.24,2,12.42,2.61,25.46,3.56,50.2-.51,74.69-7.18,32.69-8.91,63.84-22.61,96.65-31.14,28.33-7.36,56.68-10.43,85.7-2.78,11.57,3,16,8.75,17.82,20.59a1238.46,1238.46,0,0,0,51.06,208q.52-1.5,1-3C840.54,442.44,840.09,441.11,839.67,439.79Z" transform="translate(-128.6 -18.68)"/><path class="cls-3" d="M432,841.87c14.62,12.34,32.22,18.94,49.72,25.83,19.9,7.83,40.41,13.58,61.12,18.7,11,2.73,22.17,5.19,33.35,7.26,4.3.79,6.55,2.33,7.51,6.73,4.8,22,9.85,43.92,14.82,65.88a29,29,0,0,0,1,4.3c.63,1.56,1.21,3.63,3.4,3.4s2.62-2.38,2.81-4c3-23.62,9.91-46.46,13.75-69.9.76-4.64,2.59-7.1,7.93-8,42.14-7.46,80.64-23.8,116.13-47.74,6.86-4.63,12.42-11.57,21.11-13.38-17.45-11.32-32.15-25.56-44.77-42h0c-5.48,4.18-12.35,3.67-18.43,4.18-24.24,2-48.41,3.07-72.81-.75a459.8,459.8,0,0,1-65.82-15.25C543.14,771,525,761.25,506.56,752c-3.71-1.87-3.9-4.74-3.95-8h0a188.09,188.09,0,0,1-13.82,31C472.9,803,450,823.52,421.7,838.37A14,14,0,0,1,432,841.87Z" transform="translate(-128.6 -18.68)"/><path class="cls-5" d="M369.42,130.19c23.26,9.6,47.16,11.26,71.95,7,28.76-5,55.79-14.81,82.57-26,24.4-10.18,48.9-20.32,74.48-27.26a387.24,387.24,0,0,1,68.36-12c20.43-1.77,40.31,0,60.27,3.29,11.38,1.89,22.18,5.81,33,9.76,5.15,1.88,10,4.43,15.38,5.82C768,81.24,759.12,73.3,750.09,65.49c-43.34-37.46-93-53.32-150.16-44.37C562.3,27,527.73,41.33,493.7,57.5c-29.21,13.88-57.42,29.91-87.6,41.73-22,8.61-44.33,15.28-68.25,8C345.81,118.43,357.07,125.1,369.42,130.19Z" transform="translate(-128.6 -18.68)"/><path class="cls-5" d="M339.08,113.66c6.28,3.91,11.21,9.67,17.94,13,23,11.25,46.56,17.44,72.69,14a319.11,319.11,0,0,0,57.81-13c14.57-4.78,28.35-11.6,42.65-17,27.32-10.28,54.19-21.82,82.94-28.25a379.78,379.78,0,0,1,46-7.8c15.74-1.52,31.57-2.65,47.56-.48A243.19,243.19,0,0,1,759,86.69c5.17,1.91,9.86,7.26,16.41,4.06-5.33-1.39-10.23-3.94-15.38-5.82-10.77-4-21.57-7.87-33-9.76-20-3.33-39.84-5.06-60.27-3.29a387.24,387.24,0,0,0-68.36,12c-25.58,6.94-50.08,17.08-74.48,27.26-26.78,11.17-53.81,21-82.57,26-24.79,4.29-48.69,2.63-71.95-7-12.35-5.09-23.61-11.76-31.57-22.94C336.11,109.8,336.6,112.11,339.08,113.66Z" transform="translate(-128.6 -18.68)"/><path class="cls-6" d="M395.9,854.35c17.33,12.83,36.24,23.1,55.47,32.52,24,11.73,48.94,21.33,75,27.55.73.17,1.48.24,2.2.44,25.55,7.31,21.79,4.68,29.58,27.9,12.22,36.41,22.54,73.5,38.09,108.74.87,2,1.06,5.12,3.63,5.18s2.93-3,3.82-5c15.09-33.4,30.52-66.65,43.69-100.9,2.94-7.64,5.9-15.34,9.3-22.84a13.29,13.29,0,0,1,9.19-7.88c32.09-9.27,62.45-22.4,89.83-41.8,11.4-8.07,22.66-16.37,32.57-26.31,3.39-3.41,7-6.54,12.36-4.49h0a205.24,205.24,0,0,1-36-16.5h0c-16,13.65-33.92,24.43-52.43,34.22a274.53,274.53,0,0,1-80.92,28.12c-6.29,1.11-9.1,4-10.35,10.53-4.17,21.78-9.52,43.33-13.29,65.2-.47,2.73-1.18,6-4.42,6.19-4.41.22-5.69-3.66-6.33-7.09-3.72-19.86-10.21-39.12-13.3-59.08-1.38-8.9-5-13.46-14.29-15a440.54,440.54,0,0,1-71.64-18.34c-23.27-8-46.81-15.92-66.37-31.81-3-2.4-6.93-2.85-9.65-5.54-11.15,5.51-23.14,8.82-34.7,13.26C390.6,850.46,393.34,852.46,395.9,854.35Z" transform="translate(-128.6 -18.68)"/><path class="cls-6" d="M393.55,855.06c27.68,19.64,57.76,34.69,89.07,47.55C502.91,911,524.5,914.9,545.16,922c3.28,1.12,4.88,2.37,5.94,5.57,9.07,27.53,18.58,54.93,27.42,82.54,5.15,16.09,11.56,31.64,18,47.23.64,1.56,1.23,3.56,3.29,3.65s2.77-2.13,3.46-3.5c3.9-7.76,7.74-15.56,11.22-23.52,5.95-13.56,11.32-27.39,17.47-40.86,8.64-18.92,16.19-38.26,23.77-57.61,1.79-4.56,2.05-11.13,7.66-12.84,11.58-3.54,23.09-7.08,34.44-11.47a278.47,278.47,0,0,0,92.55-58.56c3-2.84,5.95-5.33,10.34-5.15-5.4-2.05-9,1.08-12.36,4.49-9.91,9.94-21.17,18.24-32.57,26.31-27.38,19.4-57.74,32.53-89.83,41.8a13.29,13.29,0,0,0-9.19,7.88c-3.4,7.5-6.36,15.2-9.3,22.84-13.17,34.25-28.6,67.5-43.69,100.9-.89,2-1.27,5.06-3.82,5s-2.76-3.22-3.63-5.18c-15.55-35.24-25.87-72.33-38.09-108.74-7.79-23.22-4-20.59-29.58-27.9-.72-.2-1.47-.27-2.2-.44-26.1-6.22-51.06-15.82-75-27.55-19.23-9.42-38.14-19.69-55.47-32.52-2.56-1.89-5.3-3.89-8.9-2.72h0A55,55,0,0,1,393.55,855.06Z" transform="translate(-128.6 -18.68)"/><path class="cls-6" d="M497.72,875.72a440.54,440.54,0,0,0,71.64,18.34c9.28,1.52,12.91,6.08,14.29,15,3.09,20,9.58,39.22,13.3,59.08.64,3.43,1.92,7.31,6.33,7.09,3.24-.16,4-3.46,4.42-6.19,3.77-21.87,9.12-43.42,13.29-65.2,1.25-6.5,4.06-9.42,10.35-10.53a274.53,274.53,0,0,0,80.92-28.12c18.51-9.79,36.41-20.57,52.43-34.22-8.69,1.81-14.25,8.75-21.11,13.38-35.49,23.94-74,40.28-116.13,47.74-5.34.94-7.17,3.4-7.93,8-3.84,23.44-10.76,46.28-13.75,69.9-.19,1.58-.7,3.74-2.81,4s-2.77-1.84-3.4-3.4a29,29,0,0,1-1-4.3c-5-22-10-43.89-14.82-65.88-1-4.4-3.21-5.94-7.51-6.73-11.18-2.07-22.31-4.53-33.35-7.26-20.71-5.12-41.22-10.87-61.12-18.7-17.5-6.89-35.1-13.49-49.72-25.83a14,14,0,0,0-10.3-3.5c2.72,2.69,6.69,3.14,9.65,5.54C450.91,859.8,474.45,867.72,497.72,875.72Z" transform="translate(-128.6 -18.68)"/><path class="cls-4" d="M618.64,736.27c23.09-1.86,45.2-7.46,65.65-18.76,2.15-1.19,4.52-2,6.78-3h0a205.43,205.43,0,0,0,66.5-71h0A254.07,254.07,0,0,1,724,673a162.87,162.87,0,0,1-52.49,24.79c-7.62,2.08-9.47,1.21-12.8-6.2a231.81,231.81,0,0,1-8.9-23.82c-1.53-4.74-3.94-6.27-8.93-4.55-24.46,8.48-49,7.91-73.31-.48-5.63-1.94-8.31-.21-9.85,5.27-2,7.2-4.69,14.2-6.86,21.37-2.94,9.68-5.75,11.15-15.36,8.45-29.22-8.21-55.4-22.29-79.32-40.84-3.38-2.63-4.9-7-9-8.84a190.23,190.23,0,0,0,61.72,66.19C543.09,733.55,580,739.39,618.64,736.27Z" transform="translate(-128.6 -18.68)"/><path class="cls-4" d="M456.15,657c23.92,18.55,50.1,32.63,79.32,40.84,9.61,2.7,12.42,1.23,15.36-8.45,2.17-7.17,4.84-14.17,6.86-21.37,1.54-5.48,4.22-7.21,9.85-5.27,24.34,8.39,48.85,9,73.31.48,5-1.72,7.4-.19,8.93,4.55a231.81,231.81,0,0,0,8.9,23.82c3.33,7.41,5.18,8.28,12.8,6.2A162.87,162.87,0,0,0,724,673a254.07,254.07,0,0,0,33.6-29.42,2.74,2.74,0,0,0-.34-.66c-.15-.15-.53-.35-.6-.29-2.71,2.48-5.42,4.95-8.09,7.48-23,21.69-48.56,38.87-79.82,46.46-4.15,1-5.9,0-7.25-3.58-3.67-9.79-7.36-19.58-11.28-29.27-.82-2-.45-5.81-5.21-3.92-27,10.71-54.12,9.27-81.05-.28-4.39-1.56-5.64-.31-6.81,3.53-2.89,9.54-6.26,18.93-9.1,28.48-1.58,5.34-4,6.82-9.69,5.21a221.46,221.46,0,0,1-87.4-47.05c-1-.87-1.59-3.34-3.76-1.54C451.25,649.94,452.77,654.32,456.15,657Z" transform="translate(-128.6 -18.68)"/><path class="cls-7" d="M517.89,755.43c34.24,18.17,70.85,28.8,109.09,34.65,28.87,4.42,57.53,3.5,86.24-.81a34.1,34.1,0,0,1,6.7-.33h0c-15.29-22.6-25.23-47.27-28.85-74.39h0c-7.12,7.52-16.69,10.85-26,13.9-46,15.09-91.91,14.83-137.25-2.86-6.78-2.65-14.2-4.9-18.93-11.29A221.2,221.2,0,0,1,502.61,744h0C506.15,749.85,512.26,752.44,517.89,755.43Z" transform="translate(-128.6 -18.68)"/><path class="cls-7" d="M713.22,789.27c-28.71,4.31-57.37,5.23-86.24.81-38.24-5.85-74.85-16.48-109.09-34.65-5.63-3-11.74-5.58-15.28-11.45.05,3.29.24,6.16,3.95,8,18.39,9.24,36.58,19,56.3,25.11a459.8,459.8,0,0,0,65.82,15.25c24.4,3.82,48.57,2.8,72.81.75,6.08-.51,13,0,18.43-4.18A34.1,34.1,0,0,0,713.22,789.27Z" transform="translate(-128.6 -18.68)"/><path class="cls-7" d="M527.82,725.59c45.34,17.69,91.25,17.95,137.25,2.86,9.31-3.05,18.88-6.38,26-13.9h0c-2.26,1-4.63,1.77-6.78,3-20.45,11.3-42.56,16.9-65.65,18.76-38.63,3.12-75.55-2.72-109.75-22C513.62,720.69,521,722.94,527.82,725.59Z" transform="translate(-128.6 -18.68)"/><path class="cls-7" d="M859.68,369.45c-5.14,23.12-9.6,46.38-15,69.44-.59,2.51,0,6.29-3.2,7.53,0,.2.08.39.1.6-.4,9.72-2.4,19.2-4.44,28.69-1.47,6.82-.31,7.94,6.6,7.54,4.35-.26,8.93-1.84,12.76,1.78h0c23.16-4,42.86-14.49,58.06-32.44,28.76-33.94,15.18-76.32-27.74-87.8-9-2.41-18.19-2.45-27.32-3.37C861,364.06,860.27,366.79,859.68,369.45Z" transform="translate(-128.6 -18.68)"/><path class="cls-7" d="M843.73,483.25c-6.91.4-8.07-.72-6.6-7.54,2-9.49,4-19,4.44-28.69,0-.21-.07-.4-.1-.6a6,6,0,0,1-1.58.36,238.57,238.57,0,0,1-5.32,30.47c-1.88,7.31.47,9.82,7.92,8.3a53.89,53.89,0,0,1,14-.52C852.66,481.41,848.08,483,843.73,483.25Z" transform="translate(-128.6 -18.68)"/><path class="cls-7" d="M851.55,397.75c-3.77,15.29-5.75,31-10.64,46a21,21,0,0,1,.56,2.64c3.22-1.24,2.61-5,3.2-7.53,5.41-23.06,9.87-46.32,15-69.44.59-2.66,1.28-5.39-.19-8h0C856.86,373.54,854.51,385.72,851.55,397.75Z" transform="translate(-128.6 -18.68)"/><path class="cls-7" d="M840.91,443.78q-.49,1.5-1,3a6,6,0,0,0,1.58-.36A21,21,0,0,0,840.91,443.78Z" transform="translate(-128.6 -18.68)"/><path class="cls-7" d="M353.94,485.38c9.54-3.14,9.54-3.13,8.92-13.07l.06-.24c-2.29-.75-2.29-3.5-2.85-5.37-6.61-22.19-10.19-45-13.73-67.83-1.37-8.82-3.14-17.59-4-26.49-.36-3.72-1.13-7.41,1-10.88-11.38.73-22.79.85-33.89,4.24-35,10.73-50.08,46.57-31.36,76.37,17.22,27.42,43.05,41,74.79,44.21h0A2.69,2.69,0,0,1,353.94,485.38Z" transform="translate(-128.6 -18.68)"/><path class="cls-7" d="M364.68,473c0-.24,0-.48-.06-.73h0a4.62,4.62,0,0,1-1.7-.18l-.06.24c.62,9.94.62,9.93-8.92,13.07a2.69,2.69,0,0,0-1.08.94C365.92,485.87,365.92,485.87,364.68,473Z" transform="translate(-128.6 -18.68)"/><path class="cls-7" d="M342.36,372.38c.84,8.9,2.61,17.67,4,26.49,3.54,22.81,7.12,45.64,13.73,67.83.56,1.87.56,4.62,2.85,5.37.11-.47.21-.94.31-1.42-1-1.72-1.12-3.82-1.62-5.72-8.81-34-14.1-68.62-18.29-103.43C341.23,365,342,368.66,342.36,372.38Z" transform="translate(-128.6 -18.68)"/><path class="cls-7" d="M363.23,470.65c-.1.48-.2,1-.31,1.42a4.62,4.62,0,0,0,1.7.18A5.49,5.49,0,0,1,363.23,470.65Z" transform="translate(-128.6 -18.68)"/><path class="cls-8" d="M1062.29,1192.71q-462.22,0-924.45,0c-2.72,0-5.49-.48-8.16.51,2.23.13,4.47.38,6.7.38q461.45,0,922.88,0c3.73,0,7.46-.25,11.19-.38h0C1067.78,1192.25,1065,1192.71,1062.29,1192.71Z" transform="translate(-128.6 -18.68)"/><path class="cls-8" d="M1064.06,1192q-463.62,0-927.22,0c-2.41,0-5-.75-7.16,1.2,2.67-1,5.44-.51,8.16-.51q462.22,0,924.45,0c2.72,0,5.49-.46,8.16.49C1068.6,1191.34,1066.24,1192,1064.06,1192Z" transform="translate(-128.6 -18.68)"/><path class="cls-4" d="M491.05,575.71c8.05-11.39,18.34-18.36,32.17-19.12,8.3-2.55,16.76-1.26,25.15-.87,17.41.82,34.94,2.62,50.35-8.38,1.25-.9,2.12-.67,3.27.12,15,10.29,31.94,9.33,48.92,8.32,9.66-.57,19.37-1.6,28.94,1h0c13.18,1.52,23,8.28,30.12,19.71.44-.93.78-1.3.78-1.67-.34-26.7-11.1-48.09-34.3-61.56-23.54-13.67-47.73-12-71.16,1.28-3.26,1.84-5.32,3-9.13.57-20.13-12.7-41.69-14.3-63.75-6.05C506.59,518.71,487.29,549.93,491.05,575.71Z" transform="translate(-128.6 -18.68)"/><path class="cls-1" d="M679.21,557.13c-20.53-1-41.54,5.67-61.44-1-12.54-4.22-23.07-4.43-35.24.36-9.91,3.89-21.06,3.31-31.78,1.51-9.12-1.54-18.43.59-27.53-1.38,4.87,25,20,41.49,42.85,51.43,16.91,7.35,34.52,7.71,52.64,6,30.72-3,56.63-26.72,61.14-57.19C678.89,557,680.18,557.18,679.21,557.13Z" transform="translate(-128.6 -18.68)"/><path class="cls-1" d="M650.91,555.78c-17,1-33.9,2-48.92-8.32-1.15-.79-2-1-3.27-.12-15.41,11-32.94,9.2-50.35,8.38-8.39-.39-16.85-1.68-25.15.87,9.1,2,18.41-.16,27.53,1.38,10.72,1.8,21.87,2.38,31.78-1.51,12.17-4.79,22.7-4.58,35.24-.36,19.9,6.7,40.91.08,61.44,1,1,0-.32-.11.64-.35h0C670.28,554.18,660.57,555.21,650.91,555.78Z" transform="translate(-128.6 -18.68)"/><path class="cls-4" d="M548.64,335.24c-14.15-31.9-51-50.08-83.53-42.14-28.55,7-55.56,35.55-54.56,57.75C453.07,318.55,499.25,317.12,548.64,335.24Z" transform="translate(-128.6 -18.68)"/><path class="cls-4" d="M792.43,353c-4.84-31.4-35.66-57.69-68-59.49-29.68-1.65-62.14,17.2-70.83,42.47C702.54,318.47,749.56,316.84,792.43,353Z" transform="translate(-128.6 -18.68)"/><path class="cls-9" d="M599.86,498.31c5.23.11,6.11-4,6.11-8.39q0-34.05.1-68.09c0-4.34-.51-8.66-5.75-8.7-5.75-.05-6.13,4.59-6.1,9.14.08,11,0,22,0,32.92h-.14c0,11.48,0,22.95,0,34.42C594.05,493.93,594.59,498.19,599.86,498.31Z" transform="translate(-128.6 -18.68)"/><path class="cls-10" d="M533.28,394.93c0-8.58-6.33-14.82-15.15-14.93a14.77,14.77,0,0,0-15.07,15.06,15,15,0,0,0,15.25,15A14.7,14.7,0,0,0,533.28,394.93Z" transform="translate(-128.6 -18.68)"/><path class="cls-11" d="M666.92,394.74c-.16,8.86,5.94,15.26,14.62,15.33A14.88,14.88,0,0,0,697,395.27,14.7,14.7,0,0,0,682.17,380C673.25,380,667.08,385.93,666.92,394.74Z" transform="translate(-128.6 -18.68)"/></svg>