<svg id="Capa_1" data-name="Capa 1" xmlns="http://www.w3.org/2000/svg" viewBox="0 0 975.67 1134.42"><defs><style>.cls-1{fill:#372538;}.cls-2{fill:#7a5c69;}.cls-3{fill:#a1544e;}.cls-4{fill:#813e38;}.cls-5{fill:#e09f60;}.cls-6{fill:#e09f61;}.cls-7{fill:#e09e60;}.cls-8{fill:#e09f5f;}.cls-9{fill:#fefefe;}.cls-10{fill:#07070a;}.cls-11{fill:#352735;}.cls-12{fill:#362636;}.cls-13{fill:#823f38;}</style></defs><title>10</title><path class="cls-1" d="M629.31,728.94c1.65-.2,3.33-.13,5-.18h0c16-3.74,32-7.73,47-14.71h0c2.59-1.59,5.12-3.28,7.76-4.76,26.85-15,45.7-36.34,53.19-66.79,1.65-6.71,3.81-13.3,5.52-20,8.62-33.59,12.7-67.93,16.95-102.24C766.14,499,768,477.79,769,456.53c.79-17.2.58-34.44.81-51.66h0c0-31.78-.9-63.54-2.42-96.49l5.71,4c11.54,8,25.77,8.67,35,1.67,7.55-5.71,8.7-15.24,3.61-30-.27-.78-.41-1.61-.71-2.39-4-10.27-10-19.4-15.43-29.13,9.76,7.68,19.36,15.4,30.47,20.86,4.77,2.34,10.05,5,14.93,1.46,5.21-3.78,5.66-9.95,4.87-15.91-1.27-9.57-5.38-17.92-11.35-25.5-7.67-9.75-18.07-15.89-30-22.35,14.13-1.89,26.75-3.35,37.88-10.06,14.92-9,15.3-28,.75-37.67-5.87-3.92-12.48-6-19.37-7.22-22.79-4.13-45.65-2.2-69-.43,1.46-2.94,4.07-3.28,6.12-4.4,11.93-6.54,24.16-12.74,33-23.52,4.34-5.29,7.66-11.17,4.26-18.3-3.64-7.62-10.54-9.27-18.12-9.14a50.67,50.67,0,0,0-15.5,2.8c-6.56,2.22-13.08,4.52-19.62,6.78,4.45-5.36,9.49-9.7,13.17-15.32,8.46-12.91,5.48-25.54-8.11-32.79a55.36,55.36,0,0,0-11.66-4.34c-10.24-2.77-20.75-3.57-31.33-3.83-19.7-.48-39.13,2-58.48,5.76-.21-2.76,1.93-3,3-4.19,3.65-4,10.54-7.86,8.4-13.13-2.54-6.25-10.3-3.39-15.8-3-18.88,1.42-37.27,5.73-55.47,10.73C541,62.93,495.09,80,454.2,108.36c-20.32,14.09-38.4,30.53-47.51,54.31a305.15,305.15,0,0,0-19.21,84.13c-3.49,41.6,4.76,81.82,13.86,122,2.75,12.16,6,24.26,4.5,36.94q2.61,56.43,5.21,112.87h0c1.41,1.64,1,3.67,1.19,5.57,2.82,27,5.6,54.05,11.94,80.51,12.08,50.44,37.34,90.87,86.94,112.38h0c19.24,5.17,38.6,9.7,58.46,12A252.22,252.22,0,0,0,629.31,728.94ZM498.89,561.25c.17,14.48,2.92,28.67,4.4,43,.73,7,4.75,16.39-3.62,20.41-8.62,4.15-15.11-3.55-20.54-9.24-9.33-9.77-15.21-21.83-19.92-34.37-9.24-24.57-13.56-50.25-16.56-76.2-4.73-41-3.92-82.06-3.28-123.16.05-3.36-.05-6.5,3.08-9,16.44-13,21.69-31.68,25-51.06A214.94,214.94,0,0,0,469,259.27c12,12.36,24.25,23.9,38.17,33.57,15.29,10.61,31.91,17.77,50.47,20.25,15.83,2.12,22.7-4.77,19.62-20.58-1.3-6.68-3.86-13.11-6.51-21.84,10.1,12.14,18.88,22.44,29.19,31.25,14.73,12.57,30,24,50.78,23.74,18-.24,26.49-10.26,22.9-28-1.08-5.36-2.79-10.58-4.77-17.93,7.12,8.53,12,16.15,18.31,22.61,7.63,7.8,15.59,15.12,25.71,19.5,3.61,1.56,4.59,4.11,5.39,7.53,3.4,14.59,6.57,29.26,12.91,43,2.92,6.33,6,12.72,11.87,16.82,3.88,2.71,3.1,6.29,2.85,9.68-2.14,28.5-3.91,57-6.85,85.46-3.59,34.75-8.38,69.36-18,103.09-3.44,12-7.32,23.94-16,33.47-2.52,2.78-5.31,6.89-9.55,5.47-4.75-1.58-4.44-6.61-4.23-10.75.56-10.8.88-21.64,2.2-32.35A86.15,86.15,0,0,0,691,550.32c-3.57-13.49-12.09-20-26-20-20.27-.08-40.46,1.56-60.67,2.72-7.37.43-14.84-1.57-22.29-2-21.88-1.23-43.85-3.16-65.18,4.15C503,540,498.71,546.43,498.89,561.25ZM569,556.78q33.66-.16,67.33-.56a32.09,32.09,0,0,0,4.82-.73H563.12c0-.4-.09-.8-.14-1.2a10.87,10.87,0,0,1,2.34-.5q52.81-.07,105.63,0c2.34,0,5.15-.92,6.56,2.14-15.77,14.88-34.91,23-55.85,27-37.18,7.15-70.18-3.25-100.36-26.12C537.21,556.8,553.12,556.87,569,556.78Z" transform="translate(-112.17 -38.12)"/><path class="cls-2" d="M1007.69,1136.34c-.45-8,2.52-9.67,9.86-9.46,17.49.49,35,.18,52.49.11,3,0,6-.51,9.06-.77q-.57-2.68-1.16-5.38c-21,0-42.07-.27-63.1,0-5.38,0-7.23-1.41-7.08-7,.37-13.55.33-27.12,0-40.68-.14-5.59,2.05-7.14,7.28-7.08,16.3.17,32.6,0,48.91-.08l-1.46-5.22c-15.83,0-31.66-.23-47.49,0-5.2.08-7.43-1.09-7.26-6.83.39-13.6.3-27.22.06-40.83-.08-4.72,1.52-6.19,6.21-6.22,10.53-.07,21.09,1.05,31.58-.63-.67-1.91-1.35-3.81-2-5.72-9.68,0-19.37-.2-29,.24-5.74.27-6.93-2.08-6.79-7.27.32-12.16.51-24.35-.07-36.49-.33-6.84,1.13-11.08,8.6-11.48h0c-5.43-5.65-10.2-12-16.55-16.68-.66,11.81-.66,11.79-12.31,11.76-10.52,0-21-.29-31.54.12-5.89.24-8.43-1-8.16-7.66.55-13.53.22-27.11.25-40.67l-7.18-4.29c-3,13.1-.81,26.38-1.26,39.57-.43,12.91-.11,12.92-13.38,12.92-10.53,0-21-.17-31.57.08-4.68.12-7.06-.77-6.92-6.26.35-13.84.27-27.69,0-41.53-.09-4.86,1.82-6.17,6.36-6.08,11.35.24,22.7.17,34.05.06,2.66,0,5.58,1,7.93-1.22h0l-10.92-5.32c-9.71.11-19.46-.17-29.14.48-6.75.45-9.11-1.91-8.24-8.44a79.64,79.64,0,0,0,.24-9.15h0l-5.93-3.09c-5.12,3.73-2.15,9.09-2.43,13.64s-.9,7.13-6.4,7q-19.54-.49-39.1,0c-5.48.14-6.42-2.26-6.33-7,.24-11.64.07-23.29.07-34.94l-7.94-3.15c-.16,12.77-.54,25.54-.36,38.31.07,5-1.32,6.87-6.54,6.74q-19.15-.48-38.34,0c-5.44.15-7.15-1.54-7-7,.34-18.89.19-37.79.22-56.68h0l-8.28-3.36h0c-.06,19.71-.36,39.43-.05,59.13.1,6.17-1.57,8.25-7.91,8-12.2-.49-24.44-.45-36.64,0-6,.22-7.41-2-7.36-7.63.21-21.37-.07-42.75-.16-64.12h0c-2.77,1.56-6,2.29-8.2,4.88h0c0,19.68-.28,39.37.1,59,.13,6.37-1.91,8.07-8.05,7.83-12.18-.46-24.4-.38-36.58,0-5.42.15-7.16-1.51-7.06-7,.28-14.41,0-28.82-.14-43.23l-8.13.18h0c0,14.14-.3,28.28,0,42.41.13,5.58-1.19,7.88-7.28,7.66-12.18-.44-24.4-.43-36.57,0-6.08.23-8.3-1.36-8.06-7.78.46-11.9,0-23.83,0-35.75l-8,0h0c-.07,11.9-.35,23.81-.1,35.7.12,5.44-1,8-7.24,7.8-12.44-.47-24.92-.35-37.37,0-5.33.14-7.32-1.43-7.18-7,.33-13.84.09-27.69.07-41.53a14.52,14.52,0,0,0-8-1.62h0c-.11,14.16-.45,28.31-.22,42.46.09,5.51-1,8-7.23,7.75-12.48-.46-25-.48-37.47,0-6.23.23-7.29-2.33-7.24-7.79.21-19.71,0-39.42-.07-59.13-2.61-1.22-4.86-3.35-8-3.26h0c-.06,20.54-.33,41.08-.05,61.61.09,6.27-1.16,9-8.19,8.6-11.9-.62-23.87-.53-35.79,0-6.47.27-7.93-2.13-7.83-8.14.26-15.53-.13-31.07-.27-46.6h0L399.47,829c-.09,14.92-.43,29.84-.16,44.75.1,5.49-1.62,7.18-7,7-12.7-.32-25.43-.36-38.13,0-5.78.18-6.93-2.2-6.76-7.3.26-8.28-.08-16.57-.17-24.86h0L339,851.94c0,7.2-.19,14.41.16,21.6.25,5.17-1.09,7.48-6.86,7.3-12.72-.4-25.48-.41-38.2,0-5.16.15-7-1.89-7.07-6.53h0L264.2,885.84c.24.15.46.32.7.45,4.37,2.38,11.17-2.31,13.59,2.89,1.92,4.13.58,9.79.6,14.77,0,10-.3,19.95.11,29.91.22,5.6-1.86,7-7.15,6.9-12.74-.33-25.49-.36-38.22,0-5.28.14-6.59-1.78-6.43-6.73.27-8.57-.12-17.16-.23-25.74h0a24.37,24.37,0,0,0-8.44,6c.1,6.89,0,13.78.36,20.66.19,4.27-1.29,5.92-5.67,5.75-8.27-.31-16.55-.2-24.82-.27h0l-4.53,5.13c9,2.9,18.19,1.2,27.26,1.14,6.41,0,8,2.09,7.83,8.15-.42,13-.32,26.12-.07,39.18.09,4.85-1.07,7-6.44,6.82-12.78-.37-25.57-.31-38.35-.06-4.9.1-7-1.2-6.79-6.51.28-7.47-.24-15-.42-22.46h0c-5.52,11-8.62,22.85-12.47,34.45,3.89.51,4.53,2.94,4.48,6.48-.19,13.84-.3,27.7,0,41.54.12,5.24-1.75,6.76-6.71,6.45s-10,.09-14.94.18h0c-.91,1.5-1.87,3-1.32,4.88,1.38.09,2.75.23,4.13.26,18.72.37,18.72.37,18.73,18.7,0,10-.22,19.91.09,29.85.15,4.7-1.35,6.31-6.08,6.17-10.21-.29-20.44-.12-30.67-.15q-.72,2.71-1.46,5.43c10.12,2.06,20.36,1,30.52.78,6.39-.12,7.91,2,7.72,8.06-.38,12.4,0,24.83.12,37.25h0l7.94,0c.14-13,.4-26,.35-39,0-4.68.69-6.8,6.46-6.47,12.69.72,25.45.56,38.17.23,5.58-.14,7.06,1.84,7,7.15-.22,12.72.11,25.45.22,38.17h0l7.75,0c.14-12.77.53-25.54.29-38.3-.1-5.49,1.62-7.21,7.11-7,12.49.37,25,.43,37.49,0,6.2-.23,7.36,2.29,7.25,7.78-.25,12.49.08,25,.18,37.48h0l7.73,0c.15-13,.4-26,.38-38.94,0-4.18.46-6.72,5.77-6.55q19.47.64,38.95.23c5.55-.12,7.08,1.83,7,7.16-.21,12.7.16,25.41.3,38.11h7.58c.13-12.49.65-25,.23-37.47-.21-6.47,2-8,8.09-7.81,11.93.44,23.89.42,35.82,0,6-.21,8.32,1.29,8.1,7.81-.43,12.47.12,25,.26,37.46h0l7.59,0c.14-12.75.49-25.51.3-38.25-.08-5.47,1.72-7.22,7.2-7,12.47.37,25,.35,37.44,0,5.42-.15,7.25,1.51,7.15,7-.24,12.75.16,25.5.3,38.26h0l7.56,0c.13-12.77.41-25.53.3-38.3,0-4.69.84-7.13,6.34-7q19.57.51,39.15,0c5.45-.14,6.42,2.19,6.36,6.94-.15,12.76.13,25.54.24,38.31h7.71c.12-13,.35-26,.32-39,0-4.21.61-6.7,5.83-6.54,13,.4,26,.51,39,.24,5.56-.12,7.07,1.89,7,7.21-.22,12.7.14,25.41.26,38.12h0l7.68-.08c.12-12.48.61-25,.19-37.44-.21-6.45,2-8,8.1-7.82,11.92.44,23.88.44,35.79,0,6.11-.23,8.27,1.41,8.06,7.83-.42,12.46.07,25,.19,37.44h0l7.74,0c.14-13.05.45-26.11.34-39.16-.05-5,1-6.63,6.59-6.31a285.5,285.5,0,0,0,36.65.12c7.71-.55,8.59,2.35,8.41,8.79-.34,12.21.13,24.43.26,36.65h0l7.74,0c.13-12.75.53-25.51.27-38.26-.11-5.54,1.71-7.16,7.14-7,12.47.35,25,.41,37.44,0,6.15-.22,7.4,2.23,7.28,7.76-.26,12.47.07,25,.16,37.44h0l7.75.09c.12-12.49.62-25,.2-37.48-.21-6.45,2-8,8.08-7.81,11.93.46,23.9.44,35.83,0,6.08-.22,8.32,1.35,8.09,7.82-.43,12.48.06,25,.16,37.49h7.71c.14-12.75.55-25.51.29-38.25-.11-5.57,1.79-7.16,7.18-7q18.7.51,37.43,0c5.41-.15,7.29,1.47,7.18,7-.24,12.74.13,25.5.25,38.25h7.66c.11-12.5.46-25,.23-37.5-.11-5.47,1-8,7.23-7.8,12.48.48,25,.38,37.5,0,5.36-.14,7.3,1.36,7.19,7-.26,12.76.15,25.54.29,38.31h0l7.59,0c.14-12.74.53-25.48.31-38.21-.09-5.47,1.66-7.22,7.12-7.06,12.19.35,24.4.41,36.58,0,6.09-.22,8.33,1.45,8.12,7.85-.39,12.45,0,24.93.14,37.4h7.84C1007.7,1160.21,1008.36,1148.24,1007.69,1136.34ZM167.56,1012.17c0-4.13,1.73-5.22,5.5-5.18,13.58.13,27.17.16,40.76,0,4,0,5.37,1.47,5.26,5.38-.2,7.2-.05,14.41-.05,21.62,0,6.93-.15,13.87.06,20.8.12,4-.89,6-5.51,6-13.58-.24-27.17-.18-40.75,0-4,0-5.34-1.44-5.3-5.33C167.68,1041,167.72,1026.58,167.56,1012.17ZM219,1094.09h0c0,6.93-.17,13.87.07,20.79.14,4.1-.88,6-5.49,5.89-13.57-.26-27.16-.2-40.74,0-4,.06-5.3-1.47-5.27-5.34.13-14.41.16-28.82-.05-43.23-.07-4.88,2.12-6.16,6.55-6.11,13,.15,26.05.22,39.07,0,5-.1,6.13,2,6,6.45C218.84,1079.67,219,1086.89,219,1094.09Zm8.44-142.37c0-3.63,1.51-4.84,4.95-4.82,13.85.09,27.7.12,41.54,0,4.06,0,5.25,1.74,5.16,5.5-.17,7.48-.05,15-.05,22.43,0,6.65-.25,13.31.09,19.94.24,4.86-1.76,6.17-6.3,6.09-13.29-.21-26.58-.16-39.88,0-3.67,0-5.6-.82-5.55-5C227.62,981.07,227.58,966.39,227.47,951.72Zm46.23,169c-13.6-.13-27.21-.21-40.81,0-4.65.09-5.59-1.92-5.46-6,.23-6.93.06-13.88.07-20.82,0-7.5.16-15-.07-22.49-.11-3.92,1.23-5.45,5.23-5.41,13.6.15,27.21.12,40.81,0,4.39,0,5.7,2,5.66,6.15-.14,14.43-.16,28.87,0,43.31C279.2,1119.66,277.49,1120.8,273.7,1120.76Zm5.45-66.38c.06,4.39-.85,6.54-5.92,6.42-13.33-.32-26.67-.25-40,0-4.23.06-6-1.15-5.79-5.64.31-7.21.08-14.44.08-21.67,0-6.67.3-13.35-.11-20-.32-5.31,1.85-6.58,6.76-6.48q19.17.4,38.34,0c5-.11,6.85,1.41,6.73,6.59C278.91,1027.15,279,1040.77,279.15,1054.38ZM293.3,886.87c13.32.17,26.64.24,39.95,0,5-.1,6.06,2.16,5.91,6.53-.23,6.93-.06,13.87-.06,20.8s-.18,13.88.08,20.8c.16,4.4-1.56,5.79-5.83,5.73q-20-.27-39.94,0c-4.16,0-6-1.14-5.92-5.64q.31-21.21,0-42.44C287.43,888.28,289,886.81,293.3,886.87Zm40.34,233.89c-13.57-.13-27.14-.2-40.7,0-4.64.08-5.57-2-5.44-6,.22-6.92.06-13.85.06-20.77,0-7.2.14-14.4,0-21.6-.1-4,.91-6.33,5.44-6.3,13.57.09,27.14.06,40.71,0,3.78,0,5.5,1.56,5.47,5.47-.09,14.68-.13,29.35,0,44C339.2,1119.72,337.39,1120.8,333.64,1120.76Zm-.16-60c-13.31-.23-26.63-.26-39.94,0-4.87.1-6.12-1.77-6.05-6.32q.31-20.81,0-41.61c-.06-4.26,1.28-6,5.68-5.88,13.59.19,27.18.18,40.78,0,4,0,5.31,1.63,5.22,5.47-.18,7.2,0,14.42,0,21.63,0,6.94-.16,13.88.06,20.81C339.3,1059.12,338,1060.85,333.48,1060.77Zm5.63-86.47c0,6.66-.3,13.34.09,20,.31,5.27-1.82,6.66-6.76,6.56q-19.14-.37-38.29,0c-5,.09-6.83-1.39-6.71-6.61q.51-20.38,0-40.79c-.11-5.19,1.77-6.7,6.73-6.6q19.14.39,38.3,0c5-.1,7,1.5,6.71,6.66C338.85,960.41,339.12,967.37,339.11,974.3Zm13.59-87.37q20.35.2,40.7,0c4.16,0,5.93,1.22,5.86,5.68-.21,14.12-.18,28.24,0,42.36.06,4.26-1.34,5.9-5.72,5.83-13.56-.21-27.13-.26-40.7,0-4.67.07-5.53-2.06-5.41-6.05.21-6.91.06-13.84.05-20.76,0-7.2.14-14.4-.06-21.6C347.32,888.42,348.75,886.89,352.7,886.93Zm-5.21,86.71c0-6.93.17-13.87-.06-20.79-.13-4.09,1-6.08,5.53-6q20.37.3,40.74,0c4.6-.07,5.59,2,5.55,6.06-.14,14.13-.2,28.27,0,42.4.08,4.61-2,5.56-6,5.51-13.31-.15-26.62-.24-39.92,0-5,.11-6.12-1.94-5.94-6.41C347.69,987.51,347.49,980.57,347.49,973.64Zm51.74,141.18c0,4-.86,6.09-5.5,6q-20.42-.39-40.85,0c-4.67.08-5.57-2-5.46-6,.21-7.21.06-14.44.06-21.67s.16-14.46-.06-21.68c-.12-4,1.41-5.38,5.34-5.34q20,.21,40,0c4.47,0,6.55,1.4,6.48,6.24C399,1086.48,399.08,1100.65,399.23,1114.82Zm0-59.82c.05,4.25-1.3,5.85-5.71,5.77q-19.94-.35-39.87,0c-4.55.07-6.52-1.16-6.27-6,.34-6.9.08-13.84.08-20.76,0-7.2.14-14.4-.06-21.59-.1-3.92,1.34-5.4,5.29-5.35q20.36.21,40.7,0c4.18-.05,5.94,1.21,5.87,5.65Q399,1033.81,399.26,1055ZM414,886.82c13,.31,26.06.29,39.09,0,4.83-.09,6.21,1.79,6.15,6.35-.2,13.58-.23,27.17,0,40.75.08,4.89-1.23,6.93-6.52,6.79-13-.32-26.06-.25-39.09,0-4.78.09-6.32-1.66-6.12-6.29.3-6.92.08-13.86.08-20.79h0c0-6.66.22-13.32-.08-20C407.29,888.84,408.69,886.69,414,886.82Zm-6.4,86.59c0-6.66.28-13.34-.1-20-.3-5.25,1.86-6.68,6.77-6.59q19.13.36,38.28,0c5-.09,6.82,1.49,6.7,6.66q-.45,20.38,0,40.78c.13,5.28-1.86,6.63-6.78,6.53q-19.12-.39-38.28,0c-5,.11-7-1.45-6.71-6.62C407.87,987.29,407.6,980.34,407.6,973.41Zm-.06,40c-.06-4.44,1.07-6.55,6-6.45,13.31.27,26.62.23,39.93.06,4.33-.06,5.88,1.49,5.72,5.82-.26,7.2-.07,14.41-.07,23-.93,7,3.79,18-1.82,23.34-5.14,4.93-15.86,1.19-24.12,1.46-6.65.21-13.32-.17-20,.1-4.4.18-5.77-1.5-5.71-5.78Q407.82,1034.17,407.54,1013.39Zm49.8,105.91c-5.09,4.86-15.84,1.09-24.09,1.33-6.63.2-13.29-.14-19.93.12-4.28.16-5.86-1.31-5.79-5.7.21-14.12.19-28.24,0-42.36-.05-4.41,1.15-6.68,6-6.62,13.29.18,26.58.12,39.87,0,4.27,0,5.86,1.86,5.76,6.06-.19,7.47-.06,14.94-.06,23.67C458.23,1103,462.91,1114,457.34,1119.3Zm53.48,1.6c-12.47-.65-25-.32-37.51-.12-4.23.07-5.93-1.17-5.86-5.64q.32-21.26,0-42.52c-.06-4.58,1.42-6.56,6.17-6.51,13.34.15,26.68.16,40-.06,4.43-.07,5.8,1.62,5.64,5.88-.26,7.22-.07,14.45-.07,21.68,0,6.11-.42,12.27.11,18.33C519.93,1118.63,518.14,1121.28,510.82,1120.9ZM467.46,953.26c-.07-4.46,1.09-6.52,6-6.43q20,.36,39.93,0c5-.1,6.07,2.1,5.92,6.49-.25,6.92-.07,13.86-.07,20.79h0c0,6.93-.17,13.87.06,20.79.13,4.08-.91,6.06-5.5,6q-20.38-.35-40.76,0c-4.55.07-5.61-1.89-5.56-6C467.61,981,467.65,967.12,467.46,953.26ZM519.22,1034c0,6.92-.14,13.85.06,20.76.11,4-.76,6.08-5.43,6-13.56-.25-27.13-.23-40.69,0-4.41.07-5.74-1.53-5.69-5.79q.27-21.17,0-42.35c-.06-4.47,1.77-5.66,5.92-5.61,13.28.16,26.57.21,39.86,0,4.8-.1,6.26,1.71,6.07,6.29C519,1020.16,519.22,1027.09,519.22,1034Zm-1.79-94.83c-5.16,5-16.34,1.13-24.86,1.41-6.09.2-12.2-.17-18.27.12-4.75.24-7-.93-6.89-6.34.33-13.83.23-27.68.07-41.52-.05-4.15,1.13-6,5.61-6q20.36.29,40.7,0c4.59-.08,5.62,1.94,5.48,6-.22,6.91-.06,13.84-.06,22.5C518.4,922.38,523,933.71,517.43,939.18Zm15.64-52.28c13.59.13,27.19.18,40.78,0,4.69-.07,5.53,2.24,5.43,6.18-.17,6.94,0,13.88,0,20.81s-.15,13.88,0,20.81c.11,4-.79,6.13-5.46,6.05-13.6-.23-27.2-.15-40.79,0-3.87,0-5.46-1.28-5.42-5.28q.21-21.65,0-43.28C527.55,888.12,529.24,886.87,533.07,886.9Zm-5.42,86.89c0-6.94.15-13.88-.06-20.81-.12-4.05.92-6.14,5.51-6.08,13.6.19,27.2.12,40.79,0,3.9,0,5.41,1.42,5.37,5.36q-.19,21.64,0,43.29c0,4-1.66,5.31-5.5,5.28-13.31-.14-26.64-.2-39.95,0-4.64.07-6.47-1.46-6.26-6.22C527.87,987.67,527.64,980.73,527.65,973.79Zm45.84,147c-13.29-.22-26.59-.27-39.88,0-4.84.1-6.13-1.71-6.05-6.29q.36-20.77,0-41.55c-.09-5,1.54-7,6.63-6.89q19.11.33,38.23,0c4.87-.08,7.1,1.45,6.85,6.66-.32,6.91-.08,13.85-.07,20.78,0,7.2-.18,14.41.08,21.6C579.46,1119.49,577.78,1120.85,573.49,1120.78Zm-.07-60q-20-.42-40,0c-5.07.11-5.94-2.11-5.88-6.49q.28-20.38,0-40.79c-.06-4.33.8-6.65,5.88-6.55q20,.4,40,0c5.08-.1,6,2.19,5.9,6.53-.23,6.93-.07,13.88-.07,20.82,0,6.66-.19,13.32.06,20C579.46,1058.65,578.48,1060.88,573.42,1060.77Zm20.5-173.89c13.06.22,26.13.25,39.18,0,4.67-.09,6.48,1.33,6.27,6.12-.32,6.93-.08,13.89-.08,20.84s-.13,13.9.05,20.84c.11,4-.78,6.15-5.46,6.07q-20.42-.36-40.85,0c-4.67.08-5.51-2.08-5.47-6.06.14-13.9.23-27.8,0-41.69C587.45,888.07,589.38,886.81,593.92,886.88Zm45.36,147.27c0,6.95-.2,13.9.06,20.84.16,4.28-1.24,5.87-5.68,5.79-13.33-.24-26.68-.19-40,0-4,0-6.16-.71-6.09-5.42.23-14.45.14-28.9,0-43.35,0-3.57,1.38-5,4.91-4.94,13.9.08,27.79.13,41.69,0,4.09,0,5.26,1.68,5.17,5.47C639.16,1019.69,639.29,1026.92,639.28,1034.15ZM589.52,948.4c5.24-5,16.38-1.2,24.92-1.45,6.65-.19,13.3,0,19.95-.08,3.51-.06,4.94,1.36,4.91,4.9-.09,14.69-.15,29.37,0,44.05.06,4.3-2,5-5.62,5-13.3-.12-26.6-.19-39.89,0-4.62.08-6.48-1.32-6.25-6.12.32-6.91.08-13.85.08-22.29C588.5,965.21,583.8,953.88,589.52,948.4Zm49.82,166.05c.07,4.49-1,6.48-5.94,6.37q-20-.43-39.93,0c-5,.1-6.08-2-5.91-6.44.28-6.92.08-13.86.08-20.79s.24-13.88-.09-20.8c-.25-5.19,1.93-6.77,6.83-6.69q19.14.3,38.27,0c5-.09,6.82,1.74,6.72,6.8Q639,1093.64,639.34,1114.45Zm8.34-180.4c.3-13.31.27-26.63,0-39.94-.1-5.08,1-7.49,6.8-7.3,12.75.42,25.52.35,38.28,0,5.26-.13,6.74,1.87,6.51,6.81-.33,6.92-.08,13.87-.08,22.31-.88,7,3.75,17.93-1.81,23.27-5.09,4.88-15.87,1.07-24.13,1.35-6.37.22-12.78-.27-19.13.16C648.8,941.11,647.57,939,647.68,934.05Zm0,18.52c-.08-4.47,1.67-5.73,5.84-5.69q20,.24,40,0c4.22,0,6,1.41,5.77,5.8-.28,7.2-.07,14.43-.07,21.64,0,6.66-.18,13.33.06,20,.16,4.35-.81,6.66-5.88,6.55-13.31-.28-26.64-.24-40-.06-4.34.06-5.79-1.42-5.72-5.77Q648,973.8,647.71,952.57Zm51.5,140.72h0c0,7.22-.2,14.44.08,21.64.16,4.25-1.14,5.92-5.6,5.84-13.59-.23-27.19-.21-40.78,0-4.09.06-5.19-1.51-5.15-5.36.17-14.7.2-29.4,0-44.1-.05-4.12,1.59-5.24,5.39-5.21,13.31.12,26.63.15,39.94,0,4.7-.06,6.39,1.8,6.22,6.43C699,1079.42,699.21,1086.36,699.21,1093.29Zm-1.8-34c-5.06,4.82-15.87,1.17-24.14,1.39-6.65.19-13.32-.2-20,.1-4.49.21-5.65-1.59-5.59-5.81q.31-20.81,0-41.61c-.07-4.44,1-6.51,6-6.4,13.31.29,26.63.24,39.94,0,4.45-.06,5.79,1.69,5.65,5.9-.23,7.2-.06,14.42-.06,23C698.32,1043,703,1054,697.41,1059.27ZM713.3,886.89c13.61.21,27.23.16,40.84,0,4,0,5.39,1.53,5.28,5.42-.19,7.22,0,14.45-.06,21.67,0,7-.17,13.9.06,20.83.13,4.21-1.22,6-5.69,5.92-13.61-.22-27.22-.2-40.83,0-4,0-5.27-1.53-5.23-5.4.16-14.17.18-28.34,0-42.51C707.6,888.56,708.85,886.83,713.3,886.89Zm46.14,227.45c.06,4.38-.84,6.6-5.91,6.49q-20-.45-40,0c-5.06.12-6.06-2-5.89-6.42.26-6.93.07-13.88.07-20.82,0-7.22.2-14.45-.07-21.66-.16-4.34,1.38-5.86,5.73-5.8q19.56.27,39.15,0c4.82-.07,7,1.37,6.91,6.64C759.18,1086.57,759.25,1100.46,759.44,1114.34Zm-51.7-80.57c0-7,.17-13.9-.06-20.84-.14-4.14,1-6,5.56-6,13.6.22,27.22.17,40.83,0,3.93,0,5.39,1.4,5.35,5.35q-.23,21.66,0,43.34c.05,4.21-1.89,5.09-5.58,5-13.61-.13-27.23-.16-40.84,0-3.93,0-5.44-1.31-5.31-5.29C707.9,1048.22,707.74,1041,707.74,1033.77Zm51.71-39.71c.09,4.9-1.18,6.91-6.46,6.79-13-.32-26-.24-39,0-4.54.07-6.53-1.18-6.29-6.06.34-7.19.09-14.4.08-21.6,0-5.82.41-11.67-.11-17.44-.6-6.66,1.24-9.36,8.5-9,12.16.61,24.37.34,36.55.09,4.89-.1,6.91,1.29,6.79,6.53C759.16,966.91,759.18,980.49,759.45,994.06Zm14.16-107.17c13.3.16,26.6.22,39.89,0,4.85-.09,6.23,1.82,6,6.37-.28,6.63-.07,13.29-.07,19.94,0,7.2-.16,14.4,0,21.6.11,4.07-.94,6-5.53,6q-20.36-.35-40.72,0c-4.5.07-5.64-1.73-5.58-5.89.18-14.12.21-28.25,0-42.38C767.61,887.92,769.52,886.84,773.61,886.89Zm45.83,87.91c0,6.65-.13,13.3,0,19.94.11,4-.78,6.17-5.44,6.1-13.84-.22-27.7-.16-41.55-.06-3.61,0-4.81-1.46-4.78-5q.16-22,0-44.05c0-3.6,1.5-4.87,4.95-4.85,13.85.08,27.7.11,41.55,0,3.94,0,5.37,1.59,5.28,5.45C819.32,959.84,819.45,967.32,819.44,974.8Zm-5.72,146c-13.34-.21-26.68-.26-40,0-4.86.1-6.13-1.68-6.05-6.29.24-14.17.22-28.35,0-42.52-.06-4.26,1.24-6,5.65-5.89q20,.27,40,0c4.8-.07,6.3,2,6.15,6.54-.25,6.93-.07,13.89-.06,20.84,0,7.22-.21,14.46.09,21.67C819.72,1119.6,818,1120.83,813.72,1120.76Zm5.8-65.67c.07,4.38-1.5,5.74-5.79,5.67-13.56-.2-27.14-.17-40.71,0-3.89,0-5.44-1.26-5.32-5.26.22-7.19.06-14.4,0-21.6s.13-14.4-.06-21.6c-.11-3.95,1.43-5.34,5.34-5.3,13.57.15,27.14.18,40.71,0,4.24,0,5.87,1.34,5.81,5.73Q819.22,1033.9,819.52,1055.09Zm60-60.15c.06,4.25-1.26,5.94-5.68,5.88-13.33-.2-26.66-.24-40,0-4.89.1-6.21-1.84-6-6.38.28-6.93.07-13.88.07-20.82s.17-13.89-.07-20.83c-.14-4.2,1.2-6,5.65-5.95,13.33.18,26.66.22,40,0,4.88-.09,6.13,1.94,6.06,6.44Q879.21,974.11,879.5,994.94ZM827.8,892.68c-.06-4.36,1.52-5.84,5.8-5.78,13.31.17,26.62.23,39.93,0,5-.1,6.14,2,6,6.46-.25,6.92-.07,13.86-.07,20.8s-.18,13.87.06,20.79c.16,4.36-1.52,5.83-5.81,5.77-13.31-.18-26.63-.15-39.94,0-4.1,0-6-1.06-6-5.6Q828.11,913.9,827.8,892.68Zm0,120.82c-.12-5.22,1.76-6.64,6.72-6.54q19.14.42,38.28,0c4.92-.1,7,1.28,6.75,6.53-.37,6.91-.09,13.86-.1,20.79s-.2,13.88.07,20.81c.18,4.46-1.66,5.72-5.87,5.66-13.31-.19-26.63-.27-39.94,0-5.06.11-5.95-2.11-5.88-6.48C828,1040.69,828.09,1027.09,827.77,1013.5Zm44.09,107.38c-12.72-.52-25.48-.28-38.22-.1-4.18.06-5.91-1.11-5.84-5.61.23-14.4.18-28.81,0-43.22,0-4.34,1.74-5.91,5.91-5.87q19.95.15,39.89,0c4.16,0,6,1.63,5.88,6-.21,7.2-.06,14.41-.06,21.61,0,6.37-.35,12.77.11,19.11C880,1118.72,878.41,1121.15,871.86,1120.88Zm15.82-127.24c.34-13.29.28-26.6,0-39.89-.09-4.8,1-7,6.39-6.92q19.53.46,39.06,0c5.4-.14,6.6,2.12,6.4,6.9-.29,6.92-.08,13.85-.07,20.78,0,6.37-.27,12.76.08,19.11.29,5.14-1,7.47-6.76,7.28-12.73-.41-25.49-.39-38.22,0C889,1001,887.54,999,887.68,993.64Zm51.89,120.82c.07,4.47-1,6.45-6,6.34q-20-.48-40,0c-5,.11-6.12-1.89-5.94-6.37.29-6.93.08-13.88.08-20.81s.26-13.89-.08-20.81c-.25-5.17,1.87-6.8,6.8-6.72q19.14.29,38.29,0c5-.09,6.86,1.68,6.77,6.77C939.33,1086.71,939.36,1100.59,939.57,1114.46Zm-1.6-55.71c-4.75,5.66-16.13,1.47-24.62,1.89-6.38.31-12.81-.27-19.17.14-5.33.35-6.56-1.84-6.46-6.75q.4-20.43,0-40.86c-.09-4.73,1.5-6.3,6.2-6.21q20,.36,40,0c4.51-.07,5.76,1.75,5.63,5.92-.23,7.22-.07,14.46-.07,21.68h-.68C938.82,1042.88,942.06,1053.89,938,1058.75Zm61.54,35.14h0c0,7.2-.14,14.41,0,21.61.11,4-1.49,5.34-5.37,5.29q-20.35-.22-40.73,0c-3.65,0-5.64-.75-5.59-5,.18-14.68.15-29.37,0-44,0-3.9,1.5-5.56,5.35-5.55,13.58,0,27.16.07,40.73,0,4.4,0,5.73,2.09,5.63,6.18C999.38,1079.48,999.51,1086.69,999.51,1093.89ZM994,1060.77c-13.59-.23-27.19-.19-40.79,0-3.92,0-5.36-1.32-5.32-5.29q.25-21.64,0-43.29c0-4.17,1.84-5.17,5.56-5.13q20.39.16,40.79,0c4,0,5.42,1.5,5.31,5.39-.18,6.94,0,13.88,0,20.82h0c0,7.21-.15,14.43.06,21.64C999.69,1059,998.47,1060.84,994,1060.77Zm-2.07-59.87c-12.48-.5-25-.26-37.49-.1-4.24.05-6.69-.59-6.58-5.8.3-14.16.22-28.33,0-42.49-.07-4.51,1.85-5.68,6-5.64,13.33.14,26.67.15,40,0,4.36-.06,5.9,1.65,5.78,5.9-.21,7.21-.06,14.44-.06,21.66h0c0,6.11-.37,12.25.1,18.32S998.42,1001.17,991.88,1000.9Z" transform="translate(-112.17 -38.12)"/><path class="cls-3" d="M468.79,814.29a.5.5,0,0,1,0,.12l50.37,16.13c3.67-2.72,6.84-1.95,9.56,1.85l49.93,4.88c.08-.12.15-.25.24-.37a7.61,7.61,0,0,1,8.94-.17.61.61,0,0,1,.07.14c2.13-1.87,4.84-1.16,7.3-1.15,14.62.07,29-2,43.28-4.79.13-.21.24-.43.39-.65a7.62,7.62,0,0,1,9-.22c.08.11.14.22.21.33l49.55-15.91c2.2-4.14,4.86-7.27,9.79-5.39,3.87-3.82,9.92-4.08,13.56-8.29-10.49-6.79-17.94-16.19-23.68-27.15-9.79-18.69-13.57-39-16.07-59.6h0c-2.53,3.64-6.5,5-10.34,6.57-12.13,5-24.9,7.66-37.69,10.27l-2.48.31a240.52,240.52,0,0,1-52.5,26.9c-25.08,9.34-51.3,12.52-77.27,17.26-1.64.3-4.52,2.47-5.14-1.54h0c-7.93,16.13-20.66,27-37,33.94.15.9.31,1.8.47,2.71C463.56,808.13,466.26,810.91,468.79,814.29Z" transform="translate(-112.17 -38.12)"/><path class="cls-3" d="M634.3,728.76h0c-1.17.84-2.37,1.63-3.55,2.44l2.48-.31c12.79-2.61,25.56-5.23,37.69-10.27,3.84-1.61,7.81-2.93,10.34-6.57h0C666.26,721,650.32,725,634.3,728.76Z" transform="translate(-112.17 -38.12)"/><path class="cls-3" d="M697.66,814.48l1.59-.51c2.16-2.59,5.43-3.32,8.2-4.88h0C702.52,807.21,699.86,810.34,697.66,814.48Z" transform="translate(-112.17 -38.12)"/><path class="cls-3" d="M647.9,830.06a7.62,7.62,0,0,0-9,.22c-.15.22-.26.44-.39.65l.89-.17h0l8.13-.18.59-.19C648,830.28,648,830.17,647.9,830.06Z" transform="translate(-112.17 -38.12)"/><path class="cls-3" d="M519.18,830.54l.38.12h0a14.52,14.52,0,0,1,8,1.62l1.15.11C526,828.59,522.85,827.82,519.18,830.54Z" transform="translate(-112.17 -38.12)"/><path class="cls-3" d="M468.79,814.29c-2.53-3.38-5.23-6.16-9.5-3.82l0,.2h0c3.14-.09,5.39,2,8,3.26l1.48.48A.5.5,0,0,0,468.79,814.29Z" transform="translate(-112.17 -38.12)"/><path class="cls-3" d="M587.85,836.73a7.61,7.61,0,0,0-8.94.17c-.09.12-.16.25-.24.37l.74.08h0l8,0a4.9,4.9,0,0,1,.48-.44A.61.61,0,0,0,587.85,836.73Z" transform="translate(-112.17 -38.12)"/><path class="cls-4" d="M772,413.63a726.84,726.84,0,0,1-2.89,78.22c-.47,5.55-.07,11.12-.74,16.65-.51,4.12-.82,8.34-3.66,11.76,14.65,1,25.7-5.64,34.25-16.83,12.4-16.23,17.66-35.05,18.29-55.12.77-24.73-11.42-39-35.85-42.78-3.81-.59-7.74-.46-11.61-.66h0C771.55,407.52,771.9,410.53,772,413.63Z" transform="translate(-112.17 -38.12)"/><path class="cls-4" d="M769,456.53c-1,21.26-2.81,42.49-4.27,63.73,2.84-3.42,3.15-7.64,3.66-11.76.67-5.53.27-11.1.74-16.65A726.84,726.84,0,0,0,772,413.63c-.07-3.1-.42-6.11-2.21-8.76h0C769.53,422.09,769.74,439.33,769,456.53Z" transform="translate(-112.17 -38.12)"/><path class="cls-4" d="M619.48,736c2.83-1.51,5.65-3,8.52-4.46-35.27,4.17-70,.19-104.25-8.71-4.52-1.18-9.28-2-12.62-5.81h0c-2.16,19.72-6.78,38.78-15.29,56.79h0c34.59-5,69-10.6,101.16-25.27C604.83,745,611.9,740,619.48,736Z" transform="translate(-112.17 -38.12)"/><path class="cls-4" d="M628,731.55a68.11,68.11,0,0,1,6.3-2.79c-1.66,0-3.34,0-5,.18a252.22,252.22,0,0,1-59.72,0c-19.86-2.26-39.22-6.79-58.46-12,3.34,3.82,8.1,4.63,12.62,5.81C558.05,731.74,592.73,735.72,628,731.55Z" transform="translate(-112.17 -38.12)"/><path class="cls-4" d="M501,775.36c26-4.74,52.19-7.92,77.27-17.26a240.52,240.52,0,0,0,52.5-26.9l-2.75.35c-2.87,1.41-5.69,3-8.52,4.46-7.58,4-14.65,9-22.48,12.54-32.16,14.67-66.57,20.31-101.16,25.27C496.46,777.83,499.34,775.66,501,775.36Z" transform="translate(-112.17 -38.12)"/><path class="cls-4" d="M634.3,728.76a68.11,68.11,0,0,0-6.3,2.79l2.75-.35c1.18-.81,2.38-1.6,3.55-2.44Z" transform="translate(-112.17 -38.12)"/><path class="cls-5" d="M707.45,809.09a11.83,11.83,0,0,1,1.24.55c2.48,5.27,1.5,10.91,1.55,16.4.15,14.16-.06,28.31.1,42.47.09,8.61.9,9.35,9.71,9.44,9.44.11,18.88-.11,28.31.07,6,.11,8.49-2.43,8.46-8.41-.08-14.71-.12-29.42,0-44.13,0-4.06-.75-8.43,2.72-11.76h0c-9-3.91-18.22-7.51-27-11.88-4-2-7.49-2.74-11.53-1h0C718.91,807.52,712.9,807.85,707.45,809.09Z" transform="translate(-112.17 -38.12)"/><path class="cls-5" d="M756.85,825.48c-.15,14.71-.11,29.42,0,44.13,0,6-2.44,8.52-8.46,8.41-9.43-.18-18.87,0-28.31-.07-8.81-.09-9.62-.83-9.71-9.44-.16-14.16,0-28.31-.1-42.47,0-5.49.93-11.13-1.55-16.4a11.83,11.83,0,0,0-1.24-.55h0c.09,21.37.37,42.75.16,64.12-.05,5.66,1.32,7.85,7.36,7.63,12.2-.44,24.44-.48,36.64,0,6.34.25,8-1.83,7.91-8-.31-19.7,0-39.42.05-59.13C756.1,817.05,756.9,821.42,756.85,825.48Z" transform="translate(-112.17 -38.12)"/><path class="cls-5" d="M707.45,809.09c5.45-1.24,11.46-1.57,13.56-8.29h0c-3.64,4.21-9.69,4.47-13.56,8.29Z" transform="translate(-112.17 -38.12)"/><polygon class="cls-5" points="595.29 770.97 595.28 770.97 595.29 770.97 595.29 770.97"/><path class="cls-5" d="M1055.69,1068.28c-11.9,0-23.8.11-35.7-.07-6.5-.1-9.73,2.25-9.6,9.17.22,10.78.18,21.59,0,32.38-.1,6,2.41,8.47,8.38,8.45q23.67-.12,47.33,0c4.1,0,8.39-.52,11.83,2.62-3.62-18.54-8.71-36.72-14-54.85h0C1061.91,1069.29,1058.59,1068.28,1055.69,1068.28Z" transform="translate(-112.17 -38.12)"/><path class="cls-5" d="M1015.05,1066.07c-5.23-.06-7.42,1.49-7.28,7.08.32,13.56.36,27.13,0,40.68-.15,5.56,1.7,7,7.08,7,21-.23,42.07,0,63.1,0-3.44-3.14-7.73-2.6-11.83-2.62q-23.67-.15-47.33,0c-6,0-8.48-2.46-8.38-8.45.17-10.79.21-21.6,0-32.38-.13-6.92,3.1-9.27,9.6-9.17,11.9.18,23.8,0,35.7.07,2.9,0,6.22,1,8.27-2.29h0C1047.65,1066,1031.35,1066.24,1015.05,1066.07Z" transform="translate(-112.17 -38.12)"/><path class="cls-5" d="M1079.11,1126.22h0c-2.78,4.15-7.18,3.65-11.24,3.7-12.43.16-24.86,0-37.29.08-22.9.19-19.84-2.58-20.11,20.52-.05,4.42.08,8.84-.08,13.26-.11,3-.22,6.12-2.79,8.37h0c24.61,0,49.21,0,73.81.18,5.54.05,7.34-1.6,6-7.27C1084.39,1152.18,1081.85,1139.18,1079.11,1126.22Z" transform="translate(-112.17 -38.12)"/><path class="cls-5" d="M1010.47,1150.52c.27-23.1-2.79-20.33,20.11-20.52,12.43-.1,24.86.08,37.29-.08,4.06-.05,8.46.45,11.24-3.7h0c-3,.26-6,.75-9.06.77-17.5.07-35,.38-52.49-.11-7.34-.21-10.31,1.42-9.86,9.46.67,11.9,0,23.87-.09,35.81,2.57-2.25,2.68-5.33,2.79-8.37C1010.55,1159.36,1010.42,1154.94,1010.47,1150.52Z" transform="translate(-112.17 -38.12)"/><path class="cls-6" d="M410,837c.15,10.52-.08,21,.1,31.57.15,8.56,1,9.32,9.74,9.45s17.72.09,26.58,0c9.52-.08,10.1-.66,10.15-10.63.09-15,0-29.91,0-44.87,0-3.85-.35-7.79,1.62-11.38a9.93,9.93,0,0,1,.93-.58,2.18,2.18,0,0,1-.38-2.76c-2.84-.44-5.43.52-8,1.5Q429,817.63,407.2,826.1h0C410.57,829.08,410,833.15,410,837Z" transform="translate(-112.17 -38.12)"/><path class="cls-6" d="M407.47,872.7c-.1,6,1.36,8.41,7.83,8.14,11.92-.49,23.89-.58,35.79,0,7,.36,8.28-2.33,8.19-8.6-.28-20.53,0-41.07.05-61.61a1.74,1.74,0,0,1-.13-.15,9.93,9.93,0,0,0-.93.58c-2,3.59-1.6,7.53-1.62,11.38-.06,15,0,29.91,0,44.87-.05,10-.63,10.55-10.15,10.63-8.86.08-17.72.11-26.58,0s-9.59-.89-9.74-9.45c-.18-10.52.05-21-.1-31.57,0-3.8.54-7.87-2.83-10.85C407.34,841.63,407.73,857.17,407.47,872.7Z" transform="translate(-112.17 -38.12)"/><path class="cls-6" d="M459.2,810.52l.09,0c-.16-.91-.32-1.81-.47-2.71A2.18,2.18,0,0,0,459.2,810.52Z" transform="translate(-112.17 -38.12)"/><path class="cls-6" d="M459.29,810.47l-.09,0a1.74,1.74,0,0,0,.13.15h0Z" transform="translate(-112.17 -38.12)"/><path class="cls-4" d="M403.6,415.12c-.33-3.4.08-6.62,2.24-9.42-24.49,6.71-33.71,16.52-34.11,39.27-.38,21.23,5.16,41.13,18.15,58.44,5.45,7.25,12.18,12.82,21.17,15.16h0c-4.78-9.77-3.2-20.48-4.33-30.76C404.05,463.67,406,439.3,403.6,415.12Z" transform="translate(-112.17 -38.12)"/><path class="cls-4" d="M403.6,415.12c2.37,24.18.45,48.55,3.12,72.69,1.13,10.28-.45,21,4.33,30.76q-2.6-56.43-5.21-112.87C403.68,408.5,403.27,411.72,403.6,415.12Z" transform="translate(-112.17 -38.12)"/><path class="cls-5" d="M770.27,869.07c-.07,6.26,2.2,9.16,8.74,9q14.58-.39,29.17,0c6.57.18,8.89-2.71,8.71-9-.22-7.77-.15-15.56,0-23.34.07-3.55-.31-7.34,3-10l-52.07-18.69c2.66,3.31,2.42,7.27,2.44,11.15C770.37,841.84,770.43,855.46,770.27,869.07Z" transform="translate(-112.17 -38.12)"/><path class="cls-5" d="M767.63,873.76c-.1,5.51,1.61,7.2,7,7q19.16-.49,38.34,0c5.22.13,6.61-1.72,6.54-6.74-.18-12.77.2-25.54.36-38.31-3.32,2.61-2.94,6.4-3,10-.17,7.78-.24,15.57,0,23.34.18,6.28-2.14,9.17-8.71,9q-14.58-.39-29.17,0c-6.54.18-8.81-2.72-8.74-9,.16-13.61.1-27.23,0-40.84,0-3.88.22-7.84-2.44-11.15h0C767.82,836,768,854.87,767.63,873.76Z" transform="translate(-112.17 -38.12)"/><path class="cls-5" d="M927.3,889.67c-9.4.37-18.83.27-28.24.11-6.39-.11-8.9,2.6-8.75,8.94.25,10.24.21,20.49,0,30.73-.11,5.77,1.76,8.78,8,8.65,10.24-.22,20.49-.13,30.73,0,5.73,0,7.85-2.68,7.84-8.13,0-10.52-.16-21,.1-31.56.09-3.74-.58-8,3.77-10.23L936,885.69h0C934.8,890.63,930.57,889.55,927.3,889.67Z" transform="translate(-112.17 -38.12)"/><path class="cls-5" d="M928.11,886.91c-11.35.11-22.7.18-34.05-.06-4.54-.09-6.45,1.22-6.36,6.08.25,13.84.33,27.69,0,41.53-.14,5.49,2.24,6.38,6.92,6.26,10.52-.25,21-.09,31.57-.08,13.27,0,13,0,13.38-12.92.45-13.19-1.72-26.47,1.26-39.57-4.35,2.26-3.68,6.49-3.77,10.23-.26,10.52-.12,21-.1,31.56,0,5.45-2.11,8.18-7.84,8.13-10.24-.1-20.49-.19-30.73,0-6.29.13-8.16-2.88-8-8.65.2-10.24.24-20.49,0-30.73-.15-6.34,2.36-9.05,8.75-8.94,9.41.16,18.84.26,28.24-.11,3.27-.12,7.5,1,8.74-4C933.69,887.92,930.77,886.89,928.11,886.91Z" transform="translate(-112.17 -38.12)"/><path class="cls-5" d="M169.75,989.41c.06,6.43,2.48,9,8.9,8.78,9.72-.29,19.46-.2,29.18,0,5.79.11,8.82-1.81,8.72-8.11-.18-10.83-.15-21.68,0-32.51.08-5.87-2.79-7.84-8.21-7.73-5,.11-10,.19-15-.1-3.54-.21-7.4,0-9.25-4.13-7.15,7.79-13.12,16.34-17,26.26h0C171.74,977.1,169.7,983.51,169.75,989.41Z" transform="translate(-112.17 -38.12)"/><path class="cls-5" d="M167.51,994.3c-.2,5.31,1.89,6.61,6.79,6.51,12.78-.25,25.57-.31,38.35.06,5.37.15,6.53-2,6.44-6.82-.25-13.06-.35-26.13.07-39.18.2-6.06-1.42-8.19-7.83-8.15-9.07.06-18.3,1.76-27.26-1.14,1.85,4.13,5.71,3.92,9.25,4.13,5,.29,10,.21,15,.1,5.42-.11,8.29,1.86,8.21,7.73-.14,10.83-.17,21.68,0,32.51.1,6.3-2.93,8.22-8.72,8.11-9.72-.17-19.46-.26-29.18,0-6.42.19-8.84-2.35-8.9-8.78-.05-5.9,2-12.31-2.66-17.57C167.27,979.33,167.79,986.83,167.51,994.3Z" transform="translate(-112.17 -38.12)"/><path class="cls-6" d="M1031,1009.79c-23.09.4-20.34-2.45-20.55,20.34-.06,6.09-.09,12.18,0,18.27.15,8.74.9,9.58,9.46,9.72,10.52.16,21,0,31.55.06,3.87,0,7.81-.15,11,2.59a549,549,0,0,0-16.9-54.48h0C1041.67,1011.33,1036,1009.7,1031,1009.79Z" transform="translate(-112.17 -38.12)"/><path class="cls-6" d="M1014,1006.92c-4.69,0-6.29,1.5-6.21,6.22.24,13.61.33,27.23-.06,40.83-.17,5.74,2.06,6.91,7.26,6.83,15.83-.26,31.66,0,47.49,0-3.24-2.74-7.18-2.57-11-2.59-10.52-.06-21,.1-31.55-.06-8.56-.14-9.31-1-9.46-9.72-.1-6.09-.07-12.18,0-18.27.21-22.79-2.54-19.94,20.55-20.34,5-.09,10.69,1.54,14.62-3.5h0C1035.11,1008,1024.55,1006.85,1014,1006.92Z" transform="translate(-112.17 -38.12)"/><path class="cls-5" d="M229.82,926.66c.43,11,.56,11.37,11.15,11.43,8.32,0,16.64.07,25,0,10.05-.1,10.56-.64,10.63-11.05.05-8.88-.19-17.76.08-26.62.18-6.24-.74-11-8.47-11.22-1.78,0-3.95-.71-4-3.35-12.86,6.61-25.5,13.61-37,22.43h0C231.8,913.85,229.57,920.49,229.82,926.66Z" transform="translate(-112.17 -38.12)"/><path class="cls-5" d="M227.4,934c-.16,5,1.15,6.87,6.43,6.73,12.73-.34,25.48-.31,38.22,0,5.29.14,7.37-1.3,7.15-6.9-.41-10-.08-19.94-.11-29.91,0-5,1.32-10.64-.6-14.77-2.42-5.2-9.22-.51-13.59-2.89-.24-.13-.46-.3-.7-.45,0,2.64,2.19,3.31,4,3.35,7.73.19,8.65,5,8.47,11.22-.27,8.86,0,17.74-.08,26.62-.07,10.41-.58,11-10.63,11.05-8.32.08-16.64.06-25,0-10.59-.06-10.72-.48-11.15-11.43-.25-6.17,2-12.81-2.65-18.39C227.28,916.85,227.67,925.44,227.4,934Z" transform="translate(-112.17 -38.12)"/><path class="cls-5" d="M696.83,1136.37c0-4.84-1.77-6.94-7-6.68a292,292,0,0,1-31.59,0c-6.53-.39-8.24,2.54-8.15,8.29q.2,12,0,24.11c-.07,3.55.36,7.31-2.74,10.07l52.25.09h0c-3-2.78-2.66-6.53-2.72-10.08C696.75,1153.55,696.85,1145,696.83,1136.37Z" transform="translate(-112.17 -38.12)"/><path class="cls-5" d="M699.36,1135.58c.18-6.44-.7-9.34-8.41-8.79a285.5,285.5,0,0,1-36.65-.12c-5.57-.32-6.64,1.36-6.59,6.31.11,13-.2,26.11-.34,39.16,3.1-2.76,2.67-6.52,2.74-10.07q.21-12,0-24.11c-.09-5.75,1.62-8.68,8.15-8.29a292,292,0,0,0,31.59,0c5.19-.26,7,1.84,7,6.68,0,8.59-.08,17.18.07,25.78.06,3.55-.32,7.3,2.72,10.08C699.49,1160,699,1147.79,699.36,1135.58Z" transform="translate(-112.17 -38.12)"/><path class="cls-5" d="M216.54,1138.09c.05-5.41-1.92-8.22-7.74-8.18-10.79.06-21.6.25-32.39-.15-4.76-.18-6.4,2.21-6.47,6.51-.14,8.59,0,17.17-.11,25.76-.06,3.56.27,7.28-2.65,10.13l52.16.07h0c-3.06-2.76-2.7-6.5-2.77-10C216.43,1154.15,216.46,1146.11,216.54,1138.09Z" transform="translate(-112.17 -38.12)"/><path class="cls-5" d="M219.12,1134.06c.1-5.31-1.38-7.29-7-7.15-12.72.33-25.48.49-38.17-.23-5.77-.33-6.47,1.79-6.46,6.47.05,13-.21,26-.35,39,2.92-2.85,2.59-6.57,2.65-10.13.15-8.59,0-17.17.11-25.76.07-4.3,1.71-6.69,6.47-6.51,10.79.4,21.6.21,32.39.15,5.82,0,7.79,2.77,7.74,8.18-.08,8-.11,16.06,0,24.09.07,3.55-.29,7.29,2.77,10C219.23,1159.51,218.9,1146.78,219.12,1134.06Z" transform="translate(-112.17 -38.12)"/><path class="cls-5" d="M336.65,1139c.16-6.12-1.9-9.26-8.56-9.11-10.23.23-20.49.3-30.72-.09-5.47-.2-7.4,2.35-7.4,7.44,0,8.31.08,16.61-.07,24.91-.06,3.56.31,7.3-2.76,10.06h52.39c-3.23-2.67-2.8-6.44-2.87-10C336.51,1154.47,336.45,1146.71,336.65,1139Z" transform="translate(-112.17 -38.12)"/><path class="cls-5" d="M339.23,1134.08c.09-5.33-1.44-7.28-7-7.16q-19.46.43-38.95-.23c-5.31-.17-5.77,2.37-5.77,6.55,0,13-.23,26-.38,38.94,3.07-2.76,2.7-6.5,2.76-10.06.15-8.3.06-16.6.07-24.91,0-5.09,1.93-7.64,7.4-7.44,10.23.39,20.49.32,30.72.09,6.66-.15,8.72,3,8.56,9.11-.2,7.74-.14,15.5,0,23.25.07,3.53-.36,7.3,2.87,10C339.39,1159.49,339,1146.78,339.23,1134.08Z" transform="translate(-112.17 -38.12)"/><path class="cls-5" d="M576.8,1161.39c-.14-7.47-.2-15,0-22.42.17-6.12-1.9-9.26-8.56-9.11-10.24.23-20.49.3-30.73-.08-5.48-.21-7.38,2.37-7.39,7.46,0,8.3.09,16.61-.07,24.91-.07,3.55.34,7.31-2.8,10l52.36.07h0C576.27,1169.26,576.88,1165.2,576.8,1161.39Z" transform="translate(-112.17 -38.12)"/><path class="cls-5" d="M579.35,1134.13c.09-5.32-1.42-7.33-7-7.21-13,.27-26,.16-39-.24-5.22-.16-5.84,2.33-5.83,6.54,0,13-.2,26-.32,39,3.14-2.72,2.73-6.48,2.8-10,.16-8.3.06-16.61.07-24.91,0-5.09,1.91-7.67,7.39-7.46,10.24.38,20.49.31,30.73.08,6.66-.15,8.73,3,8.56,9.11-.2,7.47-.14,15,0,22.42.08,3.81-.53,7.87,2.81,10.86C579.49,1159.54,579.13,1146.83,579.35,1134.13Z" transform="translate(-112.17 -38.12)"/><path class="cls-5" d="M396.66,1162.21c-.18-8-.14-16.11-.05-24.16.06-5.5-2-8.19-7.83-8.1q-15.42.22-30.84,0c-5.73-.08-8,2.47-7.92,8,.09,8.06.12,16.12,0,24.17-.07,3.57.28,7.33-2.87,10h52.5C396.33,1169.55,396.73,1165.77,396.66,1162.21Z" transform="translate(-112.17 -38.12)"/><path class="cls-5" d="M399.35,1134.73c.22-6.52-2.08-8-8.1-7.81-11.93.41-23.89.43-35.82,0-6.08-.22-8.3,1.34-8.09,7.81.42,12.47-.1,25-.23,37.47,3.15-2.72,2.8-6.48,2.87-10,.16-8.05.13-16.11,0-24.17,0-5.55,2.19-8.1,7.92-8q15.42.21,30.84,0c5.79-.09,7.89,2.6,7.83,8.1-.09,8-.13,16.11.05,24.16.07,3.56-.33,7.34,2.95,10C399.47,1159.7,398.92,1147.2,399.35,1134.73Z" transform="translate(-112.17 -38.12)"/><path class="cls-5" d="M456.65,1138c.06-5.49-2-8.17-7.84-8.09q-15.4.22-30.83,0c-5.73-.08-8,2.46-7.92,8,.09,8.06.11,16.11,0,24.17-.06,3.57.25,7.32-2.82,10.08l52.39,0h0c-3.18-2.7-2.83-6.46-2.9-10C456.53,1154.16,456.56,1146.1,456.65,1138Z" transform="translate(-112.17 -38.12)"/><path class="cls-5" d="M459.29,1134c.1-5.53-1.73-7.19-7.15-7-12.47.33-25,.35-37.44,0-5.48-.17-7.28,1.58-7.2,7,.19,12.74-.16,25.5-.3,38.25,3.07-2.76,2.76-6.51,2.82-10.08.15-8.06.13-16.11,0-24.17-.06-5.56,2.19-8.1,7.92-8q15.4.21,30.83,0c5.79-.08,7.9,2.6,7.84,8.09-.09,8.06-.12,16.12,0,24.17.07,3.57-.28,7.33,2.9,10C459.45,1159.48,459.05,1146.73,459.29,1134Z" transform="translate(-112.17 -38.12)"/><path class="cls-5" d="M516.68,1137.94c.06-5.58-2.24-8.08-7.94-8q-15.4.21-30.81,0c-5.79-.09-7.89,2.59-7.83,8.09.09,8,.11,16.1-.05,24.15-.07,3.56.29,7.33-2.9,10l52.39,0h0c-3.08-2.76-2.75-6.51-2.82-10.08C516.57,1154,516.6,1146,516.68,1137.94Z" transform="translate(-112.17 -38.12)"/><path class="cls-5" d="M519.3,1133.86c.06-4.75-.91-7.08-6.36-6.94q-19.56.51-39.15,0c-5.5-.15-6.38,2.29-6.34,7,.11,12.77-.17,25.53-.3,38.3,3.19-2.69,2.83-6.46,2.9-10,.16-8,.14-16.1.05-24.15-.06-5.5,2-8.18,7.83-8.09q15.4.21,30.81,0c5.7-.09,8,2.41,7.94,8-.08,8-.11,16.1,0,24.15.07,3.57-.26,7.32,2.82,10.08C519.43,1159.4,519.15,1146.62,519.3,1133.86Z" transform="translate(-112.17 -38.12)"/><path class="cls-5" d="M636.71,1137.14c0-4.76-2.09-7.14-7-7.14H597.23c-4.93,0-7,2.39-7,7.14-.06,8.33.08,16.65-.09,25-.07,3.57.27,7.32-2.83,10.06h52.33c-3.09-2.75-2.76-6.5-2.83-10.06C636.64,1153.79,636.78,1145.46,636.71,1137.14Z" transform="translate(-112.17 -38.12)"/><path class="cls-5" d="M639.44,1134.73c.21-6.42-2-8.06-8.06-7.83-11.91.45-23.87.45-35.79,0-6.08-.22-8.31,1.37-8.1,7.82.42,12.46-.07,25-.19,37.44,3.1-2.74,2.76-6.49,2.83-10.06.17-8.32,0-16.64.09-25,0-4.75,2.08-7.14,7-7.14H629.7c4.92,0,7,2.38,7,7.14.07,8.32-.07,16.65.09,25,.07,3.56-.26,7.31,2.83,10.06C639.51,1159.68,639,1147.19,639.44,1134.73Z" transform="translate(-112.17 -38.12)"/><path class="cls-5" d="M756.78,1137.06c0-4.81-2.23-7.06-7.09-7.07-10.54,0-21.08.11-31.61,0-5.78-.09-7.89,2.58-7.83,8.07.08,8,.11,16.09,0,24.13-.07,3.56.27,7.31-2.85,10l52.29-.09h0c-3-2.78-2.7-6.52-2.77-10.09C756.72,1153.7,756.86,1145.38,756.78,1137.06Z" transform="translate(-112.17 -38.12)"/><path class="cls-5" d="M759.49,1134.66c.12-5.53-1.13-8-7.28-7.76-12.47.43-25,.37-37.44,0-5.43-.15-7.25,1.47-7.14,7,.26,12.75-.14,25.51-.27,38.26,3.12-2.73,2.78-6.48,2.85-10,.15-8,.12-16.09,0-24.13-.06-5.49,2-8.16,7.83-8.07,10.53.15,21.07,0,31.61,0,4.86,0,7,2.26,7.09,7.07.08,8.32-.06,16.64.1,25,.07,3.57-.27,7.31,2.77,10.09C759.56,1159.62,759.23,1147.13,759.49,1134.66Z" transform="translate(-112.17 -38.12)"/><path class="cls-5" d="M816.88,1138c0-5.53-2.14-8.13-7.89-8q-15.4.21-30.81,0c-5.74-.09-7.95,2.5-7.89,8,.09,8,.11,16.1,0,24.15-.07,3.56.27,7.32-2.85,10h52.36c-3.11-2.74-2.78-6.49-2.84-10.06C816.76,1154.09,816.79,1146,816.88,1138Z" transform="translate(-112.17 -38.12)"/><path class="cls-5" d="M819.6,1134.71c.23-6.47-2-8-8.09-7.82-11.93.45-23.9.47-35.83,0-6.11-.23-8.29,1.36-8.08,7.81.42,12.48-.08,25-.2,37.48,3.12-2.73,2.78-6.49,2.85-10,.15-8.05.13-16.11,0-24.15-.06-5.54,2.15-8.13,7.89-8q15.41.21,30.81,0c5.75-.09,7.94,2.51,7.89,8-.09,8-.12,16.1,0,24.15.06,3.57-.27,7.32,2.84,10.06C819.66,1159.7,819.17,1147.19,819.6,1134.71Z" transform="translate(-112.17 -38.12)"/><path class="cls-5" d="M876.91,1138c.06-5.52-2.13-8.13-7.87-8q-15.4.21-30.81,0c-5.72-.09-8,2.47-7.9,8,.08,8,.11,16.1,0,24.15-.07,3.56.25,7.31-2.82,10.07H879.8c-3.11-2.73-2.78-6.49-2.84-10C876.8,1154.09,876.83,1146,876.91,1138Z" transform="translate(-112.17 -38.12)"/><path class="cls-5" d="M879.55,1133.94c.11-5.54-1.77-7.16-7.18-7q-18.71.52-37.43,0c-5.39-.15-7.29,1.44-7.18,7,.26,12.74-.15,25.5-.29,38.25,3.07-2.76,2.75-6.51,2.82-10.07.15-8,.12-16.1,0-24.15-.06-5.55,2.18-8.11,7.9-8q15.4.21,30.81,0c5.74-.09,7.93,2.52,7.87,8-.08,8-.11,16.1.05,24.15.06,3.56-.27,7.32,2.84,10C879.68,1159.44,879.31,1146.68,879.55,1133.94Z" transform="translate(-112.17 -38.12)"/><path class="cls-5" d="M937,1138c.06-5.5-2.06-8.17-7.84-8.08q-15.4.21-30.83,0c-5.72-.09-8,2.46-7.91,8,.08,8,.11,16.11,0,24.16-.07,3.57.28,7.33-2.86,10l52.44,0h0c-3.19-2.69-2.83-6.45-2.9-10C936.83,1154.14,936.86,1146.09,937,1138Z" transform="translate(-112.17 -38.12)"/><path class="cls-5" d="M939.61,1133.9c.11-5.61-1.83-7.11-7.19-7-12.49.33-25,.43-37.5,0-6.27-.23-7.34,2.33-7.23,7.8.23,12.5-.12,25-.23,37.5,3.14-2.72,2.79-6.48,2.86-10,.16-8.05.13-16.11,0-24.16-.06-5.56,2.19-8.11,7.91-8q15.4.21,30.83,0c5.78-.09,7.9,2.58,7.84,8.08-.09,8.06-.12,16.11,0,24.17.07,3.56-.29,7.32,2.9,10C939.76,1159.44,939.35,1146.66,939.61,1133.9Z" transform="translate(-112.17 -38.12)"/><path class="cls-5" d="M996.94,1137.07c-.05-4.8-2.21-7.07-7.09-7.08-10.54,0-21.09.11-31.63,0-5.78-.09-7.88,2.6-7.82,8.09.09,8,.12,16.09,0,24.13-.07,3.57.28,7.32-2.87,10l52.27,0h0c-3-2.82-2.67-6.54-2.73-10.12C996.88,1153.72,997,1145.4,996.94,1137.07Z" transform="translate(-112.17 -38.12)"/><path class="cls-5" d="M999.62,1134.76c.21-6.4-2-8.07-8.12-7.85-12.18.43-24.39.37-36.58,0-5.46-.16-7.21,1.59-7.12,7.06.22,12.73-.17,25.47-.31,38.21,3.15-2.71,2.8-6.46,2.87-10,.16-8,.13-16.09,0-24.13-.06-5.49,2-8.18,7.82-8.09,10.54.15,21.09,0,31.63,0,4.88,0,7,2.28,7.09,7.08.07,8.33-.06,16.65.09,25,.06,3.58-.23,7.3,2.73,10.12C999.67,1159.69,999.23,1147.21,999.62,1134.76Z" transform="translate(-112.17 -38.12)"/><path class="cls-5" d="M276.53,1138c.06-5.57-2.22-8.09-7.93-8q-15.41.21-30.82,0c-5.77-.09-7.9,2.58-7.84,8.08.09,8,.11,16.11,0,24.16-.07,3.57.23,7.31-2.82,10.08l52.32-.11h0c-3.11-2.74-2.77-6.49-2.84-10.05C276.42,1154.06,276.45,1146,276.53,1138Z" transform="translate(-112.17 -38.12)"/><path class="cls-5" d="M279.23,1134.68c.11-5.49-1.05-8-7.25-7.78-12.49.45-25,.39-37.49,0-5.49-.16-7.21,1.56-7.11,7,.24,12.76-.15,25.53-.29,38.3,3-2.77,2.75-6.51,2.82-10.08.14-8,.12-16.11,0-24.16-.06-5.5,2.07-8.17,7.84-8.08q15.41.21,30.82,0c5.71-.09,8,2.43,7.93,8-.08,8-.11,16.11,0,24.16.07,3.56-.27,7.31,2.84,10.05C279.31,1159.67,279,1147.17,279.23,1134.68Z" transform="translate(-112.17 -38.12)"/><path class="cls-5" d="M350,866.17c.37,11.52.38,11.77,11.52,11.84q11.64.06,23.26,0c11.46,0,11.79-.35,11.86-11.48.05-8.86,0-17.72,0-26.58,0-3.87-.08-7.81,2.85-10.94l-52.25,19.66h0C351.83,853.91,349.75,860.29,350,866.17Z" transform="translate(-112.17 -38.12)"/><path class="cls-5" d="M347.39,873.53c-.17,5.1,1,7.48,6.76,7.3,12.7-.39,25.43-.35,38.13,0,5.41.14,7.13-1.55,7-7-.27-14.91.07-29.83.16-44.75-2.93,3.13-2.82,7.07-2.85,10.94-.06,8.86,0,17.72,0,26.58-.07,11.13-.4,11.43-11.86,11.48q-11.62,0-23.26,0c-11.14-.07-11.15-.32-11.52-11.84-.2-5.88,1.88-12.26-2.73-17.5C347.31,857,347.65,865.25,347.39,873.53Z" transform="translate(-112.17 -38.12)"/><path class="cls-5" d="M156.45,1139.69c-.15-8.81-.85-9.52-9.42-9.73-5.53-.13-11.06.08-16.59-.1-3.61-.12-7.3-.19-9.56-3.78-3.75,13.25-5.72,26.86-8.43,40.32-1,5.08.74,6.23,5.43,6.13,13.78-.3,27.58-.26,41.36-.35h0c-3-2.79-2.66-6.52-2.72-10.08C156.4,1154.63,156.58,1147.15,156.45,1139.69Z" transform="translate(-112.17 -38.12)"/><path class="cls-5" d="M159.12,1134.92c.19-6.05-1.33-8.18-7.72-8.06-10.16.18-20.4,1.28-30.52-.78,2.26,3.59,6,3.66,9.56,3.78,5.53.18,11.06,0,16.59.1,8.57.21,9.27.92,9.42,9.73.13,7.46,0,14.94.07,22.4.06,3.56-.26,7.29,2.72,10.08C159.16,1159.75,158.74,1147.32,159.12,1134.92Z" transform="translate(-112.17 -38.12)"/><path class="cls-5" d="M145,1118.32c11.22-.46,11.43-.37,11.47-11.85,0-8.85.05-17.69,0-26.54-.07-10.9-.42-11.21-11-11.75-3.26-.17-6.71.26-9.37-2.36a436.76,436.76,0,0,0-13.8,54.83C129.52,1116.22,137.45,1118.63,145,1118.32Z" transform="translate(-112.17 -38.12)"/><path class="cls-5" d="M153,1120.8c4.73.14,6.23-1.47,6.08-6.17-.31-9.94-.09-19.9-.09-29.85,0-18.33,0-18.33-18.73-18.7-1.38,0-2.75-.17-4.13-.26,2.66,2.62,6.11,2.19,9.37,2.36,10.56.54,10.91.85,11,11.75.06,8.85,0,17.69,0,26.54,0,11.48-.25,11.39-11.47,11.85-7.58.31-15.51-2.1-22.69,2.33h0C132.57,1120.68,142.8,1120.51,153,1120.8Z" transform="translate(-112.17 -38.12)"/><polygon class="cls-5" points="10.18 1082.53 10.18 1082.54 10.18 1082.53 10.18 1082.53"/><path class="cls-7" d="M830.18,861.66c.36,17.79-.75,16.34,16.16,16.4,6.93,0,13.87-.29,20.77.08s10.32-1.88,10.07-9.35c-.11-3.3-1.15-8.29,4.87-8.62l-54.19-21.25h0C832.29,846.11,830,854.07,830.18,861.66Z" transform="translate(-112.17 -38.12)"/><path class="cls-7" d="M827.79,873.86c-.09,4.71.85,7.11,6.33,7q19.53-.51,39.1,0c5.5.13,6.11-2.41,6.4-7s-2.69-9.91,2.43-13.64c-6,.33-5,5.32-4.87,8.62.25,7.47-3.16,9.71-10.07,9.35s-13.84-.06-20.77-.08c-16.91-.06-15.8,1.39-16.16-16.4-.15-7.59,2.11-15.55-2.32-22.74h0C827.86,850.57,828,862.22,827.79,873.86Z" transform="translate(-112.17 -38.12)"/><path class="cls-7" d="M950.36,906.08c.07,8.28,0,16.56.06,24.85,0,4.71,2.08,7.13,7,7.13,10.76,0,21.55-.35,32.29.12,7.18.31,6.78-6.17,10.06-9.29-15.4-14.78-33.31-26-51.76-36.45h0C950.81,896.64,950.32,901.41,950.36,906.08Z" transform="translate(-112.17 -38.12)"/><path class="cls-7" d="M947.74,933.11c-.27,6.61,2.27,7.9,8.16,7.66,10.5-.41,21-.14,31.54-.12,11.65,0,11.65.05,12.31-11.76-3.28,3.12-2.88,9.6-10.06,9.29-10.74-.47-21.53-.11-32.29-.12-4.9,0-6.94-2.42-7-7.13-.08-8.29,0-16.57-.06-24.85,0-4.67.45-9.44-2.37-13.64h0C948,906,948.29,919.58,947.74,933.11Z" transform="translate(-112.17 -38.12)"/><path class="cls-5" d="M1010.29,963.58c.42,8.85.21,17.73.08,26.6-.08,5.62,2.34,7.74,7.92,8.05,8.44.48,17.22-2.16,25.29,2.34-5.92-19.91-13-39.25-27.28-55h0C1010.88,950.44,1010,956.64,1010.29,963.58Z" transform="translate(-112.17 -38.12)"/><path class="cls-5" d="M1007.7,957.05c.58,12.14.39,24.33.07,36.49-.14,5.19,1.05,7.54,6.79,7.27,9.65-.44,19.34-.2,29-.24-8.07-4.5-16.85-1.86-25.29-2.34-5.58-.31-8-2.43-7.92-8.05.13-8.87.34-17.75-.08-26.6-.33-6.94.59-13.14,6-18C1008.83,946,1007.37,950.21,1007.7,957.05Z" transform="translate(-112.17 -38.12)"/><path class="cls-7" d="M327.65,878.18c6.94.27,9.27-2.63,9.11-9.32-.14-5.67-1.44-11.69,2.27-16.92-17.84,6.26-34.91,14.28-52,22.33h0a19.11,19.11,0,0,0,12.38,3.86C308.84,878,318.26,877.81,327.65,878.18Z" transform="translate(-112.17 -38.12)"/><path class="cls-7" d="M294.13,880.8c12.72-.37,25.48-.36,38.2,0,5.77.18,7.11-2.13,6.86-7.3-.35-7.19-.14-14.4-.16-21.6-3.71,5.23-2.41,11.25-2.27,16.92.16,6.69-2.17,9.59-9.11,9.32-9.39-.37-18.81-.2-28.21,0a19.11,19.11,0,0,1-12.38-3.86C287.14,878.91,289,881,294.13,880.8Z" transform="translate(-112.17 -38.12)"/><path class="cls-7" d="M150,1058.23c3.33-.25,6.36-1,6.29-5-.28-15.67,2.19-31.44-1.68-47a532.36,532.36,0,0,0-17.15,54.65h0C141.05,1057.28,145.72,1058.56,150,1058.23Z" transform="translate(-112.17 -38.12)"/><path class="cls-7" d="M152.41,1060.76c5,.31,6.83-1.21,6.71-6.45-.32-13.84-.21-27.7,0-41.54.05-3.54-.59-6-4.48-6.48,3.87,15.53,1.4,31.3,1.68,47,.07,4-3,4.72-6.29,5-4.29.33-9-1-12.54,2.71C142.45,1060.85,147.45,1060.44,152.41,1060.76Z" transform="translate(-112.17 -38.12)"/><path class="cls-8" d="M208.23,938.18c6.05.09,8.56-2.37,8.37-8.41-.16-5.22-.74-10.61,2.13-15.46a130,130,0,0,0-30.13,26.14C194.84,937.15,201.63,938.08,208.23,938.18Z" transform="translate(-112.17 -38.12)"/><path class="cls-8" d="M213.42,940.72c4.38.17,5.86-1.48,5.67-5.75-.32-6.88-.26-13.77-.36-20.66-2.87,4.85-2.29,10.24-2.13,15.46.19,6-2.32,8.5-8.37,8.41-6.6-.1-13.39-1-19.63,2.27h0C196.87,940.52,205.15,940.41,213.42,940.72Z" transform="translate(-112.17 -38.12)"/><path class="cls-8" d="M905.6,878a66.53,66.53,0,0,1,19.52,2.39c-12-6.43-24.18-12.66-37.14-17.11a20.14,20.14,0,0,1,1.5,2.92C892.85,878,892.84,878.15,905.6,878Z" transform="translate(-112.17 -38.12)"/><path class="cls-8" d="M887.74,872.41c-.87,6.53,1.49,8.89,8.24,8.44,9.68-.65,19.43-.37,29.14-.48A66.53,66.53,0,0,0,905.6,878c-12.76.17-12.75,0-16.12-11.8a20.14,20.14,0,0,0-1.5-2.92A79.64,79.64,0,0,1,887.74,872.41Z" transform="translate(-112.17 -38.12)"/><path class="cls-3" d="M582.07,531c7.45.41,14.92,2.41,22.29,2,20.21-1.16,40.4-2.8,60.67-2.72,13.91.06,22.43,6.54,26,20a86.15,86.15,0,0,1,2.42,32.95c-1.32,10.71-1.64,21.55-2.2,32.35-.21,4.14-.52,9.17,4.23,10.75,4.24,1.42,7-2.69,9.55-5.47,8.63-9.53,12.51-21.44,16-33.47,9.63-33.73,14.42-68.34,18-103.09,2.94-28.42,4.71-57,6.85-85.46.25-3.39,1-7-2.85-9.68-5.86-4.1-9-10.49-11.87-16.82-6.34-13.71-9.51-28.38-12.91-43-.8-3.42-1.78-6-5.39-7.53-10.12-4.38-18.08-11.7-25.71-19.5-6.32-6.46-11.19-14.08-18.31-22.61,2,7.35,3.69,12.57,4.77,17.93,3.59,17.7-4.87,27.72-22.9,28-20.83.27-36-11.17-50.78-23.74-10.31-8.81-19.09-19.11-29.19-31.25,2.65,8.73,5.21,15.16,6.51,21.84,3.08,15.81-3.79,22.7-19.62,20.58-18.56-2.48-35.18-9.64-50.47-20.25C493.2,283.17,481,271.63,469,259.27a214.94,214.94,0,0,1-1.48,62.38c-3.33,19.38-8.58,38.06-25,51.06-3.13,2.48-3,5.62-3.08,9-.64,41.1-1.45,82.21,3.28,123.16,3,25.95,7.32,51.63,16.56,76.2,4.71,12.54,10.59,24.6,19.92,34.37,5.43,5.69,11.92,13.39,20.54,9.24,8.37-4,4.35-13.38,3.62-20.41-1.48-14.33-4.23-28.52-4.4-43-.18-14.82,4.07-21.29,18-26.07C538.22,527.87,560.19,529.8,582.07,531Zm100.69-73.27c-1.48,3.36-4,5.48-7.46,5.88-3.87.45-6.16-2.14-7.64-5.31-6-13-6.48-26.2-.66-39.41,1.51-3.41,4-6.49,8-6.55s6.19,3.34,7.88,6.57c3,5.8,3.93,12.08,3.45,18.88A39.21,39.21,0,0,1,682.76,457.76Zm-8.13-91.09c19.67-1.74,33.3,7.22,42.1,25.7-27.53-19.61-53.89-13.28-80.09,2.73C645,379.21,656.47,368.26,674.63,366.67ZM611.17,515.42c7.11-5.23,7-11.41,6.32-18.27-.8-8.77-2.2-17.48-3.15-26.24s-1.61-17.4-2.41-26.09l1.88-.33q4.43,25.81,8.83,51.64a2.89,2.89,0,0,1,0,.83c-.54,5.39,4.71,10.35,1.44,15.86-3.08,5.19-14.05,13.27-22.64,17C601.3,522.46,607.23,518.31,611.17,515.42ZM474.63,395c8.64-16.53,20.62-27.6,39.84-28.51,18.87-.9,31.26,8.32,39.65,25.64C526.7,372.87,500.62,378.32,474.63,395Zm46.17,63.65c-3.69,7-10,6.77-14.09-.06-3.84-6.41-4.91-13.49-4.31-20.94a33.51,33.51,0,0,1,3.71-19.27c1.76-3.2,4.37-6.14,8.42-5.9,3.62.21,5.79,3,7.24,6.15C527.91,432.17,527.71,445.64,520.8,458.69Z" transform="translate(-112.17 -38.12)"/><path class="cls-9" d="M621.66,582.92c20.94-4,40.08-12.16,55.85-27l-36.33-.39h0a32.09,32.09,0,0,1-4.82.73q-33.68.35-67.33.56c-15.91.09-31.82,0-47.73,0C551.48,579.67,584.48,590.07,621.66,582.92Z" transform="translate(-112.17 -38.12)"/><path class="cls-10" d="M677.51,555.88c-1.41-3.06-4.22-2.14-6.56-2.14q-52.82,0-105.63,0a10.87,10.87,0,0,0-2.34.5c0,.4.09.8.14,1.2h78.06C653.31,554.19,665.42,553.46,677.51,555.88Z" transform="translate(-112.17 -38.12)"/><path class="cls-10" d="M677.51,555.88c-12.09-2.42-24.2-1.69-36.33-.39h0Z" transform="translate(-112.17 -38.12)"/><path class="cls-6" d="M650.2,841.23c.11,9.45.16,18.89,0,28.33-.1,5.91,2.11,8.64,8.28,8.5q15-.36,30,0c6.12.14,8.39-2.49,8.34-8.44-.14-14.44-.08-28.89,0-43.33,0-3.83-.25-7.7.73-11.48a174.25,174.25,0,0,1-49.36,15.65C650.49,833.71,650.15,837.53,650.2,841.23Z" transform="translate(-112.17 -38.12)"/><path class="cls-6" d="M697.52,814.81c-1,3.78-.71,7.65-.73,11.48,0,14.44-.11,28.89,0,43.33,0,6-2.22,8.58-8.34,8.44q-15-.36-30,0c-6.17.14-8.38-2.59-8.28-8.5.16-9.44.11-18.88,0-28.33-.05-3.7.29-7.52-2-10.77l-.64.12c.09,14.41.42,28.82.14,43.23-.1,5.49,1.64,7.15,7.06,7,12.18-.35,24.4-.43,36.58,0,6.14.24,8.18-1.46,8.05-7.83-.38-19.67-.11-39.36-.1-59h0C698.68,814.26,698.1,814.52,697.52,814.81Z" transform="translate(-112.17 -38.12)"/><path class="cls-6" d="M697.52,814.81l0-.13.11-.2-49.55,15.91,0,.07A174.25,174.25,0,0,0,697.52,814.81Z" transform="translate(-112.17 -38.12)"/><path class="cls-6" d="M697.55,814.68l0,.13c.58-.29,1.16-.55,1.73-.84h0l-1.59.51Z" transform="translate(-112.17 -38.12)"/><path class="cls-6" d="M648.11,830.39l-.59.19.64-.12Z" transform="translate(-112.17 -38.12)"/><path class="cls-7" d="M501.93,827.06c-11.14-3.62-22.85-5.86-33-12.12,2.45,11.55.71,23.26,1.14,34.89.26,6.91.1,13.84.07,20.76,0,5.25,2.37,7.47,7.57,7.43,10.24-.07,20.49-.17,30.72,0,6.13.13,8.35-2.56,8.3-8.47-.11-10.79-.2-21.59.08-32.38a14.2,14.2,0,0,1,1.15-5.67c.33-.3.66-.57,1-.82C512.86,831.51,507.4,828.83,501.93,827.06Z" transform="translate(-112.17 -38.12)"/><path class="cls-7" d="M518,831.54a14.2,14.2,0,0,0-1.15,5.67c-.28,10.79-.19,21.59-.08,32.38,0,5.91-2.17,8.6-8.3,8.47-10.23-.21-20.48-.11-30.72,0-5.2,0-7.6-2.18-7.57-7.43,0-6.92.19-13.85-.07-20.76-.43-11.63,1.31-23.34-1.14-34.89-.53-.33-1.06-.66-1.59-1,.06,19.71.28,39.42.07,59.13,0,5.46,1,8,7.24,7.79,12.47-.46,25-.44,37.47,0,6.19.22,7.32-2.24,7.23-7.75-.23-14.15.11-28.3.22-42.46-.21,0-.42,0-.63.06C518.61,831,518.28,831.24,518,831.54Z" transform="translate(-112.17 -38.12)"/><path class="cls-7" d="M501.93,827.06c5.47,1.77,10.93,4.45,17,3.66l.25-.18-50.37-16.13c0,.17.08.35.11.53C479.08,821.2,490.79,823.44,501.93,827.06Z" transform="translate(-112.17 -38.12)"/><path class="cls-7" d="M519.18,830.54l-.25.18c.21,0,.42,0,.63-.06h0Z" transform="translate(-112.17 -38.12)"/><path class="cls-7" d="M468.81,814.41l-1.48-.48c.53.35,1.06.68,1.59,1C468.89,814.76,468.85,814.58,468.81,814.41Z" transform="translate(-112.17 -38.12)"/><path class="cls-7" d="M819.44,1093.45c0-7-.19-13.91.06-20.84.15-4.55-1.35-6.61-6.15-6.54q-20,.27-40,0c-4.41-.06-5.71,1.63-5.65,5.89.19,14.17.21,28.35,0,42.52-.08,4.61,1.19,6.39,6.05,6.29,13.34-.28,26.68-.23,40,0,4.25.07,6-1.16,5.81-5.64C819.23,1107.91,819.45,1100.67,819.44,1093.45Z" transform="translate(-112.17 -38.12)"/><path class="cls-5" d="M752.54,1066.05q-19.57.29-39.15,0c-4.35-.06-5.89,1.46-5.73,5.8.27,7.21.07,14.44.07,21.66,0,6.94.19,13.89-.07,20.82-.17,4.4.83,6.54,5.89,6.42q20-.43,40,0c5.07.11,6-2.11,5.91-6.49-.19-13.88-.26-27.77,0-41.65C759.56,1067.42,757.36,1066,752.54,1066.05Z" transform="translate(-112.17 -38.12)"/><path class="cls-6" d="M693.06,1066.06c-13.31.17-26.63.14-39.94,0-3.8,0-5.44,1.09-5.39,5.21.2,14.7.17,29.4,0,44.1,0,3.85,1.06,5.42,5.15,5.36,13.59-.19,27.19-.21,40.78,0,4.46.08,5.76-1.59,5.6-5.84-.28-7.2-.08-14.42-.08-21.64h0c0-6.93-.2-13.87.07-20.8C699.45,1067.86,697.76,1066,693.06,1066.06Z" transform="translate(-112.17 -38.12)"/><path class="cls-7" d="M519.22,1093.61c0-7.23-.19-14.46.07-21.68.16-4.26-1.21-6-5.64-5.88-13.34.22-26.68.21-40,.06-4.75,0-6.23,1.93-6.17,6.51q.3,21.26,0,42.52c-.07,4.47,1.63,5.71,5.86,5.64,12.51-.2,25-.53,37.51.12,7.32.38,9.11-2.27,8.51-9C518.8,1105.88,519.22,1099.72,519.22,1093.61Z" transform="translate(-112.17 -38.12)"/><path class="cls-5" d="M392.77,1066.07q-20,.21-40,0c-3.93,0-5.46,1.36-5.34,5.34.22,7.22.07,14.45.06,21.68s.15,14.46-.06,21.67c-.11,4,.79,6.09,5.46,6q20.42-.35,40.85,0c4.64.09,5.55-2,5.5-6-.15-14.17-.19-28.34,0-42.51C399.32,1067.47,397.24,1066,392.77,1066.07Z" transform="translate(-112.17 -38.12)"/><path class="cls-5" d="M279.13,1072.25c0-4.13-1.27-6.19-5.66-6.15-13.6.11-27.21.14-40.81,0-4,0-5.34,1.49-5.23,5.41.23,7.49.07,15,.07,22.49,0,6.94.16,13.89-.07,20.82-.13,4.06.81,6.07,5.46,6,13.6-.24,27.21-.16,40.81,0,3.79,0,5.5-1.1,5.45-5.2C279,1101.12,279,1086.68,279.13,1072.25Z" transform="translate(-112.17 -38.12)"/><path class="cls-7" d="M213.13,1066c-13,.26-26,.19-39.07,0-4.43,0-6.62,1.23-6.55,6.11.21,14.41.18,28.82.05,43.23,0,3.87,1.25,5.4,5.27,5.34,13.58-.18,27.17-.24,40.74,0,4.61.09,5.63-1.79,5.49-5.89-.24-6.92-.07-13.86-.07-20.79h0c0-7.2-.19-14.42.07-21.61C219.26,1068,218.09,1065.93,213.13,1066Z" transform="translate(-112.17 -38.12)"/><path class="cls-5" d="M993.93,1066.1c-13.57.11-27.15.09-40.73,0-3.85,0-5.38,1.65-5.35,5.55.13,14.68.16,29.37,0,44-.05,4.25,1.94,5,5.59,5q20.37-.16,40.73,0c3.88,0,5.48-1.31,5.37-5.29-.19-7.2,0-14.41,0-21.61h0c0-7.2-.13-14.41,0-21.61C999.66,1068.19,998.33,1066.07,993.93,1066.1Z" transform="translate(-112.17 -38.12)"/><path class="cls-6" d="M932.81,1066.07q-19.14.32-38.29,0c-4.93-.08-7,1.55-6.8,6.72.34,6.92.08,13.87.08,20.81s.21,13.88-.08,20.81c-.18,4.48.95,6.48,5.94,6.37q20-.45,40,0c5,.11,6-1.87,6-6.34-.21-13.87-.24-27.75,0-41.62C939.67,1067.75,937.8,1066,932.81,1066.07Z" transform="translate(-112.17 -38.12)"/><path class="cls-5" d="M879.43,1093.65c0-7.2-.15-14.41.06-21.61.12-4.32-1.72-6-5.88-6q-20,.12-39.89,0c-4.17,0-6,1.53-5.91,5.87.17,14.41.22,28.82,0,43.22-.07,4.5,1.66,5.67,5.84,5.61,12.74-.18,25.5-.42,38.22.1,6.55.27,8.11-2.16,7.68-8.12C879.08,1106.42,879.44,1100,879.43,1093.65Z" transform="translate(-112.17 -38.12)"/><path class="cls-5" d="M632.65,1066.05q-19.12.35-38.27,0c-4.9-.08-7.08,1.5-6.83,6.69.33,6.92.08,13.86.09,20.8s.2,13.87-.08,20.79c-.17,4.44.88,6.54,5.91,6.44q19.95-.43,39.93,0c5,.11,6-1.88,5.94-6.37q-.33-20.81,0-41.6C639.47,1067.79,637.69,1066,632.65,1066.05Z" transform="translate(-112.17 -38.12)"/><path class="cls-6" d="M579.22,1093.5c0-6.93-.25-13.87.07-20.78.25-5.21-2-6.74-6.85-6.66q-19.11.29-38.23,0c-5.09-.08-6.72,1.91-6.63,6.89q.36,20.77,0,41.55c-.08,4.58,1.21,6.39,6.05,6.29,13.29-.26,26.59-.21,39.88,0,4.29.07,6-1.29,5.81-5.68C579,1107.91,579.23,1100.7,579.22,1093.5Z" transform="translate(-112.17 -38.12)"/><path class="cls-7" d="M459.16,1095.84c0-8.73-.13-16.2.06-23.67.1-4.2-1.49-6.09-5.76-6.06-13.29.08-26.58.14-39.87,0-4.88-.06-6.08,2.21-6,6.62.16,14.12.18,28.24,0,42.36-.07,4.39,1.51,5.86,5.79,5.7,6.64-.26,13.3.08,19.93-.12,8.25-.24,19,3.53,24.09-1.33C462.91,1114,458.23,1103,459.16,1095.84Z" transform="translate(-112.17 -38.12)"/><path class="cls-5" d="M339.14,1071.59c0-3.91-1.69-5.49-5.47-5.47-13.57.06-27.14.09-40.71,0-4.53,0-5.54,2.33-5.44,6.3.18,7.2.05,14.4,0,21.6,0,6.92.16,13.85-.06,20.77-.13,4,.8,6.08,5.44,6,13.56-.23,27.13-.16,40.7,0,3.75,0,5.56-1,5.52-5.14C339,1100.94,339.05,1086.27,339.14,1071.59Z" transform="translate(-112.17 -38.12)"/><path class="cls-5" d="M287.49,935.08c-.07,4.5,1.76,5.69,5.92,5.64q20-.26,39.94,0c4.27.06,6-1.33,5.83-5.73-.26-6.92-.07-13.86-.08-20.8s-.17-13.87.06-20.8c.15-4.37-.88-6.63-5.91-6.53-13.31.26-26.63.19-39.95,0-4.26-.06-5.87,1.41-5.81,5.77Q287.77,913.87,287.49,935.08Z" transform="translate(-112.17 -38.12)"/><path class="cls-7" d="M347.48,913.91c0,6.92.16,13.85-.05,20.76-.12,4,.74,6.12,5.41,6.05,13.57-.22,27.14-.17,40.7,0,4.38.07,5.78-1.57,5.72-5.83-.18-14.12-.21-28.24,0-42.36.07-4.46-1.7-5.73-5.86-5.68q-20.34.25-40.7,0c-3.95,0-5.38,1.49-5.28,5.38C347.62,899.51,347.48,906.71,347.48,913.91Z" transform="translate(-112.17 -38.12)"/><path class="cls-5" d="M407.59,913.67h0c0,6.93.22,13.87-.08,20.79-.2,4.63,1.34,6.38,6.12,6.29,13-.25,26.07-.32,39.09,0,5.29.14,6.6-1.9,6.52-6.79-.25-13.58-.22-27.17,0-40.75.06-4.56-1.32-6.44-6.15-6.35-13,.25-26.07.27-39.09,0-5.31-.13-6.71,2-6.49,6.89C407.81,900.35,407.59,907,407.59,913.67Z" transform="translate(-112.17 -38.12)"/><path class="cls-5" d="M519.21,915.39c0-8.66-.16-15.59.06-22.5.14-4.07-.89-6.09-5.48-6q-20.34.33-40.7,0c-4.48-.07-5.66,1.8-5.61,6,.16,13.84.26,27.69-.07,41.52-.13,5.41,2.14,6.58,6.89,6.34,6.07-.29,12.18.08,18.27-.12,8.52-.28,19.7,3.61,24.86-1.41C523,933.71,518.4,922.38,519.21,915.39Z" transform="translate(-112.17 -38.12)"/><path class="cls-5" d="M527.6,935.44c0,4,1.55,5.32,5.42,5.28,13.59-.14,27.19-.22,40.79,0,4.67.08,5.57-2.05,5.46-6.05-.19-6.93,0-13.87,0-20.81s-.12-13.87,0-20.81c.1-3.94-.74-6.25-5.43-6.18-13.59.2-27.19.15-40.78,0-3.83,0-5.52,1.22-5.48,5.26Q527.8,913.79,527.6,935.44Z" transform="translate(-112.17 -38.12)"/><path class="cls-7" d="M587.56,934.65c0,4,.8,6.14,5.47,6.06q20.41-.33,40.85,0c4.68.08,5.57-2.08,5.46-6.07-.18-6.94-.05-13.89-.05-20.84s-.24-13.91.08-20.84c.21-4.79-1.6-6.21-6.27-6.12-13.05.27-26.12.24-39.18,0-4.54-.07-6.47,1.19-6.38,6.08C587.79,906.85,587.7,920.75,587.56,934.65Z" transform="translate(-112.17 -38.12)"/><path class="cls-7" d="M654.13,940.75c6.35-.43,12.76.06,19.13-.16,8.26-.28,19,3.53,24.13-1.35,5.56-5.34.93-16.31,1.81-23.27,0-8.44-.25-15.39.08-22.31.23-4.94-1.25-6.94-6.51-6.81-12.76.31-25.53.38-38.28,0-5.83-.19-6.9,2.22-6.8,7.3.26,13.31.29,26.63,0,39.94C647.57,939,648.8,941.11,654.13,940.75Z" transform="translate(-112.17 -38.12)"/><path class="cls-5" d="M707.67,935.3c0,3.87,1.21,5.45,5.23,5.4,13.61-.15,27.22-.17,40.83,0,4.47.07,5.82-1.71,5.69-5.92-.23-6.93-.06-13.88-.06-20.83,0-7.22-.13-14.45.06-21.67.11-3.89-1.31-5.46-5.28-5.42-13.61.14-27.23.19-40.84,0-4.45-.06-5.7,1.67-5.65,5.9C707.85,907,707.83,921.13,707.67,935.3Z" transform="translate(-112.17 -38.12)"/><path class="cls-5" d="M767.68,934.83c-.06,4.16,1.08,6,5.58,5.89q20.36-.35,40.72,0c4.59.08,5.64-1.88,5.53-6-.21-7.2-.06-14.4,0-21.6,0-6.65-.21-13.31.07-19.94.2-4.55-1.18-6.46-6-6.37-13.29.25-26.59.19-39.89,0-4.09,0-6,1-5.93,5.56C767.89,906.58,767.86,920.71,767.68,934.83Z" transform="translate(-112.17 -38.12)"/><path class="cls-5" d="M833.75,940.71c13.31-.16,26.63-.19,39.94,0,4.29.06,6-1.41,5.81-5.77-.24-6.92-.06-13.86-.06-20.79s-.18-13.88.07-20.8c.16-4.45-1-6.56-6-6.46-13.31.25-26.62.19-39.93,0-4.28-.06-5.86,1.42-5.8,5.78q.29,21.21,0,42.43C827.72,939.65,829.65,940.76,833.75,940.71Z" transform="translate(-112.17 -38.12)"/><path class="cls-6" d="M814.22,946.91c-13.85.12-27.7.09-41.55,0-3.45,0-5,1.25-4.95,4.85q.15,22,0,44.05c0,3.5,1.17,5,4.78,5,13.85-.1,27.71-.16,41.55.06,4.66.07,5.55-2.13,5.44-6.1-.18-6.64,0-13.29,0-19.94,0-7.48-.12-15,.06-22.44C819.59,948.5,818.16,946.88,814.22,946.91Z" transform="translate(-112.17 -38.12)"/><path class="cls-5" d="M233,1000.79c13.3-.12,26.59-.17,39.88,0,4.54.08,6.54-1.23,6.3-6.09-.34-6.63-.09-13.29-.09-19.94,0-7.47-.12-14.95.05-22.43.09-3.76-1.1-5.54-5.16-5.5-13.84.15-27.69.12-41.54,0-3.44,0-5,1.19-4.95,4.82.11,14.67.15,29.35,0,44C227.38,1000,229.31,1000.83,233,1000.79Z" transform="translate(-112.17 -38.12)"/><path class="cls-6" d="M332.5,946.84q-19.14.39-38.3,0c-5-.1-6.84,1.41-6.73,6.6q.45,20.38,0,40.79c-.12,5.22,1.75,6.7,6.71,6.61q19.14-.37,38.29,0c4.94.1,7.07-1.29,6.76-6.56-.39-6.64-.1-13.32-.09-20,0-6.93-.26-13.89.1-20.8C339.47,948.34,337.49,946.74,332.5,946.84Z" transform="translate(-112.17 -38.12)"/><path class="cls-6" d="M353.36,1000.83c13.3-.27,26.61-.18,39.92,0,4,.05,6.07-.9,6-5.51-.22-14.13-.16-28.27,0-42.4,0-4-.95-6.13-5.55-6.06q-20.37.31-40.74,0c-4.57-.07-5.66,1.92-5.53,6,.23,6.92.06,13.86.06,20.79s.2,13.87-.07,20.78C347.24,998.89,348.4,1000.94,353.36,1000.83Z" transform="translate(-112.17 -38.12)"/><path class="cls-6" d="M414.22,1000.83q19.14-.41,38.28,0c4.92.1,6.91-1.25,6.78-6.53q-.5-20.38,0-40.78c.12-5.17-1.74-6.75-6.7-6.66q-19.14.35-38.28,0c-4.91-.09-7.07,1.34-6.77,6.59.38,6.63.09,13.31.1,20,0,6.93.27,13.88-.09,20.8C407.24,999.38,409.2,1000.94,414.22,1000.83Z" transform="translate(-112.17 -38.12)"/><path class="cls-5" d="M473,1000.83q20.37-.32,40.76,0c4.59.08,5.63-1.9,5.5-6-.23-6.92-.06-13.86-.06-20.79h0c0-6.93-.18-13.87.07-20.79.15-4.39-.92-6.59-5.92-6.49q-20,.41-39.93,0c-4.91-.09-6.07,2-6,6.43.19,13.86.15,27.73,0,41.59C467.4,998.94,468.46,1000.9,473,1000.83Z" transform="translate(-112.17 -38.12)"/><path class="cls-6" d="M533.82,1000.82c13.31-.2,26.64-.14,39.95,0,3.84,0,5.53-1.28,5.5-5.28q-.19-21.64,0-43.29c0-3.94-1.47-5.4-5.37-5.36-13.59.13-27.19.2-40.79,0-4.59-.06-5.63,2-5.51,6.08.21,6.93.06,13.87.06,20.81s.22,13.88-.09,20.81C527.35,999.36,529.18,1000.89,533.82,1000.82Z" transform="translate(-112.17 -38.12)"/><path class="cls-5" d="M587.65,972.43c0,8.44.24,15.38-.08,22.29-.23,4.8,1.63,6.2,6.25,6.12,13.29-.23,26.59-.16,39.89,0,3.62,0,5.68-.68,5.62-5-.18-14.68-.12-29.36,0-44.05,0-3.54-1.4-5-4.91-4.9-6.65.13-13.3-.11-19.95.08-8.54.25-19.68-3.58-24.92,1.45C583.8,953.88,588.5,965.21,587.65,972.43Z" transform="translate(-112.17 -38.12)"/><path class="cls-6" d="M647.71,995c-.07,4.35,1.38,5.83,5.72,5.77,13.31-.18,26.64-.22,40,.06,5.07.11,6-2.2,5.88-6.55-.24-6.65-.06-13.32-.06-20,0-7.21-.21-14.44.07-21.64.18-4.39-1.55-5.84-5.77-5.8q-20,.23-40,0c-4.17,0-5.92,1.22-5.84,5.69Q648,973.8,647.71,995Z" transform="translate(-112.17 -38.12)"/><path class="cls-5" d="M752.67,946.82c-12.18.25-24.39.52-36.55-.09-7.26-.35-9.1,2.35-8.5,9,.52,5.77.1,11.62.11,17.44,0,7.2.26,14.41-.08,21.6-.24,4.88,1.75,6.13,6.29,6.06,13-.23,26-.31,39,0,5.28.12,6.55-1.89,6.46-6.79-.27-13.57-.29-27.15,0-40.71C759.58,948.11,757.56,946.72,752.67,946.82Z" transform="translate(-112.17 -38.12)"/><path class="cls-5" d="M634.18,1007c-13.9.16-27.79.11-41.69,0-3.53,0-4.93,1.37-4.91,4.94.12,14.45.21,28.9,0,43.35-.07,4.71,2.12,5.46,6.09,5.42,13.33-.15,26.68-.2,40,0,4.44.08,5.84-1.51,5.68-5.79-.26-6.94-.07-13.89-.06-20.84,0-7.23-.12-14.46.07-21.68C639.44,1008.68,638.27,1007,634.18,1007Z" transform="translate(-112.17 -38.12)"/><path class="cls-5" d="M873.45,946.85c-13.33.23-26.66.19-40,0-4.45-.07-5.79,1.75-5.65,5.95.24,6.94.07,13.89.07,20.83s.21,13.89-.07,20.82c-.19,4.54,1.13,6.48,6,6.38,13.33-.26,26.66-.22,40,0,4.42.06,5.74-1.63,5.68-5.88q-.29-20.82,0-41.65C879.58,948.79,878.33,946.76,873.45,946.85Z" transform="translate(-112.17 -38.12)"/><path class="cls-6" d="M894.6,1000.83c12.73-.34,25.49-.36,38.22,0,5.8.19,7-2.14,6.76-7.28-.35-6.35-.08-12.74-.08-19.11,0-6.93-.22-13.86.07-20.78.2-4.78-1-7-6.4-6.9q-19.51.5-39.06,0c-5.37-.12-6.48,2.12-6.39,6.92.24,13.29.3,26.6,0,39.89C887.54,999,889,1001,894.6,1000.83Z" transform="translate(-112.17 -38.12)"/><path class="cls-5" d="M999.48,974.39h0c0-7.22-.15-14.45.06-21.66.12-4.25-1.42-6-5.78-5.9-13.32.19-26.66.18-40,0-4.11,0-6,1.13-6,5.64.2,14.16.28,28.33,0,42.49-.11,5.21,2.34,5.85,6.58,5.8,12.5-.16,25-.4,37.49.1,6.54.27,8.16-2.2,7.7-8.19S999.48,980.5,999.48,974.39Z" transform="translate(-112.17 -38.12)"/><path class="cls-5" d="M172.83,1060.75c13.58-.17,27.17-.23,40.75,0,4.62.08,5.63-1.9,5.51-6-.21-6.93-.06-13.87-.06-20.8,0-7.21-.15-14.42.05-21.62.11-3.91-1.3-5.42-5.26-5.38-13.59.14-27.18.11-40.76,0-3.77,0-5.54,1-5.5,5.18.16,14.41.12,28.83,0,43.25C167.49,1059.31,168.84,1060.8,172.83,1060.75Z" transform="translate(-112.17 -38.12)"/><path class="cls-5" d="M272.5,1007q-19.15.42-38.34,0c-4.91-.1-7.08,1.17-6.76,6.48.41,6.65.1,13.33.11,20,0,7.23.23,14.46-.08,21.67-.2,4.49,1.56,5.7,5.79,5.64,13.34-.2,26.68-.27,40,0,5.07.12,6-2,5.92-6.42-.18-13.61-.24-27.23.08-40.84C279.35,1008.36,277.5,1006.84,272.5,1007Z" transform="translate(-112.17 -38.12)"/><path class="cls-5" d="M339.1,1034.11c0-7.21-.13-14.43,0-21.63.09-3.84-1.2-5.51-5.22-5.47-13.6.14-27.19.15-40.78,0-4.4-.07-5.74,1.62-5.68,5.88q.31,20.79,0,41.61c-.07,4.55,1.18,6.42,6.05,6.32,13.31-.27,26.63-.24,39.94,0,4.47.08,5.82-1.65,5.68-5.85C338.94,1048,339.1,1041.05,339.1,1034.11Z" transform="translate(-112.17 -38.12)"/><path class="cls-5" d="M393.42,1007q-20.34.27-40.7,0c-4,0-5.39,1.43-5.29,5.35.2,7.19.06,14.39.06,21.59,0,6.92.26,13.86-.08,20.76-.25,4.88,1.72,6.11,6.27,6q19.94-.35,39.87,0c4.41.08,5.76-1.52,5.71-5.77q-.25-21.18,0-42.37C399.36,1008.19,397.6,1006.93,393.42,1007Z" transform="translate(-112.17 -38.12)"/><path class="cls-5" d="M413.24,1060.76c6.64-.27,13.31.11,20-.1,8.26-.27,19,3.47,24.12-1.46,5.61-5.39.89-16.31,1.82-23.34,0-8.63-.19-15.84.07-23,.16-4.33-1.39-5.88-5.72-5.82-13.31.17-26.62.21-39.93-.06-4.95-.1-6.08,2-6,6.45q.27,20.79,0,41.59C407.47,1059.26,408.84,1060.94,413.24,1060.76Z" transform="translate(-112.17 -38.12)"/><path class="cls-6" d="M513.23,1007c-13.29.26-26.58.21-39.86,0-4.15,0-6,1.14-5.92,5.61q.32,21.18,0,42.35c-.05,4.26,1.28,5.86,5.69,5.79,13.56-.22,27.13-.24,40.69,0,4.67.08,5.54-2,5.43-6-.2-6.91-.06-13.84-.06-20.76s-.21-13.85.08-20.76C519.49,1008.67,518,1006.86,513.23,1007Z" transform="translate(-112.17 -38.12)"/><path class="cls-6" d="M579.23,1034.3c0-6.94-.16-13.89.07-20.82.14-4.34-.82-6.63-5.9-6.53q-20,.42-40,0c-5.08-.1-5.94,2.22-5.88,6.55q.29,20.4,0,40.79c-.06,4.38.81,6.6,5.88,6.49q20-.43,40,0c5.06.11,6-2.12,5.87-6.5C579,1047.62,579.23,1041,579.23,1034.3Z" transform="translate(-112.17 -38.12)"/><path class="cls-6" d="M699.2,1035.92c0-8.62-.17-15.84.06-23,.14-4.21-1.2-6-5.65-5.9-13.31.2-26.63.25-39.94,0-5-.11-6,2-6,6.4q.3,20.8,0,41.61c-.06,4.22,1.1,6,5.59,5.81,6.65-.3,13.32.09,20-.1,8.27-.22,19.08,3.43,24.14-1.39C703,1054,698.32,1043,699.2,1035.92Z" transform="translate(-112.17 -38.12)"/><path class="cls-5" d="M713,1060.73c13.61-.15,27.23-.12,40.84,0,3.69,0,5.63-.84,5.58-5q-.24-21.68,0-43.34c0-4-1.42-5.39-5.35-5.35-13.61.14-27.23.19-40.83,0-4.57-.08-5.7,1.82-5.56,6,.23,6.94.06,13.89.06,20.84,0,7.22.16,14.45-.06,21.67C707.55,1059.42,709.06,1060.77,713,1060.73Z" transform="translate(-112.17 -38.12)"/><path class="cls-5" d="M813.74,1007c-13.57.18-27.14.15-40.71,0-3.91,0-5.45,1.35-5.34,5.3.19,7.2,0,14.4.06,21.6s.17,14.41,0,21.6c-.12,4,1.43,5.3,5.32,5.26,13.57-.16,27.15-.19,40.71,0,4.29.07,5.86-1.29,5.79-5.67q-.3-21.18,0-42.37C819.61,1008.33,818,1006.94,813.74,1007Z" transform="translate(-112.17 -38.12)"/><path class="cls-5" d="M833.68,1060.76c13.31-.28,26.63-.2,39.94,0,4.21.06,6-1.2,5.87-5.66-.27-6.93-.07-13.87-.07-20.81s-.27-13.88.1-20.79c.29-5.25-1.83-6.63-6.75-6.53q-19.14.4-38.28,0c-5-.1-6.84,1.32-6.72,6.54.32,13.59.23,27.19,0,40.78C827.73,1058.65,828.62,1060.87,833.68,1060.76Z" transform="translate(-112.17 -38.12)"/><path class="cls-6" d="M939.5,1034.58c0-7.22-.16-14.46.07-21.68.13-4.17-1.12-6-5.63-5.92q-20,.33-40,0c-4.7-.09-6.29,1.48-6.2,6.21q.39,20.43,0,40.86c-.1,4.91,1.13,7.1,6.46,6.75,6.36-.41,12.79.17,19.17-.14,8.49-.42,19.87,3.77,24.62-1.89,4.09-4.86.85-15.87.85-24.16Z" transform="translate(-112.17 -38.12)"/><path class="cls-5" d="M999.51,1033.19h0c0-6.94-.13-13.88,0-20.82.11-3.89-1.35-5.43-5.31-5.39q-20.4.22-40.79,0c-3.72,0-5.6,1-5.56,5.13q.25,21.64,0,43.29c0,4,1.4,5.34,5.32,5.29,13.6-.15,27.2-.19,40.79,0,4.52.07,5.74-1.8,5.62-5.94C999.36,1047.62,999.51,1040.4,999.51,1033.19Z" transform="translate(-112.17 -38.12)"/><path class="cls-7" d="M588.19,837.4c3.77,7.34,1.73,15.3,1.89,23,.41,19.5-1.35,17.54,17.39,17.66,6.66,0,13.32-.27,20,.07s9.62-2.22,9.39-9.11c-.3-9.14-.14-18.29,0-27.44,0-3.26-.21-6.6,1.19-9.62-6.5,4.73-14.52,3.75-21.93,5A98.43,98.43,0,0,1,588.19,837.4Z" transform="translate(-112.17 -38.12)"/><path class="cls-7" d="M636.78,841.53c-.1,9.15-.26,18.3,0,27.44.23,6.89-2.67,9.46-9.39,9.11s-13.3,0-20-.07c-18.74-.12-17,1.84-17.39-17.66-.16-7.65,1.88-15.61-1.89-23l-.75-.09c.06,11.92.5,23.85,0,35.75-.24,6.42,2,8,8.06,7.78,12.17-.44,24.39-.45,36.57,0,6.09.22,7.41-2.08,7.28-7.66-.3-14.13,0-28.27,0-42.41-.47.42-.94.8-1.42,1.15C636.57,834.93,636.82,838.27,636.78,841.53Z" transform="translate(-112.17 -38.12)"/><path class="cls-7" d="M616,836.9c7.41-1.24,15.43-.26,21.93-5a10.37,10.37,0,0,1,.53-1c-14.29,2.83-28.66,4.86-43.28,4.79-2.46,0-5.17-.72-7.3,1.15.1.17.18.35.27.53A98.43,98.43,0,0,0,616,836.9Z" transform="translate(-112.17 -38.12)"/><path class="cls-7" d="M638.5,830.93a10.37,10.37,0,0,0-.53,1c.48-.35.95-.73,1.42-1.15h0Z" transform="translate(-112.17 -38.12)"/><path class="cls-7" d="M587.92,836.87a4.9,4.9,0,0,0-.48.44l.75.09C588.1,837.22,588,837,587.92,836.87Z" transform="translate(-112.17 -38.12)"/><path class="cls-7" d="M529,832.71l.34.5c1.74,11.85.72,23.78.71,35.67,0,6.77,2.39,9.49,9.23,9.24,9.69-.36,19.4-.26,29.1,0,6,.14,8.55-2.35,8.42-8.35-.16-7.48-.11-15,0-22.45.05-3.38-.13-6.85,1.81-9.88C561.75,838.86,545.15,837.91,529,832.71Z" transform="translate(-112.17 -38.12)"/><path class="cls-7" d="M576.77,847.29c-.12,7.48-.17,15,0,22.45.13,6-2.37,8.49-8.42,8.35-9.7-.23-19.41-.33-29.1,0-6.84.25-9.24-2.47-9.23-9.24,0-11.89,1-23.82-.71-35.67l-.34-.5-1.37-.43c0,13.84.26,27.69-.07,41.53-.14,5.57,1.85,7.14,7.18,7,12.45-.31,24.93-.43,37.37,0,6.26.24,7.36-2.36,7.24-7.8-.25-11.89,0-23.8.1-35.7l-.83.06C576.64,840.44,576.82,843.91,576.77,847.29Z" transform="translate(-112.17 -38.12)"/><path class="cls-7" d="M578.58,837.41l.09-.14-49.93-4.88c.08.1.15.22.22.32C545.15,837.91,561.75,838.86,578.58,837.41Z" transform="translate(-112.17 -38.12)"/><path class="cls-7" d="M528.74,832.39l-1.15-.11,1.37.43C528.89,832.61,528.82,832.49,528.74,832.39Z" transform="translate(-112.17 -38.12)"/><path class="cls-7" d="M578.67,837.27l-.09.14.83-.06h0Z" transform="translate(-112.17 -38.12)"/><path class="cls-11" d="M514.53,412.52c-4-.24-6.66,2.7-8.42,5.9a33.51,33.51,0,0,0-3.71,19.27c-.6,7.45.47,14.53,4.31,20.94,4.1,6.83,10.4,7,14.09.06,6.91-13.05,7.11-26.52,1-40C520.32,415.47,518.15,412.73,514.53,412.52Z" transform="translate(-112.17 -38.12)"/><path class="cls-12" d="M682.83,418.94c-1.69-3.23-3.86-6.63-7.88-6.57s-6.44,3.14-8,6.55c-5.82,13.21-5.39,26.39.66,39.41,1.48,3.17,3.77,5.76,7.64,5.31,3.51-.4,6-2.52,7.46-5.88a39.21,39.21,0,0,0,3.52-19.94C686.76,431,685.87,424.74,682.83,418.94Z" transform="translate(-112.17 -38.12)"/><path class="cls-11" d="M716.73,392.37c-8.8-18.48-22.43-27.44-42.1-25.7-18.16,1.59-29.62,12.54-38,28.43C662.84,379.09,689.2,372.76,716.73,392.37Z" transform="translate(-112.17 -38.12)"/><path class="cls-11" d="M554.12,392.17c-8.39-17.32-20.78-26.54-39.65-25.64-19.22.91-31.2,12-39.84,28.51C500.62,378.32,526.7,372.87,554.12,392.17Z" transform="translate(-112.17 -38.12)"/><path class="cls-13" d="M624.11,512.82c3.27-5.51-2-10.47-1.44-15.86a2.89,2.89,0,0,0,0-.83q-4.41-25.81-8.83-51.64l-1.88.33c.8,8.69,1.48,17.4,2.41,26.09s2.35,17.47,3.15,26.24c.63,6.86.79,13-6.32,18.27-3.94,2.89-9.87,7-9.7,14.39C610.06,526.09,621,518,624.11,512.82Z" transform="translate(-112.17 -38.12)"/></svg>