<svg id="Capa_1" data-name="Capa 1" xmlns="http://www.w3.org/2000/svg" viewBox="0 0 1035.93 1173.16"><defs><style>.cls-1{fill:#fff;}.cls-2{fill:#40807e;}.cls-3{fill:#a1544e;}.cls-4{fill:#e1a59d;}.cls-5{fill:#59a09d;}.cls-6{fill:#803d37;}.cls-7{fill:#599f9d;}.cls-8{fill:#d7857c;}.cls-9{fill:#fefefe;}.cls-10{fill:#362635;}.cls-11{fill:#813d37;}.cls-12{fill:#352635;}.cls-13{fill:#e1a59b;}.cls-14{fill:#dc9a91;}.cls-15{fill:#372834;}.cls-16{fill:#d7867c;}.cls-17{fill:#2f2331;}.cls-18{fill:#2e2231;}.cls-19{fill:none;}</style></defs><title>4</title><path class="cls-1" d="M374.51,519.47a25,25,0,0,0,.58,5.27,20.66,20.66,0,0,1,.32-2.08A3.21,3.21,0,0,0,374.51,519.47Z" transform="translate(-102.35 -16.24)"/><path class="cls-2" d="M941.78,850c-15,14.09-29.77,28.29-47.63,39.2-32,19.56-66.84,31.88-102.76,41.42-36.45,9.68-73.62,15.2-111.27,18-9.57.7-19.1,1.25-28.67,1.4L619.2,1066.28l-1.7-.14L600.13,950.07h0c-56-1.24-111-9.32-164.52-25.81-32.2-9.92-63.23-22.94-91.17-42.24-12.73-8.79-24.38-18.85-33.77-31.32-1.19-1.58-2.95-2.73-4.45-4.09-17.93,7.08-34.92,16.09-51.49,25.84-57.84,34.06-103.11,79.62-129.16,142.5-21.59,52.13-25.87,106.66-21.89,162.27.86,12.08.95,12.1,12.85,12.1l598.49,0q206.06,0,412.11.05c4.94,0,8.76.39,9.34-6.68,3.87-47.16,2.19-93.87-11.55-139.47C1096.28,948.23,1029.41,889.21,941.78,850ZM625.9,1128.49c-10.37-.21-18.62-9.25-18.48-20.23.12-9.75,9.26-18.28,19.48-18.19s19.34,9.57,19,19.75A19.45,19.45,0,0,1,625.9,1128.49Z" transform="translate(-102.35 -16.24)"/><path class="cls-3" d="M374.51,519.47a3.21,3.21,0,0,1,.9,3.19,20.66,20.66,0,0,0-.32,2.08c2.79,12.87,15.63,15.64,25.9,20.79,7.22,3.63,14.62,7.27,22.36,9.4,13.39,3.7,15.06,15.65,19.58,25.59,12.13,26.63,26.82,51.49,48.15,72A173.68,173.68,0,0,0,519.43,674c2.2,1.38,4.85,2.13,5.91,4.86,14.31,4.47,27.82,11.17,42.75,14.05,46.39,8.94,91.58,6.94,135.15-13,2.84-1.3,5.63-3,9-2.87,7.2-7.34,17.14-10.58,25-17,26.25-21.37,48.31-46.06,63-76.8,4.68-9.76,9.59-18.63,20-24.3,18.64-10.16,32.17-26.22,44.69-43h0c.44-.75,1.17-1.45,1.28-2.24,3.78-26.62,14.71-50,31-71.31,14.54-19.08,26.94-39.57,35.07-62.29,13.18-36.83,14.67-73.08-10.85-105.46-16.59-21-27.65-44.35-36.18-69.34-10.73-31.42-19-63.71-32.87-94-14-30.66-33.3-57-63.7-73.25C752,18.4,712.51,13.05,671.6,18.48c-17.87,2.37-33.4,10.2-44.69,24.91-2.54,3.3-4.65,6.93-7.38,11.06-13.95-26.74-37-36-64.44-37.78a220.37,220.37,0,0,0-44.4,1.81C461,25.27,421.61,47.84,396.29,92.42c-15.36,27-24.6,56.42-33.73,85.87-11.07,35.72-23.1,70.77-47.8,100.23-12.71,15.15-17.05,34.24-17.09,54-.07,29.49,10.44,55.86,24.81,80.93a333.83,333.83,0,0,0,25,36.87c15.65,20.41,22.64,44.3,27,69.17Zm171.84,21.27H707.84C677.26,576.64,599.82,579.74,546.35,540.74ZM368.52,462.13c-9.28-22.76-14-46.79-4.54-71.29,7.1-18.39,22.47-29.68,40.23-29.06h0l21.13,0h0c20-4.69,31.26-18.05,37.07-37,.57-1.85,2.07-3.4,3.13-5.09h0c-3.31-3.58,1.36-6,1.36-9.06-1.44-7.57,1.51-14.73,2.26-22.08,3-29.18,3.48-58.57,8.86-87.55,6.29-33.83,28.27-53.29,60.15-61.54,25.58-6.63,51.5-5.9,77.77-3.91,24.7,1.87,49.22,3.55,73,10.85a117.25,117.25,0,0,1,34.2,17.07c19.41,14,25.75,34.19,27.68,56.77,2,23.83,1.68,47.69,1.67,71.55h0c-1,5.83,2.59,12.1-1.66,17.64,3.57,2.12,3.19,5.62,3.53,9.11,1.39,14.19,4.06,28,12.36,40.13,9.89,14.44,24.36,19.72,41,20.28,4.09.14,6.83.75,6.42,5.57,2.77-7.65,9.32-5.35,14.65-5.11,4.87.22,9.79,1.45,13.43,5.32,6.41-.7,9.41,5,15.29,8.05-3.22-7.72-9.51-10.32-15.22-13.55h0C833.74,375.7,825,373,815.49,374c-34.56-1-50.78-19.66-50.51-58h0l0-15.73V243c4.86,13.34,3.45,27.34,4.93,41,.71,6.52,4.88,13.33.4,20.05h0c2.84,4.9,5.69,9.8,3.34,15.8h0c2.93,2.23,3.92,5.56,5.05,8.82,5.53,16.16,15.62,27.73,32.93,31.27,6.16,1.26,3.19,5.73,4.22,8.83,1.33-6.06,5.19-8,11.07-7.05,5.23.88,10.14-1.46,15.28-1.7h0C871.29,369.3,882,395.92,880,422.61A214.6,214.6,0,0,1,876.79,445c-3.89,21.12-15.48,36.62-34.67,46.33-2.31,1.16-5,2.84-7.42,1.23-3-2-1.56-5.35-1.08-8,3.46-19.16,6.92-38.3,6.67-57.89h0c-7.23-2.76-14.42-5.65-21.72-8.24-4.65-1.66-7.23-4.42-6.53-9.57h0c-2.25,15.15-4.35,30.33-6.78,45.45C800,486.76,793.64,519,780.47,549.44a109.46,109.46,0,0,1-10.66,19c-5.34,7.67-12.31,12.91-22.59,12.58-13.86-.45-18.93-5.63-18.15-19.5.41-7.27.79-14.55.78-21.82,0-13.69-6.84-23.19-18.91-29a75.11,75.11,0,0,0-29.55-7.06c-33.17-1.34-65.93-6.34-98.85-10-12.37-1.38-24.95-1.89-37.42.87-13.49,3-22,11.36-27,23.7-4,9.76-5.92,20.06-7.11,30.51a37.1,37.1,0,0,1-.59,5.2c-1.39,5.26-1.57,11.71-8.09,13.41-6.25,1.64-10.23-3-14.06-7-17.14-17.93-26.51-40.25-35-63a428.78,428.78,0,0,1-20.74-76.43h0c-.52,2.08,0,4.39-2.88,5.64-7.29,3.2-14.4,6.8-21.58,10.24a352.24,352.24,0,0,0,7.25,50.78c1.76,8.15-2.13,7.72-7.17,6.84C389,491.1,375.43,479.06,368.52,462.13Z" transform="translate(-102.35 -16.24)"/><path class="cls-4" d="M650.49,949.57a13.15,13.15,0,0,0-3.21,6.14c-9.29,34.49-19,68.87-28.62,103.15-3.56-29.93-8.88-59.79-13.29-89.78-1-6.56-.64-13.5-4.48-19.42a7.74,7.74,0,0,0-.89-.56c0,.32.09.64.13,1h0l17.37,116.07,1.7.14L651.45,950c.07-.26.14-.53.22-.8Z" transform="translate(-102.35 -16.24)"/><path class="cls-5" d="M856.38,837.35a344,344,0,0,1-121.8,58.9c-20.57,5.36-41.27,10.18-62.48,12.18-4.85.46-7.21,2.89-8.58,7.22-2.46,7.78-4.71,15.6-6.88,23.46-1,3.47-1.79,7-4.17,9.78,9.43-2.94,19.36-1.84,29-2.64,57.16-4.76,113-15.19,166.4-36.62C879.1,897.08,908.29,881,931.76,856c2.7-2.87,5.22-6.48,10-6.07h0c-19.88-10.55-41.32-17.17-62.33-24.9-6.69-2.46-11.45-2.05-16.17,2.8h0C863.2,832.64,859.55,834.94,856.38,837.35Z" transform="translate(-102.35 -16.24)"/><path class="cls-5" d="M931.76,856c-23.47,24.94-52.66,41-83.91,53.59-53.39,21.43-109.24,31.86-166.4,36.62-9.62.8-19.55-.3-29,2.64a11.37,11.37,0,0,1-1,1.07c9.57-.15,19.1-.7,28.67-1.4,37.65-2.77,74.82-8.29,111.27-18,35.92-9.54,70.71-21.86,102.76-41.42,17.86-10.91,32.6-25.11,47.63-39.2h0C937,849.56,934.46,853.17,931.76,856Z" transform="translate(-102.35 -16.24)"/><polygon class="cls-5" points="839.44 833.73 839.44 833.73 839.44 833.73 839.44 833.73"/><path class="cls-5" d="M836.48,848.55c-50.66,33.48-106.9,51-166.82,57.58-5,.55-7.09,2.58-8.25,7-3.13,12-6.48,24-9.74,36l.8-.27c2.38-2.79,3.21-6.31,4.17-9.78,2.17-7.86,4.42-15.68,6.88-23.46,1.37-4.33,3.73-6.76,8.58-7.22,21.21-2,41.91-6.82,62.48-12.18a344,344,0,0,0,121.8-58.9c3.17-2.41,6.82-4.71,6.9-9.48h0C855.59,836.37,845.89,842.33,836.48,848.55Z" transform="translate(-102.35 -16.24)"/><path class="cls-5" d="M651.67,949.16c-.08.27-.15.54-.22.8a11.37,11.37,0,0,0,1-1.07Z" transform="translate(-102.35 -16.24)"/><path class="cls-5" d="M313.39,850.61c25.91,30.49,60.2,47.8,96.58,62.08,40.95,16.08,83.68,24.63,127,30.58,17.54,2.4,35.3,3.16,53,4.35,3.07.2,6.25-.21,9.12,1-3.33-5-2.9-11.18-4.06-16.82a94.69,94.69,0,0,1-1.84-13c-.4-6.25-3.43-8.14-9.46-8.67-50.1-4.36-98.32-16.3-143.75-38.06a282.81,282.81,0,0,1-58.26-36.8c-2.44-2-6.42-3.46-5.13-8-3.34-1-4.5-5.85-9.63-4.1-20.56,7-41.26,13.58-60.72,23.42h0C309.71,846,311.52,848.41,313.39,850.61Z" transform="translate(-102.35 -16.24)"/><path class="cls-5" d="M310.67,850.7c9.39,12.47,21,22.53,33.77,31.32,27.94,19.3,59,32.32,91.17,42.24,53.53,16.49,108.53,24.57,164.52,25.81a15.63,15.63,0,0,1-1.06-1.44c-2.87-1.22-6.05-.81-9.12-1-17.68-1.19-35.44-2-53-4.35-43.32-5.95-86.05-14.5-127-30.58-36.38-14.28-70.67-31.59-96.58-62.08-1.87-2.2-3.68-4.63-7.17-4h0C307.72,848,309.48,849.12,310.67,850.7Z" transform="translate(-102.35 -16.24)"/><path class="cls-5" d="M381.7,835.32A282.81,282.81,0,0,0,440,872.12c45.43,21.76,93.65,33.7,143.75,38.06,6,.53,9.06,2.42,9.46,8.67a94.69,94.69,0,0,0,1.84,13c1.16,5.64.73,11.78,4.06,16.82a8.1,8.1,0,0,1,.93.47c-1.65-12-3.37-24-4.9-36.05-.54-4.21-3.12-4.89-6.69-5.13-50.32-3.37-98.57-15.13-144.23-36.64-24.49-11.53-47.73-25.25-67.61-44C375.28,831.86,379.26,833.3,381.7,835.32Z" transform="translate(-102.35 -16.24)"/><path class="cls-5" d="M600,949.1a8.1,8.1,0,0,0-.93-.47,15.63,15.63,0,0,0,1.06,1.44h0C600.09,949.74,600.05,949.42,600,949.1Z" transform="translate(-102.35 -16.24)"/><polygon class="cls-6" points="272.17 503.23 272.17 503.22 272.17 503.23 272.17 503.23 272.17 503.23"/><path class="cls-6" d="M525.34,678.9c-1.06-2.73-3.71-3.48-5.91-4.86a173.68,173.68,0,0,1-28.35-21.57c-21.33-20.46-36-45.32-48.15-72-4.52-9.94-6.19-21.89-19.58-25.59-7.74-2.13-15.14-5.77-22.36-9.4-10.27-5.15-23.11-7.92-25.9-20.79-.93,8.57,4.4,12.91,12,16.55,11.82,5.7,23.88,10.86,35.89,16.11,6.82,3,11,7.27,14,14.37,10.07,24,21.93,46.88,38.65,67.2,14.05,17.06,31.22,29.89,49.66,41.39,0-.48,0-1,.07-1.46Z" transform="translate(-102.35 -16.24)"/><path class="cls-6" d="M820.28,559c-10.38,5.67-15.29,14.54-20,24.3-14.74,30.74-36.8,55.43-63,76.8-7.9,6.43-17.84,9.67-25,17,0,.44.09.88.13,1.32,2.18-1.3,4.24-2.8,6.43-4.08a204.54,204.54,0,0,0,81.39-86.69C807,574.06,815.8,564,828.58,555.87,844,546,857.2,533.21,865,515.94h0C852.45,532.77,838.92,548.83,820.28,559Z" transform="translate(-102.35 -16.24)"/><path class="cls-7" d="M626.9,1090.07c-10.22-.09-19.36,8.44-19.48,18.19-.14,11,8.11,20,18.48,20.23a19.45,19.45,0,0,0,20-18.67C646.24,1099.64,637.13,1090.16,626.9,1090.07Z" transform="translate(-102.35 -16.24)"/><path class="cls-4" d="M432.57,420.94a428.78,428.78,0,0,0,20.74,76.43c8.45,22.71,17.82,45,35,63,3.83,4,7.81,8.66,14.06,7,6.52-1.7,6.7-8.15,8.09-13.41a37.1,37.1,0,0,0,.59-5.2c1.19-10.45,3.15-20.75,7.11-30.51,5-12.34,13.51-20.7,27-23.7,12.47-2.76,25-2.25,37.42-.87,32.92,3.67,65.68,8.67,98.85,10a75.11,75.11,0,0,1,29.55,7.06c12.07,5.79,18.91,15.29,18.91,29,0,7.27-.37,14.55-.78,21.82-.78,13.87,4.29,19.05,18.15,19.5,10.28.33,17.25-4.91,22.59-12.58a109.46,109.46,0,0,0,10.66-19C793.64,519,800,486.76,805.26,454.25c2.43-15.12,4.53-30.3,6.78-45.45h0q1.08-12.12,2.14-24.23h0c.41-4.82-2.33-5.43-6.42-5.57-16.67-.56-31.14-5.84-41-20.28-8.3-12.11-11-25.94-12.36-40.13-.34-3.49,0-7-3.53-9.11-26.44-11.12-49.79-2.05-73,12.43,10.74-30.27,41.24-42.1,74.62-30.07,0-23.86.37-47.72-1.67-71.55-1.93-22.58-8.27-42.82-27.68-56.77A117.25,117.25,0,0,0,689,146.44c-23.79-7.3-48.31-9-73-10.85-26.27-2-52.19-2.72-77.77,3.91C506.29,147.75,484.31,167.21,478,201c-5.38,29-5.85,58.37-8.86,87.55-.75,7.35-3.7,14.51-2.26,22.08,13.45-18.09,31.3-26.86,53.78-23.3s38,16.89,48,37.87C535,304,501.07,295,465.54,319.73h0c-1.06,1.69-2.56,3.24-3.13,5.09-5.81,18.93-17.09,32.29-37.07,37,1.07,19.87,4.25,39.49,7.22,59.13Zm279.5-59.07c24.92-4.78,41.9,10.37,44.78,40.71-8.05-19.92-18.55-37.22-43.81-32.84-16.41,2.84-21.16,16.46-24.4,32.35C683.46,383.4,694.72,365.19,712.07,361.87ZM650.49,478c9.43-6,11-13.37,9.2-23.33-5.86-32.6-6.94-65.64-8.52-98.63-.1-2.23.22-4.49.34-6.73,6.63,16.5,9.69,33.47,11.85,50.61,2.35,18.64,4.08,37.36,6.77,56,1.92,13.31.62,17.53-11.08,24.82-4.41,2.74-9.17,4.91-13.66,7.55s-8.75,5.48-13.57,7.69C636,487.8,643.35,482.58,650.49,478ZM519.69,364.8c25-3.05,40.89,11.55,42.78,40.07-8-19.69-18.66-35.84-43.36-32.09-12.78,1.93-19.61,11.22-24.93,32.13C490.58,383.76,501.2,367.06,519.69,364.8Z" transform="translate(-102.35 -16.24)"/><path class="cls-8" d="M710.77,679.29a210.38,210.38,0,0,1-104.24,21c-27.79-1.42-54.79-6.53-79.9-19.17,1.6,3.54,1.13,7.44.77,11.15-1.62,17-4.43,33.77-7.66,50.49-.89,4.57-2.34,9.06-5.28,12.8,25.47-6,51.5-8.65,77.32-12.52,35.34-5.3,70.57-11.34,105.88-16.82,6.17-1,12.48-3.48,18.79-.73-5.32-13.76-4.78-28.46-6.31-42.82A6.3,6.3,0,0,1,710.77,679.29Z" transform="translate(-102.35 -16.24)"/><path class="cls-8" d="M526.63,681.1c25.11,12.64,52.11,17.75,79.9,19.17a210.38,210.38,0,0,0,104.24-21,9.46,9.46,0,0,1,1.45-2.19c-3.35-.17-6.14,1.57-9,2.87-43.57,19.92-88.76,21.92-135.15,13-14.93-2.88-28.44-9.58-42.75-14.05h0A10.8,10.8,0,0,1,526.63,681.1Z" transform="translate(-102.35 -16.24)"/><path class="cls-8" d="M697.66,726.2c-35.31,5.48-70.54,11.52-105.88,16.82-25.82,3.87-51.85,6.47-77.32,12.52a20.45,20.45,0,0,1-1.65,1.87c26.29-4.06,52.52-8.51,78.87-12.08,36.11-4.9,72-11.25,107.94-17,5.66-.9,11.7-4,17.71-.73-.31-.72-.6-1.45-.88-2.18C710.14,722.72,703.83,725.25,697.66,726.2Z" transform="translate(-102.35 -16.24)"/><path class="cls-8" d="M514.46,755.54c2.94-3.74,4.39-8.23,5.28-12.8,3.23-16.72,6-33.53,7.66-50.49.36-3.71.83-7.61-.77-11.15-.29-.14-.57-.27-.85-.42l-.51-.32c-.28,5.59-.45,11.19-.94,16.76a294.5,294.5,0,0,1-11.16,59.07,10.3,10.3,0,0,1,1.19-.63Z" transform="translate(-102.35 -16.24)"/><path class="cls-8" d="M526.63,681.1a10.8,10.8,0,0,0-1.29-2.2h0c0,.49-.05,1-.07,1.46l.51.32C526.06,680.83,526.34,681,526.63,681.1Z" transform="translate(-102.35 -16.24)"/><path class="cls-8" d="M514.36,755.56a10.3,10.3,0,0,0-1.19.63c-.13.41-.23.82-.36,1.22a20.45,20.45,0,0,0,1.65-1.87Z" transform="translate(-102.35 -16.24)"/><path class="cls-8" d="M710.77,679.29a6.3,6.3,0,0,0-.63,3.36c1.53,14.36,1,29.06,6.31,42.82.23.1.46.2.69.32q-2.39-23.68-4.79-47.37c-.32.2-.64.4-1,.59Z" transform="translate(-102.35 -16.24)"/><path class="cls-8" d="M711.37,679c.34-.19.66-.39,1-.59,0-.44-.09-.88-.13-1.32a9.46,9.46,0,0,0-1.45,2.19Z" transform="translate(-102.35 -16.24)"/><path class="cls-8" d="M717.14,725.79c-.23-.12-.46-.22-.69-.32.28.73.57,1.46.88,2.18h0C717.27,727,717.21,726.41,717.14,725.79Z" transform="translate(-102.35 -16.24)"/><path class="cls-8" d="M408.18,494.44c5,.88,8.93,1.31,7.17-6.84a352.24,352.24,0,0,1-7.25-50.78c-3.83-24.88-4.05-49.95-3.89-75h0c-17.76-.62-33.13,10.67-40.23,29.06-9.46,24.5-4.74,48.53,4.54,71.29C375.43,479.06,389,491.1,408.18,494.44Z" transform="translate(-102.35 -16.24)"/><path class="cls-8" d="M840.29,426.62h0c.25,19.59-3.21,38.73-6.67,57.89-.48,2.69-1.9,6.07,1.08,8,2.42,1.61,5.11-.07,7.42-1.23,19.19-9.71,30.78-25.21,34.67-46.33A214.6,214.6,0,0,0,880,422.61c2-26.69-8.73-53.31-37.79-62.56h0q0,9.61.1,19.22h0c5.71,3.23,12,5.83,15.22,13.55-5.88-3-8.88-8.75-15.29-8.05C841.47,398.71,843.78,412.8,840.29,426.62Z" transform="translate(-102.35 -16.24)"/><path class="cls-9" d="M707.84,540.74H546.35C599.82,579.74,677.26,576.64,707.84,540.74Z" transform="translate(-102.35 -16.24)"/><path class="cls-6" d="M406.94,371.63c-.56,19.26.87,38.43,2.53,57.59a12.92,12.92,0,0,1-1.37,7.6c7.18-3.44,14.29-7,21.58-10.24,2.85-1.25,2.36-3.56,2.88-5.64h0c-1.84-1.22-2.51-3.18-2.95-5.16-3.52-15.66-4.56-31.65-6.41-47.54a8.08,8.08,0,0,1,2.14-6.43h0l-21.13,0h0C406.81,364.59,407,368.12,406.94,371.63Z" transform="translate(-102.35 -16.24)"/><path class="cls-6" d="M423.2,368.23c1.85,15.89,2.89,31.88,6.41,47.54.44,2,1.11,3.94,2.95,5.16-3-19.64-6.15-39.26-7.22-59.13A8.08,8.08,0,0,0,423.2,368.23Z" transform="translate(-102.35 -16.24)"/><path class="cls-6" d="M408.1,436.82a12.92,12.92,0,0,0,1.37-7.6c-1.66-19.16-3.09-38.33-2.53-57.59.1-3.51-.13-7-2.73-9.85C404.05,386.87,404.27,411.94,408.1,436.82Z" transform="translate(-102.35 -16.24)"/><path class="cls-10" d="M472.33,313.33C492.26,302,512.94,298.19,535,307c9.71,3.86,19.31,7.89,28.94,13.57-14.52-24.58-39.24-35.68-65.25-29.8-10,2.26-18,7.85-25,15-2,2-3.29,4.94-6.75,4.92,0,3.09-4.67,5.48-1.36,9.06C466.57,316.3,469.62,314.89,472.33,313.33Z" transform="translate(-102.35 -16.24)"/><path class="cls-10" d="M568.65,325.24c-10-21-25.55-34.33-48-37.87s-40.33,5.21-53.78,23.3c3.46,0,4.76-2.9,6.75-4.92,7-7.17,15.06-12.76,25-15,26-5.88,50.73,5.22,65.25,29.8-9.63-5.68-19.23-9.71-28.94-13.57-22.06-8.77-42.74-5-62.67,6.37-2.71,1.56-5.76,3-6.79,6.4h0C501.07,295,535,304,568.65,325.24Z" transform="translate(-102.35 -16.24)"/><path class="cls-11" d="M812,408.8h0c-.7,5.15,1.88,7.91,6.53,9.57,7.3,2.59,14.49,5.48,21.72,8.24h0c-2.14-12.15-.8-24.36-.63-36.55a6.26,6.26,0,0,1,2.6-5.3c-3.64-3.87-8.56-5.1-13.43-5.32-5.33-.24-11.88-2.54-14.65,5.11h0C818.14,393.06,815.73,401,812,408.8Z" transform="translate(-102.35 -16.24)"/><path class="cls-11" d="M812,408.8c3.69-7.81,6.1-15.74,2.14-24.23h0Q813.12,396.67,812,408.8Z" transform="translate(-102.35 -16.24)"/><path class="cls-11" d="M839.66,390.07c-.17,12.19-1.51,24.4.63,36.55,3.49-13.82,1.18-27.91,2-41.85A6.26,6.26,0,0,0,839.66,390.07Z" transform="translate(-102.35 -16.24)"/><path class="cls-12" d="M744.18,291.56c-25.53-7.32-47.45,1.4-61.87,24.88,11.3-5.25,21.91-11.36,34.13-13.73,10.43-2,20.26.2,30.12,2.88,2,.54,3.82,1.52,4.28,3.88,4.25-5.54.66-11.81,1.66-17.64h0C749.66,293.92,746.89,292.33,744.18,291.56Z" transform="translate(-102.35 -16.24)"/><path class="cls-12" d="M677.88,321.9c23.17-14.48,46.52-23.55,73-12.43-.46-2.36-2.28-3.34-4.28-3.88-9.86-2.68-19.69-4.9-30.12-2.88-12.22,2.37-22.83,8.48-34.13,13.73,14.42-23.48,36.34-32.2,61.87-24.88,2.71.77,5.48,2.36,8.32.27h0C719.12,279.8,688.62,291.63,677.88,321.9Z" transform="translate(-102.35 -16.24)"/><path class="cls-13" d="M815.88,368.8c-1-3.1,1.94-7.57-4.22-8.83-17.31-3.54-27.4-15.11-32.93-31.27-1.13-3.26-2.12-6.59-5.05-8.82h0l-8.7-4c-.27,38.38,15.95,57,50.51,58l.39-5.15Z" transform="translate(-102.35 -16.24)"/><path class="cls-11" d="M842.23,360.05h0c-5.14.24-10.05,2.58-15.28,1.7-5.88-1-9.74,1-11.07,7.05h0c1.43,1.83,1.2,3.54-.39,5.15,9.48-.93,18.25,1.75,26.84,5.32h0C838.15,372.88,837.86,366.48,842.23,360.05Z" transform="translate(-102.35 -16.24)"/><path class="cls-11" d="M842.33,379.27q-.06-9.61-.1-19.22C837.86,366.48,838.15,372.88,842.33,379.27Z" transform="translate(-102.35 -16.24)"/><path class="cls-11" d="M815.88,368.8h0l-.39,5.15C817.08,372.34,817.31,370.63,815.88,368.8Z" transform="translate(-102.35 -16.24)"/><path class="cls-14" d="M770.34,304.08h0c4.48-6.72.31-13.53-.4-20.05-1.48-13.65-.07-27.65-4.93-41v57.15l5.32,3.89Z" transform="translate(-102.35 -16.24)"/><path class="cls-15" d="M773.68,319.88c2.35-6-.5-10.9-3.34-15.8-3.65,1.25-4-2-5.33-3.9l0,15.73h0C769.19,314.37,772,316,773.68,319.88Z" transform="translate(-102.35 -16.24)"/><path class="cls-15" d="M773.68,319.88c-1.72-3.9-4.49-5.51-8.7-4h0l8.7,4Z" transform="translate(-102.35 -16.24)"/><path class="cls-15" d="M770.34,304.08h0L765,300.18C766.38,302,766.69,305.33,770.34,304.08Z" transform="translate(-102.35 -16.24)"/><path class="cls-16" d="M659.05,480.73c11.7-7.29,13-11.51,11.08-24.82-2.69-18.59-4.42-37.31-6.77-56-2.16-17.14-5.22-34.11-11.85-50.61-.12,2.24-.44,4.5-.34,6.73,1.58,33,2.66,66,8.52,98.63,1.79,10,.23,17.35-9.2,23.33-7.14,4.54-14.52,9.76-18.67,17.93,4.82-2.21,9.12-5.08,13.57-7.69S654.64,483.47,659.05,480.73Z" transform="translate(-102.35 -16.24)"/><path class="cls-17" d="M713,369.74c25.26-4.38,35.76,12.92,43.81,32.84C754,372.24,737,357.09,712.07,361.87c-17.35,3.32-28.61,21.53-23.43,40.22C691.88,386.2,696.63,372.58,713,369.74Z" transform="translate(-102.35 -16.24)"/><path class="cls-18" d="M519.11,372.78c24.7-3.75,35.4,12.4,43.36,32.09-1.89-28.52-17.8-43.12-42.78-40.07-18.49,2.26-29.11,19-25.51,40.11C499.5,384,506.33,374.71,519.11,372.78Z" transform="translate(-102.35 -16.24)"/><path class="cls-19" d="M789.35,807.5c1.09.33,2.31.67,3.67,1Z" transform="translate(-102.35 -16.24)"/><path class="cls-19" d="M770.48,802.12c.58.19,1.12.35,1.61.47Z" transform="translate(-102.35 -16.24)"/><path class="cls-4" d="M794.8,809l-1.78-.49.08,0-.08,0c-1.36-.38-2.58-.72-3.67-1l-17.26-4.91c-.49-.12-1-.28-1.61-.47h0c-2.25-.71-5.16-1.9-8.94-3.44-15.25-6.2-24.71-17.88-31.77-32.06-6.15-12.35-9.13-25.71-12.44-39-6-3.29-12.05-.17-17.71.73-36,5.7-71.83,12-107.94,17-26.35,3.57-52.58,8-78.87,12.08h0c-4.32,8.55-8.14,17.37-14.23,24.92C489.21,794,477,800.47,462.39,802.61h0a27.21,27.21,0,0,1-4.57,2.24q-40.6,11.28-81.25,22.44c19.88,18.74,43.12,32.46,67.61,44,45.66,21.51,93.91,33.27,144.23,36.64,3.57.24,6.15.92,6.69,5.13,1.53,12,3.25,24,4.9,36.05a7.74,7.74,0,0,1,.89.56c3.84,5.92,3.51,12.86,4.48,19.42,4.41,30,9.73,59.85,13.29,89.78,9.66-34.28,19.33-68.66,28.62-103.15a13.15,13.15,0,0,1,3.21-6.14l1.18-.41c3.26-12,6.61-24,9.74-36,1.16-4.45,3.25-6.48,8.25-7,59.92-6.61,116.16-24.1,166.82-57.58,9.41-6.22,19.11-12.18,26.8-20.68Q829,818.45,794.8,809Z" transform="translate(-102.35 -16.24)"/></svg>