<svg id="Capa_1" data-name="Capa 1" xmlns="http://www.w3.org/2000/svg" xmlns:xlink="http://www.w3.org/1999/xlink" viewBox="0 0 791.92 609.17"><defs><style>.cls-1{fill:none;}.cls-2{clip-path:url(#clip-path);}.cls-3{fill:#263269;}.cls-4{fill:#243774;}.cls-5{fill:#254082;}.cls-6{fill:#2a4b8d;}.cls-7{fill:#325897;}.cls-8{fill:#283d7c;}.cls-9{fill:#eb5748;}.cls-10{fill:#ce3a32;}.cls-11{fill:#ac559c;}.cls-12{fill:#93398d;}.cls-13{fill:#67549f;}.cls-14{fill:#7667ab;}.cls-15{fill:#5e4998;}.cls-16{fill:#514092;}.cls-17{fill:#bad0ed;}.cls-18{fill:#798cc6;}.cls-19{fill:#f4d4be;}.cls-20{fill:#d1a68f;}.cls-21{fill:#f29271;}.cls-22{fill:#3a73ab;}.cls-23{fill:#23659c;}.cls-24{fill:#e8c0a6;}.cls-25{fill:#e67d61;}.cls-26{fill:#1d345e;}.cls-27{fill:#c16256;}.cls-28{fill:#8c4225;}.cls-29{fill:#f6b3b4;}.cls-30{fill:#f39f9f;}.cls-31{fill:#662948;}.cls-32{fill:#faf9f4;}.cls-33{fill:#163456;}.cls-34{fill:#1c3f6f;}.cls-35{fill:#735aa3;}.cls-36{fill:#9aa5d4;}</style><clipPath id="clip-path" transform="translate(-0.08 -1.62)"><rect class="cls-1" x="0.12" y="1.68" width="791.88" height="609.11"/></clipPath></defs><title>planetas</title><g class="cls-2"><polygon class="cls-3" points="791.92 609.17 0 609.17 0 0 791.92 0 791.92 609.17 791.92 609.17"/><path class="cls-4" d="M.08,142.81s338.16-248.53,791.92,0V264.06H.08V142.81Z" transform="translate(-0.08 -1.62)"/><path class="cls-5" d="M.08,263.28s338.16-248.52,791.92,0V384.54H.08V263.28Z" transform="translate(-0.08 -1.62)"/><path class="cls-6" d="M.08,378.73s338.16-248.52,791.92,0V500H.08V378.73Z" transform="translate(-0.08 -1.62)"/><path class="cls-7" d="M.08,487.67s338.16-248.53,791.92,0V608.92H.08V487.67Z" transform="translate(-0.08 -1.62)"/><polygon class="cls-3" points="791.92 445.05 791.92 609.17 0 609.17 0 445.05 791.92 445.05 791.92 445.05"/><polygon class="cls-8" points="791.92 455.72 791.92 609.17 0 609.17 0 455.72 791.92 455.72 791.92 455.72"/></g><path class="cls-9" d="M559.64,242.54a46.46,46.46,0,1,1,3.49-61.39,46.48,46.48,0,0,1-3.49,61.39Z" transform="translate(-0.08 -1.62)"/><path class="cls-10" d="M563.13,181.15c-3,.86-7.9,1.64-15.33,1.47-15.55-.36-18,.58-33,5.56-12.17,4-13-6.51-24.74-7a46.67,46.67,0,0,1,10.87-10,10.56,10.56,0,0,1,4.55,1.18c8.7,5,20.21-2.46,32-1.08,8.27,1,13,3.73,20.47,4.39a46.21,46.21,0,0,1,5.12,5.53Z" transform="translate(-0.08 -1.62)"/><path class="cls-10" d="M570,193.2c-3,.05-6,.51-8.19,2-7.46,5.14-25.3,3.93-32.37,0S508.09,207.3,494.18,201a16.73,16.73,0,0,0-13.06-.56,45.64,45.64,0,0,1,2.35-7.8,13,13,0,0,1,12.7.27c11.82,6.53,18.33-2,27.83-1.64s11.67,7.1,22.87,4.21c8.4-2.16,13.9-7,21.15-6.67a45.16,45.16,0,0,1,2,4.43Z" transform="translate(-0.08 -1.62)"/><path class="cls-10" d="M567.84,231.31a46.59,46.59,0,0,1-6.1,9h0a13,13,0,0,1-8.16-1.69c-11.83-6.53-18.34,2-27.83,1.64s-11.68-7.1-22.88-4.21c-4.31,1.11-7.86,2.93-11.28,4.38a45.29,45.29,0,0,1-3.35-4.32c7.64-4.92,25.1-3.69,32.07.2s21.34-12.12,35.25-5.77a16.64,16.64,0,0,0,12.28.81Z" transform="translate(-0.08 -1.62)"/><path class="cls-10" d="M573,207a39.77,39.77,0,0,0-16.7,0c-16.1,3-16.86,6.53-31.41,4.19S502,216.9,493,218.44c-4.28.73-8.85-.82-12.47-2.65-.11-.86-.2-1.71-.26-2.58a25.7,25.7,0,0,0,13.36-1.86c11.09-4.67,17.39-7.47,27.19-6.3s23.56.47,31.26-3.27c4.39-2.13,13.36-1.37,20.24-.32A45.15,45.15,0,0,1,573,207Z" transform="translate(-0.08 -1.62)"/><path class="cls-10" d="M572.48,217.3c-.26,1.6-.6,3.18-1,4.72a27.86,27.86,0,0,1-3.52.5c-10.5.73-20-1.84-33.58,3.29s-26.85,5.15-37.81,1.76a23.74,23.74,0,0,0-13.08-.4c-.46-1.14-.87-2.3-1.24-3.49a9.41,9.41,0,0,1,3.78-1.16c6.8-.67,11.94,4.4,25.7,0s18.2-9,34.76-8.7c12.81.25,18.42,3.47,26,3.48Z" transform="translate(-0.08 -1.62)"/><path class="cls-10" d="M559.64,242.54a46.49,46.49,0,0,1-14.65,10c-3.25-1.62-10.06-4.2-20.12-3.88-11.65.38-17.44-3-24.37-.37a46.55,46.55,0,0,1-4.25-3.27,16.21,16.21,0,0,1,11.27-2.33c9.8,1.78,21.46,4.06,37.56,0a31,31,0,0,1,14.56-.16Z" transform="translate(-0.08 -1.62)"/><path class="cls-11" d="M214.25,113.47a41.59,41.59,0,1,1-26.57-38.79,41.55,41.55,0,0,1,26.57,38.79Z" transform="translate(-0.08 -1.62)"/><path class="cls-12" d="M207.46,90.69a156.16,156.16,0,0,1-25.7-4c-2.63-.64-5.1-1.33-7.39-2a103,103,0,0,1-12.77-4.86c-1.54-.71-3-1.42-4.3-2.13-.49-.25-1-.51-1.43-.76l-1.48-.85c.86-.42,1.74-.81,2.63-1.17,1.16.65,2.42,1.31,3.78,2l1.54.74.39.18A108.79,108.79,0,0,0,182,84.41c2.36.58,4.85,1.13,7.5,1.63a158.35,158.35,0,0,0,16.23,2.19c.62.8,1.2,1.62,1.76,2.46Z" transform="translate(-0.08 -1.62)"/><path class="cls-12" d="M211.88,99.63a167.54,167.54,0,0,1-21.1,1.34,152.26,152.26,0,0,1-36.09-4.22,126.39,126.39,0,0,1-17.2-5.48c.42-.67.86-1.33,1.33-2a125.45,125.45,0,0,0,16.52,5.24A155.57,155.57,0,0,0,211,97.41c.3.72.59,1.47.85,2.22Z" transform="translate(-0.08 -1.62)"/><path class="cls-12" d="M213.71,120.17c-.13.78-.27,1.55-.45,2.32h-2.41c-2.67,0-5.55-.06-8.62-.2l-2.94-.16c-13.73-.87-30.49-3.51-46.26-10.24-1-.43-2.05-.89-3.06-1.36a90.63,90.63,0,0,1-16.82-10.06c.25-.77.52-1.54.82-2.29a93.12,93.12,0,0,0,26.17,14c1.17.42,2.35.82,3.52,1.19,16,5.12,32.13,6.59,44.32,6.78l3.08,0,2.65,0Z" transform="translate(-0.08 -1.62)"/><path class="cls-12" d="M210.52,130.69c-.37.82-.77,1.62-1.19,2.4-4,.27-7.89.39-11.61.39h-1.87q-1.4,0-2.76-.06a140.68,140.68,0,0,1-40.75-6.83c-1.05-.34-2.07-.7-3.05-1.06s-2.17-.8-3.18-1.21A100.18,100.18,0,0,1,131.22,117c-.08-.93-.13-1.88-.14-2.83a95.92,95.92,0,0,0,16,8.09,115,115,0,0,0,11.79,3.94c1,.28,2.05.56,3.11.82a149,149,0,0,0,39.16,4.15c.94,0,1.9,0,2.87-.08,2.11-.07,4.28-.19,6.49-.36Z" transform="translate(-0.08 -1.62)"/><path class="cls-12" d="M203,141.93c-.67.71-1.36,1.4-2.08,2.07-.53.49-1.08,1-1.63,1.43-1,.27-1.93.51-2.89.75a136,136,0,0,1-32.32,3.72c-4.3,0-8.41-.17-12.3-.47a40.39,40.39,0,0,1-4-2.68,148.25,148.25,0,0,0,40.2-1.16q4.17-.72,8.37-1.77,3.35-.82,6.69-1.89Z" transform="translate(-0.08 -1.62)"/><path class="cls-12" d="M200.9,144c-.53.49-1.08,1-1.63,1.43-.34.29-.68.56-1,.83l-1.86-.08c-2.84-.13-5.65-.33-8.46-.59A181.26,181.26,0,0,1,158,140.35l0,0c-.72-.19-1.44-.38-2.14-.58a163.46,163.46,0,0,1-20-7c-.56-1.06-1.07-2.14-1.53-3.25a164.89,164.89,0,0,0,28.46,9.57c.73.18,1.47.35,2.2.51a183,183,0,0,0,31.34,4.21c1.55.08,3.09.14,4.61.18Z" transform="translate(-0.08 -1.62)"/><path class="cls-12" d="M214.18,111.17A181.44,181.44,0,0,1,181,114.29a165.81,165.81,0,0,1-17.34-.9c-3.86-.4-7.42-.92-10.63-1.49l-1.51-.27a133.18,133.18,0,0,1-19.84-5.27c0-.26.09-.51.14-.77a130.59,130.59,0,0,0,18.15,5l1.73.34c2.58.48,5.4.93,8.44,1.32a173.67,173.67,0,0,0,54-1.8c0,.25,0,.51.05.77Z" transform="translate(-0.08 -1.62)"/><path class="cls-12" d="M202,84q-6.25,1.31-12.53,2-3.85.46-7.71.7Q177.38,87,173,87a134.22,134.22,0,0,1-29.47-3.25c.67-.66,1.37-1.3,2.09-1.91a132.79,132.79,0,0,0,28.73,2.84c2.53,0,5.07-.12,7.6-.29a139.6,139.6,0,0,0,17.95-2.35c.71.62,1.41,1.27,2.08,1.94Z" transform="translate(-0.08 -1.62)"/><path class="cls-12" d="M211.78,127.61c-.11.32-.23.64-.36,1q-3.75,1.33-7.39,2.49c-2.78.88-5.51,1.68-8.18,2.42a216.14,216.14,0,0,1-30.9,6.14c-2.42.3-4.73.54-6.91.74s-4.21.33-6.12.44c-3.73.21-7.15.29-10.22.29h-.14c-.23-.25-.45-.51-.67-.77,3.27,0,7-.06,11-.29q1.9-.11,4-.27c2.17-.16,4.46-.38,6.89-.65a214.43,214.43,0,0,0,30.34-5.69q3.94-1,8.07-2.28c3.46-1,7-2.22,10.62-3.52Z" transform="translate(-0.08 -1.62)"/><path class="cls-12" d="M213.92,118.63c0,.28-.06.56-.11.83l-2.75.73c-3,.78-6,1.48-8.83,2.11A185.8,185.8,0,0,1,162.55,127H162c-3.51,0-6.73-.16-9.66-.4-2.06-.16-4-.37-5.77-.61a86.94,86.94,0,0,1-14.44-3.14c-.07-.29-.13-.58-.19-.87a84.08,84.08,0,0,0,14.81,3.26c.82.1,1.66.21,2.54.3,2.87.32,6.07.55,9.6.64a176.57,176.57,0,0,0,40.4-4c2.81-.59,5.71-1.24,8.69-2,2-.48,3.92-1,5.94-1.54Z" transform="translate(-0.08 -1.62)"/><path class="cls-12" d="M213.66,106.49a194.94,194.94,0,0,1-19.86,1A146.25,146.25,0,0,1,157,103.17a89.84,89.84,0,0,1-21.5-8.32c.11-.23.22-.46.35-.68a90,90,0,0,0,21.39,8.27c12.12,3.14,31,5.9,56.31,3.28,0,.26.1.51.14.77Z" transform="translate(-0.08 -1.62)"/><path class="cls-12" d="M189.05,75.24a203.32,203.32,0,0,1-26.71,2.4c-1.76,0-3.44.07-5,.07h-1c-1.71,0-3.31,0-4.78,0q.64-.39,1.32-.75c1,0,2,0,3.06,0,1.55,0,3.2,0,4.93,0a206.2,206.2,0,0,0,26.88-2.22l1.37.56Z" transform="translate(-0.08 -1.62)"/><path class="cls-13" d="M684.82,90.59a51.27,51.27,0,1,1-51.24-51.24,51.1,51.1,0,0,1,51.24,51.24Z" transform="translate(-0.08 -1.62)"/><path class="cls-14" d="M641,141.29a51.25,51.25,0,0,1-53.49-73.2c1,9.84,4.67,20.69,14.31,28.44,18.67,15,34.31,24,39.18,44.76Z" transform="translate(-0.08 -1.62)"/><path class="cls-15" d="M684.82,90.59a51.1,51.1,0,0,1-11.15,31.92c-14.63-8.59-33.68-24.18-39.28-49-3.69-16.4-9.37-26.25-14.91-32.17a51.27,51.27,0,0,1,65.34,49.27Z" transform="translate(-0.08 -1.62)"/><path class="cls-16" d="M715.19,85.57a324.83,324.83,0,0,0-32.29-8.9A48.43,48.43,0,0,1,684,81.61c10.94,2.54,21,5.33,29.69,8.29,22.14,7.5,29.48,14,29,17.3s-9.24,7.62-32.58,9a321.75,321.75,0,0,1-32.22,0c-14.62-.64-30.58-2.1-47-4.31-16.61-2.24-32.57-5.12-47-8.43-11.28-2.59-21.6-5.45-30.54-8.48-22.14-7.5-29.48-14-29-17.3s9.24-7.62,32.58-9c4.92-.29,10.19-.43,15.75-.43,4.66,0,9.52.1,14.55.3a50.31,50.31,0,0,1,2.4-4.47,325,325,0,0,0-33,0c-23.47,1.37-35.87,5.72-36.84,12.94S529.7,91.8,552,99.35a331.18,331.18,0,0,0,33.6,9.2c13.85,3.09,29,5.78,44.77,7.91,15.55,2.09,30.7,3.52,44.72,4.21,6.75.35,13.23.52,19.37.52,5.65,0,11-.15,16-.44,23.47-1.37,35.87-5.73,36.84-12.94s-9.82-14.69-32.09-22.24Z" transform="translate(-0.08 -1.62)"/><path class="cls-17" d="M435.27,113.47c0,36.5-40.22,59-71.25,40-26.63-16.09-30.29-54.14-6.79-74.95a46.6,46.6,0,0,1,9.17-6.41c31.06-16.53,68.85,6,68.87,41.36Z" transform="translate(-0.08 -1.62)"/><path class="cls-18" d="M435.6,113.61A46.64,46.64,0,0,1,421,147.15c-4.2.44-12.48-5.17-11.58-7.64,1.92-5.29-.2-6.43-6.84-9.43s-6.65-7,6.1-6.8,15.75-17,7.5-15.23-14.44-.61-16.67-4.38c-.82-1.39-2.64-2-4.54-2.35-3.25-.66-6.72-.73-5.77-3.27,1.57-4.09,9.22-3.51,13.07-6.42C407,88,400,86.19,400.68,80.35c.36-2.6,2.23-5.69,4.54-10.57,18.44,7,30.71,23.72,30.38,43.83Z" transform="translate(-0.08 -1.62)"/><path class="cls-18" d="M388.42,113.14c-.91,2.16-4.08,3.81-4.76,5.8-.52,1.09.46,2.66,1.63,3.5,5.56,5-7.32,8-13,8.87-9.4,1.42-5.32,6.74-1.95,5.85s3.73,3.72,1.77,8c-.87,1.91-.37,4.79.46,7.37.41,1.61,2.66,6,2.46,5.91-4.88-1.22-14.9-5.93-20.1-12.22-4.27-5.17,3.8-12.08.9-20.21-1.21-4.44-8.36,2.48-8.77,0s5.73-7.63,1.47-8.27,2.26-8.48,6.56-11.45,4.43,1.1,8.13.74c3.2-.06,6.26-4.79,9.07-4.93,2.23.26,2.31,6.89,7.34,5.71,4.12-1.2,10.44,1.82,8.82,5.35Z" transform="translate(-0.08 -1.62)"/><path class="cls-18" d="M388.65,75.6c-4.17,0-.78-2.45-5.75-3.16s-5.67,3-8.69,3-1.53-2.94-1.5-3c2.27-2.87,6.88-4.68,12.62-5.82a46.43,46.43,0,0,0-42.84,36.84c.29-1.43,5-5.27,5.83-.92.62,4.06,2.74,3.71,6,2.43,2.63-1,1.22-2.69-2.64-3.21s-1.8-5.82,2.64-5.87,13.77-2.22,8.84-3.88-3.51-3.14,4.11-4c6.8-.77.26-4.34.43-7.76s2.33-.75,6.66-1.18c4.61-.45,8.51-6.63,9.93-2.12a5.23,5.23,0,0,0,9.49,1.16c2.21-3.72-1-2.48-5.16-2.51Z" transform="translate(-0.08 -1.62)"/><path class="cls-19" d="M298.44,200a29.79,29.79,0,1,1-29.79-29.79A29.79,29.79,0,0,1,298.44,200Z" transform="translate(-0.08 -1.62)"/><path class="cls-20" d="M254.92,183a3,3,0,1,1-4.09-.9,2.95,2.95,0,0,1,4.09.9Z" transform="translate(-0.08 -1.62)"/><path class="cls-20" d="M260.48,187.4a1.76,1.76,0,1,1-3,1.89,1.76,1.76,0,0,1,3-1.89Z" transform="translate(-0.08 -1.62)"/><path class="cls-20" d="M265.86,177.59a4.59,4.59,0,1,1-6.34-1.39,4.6,4.6,0,0,1,6.34,1.39Z" transform="translate(-0.08 -1.62)"/><path class="cls-20" d="M283.06,216a3,3,0,1,1,4.16.46,3,3,0,0,1-4.16-.46Z" transform="translate(-0.08 -1.62)"/><path class="cls-20" d="M277.07,212.18a1.76,1.76,0,1,1,2.47.27,1.75,1.75,0,0,1-2.47-.27Z" transform="translate(-0.08 -1.62)"/><path class="cls-20" d="M272.75,222.5a4.6,4.6,0,1,1,6.46.72,4.6,4.6,0,0,1-6.46-.72Z" transform="translate(-0.08 -1.62)"/><path class="cls-21" d="M643.6,366.48c6.18,3.59,5.13,18.08,2.71,25.92C642.75,403.87,633.8,420,624,425.78c-3.21,1.89-9.3-.72-6.8-3.36,10.56-13,16.16-33.35,13.16-52-1.66-10.27,4.59-9.68,13.27-4Z" transform="translate(-0.08 -1.62)"/><path class="cls-21" d="M609.12,427c.9,1.25,3.36-1,4.76-.93a20.76,20.76,0,0,1-2.37,4.19,86.57,86.57,0,0,1-6.82,5.56c-1.61,4.08,7.06-2.72,8.14-3.25l0,0a66.43,66.43,0,0,1-5.87,7.1c-.87,4.61,7.15-5,8-5.81h0a38.23,38.23,0,0,1-4.77,7.37c-.29,4.61,6.83-5.59,7.46-6.72h0a39.52,39.52,0,0,1-2.82,6.39c.31,4.37,5.26-5.38,5.7-6.46.62-.57,2.44-4.47,3.56-9.59.37-1.68-2.61-5.05-4.22-4.55-2,1.21-11.46,5-10.83,6.66Z" transform="translate(-0.08 -1.62)"/><path class="cls-12" d="M627.63,377.83a26.79,26.79,0,0,0,1.54,4.87l14.66-12-3.72-19.53-1.7,0c-8.83,3-13.64,16.53-10.78,26.61Z" transform="translate(-0.08 -1.62)"/><path class="cls-21" d="M635.09,405.16c4.25-5,20.55-6.8,28.84-.81,0,0,11.39,7.55-.51,22.87-28.29,36.4-13.32,76.28-6.23,102.21,1.55,5.68-8.9.32-8.9.32-28-49.12-34.38-69.35-13.2-124.59Z" transform="translate(-0.08 -1.62)"/><path class="cls-21" d="M679.75,420.93c-4.06,23.13,4.33,63.64,29.38,82.12,0,6.15-5.07,7.33-5.07,7.33S626.13,475.84,662,396.51c0,0,18.51,20.14,17.75,24.42Z" transform="translate(-0.08 -1.62)"/><path class="cls-22" d="M714.69,505.83a6.66,6.66,0,0,1,1.61,2.08l-15,21.64a1.87,1.87,0,0,1-3,.05l0,0c-1.71-2.38-3.1-7.62,3.28-17.91a29.69,29.69,0,0,0,6.42-9.41,20.37,20.37,0,0,1,6.75,3.58Z" transform="translate(-0.08 -1.62)"/><path class="cls-23" d="M698.24,529.57l16.45-23.74a6.66,6.66,0,0,1,1.61,2.08l-15,21.64a1.87,1.87,0,0,1-3,.05l0,0Z" transform="translate(-0.08 -1.62)"/><path class="cls-24" d="M696.68,523.45c1,.17,1.51-1.19,4.69-.53a.53.53,0,0,0,.63-.4c-.56-2-7.33,0-5.32.93Z" transform="translate(-0.08 -1.62)"/><path class="cls-24" d="M697.6,519.62c.81.21,2.34-1.38,5.67-.4a.53.53,0,0,0,.32-1,8.36,8.36,0,0,0-6,.47.54.54,0,0,0,0,1Z" transform="translate(-0.08 -1.62)"/><path class="cls-24" d="M699.54,515.2c.71.21,2.5-1.1,6-.18a.53.53,0,0,0,.28-1c-3.5-.83-7.59-.07-6.24,1.21Z" transform="translate(-0.08 -1.62)"/><path class="cls-10" d="M619.76,473.18c13.49,4.6,29.75,6.37,41,5.44l7.35-5.6c1.52-12.73,5.18-43.32,6.66-55.69l-43.57-.65c-9.91,25.64-11.44,56.5-11.44,56.5Z" transform="translate(-0.08 -1.62)"/><path class="cls-9" d="M649.76,481.69c20,2.66,41.75-10.71,41.75-10.71s-5.73-15.6-5.23-25.55c.56-11.42.45-22.92.45-22.92l-42.17-2.78c-8,31.16,5.2,62,5.2,62Z" transform="translate(-0.08 -1.62)"/><path class="cls-10" d="M684.75,474.31a.79.79,0,0,1-.61-.29c-.36-.44-8.85-10.85-9.75-23.21-.68-9.48-.35-25.1-.35-25.21a.8.8,0,1,1,1.6,0c0,.1-.33,15.65.34,25,.86,11.87,9.3,22.21,9.39,22.31a.81.81,0,0,1-.11,1.13.81.81,0,0,1-.51.18Z" transform="translate(-0.08 -1.62)"/><path class="cls-22" d="M659.81,535.5A6.6,6.6,0,0,1,659,538l-26.31.2a1.86,1.86,0,0,1-1.8-2.45s0,0,0,0c1-2.77,4.44-6.93,16.52-7.64,0,0,2.56.86,9.33-.43,0,0,3.43,4.27,3,7.84Z" transform="translate(-0.08 -1.62)"/><path class="cls-24" d="M638.66,534.78a.54.54,0,0,0,.5-.74c-1.2-3.34-5.18-4.83-3.79-2.71a5.69,5.69,0,0,1,2.8,3.12.55.55,0,0,0,.49.33Z" transform="translate(-0.08 -1.62)"/><path class="cls-24" d="M642.8,534.25a.54.54,0,0,0,.51-.7c-1-3.56-5.47-6.16-4.32-3.69a7.48,7.48,0,0,1,3.31,4,.53.53,0,0,0,.5.38Z" transform="translate(-0.08 -1.62)"/><path class="cls-24" d="M647.51,533.63c2.47-.59-5.2-8.53-3.85-4.76a9.59,9.59,0,0,1,3.35,4.41.55.55,0,0,0,.5.35Z" transform="translate(-0.08 -1.62)"/><path class="cls-23" d="M630.94,535.73l28.87-.23A6.6,6.6,0,0,1,659,538l-26.31.2a1.86,1.86,0,0,1-1.8-2.45v0Z" transform="translate(-0.08 -1.62)"/><path class="cls-11" d="M629.5,420.93s25.73,9.58,57.23,1.58c3-21.84-4.44-45.71-8.61-56-3.7-9.18-17.61-17.11-17.61-17.11C637,342,628.46,362.6,629,387.9c.6,28.09-2.19,32.08.5,33Z" transform="translate(-0.08 -1.62)"/><path class="cls-12" d="M638.4,351.22a10,10,0,0,0,.82,1.41,6.94,6.94,0,0,0,2.29,2.11,7.15,7.15,0,0,0,3.71.88,11.07,11.07,0,0,0,10.51-7.5c-1-.15-2.77-.41-3.77-.47-4.09-.28-10.9,2.6-10.9,2.6a10,10,0,0,0-2.66,1Z" transform="translate(-0.08 -1.62)"/><path class="cls-21" d="M640.56,346.7l.5,3.55a3.62,3.62,0,0,0,4.23,2.88,7.26,7.26,0,0,0,6.76-5.23,18.44,18.44,0,0,1-.85-3.66l-10.64,2.46Z" transform="translate(-0.08 -1.62)"/><path class="cls-21" d="M679.75,375.1c7.49,9.66,7.76,18.63,2.41,30.45-5.49,10.68-16.7,20.76-27.91,22.83-3.66.68-8.5-3.85-5.24-5.48.36-.23,9.2-6.22,9.55-6.52,12.6-10.65,11.4-25.46,6.29-36.52-4.37-9.44,8.69-13.09,14.9-4.76Z" transform="translate(-0.08 -1.62)"/><path class="cls-25" d="M651,339.93c0,.08-.24,1.73.69,6.6-4.38,2.65-9.91,1.67-10.88,1.59-.83-5.19-.34-4.85-.65-6.3,0-.58,10.86-3.45,10.84-1.89Z" transform="translate(-0.08 -1.62)"/><path class="cls-12" d="M663,396.51c12.68,6.2,25.07-1.62,25.07-1.62-4.08-47.26-32.34-46.77-32.34-46.77-2.23,13.77,0,33.67,7.27,48.39Z" transform="translate(-0.08 -1.62)"/><path class="cls-21" d="M639.88,424.44c.42,1.49,3.5.2,4.79.76a21.33,21.33,0,0,1-3.66,3.13c-2.72,1.11-5.49,2.06-8.31,2.9-2.9,3.28,7.57-.15,8.77-.29a.05.05,0,0,0,0,0,66.77,66.77,0,0,1-8,4.68c-2.38,4,8.43-2.25,9.5-2.74v0a38.48,38.48,0,0,1-7,5.3c-1.85,4.23,8.33-2.93,9.31-3.78l0,0a39,39,0,0,1-4.83,5c-1.2,4.22,6.78-3.26,7.56-4.12.77-.32,3.82-3.36,6.63-7.79.91-1.46-.74-5.64-2.42-5.73-2.31.45-12.48.79-12.45,2.56Z" transform="translate(-0.08 -1.62)"/><path class="cls-26" d="M633.2,313s-.63-11.12,9.35-13.5l5.49,5.25L633.2,313Z" transform="translate(-0.08 -1.62)"/><path class="cls-21" d="M662.16,327.61c-1.71,6-4.58,12.58-9.86,16h0A15.33,15.33,0,0,1,645.1,346c-14.68,2.27-29.36-16.22-16.83-26.92,4.59-3.37,5.93-9.48,9.78-13.07,5.48-6.22,15.69-4.65,20.57,1.54,4.41,5.6,5.3,12.7,3.54,20.09Z" transform="translate(-0.08 -1.62)"/><path class="cls-27" d="M639.39,321.09a.93.93,0,1,1,1.74-.64.93.93,0,0,1-1.74.64Z" transform="translate(-0.08 -1.62)"/><path class="cls-27" d="M631.8,318.86a.93.93,0,1,1,1.19.55.93.93,0,0,1-1.19-.55Z" transform="translate(-0.08 -1.62)"/><path class="cls-25" d="M662.16,327.61c-.13.49-.26,1-.42,1.47s-.29.9-.45,1.36l-.06.17-.52,1.37c-.12.3-.24.6-.37.89s-.28.65-.43,1A32.53,32.53,0,0,1,658.3,337c-.38.66-.78,1.29-1.19,1.88a17.35,17.35,0,0,1-4.81,4.75h0a10.77,10.77,0,0,1-1.36.77c4.09-3.19,7.14-10.72,7.14-10.72L658,327a12.58,12.58,0,0,1-1.85-13.11c-10.2,1.59-12.8-4.9-12.8-4.9a13.33,13.33,0,0,1-6.27-1.94c.32-.37.65-.73,1-1.06a15.11,15.11,0,0,1,2.49-2.06,11.61,11.61,0,0,1,2.43-1.24,11.3,11.3,0,0,1,1.72-.5l.17,0a12.67,12.67,0,0,1,4.26,0,17.59,17.59,0,0,1,3.15.84,14.63,14.63,0,0,1,6.35,4.54l.2.25a18.56,18.56,0,0,1,2.86,5.22,25.28,25.28,0,0,1,.48,14.62Z" transform="translate(-0.08 -1.62)"/><path class="cls-26" d="M661,311.39s-7.58,2.41-2,14.3l4.07,4.28s6.72-15.49-2.1-18.58Z" transform="translate(-0.08 -1.62)"/><path class="cls-27" d="M632.78,327A2.69,2.69,0,0,1,631,325.6c-.07-.25-.14-.89.87-1.29,1.85-.74,3.56-4.19,3.58-4.23a.36.36,0,0,1,.47-.16.35.35,0,0,1,.16.47c-.08.15-1.85,3.74-4,4.57-.24.1-.51.25-.45.45.16.55,1.74,1.34,3,1.1a.35.35,0,0,1,.41.28.36.36,0,0,1-.28.41,4.09,4.09,0,0,1-2-.21Z" transform="translate(-0.08 -1.62)"/><path class="cls-21" d="M665.66,331.14c-1,2.85-3.6,4.53-5.89,3.75s-3.37-3.71-2.4-6.56,3.6-4.53,5.89-3.75,3.37,3.72,2.4,6.56Z" transform="translate(-0.08 -1.62)"/><path class="cls-27" d="M663.22,332.3h0a.36.36,0,0,1-.17-.47c.87-2,1-3.39.42-4.09s-2.19-.58-2.72-.44a.35.35,0,0,1-.42-.25.34.34,0,0,1,.25-.43c.09,0,2.35-.6,3.42.66.8.93.69,2.56-.31,4.84a.37.37,0,0,1-.44.19Z" transform="translate(-0.08 -1.62)"/><path class="cls-27" d="M660,331.42l0,0a.34.34,0,0,1-.13-.47c.06-.12,1.63-2.8,4.31-2.66a.36.36,0,0,1,.34.37.36.36,0,0,1-.37.34c-2.25-.12-3.66,2.27-3.68,2.29a.34.34,0,0,1-.42.16Z" transform="translate(-0.08 -1.62)"/><path class="cls-26" d="M660.63,301.63h0a9.57,9.57,0,0,0-2.68-2.87c-6.5-4.66-6.92-8-6.92-8a17.29,17.29,0,0,0-2.76,7.84,32.05,32.05,0,0,1-3.5-6.33,9.67,9.67,0,0,0-3.34,5.09,17,17,0,0,0-9.76-.22c1.71,7.62,7.48,10,12.25,10.69,4.23,5.69,12,5.84,16.59,3.78l5,8.4c10.2-13.64-4.91-18.4-4.91-18.4Z" transform="translate(-0.08 -1.62)"/><path class="cls-27" d="M633.6,331.1a3.45,3.45,0,0,0,.88,0,.37.37,0,0,0,.35-.4.4.4,0,0,0-.41-.36,4.25,4.25,0,0,1-2.49-.78.38.38,0,0,0-.43.63,5.23,5.23,0,0,0,2.1.86Z" transform="translate(-0.08 -1.62)"/><path class="cls-27" d="M643.44,319.32a.38.38,0,0,0,.41-.21.39.39,0,0,0-.18-.51,5.93,5.93,0,0,1-3-3.74.38.38,0,0,0-.75.14,6.59,6.59,0,0,0,3.43,4.29.19.19,0,0,0,.1,0Z" transform="translate(-0.08 -1.62)"/><path class="cls-27" d="M632.47,316.45h0a6.5,6.5,0,0,0,4.54-1.22.37.37,0,0,0,0-.53.38.38,0,0,0-.53-.05h0a5.8,5.8,0,0,1-4,1,.39.39,0,0,0-.42.35.38.38,0,0,0,.32.41Z" transform="translate(-0.08 -1.62)"/><path class="cls-21" d="M564.57,527.63c2.36,6.09,9.7,6.28,9.32-.8s-1.8-13.24-2.34-20.29c-1.91-20.52-19.55-11.39-7,21.09Z" transform="translate(-0.08 -1.62)"/><path class="cls-9" d="M564.57,527.63c-10.32,2.13-12.79,6.14-13.27,8.65v0a1.63,1.63,0,0,0,1.86,1.88l22.63-3.47a5.61,5.61,0,0,0,.35-2.26A14,14,0,0,0,574,526.2a12.84,12.84,0,0,1-9.38,1.43Z" transform="translate(-0.08 -1.62)"/><path class="cls-10" d="M551.3,536.28l24.83-3.81a5.61,5.61,0,0,1-.35,2.26l-22.63,3.47a1.63,1.63,0,0,1-1.86-1.88v0Z" transform="translate(-0.08 -1.62)"/><path class="cls-24" d="M557.84,534.49a.55.55,0,0,0,.17,0,.47.47,0,0,0,.16-.64,5.83,5.83,0,0,0-3.39-2.76.47.47,0,0,0-.56.35.45.45,0,0,0,.35.55,5,5,0,0,1,2.8,2.33.46.46,0,0,0,.47.22Z" transform="translate(-0.08 -1.62)"/><path class="cls-24" d="M561.34,533.52l.13,0a.46.46,0,0,0,.21-.62,7.35,7.35,0,0,0-3.88-3.52.46.46,0,1,0-.3.88,6.49,6.49,0,0,1,3.35,3,.46.46,0,0,0,.49.26Z" transform="translate(-0.08 -1.62)"/><path class="cls-24" d="M565.31,532.4l.15,0a.46.46,0,0,0,.19-.63,9.11,9.11,0,0,0-3.87-3.78.46.46,0,0,0-.61.22.46.46,0,0,0,.22.62,8.31,8.31,0,0,1,3.44,3.38.47.47,0,0,0,.48.24Z" transform="translate(-0.08 -1.62)"/><path class="cls-28" d="M543,304.17c21-3.71,30.78,10.86,29.11,29.76a75.16,75.16,0,0,1-7,24.53s-32.56,7-52.48-14.19l8.8-13.95c-.6-6.86,5-34.14,21.59-26.15Z" transform="translate(-0.08 -1.62)"/><path class="cls-21" d="M520.85,367.41c-5.9,11-4.23,17.44-13,28.64-6.49,8.29-11,10.06-17.63,13.23-2.86,1.67-.46,6.15,2.79,6.06,12.34,0,22.58-5.19,29.33-16.41,6.29-9.11,11.37-17,15.54-27.23,3.93-8.76-12.67-12.81-17-4.29Z" transform="translate(-0.08 -1.62)"/><path class="cls-29" d="M529.71,359.49l-4.63,23.38L524,388.52c-4.14-4.06-12-5.42-12-5.42.59-1.54,1.2-3,1.78-4.35,7.08-16.64,15.94-19.26,15.94-19.26Z" transform="translate(-0.08 -1.62)"/><path class="cls-30" d="M523,382.87l-1.12,5.65A23.69,23.69,0,0,0,512,383.1q.88-2.31,1.78-4.35a28.27,28.27,0,0,1,9.27,4.12Z" transform="translate(-0.08 -1.62)"/><path class="cls-21" d="M509.69,446.24c1.82,27.52,5.25,55,9,82.29.88,6.47,8.62,7.71,9.34.64s.44-13.59,1-20.65c1.29-20.55,3.12-41.15,5.41-61.63,1.57-17.76-25.4-18.51-24.77-.65Z" transform="translate(-0.08 -1.62)"/><path class="cls-29" d="M565.42,407.89c2.48-45.66-9.2-48.55-9.2-48.55h0a49,49,0,0,0-9.42-2.49v0l-.06,0c-8.47-1.3-14.7.38-17,2.65-8.24,8-10.66,25-13.25,40.69-.67,4.33-4.59,9.28-2.36,13.77,3.42,6.87,41.6,7.89,51,2.56,2.5-1.4.06-5.74.27-8.61Z" transform="translate(-0.08 -1.62)"/><path class="cls-21" d="M564,364.47c10.86,16.88,16.7,36.3,25.25,54.31.92,1.94,2.86,7.59.69,8.32-5.34.63-13.83-12.34-17.74-19.1-6.92-12-10.23-18.24-16.6-30.55-3.74-7.5,4.16-20.15,8.4-13Z" transform="translate(-0.08 -1.62)"/><path class="cls-29" d="M574.2,381.31s-10.07,1.7-13.44,9.15c0,0-1.27-1.63-2.94-4.13h0c-3.28-4.91-8.12-13.16-7.86-18.84.39-8.56,6.26-8.15,6.26-8.15S567.33,360,573,377c.44,1.34.86,2.78,1.23,4.34Z" transform="translate(-0.08 -1.62)"/><path class="cls-22" d="M539.05,446.6c0-.09.05-.07.05.06l-.05-.06Zm41,63.91c-7.24-28.46-9.62-31.78-10.3-51.52-.37-10.68-.08-28.43-4.57-42.48a139.26,139.26,0,0,1-51-2.56c-7.24,28.91-10.78,63.44-4.42,106.71,13.35,5.14,27.15.81,27.15.81-2.78-30.32,1.2-68.82,2.1-74.27.07,5.33,6.39,44.43,12.55,68.2.58,2.22,1.15,4.31,1.72,6.22,0,0,11.82,3.68,28.64-3.8-.64-2.61-1.25-5-1.82-7.31Z" transform="translate(-0.08 -1.62)"/><path class="cls-21" d="M539.27,361a7.66,7.66,0,0,0,7.53-4.14s-.68-3.13-.83-4.85l-11.62,2.68.37,2.71h0c-.12.28-1.51,3.29,4.55,3.59Z" transform="translate(-0.08 -1.62)"/><path class="cls-25" d="M545.67,339.7c0,.21,0,.42,0,.63-.3-.15-.18,7.36.46,12.74-4.79,2.9-10.55,2.57-11.61,2.47a70.56,70.56,0,0,1-.5-17.11c1.27-6.84,11.92-5.67,11.69,1.27Z" transform="translate(-0.08 -1.62)"/><path class="cls-21" d="M585.14,432.59c1.46-.32.39-3.37,1-4.59a21,21,0,0,1,2.81,3.72c.91,2.69,1.67,5.43,2.31,8.2,3,3,.3-7.32.24-8.48l0,0a63.87,63.87,0,0,1,4.05,7.95c3.75,2.54-1.68-8.27-2.08-9.33v0a37.26,37.26,0,0,1,4.71,7.08c4,2-2.34-8.22-3.1-9.21l0,0a36.5,36.5,0,0,1,4.58,5c4,1.41-2.75-6.74-3.53-7.55-.27-.76-3-3.89-7.14-6.85-1.35-1-5.11,2.53-5.3,4.15.3,2.26-.34,9.94,1.37,10Z" transform="translate(-0.08 -1.62)"/><path class="cls-21" d="M480.49,407.62c-.1,1.49,3.13,1.31,4.13,2.25a20.2,20.2,0,0,1-4.35,1.66q-4.26.18-8.52-.06c-3.71,2,6.94,2.33,8.08,2.59v.05a65.06,65.06,0,0,1-8.76,1.67c-3.48,2.9,8.42.69,9.55.6v0a37.57,37.57,0,0,1-8.1,2.55c-3.06,3.26,8.54,0,9.71-.41l0,0a38.31,38.31,0,0,1-6,3c-2.47,3.45,7.24-.77,8.23-1.3.81,0,4.58-1.82,8.58-5,1.3-1-.56-5.28-2.07-5.91-2.25-.34-9.9-3.43-10.46-1.81Z" transform="translate(-0.08 -1.62)"/><path class="cls-30" d="M574.2,381.31s-10.07,1.7-13.44,9.15c0,0-1.27-1.63-2.94-4.13h0s5.24-9.06,15.15-9.36c.44,1.34.86,2.78,1.23,4.34Z" transform="translate(-0.08 -1.62)"/><path class="cls-30" d="M558.23,386.87l.54-.37-4-5.82a.34.34,0,0,0-.46-.08.33.33,0,0,0-.08.45c1.84,2.67,4,5.82,4,5.82Z" transform="translate(-0.08 -1.62)"/><path class="cls-9" d="M518.71,528.53c-10.52.5-13.58,4.08-14.44,6.48l0,0a1.63,1.63,0,0,0,1.55,2.15l22.89.08a5.87,5.87,0,0,0,.7-2.18,14.16,14.16,0,0,0-1.18-6.54,12.91,12.91,0,0,1-9.5,0Z" transform="translate(-0.08 -1.62)"/><path class="cls-10" d="M504.27,535l25.12.09a5.87,5.87,0,0,1-.7,2.18l-22.89-.08a1.63,1.63,0,0,1-1.55-2.15l0,0Z" transform="translate(-0.08 -1.62)"/><path class="cls-24" d="M511,534.26a.47.47,0,0,0,.17,0,.46.46,0,0,0,.26-.6,5.81,5.81,0,0,0-2.92-3.25.46.46,0,0,0-.6.25.47.47,0,0,0,.25.61,4.88,4.88,0,0,1,2.41,2.73.45.45,0,0,0,.43.29Z" transform="translate(-0.08 -1.62)"/><path class="cls-24" d="M514.61,533.84a.3.3,0,0,0,.13,0,.47.47,0,0,0,.31-.58,7.35,7.35,0,0,0-3.29-4.07.47.47,0,1,0-.44.82,6.47,6.47,0,0,1,2.84,3.52.48.48,0,0,0,.45.33Z" transform="translate(-0.08 -1.62)"/><path class="cls-24" d="M518.71,533.35l.15,0a.46.46,0,0,0,.29-.58,9.15,9.15,0,0,0-3.24-4.34.46.46,0,0,0-.64.13.47.47,0,0,0,.13.64,8.32,8.32,0,0,1,2.87,3.87.47.47,0,0,0,.44.31Z" transform="translate(-0.08 -1.62)"/><path class="cls-30" d="M530.77,358.67c7.86,9.09,20.28-.95,20.28-.95-.77-1.34-4.25-.91-4.25-.91s-8.62,4.91-12.11.28a3.3,3.3,0,0,0-3.92,1.58Z" transform="translate(-0.08 -1.62)"/><path class="cls-30" d="M519.33,382.33h-.09a.34.34,0,0,1-.24-.42s1.58-5.81,3-9.59a.35.35,0,0,1,.44-.2.34.34,0,0,1,.19.44c-1.43,3.75-3,9.47-3,9.53a.33.33,0,0,1-.32.25Z" transform="translate(-0.08 -1.62)"/><path class="cls-21" d="M557,333.52c-1.57,6-4.3,12.75-9.53,16.34h0a15.4,15.4,0,0,1-7.17,2.51c-14.39,2.88-30-16-17.52-26.65a18.42,18.42,0,0,0,4.81-6.2c10-23.2,35.41-6.88,29.42,14Z" transform="translate(-0.08 -1.62)"/><path class="cls-27" d="M534,327.5a.93.93,0,1,1,1.21.53.94.94,0,0,1-1.21-.53Z" transform="translate(-0.08 -1.62)"/><path class="cls-27" d="M526.31,325.45a.94.94,0,0,1,1.74-.69.94.94,0,0,1-1.74.69Z" transform="translate(-0.08 -1.62)"/><path class="cls-27" d="M528,333.71a3.85,3.85,0,0,0,1.58,0,.35.35,0,0,0,.27-.42.35.35,0,0,0-.42-.27c-1.21.26-2.82-.49-3-1-.06-.2.21-.36.45-.46,2.09-.89,3.79-4.53,3.86-4.68a.35.35,0,1,0-.64-.3s-1.65,3.55-3.5,4.33c-1,.43-.92,1.07-.84,1.32a3,3,0,0,0,2.24,1.48Z" transform="translate(-0.08 -1.62)"/><path class="cls-25" d="M557,333.52c-1.57,6-4.3,12.75-9.53,16.34h0c3-3.07,5.39-10.36,5.39-10.36l-1-3.44c-20.62-8.9-17.16-25.82-17.16-25.82,14.2-8.45,26.65,9.7,22.26,23.29Z" transform="translate(-0.08 -1.62)"/><path class="cls-28" d="M550.88,306.55c16.72,9.72,8.53,24.69,8.53,24.69l-7.2,3.12c-18.38-8.74-15.05-25.43-15.05-25.43,3-2.13,9.27-5,13.72-2.38Z" transform="translate(-0.08 -1.62)"/><path class="cls-21" d="M560.61,337c-.9,2.88-3.52,4.63-5.83,3.9s-3.47-3.65-2.57-6.53,3.52-4.63,5.84-3.9,3.46,3.65,2.56,6.53Z" transform="translate(-0.08 -1.62)"/><path class="cls-27" d="M558.22,338.21a.35.35,0,0,0,.4-.21c1-2.31,1-3.94.2-4.86-1.1-1.24-3.36-.62-3.45-.59a.35.35,0,0,0-.24.44.35.35,0,0,0,.43.24s1.93-.53,2.74.38c.61.69.5,2.12-.33,4.12a.35.35,0,0,0,.19.46l.06,0Z" transform="translate(-0.08 -1.62)"/><path class="cls-27" d="M555,337.41a.37.37,0,0,0,.39-.18s1.37-2.46,3.63-2.39a.36.36,0,0,0,0-.71c-2.7-.08-4.21,2.65-4.28,2.76a.35.35,0,0,0,.15.48l.09,0Z" transform="translate(-0.08 -1.62)"/><path class="cls-19" d="M556.47,339.84a.79.79,0,0,1-1.58-.16.79.79,0,0,1,1.58.16Z" transform="translate(-0.08 -1.62)"/><path class="cls-27" d="M538.4,326a.46.46,0,0,1-.18-.1A5.64,5.64,0,0,0,534,324a.36.36,0,0,1-.4-.32.35.35,0,0,1,.32-.4,6.27,6.27,0,0,1,4.83,2.1.35.35,0,0,1,0,.51.37.37,0,0,1-.33.1Z" transform="translate(-0.08 -1.62)"/><path class="cls-27" d="M530.46,323.13a.32.32,0,0,1-.18-.1,3.46,3.46,0,0,0-3.21-1,.36.36,0,0,1-.44-.26.35.35,0,0,1,.25-.44,4.18,4.18,0,0,1,3.92,1.21.36.36,0,0,1-.34.61Z" transform="translate(-0.08 -1.62)"/><path class="cls-27" d="M528.37,338.1c1.24.27,3.21.21,5.68-1.5a.4.4,0,0,0,.11-.56.4.4,0,0,0-.56-.1c-3.81,2.63-6.19.93-6.22.92a.4.4,0,1,0-.48.64,3.92,3.92,0,0,0,1.47.6Z" transform="translate(-0.08 -1.62)"/><path class="cls-23" d="M539.1,446.66s-1.61-1.78-3.57-4.47c0,0-8.62,40.3-3.86,74-13.9,1.83-22.82-1.9-22.82-1.9.25,2.08.53,4.2.82,6.36,13.36,5.14,27.16.82,27.16.82-.15-2.06-.28-4.1-.39-6.1-2.19-39.4,2.66-68.72,2.66-68.72Z" transform="translate(-0.08 -1.62)"/><path class="cls-29" d="M555.44,320.13c.19.61-1.22,1.61-3.15,2.23s-3.66.62-3.85,0,1.21-1.61,3.14-2.23,3.66-.62,3.86,0Z" transform="translate(-0.08 -1.62)"/><path class="cls-29" d="M558,323.43c.2.61-1.21,1.6-3.15,2.22s-3.65.63-3.85,0,1.21-1.6,3.15-2.22,3.65-.63,3.85,0Z" transform="translate(-0.08 -1.62)"/><path class="cls-30" d="M534.16,371.69a1.53,1.53,0,1,1-1.39-1.65,1.53,1.53,0,0,1,1.39,1.65Z" transform="translate(-0.08 -1.62)"/><path class="cls-30" d="M539.37,375.45A1.53,1.53,0,1,1,538,373.8a1.53,1.53,0,0,1,1.39,1.65Z" transform="translate(-0.08 -1.62)"/><path class="cls-30" d="M533.61,378.21a1.54,1.54,0,0,1-1.66,1.4,1.53,1.53,0,1,1,1.66-1.4Z" transform="translate(-0.08 -1.62)"/><path class="cls-30" d="M538.77,382.52a1.53,1.53,0,1,1-1.39-1.65,1.53,1.53,0,0,1,1.39,1.65Z" transform="translate(-0.08 -1.62)"/><path class="cls-30" d="M545.53,379.6a1.53,1.53,0,1,1-1.39-1.65,1.53,1.53,0,0,1,1.39,1.65Z" transform="translate(-0.08 -1.62)"/><path class="cls-30" d="M546.44,373.3a1.54,1.54,0,0,1-1.66,1.4,1.53,1.53,0,1,1,1.66-1.4Z" transform="translate(-0.08 -1.62)"/><path class="cls-30" d="M539.93,368.88a1.53,1.53,0,1,1-1.4-1.65,1.53,1.53,0,0,1,1.4,1.65Z" transform="translate(-0.08 -1.62)"/><path class="cls-23" d="M581.84,517.82c-16.82,7.48-28.64,3.8-28.64,3.8-.57-1.91-1.14-4-1.72-6.22,2,.16,17.89,1.21,28.54-4.89.57,2.27,1.18,4.7,1.82,7.31Z" transform="translate(-0.08 -1.62)"/><path class="cls-21" d="M417.88,364.59c-5.9,11-4.23,17.43-13,28.64-6.49,8.29-11,10-17.63,13.23-2.86,1.67-.47,6.15,2.78,6.06,12.35,0,22.59-5.19,29.34-16.41,6.29-9.11,11.37-17,15.54-27.23,3.93-8.76-12.67-12.81-17-4.29Z" transform="translate(-0.08 -1.62)"/><path class="cls-21" d="M377.52,404.8c-.1,1.49,3.13,1.31,4.13,2.25a20.59,20.59,0,0,1-4.36,1.66c-2.83.12-5.67.09-8.51-.06-3.71,2.05,6.94,2.32,8.08,2.59v0A63.56,63.56,0,0,1,368.1,413c-3.48,2.9,8.41.69,9.54.6h0a37,37,0,0,1-8.1,2.56c-3.07,3.26,8.54,0,9.71-.42l0,0a38.31,38.31,0,0,1-6,3c-2.47,3.45,7.24-.77,8.23-1.3.81-.05,4.58-1.83,8.57-5,1.31-1-.55-5.28-2.06-5.91-2.25-.34-9.9-3.43-10.46-1.81Z" transform="translate(-0.08 -1.62)"/><path class="cls-21" d="M429.42,417.22c-7.23,19.11-15.36,39.14-15.66,59.74.74,17.27,1.77,36.11,2.19,53.35.17,5.85-8.6,6.94-9.85,1.2-4.08-18.57-7.53-37.32-10-56.18-1.39-22.16,5.94-42.84,12.94-63.59,4.16-16,25.93-10.09,20.35,5.48Z" transform="translate(-0.08 -1.62)"/><path class="cls-11" d="M415.78,529a14.92,14.92,0,0,1,1.29,6.88,6.07,6.07,0,0,1-.73,2.31l-24.23.05a1.72,1.72,0,0,1-1.65-2.26s0,0,0,0c.9-2.53,4.12-6.32,15.26-6.92,0,0,5.29,2.07,10,0Z" transform="translate(-0.08 -1.62)"/><path class="cls-24" d="M397.49,535.08a.51.51,0,0,1-.35-.29,5.22,5.22,0,0,0-2.56-2.87.49.49,0,1,1,.36-.91,6.14,6.14,0,0,1,3.11,3.41.49.49,0,0,1-.27.64.42.42,0,0,1-.29,0Z" transform="translate(-0.08 -1.62)"/><path class="cls-24" d="M401.3,534.62a.53.53,0,0,1-.36-.34,6.76,6.76,0,0,0-3-3.7.49.49,0,0,1,.46-.87,7.76,7.76,0,0,1,3.51,4.28.5.5,0,0,1-.32.62.77.77,0,0,1-.26,0Z" transform="translate(-0.08 -1.62)"/><path class="cls-24" d="M405.64,534.07a.48.48,0,0,1-.35-.31,8.72,8.72,0,0,0-3.07-4.06.5.5,0,0,1-.14-.68.49.49,0,0,1,.68-.14,9.59,9.59,0,0,1,3.45,4.56.48.48,0,0,1-.29.62.54.54,0,0,1-.28,0Z" transform="translate(-0.08 -1.62)"/><path class="cls-12" d="M390.47,535.92l26.6-.06a6.07,6.07,0,0,1-.73,2.31l-24.23.05a1.72,1.72,0,0,1-1.65-2.26v0Z" transform="translate(-0.08 -1.62)"/><path class="cls-21" d="M458.47,410.2c-1.8,20.34-4.24,41.81,1,61.73,5.38,16.44,11.45,34.32,16.5,50.8,1.75,5.6-6.41,9-9.16,3.8-8.94-16.8-17.32-33.94-24.76-51.45-7.32-21-7.42-43.33-6.28-65.19-.3-16.5,23.85-16.18,22.67.31Z" transform="translate(-0.08 -1.62)"/><path class="cls-11" d="M475.48,521.5a14.8,14.8,0,0,1,3.1,6.29,6.11,6.11,0,0,1-.08,2.41l-23.33,6.53A1.72,1.72,0,0,1,453,535a.06.06,0,0,0,0,0c.18-2.68,2.26-7.2,12.83-10.75,0,0,5.65.58,9.67-2.71Z" transform="translate(-0.08 -1.62)"/><path class="cls-24" d="M459.5,532.27a.47.47,0,0,1-.4-.19,5.24,5.24,0,0,0-3.25-2.08.48.48,0,0,1-.44-.53A.49.49,0,0,1,456,529a6.21,6.21,0,0,1,3.92,2.45.48.48,0,0,1-.09.69.42.42,0,0,1-.28.1Z" transform="translate(-0.08 -1.62)"/><path class="cls-24" d="M463.05,530.8a.49.49,0,0,1-.43-.22,6.89,6.89,0,0,0-3.91-2.76.49.49,0,1,1,.2-1,7.69,7.69,0,0,1,4.54,3.18.49.49,0,0,1-.15.67.46.46,0,0,1-.25.08Z" transform="translate(-0.08 -1.62)"/><path class="cls-24" d="M467.09,529.12a.51.51,0,0,1-.42-.21,8.81,8.81,0,0,0-4.05-3.09.5.5,0,0,1-.32-.62.48.48,0,0,1,.62-.31,9.62,9.62,0,0,1,4.55,3.46.49.49,0,0,1-.12.68.51.51,0,0,1-.26.09Z" transform="translate(-0.08 -1.62)"/><path class="cls-12" d="M453,535l25.6-7.17a6.11,6.11,0,0,1-.08,2.41l-23.33,6.53A1.72,1.72,0,0,1,453,535v0Z" transform="translate(-0.08 -1.62)"/><path class="cls-24" d="M426.38,356.27a23,23,0,0,0-12.19,9.51c-4.64,7.42-8.11,20.14-8.11,20.14s8.44,2.52,11.4,11c0,0,15.7-4.15,8.9-40.66Z" transform="translate(-0.08 -1.62)"/><path class="cls-11" d="M471.32,492.29c-1,9.2-13.57,12-16,11.66-24-4.17-24.81-57.17-25-61-8.79,16.53-8.32,36.89-7.55,48.7.82,5.89-2.67,13.38-7.59,15.73a35.93,35.93,0,0,1-13.95,0c-14.55-10.88-13.8-25.7-10.83-45,3.64-17.58,14.19-43.12,17.48-50.9.65-5.13,4.65-41.95,14.73-51.54,6.86-9.83,26-6.66,34.08-.6,6.7,5-2.31,8.88-.28,16.49a101.84,101.84,0,0,1,2.41,12.07h0a90.52,90.52,0,0,1,.4,24.39c14.88,27.46,4.78,41.07,10.45,61,2.58,9.11,2.52,15.16,1.69,19Z" transform="translate(-0.08 -1.62)"/><path class="cls-21" d="M430.32,366.19c8.79,2.13,15.43-11.49,15.43-11.49s-.32-3.36-.26-5.18L433,350.86l0,2.89h0c-.17.29-7.49,11.27-2.67,12.44Z" transform="translate(-0.08 -1.62)"/><path class="cls-31" d="M430.79,300.08c-.37,5.55,3.09,10.31,7.73,10.62s8.69-3.94,9.06-9.5-3.09-10.31-7.73-10.62-8.7,3.94-9.06,9.5Z" transform="translate(-0.08 -1.62)"/><path class="cls-31" d="M454.21,306.91l-.39-.21h0a21.63,21.63,0,0,0-14.63-1.59,14.31,14.31,0,0,0-6.72,2.63l-.48.35,0,0h0c-8.17,6.14-10.56,18.25-8.33,25.55l13.73-14.38,9.72,20.07-1.92,9.24a23.5,23.5,0,0,0,15.72-9.73c6.28-8.82,7.78-24.34-6.66-32Z" transform="translate(-0.08 -1.62)"/><path class="cls-25" d="M446.73,336.65a2.33,2.33,0,0,1-.05.28c0,.13,0,.25-.07.37-.29-.19-1.12,7.68-1.13,13.4-5.4,2.44-11.41,1.35-12.51,1.13a91.56,91.56,0,0,1,1.21-16.33c.15-.66.26-1,.28-1.12a4.61,4.61,0,0,1,.15-.53,6.25,6.25,0,0,1,3.64-3.81h0a6.3,6.3,0,0,1,7,1.68l.1.11a6.19,6.19,0,0,1,1.42,4.82Z" transform="translate(-0.08 -1.62)"/><path class="cls-21" d="M456.36,334.33c-2.28,5.53-5.75,11.54-11.2,14.28h0a14.86,14.86,0,0,1-7.15,1.45c-14.42.5-26.44-18.59-13.27-27.58,4.65-2.62,6.93-8.66,10.8-11.44a12.22,12.22,0,0,1,14-1.33c8.83,4.63,10.22,15.62,6.85,24.63Z" transform="translate(-0.08 -1.62)"/><path class="cls-32" d="M427.05,334.47l8.47-2.07s-.52,4.21-3.78,4.63c-3.1.39-4.69-2.56-4.69-2.56Z" transform="translate(-0.08 -1.62)"/><path class="cls-27" d="M435.18,325.63a.9.9,0,1,1,1.09.65.9.9,0,0,1-1.09-.65Z" transform="translate(-0.08 -1.62)"/><path class="cls-27" d="M428.14,322.68a.88.88,0,0,1,.65-1.08.89.89,0,1,1,.43,1.73.88.88,0,0,1-1.08-.65Z" transform="translate(-0.08 -1.62)"/><path class="cls-27" d="M426.78,334.68a.34.34,0,0,1-.06-.12.35.35,0,0,1,.25-.42l8.47-2.07a.35.35,0,0,1,.41.25.34.34,0,0,1-.25.41l-8.47,2.07a.33.33,0,0,1-.35-.12Z" transform="translate(-0.08 -1.62)"/><path class="cls-12" d="M408.09,409.59s20.28,6.29,51.33.6c0,0,1,.95-.24,2.05,0,0-26.34,5.76-51.34-.81,0,0-1.21-.94.25-1.84Z" transform="translate(-0.08 -1.62)"/><path class="cls-27" d="M427,329.61a1.48,1.48,0,0,1-.27-.57c0-.25,0-.87,1-1.14,1.86-.51,3.87-3.62,3.89-3.66a.35.35,0,0,1,.47-.1.34.34,0,0,1,.1.47c-.09.13-2.17,3.37-4.28,3.94-.24.07-.52.18-.49.38.1.55,1.54,1.47,2.73,1.37a.34.34,0,0,1,.36.31.34.34,0,0,1-.31.37,4.13,4.13,0,0,1-3.18-1.37Z" transform="translate(-0.08 -1.62)"/><path class="cls-25" d="M456.36,334.33c-.18.46-.35.91-.56,1.36s-.37.84-.58,1.25a.71.71,0,0,0-.07.16c-.23.43-.44.85-.65,1.26l-.45.81c-.17.3-.34.59-.52.87a31.69,31.69,0,0,1-1.89,2.87c-.44.59-.89,1.14-1.35,1.67a17,17,0,0,1-5.13,4h0c3.26-2.53,6.48-9.14,6.48-9.14l-.46-3.38c-18.51-11.14-13-26.75-13-26.75a11.78,11.78,0,0,1,2.47-.93,12.21,12.21,0,0,1,1.71-.29h.16a12,12,0,0,1,4.1.46,16.05,16.05,0,0,1,2.93,1.14,14.22,14.22,0,0,1,5.62,5l.16.26a17.68,17.68,0,0,1,2.18,5.3,24.2,24.2,0,0,1-1.11,14Z" transform="translate(-0.08 -1.62)"/><path class="cls-31" d="M440.61,308.4s-5.33,15.42,11.06,26.1l7.27-2s7.45-9.36,2-19.2c-3.88-7-15.24-7.51-20.32-4.88Z" transform="translate(-0.08 -1.62)"/><path class="cls-21" d="M459.34,338.09c-1.23,2.62-3.95,3.94-6.07,3s-2.83-3.92-1.6-6.54,3.95-3.94,6.07-2.94,2.83,3.92,1.6,6.53Z" transform="translate(-0.08 -1.62)"/><path class="cls-27" d="M456.75,338.83a.33.33,0,0,1,0-.37c1-1.8,1.34-3.14.84-3.87-.65-1-2.54-.73-2.56-.72a.35.35,0,0,1-.38-.29.33.33,0,0,1,.29-.38c.09,0,2.32-.31,3.22,1,.66,1,.38,2.52-.83,4.59a.34.34,0,0,1-.46.12.28.28,0,0,1-.1-.09Z" transform="translate(-0.08 -1.62)"/><path class="cls-27" d="M453.78,337.65a.34.34,0,0,1,0-.41c.08-.1,1.87-2.49,4.43-2.07a.34.34,0,0,1,.28.39.33.33,0,0,1-.39.28c-2.15-.36-3.76,1.78-3.77,1.8a.33.33,0,0,1-.47.07.14.14,0,0,1-.07-.06Z" transform="translate(-0.08 -1.62)"/><path class="cls-19" d="M455,340.26a.76.76,0,0,1-1.48-.35.76.76,0,0,1,1.48.35Z" transform="translate(-0.08 -1.62)"/><path class="cls-31" d="M456.53,304.44c-4.63,4.65-5.23,11.53-1.35,15.37S466,323,470.59,318.35,475.83,306.82,472,303s-10.79-3.18-15.42,1.46Z" transform="translate(-0.08 -1.62)"/><path class="cls-24" d="M430.29,368.9c6.26,1.72,14.55-9,15.46-14.2,0,0-9.67,4.33-12.76-.95-3.42,3.3-10.11,13.11-2.7,15.15Z" transform="translate(-0.08 -1.62)"/><path class="cls-21" d="M462.56,373.37c1.09,14.69,0,28.06-11,41.21-8.86,10.57-24,17.16-24,17.16-7.65,5.2-5.86-5-4.5-6.14,0,0,11.29-7.15,17.64-17.63,6.08-10,5-22,5.31-33.44-.71-10.79,15.75-11.93,16.55-1.16Z" transform="translate(-0.08 -1.62)"/><path class="cls-24" d="M456.65,359.29s12.62,6.47,6.3,33.09a48.62,48.62,0,0,1-20.51-.46s-2.2-18.91,2.91-27.16,11.3-5.47,11.3-5.47Z" transform="translate(-0.08 -1.62)"/><path class="cls-27" d="M435,321.36a.35.35,0,0,1-.05-.3.34.34,0,0,1,.43-.22,6.73,6.73,0,0,1,4.28,3.89.34.34,0,1,1-.64.23h0a6.15,6.15,0,0,0-3.85-3.48.33.33,0,0,1-.17-.12Z" transform="translate(-0.08 -1.62)"/><path class="cls-27" d="M428.14,320.22a.34.34,0,0,1,0-.45c1.91-1.81,4.47-.29,4.5-.27a.33.33,0,0,1,.11.46.35.35,0,0,1-.47.12c-.09-.06-2.14-1.27-3.67.18a.34.34,0,0,1-.48,0l0,0Z" transform="translate(-0.08 -1.62)"/><path class="cls-12" d="M431.58,354.12s-5.42,2.09-6,5.8.5,3.35-1.33,6.76-.88,5.53,1,5.83,3.49-2.24,5.94-.44,4.42,2.75,6.65-.25,1.27-5.48,3.56-7.37,5.46-2.21,5.68-5a6.08,6.08,0,0,1,1.54-4.11,3.22,3.22,0,0,0-2.91-.85s-2.35,4.25-4.81,7.83-8.67,6.22-11.06,5.15-2.53-5.9,3.13-13.7c0,0-1.1.24-1.41.37Z" transform="translate(-0.08 -1.62)"/><path class="cls-12" d="M429.53,375.28a1.35,1.35,0,0,1-1.86.46,1.35,1.35,0,1,1,1.86-.46Z" transform="translate(-0.08 -1.62)"/><path class="cls-12" d="M428.18,380.12a1.36,1.36,0,0,1-1.86.46,1.34,1.34,0,0,1-.46-1.85,1.36,1.36,0,0,1,1.86-.46,1.34,1.34,0,0,1,.46,1.85Z" transform="translate(-0.08 -1.62)"/><path class="cls-12" d="M427.36,385.27a1.35,1.35,0,1,1-.46-1.85,1.35,1.35,0,0,1,.46,1.85Z" transform="translate(-0.08 -1.62)"/><path class="cls-12" d="M394,511.6v0s-.09,0,0,0Z" transform="translate(-0.08 -1.62)"/><path class="cls-12" d="M418.12,500.26a11.5,11.5,0,0,0,1.72,2.69,11.15,11.15,0,0,1-4.7,4.4,35.93,35.93,0,0,1-13.95,0A33.18,33.18,0,0,1,394,500h0s2.63-4.59,7.06,0,7.56,2,9.29.67,6.31-3.39,7.81-.39Z" transform="translate(-0.08 -1.62)"/><path class="cls-12" d="M471.19,493.06c-1.87,9-13.5,11.11-15.9,10.89a18.58,18.58,0,0,1-9.52-5.1c3.14-.47,5.78-.5,7.2.3,5.27,3,6.36.85,7.95-2.1s4.2-3.13,6.64-2c1,.5,2.4-.6,3.63-2Z" transform="translate(-0.08 -1.62)"/><path class="cls-21" d="M413.76,427c.42,1.49,3.5.19,4.79.75a20.72,20.72,0,0,1-3.66,3.14c-2.71,1.1-5.49,2.06-8.31,2.89-2.9,3.29,7.57-.14,8.77-.28a.05.05,0,0,0,0,0,66.77,66.77,0,0,1-7.95,4.68c-2.38,4,8.43-2.25,9.5-2.74v0a38.48,38.48,0,0,1-7,5.3c-1.85,4.23,8.33-2.93,9.31-3.77h0a39.66,39.66,0,0,1-4.83,5c-1.2,4.22,6.78-3.26,7.56-4.12.78-.33,3.82-3.36,6.63-7.8.91-1.45-.73-5.63-2.42-5.72-2.31.45-12.48.79-12.45,2.56Z" transform="translate(-0.08 -1.62)"/><path class="cls-21" d="M346.94,527.34c2.42,6.26,10,6.45,9.58-.83s-1.86-13.6-2.41-20.85c-2-21.08-20.09-11.7-7.17,21.68Z" transform="translate(-0.08 -1.62)"/><path class="cls-22" d="M346.94,527.34c-10.6,2.19-13.15,6.31-13.64,8.88,0,0,0,0,0,0a1.67,1.67,0,0,0,1.91,1.94l23.26-3.57a5.91,5.91,0,0,0,.36-2.32,14.54,14.54,0,0,0-2.24-6.45,13.21,13.21,0,0,1-9.64,1.48Z" transform="translate(-0.08 -1.62)"/><path class="cls-23" d="M333.3,536.22l25.52-3.91a5.91,5.91,0,0,1-.36,2.32L335.2,538.2a1.67,1.67,0,0,1-1.91-1.94v0Z" transform="translate(-0.08 -1.62)"/><path class="cls-24" d="M340,534.39a.49.49,0,0,0,.17-.06.48.48,0,0,0,.17-.65,6,6,0,0,0-3.49-2.84.48.48,0,1,0-.21.93,5.05,5.05,0,0,1,2.88,2.39.46.46,0,0,0,.48.23Z" transform="translate(-0.08 -1.62)"/><path class="cls-24" d="M343.61,533.39a.34.34,0,0,0,.14,0,.46.46,0,0,0,.22-.63,7.42,7.42,0,0,0-4-3.61.47.47,0,0,0-.6.29.49.49,0,0,0,.3.61,6.65,6.65,0,0,1,3.44,3.13.48.48,0,0,0,.5.26Z" transform="translate(-0.08 -1.62)"/><path class="cls-24" d="M347.7,532.24l.15,0a.48.48,0,0,0,.2-.65,9.44,9.44,0,0,0-4-3.89.48.48,0,0,0-.4.87,8.59,8.59,0,0,1,3.54,3.47.49.49,0,0,0,.49.25Z" transform="translate(-0.08 -1.62)"/><path class="cls-21" d="M290.53,443.69c1.88,28.28,5.4,56.5,9.28,84.57.9,6.65,8.85,7.92,9.59.66s.46-14,1-21.21c1.33-21.14,3.21-42.3,5.56-63.35,1.61-18.25-26.1-19-25.46-.67Z" transform="translate(-0.08 -1.62)"/><path class="cls-9" d="M320.71,444.07c0-.1.05-.08.05.05s0-.05-.05-.05Zm42.54,67.55c-.16-.63-.31-1.26-.44-1.87-5.51-25.36-7.34-32.76-8-53-.38-11,0-36.62-4.67-51-28.45,4-56.08-4.05-56.08-4.05-7.2,28.72-9.85,71.17-4.12,114.14.2,1.47.41,2.94.62,4.42,13.73,5.29,27.9.84,27.9.84-.09-1-.18-2.07-.26-3.13l-.15-2.13c-2-30.19,1.7-65.78,2.58-71.07v.13c.17,6,6.61,45.72,12.89,70,.09.33.17.66.26,1,.5,1.92,1,3.73,1.51,5.41,0,0,12.15,3.79,29.43-3.91-.48-2-1-3.84-1.43-5.63Z" transform="translate(-0.08 -1.62)"/><path class="cls-22" d="M299.81,528.26c-10.81.52-14,4.2-14.85,6.67v0a1.67,1.67,0,0,0,1.58,2.21l23.53.08a5.9,5.9,0,0,0,.72-2.24,14.59,14.59,0,0,0-1.21-6.72,13.25,13.25,0,0,1-9.76,0Z" transform="translate(-0.08 -1.62)"/><path class="cls-23" d="M285,534.93l25.82.08a5.9,5.9,0,0,1-.72,2.24l-23.53-.08A1.67,1.67,0,0,1,285,535v0Z" transform="translate(-0.08 -1.62)"/><path class="cls-24" d="M291.88,534.16a.58.58,0,0,0,.18,0,.48.48,0,0,0,.27-.62,6,6,0,0,0-3-3.34.48.48,0,0,0-.62.26.49.49,0,0,0,.27.62,5.06,5.06,0,0,1,2.47,2.82.5.5,0,0,0,.44.3Z" transform="translate(-0.08 -1.62)"/><path class="cls-24" d="M295.59,533.72l.14,0a.49.49,0,0,0,.32-.6,7.47,7.47,0,0,0-3.39-4.18.47.47,0,1,0-.44.84,6.64,6.64,0,0,1,2.91,3.62.49.49,0,0,0,.46.34Z" transform="translate(-0.08 -1.62)"/><path class="cls-24" d="M299.81,533.21a.39.39,0,0,0,.15,0,.49.49,0,0,0,.3-.61,9.35,9.35,0,0,0-3.33-4.45.47.47,0,0,0-.66.13.48.48,0,0,0,.13.66,8.6,8.6,0,0,1,3,4,.46.46,0,0,0,.45.32Z" transform="translate(-0.08 -1.62)"/><path class="cls-21" d="M303.53,363.18c-13.63,2.27-27.77,1.19-36.67-10.41-7.68-11.14-6.53-29.92-4.69-39.81.77-4.11,7.4-2.79,7.29,1.3,0,.49.08,1.44.11,1.95,1.84,24.72,7.89,32.3,31.41,29.26,11.65-1.5,14.16,16,2.55,17.71Z" transform="translate(-0.08 -1.62)"/><path class="cls-33" d="M315,342.91s-8.63-1-14.71-.11-11.66,2.34-15.3,1.7c0,0-4.34,5-5.28,18.71a75.24,75.24,0,0,0,27.08,4.87L315,342.91Z" transform="translate(-0.08 -1.62)"/><path class="cls-34" d="M289.32,408.76s32.2,9.85,65.53,6.34c-.78-23.82,5-24.5,1-43.75-4.32-20.94-18-27.08-18-27.08-11-5.25-22.84-1.36-22.84-1.36-9,1.79-16.83,27.79-20.32,41.89-2.76,11.15-5.38,24-5.38,24Z" transform="translate(-0.08 -1.62)"/><path class="cls-33" d="M315,342.91a10.39,10.39,0,0,0,.63,1.56,7.17,7.17,0,0,0,2,2.48,7.43,7.43,0,0,0,3.66,1.44,11.44,11.44,0,0,0,11.83-6.09c-1-.29-2.77-.82-3.78-1-4.13-.88-11.51,1-11.51,1a10.56,10.56,0,0,0-2.86.6Z" transform="translate(-0.08 -1.62)"/><path class="cls-21" d="M317.89,338.63v3.68s0,3.31,3.89,3.55a7.49,7.49,0,0,0,7.67-4.32,19.61,19.61,0,0,1-.33-3.84l-11.22.93Z" transform="translate(-0.08 -1.62)"/><path class="cls-25" d="M329.5,333.28c0,.08-.29.37-.43,5.47-4.86,2.06-10.19,1-11.17.75-.08-5.4.35-4.38.25-5.89.14-.59,11.6-1.92,11.35-.33Z" transform="translate(-0.08 -1.62)"/><path class="cls-21" d="M351.69,365.81c6.05,12.37,8.75,26.09.11,37.88-8.54,10.5-18.34,13.11-31.22,12.81-4.21-.09-4.56-5.4-.59-6.45.46-.17,1.37-.45,1.84-.66,18.73-8.17,22.62-14,14.84-37.87-4.85-10.66,10.07-16.31,15-5.71Z" transform="translate(-0.08 -1.62)"/><path class="cls-33" d="M332,365.49c1,6.05,5.09,17.4,6.79,20.67a29.62,29.62,0,0,0,22.7-4.42s-2.45-28.41-28.35-39.44c0,0-2.66,13.57-1.14,23.19Z" transform="translate(-0.08 -1.62)"/><path class="cls-28" d="M322.31,287.55s-3.53-2.79-6.44.28-.67,5.86-4.08,8.43-5.3,2.82-4.94,5.86,2.52,3.73.94,7.22c.63,0,22.62-16.38,14.52-21.79Z" transform="translate(-0.08 -1.62)"/><path class="cls-21" d="M305.82,329.61c4.18,5.95,11.71,8.7,18.15,8.38a15.78,15.78,0,0,0,7.56-2.07h0c9.42-6.16,14.39-20.89,11.15-31.31-2.25-8.88-13.14-15.38-21.47-10.37-4.27,2.52-6.55,6.7-9.27,11a18.81,18.81,0,0,1-4.14,4.12c-5.93,4.28-7.27,12.31-2,20.27Z" transform="translate(-0.08 -1.62)"/><path class="cls-27" d="M319.21,312a1,1,0,0,1,1.84-.57,1,1,0,0,1-1.84.57Z" transform="translate(-0.08 -1.62)"/><path class="cls-27" d="M311.46,309.31a1,1,0,0,1,1.83-.58,1,1,0,0,1-1.83.58Z" transform="translate(-0.08 -1.62)"/><path class="cls-25" d="M316.91,297.94c4.81,5.76,12.43-.63,11.37,6.51-.58,2.89,4.85,2.91,5.26,4.37s-.76,3.94.14,5.9,6.51,5.12,6.51,5.12c-2.39,5.72-2.36,11-10.11,16.82a13.18,13.18,0,0,0,1.45-.74h0c11-7.42,16.23-25.79,8.43-36.85-5.25-7.74-17.31-9-23-1.13Z" transform="translate(-0.08 -1.62)"/><path class="cls-27" d="M313.11,318.06c.46,0,1.38.27,1.39-.39a.37.37,0,0,0-.42-.31c-1.28.23-4.07-1.09-2.52-1.72,2.16-.64,5.75-6,3.66-4.9,0,0-2,3.54-3.9,4.21-2.45,1.18.06,2.8,1.79,3.11Z" transform="translate(-0.08 -1.62)"/><path class="cls-28" d="M318.53,296.26s-2.44-4.27,1.25-6.5,4.18-6.42,8.52-5,5.92,2.24,11,1.74,8.4,4.82,7.71,7.86,5.81,4.11,6.09,8.42-.89,5.4-1.18,7.2,5,5.09,3.17,9.2-5.31,2.85-6.45,5.49.19,7.7-3.24,8.73a9,9,0,0,1-8.64-2.18c11.7-17-3.57-10.89-.65-21,1.62-3.86-4.52-3.59-5.57-5.9s.37-4.63-2.12-5.61-4.7,1.84-9.87-2.45Z" transform="translate(-0.08 -1.62)"/><path class="cls-21" d="M346,323.6c-2.72,6.87-11.12,3.6-8.47-3.3s11.12-3.59,8.47,3.3Z" transform="translate(-0.08 -1.62)"/><path class="cls-27" d="M343.45,324.7a.36.36,0,0,0,.39-.2c2.37-4.27.22-6.57-3-5.84a.37.37,0,0,0,.15.72c2.74-.63,4.15,1.23,2.16,4.8a.36.36,0,0,0,.27.52Z" transform="translate(-0.08 -1.62)"/><path class="cls-27" d="M340.18,323.65c.67,0,1.46-2.55,4.28-2.38a.37.37,0,0,0,.4-.32.36.36,0,0,0-.33-.4c-2.76-.27-5.45,2.82-4.35,3.1Z" transform="translate(-0.08 -1.62)"/><path class="cls-27" d="M323.74,309.66a.39.39,0,0,0,.24,0,.41.41,0,0,0,.33-.48c0-.11-.55-2.79-4-4.37a.41.41,0,0,0-.55.2.42.42,0,0,0,.21.55,5.87,5.87,0,0,1,3.56,3.77.42.42,0,0,0,.24.31Z" transform="translate(-0.08 -1.62)"/><path class="cls-27" d="M313,305.06a.4.4,0,0,0,.46-.09,3,3,0,0,1,3.31-.74.41.41,0,0,0,.35-.75,3.8,3.8,0,0,0-4.25.91.42.42,0,0,0,0,.59.57.57,0,0,0,.13.08Z" transform="translate(-0.08 -1.62)"/><path class="cls-27" d="M316.57,320.25a2.2,2.2,0,0,0-1.41.18c-.93.42-1.46,1.31-1.17,2s1.32.84,2.24.43a2.3,2.3,0,0,0,1.08-.95,1.14,1.14,0,0,0,.09-1,.81.81,0,0,0-.25-.33,1.3,1.3,0,0,0-.58-.27Zm-3.29,2.46a2.43,2.43,0,0,1,1.56-3,3,3,0,0,1,1.9-.23,1.8,1.8,0,0,1,1.25,2.75,3,3,0,0,1-1.44,1.28,2.69,2.69,0,0,1-2.82-.21,1.76,1.76,0,0,1-.45-.6Z" transform="translate(-0.08 -1.62)"/><path class="cls-21" d="M260.93,303.67c-2-2.48,1.65-5.26,2-1.56l0-.05a1.26,1.26,0,0,1-1.95,1.61Z" transform="translate(-0.08 -1.62)"/><path class="cls-21" d="M262.58,303c-1.65-3.92,3.19-4.28,2.19-1.4,0,0,0,0,0,0a1,1,0,0,0,.06.23s0,0,0,0a1.27,1.27,0,0,1-2.25,1.16Z" transform="translate(-0.08 -1.62)"/><path class="cls-21" d="M264.47,302.05l-.2-1.25a1.27,1.27,0,0,1,2.5-.4l.2,1.26a1.27,1.27,0,0,1-2.5.39Z" transform="translate(-0.08 -1.62)"/><path class="cls-21" d="M269.16,314.21s2.74-8.22,0-13l-8.24,1.55s-1.36,7,.88,12.58l7.4-1.11Z" transform="translate(-0.08 -1.62)"/><path class="cls-21" d="M270,306.14c.52-1.69-1.95-14.35-4.3-13.1-1,.47-.32,1.56-.08,2.27a25.35,25.35,0,0,1,1.41,8.36c.15,1.4-1,3.43.81,4.11a1.65,1.65,0,0,0,2.16-1.64Z" transform="translate(-0.08 -1.62)"/><path class="cls-21" d="M273,300.39c-2.1,2.78-4.29,5.58-6.59,8.18-1.92,2.23,1.76,4.94,3.31,2.42,1.86-3.12,3.49-6.27,5.09-9.5a1.07,1.07,0,0,0-1.81-1.1Z" transform="translate(-0.08 -1.62)"/><path class="cls-25" d="M261.72,304.31c1.41.2,1.78-1.48.87-.61s-1.35-.32-1.78-.18c-.25.43.57.74.91.79Z" transform="translate(-0.08 -1.62)"/><path class="cls-25" d="M263.52,303.84c.53.15,1.83-.53,1.42-1.11-.44,0-.47,1-1.56.69-.7-.22-.87-1.06-.93-1.7-.1-.26.29-1-.05-1.14a.2.2,0,0,0-.23.15c-.27,1.14,0,2.9,1.35,3.11Z" transform="translate(-0.08 -1.62)"/><path class="cls-25" d="M265.53,303.3a1.46,1.46,0,0,0,1.63-1.67l-.2-1.26a.19.19,0,0,0-.38.06l.2,1.26a1.07,1.07,0,0,1-2.12.33,5.1,5.1,0,0,1-.06-2,.19.19,0,0,0-.14-.23.19.19,0,0,0-.23.14c-.18,1.76-.16,3,1.3,3.36Z" transform="translate(-0.08 -1.62)"/><path class="cls-25" d="M265,309.72a17.47,17.47,0,0,1,5.23-5.43c.25-1.18-4,2.11-5.38,5.16a.19.19,0,0,0,.15.27Z" transform="translate(-0.08 -1.62)"/><path class="cls-21" d="M309.87,408.18c-.09,1.54,3.25,1.32,4.29,2.27a21.32,21.32,0,0,1-4.48,1.77c-2.93.16-5.87.17-8.8,0-3.81,2.16,7.2,2.32,8.38,2.58v.05a67.53,67.53,0,0,1-9,1.84c-3.57,3,8.7.61,9.87.5h0a38.71,38.71,0,0,1-8.35,2.74c-3.12,3.4,8.83-.06,10-.54l0,0a39.6,39.6,0,0,1-6.21,3.2c-2.51,3.6,7.47-.88,8.49-1.44.84-.06,4.71-1.94,8.8-5.22,1.34-1.07,1.14-5.57-.42-6.2-2.33-.33-12.06-3.3-12.61-1.62Z" transform="translate(-0.08 -1.62)"/><path class="cls-10" d="M364.68,517.25c-17.28,7.7-29.43,3.91-29.43,3.91-.5-1.68-1-3.49-1.51-5.41,0,0,15.1,2.48,29.51-4.13.44,1.79.95,3.65,1.43,5.63Z" transform="translate(-0.08 -1.62)"/><path class="cls-10" d="M320.59,444.68s-2.91-1.41-4.53-6.7c0,0-7.12,33.94-2.51,78.85a52.67,52.67,0,0,1-23.65-1.08c.2,1.47.41,2.94.62,4.42,13.73,5.29,27.9.84,27.9.84-.15-1.73-.29-3.49-.41-5.26-2-30.19,1.7-65.78,2.58-71.07Z" transform="translate(-0.08 -1.62)"/><path class="cls-31" d="M150.37,207.31s-7-9.1-22.34-3.25-12.25,21.35-18.46,30.18-15.33,13.59-16.11,27.5c-.66,11.73,2,16.81,23.49,19.15,54.81,10.77,55.9-22.08,33.42-73.58Z" transform="translate(-0.08 -1.62)"/><path class="cls-21" d="M135.63,278.22c9.78,11.93,20.54,24,26.85,37.83,2.07,2.66,4.18,3.22,6.51,5.07,11.67,14.6,35,9.38,46.26-3.34,2.35-3,7.65-6.56,4.88-10.38-2.1-2.89-4.49-1.4-9.37,1.23-34.91,16.29-29.39-39.8-62.11-52l.08.35c-11.39-2.55-21.89,10.85-13.1,21.24Z" transform="translate(-0.08 -1.62)"/><path class="cls-21" d="M89.22,530.42c4.64-4.9-3.43-159.41,15.36-190.35l62,3.06c12,74.68-.26,153-.26,153-1.72,22.66-7.75,30.75,16.58,34.14,0,0,4.61,1.71,6.13,3.84a2.58,2.58,0,0,1-2.07,4.14H149.56c1.18-11.72.29-26.71-1.62-39.84h0l-14.7-112.92c-9.48,55.21-32.13,129.7-25.85,145,.59,2.06.46,7.4-1.68,7.4l-14.79.09c-2.15,0-2.31-5.42-1.7-7.48Z" transform="translate(-0.08 -1.62)"/><path class="cls-35" d="M187.59,306.49a28.78,28.78,0,0,1-14.69,18.95C169,322.75,163,318.85,162,313.92c-7.21-11.36-14.84-22.55-23.93-32.79-.68-5.49-1.77-14.22-2.46-19.65a13.45,13.45,0,0,1,13.13-4.5l-.08-.36c23.09,7.88,27.66,36.41,38.94,49.87Z" transform="translate(-0.08 -1.62)"/><path class="cls-9" d="M149.43,537.05c0,.4.06.79.13,1.17h37.76a2.51,2.51,0,0,0,2.29-3.59h0c-6-10-27.86,3.86-39.55-11.44-.16,4.21-1.35,9.2-.63,13.86Z" transform="translate(-0.08 -1.62)"/><path class="cls-9" d="M90.82,538.22h15c4.35-.21,3.3-5.27,1.6-7.81a15.3,15.3,0,0,0-18.17,0c-1.75,2.79-2.72,7.5,1.6,7.8Z" transform="translate(-0.08 -1.62)"/><path class="cls-21" d="M149.07,253.83l-.71,4.75c-2.47,6.83-11.88,1-13.41-1.69,0,0,.88-4.14,1-6.07l13.08,3Z" transform="translate(-0.08 -1.62)"/><path class="cls-25" d="M136.33,237c0,.23,0,.47,0,.7.34-.17.2,8.28-.51,14.34,5.38,3.27,11.86,2.88,13,2.78,1.38-9,3.43-19.82-2.79-23.74-4.22-2.43-10,1-9.79,5.92Z" transform="translate(-0.08 -1.62)"/><path class="cls-15" d="M158,296.65l4.51,19.4a39.76,39.76,0,0,0,6.62,6.76c-.06-16.17,9.21-23.49-1.93-38.75L158,296.65Z" transform="translate(-0.08 -1.62)"/><path class="cls-35" d="M179.86,493.06c0,4.38,0,7.73-.11,9.8-18.16,6.85-74.35,11.95-97.49,0,.21-2.25.37-5.59.52-9.83,1.12-31.87,1.77-114.21,19-157a72,72,0,0,0,4.62-15.49c3.93-22.5-1.07-61.28,28.56-63.71,8.58,8.17,14.26,6.9,13.7-.26,4.52,6.31,12.74,18.27,16.25,23.52,12.4,19.41,1.08,26.74.51,42.68a43.23,43.23,0,0,0,2,14.45c10,29.12,12.44,122.28,12.45,155.79Z" transform="translate(-0.08 -1.62)"/><path class="cls-15" d="M167.41,337.27s-26.28,8.36-65.64-1.19a51.39,51.39,0,0,0,4.62-15.49s32.87,8.22,59,2.23a43.53,43.53,0,0,0,2,14.45Z" transform="translate(-0.08 -1.62)"/><path class="cls-21" d="M114.5,372.23c-1.33,1-3.26-2.46-4.73-2.92a24.09,24.09,0,0,0,.85,5.45q2.31,4.47,5.06,8.69c.23,5.1-6.55-5.81-7.4-6.76l0,0a74.68,74.68,0,0,0,3.42,10c-.93,5.28-5.65-8.23-6.21-9.43h0a44.11,44.11,0,0,0,2.15,9.81c-1.41,5.23-5.14-8.86-5.28-10.2h0a44.3,44.3,0,0,0,.44,8c-2.07,4.54-3.42-7.65-3.49-9-.34-1.28-1.76-3.93-.84-10.17.29-1.95,5.14-4.1,6.93-3.39,2,.8,4.14,3.34,4.69,4,1.31,1.19,5.41,4.06,4.53,5.89Z" transform="translate(-0.08 -1.62)"/><path class="cls-21" d="M221.14,295.69c1.4.94-1.33,3.86-1.32,5.4a24.34,24.34,0,0,0,4.92-2.48c2.37-2.38,4.6-4.89,6.72-7.49,4.78-1.78-3.52,8-4.16,9.12l0,0a76.23,76.23,0,0,0,8.43-6.32c5.31-.74-6.09,7.9-7.07,8.81v0a43.71,43.71,0,0,0,8.67-5.05c5.42-.27-6.84,7.61-8.07,8.16v0a45.83,45.83,0,0,0,7.45-2.87c5,.57-6.23,5.61-7.46,6.07-1.11.72-3.19,2.88-9.42,3.93-1.93.33-5.48-3.63-5.35-5.56.14-2.16,1.91-5,2.4-5.7.73-1.61,2.2-6.39,4.21-6.12Z" transform="translate(-0.08 -1.62)"/><path class="cls-31" d="M144.75,207.7c16.72-5.17,24.36,21.32,14.54,33.37L144.75,207.7Z" transform="translate(-0.08 -1.62)"/><path class="cls-21" d="M128.05,230.38c.25,6.05,1.45,13,5.67,17.45h0C145.41,260.9,173.45,246,162.12,230a17.48,17.48,0,0,1-3.28-6.87c-4.66-24-32.16-13.81-30.79,7.21Z" transform="translate(-0.08 -1.62)"/><path class="cls-32" d="M155.49,239.89l-5.16-2.15c-.22,3,3.07,4.73,5.16,2.15Z" transform="translate(-0.08 -1.62)"/><path class="cls-27" d="M151.12,229.43a.9.9,0,0,0-1.5-1,.9.9,0,0,0,1.5,1Z" transform="translate(-0.08 -1.62)"/><path class="cls-27" d="M158.82,229.06a.9.9,0,0,0-1.5-1,.9.9,0,0,0,1.5,1Z" transform="translate(-0.08 -1.62)"/><path class="cls-27" d="M155.56,236.55c1.55,0,3.66-.82,1.9-2.36-1.58-1.12-2.41-4.79-2.42-4.82a.34.34,0,0,0-.67.14c0,.17.9,4,2.7,5.24.2.14.43.35.33.52-.28.49-2,.87-3.06.37a.34.34,0,0,0-.45.17c-.13.75,1.12.68,1.67.74Z" transform="translate(-0.08 -1.62)"/><path class="cls-25" d="M128.05,230.38c.25,6.05,1.45,13,5.67,17.45h0c-2.21-3.53-3-10.93-3-10.93l1.61-3.06C153.75,229.65,154,212.9,154,212.9c-12.1-11-26.93,3.52-25.91,17.48Z" transform="translate(-0.08 -1.62)"/><path class="cls-31" d="M152,211.17s-.29,16.5-19.52,21l-6.18-4.44c-4.94-13.43,9-30.61,25.7-16.56Z" transform="translate(-0.08 -1.62)"/><path class="cls-21" d="M123.92,232.93c.66,6.91,9.1,6.16,8.51-.76s-9.09-6.16-8.51.76Z" transform="translate(-0.08 -1.62)"/><path class="cls-27" d="M125.61,230.82h0c.47-2.89,6.06-.84,3.88-.41,0-.12-2.56-1.07-3.06.24,2.44.65,3.95,4.7,2.41,3.59,0,0-.71-2.36-2.64-2.94a7.5,7.5,0,0,0,.08,2.88c-1.07,1.8-.93-3.39-.67-3.36Z" transform="translate(-0.08 -1.62)"/><path class="cls-19" d="M127.27,236.48a.77.77,0,0,0,1.52.18.77.77,0,0,0-1.52-.18Z" transform="translate(-0.08 -1.62)"/><path class="cls-15" d="M187.59,306.49a28.78,28.78,0,0,1-14.69,18.95,32.15,32.15,0,0,1-2.88-1.93c11.63-6.95,15.07-19.87,15.12-20.07a29.41,29.41,0,0,0,2.45,3.05Z" transform="translate(-0.08 -1.62)"/><path class="cls-21" d="M132.34,285.25c-10.71,9.41-20.07,20.89-26,33.85-2.62,6-2.78,12.83-2.83,19.37a147.35,147.35,0,0,0,2.25,23.38,4.27,4.27,0,0,1-3.52,4.91c-3.24.58-4.73-2.43-6-4.81C88.69,347.07,83,329.78,86.54,312.9A97.68,97.68,0,0,1,115,265.39c13.38-12,31.13,8.17,17.38,19.86Z" transform="translate(-0.08 -1.62)"/><path class="cls-35" d="M129.41,290.93c-9.18,7.76-17.24,19.5-20.82,25.08-1.26,2-2,3.18-2,3.18a21,21,0,0,1-20.27-6.1,34.27,34.27,0,0,1,.57-4.95c1-6,4-17.07,12.47-30.1,12.86-19.83,30-20.76,30-20.76l.29.74c11.2,9.74,12.12,22.41-.29,32.91Z" transform="translate(-0.08 -1.62)"/><path class="cls-15" d="M153.38,263.33c-5.06,8.92-21.4,2.05-24-6.05a39.6,39.6,0,0,1,5.54-.4c8.17,7.39,13.69,4.86,13.7-.26,0,0,4.22,1.3,5.93,2.67a14.87,14.87,0,0,1-1.2,4Z" transform="translate(-0.08 -1.62)"/><path class="cls-15" d="M109.36,314.81c-1.26,2-2.74,4.38-2.74,4.38a21.42,21.42,0,0,1-20.27-6.1,34.27,34.27,0,0,1,.57-4.95,29.4,29.4,0,0,0,22.44,6.67Z" transform="translate(-0.08 -1.62)"/><path class="cls-27" d="M155.49,240.25a.31.31,0,0,1-.13,0l-5.17-2.15a.36.36,0,1,1,.28-.66l5.16,2.15a.36.36,0,0,1,.2.47.37.37,0,0,1-.34.22Z" transform="translate(-0.08 -1.62)"/><path class="cls-27" d="M148.12,227.23a.34.34,0,0,1-.26-.12.35.35,0,0,1,0-.5,6.06,6.06,0,0,1,5.11-1.43.36.36,0,1,1-.15.7,5.42,5.42,0,0,0-4.46,1.25.39.39,0,0,1-.25.1Z" transform="translate(-0.08 -1.62)"/><path class="cls-27" d="M159.52,226.51a.39.39,0,0,1-.28-.13,2.68,2.68,0,0,0-3-.63.37.37,0,0,1-.48-.18.38.38,0,0,1,.19-.48,3.35,3.35,0,0,1,3.83.82.36.36,0,0,1,0,.51.35.35,0,0,1-.23.09Z" transform="translate(-0.08 -1.62)"/><path class="cls-15" d="M107.7,316.81a.58.58,0,0,1-.33-.1.61.61,0,0,1-.19-.84c5.5-8.64,20.23-24,20.38-24.13a.6.6,0,0,1,.86,0,.61.61,0,0,1,0,.86c-.15.15-14.8,15.4-20.23,23.93a.59.59,0,0,1-.51.29Z" transform="translate(-0.08 -1.62)"/><path class="cls-15" d="M179.86,493.06c0,4.38,0,7.73-.11,9.8-18.16,6.85-74.35,11.95-97.49,0,.21-2.25.37-5.59.52-9.83,0,0,41.52,13.72,97.08,0Z" transform="translate(-0.08 -1.62)"/><polygon class="cls-36" points="249.39 137.39 250.69 140.78 254.32 140.98 251.5 143.26 252.43 146.78 249.38 144.8 246.33 146.77 247.27 143.26 244.45 140.97 248.08 140.78 249.39 137.39 249.39 137.39"/><polygon class="cls-36" points="699.9 244.51 701.2 247.9 704.83 248.1 702.01 250.38 702.94 253.9 699.89 251.92 696.84 253.89 697.78 250.38 694.96 248.09 698.59 247.9 699.9 244.51 699.9 244.51"/><polygon class="cls-36" points="49.53 197.62 50.84 201.01 54.47 201.21 51.64 203.49 52.58 207 49.53 205.03 46.48 207 47.41 203.49 44.6 201.2 48.22 201 49.53 197.62 49.53 197.62"/><polygon class="cls-36" points="330.21 39.51 331.52 42.9 335.14 43.1 332.32 45.38 333.25 48.9 330.21 46.92 327.16 48.89 328.09 45.38 325.28 43.09 328.9 42.9 330.21 39.51 330.21 39.51"/><polygon class="cls-36" points="609.35 233.23 610.65 236.62 614.28 236.82 611.46 239.11 612.39 242.62 609.34 240.65 606.29 242.62 607.23 239.11 604.41 236.81 608.04 236.62 609.35 233.23 609.35 233.23"/><polygon class="cls-36" points="740.55 37.74 741.86 41.13 745.48 41.33 742.66 43.62 743.59 47.13 740.55 45.15 737.49 47.12 738.43 43.61 735.62 41.32 739.24 41.13 740.55 37.74 740.55 37.74"/><polygon class="cls-36" points="373.36 195.79 374.67 199.18 378.3 199.38 375.48 201.67 376.41 205.18 373.36 203.2 370.31 205.17 371.24 201.66 368.43 199.37 372.06 199.18 373.36 195.79 373.36 195.79"/><polygon class="cls-36" points="154.11 26.04 155.42 29.43 159.04 29.63 156.22 31.92 157.15 35.43 154.11 33.45 151.06 35.42 151.99 31.92 149.18 29.62 152.8 29.43 154.11 26.04 154.11 26.04"/><polygon class="cls-36" points="478.07 98.54 479.38 101.93 483 102.13 480.18 104.42 481.11 107.93 478.06 105.95 475.01 107.93 475.95 104.42 473.13 102.12 476.76 101.93 478.07 98.54 478.07 98.54"/><polygon class="cls-36" points="441.89 26.04 443.19 29.43 446.82 29.63 444 31.92 444.93 35.43 441.88 33.45 438.83 35.42 439.77 31.92 436.95 29.62 440.58 29.43 441.89 26.04 441.89 26.04"/><polygon class="cls-36" points="755.38 204.77 756.68 208.16 760.31 208.36 757.49 210.65 758.42 214.16 755.37 212.18 752.32 214.15 753.26 210.64 750.44 208.35 754.07 208.16 755.38 204.77 755.38 204.77"/><path class="cls-17" d="M618.6,176.66a4.26,4.26,0,1,1-4.25-4.26,4.25,4.25,0,0,1,4.25,4.26Z" transform="translate(-0.08 -1.62)"/><path class="cls-17" d="M61.45,86.23A3.45,3.45,0,1,1,58,82.78a3.46,3.46,0,0,1,3.45,3.45Z" transform="translate(-0.08 -1.62)"/><path class="cls-17" d="M90.47,164.32a4.12,4.12,0,1,1-4.12-4.11,4.11,4.11,0,0,1,4.12,4.11Z" transform="translate(-0.08 -1.62)"/><path class="cls-17" d="M321.27,161.52a2.11,2.11,0,1,1-2.11-2.11,2.12,2.12,0,0,1,2.11,2.11Z" transform="translate(-0.08 -1.62)"/><path class="cls-17" d="M452.39,161.52a2.11,2.11,0,1,1-2.11-2.11,2.11,2.11,0,0,1,2.11,2.11Z" transform="translate(-0.08 -1.62)"/><path class="cls-17" d="M381.09,267.53a2.11,2.11,0,1,1-2.11-2.11,2.11,2.11,0,0,1,2.11,2.11Z" transform="translate(-0.08 -1.62)"/><path class="cls-17" d="M288.89,250.82a2.11,2.11,0,1,1-2.11-2.11,2.11,2.11,0,0,1,2.11,2.11Z" transform="translate(-0.08 -1.62)"/><path class="cls-17" d="M709.13,57.15A2.11,2.11,0,1,1,707,55a2.1,2.1,0,0,1,2.11,2.11Z" transform="translate(-0.08 -1.62)"/><path class="cls-17" d="M539.36,27.66a2.11,2.11,0,1,1-2.11-2.11,2.12,2.12,0,0,1,2.11,2.11Z" transform="translate(-0.08 -1.62)"/><path class="cls-17" d="M506.27,288.52a2.11,2.11,0,1,1-2.11-2.11,2.1,2.1,0,0,1,2.11,2.11Z" transform="translate(-0.08 -1.62)"/><path class="cls-17" d="M262.87,71.27a2.11,2.11,0,1,1-2.11-2.11,2.12,2.12,0,0,1,2.11,2.11Z" transform="translate(-0.08 -1.62)"/><path class="cls-17" d="M603.12,286.39a2.12,2.12,0,1,1-2.11-2.11,2.12,2.12,0,0,1,2.11,2.11Z" transform="translate(-0.08 -1.62)"/><path class="cls-17" d="M46.79,282.94a2.11,2.11,0,1,1-2.11-2.11,2.11,2.11,0,0,1,2.11,2.11Z" transform="translate(-0.08 -1.62)"/><path class="cls-17" d="M189.7,195.23a2.11,2.11,0,1,1-2.11-2.11,2.12,2.12,0,0,1,2.11,2.11Z" transform="translate(-0.08 -1.62)"/><path class="cls-17" d="M681.87,190.61a2.12,2.12,0,1,1-2.12-2.11,2.11,2.11,0,0,1,2.12,2.11Z" transform="translate(-0.08 -1.62)"/><path class="cls-17" d="M752.64,301.56a2.12,2.12,0,1,1-2.12-2.11,2.12,2.12,0,0,1,2.12,2.11Z" transform="translate(-0.08 -1.62)"/><path class="cls-17" d="M453.73,235a3.45,3.45,0,1,1-3.45-3.45,3.44,3.44,0,0,1,3.45,3.45Z" transform="translate(-0.08 -1.62)"/><path class="cls-17" d="M539.1,129.88a4,4,0,1,1-4,4,4,4,0,0,1,4-4Z" transform="translate(-0.08 -1.62)"/><path class="cls-17" d="M740,158.42a4.14,4.14,0,1,1-4.14-4.13,4.13,4.13,0,0,1,4.14,4.13Z" transform="translate(-0.08 -1.62)"/></svg>