<svg id="Capa_1" data-name="Capa 1" xmlns="http://www.w3.org/2000/svg" viewBox="0 0 40.66 50.86"><defs><style>.cls-1{fill:#fdfdfd;}.cls-2{fill:#221b1a;}.cls-3{fill:#3c2e2d;}.cls-4{fill:#6b0404;}.cls-5{fill:#6e0304;}.cls-6{fill:#857d7b;}.cls-7{fill:#817878;}.cls-8{fill:#59504e;}.cls-9{fill:#38302e;}.cls-10{fill:#251d1b;}.cls-11{fill:#847c7a;}.cls-12{fill:#857c7b;}.cls-13{fill:#39312f;}.cls-14{fill:#a2060e;}.cls-15{fill:#59504f;}.cls-16{fill:#766867;}.cls-17{fill:#4e4443;}.cls-18{fill:#de0214;}.cls-19{fill:#a70209;}.cls-20{fill:#fefefe;}.cls-21{fill:#f9de59;}.cls-22{fill:#a1dffb;}.cls-23{fill:#fafcfc;}.cls-24{fill:#f98363;}.cls-25{fill:#f7f8f9;}.cls-26{fill:#f3f8f8;}.cls-27{fill:#fcc00f;}.cls-28{fill:#ecf3f6;}.cls-29{fill:#f2d121;}.cls-30{fill:#fddc02;}.cls-31{fill:#241f20;}.cls-32{fill:#242527;}.cls-33{fill:#dbdadd;}.cls-34{fill:#4c4749;}.cls-35{fill:#37383a;}.cls-36{fill:#ceced0;}.cls-37{fill:#121213;}.cls-38{fill:#f8ae1e;}.cls-39{fill:#ebebed;}.cls-40{fill:#181514;}.cls-41{fill:#f1d022;}.cls-42{fill:#393430;}.cls-43{fill:#f5ce1f;}.cls-44{fill:#ececee;}.cls-45{fill:#faceaa;}.cls-46{fill:#f2f2f4;}.cls-47{fill:#2d292a;}.cls-48{fill:#dda47f;}</style></defs><title>MATEMAGIA</title><polygon class="cls-1" points="9 40.23 9 40.23 9 40.22 8.99 40.23 9 40.23 9 40.23"/><path class="cls-1" d="M22.4,39.62h0Z" transform="translate(-6.78 -0.24)"/><polygon class="cls-1" points="17.5 39.77 17.5 39.77 17.51 39.77 17.51 39.77 17.5 39.77 17.5 39.77"/><polygon class="cls-1" points="9.39 42.13 9.39 42.13 9.39 42.13 9.39 42.13"/><polygon class="cls-1" points="16.45 50.25 16.45 50.25 16.45 50.25 16.45 50.25 16.45 50.25 16.45 50.25"/><polygon class="cls-1" points="11.37 43.46 11.36 43.45 11.36 43.46 11.37 43.46 11.37 43.46"/><path class="cls-1" d="M23.7,38.16h0Z" transform="translate(-6.78 -0.24)"/><path class="cls-2" d="M16.15,50.52l-.06,0Z" transform="translate(-6.78 -0.24)"/><path class="cls-3" d="M15.21,42.23l0,0Z" transform="translate(-6.78 -0.24)"/><path class="cls-3" d="M28.55,40.54a.52.52,0,0,1-.24.35,3.56,3.56,0,0,1-1.26.73,18.37,18.37,0,0,1-5.13,1,21.51,21.51,0,0,1-3.11,0c-.88-.07-1.76-.1-2.64-.22h0l-.92-.13h0A7.06,7.06,0,0,1,14.06,42a7.44,7.44,0,0,1-1.46-.44l0,0h0a2,2,0,0,1-1.24-1l0,.28a1.22,1.22,0,0,0,.64.7,7.69,7.69,0,0,0,2.07.81,9.77,9.77,0,0,1,1.32.32c.61,0,1.2.13,1.81.17.22,0,.45,0,.68,0s.24,0,.34.06H22c.12,0,.25,0,.35-.06h0s.07-.06.11-.06c.73.07,1.44-.18,2.18-.14h0c.17-.18.42-.14.63-.19a8.74,8.74,0,0,0,2.62-.94,1.16,1.16,0,0,0,.66-.77Z" transform="translate(-6.78 -0.24)"/><path class="cls-4" d="M17.44,42.93a.47.47,0,0,1,.22,0,4,4,0,0,0,.49,0h0c-.1-.1-.23,0-.34-.06s-.46,0-.68,0c-.61,0-1.2-.18-1.81-.17l-.12.52h0l1.37.34h.05a7,7,0,0,0,1.52.19h0c-.13-.12-.29,0-.43-.07s-.42,0-.42-.34S17.32,43,17.44,42.93Z" transform="translate(-6.78 -0.24)"/><path class="cls-5" d="M24.67,42.65h0c-.74,0-1.45.21-2.18.14,0,0-.07,0-.11.06a.54.54,0,0,1,.29,0,.36.36,0,0,1,.16.32c0,.28,0,.46-.38.46,0,0-.05,0-.08.05.32.07.59-.19.91-.12h0a11.92,11.92,0,0,1,1.47-.28A2.32,2.32,0,0,0,24.67,42.65Z" transform="translate(-6.78 -0.24)"/><path class="cls-6" d="M21.91,39.56a3.33,3.33,0,0,0,.69-1.47.09.09,0,0,0,0-.05,10.63,10.63,0,0,1-.66,1.51Z" transform="translate(-6.78 -0.24)"/><path class="cls-7" d="M15.72,50.16h0l.26.13.18.05-.14-.1-.23-.13A.15.15,0,0,0,15.72,50.16Z" transform="translate(-6.78 -0.24)"/><path class="cls-2" d="M25.85,49.77c-.11-.62-.21-1.25-.31-1.88-.26-1.53-.52-3.06-.77-4.59a11.92,11.92,0,0,0-1.47.28h0a2.85,2.85,0,0,1,.11.87c.07,1,.24,2.06.29,3.09,0,.52.1,1,.13,1.57a1.74,1.74,0,0,1-.6,1.38h0c.34,0,.65-.14,1-.15a3.38,3.38,0,0,1-1.13.35h0a5.78,5.78,0,0,1-1.1.21h0a2.3,2.3,0,0,0-.69.09h-.06l.51,0a1.55,1.55,0,0,0,.52-.07h0a14.06,14.06,0,0,0,3.38-.78C25.86,50.1,25.89,50,25.85,49.77ZM21.42,51h0Z" transform="translate(-6.78 -0.24)"/><path class="cls-2" d="M17.82,50.8a10.76,10.76,0,0,1-1.66-.46L16,50.29l-.26-.13h0c-.12,0-.22,0-.25-.26a8.09,8.09,0,0,1,.35-2.64c.21-1.19.46-2.37.69-3.56h0l.06-.19-1.37-.34h0q-.69,3-1.39,6.06c0,.11,0,.22.1.3a7.61,7.61,0,0,0,2.18,1l.06,0a7.84,7.84,0,0,0,1.66.38C17.9,50.87,17.93,50.82,17.82,50.8Z" transform="translate(-6.78 -0.24)"/><path class="cls-8" d="M21.52,51h0Z" transform="translate(-6.78 -0.24)"/><path class="cls-8" d="M22,50.9h0Z" transform="translate(-6.78 -0.24)"/><path class="cls-9" d="M24.28,40a6.35,6.35,0,0,1-1-.22.13.13,0,0,1,0,0,1.22,1.22,0,0,1-.92-.07l0,0h0c-.17.1-.33.16-.46-.06l0,0a7.22,7.22,0,0,1-1.61,0,4.59,4.59,0,0,0-1,0c-.66.08-1.32,0-2,.1a12.28,12.28,0,0,0-1.59.27c-.11,0-.27.05-.29.18s.17.13.26.18a.43.43,0,0,1,.1.09s0,0,0,0h0l.12,0A3.18,3.18,0,0,1,17,40.3a10.51,10.51,0,0,1,1.37-.09c.52,0,1-.11,1.54-.06a30.71,30.71,0,0,1,3.32.25.68.68,0,0,1,.2.07l.43-.08c.22,0,.36-.15.38-.38Z" transform="translate(-6.78 -0.24)"/><path class="cls-9" d="M23.9,40.39l-.43.08.09.07h0a3.92,3.92,0,0,0,.59-.15c.17-.06.32-.17.13-.38C24.26,40.24,24.12,40.34,23.9,40.39Z" transform="translate(-6.78 -0.24)"/><path class="cls-9" d="M15.69,40.34c-.09-.05-.28,0-.26-.18s.18-.15.29-.18a12.28,12.28,0,0,1,1.59-.27c.65-.1,1.31,0,2-.1a4.59,4.59,0,0,1,1,0,7.22,7.22,0,0,0,1.61,0l0,0h0c-.79,0-1.58-.1-2.36,0a21.14,21.14,0,0,0-2.39.12,6.14,6.14,0,0,0-1.75.37c-.08,0-.19,0-.2.15s.09.14.15.2.3,0,.42.13,0,0,0,0A.43.43,0,0,0,15.69,40.34Z" transform="translate(-6.78 -0.24)"/><path class="cls-9" d="M23.32,39.79a6.35,6.35,0,0,0,1,.22,2.21,2.21,0,0,0-1-.27h0A.13.13,0,0,0,23.32,39.79Z" transform="translate(-6.78 -0.24)"/><path class="cls-9" d="M23.29,39.74h0c-.28-.12-.6,0-.89-.1l0,0A1.22,1.22,0,0,0,23.29,39.74Z" transform="translate(-6.78 -0.24)"/><path class="cls-9" d="M23.3,39.74h0Z" transform="translate(-6.78 -0.24)"/><path class="cls-9" d="M22.37,39.62h0c-.15,0-.32,0-.46-.06h0C22,39.78,22.2,39.72,22.37,39.62Z" transform="translate(-6.78 -0.24)"/><polygon class="cls-9" points="15.14 39.32 15.13 39.31 15.13 39.32 15.14 39.32"/><path class="cls-10" d="M19.84,40.25a31.79,31.79,0,0,0-3.37.23c-.15,0-.31,0-.46,0l.88.17h0c.16,0,.33,0,.48,0h.24a.33.33,0,0,1,.13-.07c1.05.06,2.1,0,3.15,0a18.94,18.94,0,0,0,2.38-.2,11.6,11.6,0,0,0-2.12-.18C20.71,40.32,20.28,40.23,19.84,40.25Z" transform="translate(-6.78 -0.24)"/><path class="cls-10" d="M20.89,40.7c-1.05,0-2.1,0-3.15,0a.33.33,0,0,0-.13.07h0a3,3,0,0,1,.52.06,40.07,40.07,0,0,0,4.1-.07,6.57,6.57,0,0,0,1.32-.19l-.29,0A18.94,18.94,0,0,1,20.89,40.7Z" transform="translate(-6.78 -0.24)"/><path class="cls-10" d="M16.47,40.48a31.79,31.79,0,0,1,3.37-.23c.44,0,.87.07,1.31.07a11.6,11.6,0,0,1,2.12.18l.16,0h0a.68.68,0,0,0-.2-.07A30.71,30.71,0,0,0,20,40.15c-.51,0-1,.08-1.54.06A10.51,10.51,0,0,0,17,40.3a3.18,3.18,0,0,0-1.14.19l.11,0C16.16,40.49,16.32,40.5,16.47,40.48Z" transform="translate(-6.78 -0.24)"/><path class="cls-10" d="M23.47,40.47h0l-.16,0,.29,0h0Z" transform="translate(-6.78 -0.24)"/><path class="cls-11" d="M17.61,40.74l0,0a.1.1,0,0,0,.05,0h0Z" transform="translate(-6.78 -0.24)"/><path class="cls-12" d="M14.09,41.92a8.16,8.16,0,0,1-1.19-.36l-.19-.07-.11,0a7.44,7.44,0,0,0,1.46.44l.1,0Z" transform="translate(-6.78 -0.24)"/><path class="cls-12" d="M12.56,41.52h0l0,0,.11,0A.27.27,0,0,0,12.56,41.52Z" transform="translate(-6.78 -0.24)"/><path class="cls-12" d="M24.68,38.31c-.22.43-.67.64-1,1-.14.15-.35.23-.39.46h0a2.21,2.21,0,0,1,1,.27h0a.42.42,0,0,0,.31,0l2.32-1.1A10.25,10.25,0,0,0,24.68,38.31Z" transform="translate(-6.78 -0.24)"/><path class="cls-12" d="M23.7,38.16A5.35,5.35,0,0,0,22.57,38a.09.09,0,0,1,0,.05,3.33,3.33,0,0,1-.69,1.47c.14.1.31,0,.46.06h0c.12,0,.18-.08.24-.19.14-.29.33-.57.44-.87s.26-.43.53-.41Z" transform="translate(-6.78 -0.24)"/><path class="cls-12" d="M17.62,40.74a.1.1,0,0,1-.05,0l0,0h-.24l-.13,0a5.52,5.52,0,0,0-.77.48c-.42.26-.82.54-1.24.79-.07,0-.1.07-.1.1l.14,0c.3.08.64,0,.9.22h0L17.52,41c.07-.06.2-.12.1-.26Z" transform="translate(-6.78 -0.24)"/><path class="cls-12" d="M16.75,40.75l.14-.07L16,40.51l-.11,0-.12,0h0a1.63,1.63,0,0,0-.31,0l-2.79.89c-.07,0-.11,0-.11.13h0a.27.27,0,0,1,.15,0l.19.07a8.16,8.16,0,0,0,1.19.36h.07c.66-.34,1.36-.59,2-.91C16.39,40.94,16.57,40.84,16.75,40.75Z" transform="translate(-6.78 -0.24)"/><path class="cls-13" d="M23.3,43.58Z" transform="translate(-6.78 -0.24)"/><path class="cls-3" d="M16.62,43.51h-.05l.05,0Z" transform="translate(-6.78 -0.24)"/><path class="cls-3" d="M23.83,49.11c0-.53-.1-1-.13-1.57-.05-1-.22-2.06-.29-3.09a2.85,2.85,0,0,0-.11-.87h0c-.32-.07-.59.19-.91.12h0L21,43.85h0c.15,1.63.2,3.26.2,4.9,0,.49.12,1,.15,1.46,0,.31,0,.41.22.45a2,2,0,0,0,.42,0h0c.38,0,.74-.11,1.11-.13h0l.13-.07h0A1.74,1.74,0,0,0,23.83,49.11Z" transform="translate(-6.78 -0.24)"/><path class="cls-3" d="M18.15,43.7h0a7,7,0,0,1-1.52-.19v0l-.05,0-.06.19h0c-.23,1.19-.48,2.37-.69,3.56a8.09,8.09,0,0,0-.35,2.64c0,.23.13.21.25.26h0a.15.15,0,0,1,.07,0c.08,0,.15.06.22.08a9.46,9.46,0,0,0,1.74.37l.11,0-.11,0a.22.22,0,0,0,.17,0,.51.51,0,0,0,.15-.31,5.67,5.67,0,0,0,.21-1.35c.07-1.26.19-2.52.21-3.79,0-.39.08-.78.12-1.17h0v-.12h0Z" transform="translate(-6.78 -0.24)"/><polygon class="cls-14" points="15.59 43.45 15.59 43.46 15.59 43.45 15.6 43.45 15.6 43.45 15.59 43.45"/><path class="cls-15" d="M16.88,40.76h0a1.34,1.34,0,0,0,.2,0,.36.36,0,0,1,.29,0c-.15-.09-.32,0-.48,0h0A.1.1,0,0,1,16.88,40.76Z" transform="translate(-6.78 -0.24)"/><polygon class="cls-15" points="8.47 42.01 8.47 42.01 8.47 42.01 8.47 42.01"/><path class="cls-15" d="M17.37,40.73a.36.36,0,0,0-.29,0h.16l.13,0Z" transform="translate(-6.78 -0.24)"/><path class="cls-15" d="M28.24,39.58a3.79,3.79,0,0,0-1.32-.69L24.6,40a.42.42,0,0,1-.31,0h0c.19.21,0,.32-.13.38a3.92,3.92,0,0,1-.59.15h0a6.57,6.57,0,0,1-1.32.19,40.07,40.07,0,0,1-4.1.07,3,3,0,0,0-.52-.06c.1.14,0,.2-.1.26l-1.35,1.38h0c.88.12,1.76.15,2.64.22a21.51,21.51,0,0,0,3.11,0,18.37,18.37,0,0,0,5.13-1,3.56,3.56,0,0,0,1.26-.73.52.52,0,0,0,.24-.35l0,.21A1.09,1.09,0,0,0,28.24,39.58Z" transform="translate(-6.78 -0.24)"/><path class="cls-15" d="M15.77,40.47h0c-.12-.12-.31,0-.42-.13s-.16-.1-.15-.2.12-.11.2-.15a6.14,6.14,0,0,1,1.75-.37,21.14,21.14,0,0,1,2.39-.12c.78,0,1.57.08,2.36,0A10.63,10.63,0,0,0,22.57,38C22,38,21.5,38,21,37.94a25.19,25.19,0,0,0-7.29.7,5.23,5.23,0,0,0-2.05.93,1.12,1.12,0,0,0-.33,1.25l0-.28a2,2,0,0,0,1.24,1c0-.08,0-.11.11-.13l2.79-.89A1.63,1.63,0,0,1,15.77,40.47Z" transform="translate(-6.78 -0.24)"/><path class="cls-15" d="M22.4,39.62h0c.29.13.61,0,.89.1h0c0-.23.25-.31.39-.46.32-.33.77-.54,1-1a5.54,5.54,0,0,0-1-.15h-.09c-.27,0-.43.13-.53.41s-.3.58-.44.87C22.58,39.54,22.52,39.62,22.4,39.62Z" transform="translate(-6.78 -0.24)"/><path class="cls-15" d="M15.27,42.16l-.14,0s0-.06.1-.1c.42-.25.82-.53,1.24-.79a5.52,5.52,0,0,1,.77-.48h-.16a1.34,1.34,0,0,1-.2,0h-.13c-.18.09-.36.19-.55.27-.68.32-1.38.57-2,.91l-.1,0a7.06,7.06,0,0,0,1.19.27h0l0,0,0,0h0l.92.13h0C15.91,42.14,15.57,42.24,15.27,42.16Z" transform="translate(-6.78 -0.24)"/><path class="cls-15" d="M16.89,40.68h0l-.14.07h.13A.1.1,0,0,0,16.89,40.68Z" transform="translate(-6.78 -0.24)"/><path class="cls-16" d="M19.47,43.84v.09h.48l.06-.09Z" transform="translate(-6.78 -0.24)"/><path class="cls-16" d="M24.22,50.34c-.34,0-.65.16-1,.15h0l-.13.07h0c-.37,0-.73.14-1.11.13h0a3.13,3.13,0,0,1-1,.06c-.34,0-.68,0-1,0h0a.29.29,0,0,0,0-.09,2.38,2.38,0,0,1,0-.46c0-1.47,0-2.93.06-4.4,0-.62,0-1.25,0-1.88h-.54c0,1.3,0,2.61-.07,3.91a18.18,18.18,0,0,1-.16,2.44c-.05.25-.13.37-.3.41h-.19a8.81,8.81,0,0,1-.88-.11l-.11,0A9.46,9.46,0,0,1,16,50.19c-.07,0-.14-.1-.22-.08l.23.13.14.1a10.76,10.76,0,0,0,1.66.46c.11,0,.08.07,0,.1a3.69,3.69,0,0,0,1,.13l.11,0a5.65,5.65,0,0,0,1.09,0h0a8.35,8.35,0,0,0,1.73,0l-.51,0h.06A2.3,2.3,0,0,1,22,50.9h0a5.78,5.78,0,0,0,1.1-.21h0A3.38,3.38,0,0,0,24.22,50.34Z" transform="translate(-6.78 -0.24)"/><path class="cls-16" d="M20,43.84l-.06.09H20Z" transform="translate(-6.78 -0.24)"/><path class="cls-17" d="M21.56,50.66c-.18,0-.21-.14-.22-.45,0-.49-.15-1-.15-1.46,0-1.64-.05-3.27-.2-4.9H20v.09c0,.63,0,1.26,0,1.88-.07,1.47,0,2.93-.06,4.4a2.38,2.38,0,0,0,0,.46.29.29,0,0,1,0,.09h0c.34,0,.68,0,1,0a3.13,3.13,0,0,0,1-.06h0A2,2,0,0,1,21.56,50.66Z" transform="translate(-6.78 -0.24)"/><path class="cls-17" d="M18.63,43.78h0v.12h0c0,.39-.11.78-.12,1.17,0,1.27-.14,2.53-.21,3.79a5.67,5.67,0,0,1-.21,1.35.51.51,0,0,1-.15.31.22.22,0,0,1-.17,0l.11,0a8.81,8.81,0,0,0,.88.11h.19c.17,0,.25-.16.3-.41a18.18,18.18,0,0,0,.16-2.44c.08-1.3.06-2.61.07-3.91v-.09A7.91,7.91,0,0,0,18.63,43.78Z" transform="translate(-6.78 -0.24)"/><path class="cls-18" d="M21.46,43a.36.36,0,0,0-.22,0L21,43l-.47,0a.17.17,0,0,0-.16.13c-.1.37,0,.54.38.54h.23a1.82,1.82,0,0,1,.33,0c.33,0,.31-.16.32-.39S21.55,43.05,21.46,43Z" transform="translate(-6.78 -0.24)"/><path class="cls-19" d="M22.83,43.19a.36.36,0,0,0-.16-.32.54.54,0,0,0-.29,0h0c-.1.09-.23.06-.35.06H18.15a4,4,0,0,1-.49,0,.47.47,0,0,0-.22,0c-.12,0-.16.17-.15.36s.23.3.42.34.3-.05.43.07h0l.46.08h0a7.91,7.91,0,0,1,.84.06H21l1.38-.15h0s.06-.05.08-.05C22.78,43.65,22.85,43.47,22.83,43.19Zm-1.56.52a1.82,1.82,0,0,0-.33,0h-.23c-.37,0-.48-.17-.38-.54a.17.17,0,0,1,.16-.13L21,43l.28,0a.36.36,0,0,1,.22,0c.09,0,.13.15.13.31S21.6,43.75,21.27,43.71Z" transform="translate(-6.78 -0.24)"/><path class="cls-2" d="M15.9,37c-.7,0-.7,0-.91-.65s-.29-.57.31-1,.59-.43,1.17,0,.52.37.32,1c0,0,0,0,0,.07C16.48,37.18,16.71,37,15.9,37Z" transform="translate(-6.78 -0.24)"/><path class="cls-20" d="M22.27,37.6a1.65,1.65,0,0,0,.7-.4A2.13,2.13,0,0,0,22.63,34a4.14,4.14,0,0,0-1.86-.61A2.39,2.39,0,0,0,18,34.92c-.07.18-.06.26.16.3.51.11,1,.25,1.53.39.15,0,.22,0,.27-.12a.69.69,0,0,1,.46-.48.91.91,0,0,1,.95.29.88.88,0,0,1-.06,1,.67.67,0,0,1-.89.17c-.19-.08-.23,0-.27.16s-.15.64-.25,1,0,.3.21.33a.94.94,0,0,1,.89.86.33.33,0,0,0-.07.13,1.64,1.64,0,0,1-.1.38.85.85,0,0,1-1,.57A1,1,0,0,1,19,39l-.06-.07c-.08-.15.14-.38-.17-.45-.58-.14-1.16-.28-1.74-.44-.16,0-.19,0-.2.15s0,.49-.07.74a.32.32,0,0,0-.08.21,2.56,2.56,0,0,0,.15.73,1.36,1.36,0,0,0,.55.83,2.86,2.86,0,0,0,.58.13,29.43,29.43,0,0,0,4.2.13.86.86,0,0,0,.44-.1.89.89,0,0,0,.36-.45,4.13,4.13,0,0,0,.29-1.15.35.35,0,0,0-.1-.26A1.73,1.73,0,0,0,22.27,37.6Z" transform="translate(-6.78 -0.24)"/><path class="cls-21" d="M14.08,16.18a3.62,3.62,0,0,0,1.36-1.06,1.1,1.1,0,0,0-.16-1.61,1.58,1.58,0,0,0-1.11-.32,1.12,1.12,0,0,0-1,1,.94.94,0,0,0,.58,1c.08,0,.2,0,.21.18l-.87.52V16C13.42,16.07,13.73,16.34,14.08,16.18Zm.35-2.24a.39.39,0,0,1,.43.43.37.37,0,0,1-.39.39.42.42,0,0,1-.47-.43A.38.38,0,0,1,14.43,13.94Z" transform="translate(-6.78 -0.24)"/><path class="cls-22" d="M20.24,30.75a.74.74,0,0,0-.18-1.27,1.57,1.57,0,0,0-.83-.14.74.74,0,0,0-.62,1.06c.09.2.06.27-.1.37a.76.76,0,0,0-.35.83.82.82,0,0,0,.57.66,1.43,1.43,0,0,0,.64.12.83.83,0,0,0,.84-.4.78.78,0,0,0-.06-.95C20,30.87,20.15,30.83,20.24,30.75Zm-1,1a.3.3,0,0,1-.33-.32.29.29,0,0,1,.32-.32.32.32,0,1,1,0,.64Zm.53-1.55a.25.25,0,0,1-.28.25.27.27,0,1,1,0-.53C19.65,30,19.8,30,19.79,30.21Z" transform="translate(-6.78 -0.24)"/><path class="cls-1" d="M12.49,23.54a.75.75,0,0,0,0-.21c-.18-.77-.2-.78-.91-.45l0,0a1.64,1.64,0,0,0-.92.62,1.27,1.27,0,0,0-.29.55.48.48,0,0,0,.24.5.34.34,0,0,0,.44,0c.09-.07.17-.19.3-.12,0,.35-.31.52-.57.73l.53.24a3.08,3.08,0,0,1,.21-.95c0,.18.08.3.12.41s.05.36.27.41a.6.6,0,0,0,.58-.25.87.87,0,0,0,.16-.52A9.25,9.25,0,0,0,12.49,23.54Z" transform="translate(-6.78 -0.24)"/><path class="cls-18" d="M8.12,20.14A1.1,1.1,0,0,0,9.26,20a1,1,0,0,0,.33-1.25.8.8,0,0,0-1.05-.41c-.19,0-.21,0-.18-.17a2.65,2.65,0,0,0,.16-.72c-.28.18-.64.19-.76.48a2.84,2.84,0,0,0-.21,1.26A1.07,1.07,0,0,0,8.12,20.14Zm.52-1.29a.33.33,0,0,1,.34.39c0,.22-.16.32-.37.34a.36.36,0,0,1-.34-.4A.33.33,0,0,1,8.64,18.85Z" transform="translate(-6.78 -0.24)"/><path class="cls-22" d="M11.62,19.2a1.87,1.87,0,0,0-.25,1.44.88.88,0,0,0,.77.66,1,1,0,0,0,1-.46,2.4,2.4,0,0,0,.27-1,.94.94,0,0,0-1-1A.74.74,0,0,0,11.62,19.2Zm.88.15c.22,0,.23.27.24.48a2,2,0,0,1-.23.73.3.3,0,0,1-.3.15c-.15,0-.19-.14-.22-.26a1.56,1.56,0,0,1,.12-.77C12.17,19.5,12.28,19.31,12.5,19.35Z" transform="translate(-6.78 -0.24)"/><path class="cls-18" d="M21.4,12.06c0-.09,0-.28-.22-.2s-.2,0-.24-.15l-.38-1c0-.06,0-.16-.12-.18a1.94,1.94,0,0,0-.78.37c-.12.56-.24,1.13-.37,1.7,0,.36.2.49.55.36a4.94,4.94,0,0,0,.49-.19c.2-.11.32-.07.36.16s.21.25.4.16.41-.09.24-.39c-.07-.12-.18-.27.08-.36S21.43,12.16,21.4,12.06Zm-1.46.26a4.8,4.8,0,0,1,.14-.83C20.46,12.1,20.45,12.15,19.94,12.32Z" transform="translate(-6.78 -0.24)"/><path class="cls-18" d="M17.29,30.57a1.73,1.73,0,0,0,.13-.74.71.71,0,0,0-.58-.7.74.74,0,0,0-.87.37,1.63,1.63,0,0,0-.21.78.75.75,0,0,0,.63.86A.77.77,0,0,0,17.29,30.57Zm-1-.28a1.21,1.21,0,0,1,.16-.59c.06-.08.13-.16.24-.14a.23.23,0,0,1,.19.21,1.16,1.16,0,0,1-.18.81.2.2,0,0,1-.25.11C16.27,30.62,16.3,30.45,16.29,30.29Z" transform="translate(-6.78 -0.24)"/><path class="cls-23" d="M15.7,17.6l.84,1c.21-.41.41-.78.61-1.16.05-.1,0-.16-.06-.23l-.83-1-.59,1.14A.18.18,0,0,0,15.7,17.6Z" transform="translate(-6.78 -0.24)"/><path class="cls-2" d="M17.93,17.59c.43.06.67.25.68.7.27-.37.58-.36,1-.15-.25-.46-.1-.73.31-1-.52,0-.69-.28-.72-.76-.26.46-.57.44-1,.28C18.48,17.1,18.27,17.35,17.93,17.59Z" transform="translate(-6.78 -0.24)"/><path class="cls-24" d="M23.31,14.15c-.41-.17-.81-.34-1.22-.49-.18-.06-.22.09-.27.21s0,.2.12.24.18.09.27.11c.29.08.23.2.05.35l-.85.67c-.16.13-.14.22.05.29l.29.1.11-.05,1.48-1.26C23.43,14.24,23.39,14.18,23.31,14.15Z" transform="translate(-6.78 -0.24)"/><path class="cls-24" d="M12.35,28.46c.12,0,.13-.06.08-.19-.15-.41-.31-.82-.45-1.23-.06-.17-.13-.14-.23,0-.27.32-.55.64-.82,1-.08.1-.15.21.07.24Z" transform="translate(-6.78 -0.24)"/><path class="cls-2" d="M12.28,17.61l-.94-1.45-.79,1.55Z" transform="translate(-6.78 -0.24)"/><path class="cls-24" d="M17,14.76c.28,0,.43.15.29.46a.91.91,0,0,0,0,.16c-.05.12.06.15.17.19s.23,0,.24-.13c0-.4.21-.54.59-.36.12.05.2,0,.24-.15s0-.21-.14-.24a.59.59,0,0,0-.19,0c-.21,0-.32-.11-.22-.35A.87.87,0,0,0,18,14.1c0-.14,0-.22-.18-.25s-.2.05-.21.18c0,.35-.2.47-.54.33-.16-.06-.26,0-.29.18S16.89,14.75,17,14.76Z" transform="translate(-6.78 -0.24)"/><path class="cls-24" d="M17.24,26.42a.63.63,0,0,0-.87-.27c-.07.05-.2.1-.14.22a.3.3,0,0,0,.25.19c.05,0,.1,0,.16,0a.14.14,0,0,1,.19.08.16.16,0,0,1-.07.2,1.88,1.88,0,0,1-.3.12l-.81.21a6.22,6.22,0,0,0,.82.63.13.13,0,0,0,.2,0c0-.08.14-.15,0-.26s-.14-.08-.13-.19.24-.08.36-.14A.5.5,0,0,0,17.24,26.42Z" transform="translate(-6.78 -0.24)"/><path class="cls-22" d="M14.61,25.64c-.25.15-.44.19-.55-.15,0-.11-.09-.26-.28-.16s-.16.25-.06.38.13.38-.14.5c-.12.05-.29.1-.17.3s.24.13.36,0,.39-.13.5.14c.05.11.1.24.29.17s.13-.24.06-.36-.16-.39.14-.49a.26.26,0,0,0,.2-.18C15,25.63,14.79,25.53,14.61,25.64Z" transform="translate(-6.78 -0.24)"/><path class="cls-25" d="M8.93,30.17c0,.19.13.15.26.12a1.23,1.23,0,0,1,.47-.09l-.38,1.39c.2-.09.45,0,.52-.22.17-.57.3-1.15.46-1.76-.43.11-.8.22-1.17.29C8.9,29.94,8.89,30,8.93,30.17Z" transform="translate(-6.78 -0.24)"/><path class="cls-26" d="M16.4,19.78a.67.67,0,0,0-.84-.23c-.12.07-.29.18-.22.31a.25.25,0,0,0,.43,0c.06-.08.15-.07.23,0s.06.15,0,.23a.63.63,0,0,1-.29.22l-.82.39,1,.41c.12.06.17,0,.21-.1s.09-.18-.06-.23a1.48,1.48,0,0,1-.22-.11l.36-.2A.56.56,0,0,0,16.4,19.78Z" transform="translate(-6.78 -0.24)"/><path class="cls-22" d="M19.88,14.46a.63.63,0,0,0-.58.6.56.56,0,0,0,.58.57.53.53,0,0,0,.59-.55A.6.6,0,0,0,19.88,14.46Z" transform="translate(-6.78 -0.24)"/><path class="cls-2" d="M9.46,26.63c-.35,0-.67.33-.7.8a.52.52,0,0,0,.51.57c.32,0,.64-.37.66-.81A.49.49,0,0,0,9.46,26.63Zm.11.55c-.05.2-.07.45-.34.49-.11,0-.12-.13-.11-.25s.07-.44.34-.46S9.6,27.08,9.57,27.18Z" transform="translate(-6.78 -0.24)"/><path class="cls-27" d="M8.38,22.66c.25-.13.14-.33.1-.52-.08.13.07.35-.15.38s-.16-.21-.22-.33a.32.32,0,0,1,0-.09c-.06-.25-.3-.52.08-.72.06,0,.06-.15,0-.24a1,1,0,0,1-.38.21c-.25.07-.5.15-.74.24s-.32.22-.2.51c.07-.15.12-.3.26-.28s.11.2.15.3a1.22,1.22,0,0,1,.09.42c0,.23-.08.33-.35.11.08.24.13.42.34.38s.19-.25.16-.41a4.23,4.23,0,0,0-.18-.7c0-.14,0-.2.13-.23s.21-.07.26.11a5,5,0,0,0,.23.65C8,22.67,8.16,22.78,8.38,22.66Z" transform="translate(-6.78 -0.24)"/><path class="cls-24" d="M10.84,21.66c-.47.05-.58-.23-.64-.62-.09.51-.42.48-.79.41a.6.6,0,0,1,.17.89.58.58,0,0,1,.86.12C10.32,22.06,10.55,21.86,10.84,21.66Z" transform="translate(-6.78 -0.24)"/><path class="cls-28" d="M9.15,16.14c.14,0,.16.16.26.24s.11.24.3.19.15-.23.14-.35c0-.49.08-.91.7-.93a.18.18,0,0,0,.09,0,.07.07,0,0,0,0-.11s-.06-.09-.07-.09a7.1,7.1,0,0,0-.82.25c-.14.06-.06.24-.08.36a5,5,0,0,0-.07.63l-.3-.35c-.09-.11-.18,0-.27,0a.09.09,0,0,0-.08.12C9,16.16,9.07,16.14,9.15,16.14Z" transform="translate(-6.78 -0.24)"/><path class="cls-24" d="M16.9,32.13a.44.44,0,0,0,0,.88.45.45,0,0,0,.43-.46A.44.44,0,0,0,16.9,32.13Z" transform="translate(-6.78 -0.24)"/><path class="cls-24" d="M17,33.67a.43.43,0,1,0-.86,0,.44.44,0,0,0,.44.43A.41.41,0,0,0,17,33.67Z" transform="translate(-6.78 -0.24)"/><path class="cls-2" d="M17,12.46c.32-.33.55-.2.79.09a.51.51,0,0,1,.35-.73c-.43.06-.53-.2-.56-.55-.11.42-.37.46-.73.37C17.21,11.85,17.2,12.11,17,12.46Z" transform="translate(-6.78 -0.24)"/><path class="cls-2" d="M19.34,28c-.16.23-.4.21-.63.29.06-.23.3-.38.24-.57s-.35-.18-.48-.38c.24-.05.45-.21.66,0,0-.13,0-.32-.19-.25a3.18,3.18,0,0,0-.8.28,4.71,4.71,0,0,0,.5.3c.17.09.19.18.09.33s-.18.33-.3.56c.32-.1.55-.19.79-.24S19.45,28.15,19.34,28Z" transform="translate(-6.78 -0.24)"/><path class="cls-24" d="M13.9,18.11a.36.36,0,0,0,.37-.37c0-.25-.16-.38-.38-.37a.37.37,0,0,0,0,.74Z" transform="translate(-6.78 -0.24)"/><path class="cls-21" d="M14.73,32.66a1.1,1.1,0,0,0-.85-1c-.11,0-.28,0-.3-.14s.12-.19.22-.26a2.91,2.91,0,0,0,.82-.62l-1-.17a.36.36,0,0,0-.31.07,5.91,5.91,0,0,0-1.07,1h0a1.77,1.77,0,0,0-.33.52c-.3.82-.19,1.49.61,1.87a1.76,1.76,0,0,0,1.44.05A1.4,1.4,0,0,0,14.73,32.66Zm-1.52.64a.51.51,0,0,1-.52-.49.5.5,0,0,1,.51-.52.45.45,0,0,1,.53.45A.51.51,0,0,1,13.21,33.3Z" transform="translate(-6.78 -0.24)"/><path class="cls-24" d="M14.69,18.61a.32.32,0,0,0-.33-.36c-.27,0-.39.14-.39.34a.36.36,0,0,0,.72,0Z" transform="translate(-6.78 -0.24)"/><path class="cls-29" d="M15,12.22l.76.22c.07,0,.09,0,.1-.09s0-.12-.05-.13L15.09,12c-.15,0-.17,0-.2.07S14.89,12.2,15,12.22Z" transform="translate(-6.78 -0.24)"/><path class="cls-30" d="M14.71,28.58A.47.47,0,0,0,15,28a.3.3,0,0,0-.34-.2c-.32,0-.33.28-.39.52a.53.53,0,0,1-.11-.09.31.31,0,0,0-.45,0,.35.35,0,0,0,0,.45.31.31,0,0,0,.43.1c.06,0,.11-.08.18,0a1,1,0,0,1-.18.18c-.32.23-.08.26.09.35l.12-.5c.18,0,.12.16.14.25.08.26.25.25.44.17a.31.31,0,0,0,.21-.3C15.07,28.71,14.86,28.68,14.71,28.58Z" transform="translate(-6.78 -0.24)"/><path class="cls-21" d="M22.11,31.65h0c-.3,0-.12-.33-.27-.44-.13.1-.15.3-.32.35a.45.45,0,0,0-.36,0,.48.48,0,0,0,.21.25h0l0,.06v.07c0,.13-.18.25-.1.34s.25-.12.41-.08h.06a.48.48,0,0,0,.31.24c0-.18-.09-.35,0-.5a.4.4,0,0,0,.29-.18C22.33,31.62,22.21,31.64,22.11,31.65Z" transform="translate(-6.78 -0.24)"/><path class="cls-24" d="M19.52,19.79c-.59-.71-.71-.74-1.58-.49-.43.12-.34.5-.46.79a.6.6,0,0,0,.27.81c.17.18.28.46.58.44a2.72,2.72,0,0,0,.55-.18h0c.19,0,.42,0,.48-.25h0c.07-.27.15-.53.23-.79A.34.34,0,0,0,19.52,19.79Z" transform="translate(-6.78 -0.24)"/><path class="cls-22" d="M12.19,29.55l-.42.05-.08-.07a.37.37,0,0,0-.16-.28.74.74,0,0,0-.11.41h0l-.51.12.44.22c0,.14,0,.29,0,.44a.61.61,0,0,0,.24-.24h0c.17,0,.31.16.49.13a2,2,0,0,1-.14-.41C12,29.78,12.2,29.74,12.19,29.55Z" transform="translate(-6.78 -0.24)"/><path class="cls-21" d="M9.3,24.66c-.05-.17-.33-.14-.38-.37s-.2-.21-.33,0a.15.15,0,0,1-.09,0c-.38-.12-.5,0-.43.4a.13.13,0,0,1,0,.06h0L8,24.78c-.23.22-.22.23.19.35h0l.06.06c0,.12,0,.31.13.35s.16-.08.2-.17h0a.26.26,0,0,1,.28,0c.25.1.3,0,.24-.23S9.33,24.81,9.3,24.66Z" transform="translate(-6.78 -0.24)"/><path class="cls-22" d="M25.46,10.36h0a.47.47,0,0,0-.58-.19c-.34.18-.28-.05-.28-.22A1,1,0,0,0,24,9.06c-.22-.15-.75,0-1,.31s-.29.45-.1.71h0a1.61,1.61,0,0,0,.23.43c.21.22.13.29-.14.3a.62.62,0,0,0-.62.57.84.84,0,0,0,.58.85.67.67,0,0,0,.79-.38c.06-.13.06-.28.17-.39.14.14.09.31.09.47,0,.67,0,.67.65.45,0-.22-.2-.35-.3-.53a.83.83,0,0,1-.16-.5,2.89,2.89,0,0,1,.61.3.42.42,0,0,0,.6-.13A.82.82,0,0,0,25.46,10.36Z" transform="translate(-6.78 -0.24)"/><path class="cls-1" d="M39,1.32h0Z" transform="translate(-6.78 -0.24)"/><polygon class="cls-1" points="38.91 3.88 38.9 3.88 38.9 3.88 38.91 3.88"/><path class="cls-1" d="M44.91,4.76h0Z" transform="translate(-6.78 -0.24)"/><polygon class="cls-1" points="19.97 8.38 19.97 8.38 19.97 8.39 19.97 8.38"/><path class="cls-1" d="M25.78,9.59h0l0,0h0Z" transform="translate(-6.78 -0.24)"/><path class="cls-1" d="M44.93,4.74Z" transform="translate(-6.78 -0.24)"/><path class="cls-31" d="M38,5.59h0a.3.3,0,0,0-.34,0,.73.73,0,0,1-.39.15c-.41.1-.81.23-1.21.37s-.7.17-1,.31a12.52,12.52,0,0,1-1.35.44c-.61.18-1.21.4-1.82.57-.87.25-1.73.52-2.59.8-.12,0-.26.13-.39,0h0l-.06.21c0,.19-.11.39-.16.59h0l2.51-.9h0A2.27,2.27,0,0,1,31.81,8h0l.92-.35c1-.38,2.07-.73,3.1-1.1.66-.25,1.32-.5,2-.69L38,5.6Z" transform="translate(-6.78 -0.24)"/><path class="cls-32" d="M47.31,3.31c0,.11,0,.22-.1.27S47,3.5,47,3.39a5.49,5.49,0,0,1-.2-.57,1.76,1.76,0,0,0-1.06-1.16c-.35-.16-.37-.34-.08-.58,0,0,.16,0,.1-.14l-.81.47c.14.19.14.43.26.64s.18.19.23.3.2.12,0,.17h0a1.5,1.5,0,0,1,.36,1.07h0c0,.19-.07.35-.09.53h0c.12-.1.07-.28.19-.42-.05.29-.09.54.22.68a.58.58,0,0,0,.43,0A3.13,3.13,0,0,0,47.35,4l-.13.54a.49.49,0,0,0,.11-.23,3.13,3.13,0,0,0,0-1.49C47.23,3,47.3,3.15,47.31,3.31Z" transform="translate(-6.78 -0.24)"/><path class="cls-33" d="M35.1,4.75l.06,0-.07-.1h0A.18.18,0,0,0,35,4.55.56.56,0,0,0,35.1,4.75Z" transform="translate(-6.78 -0.24)"/><path class="cls-34" d="M35.19,5.16l-1.14.22-3.73.71c.07.1,0,.1-.07.11l-1.78.35c-.07,0-.16,0-.2-.07h0a.41.41,0,0,0-.24,0h0c.21.12.31.35.49.51h0c.52-.13,1-.25,1.56-.39,1-.25,2-.43,3-.71.71-.2,1.44-.32,2.17-.48a1.64,1.64,0,0,0,.38-.1l.09,0Z" transform="translate(-6.78 -0.24)"/><path class="cls-35" d="M47.36,2.84A3.23,3.23,0,0,0,46.4,1c-.3-.29-.31-.28-.67,0,.06.11,0,.11-.1.14-.29.24-.27.42.08.58a1.76,1.76,0,0,1,1.06,1.16,5.49,5.49,0,0,0,.2.57c0,.11.09.23.24.19s.1-.16.1-.27S47.23,3,47.36,2.84Z" transform="translate(-6.78 -0.24)"/><path class="cls-36" d="M40.11,1.43A.26.26,0,0,0,40,1.5v0h.06s.07,0,.11,0Z" transform="translate(-6.78 -0.24)"/><path class="cls-37" d="M44.94,4.71h0a0,0,0,0,0,0,0v0Z" transform="translate(-6.78 -0.24)"/><path class="cls-37" d="M44.93,4.74h0Z" transform="translate(-6.78 -0.24)"/><path class="cls-38" d="M28.81,8.32a2.21,2.21,0,0,0-.61-1.51h0c-.06-.13-.24-.13-.27-.28h0l-1.85.35c-.19,0-.28,0-.21-.21.17-.53.32-1,.48-1.58.2-.69.37-1.38.53-2.09-.12,0-.11.13-.15.19h0c-.1.52-.35,1-.49,1.48-.21.68-.42,1.36-.59,2,0,.13-.05.25-.19.31a.54.54,0,0,0-.36.54,2.76,2.76,0,0,0,.68,2h0a4.6,4.6,0,0,1-.45-1c0-.37-.28-.7-.17-1.1a.45.45,0,0,1,.47-.39c.21,0,.42.08.44.36a.11.11,0,0,0,.05.09c.44.2.36.71.59,1l0,.07h0c.07-.3-.12-.53-.19-.78a1.26,1.26,0,0,0-.37-.59c-.17-.15-.11-.29.1-.33l1.37-.28c.21,0,.36.09.52.19h0A3.14,3.14,0,0,1,28.7,8c0,.35,0,.43-.34.55A7.47,7.47,0,0,1,27,8.91c-.19,0-.22.27-.24.46s.05.23-.13.23h0l-.27.2c.21,0,.38-.14.58-.13h0l1.67-.59h0c.05-.2.11-.4.16-.59Z" transform="translate(-6.78 -0.24)"/><polygon class="cls-39" points="32.22 1.07 32.22 1.07 32.22 1.07 32.22 1.07"/><path class="cls-40" d="M47.22,4.56,47.35,4a3.13,3.13,0,0,1-.82.33.58.58,0,0,1-.43,0c-.31-.14-.27-.39-.22-.68-.12.14-.07.32-.19.42h0l-.19.29h0c-.09.27-.33.27-.55.3v0h0a.53.53,0,0,0,.34.37,2.08,2.08,0,0,1,.77.46c.18.22.31.18.48,0l.09-.06c.13-.08.15-.14,0-.26a2.94,2.94,0,0,0-.83-.52l.45-.1Z" transform="translate(-6.78 -0.24)"/><path class="cls-40" d="M45.12,2.21h0c.13.07.17.21.28.3h0c.2,0,0-.13,0-.17s-.16-.18-.23-.3-.12-.45-.26-.64c-.24.09-.42.22-.34.51a.16.16,0,0,0,.17.1A.36.36,0,0,1,45.12,2.21Z" transform="translate(-6.78 -0.24)"/><path class="cls-36" d="M44.85,4.63l.08-.42h0c-.18-.08-.19-.28-.28-.43s0-.14-.14-.14-.12.08-.13.15c-.11.91-.88,1.2-1.53,1.59a7.31,7.31,0,0,1-1.44.53,1.2,1.2,0,0,1-1.22-.19A1.1,1.1,0,0,0,39,5.65c-.34.15-.62,0-.67-.31a.5.5,0,0,0-.21.17h0l0,0-.08,0h0l-.18.22a.79.79,0,0,0,1,.5,5.11,5.11,0,0,1,.59-.13,5.28,5.28,0,0,1,1.31.28h0a2.25,2.25,0,0,0,1.47,0,9.65,9.65,0,0,0,1.55-1.06c.22-.16.37-.46.73-.36.06,0,.15-.08.22-.13s.09-.14.19-.12h0a0,0,0,0,1,0,0h0S44.85,4.69,44.85,4.63Z" transform="translate(-6.78 -0.24)"/><path class="cls-36" d="M40.81,4.45l.14.08s.1,0,.1.11-.07.09-.13.11a3.35,3.35,0,0,1-1.36.32c.23.06.39.27.61.36a.61.61,0,0,0,.6,0A3.22,3.22,0,0,0,41.39,5c.33-.33.23-.55-.08-.75A2.08,2.08,0,0,0,39.71,4c-.88.19-1.72.49-2.58.76a3.46,3.46,0,0,1-1.5.25.7.7,0,0,1-.47-.2l-.06,0a.56.56,0,0,1-.14-.2c-.1.27.12.42.23.61l.57.14a17.34,17.34,0,0,0,3.41-.84A2.21,2.21,0,0,1,40.81,4.45Z" transform="translate(-6.78 -0.24)"/><path class="cls-36" d="M38.56,3.51a2.17,2.17,0,0,1,.87-.16h0a3.53,3.53,0,0,1,.79-.08h.1a1,1,0,0,0,.25-.08s0-.06,0-.06c-.38.07-.77-.07-1.15,0S39,3,39,2.84a.28.28,0,0,1,.21-.37,3.51,3.51,0,0,1,.63-.19,1.36,1.36,0,0,0,.55-.17c0-.1-.11,0-.16,0-.23,0-.45.1-.67.15a.39.39,0,0,1-.44-.12c-.12-.14-.13-.27,0-.37A1.86,1.86,0,0,1,40,1.52v0a.26.26,0,0,1,.11-.07.18.18,0,0,0-.13,0c-.24.07-.5-.15-.75.07-.06.06-.1-.12-.19-.16h0a.79.79,0,0,0-.44.55c-.06.5-.11,1-.17,1.48C38.37,3.51,38.38,3.57,38.56,3.51Z" transform="translate(-6.78 -0.24)"/><path class="cls-36" d="M44,2.16h0c.19.06.18.33.38.4,0-.29,0-.29.24-.25V2.26L44.49,2h0c-.24-.26-.6-.17-1-.34C43.69,1.91,43.93,1.94,44,2.16Z" transform="translate(-6.78 -0.24)"/><path class="cls-41" d="M16.92,6.38l1.67,2.05A7.17,7.17,0,0,0,16.92,6.38Z" transform="translate(-6.78 -0.24)"/><path class="cls-42" d="M30.32,6.09l-.95.16a.57.57,0,0,1-.29,0h0l-.81.19h0c0,.09.13.08.2.07l1.78-.35C30.3,6.19,30.39,6.19,30.32,6.09Z" transform="translate(-6.78 -0.24)"/><path class="cls-29" d="M31.81,8h0a2.27,2.27,0,0,0-.65.22h0s.16,0,.06.1-.18.08-.2.19h0a2.72,2.72,0,0,0-.73.35c-.28.18-.56.38-.84.58-.13.09-.31.12-.38.3h0c-.15.23-.44.31-.56.57L30,9.38a9.76,9.76,0,0,0,1.63-1C31.81,8.28,31.93,8.16,31.81,8Z" transform="translate(-6.78 -0.24)"/><path class="cls-43" d="M19.53,8.49c-.13-.06-.16,0-.21.17s.16.17.2.28c.08-.06.22-.11.23-.17A.24.24,0,0,0,19.53,8.49Z" transform="translate(-6.78 -0.24)"/><path class="cls-41" d="M21.46,6.88a3.11,3.11,0,0,0-.24-1h0a16.09,16.09,0,0,0-.5-2.16,1.27,1.27,0,0,0-.15-.57h0L20.51,3a2.43,2.43,0,0,0-.33-1,4,4,0,0,0,.2,1.24h0c.15.9.4,1.78.62,2.67,0,.15.06.28.1.42h0l.06.18a13.34,13.34,0,0,0,.56,2.06A9.36,9.36,0,0,0,21.46,6.88Z" transform="translate(-6.78 -0.24)"/><path class="cls-44" d="M35.38,4.88a1,1,0,0,1-.29-.18h0l.07.1A1,1,0,0,0,35.38,4.88Z" transform="translate(-6.78 -0.24)"/><path class="cls-44" d="M39,1.33c.09,0,.13.22.19.16.25-.22.51,0,.75-.07a.18.18,0,0,1,.13,0l0,.06c.09,0,.18,0,.18-.15a.1.1,0,0,0-.11-.09c-.22,0-.33-.16-.49-.24s-.49.22-.74.31h0Z" transform="translate(-6.78 -0.24)"/><path class="cls-44" d="M45,3.73h0c-.16,0-.17-.16-.26-.24-.25-.22-.3-.22-.42.09a2.49,2.49,0,0,1-1.42,1.49c-.45.18-.68.05-.82-.41,0-.11-.06-.22-.11-.33a.89.89,0,0,0-.35-.48,2.12,2.12,0,0,0-1.28-.23A6.43,6.43,0,0,0,38.85,4a20.18,20.18,0,0,1-2.24.73,2.15,2.15,0,0,1-1.52,0,1,1,0,0,0,.29.18,1,1,0,0,1-.22-.08.7.7,0,0,0,.47.2,3.46,3.46,0,0,0,1.5-.25c.86-.27,1.7-.57,2.58-.76a2.08,2.08,0,0,1,1.6.27c.31.2.41.42.08.75a3.22,3.22,0,0,1-.62.42.61.61,0,0,1-.6,0c-.22-.09-.38-.3-.61-.36l-.1,0h0a1.82,1.82,0,0,0-1.09.28h0c0,.33.33.46.67.31a1.1,1.1,0,0,1,1.18.07,1.2,1.2,0,0,0,1.22.19,7.31,7.31,0,0,0,1.44-.53c.65-.39,1.42-.68,1.53-1.59,0-.07,0-.15.13-.15s.1.09.14.14.1.35.28.43h0v0L45,3.74Z" transform="translate(-6.78 -0.24)"/><path class="cls-44" d="M39.37,3.13c.38-.07.77.07,1.15,0,0,0,0,0,0,.06h.06s0,0,.06,0h0c.1-.11.12-.18-.06-.24-.4-.13-.42-.29-.11-.55l.12-.1c.13-.1.16-.18,0-.31a1.15,1.15,0,0,0-.46-.19c-.11,0-.29-.07-.15-.26h0l-.06,0v0a1.86,1.86,0,0,0-.83.21c-.18.1-.17.23,0,.37a.39.39,0,0,0,.44.12c.22-.05.44-.12.67-.15.05,0,.12-.06.16,0a1.36,1.36,0,0,1-.55.17,3.51,3.51,0,0,0-.63.19.28.28,0,0,0-.21.37C39,3,39.13,3.17,39.37,3.13Z" transform="translate(-6.78 -0.24)"/><path class="cls-39" d="M40,1.54l.06,0H40Z" transform="translate(-6.78 -0.24)"/><path class="cls-45" d="M45.4,2.51h0Z" transform="translate(-6.78 -0.24)"/><path class="cls-45" d="M45.41,2.52h0c-.11-.09-.15-.23-.28-.3h0l0,0a2.85,2.85,0,0,1-.39.11l0,0h0A3.87,3.87,0,0,1,45,3.72h0s0,0,0-.07,0,0,0,0a.19.19,0,0,0,0,.08c.07.14.07.37.31.32s.24-.22.25-.41,0-.13.05-.15h0l.06.06h0A1.5,1.5,0,0,0,45.41,2.52Z" transform="translate(-6.78 -0.24)"/><path class="cls-1" d="M41.09,2.74c-.11-.23,0-.46,0-.68s-.33-.32-.34-.57c-.1.13,0,.21,0,.29a.81.81,0,0,1,.18.66A.24.24,0,0,0,41.09,2.74Z" transform="translate(-6.78 -0.24)"/><path class="cls-46" d="M44.63,2.38h0l-.05-.07c-.27,0-.28,0-.24.25-.2-.07-.19-.34-.38-.4,0,0,0,.1,0,.12s-.08,0-.11,0S43.75,2,43.66,2A4,4,0,0,0,42,1.31c-.17,0-.4,0-.51-.06A1.27,1.27,0,0,0,40.55,1a2.75,2.75,0,0,0-.81,0c.16.08.27.28.49.24a.1.1,0,0,1,.11.09c0,.12-.09.13-.18.15s-.08,0-.11,0h0c-.14.19,0,.22.15.26a1.15,1.15,0,0,1,.46.19c.14.13.11.21,0,.31l-.12.1c-.31.26-.29.42.11.55.18.06.16.13.06.24h0s0,0-.06,0h-.06a1,1,0,0,1-.25.08h-.1a3.53,3.53,0,0,0-.79.08l0,0c0,.09,0,.06-.09.08-.44.15-.9.19-1.34.34a1.51,1.51,0,0,1-.86.08c-.44-.14-.84.08-1.26.06a.94.94,0,0,0-.48.13c-.2.12-.43.22-.49.49a.18.18,0,0,1,.13.15h0a2.15,2.15,0,0,0,1.52,0A20.18,20.18,0,0,0,38.85,4a6.43,6.43,0,0,1,1.44-.34,2.12,2.12,0,0,1,1.28.23.89.89,0,0,1,.35.48c0,.11.07.22.11.33.14.46.37.59.82.41a2.49,2.49,0,0,0,1.42-1.49c.12-.31.17-.31.42-.09.09.08.1.25.26.24h0A3.87,3.87,0,0,0,44.63,2.38Zm-3.69.06a.81.81,0,0,0-.18-.66c0-.08-.15-.16,0-.29,0,.25.29.34.34.57s-.07.45,0,.68A.24.24,0,0,1,40.94,2.44Z" transform="translate(-6.78 -0.24)"/><path class="cls-47" d="M39.46,5.05h0Z" transform="translate(-6.78 -0.24)"/><path class="cls-47" d="M41,4.53l-.14-.08a2.21,2.21,0,0,0-1.64,0,17.34,17.34,0,0,1-3.41.84l-.09,0a1.64,1.64,0,0,1-.38.1c-.73.16-1.46.28-2.17.48-1,.28-2,.46-3,.71-.52.14-1,.26-1.56.39h0c-.18-.16-.28-.39-.49-.51h-.11c0,.15.21.15.27.28h0a2.21,2.21,0,0,1,.61,1.51v.17l.06-.21h0c.13.12.27,0,.39,0,.86-.28,1.72-.55,2.59-.8.61-.17,1.21-.39,1.82-.57A12.52,12.52,0,0,0,35,6.46c.34-.14.7-.19,1-.31s.8-.27,1.21-.37a.73.73,0,0,0,.39-.15.3.3,0,0,1,.34,0h0l.08,0,0,0h0a.5.5,0,0,1,.21-.17h0a1.82,1.82,0,0,1,1.09-.28h0l.1,0a3.35,3.35,0,0,0,1.36-.32c.06,0,.13,0,.13-.11S41,4.55,41,4.53Z" transform="translate(-6.78 -0.24)"/><path class="cls-47" d="M39.46,5.05h0l.1,0Z" transform="translate(-6.78 -0.24)"/><path class="cls-48" d="M16,23.27c.13-.18,0-.28-.14-.35-.39-.19-.78,0-1,.47l-.11.08-.36.41c-.22.27-.15.46.19.52l.41.08c.15,0,.23.09.16.24s0,.26.22.3.29,0,.31-.18,0-.22.19-.19.11-.13.13-.21.08-.2,0-.22-.13-.14-.11-.24S16,23.51,16,23.27ZM14.9,24l.45-.43C15.38,24.07,15.33,24.13,14.9,24Z" transform="translate(-6.78 -0.24)"/><path class="cls-29" d="M19.27,4.79c-.1-.22-.37-.34-.23-.62S19,4,18.87,4a.29.29,0,0,1-.41-.11,2.48,2.48,0,0,0-.26-.23c0,.39,0,.72-.32.91-.13.07,0,.12.09.11a.36.36,0,0,1,.42.33c0,.06,0,.15.14.2C18.49,4.65,18.93,4.8,19.27,4.79Z" transform="translate(-6.78 -0.24)"/><path class="cls-29" d="M23.88,1.16c-.09-.13-.13-.23,0-.35s0-.17-.09-.16c-.26,0-.37-.1-.44-.32,0,0,0-.11-.13-.08,0,.29-.07.58-.47.58,0,0-.09,0-.08.08s.05.08.09.09c.21,0,.27.19.28.39a.28.28,0,0,0,.11.24.46.46,0,0,1,.75-.19A.29.29,0,0,0,23.88,1.16Z" transform="translate(-6.78 -0.24)"/><path class="cls-48" d="M26.4,9.8h0a.45.45,0,0,1-.61-.19h0l0,0a2.76,2.76,0,0,1-.68-2A.54.54,0,0,1,25.45,7c.14-.06.16-.18.19-.31.17-.68.38-1.36.59-2,.14-.5.39-1,.49-1.48h0a2.33,2.33,0,0,0-.36.84,25.82,25.82,0,0,0-.76,2.6.57.57,0,0,1-.3.39A.52.52,0,0,0,25,7.4a2.8,2.8,0,0,0,.91,2.48.4.4,0,0,0,.32.09,1.88,1.88,0,0,0,.73-.3h0C26.78,9.66,26.61,9.84,26.4,9.8Z" transform="translate(-6.78 -0.24)"/><path class="cls-38" d="M23,4.69c-.16,0-.22-.07-.28-.18s-.14-.12-.16,0-.14.29-.36.39c.27.06.33.23.37.45.12-.15.2-.28.39-.21s.13,0,.1-.12a.22.22,0,0,1,0-.22C23.1,4.74,23.06,4.67,23,4.69Z" transform="translate(-6.78 -0.24)"/><path class="cls-38" d="M33.13,10.9a12.21,12.21,0,0,0-2.58.72A14.31,14.31,0,0,0,33.13,10.9Z" transform="translate(-6.78 -0.24)"/><path class="cls-48" d="M31.39,10.49a.07.07,0,0,0,.12,0c.12-.11.44-.06.28-.37v-.05c.09-.16,0-.18-.13-.17a.4.4,0,0,1-.2-.07c-.06,0-.14,0-.13.05s-.11.21-.22.32C31.26,10.3,31.37,10.35,31.39,10.49Z" transform="translate(-6.78 -0.24)"/><path class="cls-38" d="M32.42,4.34c.1.15.11,0,.19,0,.25-.12,0-.29.08-.43s-.07-.06-.11,0-.14.08-.23,0a.05.05,0,0,0-.09.06c.05.13-.07.22-.08.33S32.37,4.25,32.42,4.34Z" transform="translate(-6.78 -0.24)"/><path class="cls-38" d="M30.1,5.15,30,5.1a10,10,0,0,0-1,1.19h0a.57.57,0,0,0,.29,0c-.07,0-.06,0,0-.11Z" transform="translate(-6.78 -0.24)"/><path class="cls-38" d="M20.35,7.82A12.22,12.22,0,0,0,19,5.28a21.92,21.92,0,0,0,1.25,2.8,8.11,8.11,0,0,0,.49.92l.06,0-.49-1.15Z" transform="translate(-6.78 -0.24)"/><path class="cls-38" d="M24.15,6.5l0-1.06c0-.78-.09-1.57-.18-2.35a2.36,2.36,0,0,0-.11-.79,3.65,3.65,0,0,0,0,1c0,1.12.13,2.24.21,3.36l.1,1.4h.07c0-.52,0-1-.06-1.55Z" transform="translate(-6.78 -0.24)"/><path class="cls-29" d="M28.93,3.12h0l-.09,0c-.1-.2,0-.43-.08-.66a1,1,0,0,0-.31.29c-.12.14-.29,0-.43.06h0c-.06,0-.13,0-.17,0s0,.11.06.15a.38.38,0,0,1,0,.49c0,.05-.07.1,0,.17a.45.45,0,0,0,.3-.09.15.15,0,0,1,.23,0,.59.59,0,0,0,.2.3l.13-.5h.15c.06,0,.17,0,.18-.08S29,3.14,28.93,3.12Z" transform="translate(-6.78 -0.24)"/><path class="cls-48" d="M45.77,3.59l-.06-.06h0c-.09,0-.05.1-.05.15s-.06.36-.25.41-.24-.18-.31-.32a.19.19,0,0,1,0-.08s0-.08,0,0,0,0,0,.07h0l-.06.43v0h0l-.08.42c0,.06,0,.07.09.08h0c.22,0,.46,0,.55-.3h0l.19-.29h0c0-.18.13-.34.09-.53Z" transform="translate(-6.78 -0.24)"/><path class="cls-48" d="M45.12,2.21h0A.36.36,0,0,0,44.75,2a.16.16,0,0,1-.17-.1h0s0,.09-.09.1h0l.08.24v.05l.05.07,0,0a2.85,2.85,0,0,0,.39-.11Z" transform="translate(-6.78 -0.24)"/><path class="cls-27" d="M26.69,9.53a.24.24,0,0,0,0-.18C26.72,9.41,26.71,9.47,26.69,9.53Z" transform="translate(-6.78 -0.24)"/><path class="cls-27" d="M28.7,8a3.14,3.14,0,0,0-.52-1.2h0c-.16-.1-.31-.23-.52-.19l-1.37.28c-.21,0-.27.18-.1.33a1.26,1.26,0,0,1,.37.59c.07.25.26.48.19.78h0a1,1,0,0,1,0,.5,2.07,2.07,0,0,1,0,.22.24.24,0,0,1,0,.18l0,.07c.18,0,.12-.13.13-.23s.05-.43.24-.46a7.47,7.47,0,0,0,1.32-.32C28.68,8.47,28.74,8.39,28.7,8Z" transform="translate(-6.78 -0.24)"/><polygon class="cls-27" points="21.4 6.6 21.4 6.6 21.4 6.6 21.4 6.6"/><path class="cls-30" d="M26.64,9.48c.08-.28.05-.57.11-.85h0l0-.07c-.23-.32-.15-.83-.59-1a.11.11,0,0,1-.05-.09c0-.28-.23-.36-.44-.36a.45.45,0,0,0-.47.39c-.11.4.12.73.17,1.1a4.6,4.6,0,0,0,.45,1v0h0a1.22,1.22,0,0,0,.61.19c0-.15.16-.16.25-.24A.12.12,0,0,1,26.64,9.48Z" transform="translate(-6.78 -0.24)"/><path class="cls-30" d="M26.65,9.56c-.09.08-.24.09-.25.24h0l.27-.2h0Z" transform="translate(-6.78 -0.24)"/><path class="cls-30" d="M25.79,9.61a.45.45,0,0,0,.61.19h0A1.22,1.22,0,0,1,25.79,9.61Z" transform="translate(-6.78 -0.24)"/><polygon class="cls-30" points="19.62 9.56 19.62 9.56 19.62 9.56 19.62 9.56 19.62 9.56 19.62 9.56"/><path class="cls-30" d="M26.64,9.48a.12.12,0,0,0,0,.08h0a.05.05,0,0,0,0,0c0-.06,0-.12,0-.18V9.29c0-.06,0-.12,0-.16a1,1,0,0,0,0-.5C26.69,8.91,26.72,9.2,26.64,9.48Z" transform="translate(-6.78 -0.24)"/><path class="cls-30" d="M26.74,9.29v.06a2.07,2.07,0,0,0,0-.22S26.75,9.23,26.74,9.29Z" transform="translate(-6.78 -0.24)"/><path class="cls-30" d="M26.65,9.55h0l0,0h0l0-.07A.05.05,0,0,1,26.65,9.55Z" transform="translate(-6.78 -0.24)"/><path class="cls-18" d="M19,43a.34.34,0,0,1,.21,0l.29,0,.46,0a.17.17,0,0,1,.17.13c.1.37,0,.54-.39.54h-.23a1.69,1.69,0,0,0-.32,0c-.33,0-.31-.16-.32-.39S18.85,43.05,19,43Z" transform="translate(-6.78 -0.24)"/></svg>