<svg id="Capa_1" data-name="Capa 1" xmlns="http://www.w3.org/2000/svg" viewBox="0 0 52 47.31"><defs><style>.cls-1{fill:#020202;}.cls-2,.cls-5{fill:none;}.cls-3{fill:#74b555;}.cls-4{fill:#74bdca;}.cls-5{stroke:#74b555;stroke-miterlimit:10;stroke-width:0.25px;}.cls-6{fill:#90c264;}.cls-7{fill:#8ac4cf;}.cls-8{fill:#acb9c9;}.cls-9{fill:#737479;}.cls-10{fill:#c8cac9;}.cls-11{fill:#8391a9;}.cls-12{fill:#8491a4;}.cls-13{fill:#8493a4;}.cls-14{fill:#fefefe;}.cls-15{fill:#1a1a1a;}</style></defs><title>TIERRA LUNA</title><path class="cls-1" d="M50,17.65a16.81,16.81,0,0,0-3.22-5.51,20.63,20.63,0,0,0-5.61-4.83A9.77,9.77,0,0,0,38.58,6a25.65,25.65,0,0,0-9.43-.67,22.12,22.12,0,0,0-9.67,3.5,17.89,17.89,0,0,0-7.81,9.79,16.07,16.07,0,0,0-.74,4.14,32.88,32.88,0,0,0-.19,4.65,18.55,18.55,0,0,0,3,8.87,13.64,13.64,0,0,0,2.91,3.57,23.51,23.51,0,0,0,4,2.95.78.78,0,0,0,.53.29l.06,0a.53.53,0,0,0,.36.2c.78.29,1.55.61,2.36.83,1.78.49,3.49,1.23,5.32,1.55.23.1.54.24.7.13h.15a1.21,1.21,0,0,0,.34-.05c.08,0,.16.06.23,0s.2,0,.3,0a21.93,21.93,0,0,0,3.8-.25A14.59,14.59,0,0,0,38.58,44a17.11,17.11,0,0,0,3.26-1.7c1-.75,2-1.58,3-2.39a14.88,14.88,0,0,0,4.86-7c.32-1,.54-1.93.83-2.89a.14.14,0,0,0,0-.1,5.69,5.69,0,0,0,.33-1.68A29.53,29.53,0,0,0,51.2,24,26.13,26.13,0,0,0,50,17.65ZM21.76,42.91v0h.05Z" transform="translate(0 -2.69)"/><path class="cls-2" d="M39.37,8h-.08l.64.32A.61.61,0,0,0,39.37,8Z" transform="translate(0 -2.69)"/><path class="cls-3" d="M21.93,8.39l0,0a18.49,18.49,0,0,1,2.81-1.22A12,12,0,0,0,21.93,8.39Z" transform="translate(0 -2.69)"/><path class="cls-3" d="M36.47,6.55c-.89,0-1.78-.16-2.67-.23A19.35,19.35,0,0,1,37,7C37.05,6.72,36.9,6.58,36.47,6.55Z" transform="translate(0 -2.69)"/><path class="cls-4" d="M13.83,34.38a18.86,18.86,0,0,1-1.18-2.82A10.68,10.68,0,0,0,13.83,34.38Z" transform="translate(0 -2.69)"/><path class="cls-4" d="M21.32,8.72v0l0,0Z" transform="translate(0 -2.69)"/><path class="cls-5" d="M14,34.59a2.39,2.39,0,0,1-.13-.21,18,18,0,0,0,1.45,2.38,1.17,1.17,0,0,0-.18-.35C14.72,35.8,14.35,35.19,14,34.59Z" transform="translate(0 -2.69)"/><path class="cls-6" d="M14.82,16.45c.28.51.29.52.83.33a2.87,2.87,0,0,1,1.35-.3c.54.06.78.33.69.88a4.13,4.13,0,0,1-.41,1.32,6.24,6.24,0,0,0-.63,1.72.72.72,0,0,0,1.06.85,3.86,3.86,0,0,0,.65-.39,2.46,2.46,0,0,1,2.12-.44c.61.11,1.21.21,1.81.33.88.19,1.27-.13,1.35-.9a2.9,2.9,0,0,1,1-1.89l1-.89a2.83,2.83,0,0,0,.55-.65c.13-.2.25-.42,0-.61s-.39,0-.55.14a3,3,0,0,0-.65.68,3.94,3.94,0,0,1-.54.54,2.12,2.12,0,0,1-2.29.2,6.13,6.13,0,0,0-1.46-.43,2.61,2.61,0,0,1-2-1.46c-.51-1-.93-2.11-1.52-3.1a.52.52,0,0,1-.07-.41,20,20,0,0,0-2.94,3.89A1.18,1.18,0,0,1,14.82,16.45Z" transform="translate(0 -2.69)"/><polygon class="cls-2" points="19.95 22.49 19.94 22.48 19.94 22.48 19.95 22.49"/><path class="cls-3" d="M14.55,19.63c0,1.05-.08,2.09-.16,3.14a.79.79,0,0,0,.54.9c.31.12.61.26.91.4A4.29,4.29,0,0,1,18.39,27,1.54,1.54,0,0,0,20,28.37a2.82,2.82,0,0,0,.58,0,3.69,3.69,0,0,1,2.94.78,3.34,3.34,0,0,0,1.58.68,2.69,2.69,0,0,1,2,1.22.88.88,0,0,1,0,1,9.85,9.85,0,0,1-1.22,1.66,2.3,2.3,0,0,0-.74,1.68.87.87,0,0,0,.37.73,4.13,4.13,0,0,0,2,.8,4.71,4.71,0,0,1,2.42.85,1.61,1.61,0,0,1,.7,2.13A2.54,2.54,0,0,0,30.61,42a1.54,1.54,0,0,1,.07,1.23,1.53,1.53,0,0,0-.08.52,1.48,1.48,0,0,0,1.23,1,.48.48,0,0,0,.52-.37,3.49,3.49,0,0,1,.22-.53h0a8.2,8.2,0,0,1,2.42-2,1.63,1.63,0,0,0,.77-1,2.3,2.3,0,0,1,1-1.53,9.4,9.4,0,0,1,1-.43l.07-.07c.08,0,.17,0,.16-.11s.15-.23.26-.32a.18.18,0,0,0,0-.16l0,0a.61.61,0,0,0,0-.19,1.86,1.86,0,0,1,0-.33A1.42,1.42,0,0,1,38.71,36a1.06,1.06,0,0,0,.3-1.25c-.17-.33-.47-.42-1.07-.31a17.35,17.35,0,0,1-2.27.27.94.94,0,0,1-1.14-1c0-.29,0-.59-.07-.89a.62.62,0,0,0-.52-.6,2.51,2.51,0,0,0-1.78.21c-.72.44-1.19.28-1.52-.51a1.06,1.06,0,0,0-1.07-.72,4.47,4.47,0,0,1-2.39-.8c-.38-.25-.73-.52-1.09-.79a2.2,2.2,0,0,0-.84-.41,3.32,3.32,0,0,1-1.7-1.1,1.44,1.44,0,0,1-.27-1.26c0-.26-.13-.3-.34-.17a2.59,2.59,0,0,0-.41.4,1.23,1.23,0,0,1-1.9,0,1.77,1.77,0,0,1-.46-.85,8,8,0,0,1-.12-1l0-.05L20,25.18h0l-.08-.08L20,24.5l.18-.37,0-.13a2,2,0,0,1,2.86-.56,6.28,6.28,0,0,0,1.6.79c.32.12.41,0,.4-.3S25,23.33,25,23a2.9,2.9,0,0,1,.77-2.64c.2-.07.25-.25.3-.43a4.47,4.47,0,0,1,1.86-1.82A.91.91,0,0,0,28.4,17,1.31,1.31,0,0,1,29,15.48c.76-.55,1.57-.17,2.36-.21.08,0,.09.26.22.13.3-.31.69-.18,1-.23.13,0,.23,0,.26-.18A1.08,1.08,0,0,0,32,13.6a1.87,1.87,0,0,1-1.32-.84.7.7,0,0,0-.56-.32,2.74,2.74,0,0,0-1.77.36,1.19,1.19,0,0,1-1.39,0,1.84,1.84,0,0,1-.45-.55.81.81,0,0,0-1.05-.36.7.7,0,0,0-.48.85c0,.43.09.86.11,1.3a.85.85,0,0,1-.53.94.82.82,0,0,1-1-.36,2.62,2.62,0,0,0-1.13-.93,1.93,1.93,0,0,1-1.12-1.63,1,1,0,0,1,.5-1,3.34,3.34,0,0,1,2.17-.57c.09,0,.21.06.28-.06s0-.14-.07-.19c-.27-.35-.53-.7-.29-1.18,0,0,0-.11-.06-.16-.27-.54-.22-.72.33-1a3.48,3.48,0,0,0,1-.75l-.34.08A18.49,18.49,0,0,0,22,8.41c.48.38,1.39.44.88,1.37a1.41,1.41,0,0,1-1.37.76c-.89-.12-.78-.8-.71-1.43l-.81.54a.66.66,0,0,0,.15.24,1.17,1.17,0,0,1,.17,1.23c-.1.31-.2.62-.57.68s-.56-.13-.76-.42-.38-.48-.56-.5c-.35.31-.7.63-1,1-.13.22,0,.42.13.64.48.93,1,1.86,1.38,2.82a2.25,2.25,0,0,0,1.76,1.48,17.86,17.86,0,0,1,2.27.66,1.87,1.87,0,0,0,1.84-.61c.39-.34.61-.86,1.1-1.1.19-.09.39-.29.59,0a.6.6,0,0,1,0,.71,5,5,0,0,1-1.24,1.27,3.46,3.46,0,0,0-1.45,2.51c-.06.65-.69.87-1.53.67-.62-.15-1.25-.25-1.88-.36a2.44,2.44,0,0,0-2,.57,3.42,3.42,0,0,1-.59.33.71.71,0,0,1-.83-.08.77.77,0,0,1-.33-.83,6.63,6.63,0,0,1,.71-1.92,3.44,3.44,0,0,0,.37-1.32c.08-.56-.43-.83-1.11-.63a5.74,5.74,0,0,0-1,.35c-.39.19-.58,0-.68-.31a1.12,1.12,0,0,0-.57-.7,18.41,18.41,0,0,0-1,1.94l.78.62A1.4,1.4,0,0,1,14.55,19.63Zm14.05,15a2.17,2.17,0,0,1,2-.59,1.55,1.55,0,0,1,1.43.69,7.22,7.22,0,0,0,1.31,1.34,1.92,1.92,0,0,0,2.3,0,1.52,1.52,0,0,1,.67-.2c.38-.05.61.2.61.59a3.59,3.59,0,0,1-1.77,3.08,4.74,4.74,0,0,0-1.41,1.58,2.5,2.5,0,0,1-1.52,1.15c-.27.08-.42,0-.32-.3.25-.74,0-1.56.39-2.29s-.15-1.59-.79-2.2a6.32,6.32,0,0,0-1.71-.94,5.17,5.17,0,0,1-1.26-.85C28.17,35.32,28.23,35,28.6,34.63Z" transform="translate(0 -2.69)"/><path class="cls-3" d="M17.28,12.38c.59,1,1,2.07,1.52,3.1a2.61,2.61,0,0,0,2,1.46,6.13,6.13,0,0,1,1.46.43,2.12,2.12,0,0,0,2.29-.2,3.94,3.94,0,0,0,.54-.54,3,3,0,0,1,.65-.68c.16-.11.35-.32.55-.14s.09.41,0,.61a2.83,2.83,0,0,1-.55.65l-1,.89a2.9,2.9,0,0,0-1,1.89c-.08.77-.47,1.09-1.35.9-.6-.12-1.2-.22-1.81-.33a2.46,2.46,0,0,0-2.12.44,3.86,3.86,0,0,1-.65.39.72.72,0,0,1-1.06-.85,6.24,6.24,0,0,1,.63-1.72,4.13,4.13,0,0,0,.41-1.32c.09-.55-.15-.82-.69-.88a2.87,2.87,0,0,0-1.35.3c-.54.19-.55.18-.83-.33a1.18,1.18,0,0,0-.55-.59l-.06.1a1.12,1.12,0,0,1,.57.7c.1.32.29.5.68.31a5.74,5.74,0,0,1,1-.35c.68-.2,1.19.07,1.11.63a3.44,3.44,0,0,1-.37,1.32,6.63,6.63,0,0,0-.71,1.92.77.77,0,0,0,.33.83.71.71,0,0,0,.83.08,3.42,3.42,0,0,0,.59-.33,2.44,2.44,0,0,1,2-.57c.63.11,1.26.21,1.88.36.84.2,1.47,0,1.53-.67a3.46,3.46,0,0,1,1.45-2.51,5,5,0,0,0,1.24-1.27.6.6,0,0,0,0-.71c-.2-.26-.4-.06-.59,0-.49.24-.71.76-1.1,1.1a1.87,1.87,0,0,1-1.84.61,17.86,17.86,0,0,0-2.27-.66,2.25,2.25,0,0,1-1.76-1.48c-.42-1-.9-1.89-1.38-2.82-.11-.22-.26-.42-.13-.64a.8.8,0,0,1-.13.13A.52.52,0,0,0,17.28,12.38Z" transform="translate(0 -2.69)"/><path class="cls-3" d="M29.79,36.51a6.32,6.32,0,0,1,1.71.94c.64.61,1.22,1.41.79,2.2s-.14,1.55-.39,2.29c-.1.29.05.38.32.3a2.5,2.5,0,0,0,1.52-1.15,4.74,4.74,0,0,1,1.41-1.58,3.59,3.59,0,0,0,1.77-3.08c0-.39-.23-.64-.61-.59a1.52,1.52,0,0,0-.67.2,1.92,1.92,0,0,1-2.3,0A7.22,7.22,0,0,1,32,34.73,1.55,1.55,0,0,0,30.6,34a2.17,2.17,0,0,0-2,.59c-.37.37-.43.69-.07,1A5.17,5.17,0,0,0,29.79,36.51Z" transform="translate(0 -2.69)"/><path class="cls-3" d="M50.17,23.63a11.24,11.24,0,0,0-.31-2.17h0A21.83,21.83,0,0,0,49.24,19c-.14.57-.31.77-.62.79s-.56-.24-.71-.52-.21-.43-.32-.64a1.15,1.15,0,0,0-1.86-.49,1.13,1.13,0,0,1-.8.21l-.72-.06c-.25,0-.37.1-.29.35a2.72,2.72,0,0,1-.75,2.72.68.68,0,0,0-.08,1,1.46,1.46,0,0,1,0,1.72c-.5.88-.5.88.29,1.54a2.27,2.27,0,0,0,.68.42,4.26,4.26,0,0,1,1.07.58.62.62,0,0,0,.85,0,6.24,6.24,0,0,1,1.19-.71c.55-.22.81-.11,1,.46.06.19.12.35.35.4.57.15.74.41.55,1a.83.83,0,0,0,.33,1.05,1.24,1.24,0,0,1,.22.28l.12-.1a26,26,0,0,0,.37-3.3A8.36,8.36,0,0,0,50.17,23.63Z" transform="translate(0 -2.69)"/><path class="cls-3" d="M31.9,6.26l-3.21.15c.43.47.85.85,1.52.66a.85.85,0,0,1,1,.53.94.94,0,0,1,.07.66c-.11.41.05.59.46.66a3.51,3.51,0,0,1,1.53.82,8.46,8.46,0,0,0,1,.79c.27.16.3.05.3-.18a2.86,2.86,0,0,0-.27-1,1.06,1.06,0,0,1,.14-1.18,1,1,0,0,1,1.17-.09.82.82,0,0,0,1.18-.52l.12-.29A1.53,1.53,0,0,0,37,7a19.35,19.35,0,0,0-3.18-.72A17.15,17.15,0,0,0,31.9,6.26Z" transform="translate(0 -2.69)"/><path class="cls-3" d="M44.46,13.75a3.37,3.37,0,0,1-.34.09c0,.18.17.22.26.31a.9.9,0,0,1-.17,1.1h0c-.17-.14.1-.25,0-.32s-.35,0-.43-.2c-.11.06-.11.15-.07.26s0,.17-.09.23c-.25-.11-.38,0-.4.25h0c-.15.39-.07.47.43.4v.26h0c-.25.05-.12.13,0,.25s0,.21.23.17c.91-.22.92-.21,1.2-1.14,0-.05,0-.11,0-.17a1.13,1.13,0,0,1,.83-.52h0c.35,0,.75.09.83.42a2.18,2.18,0,0,0,1,1.38c.17.12.27.37.51.22l0,0a19,19,0,0,0-3.23-4.55A1.1,1.1,0,0,1,44.46,13.75Z" transform="translate(0 -2.69)"/><path class="cls-3" d="M25.2,9.09a5.59,5.59,0,0,1,.85.9.07.07,0,0,0,0,.07c.05.11-.06.25.07.35l.18-.08h0a1.94,1.94,0,0,0,2.13-.13.49.49,0,0,0,.1-.61A.42.42,0,0,0,28,9.32l-.3,0h0c-.11-.1-.28-.36-.36-.21-.17.33-.38.05-.55.13h0a2.2,2.2,0,0,1-.37-.3c-.32-.44-.6-.43-1.23-.18C25,8.89,25,9,25.2,9.09Z" transform="translate(0 -2.69)"/><path class="cls-3" d="M38.06,8.73a2.14,2.14,0,0,0,1.32-.1,2.5,2.5,0,0,1-1.26-.31.16.16,0,0,0-.23.13A.24.24,0,0,0,38.06,8.73Z" transform="translate(0 -2.69)"/><path class="cls-3" d="M43.18,12.51c0,.17.12.18.24.18s.23,0,.29-.06,0-.23-.11-.32a1.34,1.34,0,0,0-.52-.36C43.12,12.16,43.16,12.33,43.18,12.51Z" transform="translate(0 -2.69)"/><path class="cls-3" d="M44.39,12.26a1.4,1.4,0,0,0,0,.81C44.76,12.72,44.75,12.57,44.39,12.26Z" transform="translate(0 -2.69)"/><path class="cls-3" d="M42.33,11.3c.08.28.3.39.65.56C42.76,11.56,42.8,11.14,42.33,11.3Z" transform="translate(0 -2.69)"/><path class="cls-4" d="M38.32,7.74a2.67,2.67,0,0,0,1,.2c-.54-.25-1.09-.48-1.66-.68a1.47,1.47,0,0,0-.27.65A1,1,0,0,1,38.32,7.74Z" transform="translate(0 -2.69)"/><path class="cls-4" d="M40,8.47a.71.71,0,0,1-.29.79,3.34,3.34,0,0,1-2.12-.08,1.09,1.09,0,0,1-.36-1h-.08L37,8.29a1.32,1.32,0,0,1-1.76.35c-.33-.18-.47,0-.41.34a1,1,0,0,0,.12.38,2.34,2.34,0,0,1,.18,1.45.45.45,0,0,1-.59.44,1.9,1.9,0,0,1-1.15-.56A4.15,4.15,0,0,0,31.5,9.48c-.83-.25-.9-.35-.83-1.21,0-.53,0-.61-.56-.56a1.82,1.82,0,0,1-1.72-.66A1.05,1.05,0,0,0,27,6.65a2,2,0,0,1-.35.08,1.13,1.13,0,0,0-1.09.76A1.53,1.53,0,0,1,25.1,8l-.61.35a1.56,1.56,0,0,0,.8-.24h0a1.22,1.22,0,0,1,1.27.15,1.49,1.49,0,0,0,1.5.45.87.87,0,0,1,1,.53,1,1,0,0,1,0,1.18,2.39,2.39,0,0,1-3.32.24l-.12-.18c0-.06-.1-.06-.13-.11h0c-.25-.37-.43-.82-1.05-.81a4.87,4.87,0,0,1,.34.47.63.63,0,0,1-.44,1,2.81,2.81,0,0,1-.58,0,2.47,2.47,0,0,0-1.14.19c-.9.38-1,1-.25,1.68a1.24,1.24,0,0,0,.34.22,2.85,2.85,0,0,1,1.21,1c.08.12.15.3.34.24s.17-.26.16-.42c0-.49-.06-1-.08-1.48A1.05,1.05,0,0,1,25,11.41a1.46,1.46,0,0,1,2,.52c.39.56.52.6,1.14.26a3.23,3.23,0,0,1,2-.38,1.31,1.31,0,0,1,1,.52,1.88,1.88,0,0,0,1.2.71,1.15,1.15,0,0,1,1.09,1.16c0,.18,0,.36.07.54.08.81,0,.94-.82,1.06a1.65,1.65,0,0,1-1.4.17,5.88,5.88,0,0,0-1.51-.11c-.63.16-.83.44-.72,1.06.17,1,.1,1.19-.81,1.75a3.6,3.6,0,0,0-1.65,1.71.54.54,0,0,1-.15.21,2.55,2.55,0,0,0-.76,2.5,2.68,2.68,0,0,1,0,1.29.65.65,0,0,1-.82.51A4.29,4.29,0,0,1,22.86,24a1.23,1.23,0,0,0-1.45-.21c-.21.12-.34.37-.58.44l-.24.24-.09.36a2.17,2.17,0,0,1,0,.26,3.92,3.92,0,0,0,.05,1.08,1.13,1.13,0,0,0,.46.74,1,1,0,0,0,1.39-.26c.26-.28.52-.65,1-.47s.36.61.33,1a1.22,1.22,0,0,0,.48,1.1,2.42,2.42,0,0,0,1.07.54,3.32,3.32,0,0,1,1.27.64,4.92,4.92,0,0,0,3,1.38,1.3,1.3,0,0,1,1.41.93c.21.56.54.63,1.06.34a1.93,1.93,0,0,1,.4-.21c1.58-.29,2.52-.08,2.49,1.58,0,.78.19.9,1,.88a20.39,20.39,0,0,0,2.35-.3,1,1,0,0,1,1.1.5,1.47,1.47,0,0,1-.29,1.69,1.16,1.16,0,0,0-.43,1.49.24.24,0,0,0,.13.15l.05,0v0h0a.23.23,0,0,0-.07.1c0,.14,0,.28,0,.43a.76.76,0,0,1-.08.39l-.1.14a3.52,3.52,0,0,1-.52.5,2.14,2.14,0,0,0-1.79,1.86,1.25,1.25,0,0,1-.71.92,17.32,17.32,0,0,0-2.08,1.52,2.85,2.85,0,0,0-.59.93,7.72,7.72,0,0,0,2.47-.32,45.71,45.71,0,0,0,4.42-2,4.8,4.8,0,0,0,1.59-1.11,9,9,0,0,0,.84-.52,28.42,28.42,0,0,0,3-2.6,13.13,13.13,0,0,0,3.32-5c.12-.36.36-.72,0-1.1a.38.38,0,0,1,0-.3,9.7,9.7,0,0,1,.44-2.27.27.27,0,0,0,0-.37,1.11,1.11,0,0,1-.39-1.46c.07-.19,0-.29-.22-.33a.72.72,0,0,1-.62-.63c-.05-.32-.19-.3-.42-.18a6.27,6.27,0,0,0-.93.62c-.37.27-.8.46-1.2.14a13,13,0,0,0-1.85-1l-1-.9c-.39-.5-.38-.71.06-1.26.57-.74.59-.91.13-1.68a1,1,0,0,1,0-1.1c.15-.24.33-.46.5-.69a2.06,2.06,0,0,0,.39-1.9c-.21-.81.23-1.26,1-1.08a1.38,1.38,0,0,0,1.3-.27,1.15,1.15,0,0,1,1.53-.05,2.31,2.31,0,0,1,1.09,1.32.61.61,0,0,0,.27.4,2.58,2.58,0,0,1,.41-.89.25.25,0,0,0,0-.07l-.36-.82c-.08,0-.17.13-.25.14a.79.79,0,0,1-.68-.14c-.58-.44-1.24-.8-1.4-1.61a.34.34,0,0,0-.4-.29c-.19,0-.25.18-.29.35s-.1.44-.16.65c-.13.51-.36.67-.9.62a.92.92,0,0,0-.43.11A.82.82,0,0,1,43,16.69a.08.08,0,0,0,0-.08h0c0-.4.27.19.35-.07-.12-.23-.33-.45-.3-.76,0,0,.05-.13,0-.14-.47,0-.27-.38-.25-.59a.65.65,0,0,1,.36-.54c.2-.11.41,0,.73,0-.4-.3-.72-.54-.63-1,0-.12-.08-.14-.17-.15-.36,0-.44-.31-.44-.62,0-.12.05-.26-.1-.34-.13.32-.13.74-.62.72a1,1,0,0,1-.91-.9c0-.33.06-.67.49-.66s.36-.06.36-.37c0-.58.18-.72.74-.62a.56.56,0,0,0,.22,0c.17,0,.37.06.42-.22a.11.11,0,0,1,0-.05,20.07,20.07,0,0,0-3.22-2.07A.67.67,0,0,1,40,8.47ZM45.27,30a1.85,1.85,0,0,0,.13-1.14c0-.13,0-.33.15-.36s.19.16.22.29l.24,1c-.06.14-.1.28-.16.39s-.33.49-.59.38S45.21,30.19,45.27,30ZM37.7,11.05c.06-.08.09-.2.21-.2s.06.08.07.12-.07.19-.2.18S37.66,11.11,37.7,11.05Zm-4.55,1.5a.72.72,0,0,1,.69-.65c.24,0,.48,0,.83,0A2,2,0,0,0,36,11.74c.1-.06.25-.13.34-.09.64.27,1.11-.13,1.62-.37.95-.46,1.27-.25,1.49.78A3.07,3.07,0,0,1,39.33,14c-.25.59-.66.74-1.17.35a1.55,1.55,0,0,1-.23-.21c-.26-.3-.5-.25-.77,0-.73.64-.91.62-1.38-.23a1.44,1.44,0,0,0-1.18-.68,4.6,4.6,0,0,1-1-.11C33.37,13,33.07,12.88,33.15,12.55Zm7.71,5.61a1,1,0,0,1-.71.92c-.25.36-.5.73-.73,1.11a2.14,2.14,0,0,0,0,2.21,10.66,10.66,0,0,1,1,2.26c.11.45.12.91.21,1.37a3.91,3.91,0,0,0,.84,1.6c.31.4.68.75,1,1.18a1.58,1.58,0,0,1,0,1.71c-.19.29-.39.56-.56.86a1.77,1.77,0,0,0-.08,1.67c.26.54.44,1.13.75,1.65a.25.25,0,0,1-.18.08c-1.32.17-1.81-.1-2.55-1.6-.28-.58-.51-1.18-.75-1.77a4.7,4.7,0,0,0-.82-1.06c-.35-.43-.68-.1-1,0a1.15,1.15,0,0,1-.42-.48c0-.22-.19-.18-.33-.2l-1.09-.21a1,1,0,0,1-.82-.92,5.8,5.8,0,0,1,0-.93,1.33,1.33,0,0,0-1.33-1.48c-.48,0-1-.06-1.45-.09-.13-.14-.06-.31,0-.47,0-.36,0-.68-.41-.82a3,3,0,0,0-2.23-1.05c-.72-.07-1-.58-.87-1.51.25-1.57,1.07-2,2.69-2.16a9.53,9.53,0,0,0,2.66-.19,2.57,2.57,0,0,0,1.56-1.5c.2-.44.36-.91.57-1.35.7-1.4,1.37-1.54,2.82-1.3a2.56,2.56,0,0,1,1.86,1.62A.94.94,0,0,1,40.86,18.16Z" transform="translate(0 -2.69)"/><path class="cls-7" d="M34.6,13.21a1.44,1.44,0,0,1,1.18.68c.47.85.65.87,1.38.23.27-.23.51-.28.77,0a1.55,1.55,0,0,0,.23.21c.51.39.92.24,1.17-.35a3.07,3.07,0,0,0,.15-1.94c-.22-1-.54-1.24-1.49-.78-.51.24-1,.64-1.62.37-.09,0-.24,0-.34.09a2,2,0,0,1-1.36.21c-.35,0-.59,0-.83,0a.72.72,0,0,0-.69.65c-.08.33.22.45.47.55A4.6,4.6,0,0,0,34.6,13.21Z" transform="translate(0 -2.69)"/><path class="cls-4" d="M37.78,11.15c.13,0,.19,0,.2-.18s0-.12-.07-.12-.15.12-.21.2S37.72,11.15,37.78,11.15Z" transform="translate(0 -2.69)"/><path class="cls-4" d="M45.26,30.6c.26.11.45-.16.59-.38s.1-.25.16-.39l-.24-1c0-.13-.05-.31-.22-.29s-.18.23-.15.36A1.85,1.85,0,0,1,45.27,30C45.21,30.19,45,30.48,45.26,30.6Z" transform="translate(0 -2.69)"/><path class="cls-4" d="M21.43,42.27a.6.6,0,0,0,.43.23.7.7,0,0,0,.53.1h0l.39.11c2.08.66,4.13,1.42,6.25,2a6,6,0,0,0,1.42.12A1.39,1.39,0,0,1,30,43.36a1.34,1.34,0,0,0,.07-1.09,3.46,3.46,0,0,1,0-2.75.87.87,0,0,0-.28-1.05,3.47,3.47,0,0,0-2-.86,5.15,5.15,0,0,1-2.65-1,1.18,1.18,0,0,1-.56-.88,2.74,2.74,0,0,1,.76-2.31,8.88,8.88,0,0,0,1-1.22c.45-.65.39-.94-.26-1.38a1.33,1.33,0,0,0-.62-.27,6.11,6.11,0,0,1-2.61-1.13A2.41,2.41,0,0,0,21.41,29a16.15,16.15,0,0,1-2-.12c-1-.12-1.27-.45-1.53-1.37a4.06,4.06,0,0,0-2.76-3.05c-.21-.07-.4-.19-.61-.28a1.25,1.25,0,0,1-.78-1.41c.09-1,.13-1.94.19-2.91a.86.86,0,0,0-.14-.68c-.25-.27-.5-.53-.77-.77a19.3,19.3,0,0,0-1.35,7.11c0,.46,0,.91.05,1.35a2.33,2.33,0,0,0,.11.28,1.86,1.86,0,0,1,.11.57,12.19,12.19,0,0,0,.26,1.91c.12.65.26,1.3.43,1.93a18.86,18.86,0,0,0,1.18,2.82,2.39,2.39,0,0,0,.13.21c.39.6.76,1.21,1.14,1.82a1.17,1.17,0,0,1,.18.35,19.18,19.18,0,0,0,2.19,2.57,25.66,25.66,0,0,0,3.78,2.74ZM20,35.78a2.08,2.08,0,0,0-.39-.55,1.12,1.12,0,0,1-.76-.83c-1.05-.86-2.35-1.46-3.1-2.66A4.82,4.82,0,0,1,15,28.45a.77.77,0,0,1,1.12-.71,2.29,2.29,0,0,1,1.08.68c.52.57,1,1.2,1.46,1.81a2.64,2.64,0,0,0,2.15,1.2c.43,0,.86,0,1.29.07.76.05,1.09.44,1.06,1.22s-.26,1.21-.29,1.84a2.11,2.11,0,0,0,1,1.89c.67.49,1.5.7,2.18,1.17a5,5,0,0,1,2,2.5c.11.33.15.72-.22.93a.82.82,0,0,1-1-.19c-.27-.28-.52-.58-.76-.88a2.23,2.23,0,0,0-.76-.61c-.11,0-.15,0-.18-.1-.05-.32-.31-.39-.56-.5a21.39,21.39,0,0,1-3.41-1.64A3.46,3.46,0,0,1,20,35.78Z" transform="translate(0 -2.69)"/><path class="cls-7" d="M25.12,39.27c0,.08.07.14.18.1a2.23,2.23,0,0,1,.76.61c.24.3.49.6.76.88a.82.82,0,0,0,1,.19c.37-.21.33-.6.22-.93a5,5,0,0,0-2-2.5c-.68-.47-1.51-.68-2.18-1.17a2.11,2.11,0,0,1-1-1.89c0-.63.27-1.21.29-1.84s-.3-1.17-1.06-1.22c-.43,0-.86-.07-1.29-.07a2.64,2.64,0,0,1-2.15-1.2c-.48-.61-.94-1.24-1.46-1.81a2.29,2.29,0,0,0-1.08-.68.77.77,0,0,0-1.12.71,4.82,4.82,0,0,0,.75,3.29c.75,1.2,2,1.8,3.1,2.66a1.12,1.12,0,0,0,.76.83,2.08,2.08,0,0,1,.39.55,3.46,3.46,0,0,0,1.14,1.35,21.39,21.39,0,0,0,3.41,1.64C24.81,38.88,25.07,39,25.12,39.27Z" transform="translate(0 -2.69)"/><path class="cls-4" d="M21.52,9.9a.71.71,0,0,0,.68-.26c.14-.15.14-.28-.06-.4s-.48-.3-.78-.5l0,0a5.35,5.35,0,0,0,0,.6C21.36,9.56,21.21,9.83,21.52,9.9Z" transform="translate(0 -2.69)"/><path class="cls-4" d="M19.13,10.65c.13.15.28.29.44.45a.66.66,0,0,0,0-.8c-.05-.09-.1-.22-.2-.26l-.55.43C18.91,10.54,19.06,10.58,19.13,10.65Z" transform="translate(0 -2.69)"/><path class="cls-3" d="M20.05,25.28s0,0,0-.06l-.09,0,.06.05Z" transform="translate(0 -2.69)"/><path class="cls-7" d="M38.55,15.74c-1.45-.24-2.12-.1-2.82,1.3-.21.44-.37.91-.57,1.35a2.57,2.57,0,0,1-1.56,1.5,9.53,9.53,0,0,1-2.66.19c-1.62.11-2.44.59-2.69,2.16-.15.93.15,1.44.87,1.51a3,3,0,0,1,2.23,1.05c.4.14.44.46.41.82,0,.16-.08.33,0,.47.49,0,1,.05,1.45.09a1.33,1.33,0,0,1,1.33,1.48,5.8,5.8,0,0,0,0,.93,1,1,0,0,0,.82.92l1.09.21c.14,0,.31,0,.33.2a1.15,1.15,0,0,0,.42.48c.33-.15.66-.48,1,0a4.7,4.7,0,0,1,.82,1.06c.24.59.47,1.19.75,1.77.74,1.5,1.23,1.77,2.55,1.6a.25.25,0,0,0,.18-.08c-.31-.52-.49-1.11-.75-1.65a1.77,1.77,0,0,1,.08-1.67c.17-.3.37-.57.56-.86a1.58,1.58,0,0,0,0-1.71c-.29-.43-.66-.78-1-1.18a3.91,3.91,0,0,1-.84-1.6c-.09-.46-.1-.92-.21-1.37a10.66,10.66,0,0,0-1-2.26,2.14,2.14,0,0,1,0-2.21c.23-.38.48-.75.73-1.11a1,1,0,0,0,.71-.92.94.94,0,0,0-.45-.8A2.56,2.56,0,0,0,38.55,15.74Z" transform="translate(0 -2.69)"/><path class="cls-1" d="M14.61,39.5a6.32,6.32,0,0,0-1.2-2,7.68,7.68,0,0,0-2.09-1.8,3.4,3.4,0,0,0-1-.48,9.44,9.44,0,0,0-3.51-.25,8.16,8.16,0,0,0-3.59,1.3A6.65,6.65,0,0,0,.36,39.86,6.15,6.15,0,0,0,.08,41.4,14.3,14.3,0,0,0,0,43.13a6.86,6.86,0,0,0,1.13,3.3,5,5,0,0,0,1.08,1.33,9.47,9.47,0,0,0,1.5,1.1.36.36,0,0,0,.2.11h0a.19.19,0,0,0,.14.07,9,9,0,0,0,.87.31c.67.18,1.3.46,2,.58.08,0,.2.09.26.05h0l.13,0a0,0,0,0,0,.08,0s.08,0,.11,0A8.4,8.4,0,0,0,9,49.85a5.63,5.63,0,0,0,1.38-.53,6.31,6.31,0,0,0,1.21-.63c.39-.28.75-.59,1.11-.89a5.5,5.5,0,0,0,1.81-2.59c.12-.36.2-.72.31-1.08a.05.05,0,0,0,0,0,2.62,2.62,0,0,0,.12-.62,10.67,10.67,0,0,0,.12-1.6A9.56,9.56,0,0,0,14.61,39.5ZM4.11,48.9h0Z" transform="translate(0 -2.69)"/><path class="cls-8" d="M14.27,40.24a4.3,4.3,0,0,1,.31,1.42,6.2,6.2,0,0,1-1.92,3.71c-.25.26-.51.47-.88.16a.38.38,0,0,0-.5,0,.37.37,0,0,0-.1.49.43.43,0,0,1-.24.62,7,7,0,0,1-1.5.61c-.31.09-.5,0-.53-.34a1.49,1.49,0,0,0-1.34-1.38A1.74,1.74,0,0,0,5.78,46.7c-.22.53-.3.58-.84.39a6.88,6.88,0,0,1-3-2,16.57,16.57,0,0,0-1-1.38,2.09,2.09,0,0,1-.41-2h0a1.16,1.16,0,0,1,.32-.2,1.14,1.14,0,0,0,.5-1.85.89.89,0,0,1-.18-.33c0-.38.42-.53.5-.87a8,8,0,0,1,1.94-1.69,7.35,7.35,0,0,1,8.18.38A6,6,0,0,1,14,39.88.58.58,0,0,0,14.27,40.24Z" transform="translate(0 -2.69)"/><path class="cls-9" d="M.57,41.76a3.07,3.07,0,0,0,.55,2c.07.13.13.2.29.17.4-.07.55.13.41.5A.43.43,0,0,0,2,45a8.32,8.32,0,0,0,3,2c.39.15.58.07.68-.32a1.76,1.76,0,0,1,1.86-.9A1.6,1.6,0,0,1,9,46.87c0,.21.05.34.32.24a8.33,8.33,0,0,0,1.36-.53c.25-.14.62-.19.24-.61-.18-.2,0-.45.21-.6a.48.48,0,0,1,.73,0c.23.28.35.16.54,0a6.92,6.92,0,0,0,2-3.34,1.92,1.92,0,0,1,.17-.39A7.05,7.05,0,0,1,.77,44.31,4.6,4.6,0,0,1,.57,41.76Z" transform="translate(0 -2.69)"/><path class="cls-10" d="M14.27,40.24c-.15,0-.16,0-.23-.13a6.87,6.87,0,0,0-2.46-2.9,7.32,7.32,0,0,0-9.33.87c-.16.16-.28.39-.54.43a6.68,6.68,0,0,1,6.6-3.1A6.76,6.76,0,0,1,14.27,40.24Z" transform="translate(0 -2.69)"/><path class="cls-9" d="M1.21,39.38a1.22,1.22,0,0,1,.57,1.43c-.16.62-.45.85-1.21.95A5.23,5.23,0,0,1,1.21,39.38Z" transform="translate(0 -2.69)"/><path class="cls-9" d="M6.75,42.62a2,2,0,0,1-2.48,1.32A1.86,1.86,0,0,1,3.63,41a1.33,1.33,0,0,0,.11-.24c.25-.1.46-.26.72-.36A1.69,1.69,0,0,1,6.75,42.2C6.74,42.34,6.67,42.48,6.75,42.62Z" transform="translate(0 -2.69)"/><path class="cls-9" d="M13.07,41.55a1.34,1.34,0,0,1,.3,1.36c-.09.57-1,.83-1.56.44a1.45,1.45,0,0,1-.58-.62c.09-.2,0-.39,0-.59a1,1,0,0,1,1.41-.8C12.78,41.4,12.92,41.49,13.07,41.55Z" transform="translate(0 -2.69)"/><path class="cls-9" d="M9.05,37.31a.89.89,0,0,1-.41,1.17c-.52.21-.94,0-1.2-.65C7.73,37,8.11,36.85,9.05,37.31Z" transform="translate(0 -2.69)"/><path class="cls-1" d="M9,46.87a2,2,0,0,0-3.37-.22,1.81,1.81,0,0,1,1.94-1.28A1.59,1.59,0,0,1,9,46.87Z" transform="translate(0 -2.69)"/><path class="cls-1" d="M6.75,42.62c-.16-.12-.09-.3-.1-.45a1.63,1.63,0,0,0-2.41-1.53c-.16.07-.31.19-.5.14A1.79,1.79,0,0,1,6,40.42,1.87,1.87,0,0,1,6.75,42.62Z" transform="translate(0 -2.69)"/><path class="cls-1" d="M13.07,41.55c-.11.12-.2,0-.28,0-.86-.36-1.4,0-1.45.92,0,.11,0,.22-.11.29a1.19,1.19,0,0,1,.39-1.47A1.13,1.13,0,0,1,13.07,41.55Z" transform="translate(0 -2.69)"/><path class="cls-1" d="M9.05,37.31c0,.06,0,.17-.11.13-.88-.4-.93-.39-1.5.39a.71.71,0,0,1,.5-.88A.84.84,0,0,1,9.05,37.31Z" transform="translate(0 -2.69)"/><path class="cls-11" d="M10.12,40.66c-.06.19-.17.33-.38.32s-.25-.13-.25-.29.09-.32.29-.31S10.1,40.45,10.12,40.66Z" transform="translate(0 -2.69)"/><path class="cls-12" d="M4.94,38.92a.25.25,0,0,1-.23-.27c0-.18.09-.26.26-.24s.25.09.24.24A.37.37,0,0,1,4.94,38.92Z" transform="translate(0 -2.69)"/><path class="cls-13" d="M4,39a.17.17,0,0,1-.2.13A.14.14,0,0,1,3.64,39a.15.15,0,0,1,.17-.11A.15.15,0,0,1,4,39Z" transform="translate(0 -2.69)"/><path class="cls-14" d="M17.28,21.58c.48.76,1.1.48,1.65.2s1.26-.73,1.21-1.61c0-.1,0-.2,0-.32a1.76,1.76,0,0,0,2.33-.73,2.88,2.88,0,0,0,.09-3,2.12,2.12,0,0,0-2.36-.45,1.43,1.43,0,0,0-1,1.55.67.67,0,0,0,.85.68.53.53,0,0,0,.39-.87c-.09-.16-.14-.33.05-.42s.3.07.38.21c.18.35.37.72,0,1.08a1.27,1.27,0,0,1-1.38.51,1.13,1.13,0,0,1-.87-1.08,2.32,2.32,0,0,1,2-2.32c.27,0,.54,0,.87,0a2.22,2.22,0,0,1,.83-2.55,1.07,1.07,0,0,1,1.3-.1,1.31,1.31,0,0,1,.65,1.33,1.13,1.13,0,0,1-.82,1c-.57.2-.85,0-.76-.7.3.11.55.61.88.13a1,1,0,0,0,.06-1.16.73.73,0,0,0-1-.19,1.66,1.66,0,0,0-.21,2.64,1.88,1.88,0,0,1,.82,1c.14.61.6.68,1.06.67a.86.86,0,0,0,.84-.95c0-.62.18-.8.81-.89a2,2,0,0,0,1.64-1.66,1.81,1.81,0,0,0-.71-2,1.19,1.19,0,0,0-1.73.28.75.75,0,0,0,.12,1,.5.5,0,0,0,.79,0c.11-.15.17-.39.4-.15a.35.35,0,0,1-.08.57,1.15,1.15,0,0,1-1.24.17,1.13,1.13,0,0,1-.62-1.25,1.73,1.73,0,0,1,1.18-1.27,1.25,1.25,0,0,1,1.13,0l.32-.46c.14-.41.27-.77.36-1.14a2,2,0,0,0-1.52-2.52,1.07,1.07,0,0,0-1,.16,1.44,1.44,0,0,1-2.2-1,1,1,0,0,1,.55-1.1,1,1,0,0,1,1.12.32.28.28,0,0,1,0,.48c-.16.12-.38.24-.47,0s-.3-.39-.54-.23-.19.45-.11.68A1,1,0,0,0,25,6.5a2.36,2.36,0,0,0,.62-2.11,1.84,1.84,0,0,0-1.83-1.16A2.4,2.4,0,0,0,21.3,4.75a1.1,1.1,0,0,1-.95.69c-.37.07-.58.15-.35.64a.83.83,0,0,1-.62,1.22c-.66.17-.93-.26-1-.87.08,0,.14,0,.16,0,.27.23.43.74.92.37.21-.15.38-.41.17-.64-.36-.39-.78-.8-1.35-.53A1.93,1.93,0,0,0,17.21,7c-.12.49.1.72.68.69a2.09,2.09,0,0,1,2,1.18A2.06,2.06,0,0,1,19.8,11a1.82,1.82,0,0,1-2.6.49,1,1,0,0,1-.41-1,.77.77,0,0,1,.59-.71,1.22,1.22,0,0,1,1.13.37c.15.14.23.34,0,.5s-.31.12-.39-.09-.38-.37-.67-.28-.21.24-.19.41a.68.68,0,0,0,.55.65,1.54,1.54,0,0,0,1.82-1.87,1.76,1.76,0,0,0-2.1-1.3c-.43.1-.61.14-.72-.39A2.25,2.25,0,0,0,14.6,6.44a2.52,2.52,0,0,0-2.48,2.22,2,2,0,0,1-1,1.64,1.6,1.6,0,0,0-.61,2.28,1,1,0,0,1-.35,1.5c-.49.2-.79,0-.92-.54.29-.16.72.35.91-.16a.73.73,0,0,0-.2-.83,1,1,0,0,0-1.14-.19,1.91,1.91,0,0,0-1.16,2A1.61,1.61,0,0,1,7.19,16a.43.43,0,0,0-.11.12.93.93,0,0,0,.17,1.08c.36.4.45-.37.84-.2-.52.73-1,1.51-.37,2.43.31.44.72.25,1.24.08a2.75,2.75,0,0,0-.1,2.32,2.16,2.16,0,0,0,1.92,1.36,2.64,2.64,0,0,0,1.93-1.62A1.21,1.21,0,0,0,12.15,20a1.17,1.17,0,0,0-1.48.76c-.07.17-.11.35-.31.28s-.14-.27-.12-.44a1.52,1.52,0,0,1,1.48-1.1,1.43,1.43,0,0,1,1.45,1.32,2.64,2.64,0,0,0,.77,1.56c.59.59,1.21.35,1.82,0a1.13,1.13,0,0,0,.58-1.4c-.09-.4-.33-.66-.77-.55s-.68.2-.32.66c.09.13-.05.27-.18.31s-.29-.11-.33-.27a.77.77,0,0,1,.42-1,1,1,0,0,1,1.26.2c.37.39.26,1,.54,1.37h0C17,21.53,17.22,21.49,17.28,21.58Zm5.86-12a1.09,1.09,0,0,1,1.28,1.2.36.36,0,0,1-.16.25c-.14.06-.24,0-.32-.17-.64-1-.87-1-1.6,0-.08.12-.12.33-.39.24A1.53,1.53,0,0,1,23.14,9.53ZM12.36,11.11a1.91,1.91,0,0,1,.15-1.63c.08.47.07.94.19,1.39a.7.7,0,0,0,.8.55c.41,0,.77-.1.91-.55.08-.26.16-.56-.12-.74a.41.41,0,0,0-.62.19c-.08.18-.15.21-.28.1a.21.21,0,0,1,0-.3.93.93,0,0,1,.87-.37.77.77,0,0,1,.63.76,1.29,1.29,0,0,1-1.08,1.35A1.13,1.13,0,0,1,12.36,11.11Zm0,5.22c-.13-.18-.25-.45,0-.6s.23.17.32.27a.41.41,0,0,0,.65,0c.21-.21.15-.45-.06-.65a.86.86,0,0,0-1.13-.13,1.16,1.16,0,0,0-.69,1.35,1.29,1.29,0,0,0,.69.93A1.23,1.23,0,0,1,11,16.14a1.73,1.73,0,0,1,1.45-1.48,1.19,1.19,0,0,1,1.33.74.78.78,0,0,1-.33,1.13A.79.79,0,0,1,12.36,16.33Zm2.09,1.61c.27-.1.4.1.55.21a1.16,1.16,0,0,0,1.32,0A1.25,1.25,0,0,0,17.05,17c0-.34-.11-.7-.53-.71s-.59.12-.51.55c0,.14,0,.29-.18.29s-.28-.13-.31-.31,0-.2,0-.24c.73-.75.35-1.9,1-2.68s1.2-.83,1.83-.28c.13.11.3.21.2.4s-.29.1-.43,0c-.33-.21-.65-.45-1-.07a1.66,1.66,0,0,0-.66,1.43c0,.18,0,.36.27.45a1.17,1.17,0,0,1,.73,1.48,1.69,1.69,0,0,1-1.4,1.35A1.34,1.34,0,0,1,14.45,17.94Z" transform="translate(0 -2.69)"/><polygon class="cls-15" points="16.96 19.01 16.95 19 16.96 19.01 16.96 19.01"/><path class="cls-15" d="M16.06,18.69a1.69,1.69,0,0,0,1.4-1.35,1.17,1.17,0,0,0-.73-1.48c-.23-.09-.25-.27-.27-.45A1.66,1.66,0,0,1,17.12,14c.38-.38.7-.14,1,.07.14.09.31.18.43,0s-.07-.29-.2-.4c-.63-.55-1.23-.42-1.83.28s-.29,1.93-1,2.68c0,0,0,.16,0,.24s.11.32.31.31S16,17,16,16.86c-.08-.43.21-.56.51-.55s.53.37.53.71a1.25,1.25,0,0,1-.73,1.12,1.16,1.16,0,0,1-1.32,0c-.15-.11-.28-.31-.55-.21A1.34,1.34,0,0,0,16.06,18.69Z" transform="translate(0 -2.69)"/><path class="cls-15" d="M13.79,15.4a1.19,1.19,0,0,0-1.33-.74A1.73,1.73,0,0,0,11,16.14a1.23,1.23,0,0,0,1.09,1.38,1.29,1.29,0,0,1-.69-.93,1.16,1.16,0,0,1,.69-1.35.86.86,0,0,1,1.13.13c.21.2.27.44.06.65a.41.41,0,0,1-.65,0c-.09-.1,0-.5-.32-.27s-.09.42,0,.6a.79.79,0,0,0,1.1.2A.78.78,0,0,0,13.79,15.4Z" transform="translate(0 -2.69)"/><path class="cls-15" d="M13.81,11.86a1.29,1.29,0,0,0,1.08-1.35.77.77,0,0,0-.63-.76.93.93,0,0,0-.87.37.21.21,0,0,0,0,.3c.13.11.2.08.28-.1a.41.41,0,0,1,.62-.19c.28.18.2.48.12.74-.14.45-.5.54-.91.55a.7.7,0,0,1-.8-.55c-.12-.45-.11-.92-.19-1.39a1.91,1.91,0,0,0-.15,1.63A1.13,1.13,0,0,0,13.81,11.86Z" transform="translate(0 -2.69)"/><path class="cls-15" d="M22.34,10.82c.73-1.05,1-1.05,1.6,0,.08.13.18.23.32.17a.36.36,0,0,0,.16-.25,1.09,1.09,0,0,0-1.28-1.2A1.53,1.53,0,0,0,22,11.06C22.22,11.15,22.26,10.94,22.34,10.82Z" transform="translate(0 -2.69)"/><path class="cls-15" d="M21.19,4a1.91,1.91,0,0,1-2.37,1.1,1.32,1.32,0,0,0-1.19.43,3.87,3.87,0,0,0-.82,1.21c-2.25-1.58-4.58-.67-5.17,2-.08.39-.15.81-.51,1a2.8,2.8,0,0,0-1.3,1.83c-.06.23-.11.28-.37.29a2.17,2.17,0,0,0-2.23,2.73,1.13,1.13,0,0,1-.27,1,1.2,1.2,0,0,0-.11,1.53,1.77,1.77,0,0,1,.21,1.21C7,19,7.06,19.7,7.74,20c.52.19.51.42.51.85,0,2,1.85,3.32,3.49,2.45a4.4,4.4,0,0,0,1.37-1.38,2,2,0,0,0,3,.85c.39-.27.48-.74.81-1h0c-.28-.42-.17-1-.54-1.37a1,1,0,0,0-1.26-.2.77.77,0,0,0-.42,1c0,.16.11.34.33.27s.27-.18.18-.31c-.36-.46,0-.59.32-.66s.68.15.77.55a1.13,1.13,0,0,1-.58,1.4c-.61.33-1.23.57-1.82,0a2.64,2.64,0,0,1-.77-1.56,1.43,1.43,0,0,0-1.45-1.32,1.52,1.52,0,0,0-1.48,1.1c0,.17-.06.38.12.44s.24-.11.31-.28A1.17,1.17,0,0,1,12.15,20a1.21,1.21,0,0,1,.56,1.57,2.64,2.64,0,0,1-1.93,1.62,2.16,2.16,0,0,1-1.92-1.36A2.75,2.75,0,0,1,9,19.46c-.52.17-.93.36-1.24-.08-.63-.92-.15-1.7.37-2.43-.39-.17-.48.6-.84.2a.93.93,0,0,1-.17-1.08A.43.43,0,0,1,7.19,16a1.61,1.61,0,0,0,.42-1.59,1.91,1.91,0,0,1,1.16-2,1,1,0,0,1,1.14.19.73.73,0,0,1,.2.83c-.19.51-.62,0-.91.16.13.56.43.74.92.54a1,1,0,0,0,.35-1.5,1.6,1.6,0,0,1,.61-2.28,2,2,0,0,0,1-1.64A2.52,2.52,0,0,1,14.6,6.44a2.25,2.25,0,0,1,2.24,1.35c.11.53.29.49.72.39a1.76,1.76,0,0,1,2.1,1.3,1.54,1.54,0,0,1-1.82,1.87.68.68,0,0,1-.55-.65c0-.17,0-.35.19-.41s.55-.06.67.28.25.21.39.09.12-.36,0-.5a1.22,1.22,0,0,0-1.13-.37.77.77,0,0,0-.59.71,1,1,0,0,0,.41,1A1.82,1.82,0,0,0,19.8,11a2.06,2.06,0,0,0,.12-2.2,2.09,2.09,0,0,0-2-1.18c-.58,0-.8-.2-.68-.69a1.93,1.93,0,0,1,1.05-1.32c.57-.27,1,.14,1.35.53.21.23,0,.49-.17.64-.49.37-.65-.14-.92-.37,0,0-.08,0-.16,0,.09.61.36,1,1,.87A.83.83,0,0,0,20,6.08c-.23-.49,0-.57.35-.64a1.1,1.1,0,0,0,.95-.69,2.4,2.4,0,0,1,2.49-1.52,1.84,1.84,0,0,1,1.83,1.16A2.36,2.36,0,0,1,25,6.5a1,1,0,0,1-1.57-.4c-.08-.23-.14-.52.11-.68s.44-.11.54.23.31.15.47,0a.28.28,0,0,0,0-.48,1,1,0,0,0-1.12-.32A1,1,0,0,0,22.89,6a1.44,1.44,0,0,0,2.2,1,1.07,1.07,0,0,1,1-.16A2,2,0,0,1,27.61,9.3c-.09.37-.22.73-.36,1.14l-.32.46a1.25,1.25,0,0,0-1.13,0,1.73,1.73,0,0,0-1.18,1.27,1.13,1.13,0,0,0,.62,1.25,1.15,1.15,0,0,0,1.24-.17.35.35,0,0,0,.08-.57c-.23-.24-.29,0-.4.15a.5.5,0,0,1-.79,0,.75.75,0,0,1-.12-1A1.19,1.19,0,0,1,27,11.59a1.81,1.81,0,0,1,.71,2,2,2,0,0,1-1.64,1.66c-.63.09-.81.27-.81.89a.86.86,0,0,1-.84.95c-.46,0-.92-.06-1.06-.67a1.88,1.88,0,0,0-.82-1,1.66,1.66,0,0,1,.21-2.64.73.73,0,0,1,1,.19,1,1,0,0,1-.06,1.16c-.33.48-.58,0-.88-.13-.09.68.19.9.76.7a1.13,1.13,0,0,0,.82-1,1.31,1.31,0,0,0-.65-1.33,1.07,1.07,0,0,0-1.3.1A2.22,2.22,0,0,0,21.62,15c-.33,0-.6,0-.87,0a2.32,2.32,0,0,0-2,2.32,1.13,1.13,0,0,0,.87,1.08A1.27,1.27,0,0,0,21,17.86c.32-.36.13-.73,0-1.08-.08-.14-.18-.31-.38-.21s-.14.26-.05.42a.53.53,0,0,1-.39.87.67.67,0,0,1-.85-.68,1.43,1.43,0,0,1,1-1.55,2.12,2.12,0,0,1,2.36.45,2.88,2.88,0,0,1-.09,3,1.76,1.76,0,0,1-2.33.73c0,.12,0,.22,0,.32.05.88-.56,1.29-1.21,1.61s-1.17.56-1.65-.2c-.06-.09-.26,0-.32.12h0c.11.67.58.83,1.15.8a2.22,2.22,0,0,0,1.64-.67A6.76,6.76,0,0,1,22,20.11a3,3,0,0,0,1.47-2.78,1.46,1.46,0,0,0,2.28-1c.06-.45.23-.53.61-.64a2.55,2.55,0,0,0,1.85-2,2.46,2.46,0,0,0-.88-2.44l-.13-.12.48-.84h0c1-1.63.44-3.19-1.46-3.88-.51-.18-.31-.39-.19-.65a1.82,1.82,0,0,0-.3-2.2A3,3,0,0,0,21.19,4Z" transform="translate(0 -2.69)"/><path class="cls-14" d="M38.93,12.21c-.46.37-.24.77,0,1.12s.58.78,1.16.68h.22A1.18,1.18,0,0,0,41,15.5a1.93,1.93,0,0,0,2-.16,1.42,1.42,0,0,0,.14-1.6A1,1,0,0,0,42,13.2a.45.45,0,0,0-.39.62.36.36,0,0,0,.61.19c.09-.07.21-.11.28,0s0,.2-.11.26-.45.3-.71.12a.86.86,0,0,1-.45-.89.77.77,0,0,1,.66-.66A1.57,1.57,0,0,1,43.59,14c0,.18,0,.36.08.58a1.5,1.5,0,0,1,1.76.36.74.74,0,0,1,.16.87.86.86,0,0,1-.84.52A.75.75,0,0,1,44,15.9c-.17-.36,0-.56.41-.55,0,.21-.36.41,0,.59a.68.68,0,0,0,.78,0,.48.48,0,0,0,0-.7,1.1,1.1,0,0,0-1.77.05,1.23,1.23,0,0,1-.61.62c-.4.13-.42.45-.37.75a.59.59,0,0,0,.69.5c.41-.05.55.06.65.47a1.34,1.34,0,0,0,1.22,1,1.25,1.25,0,0,0,1.27-.63A.78.78,0,0,0,46,16.82a.5.5,0,0,0-.64.14.33.33,0,0,0,.08.53c.11.06.27.08.13.25a.23.23,0,0,1-.39,0,.77.77,0,0,1-.2-.81.74.74,0,0,1,.78-.5,1.15,1.15,0,0,1,.94.69.84.84,0,0,1,.07.75l.33.19c.29.06.54.12.79.15A1.34,1.34,0,0,0,49.44,17a.73.73,0,0,0-.18-.66,1,1,0,0,1,.48-1.53.63.63,0,0,1,.77.28.66.66,0,0,1-.13.77.19.19,0,0,1-.32,0c-.09-.1-.19-.24,0-.31s.24-.24.12-.39-.32-.09-.46,0a.68.68,0,0,0-.15,1.08,1.6,1.6,0,0,0,1.45.26,1.24,1.24,0,0,0,.64-1.3,1.62,1.62,0,0,0-1.2-1.56.75.75,0,0,1-.53-.58c-.07-.24-.14-.37-.45-.18a.55.55,0,0,1-.85-.33c-.17-.42.1-.64.5-.74a.23.23,0,0,1,0,.11c-.13.19-.46.34-.18.64.12.12.3.22.44.06s.48-.58.26-.94a1.3,1.3,0,0,0-1-.6c-.34,0-.47.12-.41.5A1.41,1.41,0,0,1,47.63,13a1.37,1.37,0,0,1-1.47.08,1.22,1.22,0,0,1-.52-1.7.64.64,0,0,1,.64-.34.51.51,0,0,1,.52.34.82.82,0,0,1-.17.78c-.08.11-.21.17-.33.05a.15.15,0,0,1,0-.26.31.31,0,0,0,.13-.46c0-.12-.17-.13-.29-.11a.48.48,0,0,0-.39.42,1,1,0,0,0,.39.92,1,1,0,0,0,1,.15,1.18,1.18,0,0,0,.72-1.49c-.11-.28-.14-.39.2-.51a1.49,1.49,0,0,0,.74-1.59,1.7,1.7,0,0,0-1.66-1.49A1.35,1.35,0,0,1,46,7.26,1.06,1.06,0,0,0,44.44,7a.69.69,0,0,1-1-.13c-.17-.31-.06-.52.3-.65.13.18-.18.51.17.6a.49.49,0,0,0,.54-.19.68.68,0,0,0,0-.78,1.26,1.26,0,0,0-1.41-.63A1.07,1.07,0,0,1,42,5.08L41.87,5a.63.63,0,0,0-.71.19c-.24.27.28.28.19.55-.52-.3-1.07-.56-1.64-.07-.27.24-.12.5,0,.83a1.85,1.85,0,0,0-1.55.1A1.44,1.44,0,0,0,37.43,8a1.75,1.75,0,0,0,1.22,1.17.81.81,0,0,0,1-.48A.78.78,0,0,0,39,7.74c-.12,0-.25,0-.21-.19s.17-.11.28-.1a1,1,0,0,1,.84.9,1,1,0,0,1-.77,1.06,1.79,1.79,0,0,0-1,.63c-.34.43-.14.83.12,1.21a.76.76,0,0,0,1,.28A.4.4,0,0,0,39.6,11c-.07-.21-.18-.43-.47-.16-.07.07-.18,0-.22-.1s.06-.2.16-.24a.53.53,0,0,1,.68.21.63.63,0,0,1,0,.86c-.23.27-.61.24-.87.45h0C39,12,39,12.16,38.93,12.21Zm8.46,3a.73.73,0,0,1-.7.94.23.23,0,0,1-.18-.09c-.06-.09,0-.17.09-.23.64-.49.62-.65-.13-1.06-.09-.05-.22-.06-.18-.24A1,1,0,0,1,47.39,15.24ZM45.56,8.17a1.3,1.3,0,0,1,1.09,0c-.31.09-.62.12-.91.23a.46.46,0,0,0-.31.57c0,.27.13.51.43.57s.39.06.49-.14A.27.27,0,0,0,46.18,9c-.13,0-.16-.09-.09-.18a.14.14,0,0,1,.2,0,.62.62,0,0,1,.31.56.52.52,0,0,1-.46.47.86.86,0,0,1-1-.62A.76.76,0,0,1,45.56,8.17Zm-3.48.38c.11-.1.28-.2.39-.07s-.09.16-.15.23a.27.27,0,0,0,0,.43c.16.13.31.07.43-.08a.58.58,0,0,0,0-.76.77.77,0,0,0-.95-.36.82.82,0,0,0-.58.52.83.83,0,0,1,.85-.82,1.14,1.14,0,0,1,1.09.86.82.82,0,0,1-.4.94A.52.52,0,0,1,42,9.3.53.53,0,0,1,42.08,8.55Zm-.92,1.51c.08.17,0,.27-.11.38a.79.79,0,0,0,.11.88.82.82,0,0,0,.8.4c.22,0,.46-.12.43-.4s-.12-.39-.4-.3c-.09,0-.19,0-.21-.1s.07-.2.19-.23.13,0,.16,0c.55.43,1.29.1,1.86.49s.63.73.31,1.2c-.06.09-.11.21-.24.15s-.1-.18-.05-.28.26-.47,0-.69a1.13,1.13,0,0,0-1-.34c-.12,0-.24,0-.28.22a.79.79,0,0,1-.94.59,1.15,1.15,0,0,1-1-.83A.9.9,0,0,1,41.16,10.06Z" transform="translate(0 -2.69)"/><polygon class="cls-15" points="38.83 9.31 38.84 9.31 38.83 9.31 38.83 9.31"/><path class="cls-15" d="M40.77,11.19a1.15,1.15,0,0,0,1,.83.79.79,0,0,0,.94-.59c0-.17.16-.19.28-.22a1.13,1.13,0,0,1,1,.34c.28.22.14.46,0,.69s-.09.22.05.28.18-.06.24-.15c.32-.47.2-.85-.31-1.2s-1.31-.06-1.86-.49c0,0-.11,0-.16,0s-.21.1-.19.23.12.13.21.1c.28-.09.39.1.4.3s-.21.38-.43.4a.82.82,0,0,1-.8-.4.79.79,0,0,1-.11-.88c.07-.11.19-.21.11-.38A.9.9,0,0,0,40.77,11.19Z" transform="translate(0 -2.69)"/><path class="cls-15" d="M42.8,9.44a.82.82,0,0,0,.4-.94,1.14,1.14,0,0,0-1.09-.86.83.83,0,0,0-.85.82.82.82,0,0,1,.58-.52.77.77,0,0,1,.95.36.58.58,0,0,1,0,.76c-.12.15-.27.21-.43.08a.27.27,0,0,1,0-.43c.06-.07.33,0,.15-.23s-.28,0-.39.07a.53.53,0,0,0,0,.75A.52.52,0,0,0,42.8,9.44Z" transform="translate(0 -2.69)"/><path class="cls-15" d="M45.16,9.19a.86.86,0,0,0,1,.62.52.52,0,0,0,.46-.47.62.62,0,0,0-.31-.56.14.14,0,0,0-.2,0c-.07.09,0,.14.09.18a.27.27,0,0,1,.17.39c-.1.2-.3.17-.49.14s-.39-.3-.43-.57a.46.46,0,0,1,.31-.57c.29-.11.6-.14.91-.23a1.3,1.3,0,0,0-1.09,0A.76.76,0,0,0,45.16,9.19Z" transform="translate(0 -2.69)"/><path class="cls-15" d="M46.47,14.8c.75.41.77.57.13,1.06-.08.06-.15.14-.09.23a.23.23,0,0,0,.18.09.73.73,0,0,0,.7-.94,1,1,0,0,0-1.1-.68C46.25,14.74,46.38,14.75,46.47,14.8Z" transform="translate(0 -2.69)"/><path class="cls-15" d="M50.92,13.54A1.28,1.28,0,0,1,50,12a.87.87,0,0,0-.38-.76,2.64,2.64,0,0,0-.86-.46,2.08,2.08,0,0,0-1.69-3.3c-.26,0-.55,0-.7-.27a1.85,1.85,0,0,0-1.32-.73c-.15,0-.19-.06-.22-.23a1.45,1.45,0,0,0-2-1.29.75.75,0,0,1-.68-.1.8.8,0,0,0-1,0,1.2,1.2,0,0,1-.79.23c-.43,0-.92.1-1,.58s-.24.37-.53.39a1.64,1.64,0,0,0-1.38,2.51,3,3,0,0,0,1,.81,1.36,1.36,0,0,0-.34,2.08c.2.24.52.27.74.47h0c.26-.21.64-.18.87-.45a.63.63,0,0,0,0-.86.53.53,0,0,0-.68-.21c-.1,0-.21.1-.16.24s.15.17.22.1c.29-.27.4-.05.47.16a.4.4,0,0,1-.31.55.76.76,0,0,1-1-.28c-.26-.38-.46-.78-.12-1.21a1.79,1.79,0,0,1,1-.63A1,1,0,0,0,40,8.35a1,1,0,0,0-.84-.9c-.11,0-.25,0-.28.1s.09.16.21.19a.78.78,0,0,1,.61.94.81.81,0,0,1-1,.48A1.75,1.75,0,0,1,37.43,8a1.44,1.44,0,0,1,.76-1.38,1.85,1.85,0,0,1,1.55-.1c-.15-.33-.3-.59,0-.83.57-.49,1.12-.23,1.64.07.09-.27-.43-.28-.19-.55A.63.63,0,0,1,41.87,5l.09.07a1.07,1.07,0,0,0,1.09.16,1.26,1.26,0,0,1,1.41.63.68.68,0,0,1,0,.78.49.49,0,0,1-.54.19c-.35-.09,0-.42-.17-.6-.36.13-.47.34-.3.65a.69.69,0,0,0,1,.13A1.06,1.06,0,0,1,46,7.26a1.35,1.35,0,0,0,1.17.57,1.7,1.7,0,0,1,1.66,1.49,1.49,1.49,0,0,1-.74,1.59c-.34.12-.31.23-.2.51a1.18,1.18,0,0,1-.72,1.49,1,1,0,0,1-1-.15,1,1,0,0,1-.39-.92.48.48,0,0,1,.39-.42c.12,0,.24,0,.29.11a.31.31,0,0,1-.13.46.15.15,0,0,0,0,.26c.12.12.25.06.33-.05a.82.82,0,0,0,.17-.78.51.51,0,0,0-.52-.34.64.64,0,0,0-.64.34,1.22,1.22,0,0,0,.52,1.7A1.37,1.37,0,0,0,47.63,13a1.41,1.41,0,0,0,.64-1.44c-.06-.38.07-.54.41-.5a1.3,1.3,0,0,1,1,.6c.22.36,0,.68-.26.94s-.32.06-.44-.06c-.28-.3.05-.45.18-.64a.23.23,0,0,0,0-.11c-.4.1-.67.32-.5.74a.55.55,0,0,0,.85.33c.31-.19.38-.06.45.18a.75.75,0,0,0,.53.58,1.62,1.62,0,0,1,1.2,1.56,1.24,1.24,0,0,1-.64,1.3,1.6,1.6,0,0,1-1.45-.26.68.68,0,0,1,.15-1.08c.14-.07.33-.13.46,0s.11.29-.12.39-.07.21,0,.31a.19.19,0,0,0,.32,0,.66.66,0,0,0,.13-.77.63.63,0,0,0-.77-.28,1,1,0,0,0-.48,1.53.73.73,0,0,1,.18.66,1.34,1.34,0,0,1-1.57,1.19c-.25,0-.5-.09-.79-.15l-.33-.19a.84.84,0,0,0-.07-.75,1.15,1.15,0,0,0-.94-.69.74.74,0,0,0-.78.5.77.77,0,0,0,.2.81.23.23,0,0,0,.39,0c.14-.17,0-.19-.13-.25a.33.33,0,0,1-.08-.53.5.5,0,0,1,.64-.14.78.78,0,0,1,.32,1.12,1.25,1.25,0,0,1-1.27.63,1.34,1.34,0,0,1-1.22-1c-.1-.41-.24-.52-.65-.47a.59.59,0,0,1-.69-.5c0-.3,0-.62.37-.75a1.23,1.23,0,0,0,.61-.62,1.1,1.1,0,0,1,1.77-.05.48.48,0,0,1,0,.7.68.68,0,0,1-.78,0c-.34-.18,0-.38,0-.59-.45,0-.58.19-.41.55a.75.75,0,0,0,.75.47.86.86,0,0,0,.84-.52.74.74,0,0,0-.16-.87,1.5,1.5,0,0,0-1.76-.36c0-.22,0-.4-.08-.58a1.57,1.57,0,0,0-1.69-1.19.77.77,0,0,0-.66.66.86.86,0,0,0,.45.89c.26.18.49,0,.71-.12s.19-.14.11-.26-.19-.08-.28,0a.36.36,0,0,1-.61-.19A.45.45,0,0,1,42,13.2a1,1,0,0,1,1.11.54,1.42,1.42,0,0,1-.14,1.6,1.93,1.93,0,0,1-2,.16A1.18,1.18,0,0,1,40.3,14h-.22c-.58.1-.9-.28-1.16-.68s-.45-.75,0-1.12c.06-.05,0-.18-.1-.21h0c-.44.12-.51.44-.45.82a1.47,1.47,0,0,0,.57,1,4.52,4.52,0,0,1,1.3,1.38,2,2,0,0,0,2,.77,1,1,0,0,0,.85,1.44c.31,0,.37.12.47.36A1.73,1.73,0,0,0,45,18.9a1.68,1.68,0,0,0,1.57-.76l.06-.1.6.26h0A1.64,1.64,0,0,0,49.74,17c.08-.35.23-.23.41-.17a1.22,1.22,0,0,0,1.45-.36A2,2,0,0,0,50.92,13.54Z" transform="translate(0 -2.69)"/><path class="cls-14" d="M18.31,41.32c-.53.42-.27.87,0,1.27s.66.9,1.32.79a2,2,0,0,1,.25,0,1.35,1.35,0,0,0,.74,1.71,2.2,2.2,0,0,0,2.32-.18,1.63,1.63,0,0,0,.15-1.83,1.1,1.1,0,0,0-1.26-.61.52.52,0,0,0-.45.7.41.41,0,0,0,.7.22c.11-.08.23-.12.32,0s0,.24-.13.3c-.25.17-.51.34-.81.14a1,1,0,0,1-.51-1,.86.86,0,0,1,.75-.75,1.79,1.79,0,0,1,1.94,1.35c0,.2.05.41.08.66a1.71,1.71,0,0,1,2,.41.84.84,0,0,1,.18,1,1,1,0,0,1-1,.6.88.88,0,0,1-.85-.54c-.19-.42-.05-.64.47-.63-.06.23-.42.47,0,.67a.75.75,0,0,0,.89,0,.54.54,0,0,0,.06-.79,1.26,1.26,0,0,0-2,.06,1.37,1.37,0,0,1-.7.7c-.45.16-.47.51-.42.86a.66.66,0,0,0,.79.56c.47,0,.63.07.74.55a1.54,1.54,0,0,0,1.4,1.11,1.41,1.41,0,0,0,1.44-.71.91.91,0,0,0-.36-1.29.59.59,0,0,0-.74.17.37.37,0,0,0,.1.59c.12.08.31.1.14.3a.27.27,0,0,1-.44,0,.88.88,0,0,1-.23-.93.85.85,0,0,1,.89-.57,1.29,1.29,0,0,1,1.07.78,1,1,0,0,1,.08.87l.38.2c.33.07.61.14.9.18a1.53,1.53,0,0,0,1.79-1.36.84.84,0,0,0-.21-.75,1.1,1.1,0,0,1,.55-1.75.73.73,0,0,1,.88.32.77.77,0,0,1-.15.88c-.1.14-.23.18-.36,0s-.22-.26,0-.35.27-.27.13-.44-.36-.1-.53,0a.77.77,0,0,0-.17,1.22,1.78,1.78,0,0,0,1.65.3,1.4,1.4,0,0,0,.73-1.48A1.82,1.82,0,0,0,31.43,43a.84.84,0,0,1-.6-.67c-.08-.27-.16-.42-.52-.2a.63.63,0,0,1-1-.37c-.19-.49.11-.73.57-.85,0,.06,0,.1,0,.12-.15.22-.53.39-.21.73.14.14.34.25.5.07s.55-.65.29-1.07a1.42,1.42,0,0,0-1.08-.68c-.39-.05-.54.13-.47.57a1.61,1.61,0,0,1-.74,1.64,1.55,1.55,0,0,1-1.67.09A1.39,1.39,0,0,1,26,40.42a.73.73,0,0,1,.73-.39.59.59,0,0,1,.59.39.93.93,0,0,1-.19.89c-.1.12-.24.2-.38.06s-.11-.22,0-.3.25-.32.16-.53-.2-.14-.33-.12a.54.54,0,0,0-.45.48A1.12,1.12,0,0,0,26.58,42a1.11,1.11,0,0,0,1.13.17,1.34,1.34,0,0,0,.81-1.7c-.12-.32-.16-.45.23-.58A1.72,1.72,0,0,0,29.59,38a1.92,1.92,0,0,0-1.88-1.7,1.51,1.51,0,0,1-1.34-.66,1.23,1.23,0,0,0-1.78-.27.78.78,0,0,1-1.17-.14c-.19-.35-.08-.6.34-.74.14.21-.21.58.19.68a.58.58,0,0,0,.62-.22.77.77,0,0,0,0-.89A1.45,1.45,0,0,0,23,33.38a1.23,1.23,0,0,1-1.24-.19.23.23,0,0,0-.1-.07.7.7,0,0,0-.81.21c-.27.31.32.32.22.62-.6-.33-1.23-.63-1.87-.07-.31.27-.14.56,0,.94a2.14,2.14,0,0,0-1.78.12,1.65,1.65,0,0,0-.86,1.57A2,2,0,0,0,18,37.84a.91.91,0,0,0,1.14-.55.89.89,0,0,0-.7-1.06c-.13,0-.28-.06-.24-.22s.2-.12.33-.12a1.16,1.16,0,0,1,.95,1,1.09,1.09,0,0,1-.88,1.21,2.07,2.07,0,0,0-1.12.72c-.39.49-.16.94.13,1.38a.88.88,0,0,0,1.12.32c.29-.1.47-.3.35-.63s-.21-.5-.53-.19c-.09.08-.21,0-.25-.11s.06-.22.18-.27a.59.59,0,0,1,.77.24.73.73,0,0,1,0,1c-.26.31-.7.27-1,.51h0C18.34,41.12,18.38,41.26,18.31,41.32ZM28,44.78a.83.83,0,0,1-.8,1.07.29.29,0,0,1-.2-.11c-.06-.1,0-.18.1-.26.73-.56.71-.74-.14-1.21-.1-.05-.26-.06-.22-.27A1.16,1.16,0,0,1,28,44.78Zm-2.08-8.06a1.42,1.42,0,0,1,1.24,0,9.3,9.3,0,0,0-1,.26.53.53,0,0,0-.35.65c0,.31.14.57.49.64s.45.08.56-.15a.31.31,0,0,0-.2-.45c-.14,0-.17-.1-.1-.21a.17.17,0,0,1,.23,0,.68.68,0,0,1,.35.62.6.6,0,0,1-.52.55,1,1,0,0,1-1.12-.71A.86.86,0,0,1,25.87,36.72Zm-4,.43c.12-.11.32-.23.45-.08s-.11.18-.18.27a.31.31,0,0,0,0,.49c.18.14.35.07.49-.1a.67.67,0,0,0,0-.87.88.88,0,0,0-1.08-.41,1,1,0,0,0-.65.6.94.94,0,0,1,1-.94,1.3,1.3,0,0,1,1.24,1,.91.91,0,0,1-.45,1.07.65.65,0,0,1-.82-1Zm-1,1.72c.09.2-.05.31-.12.43a.89.89,0,0,0,.12,1,1,1,0,0,0,.91.47c.25,0,.52-.15.5-.46s-.15-.45-.46-.34c-.11,0-.22,0-.24-.12s.08-.22.21-.26.15,0,.18,0c.63.49,1.48.11,2.13.55s.72.84.36,1.37c-.08.1-.14.24-.29.18s-.1-.21,0-.32c.13-.27.28-.54,0-.79a1.33,1.33,0,0,0-1.15-.39c-.13,0-.26.06-.32.25a.88.88,0,0,1-1.06.67,1.29,1.29,0,0,1-1.14-.94A1,1,0,0,1,20.85,38.87Z" transform="translate(0 -2.69)"/><polygon class="cls-15" points="18.2 38.39 18.2 38.39 18.2 38.39 18.2 38.39"/><path class="cls-15" d="M20.41,40.16a1.29,1.29,0,0,0,1.14.94.88.88,0,0,0,1.06-.67c.06-.19.19-.21.32-.25a1.33,1.33,0,0,1,1.15.39c.31.25.16.52,0,.79-.06.11-.11.25,0,.32s.21-.08.29-.18c.36-.53.22-1-.36-1.37s-1.5-.06-2.13-.55c0,0-.12,0-.18,0s-.23.11-.21.26.13.15.24.12c.31-.11.44.11.46.34s-.25.43-.5.46a1,1,0,0,1-.91-.47.89.89,0,0,1-.12-1c.07-.12.21-.23.12-.43A1,1,0,0,0,20.41,40.16Z" transform="translate(0 -2.69)"/><path class="cls-15" d="M22.72,38.16a.91.91,0,0,0,.45-1.07,1.3,1.3,0,0,0-1.24-1,.94.94,0,0,0-1,.94,1,1,0,0,1,.65-.6.88.88,0,0,1,1.08.41.67.67,0,0,1,0,.87c-.14.17-.31.24-.49.1a.31.31,0,0,1,0-.49c.07-.09.38-.06.18-.27s-.33,0-.45.08a.65.65,0,0,0,.82,1Z" transform="translate(0 -2.69)"/><path class="cls-15" d="M25.41,37.88a1,1,0,0,0,1.12.71.6.6,0,0,0,.52-.55.68.68,0,0,0-.35-.62.17.17,0,0,0-.23,0c-.07.11,0,.16.1.21a.31.31,0,0,1,.2.45c-.11.23-.35.19-.56.15s-.45-.33-.49-.64a.53.53,0,0,1,.35-.65,9.3,9.3,0,0,1,1-.26,1.42,1.42,0,0,0-1.24,0A.86.86,0,0,0,25.41,37.88Z" transform="translate(0 -2.69)"/><path class="cls-15" d="M26.91,44.27c.85.47.87.65.14,1.21-.09.08-.16.16-.1.26a.29.29,0,0,0,.2.11.83.83,0,0,0,.8-1.07A1.16,1.16,0,0,0,26.69,44C26.65,44.21,26.81,44.22,26.91,44.27Z" transform="translate(0 -2.69)"/><path class="cls-15" d="M32,42.84a1.45,1.45,0,0,1-1-1.71,1,1,0,0,0-.43-.87,3,3,0,0,0-1-.52A2.36,2.36,0,0,0,27.6,36c-.3,0-.63,0-.8-.31a2.09,2.09,0,0,0-1.5-.83c-.17,0-.22-.07-.25-.26A1.66,1.66,0,0,0,22.8,33.1.84.84,0,0,1,22,33a.91.91,0,0,0-1.17,0,1.29,1.29,0,0,1-.9.26c-.49,0-1.05.12-1.19.66s-.27.42-.6.46a1.86,1.86,0,0,0-1.57,2.85,3.38,3.38,0,0,0,1.16.92,1.57,1.57,0,0,0-.39,2.38c.23.27.6.3.84.53h0c.29-.24.73-.2,1-.51a.73.73,0,0,0,0-1,.59.59,0,0,0-.77-.24c-.12,0-.25.11-.18.27s.16.19.25.11c.32-.31.45,0,.53.19s-.06.53-.35.63a.88.88,0,0,1-1.12-.32c-.29-.44-.52-.89-.13-1.38a2.07,2.07,0,0,1,1.12-.72,1.09,1.09,0,0,0,.88-1.21,1.16,1.16,0,0,0-.95-1c-.13,0-.3,0-.33.12s.11.18.24.22a.89.89,0,0,1,.7,1.06.91.91,0,0,1-1.14.55,2,2,0,0,1-1.39-1.33,1.65,1.65,0,0,1,.86-1.57,2.14,2.14,0,0,1,1.78-.12c-.18-.38-.35-.67,0-.94.64-.56,1.27-.26,1.87.07.1-.3-.49-.31-.22-.62a.7.7,0,0,1,.81-.21.23.23,0,0,1,.1.07,1.23,1.23,0,0,0,1.24.19,1.45,1.45,0,0,1,1.61.71.77.77,0,0,1,0,.89.58.58,0,0,1-.62.22c-.4-.1-.05-.47-.19-.68-.42.14-.53.39-.34.74a.78.78,0,0,0,1.17.14,1.23,1.23,0,0,1,1.78.27,1.51,1.51,0,0,0,1.34.66A1.92,1.92,0,0,1,29.59,38a1.72,1.72,0,0,1-.84,1.81c-.39.13-.35.26-.23.58a1.34,1.34,0,0,1-.81,1.7A1.11,1.11,0,0,1,26.58,42a1.12,1.12,0,0,1-.45-1.05.54.54,0,0,1,.45-.48c.13,0,.27,0,.33.12s.09.41-.16.53-.14.2,0,.3.28.06.38-.06a.93.93,0,0,0,.19-.89.59.59,0,0,0-.59-.39.73.73,0,0,0-.73.39,1.39,1.39,0,0,0,.59,1.94,1.55,1.55,0,0,0,1.67-.09A1.61,1.61,0,0,0,29,40.63c-.07-.44.08-.62.47-.57a1.42,1.42,0,0,1,1.08.68c.26.42,0,.77-.29,1.07s-.36.07-.5-.07c-.32-.34.06-.51.21-.73,0,0,0-.06,0-.12-.46.12-.76.36-.57.85a.63.63,0,0,0,1,.37c.36-.22.44-.07.52.2a.84.84,0,0,0,.6.67,1.82,1.82,0,0,1,1.36,1.77,1.4,1.4,0,0,1-.73,1.48,1.78,1.78,0,0,1-1.65-.3.77.77,0,0,1,.17-1.22c.17-.08.39-.15.53,0s.12.33-.13.44-.09.24,0,.35.26.11.36,0a.77.77,0,0,0,.15-.88.73.73,0,0,0-.88-.32A1.1,1.1,0,0,0,30.08,46a.84.84,0,0,1,.21.75,1.53,1.53,0,0,1-1.79,1.36c-.29,0-.57-.11-.9-.18l-.38-.2a1,1,0,0,0-.08-.87,1.29,1.29,0,0,0-1.07-.78.85.85,0,0,0-.89.57.88.88,0,0,0,.23.93.27.27,0,0,0,.44,0c.17-.2,0-.22-.14-.3a.37.37,0,0,1-.1-.59.59.59,0,0,1,.74-.17.91.91,0,0,1,.36,1.29,1.41,1.41,0,0,1-1.44.71,1.54,1.54,0,0,1-1.4-1.11c-.11-.48-.27-.6-.74-.55a.66.66,0,0,1-.79-.56c-.05-.35,0-.7.42-.86a1.37,1.37,0,0,0,.7-.7,1.26,1.26,0,0,1,2-.06.54.54,0,0,1-.06.79.75.75,0,0,1-.89,0c-.39-.2,0-.44,0-.67-.52,0-.66.21-.47.63a.88.88,0,0,0,.85.54,1,1,0,0,0,1-.6.84.84,0,0,0-.18-1,1.71,1.71,0,0,0-2-.41c0-.25,0-.46-.08-.66a1.79,1.79,0,0,0-1.94-1.35.86.86,0,0,0-.75.75,1,1,0,0,0,.51,1c.3.2.56,0,.81-.14.1-.06.23-.16.13-.3s-.21-.09-.32,0a.41.41,0,0,1-.7-.22.52.52,0,0,1,.45-.7,1.1,1.1,0,0,1,1.26.61,1.63,1.63,0,0,1-.15,1.83,2.2,2.2,0,0,1-2.32.18,1.35,1.35,0,0,1-.74-1.71,2,2,0,0,0-.25,0c-.66.11-1-.33-1.32-.79s-.52-.85,0-1.27c.07-.06,0-.2-.11-.24h0c-.49.13-.58.51-.51.93a1.68,1.68,0,0,0,.65,1.19,5.28,5.28,0,0,1,1.48,1.57,2.26,2.26,0,0,0,2.23.89,1.12,1.12,0,0,0,1,1.64c.35,0,.42.13.54.41a2,2,0,0,0,1.7,1.23,1.88,1.88,0,0,0,1.78-.86l.07-.11.68.29h0a1.87,1.87,0,0,0,2.83-1.43c.09-.4.27-.27.47-.2a1.39,1.39,0,0,0,1.66-.41A2.28,2.28,0,0,0,32,42.84Z" transform="translate(0 -2.69)"/><path class="cls-14" d="M40.28,31.26c-.4.32-.2.67,0,1s.51.68,1,.6h.19a1,1,0,0,0,.56,1.3A1.71,1.71,0,0,0,43.8,34a1.24,1.24,0,0,0,.11-1.39.83.83,0,0,0-1-.47.4.4,0,0,0-.34.53c.09.25.28.36.53.17.08-.06.18-.09.25,0s0,.18-.1.23-.39.26-.62.1a.76.76,0,0,1-.39-.77.69.69,0,0,1,.57-.57,1.35,1.35,0,0,1,1.47,1c0,.15,0,.31.07.5a1.29,1.29,0,0,1,1.53.32.61.61,0,0,1,.13.74.74.74,0,0,1-.72.46.66.66,0,0,1-.65-.41c-.15-.31,0-.49.36-.48,0,.18-.32.36,0,.52a.57.57,0,0,0,.67,0,.42.42,0,0,0,0-.61,1,1,0,0,0-1.53,0,1.05,1.05,0,0,1-.53.53c-.35.12-.36.39-.32.66a.5.5,0,0,0,.6.43c.35,0,.47,0,.56.41a1.16,1.16,0,0,0,1.06.84,1.06,1.06,0,0,0,1.1-.54.68.68,0,0,0-.27-1,.43.43,0,0,0-.56.12.29.29,0,0,0,.07.46c.09,0,.23.07.11.22a.21.21,0,0,1-.34,0,.67.67,0,0,1-.17-.71.66.66,0,0,1,.68-.43,1,1,0,0,1,.81.6.72.72,0,0,1,.06.65l.29.16a6.88,6.88,0,0,0,.68.14,1.17,1.17,0,0,0,1.36-1,.67.67,0,0,0-.15-.57.83.83,0,0,1,.41-1.33.54.54,0,0,1,.56.91c-.08.11-.18.14-.28,0s-.16-.21,0-.27.2-.2.1-.33-.28-.08-.41,0a.59.59,0,0,0-.12.93,1.34,1.34,0,0,0,1.25.23,1.08,1.08,0,0,0,.56-1.13,1.41,1.41,0,0,0-1-1.35.65.65,0,0,1-.46-.5c-.06-.21-.12-.33-.39-.16a.49.49,0,0,1-.74-.28c-.14-.37.09-.56.44-.65,0,.05,0,.08,0,.1s-.4.29-.16.55.26.19.38.05.42-.49.22-.81a1.1,1.1,0,0,0-.82-.52c-.3,0-.41.1-.36.44A1.2,1.2,0,0,1,47.82,32a1.17,1.17,0,0,1-1.27.07,1,1,0,0,1-.45-1.47.56.56,0,0,1,.55-.3.45.45,0,0,1,.45.3.68.68,0,0,1-.14.67.18.18,0,0,1-.29.05c-.07-.08-.09-.17,0-.23s.19-.24.12-.4-.15-.11-.25-.09a.4.4,0,0,0-.34.36.89.89,0,0,0,1.2.93,1,1,0,0,0,.62-1.29c-.09-.24-.12-.35.18-.44a1.31,1.31,0,0,0,.63-1.38,1.45,1.45,0,0,0-1.43-1.29,1.22,1.22,0,0,1-1-.5.92.92,0,0,0-1.35-.21.6.6,0,0,1-.89-.11c-.15-.27-.06-.45.25-.56.11.15-.15.44.15.51a.43.43,0,0,0,.47-.16.6.6,0,0,0,0-.68,1.11,1.11,0,0,0-1.23-.54.94.94,0,0,1-.94-.14s0,0-.08-.06a.53.53,0,0,0-.61.16c-.21.24.24.24.16.48-.45-.26-.93-.48-1.42-.06-.24.2-.1.43,0,.72a1.57,1.57,0,0,0-1.35.09A1.26,1.26,0,0,0,39,27.6a1.48,1.48,0,0,0,1.06,1,.68.68,0,0,0,.86-.41.66.66,0,0,0-.53-.81c-.1,0-.21-.05-.18-.16s.15-.1.25-.1a.88.88,0,0,1,.73.79.84.84,0,0,1-.67.92,1.5,1.5,0,0,0-.86.54c-.3.38-.12.72.1,1.05a.67.67,0,0,0,.85.25c.23-.08.36-.24.27-.48s-.16-.38-.4-.15c-.07.06-.16,0-.19-.08s0-.17.13-.21a.46.46,0,0,1,.59.18.57.57,0,0,1,0,.75c-.2.23-.53.21-.75.39h0C40.3,31.11,40.34,31.22,40.28,31.26Zm7.33,2.63a.62.62,0,0,1-.6.81.19.19,0,0,1-.16-.08c0-.07,0-.14.08-.19.56-.43.54-.57-.11-.92-.08,0-.2,0-.16-.21A.87.87,0,0,1,47.61,33.89ZM46,27.76a1.13,1.13,0,0,1,.95,0c-.27.08-.54.1-.79.2a.41.41,0,0,0-.27.5c0,.23.11.43.37.49s.34.06.42-.12a.23.23,0,0,0-.14-.34c-.11,0-.14-.08-.08-.16a.12.12,0,0,1,.17,0,.54.54,0,0,1,.27.48.45.45,0,0,1-.4.41.74.74,0,0,1-.85-.54A.65.65,0,0,1,46,27.76Zm-3,.33c.09-.09.24-.17.34-.06s-.08.14-.13.2a.22.22,0,0,0,0,.37.24.24,0,0,0,.37-.07.5.5,0,0,0,0-.66.65.65,0,0,0-.82-.31.73.73,0,0,0-.5.45A.71.71,0,0,1,43,27.3,1,1,0,0,1,44,28a.7.7,0,0,1-.35.82.43.43,0,0,1-.66-.13A.44.44,0,0,1,43,28.09Zm-.8,1.3c.07.16,0,.24-.09.34a.68.68,0,0,0,.09.76.74.74,0,0,0,.69.35c.2,0,.4-.11.38-.35s-.11-.34-.35-.26a.12.12,0,0,1-.18-.09.17.17,0,0,1,.16-.19c.05,0,.12,0,.14,0,.48.37,1.12.08,1.62.42s.55.64.27,1c0,.08-.1.18-.21.13s-.08-.15,0-.24.22-.41,0-.6a1,1,0,0,0-.87-.29c-.1,0-.21,0-.24.18a.69.69,0,0,1-.81.52,1,1,0,0,1-.87-.72A.79.79,0,0,1,42.21,29.39Z" transform="translate(0 -2.69)"/><polygon class="cls-15" points="40.2 28.39 40.2 28.39 40.2 28.39 40.2 28.39"/><path class="cls-15" d="M41.88,30.38a1,1,0,0,0,.87.72.69.69,0,0,0,.81-.52c0-.14.14-.16.24-.18a1,1,0,0,1,.87.29c.24.19.12.39,0,.6s-.08.19,0,.24.16-.05.21-.13c.28-.4.17-.74-.27-1s-1.14-.05-1.62-.42c0,0-.09,0-.14,0a.17.17,0,0,0-.16.19.12.12,0,0,0,.18.09c.24-.08.34.09.35.26s-.18.33-.38.35a.74.74,0,0,1-.69-.35.68.68,0,0,1-.09-.76c.06-.1.16-.18.09-.34A.79.79,0,0,0,41.88,30.38Z" transform="translate(0 -2.69)"/><path class="cls-15" d="M43.63,28.86A.7.7,0,0,0,44,28,1,1,0,0,0,43,27.3a.71.71,0,0,0-.74.71.73.73,0,0,1,.5-.45.65.65,0,0,1,.82.31.5.5,0,0,1,0,.66.24.24,0,0,1-.37.07.22.22,0,0,1,0-.37c.05-.06.28,0,.13-.2s-.25,0-.34.06a.44.44,0,0,0,0,.64A.43.43,0,0,0,43.63,28.86Z" transform="translate(0 -2.69)"/><path class="cls-15" d="M45.68,28.64a.74.74,0,0,0,.85.54.45.45,0,0,0,.4-.41.54.54,0,0,0-.27-.48.12.12,0,0,0-.17,0c-.06.08,0,.12.08.16a.23.23,0,0,1,.14.34c-.08.18-.26.15-.42.12s-.34-.26-.37-.49a.41.41,0,0,1,.27-.5c.25-.1.52-.12.79-.2a1.13,1.13,0,0,0-.95,0A.65.65,0,0,0,45.68,28.64Z" transform="translate(0 -2.69)"/><path class="cls-15" d="M46.82,33.51c.65.35.67.49.11.92-.07,0-.12.12-.08.19a.19.19,0,0,0,.16.08.62.62,0,0,0,.6-.81.87.87,0,0,0-1-.59C46.62,33.46,46.74,33.47,46.82,33.51Z" transform="translate(0 -2.69)"/><path class="cls-15" d="M50.67,32.42a1.11,1.11,0,0,1-.78-1.3.76.76,0,0,0-.33-.66,2.09,2.09,0,0,0-.75-.4,1.8,1.8,0,0,0-1.46-2.86c-.23,0-.48,0-.61-.24a1.59,1.59,0,0,0-1.14-.63c-.13,0-.17,0-.19-.2A1.27,1.27,0,0,0,43.69,25a.61.61,0,0,1-.58-.09.71.71,0,0,0-.9,0,1,1,0,0,1-.68.2c-.37,0-.8.09-.9.5s-.21.32-.46.34A1.42,1.42,0,0,0,39,28.16a2.54,2.54,0,0,0,.88.71,1.19,1.19,0,0,0-.29,1.81c.18.2.45.22.64.4h0c.22-.18.55-.16.75-.39a.57.57,0,0,0,0-.75.46.46,0,0,0-.59-.18c-.09,0-.18.09-.13.21s.12.14.19.08c.24-.23.34,0,.4.15s0,.4-.27.48a.67.67,0,0,1-.85-.25c-.22-.33-.4-.67-.1-1.05a1.5,1.5,0,0,1,.86-.54.84.84,0,0,0,.67-.92.88.88,0,0,0-.73-.79c-.1,0-.22,0-.25.1s.08.13.18.16a.66.66,0,0,1,.53.81.68.68,0,0,1-.86.41,1.48,1.48,0,0,1-1.06-1,1.26,1.26,0,0,1,.66-1.19A1.57,1.57,0,0,1,41,26.32c-.13-.29-.27-.52,0-.72.49-.42,1-.2,1.42.06.08-.24-.37-.24-.16-.48a.53.53,0,0,1,.61-.16s.05,0,.08.06a.94.94,0,0,0,.94.14,1.11,1.11,0,0,1,1.23.54.6.6,0,0,1,0,.68.43.43,0,0,1-.47.16c-.3-.07,0-.36-.15-.51-.31.11-.4.29-.25.56a.6.6,0,0,0,.89.11.92.92,0,0,1,1.35.21,1.22,1.22,0,0,0,1,.5,1.45,1.45,0,0,1,1.43,1.29,1.31,1.31,0,0,1-.63,1.38c-.3.09-.27.2-.18.44a1,1,0,0,1-.62,1.29.89.89,0,0,1-1.2-.93.4.4,0,0,1,.34-.36c.1,0,.21,0,.25.09s.07.31-.12.4-.1.15,0,.23a.18.18,0,0,0,.29-.05.68.68,0,0,0,.14-.67.45.45,0,0,0-.45-.3.56.56,0,0,0-.55.3,1,1,0,0,0,.45,1.47A1.17,1.17,0,0,0,47.82,32a1.2,1.2,0,0,0,.56-1.24c-.05-.34.06-.48.36-.44a1.1,1.1,0,0,1,.82.52c.2.32,0,.59-.22.81s-.28.06-.38-.05,0-.39.16-.55,0-.05,0-.1c-.35.09-.58.28-.44.65a.49.49,0,0,0,.74.28c.27-.17.33-.05.39.16a.65.65,0,0,0,.46.5,1.41,1.41,0,0,1,1,1.35A1.08,1.08,0,0,1,50.74,35a1.34,1.34,0,0,1-1.25-.23.59.59,0,0,1,.12-.93c.13-.06.3-.11.41,0s.09.25-.1.33-.07.18,0,.27.2.08.28,0a.54.54,0,0,0-.56-.91.83.83,0,0,0-.41,1.33.67.67,0,0,1,.15.57,1.17,1.17,0,0,1-1.36,1,6.88,6.88,0,0,1-.68-.14l-.29-.16a.72.72,0,0,0-.06-.65,1,1,0,0,0-.81-.6.66.66,0,0,0-.68.43.67.67,0,0,0,.17.71.21.21,0,0,0,.34,0c.12-.15,0-.17-.11-.22a.29.29,0,0,1-.07-.46.43.43,0,0,1,.56-.12.68.68,0,0,1,.27,1,1.06,1.06,0,0,1-1.1.54,1.16,1.16,0,0,1-1.06-.84c-.09-.36-.21-.45-.56-.41a.5.5,0,0,1-.6-.43c0-.27,0-.54.32-.66a1.05,1.05,0,0,0,.53-.53,1,1,0,0,1,1.53,0,.42.42,0,0,1,0,.61.57.57,0,0,1-.67,0c-.3-.16,0-.34,0-.52-.4,0-.51.17-.36.48a.66.66,0,0,0,.65.41.74.74,0,0,0,.72-.46.61.61,0,0,0-.13-.74,1.29,1.29,0,0,0-1.53-.32c0-.19,0-.35-.07-.5a1.35,1.35,0,0,0-1.47-1,.69.69,0,0,0-.57.57.76.76,0,0,0,.39.77c.23.16.43,0,.62-.1s.17-.12.1-.23-.17-.07-.25,0c-.25.19-.44.08-.53-.17a.4.4,0,0,1,.34-.53.83.83,0,0,1,1,.47A1.24,1.24,0,0,1,43.8,34a1.71,1.71,0,0,1-1.77.14,1,1,0,0,1-.56-1.3h-.19c-.5.08-.78-.25-1-.6s-.39-.65,0-1c.06,0,0-.15-.08-.18h0c-.38.1-.44.38-.39.71a1.27,1.27,0,0,0,.49.9,4,4,0,0,1,1.13,1.2,1.72,1.72,0,0,0,1.7.67.85.85,0,0,0,.74,1.25c.27,0,.32.1.41.31a1.49,1.49,0,0,0,1.29.94,1.44,1.44,0,0,0,1.36-.66.35.35,0,0,0,0-.08l.52.22h0a1.42,1.42,0,0,0,2.15-1.09c.07-.3.2-.2.36-.15A1.05,1.05,0,0,0,51.27,35,1.73,1.73,0,0,0,50.67,32.42Z" transform="translate(0 -2.69)"/></svg>