<svg id="Capa_1" data-name="Capa 1" xmlns="http://www.w3.org/2000/svg" viewBox="0 0 160 90"><defs><style>.cls-1{isolation:isolate;}</style></defs><title>astronomia snoopy</title><g class="cls-1"><path d="M17.64,27q.84-2.44,1.76-6.24c.62-2.52,1.13-4.64,1.54-6.34l.54-2.58A13.86,13.86,0,0,1,23,11.7h.16c.57,0,1.05,0,1.46.07l.61.07c.45,2.32.93,4.74,1.42,7.25s.87,4.44,1.13,5.78l.57,2H27.5l-1,0H26c0-.12,0-.24,0-.37a9,9,0,0,0-.06-1c-.05-.48-.11-.86-.16-1.13L25.66,24q-.91-.09-2-.09h-.14c-.79,0-1.52,0-2.19,0l-1,.05a3.37,3.37,0,0,0-.26.89,11.07,11.07,0,0,0-.18,1.31l-.05.63v.06ZM20.71,22l1,.05,2,0h.73a3.58,3.58,0,0,0,.84-.05c0-.18-.06-.4-.11-.66s-.16-.76-.3-1.49l-.42-2.08L24,15.76A5.41,5.41,0,0,0,23.43,14l-.26.48c-.11.2-.32.62-.62,1.23s-.57,1.23-.83,1.83a10.32,10.32,0,0,0-.63,2.16C20.93,20.52,20.8,21.31,20.71,22Z"/><path d="M29.2,25.45l1-2a4,4,0,0,0,1.72,1.06,4.76,4.76,0,0,0,1.47.31h.2a2.79,2.79,0,0,0,1.29-.47.75.75,0,0,0,.33-.58.55.55,0,0,0,0-.17,1.34,1.34,0,0,0-.7-.75A7.93,7.93,0,0,0,33,22.08a7,7,0,0,1-1.46-.67,4.42,4.42,0,0,1-1-.79,5.08,5.08,0,0,1-.52-.73,1.66,1.66,0,0,1-.21-.6,2,2,0,0,1,0-.34,2.33,2.33,0,0,1,.11-.7,2.19,2.19,0,0,1,.47-.83,6.57,6.57,0,0,1,.68-.61,4.37,4.37,0,0,1,.78-.45c.26-.12.49-.22.66-.28l.45-.13a6,6,0,0,1,.81-.07,2.73,2.73,0,0,1,.41,0,4.18,4.18,0,0,1,1,.22,6.17,6.17,0,0,1,.76.35,3.46,3.46,0,0,1,.47.31l.18.14L35.8,19a5.76,5.76,0,0,0-.81-.64,2.54,2.54,0,0,0-.72-.33,3.54,3.54,0,0,0-.5-.1h-.44a2.22,2.22,0,0,0-1,.21.62.62,0,0,0-.38.46,1,1,0,0,0,.14.56,1.84,1.84,0,0,0,.49.52,6.12,6.12,0,0,0,.71.39c.29.14.62.28,1,.43l.83.35a4.45,4.45,0,0,1,1.32.92,2.67,2.67,0,0,1,.61,1,3.44,3.44,0,0,1,.12.81,2.4,2.4,0,0,1-.11.71,2.62,2.62,0,0,1-.19.46,3.59,3.59,0,0,1-.36.59,3.53,3.53,0,0,1-.58.64,3.09,3.09,0,0,1-.88.5,4.26,4.26,0,0,1-1.23.29c-.25,0-.48,0-.72,0a6.8,6.8,0,0,1-.9-.06,5.58,5.58,0,0,1-1.31-.32c-.34-.14-.65-.29-.92-.43a3.37,3.37,0,0,1-.59-.38Z"/><path d="M38.3,17.29l2.18,0c-.09-1.23-.17-2.14-.26-2.73a5.75,5.75,0,0,0,2.27-.36c0,.81-.05,1.81-.07,3a16.17,16.17,0,0,0,3.34-.49A9.7,9.7,0,0,0,46,19l-.87,0q-1.35,0-2.79.06c0,.84,0,1.63,0,2.36,0,2.59,0,4.58.13,6a5.07,5.07,0,0,0-.66,0,3.25,3.25,0,0,0-1.35.27c0-.32,0-.75,0-1.27l.06-3.17c0-.53,0-1,0-1.51q0-1.43-.06-2.55c-.81.05-1.5.12-2.09.21,0-.18,0-.35,0-.52A5.4,5.4,0,0,0,38.3,17.29Z"/><path d="M47.19,16.94a7.62,7.62,0,0,0,2.28-.27c0,.49,0,1.1-.07,1.84a7.66,7.66,0,0,1,.94-.71A6.92,6.92,0,0,1,52,17.09a3.65,3.65,0,0,1,1-.16,2.44,2.44,0,0,1,.55.06,2.67,2.67,0,0,1,2.18,2.65A5,5,0,0,1,55.5,21l-2.22-.48a1.46,1.46,0,0,0,.18-.5,1.31,1.31,0,0,0,0-.62.57.57,0,0,0-.34-.42,2.3,2.3,0,0,0-.42,0,1.72,1.72,0,0,0-.69.15,6.4,6.4,0,0,0-.84.4,4.73,4.73,0,0,0-.91.7,5.7,5.7,0,0,0-.88,1.06c0,.49,0,.95,0,1.38,0,1.54,0,2.82.13,3.83a6.09,6.09,0,0,0-.72,0,3.81,3.81,0,0,0-1.27.19c0-.17,0-.4,0-.7s0-.85.05-1.69c0-.59,0-1.17,0-1.73v-.67c0-.76,0-1.61-.11-2.54A20.48,20.48,0,0,0,47.19,16.94Z"/><path d="M57.32,21.81v-.34a10.2,10.2,0,0,1,.15-1.76,4.37,4.37,0,0,1,.75-1.8,2.79,2.79,0,0,1,1.43-1.05,4.84,4.84,0,0,1,1.67-.28h0a5.4,5.4,0,0,1,1.63.24,2.66,2.66,0,0,1,.68.31,2.49,2.49,0,0,1,.47.35,1.75,1.75,0,0,1,.35.48,5.67,5.67,0,0,1,.25.51c0,.13.13.33.23.61a6.34,6.34,0,0,1,.28,1.52,9.42,9.42,0,0,1,.07,1.17c0,.61,0,1.34-.11,2.19a3,3,0,0,1-1,2.16,3.52,3.52,0,0,1-2,.78,4.24,4.24,0,0,1-.62,0,5.13,5.13,0,0,1-1.74-.29,3.08,3.08,0,0,1-1.65-1.18,5.32,5.32,0,0,1-.67-1.59A8.53,8.53,0,0,1,57.32,21.81Zm1.85-.61v.25a7,7,0,0,0,.11,1.37,4.24,4.24,0,0,0,.41,1.3,1.65,1.65,0,0,0,.87.74,2.38,2.38,0,0,0,.91.18,1.88,1.88,0,0,0,.34,0,1.73,1.73,0,0,0,1-.49,2.15,2.15,0,0,0,.5-1.35q.06-.8.06-1.35c0-.29,0-.53,0-.73a7.34,7.34,0,0,0-.14-.94,3.89,3.89,0,0,0-.4-.9,1.38,1.38,0,0,0-.66-.49,2.6,2.6,0,0,0-.89-.17l-.9.17a1.67,1.67,0,0,0-.89.92A4,4,0,0,0,59.17,21.2Z"/><path d="M67,17a7.57,7.57,0,0,0,2.28-.27c0,.39,0,.88-.06,1.49a6.51,6.51,0,0,1,.76-.63,6.32,6.32,0,0,1,1-.53,2.45,2.45,0,0,1,1-.22h.16a2.32,2.32,0,0,1,1.17.43l.13.09a3.5,3.5,0,0,1,.3.36,3.34,3.34,0,0,1,.42.73,8.06,8.06,0,0,1,.38,1.23,12.26,12.26,0,0,1,.29,1.81c0,.54.07,1.19.08,2,0,.19,0,.38,0,.59,0,1-.09,2.15-.22,3.37a10.11,10.11,0,0,0-1.12-.08,3.1,3.1,0,0,0-.9.1l.09-.75c0-.31.09-.88.16-1.71s.09-1.49.09-2.14v-.12a10.66,10.66,0,0,0-.2-2,2.54,2.54,0,0,0-.6-1.39l-.13-.13a.61.61,0,0,0-.35-.11,2.17,2.17,0,0,0-1.32.83,10.64,10.64,0,0,0-1.23,1.58c0,.36,0,.7,0,1,0,1.57,0,2.91.13,4-.24,0-.47,0-.69,0a4.18,4.18,0,0,0-1.33.2c0-.17,0-.4,0-.69s0-.86,0-1.7,0-1.41,0-2.07c0-.11,0-.22,0-.33,0-.76,0-1.61-.1-2.54A18.48,18.48,0,0,0,67,17Z"/><path d="M77,21.81v-.34a10.2,10.2,0,0,1,.15-1.76,4.52,4.52,0,0,1,.76-1.8,2.72,2.72,0,0,1,1.42-1.05A4.88,4.88,0,0,1,81,16.58h0a5.35,5.35,0,0,1,1.63.24,2.51,2.51,0,0,1,.68.31,3,3,0,0,1,.48.35,2,2,0,0,1,.34.48,5.67,5.67,0,0,1,.25.51c.06.13.14.33.24.61a6.89,6.89,0,0,1,.28,1.52c0,.32.06.71.07,1.17s0,1.34-.12,2.19a2.89,2.89,0,0,1-1,2.16,3.49,3.49,0,0,1-2,.78,4.24,4.24,0,0,1-.62,0,5.11,5.11,0,0,1-1.73-.29,3.07,3.07,0,0,1-1.66-1.18,5.59,5.59,0,0,1-.67-1.59A8.53,8.53,0,0,1,77,21.81Zm1.85-.61v.25a7,7,0,0,0,.11,1.37,4.24,4.24,0,0,0,.41,1.3,1.65,1.65,0,0,0,.87.74,2.43,2.43,0,0,0,.92.18,1.94,1.94,0,0,0,.34,0,1.7,1.7,0,0,0,1-.49A2.21,2.21,0,0,0,83,23.18q.06-.8.06-1.35a7.1,7.1,0,0,0,0-.73,5.92,5.92,0,0,0-.14-.94,4.42,4.42,0,0,0-.39-.9,1.41,1.41,0,0,0-.67-.49A2.55,2.55,0,0,0,81,18.6l-.89.17a1.66,1.66,0,0,0-.9.92A4,4,0,0,0,78.82,21.2Z"/><path d="M86.89,16.76H87a6.64,6.64,0,0,0,2.17-.28c0,.29,0,.67-.05,1.13a3.79,3.79,0,0,1,2.31-1,2.31,2.31,0,0,1,1.31.42,1.14,1.14,0,0,1,.34.31c.18-.18.36-.35.54-.5a5.83,5.83,0,0,1,.74-.53,4.32,4.32,0,0,1,.93-.44,2.38,2.38,0,0,1,.68-.09l.33,0a2.17,2.17,0,0,1,1,.41l.13.09a2.41,2.41,0,0,1,.31.36,4,4,0,0,1,.42.72,8.91,8.91,0,0,1,.39,1.22,12.63,12.63,0,0,1,.29,1.82,18.9,18.9,0,0,1,.08,2V23c0,1-.09,2.16-.22,3.37a8.61,8.61,0,0,0-1.14-.09,3.18,3.18,0,0,0-.91.11c0-.19.07-.45.1-.77s.1-.91.16-1.76.1-1.62.1-2.31a9.68,9.68,0,0,0-.2-2,2,2,0,0,0-.62-1.29A1.51,1.51,0,0,0,96,18a.21.21,0,0,0-.12,0,1.51,1.51,0,0,0-.61.19A4,4,0,0,0,94,19.33c.17.66.28,1.16.34,1.49a11.32,11.32,0,0,1,.1,1.76v.12q0,1.22-.18,3a8.28,8.28,0,0,0-1.13-.08,3.1,3.1,0,0,0-.9.1q0-.23.09-.6c0-.26.09-.72.14-1.4s.07-1.14.07-1.64v-.21a6.7,6.7,0,0,0-.22-1.66,1.9,1.9,0,0,0-.63-1.11l-.13-.13a.59.59,0,0,0-.34-.1,2.14,2.14,0,0,0-1.32.82,9.43,9.43,0,0,0-.8.95c0,.52,0,1,0,1.51,0,1.68,0,3.07.13,4.17-.23,0-.45,0-.65,0a4,4,0,0,0-1.35.22c0-.18,0-.41,0-.7s0-.86,0-1.71c0-.6,0-1.18,0-1.74v-.67c0-.77-.05-1.61-.11-2.53A20.26,20.26,0,0,0,86.89,16.76Z"/><path d="M100.31,14.51l.43-.21c.18-.08.51-.26,1-.53s1-.52,1.36-.76.83-.53,1.28-.84a5.56,5.56,0,0,0,1-.83,23.85,23.85,0,0,0,1.34,2.16l-1.24.58c-.5.23-1.23.6-2.19,1.09a10.94,10.94,0,0,0-1.82,1.09A14.29,14.29,0,0,0,100.31,14.51Zm.86,3a7.55,7.55,0,0,0,2.34-.29,87.19,87.19,0,0,0,0,9.82,4.77,4.77,0,0,0-2.05.16c0-.17,0-.4,0-.7s0-.86,0-1.7,0-1.64,0-2.4,0-1.61-.11-2.54A20.06,20.06,0,0,0,101.17,17.49Z"/><path d="M106.24,25.07l0-.32a3.54,3.54,0,0,1,.1-.77,1.87,1.87,0,0,1,.46-.92,3.79,3.79,0,0,1,.93-.7,4.07,4.07,0,0,1,1-.39,7.54,7.54,0,0,1,1.11-.2,6.23,6.23,0,0,1,1-.06H112a7.55,7.55,0,0,1,1.06.07q0-2.87-1.5-3.42a1.16,1.16,0,0,0-.41-.07,1.91,1.91,0,0,0-.6.07,2.57,2.57,0,0,0-.65.25,1.73,1.73,0,0,0-.57.55,2.3,2.3,0,0,0-.37.89,4.67,4.67,0,0,0-1.9-.78.86.86,0,0,0,0-.13c0-.05,0-.16.11-.33a3.32,3.32,0,0,1,.2-.47l.33-.54a2.11,2.11,0,0,1,.48-.54c.18-.15.4-.3.65-.47a2,2,0,0,1,.86-.34,9.42,9.42,0,0,1,1.08-.13h.24a4.16,4.16,0,0,1,1.06.15,3,3,0,0,1,1.33.54q1.5,1.2,1.5,5.46c0,.85,0,1.78-.14,2.81a1.9,1.9,0,0,0,.4.53,2.73,2.73,0,0,0,.44.39l.19.13-1.48,1.59-.76-.78a3,3,0,0,1-.63.17,11.93,11.93,0,0,1-2.54.29,9.71,9.71,0,0,1-1.21-.07c-1.49-.12-2.42-.63-2.78-1.51A3.33,3.33,0,0,1,106.24,25.07Zm2-.32c0,.42.39.68,1.12.79a7.63,7.63,0,0,0,2.27,0,3.77,3.77,0,0,0,1.45-.39l0-1.4a22.1,22.1,0,0,0-2.23-.13c-.28,0-.52,0-.74,0a3.43,3.43,0,0,0-1.48.34A.84.84,0,0,0,108.21,24.75Z"/><path d="M116.64,28.76a2.4,2.4,0,0,0,.18-.25,6.44,6.44,0,0,0,.36-.68,8.79,8.79,0,0,0,.44-1.06,6.48,6.48,0,0,0,.3-1.32,6.06,6.06,0,0,0,0-1.53c1.14.32,2,.52,2.45.6a3.56,3.56,0,0,1-.08.41c0,.17-.12.5-.26,1s-.27.93-.42,1.35A12.75,12.75,0,0,1,119,28.6a5.67,5.67,0,0,1-.81,1.17A8,8,0,0,0,116.64,28.76Z"/><path d="M18.4,34.76h.12a6.53,6.53,0,0,0,2.16-.28c0,.29,0,.67,0,1.13a3.79,3.79,0,0,1,2.31-1,2.31,2.31,0,0,1,1.31.42,1,1,0,0,1,.33.31c.18-.18.36-.35.54-.5a7,7,0,0,1,.75-.53,4.32,4.32,0,0,1,.93-.44,2.38,2.38,0,0,1,.68-.09l.33,0a2.25,2.25,0,0,1,1.05.41l.13.09a2.41,2.41,0,0,1,.31.36,4,4,0,0,1,.42.72,8.91,8.91,0,0,1,.39,1.22,12.63,12.63,0,0,1,.29,1.82,18.9,18.9,0,0,1,.08,2V41c0,1-.09,2.16-.22,3.37a8.61,8.61,0,0,0-1.14-.09,3.18,3.18,0,0,0-.91.11c0-.19.06-.45.1-.77s.1-.91.16-1.76.1-1.62.1-2.31a9.68,9.68,0,0,0-.2-2,2,2,0,0,0-.62-1.29L27.54,36a.27.27,0,0,0-.12,0,1.51,1.51,0,0,0-.61.19,4,4,0,0,0-1.33,1.18c.17.66.28,1.16.34,1.49a12.77,12.77,0,0,1,.1,1.76v.12q0,1.21-.18,3a8.39,8.39,0,0,0-1.13-.08,3.1,3.1,0,0,0-.9.1q0-.22.09-.6c0-.26.09-.72.14-1.4s.07-1.14.07-1.64v-.21a7.2,7.2,0,0,0-.22-1.66,1.9,1.9,0,0,0-.63-1.11L23,36.94a.59.59,0,0,0-.34-.1,2.18,2.18,0,0,0-1.33.82,9.45,9.45,0,0,0-.79,1c0,.52,0,1,0,1.51q0,2.52.12,4.17c-.22,0-.44,0-.64,0a4,4,0,0,0-1.35.22c0-.18,0-.41,0-.7s0-.86,0-1.71q0-.9,0-1.74v-.67c0-.77-.05-1.61-.11-2.53A22.69,22.69,0,0,0,18.4,34.76Z"/><path d="M32.25,43.07c0-.1,0-.21,0-.32a3.51,3.51,0,0,1,.09-.77,1.87,1.87,0,0,1,.46-.92,3.93,3.93,0,0,1,2-1.09,7.17,7.17,0,0,1,1.1-.2,6.23,6.23,0,0,1,1-.06H38a7.79,7.79,0,0,1,1.07.07c0-1.91-.54-3.05-1.51-3.42a1.12,1.12,0,0,0-.41-.07,1.94,1.94,0,0,0-.6.07,2.72,2.72,0,0,0-.65.25,1.83,1.83,0,0,0-.57.55,2.46,2.46,0,0,0-.37.89,4.67,4.67,0,0,0-1.9-.78.86.86,0,0,0,0-.13s0-.16.11-.33a3.35,3.35,0,0,1,.21-.47c.07-.14.18-.32.32-.54a2.34,2.34,0,0,1,.49-.54,7,7,0,0,1,.65-.47,1.93,1.93,0,0,1,.85-.34,9.42,9.42,0,0,1,1.08-.13h.24a4.16,4.16,0,0,1,1.06.15,3,3,0,0,1,1.33.54Q41,36.2,41,40.46c0,.85,0,1.78-.14,2.81a2.11,2.11,0,0,0,.4.53,2.73,2.73,0,0,0,.44.39l.19.13-1.48,1.59-.75-.78a3.3,3.3,0,0,1-.63.17,12,12,0,0,1-2.55.29,9.71,9.71,0,0,1-1.21-.07c-1.49-.12-2.42-.63-2.78-1.51A3.33,3.33,0,0,1,32.25,43.07Zm2-.32c0,.42.39.68,1.12.79a8,8,0,0,0,1.1.08,7.88,7.88,0,0,0,1.17-.09,3.77,3.77,0,0,0,1.45-.39l0-1.4a21.94,21.94,0,0,0-2.23-.13c-.27,0-.52,0-.74,0a3.47,3.47,0,0,0-1.48.34A.86.86,0,0,0,34.22,42.75Z"/><path d="M42.32,35.29l2.18,0c-.08-1.23-.17-2.14-.25-2.73a5.82,5.82,0,0,0,2.27-.36c0,.81-.06,1.81-.07,3a16.28,16.28,0,0,0,3.34-.49A9.18,9.18,0,0,0,50.07,37l-.88,0q-1.34,0-2.79.06c0,.84,0,1.63,0,2.36q0,3.89.13,6a5.33,5.33,0,0,0-.67,0,3.25,3.25,0,0,0-1.35.27c0-.32,0-.75,0-1.27l.06-3.17c0-.53,0-1,0-1.51q0-1.42-.06-2.55c-.8,0-1.5.12-2.08.21,0-.18,0-.35,0-.52A5.38,5.38,0,0,0,42.32,35.29Z"/><path d="M51.3,37.51a4.22,4.22,0,0,1,.46-1.33A5.51,5.51,0,0,1,52.61,35a3.9,3.9,0,0,1,1.19-.9,3,3,0,0,1,1.32-.32h.1a3.66,3.66,0,0,1,2.22.77,2.46,2.46,0,0,1,.87,2,17.93,17.93,0,0,1-.32,3H56.65a16.07,16.07,0,0,0-3.53.22s0,.1,0,.24a1.74,1.74,0,0,0,.07.59,7.67,7.67,0,0,0,.23.78,2.63,2.63,0,0,0,1.41,1.37l.43.14a4.31,4.31,0,0,0,.52,0h0l.71-.22a2.9,2.9,0,0,0,.72-.69,9.17,9.17,0,0,0,1.33,1.27s0,0,0,0a.65.65,0,0,1-.14.26,3.6,3.6,0,0,1-.41.45,3.74,3.74,0,0,1-2.56.86h-.15a3.35,3.35,0,0,1-2.53-1,6.61,6.61,0,0,1-1.67-4.6A9.89,9.89,0,0,1,51.3,37.51Zm1.92.24.61,0,1.27-.05h.57a2.34,2.34,0,0,1,.49,0l0-.11a1.9,1.9,0,0,0,.07-.27,1.71,1.71,0,0,0,.06-.43,1.21,1.21,0,0,0,0-.37,1.15,1.15,0,0,0-.17-.39,1,1,0,0,0-.36-.28,1.47,1.47,0,0,0-.59-.13h-.05a1.8,1.8,0,0,0-1.2.57A2.18,2.18,0,0,0,53.22,37.75Z"/><path d="M60.57,34.76h.12a6.53,6.53,0,0,0,2.16-.28c0,.29,0,.67,0,1.13a3.79,3.79,0,0,1,2.31-1,2.31,2.31,0,0,1,1.31.42,1.14,1.14,0,0,1,.34.31,6.17,6.17,0,0,1,.53-.5,7,7,0,0,1,.75-.53,4.32,4.32,0,0,1,.93-.44,2.38,2.38,0,0,1,.68-.09l.33,0a2.17,2.17,0,0,1,1.05.41l.13.09a2.41,2.41,0,0,1,.31.36,4,4,0,0,1,.42.72,8.91,8.91,0,0,1,.39,1.22,12.63,12.63,0,0,1,.29,1.82,18.9,18.9,0,0,1,.08,2V41c0,1-.09,2.16-.22,3.37a8.61,8.61,0,0,0-1.14-.09,3.18,3.18,0,0,0-.91.11c0-.19.07-.45.1-.77s.1-.91.16-1.76.1-1.62.1-2.31a9.68,9.68,0,0,0-.2-2,2,2,0,0,0-.62-1.29,2.27,2.27,0,0,0-.22-.22.24.24,0,0,0-.12,0,1.51,1.51,0,0,0-.61.19,4,4,0,0,0-1.33,1.18c.17.66.28,1.16.34,1.49a11.32,11.32,0,0,1,.1,1.76v.12q0,1.21-.18,3a8.28,8.28,0,0,0-1.13-.08,3.1,3.1,0,0,0-.9.1q0-.22.09-.6c0-.26.09-.72.14-1.4s.07-1.14.07-1.64v-.21A6.7,6.7,0,0,0,66,38.18a1.9,1.9,0,0,0-.63-1.11l-.13-.13a.59.59,0,0,0-.34-.1,2.18,2.18,0,0,0-1.33.82,9.45,9.45,0,0,0-.79,1c0,.52,0,1,0,1.51q0,2.52.12,4.17c-.22,0-.44,0-.64,0a4,4,0,0,0-1.35.22c0-.18,0-.41,0-.7s0-.86,0-1.71q0-.9,0-1.74v-.67c0-.77,0-1.61-.11-2.53A22.69,22.69,0,0,0,60.57,34.76Z"/><path d="M74.61,43.07A3.64,3.64,0,0,1,74.67,42a1.93,1.93,0,0,1,.45-.93,3.5,3.5,0,0,1,.91-.7,4.52,4.52,0,0,1,1-.4,9.16,9.16,0,0,1,1.11-.19,8.48,8.48,0,0,1,1.11-.07h1a7.79,7.79,0,0,1,1.07.07c0-1.94-.54-3.1-1.52-3.47a1.32,1.32,0,0,0-.41-.07,1.85,1.85,0,0,0-.59.07,2.46,2.46,0,0,0-.65.26,1.76,1.76,0,0,0-.58.55,2.46,2.46,0,0,0-.37.89,4.43,4.43,0,0,0-1.88-.77,1.05,1.05,0,0,1,0-.13c0-.06,0-.17.11-.33a4,4,0,0,1,.2-.46c.08-.15.19-.32.33-.54a2.24,2.24,0,0,1,.48-.53c.18-.15.4-.3.65-.47a2.34,2.34,0,0,1,.85-.34c.32,0,.67-.09,1.08-.13a3.86,3.86,0,0,1,1.31.15,3.15,3.15,0,0,1,1.34.53c1.3,1,1.76,3.79,1.37,8.25a2.35,2.35,0,0,0,.4.54,3.53,3.53,0,0,0,.44.4l.19.13-1.49,1.6-.76-.78a3.3,3.3,0,0,1-.63.17,11.23,11.23,0,0,1-3.76.22c-1.48-.12-2.39-.63-2.74-1.51A3.72,3.72,0,0,1,74.61,43.07Zm1.72-11.52.42-.2,1-.53c.49-.26.95-.52,1.36-.76s.83-.53,1.27-.84a5.7,5.7,0,0,0,1-.83,24.64,24.64,0,0,0,1.34,2.15c-.33.15-.75.34-1.24.58s-1.23.6-2.19,1.09a10.94,10.94,0,0,0-1.82,1.09A14.29,14.29,0,0,0,76.33,31.55Zm.14,11.18c0,.42.39.68,1.13.79a7.51,7.51,0,0,0,2.27,0,3.91,3.91,0,0,0,1.45-.4l0-1.42a19.3,19.3,0,0,0-3-.11,3.45,3.45,0,0,0-1.49.35A.86.86,0,0,0,76.47,42.73Z"/><path d="M84.69,35.29l2.18,0c-.09-1.23-.17-2.14-.26-2.73a5.75,5.75,0,0,0,2.27-.36c0,.81,0,1.81-.07,3a16.17,16.17,0,0,0,3.34-.49A9.7,9.7,0,0,0,92.43,37l-.88,0c-.89,0-1.82,0-2.78.06,0,.84,0,1.63,0,2.36,0,2.59,0,4.58.13,6a5.12,5.12,0,0,0-.67,0,3.21,3.21,0,0,0-1.34.27c0-.32,0-.75,0-1.27L87,41.13c0-.53,0-1,0-1.51q0-1.42-.06-2.55c-.81,0-1.5.12-2.09.21,0-.18,0-.35,0-.52A5.82,5.82,0,0,0,84.69,35.29Z"/><path d="M93.62,32.65a1.39,1.39,0,0,1,1.25-1.33h.19a1,1,0,0,1,.67.24,1,1,0,0,1,.34.8,1.27,1.27,0,0,1-.35.89,1.23,1.23,0,0,1-.87.44l-.18,0a1.09,1.09,0,0,1-.68-.25A1,1,0,0,1,93.62,32.65Zm0,2.84a21.72,21.72,0,0,1,.41,4c0,.84,0,1.61,0,2.31s0,1.24,0,1.77l-.09,1.65a3.72,3.72,0,0,1,.85-.18l.55,0h.26l.31,0q-.12-1.5-.12-4c0-1.64,0-3,.06-4.16l.06-1.7a5.15,5.15,0,0,1-.92.2c-.38.05-.69.08-.95.09Z"/><path d="M97.59,39.27a6,6,0,0,1,.59-2.52,4.2,4.2,0,0,1,1.65-1.81,4.84,4.84,0,0,1,1.4-.59,5.55,5.55,0,0,1,1.35-.17,2,2,0,0,1,.35,0,2.64,2.64,0,0,1,1.43.44c0,.09-.08.2-.13.34a6.24,6.24,0,0,0-.19.81,3.79,3.79,0,0,0-.1.86c0,.08,0,.16,0,.24s-.13-.1-.22-.17a3.29,3.29,0,0,0-.57-.26,2.63,2.63,0,0,0-.85-.2h-.1a2.69,2.69,0,0,0-.93.2,3.14,3.14,0,0,0-1.11.77,1.66,1.66,0,0,0-.31.61A4.89,4.89,0,0,0,99.62,39a5.79,5.79,0,0,0,0,.72,4.53,4.53,0,0,0,0,.73,3.31,3.31,0,0,0,.5,1.45,3.18,3.18,0,0,0,1.17,1.16,1.88,1.88,0,0,0,.79.18h.12a2.81,2.81,0,0,0,1-.22,1.85,1.85,0,0,0,1-.79,9.32,9.32,0,0,0,1,1.92,2.88,2.88,0,0,1-1.65,1,5.1,5.1,0,0,1-1.25.16,4,4,0,0,1-.79-.08,4,4,0,0,1-1.66-.74,4.94,4.94,0,0,1-1.23-1.38,6.84,6.84,0,0,1-.76-1.81,7.47,7.47,0,0,1-.25-2Z"/><path d="M106.43,43.07c0-.1,0-.21,0-.32a3.51,3.51,0,0,1,.09-.77,1.87,1.87,0,0,1,.46-.92A4,4,0,0,1,109,40a7.17,7.17,0,0,1,1.1-.2,6.29,6.29,0,0,1,1-.06h1.13a7.79,7.79,0,0,1,1.07.07c0-1.91-.54-3.05-1.51-3.42a1.12,1.12,0,0,0-.41-.07,1.94,1.94,0,0,0-.6.07,2.5,2.5,0,0,0-.64.25,1.76,1.76,0,0,0-.58.55,2.46,2.46,0,0,0-.37.89,4.63,4.63,0,0,0-1.89-.78.45.45,0,0,1,0-.13,2.8,2.8,0,0,1,.1-.33,3.35,3.35,0,0,1,.21-.47c.08-.14.18-.32.33-.54a2.11,2.11,0,0,1,.48-.54,7,7,0,0,1,.65-.47,2,2,0,0,1,.85-.34,9.42,9.42,0,0,1,1.08-.13h.25a4.15,4.15,0,0,1,1,.15,3,3,0,0,1,1.33.54q1.5,1.2,1.5,5.46c0,.85-.05,1.78-.14,2.81a3,3,0,0,0,.85.92l.18.13-1.48,1.59-.75-.78a3.3,3.3,0,0,1-.63.17,12,12,0,0,1-2.55.29,9.82,9.82,0,0,1-1.21-.07c-1.49-.12-2.42-.63-2.78-1.51A3.71,3.71,0,0,1,106.43,43.07Zm2-.32c0,.42.39.68,1.12.79a8,8,0,0,0,1.1.08,7.88,7.88,0,0,0,1.17-.09,3.71,3.71,0,0,0,1.45-.39l0-1.4a21.94,21.94,0,0,0-2.23-.13c-.27,0-.52,0-.74,0a3.47,3.47,0,0,0-1.48.34A.86.86,0,0,0,108.4,42.75Z"/><path d="M116.72,43.45l1-2a4,4,0,0,0,1.72,1.06,4.76,4.76,0,0,0,1.47.31h.2a2.84,2.84,0,0,0,1.29-.47.77.77,0,0,0,.32-.58.52.52,0,0,0,0-.17,1.34,1.34,0,0,0-.7-.75,8.24,8.24,0,0,0-1.49-.72,7,7,0,0,1-1.46-.67,4.2,4.2,0,0,1-1-.79,5.08,5.08,0,0,1-.52-.73,1.93,1.93,0,0,1-.22-.6c0-.11,0-.23,0-.34a2.33,2.33,0,0,1,.11-.7,2.17,2.17,0,0,1,.46-.83,6.68,6.68,0,0,1,.69-.61,4.29,4.29,0,0,1,.77-.45c.27-.12.5-.22.67-.28l.45-.13a5.78,5.78,0,0,1,.81-.07,2.73,2.73,0,0,1,.41,0,4.18,4.18,0,0,1,1,.22,6.17,6.17,0,0,1,.76.35,4.25,4.25,0,0,1,.47.31l.18.14L123.31,37a5.76,5.76,0,0,0-.81-.64,2.54,2.54,0,0,0-.72-.33,3.48,3.48,0,0,0-.49-.1h-.44a2.22,2.22,0,0,0-1,.21.62.62,0,0,0-.38.46.93.93,0,0,0,.14.56,1.7,1.7,0,0,0,.49.52,6.12,6.12,0,0,0,.71.39c.28.14.62.28,1,.43l.83.35a4.45,4.45,0,0,1,1.32.92,2.67,2.67,0,0,1,.61,1,3.44,3.44,0,0,1,.12.81,2.4,2.4,0,0,1-.11.71,3.71,3.71,0,0,1-.19.46,3.59,3.59,0,0,1-.36.59,4,4,0,0,1-.58.64,3.24,3.24,0,0,1-.88.5,4.25,4.25,0,0,1-1.24.29c-.24,0-.48,0-.71,0a6.69,6.69,0,0,1-.9-.06,5.45,5.45,0,0,1-1.31-.32,9,9,0,0,1-.92-.43,4,4,0,0,1-.6-.38Z"/><path d="M131,47l1.73-1.19.07.18c0,.08.11.21.23.4a2.14,2.14,0,0,0,.4.49,1.87,1.87,0,0,0,.61.37,1.57,1.57,0,0,0,.65.13h.16a4.26,4.26,0,0,0,1.37-.33c.89-.46,1.36-1.45,1.39-3,0-.33,0-.77,0-1.3a3.64,3.64,0,0,1-.32.29,6.5,6.5,0,0,1-.77.55,6.57,6.57,0,0,1-1.11.58,3.62,3.62,0,0,1-1.28.21s0,0,0,0a2.38,2.38,0,0,1-1.31-.37l-.13-.08a3,3,0,0,1-.3-.33,2.66,2.66,0,0,1-.39-.64,5.15,5.15,0,0,1-.32-1.1,8.87,8.87,0,0,1-.17-1.63c0-.11,0-.22,0-.34,0-.54,0-1.19.11-2a27.9,27.9,0,0,1,.48-3c.5,0,.93.07,1.29.07a7.43,7.43,0,0,0,1-.07c0,.16-.08.38-.14.66s-.16.79-.31,1.53-.27,1.39-.36,2a3.24,3.24,0,0,0-.05.62,7.8,7.8,0,0,0,.08,1.1,1.5,1.5,0,0,0,.55,1.11l.13.12a.68.68,0,0,0,.35.1,2.86,2.86,0,0,0,1.6-.86,13.17,13.17,0,0,0,1.34-1.4,45.27,45.27,0,0,0-.43-5.15,15.29,15.29,0,0,0,2.28-.19c.09,4.65.13,7.37.15,8.16v1.4c0,.32-.06.69-.11,1.13a5,5,0,0,1-.3,1.17,6,6,0,0,1-.59,1.06,4.47,4.47,0,0,1-.62.72,4.26,4.26,0,0,1-.81.6,3.62,3.62,0,0,1-1.15.42,5.51,5.51,0,0,1-1.19.12h-.34l-.36,0a4.58,4.58,0,0,1-.47-.06,4.36,4.36,0,0,1-.55-.14,4,4,0,0,1-.56-.27,2.78,2.78,0,0,1-.57-.41,3.6,3.6,0,0,1-.48-.61A4.08,4.08,0,0,1,131,47Z"/><path d="M18,57.27a6,6,0,0,1,.6-2.52,4.24,4.24,0,0,1,1.64-1.81,4.79,4.79,0,0,1,1.41-.59A5.55,5.55,0,0,1,23,52.18a2.11,2.11,0,0,1,.35,0,2.69,2.69,0,0,1,1.43.44c0,.09-.09.2-.14.34s-.11.42-.19.81a4.41,4.41,0,0,0-.09.86,1.93,1.93,0,0,0,0,.24l-.23-.17a3.47,3.47,0,0,0-.56-.26,2.69,2.69,0,0,0-.85-.2h-.11a2.64,2.64,0,0,0-.92.2,3.09,3.09,0,0,0-1.12.77,1.86,1.86,0,0,0-.3.61A4.86,4.86,0,0,0,20.05,57q0,.36,0,.72a4.51,4.51,0,0,0,0,.73,3.45,3.45,0,0,0,.5,1.45,3.2,3.2,0,0,0,1.18,1.16,1.87,1.87,0,0,0,.78.18h.12a2.77,2.77,0,0,0,1-.22,1.81,1.81,0,0,0,1-.79,9.28,9.28,0,0,0,1,1.92,2.91,2.91,0,0,1-1.65,1,5.18,5.18,0,0,1-1.26.16,4,4,0,0,1-.78-.08,4.08,4.08,0,0,1-1.67-.74A4.91,4.91,0,0,1,19,61.12a6.53,6.53,0,0,1-.76-1.81,7.47,7.47,0,0,1-.26-2Z"/><path d="M27.1,50.65a1.28,1.28,0,0,1,.37-.89,1.31,1.31,0,0,1,.87-.44h.19a1,1,0,0,1,.67.24,1,1,0,0,1,.35.8,1.32,1.32,0,0,1-.35.89,1.27,1.27,0,0,1-.87.44l-.19,0a1.14,1.14,0,0,1-.68-.25A1,1,0,0,1,27.1,50.65Zm0,2.84a22.65,22.65,0,0,1,.41,4c0,.84,0,1.61,0,2.31s0,1.24,0,1.77l-.09,1.65a3.75,3.75,0,0,1,.84-.18l.56,0h.25l.32,0q-.12-1.5-.12-4c0-1.64,0-3,.06-4.16l.06-1.7a5.09,5.09,0,0,1-.93.2c-.37.05-.69.08-.94.09Z"/><path d="M31.46,55.51a4.22,4.22,0,0,1,.46-1.33A5.51,5.51,0,0,1,32.77,53a3.9,3.9,0,0,1,1.19-.9,3,3,0,0,1,1.32-.32h.1a3.66,3.66,0,0,1,2.22.77,2.46,2.46,0,0,1,.87,2,17.93,17.93,0,0,1-.32,3H36.81a16.07,16.07,0,0,0-3.53.22s0,.1,0,.24a1.52,1.52,0,0,0,.07.59,7.67,7.67,0,0,0,.23.78,2.57,2.57,0,0,0,.51.77,2.54,2.54,0,0,0,.9.6c.18.07.33.11.43.14a4.31,4.31,0,0,0,.52,0h0l.71-.22a2.9,2.9,0,0,0,.72-.69,9.17,9.17,0,0,0,1.33,1.27s0,0,0,0a.65.65,0,0,1-.14.26,3,3,0,0,1-.42.45,3.69,3.69,0,0,1-2.55.86H35.5a3.34,3.34,0,0,1-2.52-1,6.61,6.61,0,0,1-1.67-4.6A9.89,9.89,0,0,1,31.46,55.51Zm1.92.24.61,0,1.27-.05h.57a2.34,2.34,0,0,1,.49,0l0-.11a1.9,1.9,0,0,0,.07-.27,1.71,1.71,0,0,0,.06-.43,1.21,1.21,0,0,0,0-.37,1.15,1.15,0,0,0-.17-.39,1,1,0,0,0-.36-.28,1.47,1.47,0,0,0-.59-.13h0a1.8,1.8,0,0,0-1.2.57A2.18,2.18,0,0,0,33.38,55.75Z"/><path d="M40.5,53a7.5,7.5,0,0,0,2.27-.27c0,.39,0,.88-.06,1.49a7.47,7.47,0,0,1,.76-.63,6,6,0,0,1,1-.53,2.37,2.37,0,0,1,1-.22h.16a2.32,2.32,0,0,1,1.17.43l.13.09a3.14,3.14,0,0,1,.31.36,3.8,3.8,0,0,1,.41.73A8.06,8.06,0,0,1,48,55.72a12.26,12.26,0,0,1,.29,1.81c.05.54.07,1.19.08,2,0,.19,0,.38,0,.59,0,1-.09,2.15-.22,3.37A10.11,10.11,0,0,0,47,63.37a3.15,3.15,0,0,0-.9.1l.09-.75c0-.31.09-.88.16-1.71s.09-1.49.09-2.14v-.12a9.91,9.91,0,0,0-.2-2,2.54,2.54,0,0,0-.6-1.39l-.13-.13a.61.61,0,0,0-.35-.11,2.17,2.17,0,0,0-1.32.83,10.64,10.64,0,0,0-1.23,1.58c0,.36,0,.7,0,1,0,1.57,0,2.91.13,4-.24,0-.47,0-.69,0a4.18,4.18,0,0,0-1.33.2c0-.17,0-.4,0-.69s0-.86.06-1.7,0-1.41,0-2.07c0-.11,0-.22,0-.33,0-.76,0-1.61-.09-2.54A23,23,0,0,0,40.5,53Z"/><path d="M50.17,57.27a6,6,0,0,1,.59-2.52,4.2,4.2,0,0,1,1.65-1.81,4.84,4.84,0,0,1,1.4-.59,5.55,5.55,0,0,1,1.35-.17,2,2,0,0,1,.35,0,2.64,2.64,0,0,1,1.43.44c0,.09-.08.2-.13.34a7.79,7.79,0,0,0-.2.81,4.41,4.41,0,0,0-.09.86,1.93,1.93,0,0,0,0,.24c-.05,0-.13-.1-.22-.17a3.29,3.29,0,0,0-.57-.26,2.63,2.63,0,0,0-.85-.2h-.1a2.64,2.64,0,0,0-.93.2,3.14,3.14,0,0,0-1.11.77,1.66,1.66,0,0,0-.31.61A4.89,4.89,0,0,0,52.2,57a5.79,5.79,0,0,0,0,.72,4.53,4.53,0,0,0,0,.73,3.43,3.43,0,0,0,.49,1.45,3.28,3.28,0,0,0,1.18,1.16,1.88,1.88,0,0,0,.79.18h.11a2.82,2.82,0,0,0,1-.22,1.85,1.85,0,0,0,1-.79,8.85,8.85,0,0,0,1,1.92,2.91,2.91,0,0,1-1.65,1,5.1,5.1,0,0,1-1.25.16,4,4,0,0,1-.79-.08,4,4,0,0,1-1.66-.74,4.94,4.94,0,0,1-1.23-1.38,6.84,6.84,0,0,1-.76-1.81,7.47,7.47,0,0,1-.25-2Z"/><path d="M59.25,50.65a1.32,1.32,0,0,1,.36-.89,1.36,1.36,0,0,1,.88-.44h.19a1,1,0,0,1,.67.24,1,1,0,0,1,.34.8,1.27,1.27,0,0,1-.35.89,1.23,1.23,0,0,1-.86.44l-.19,0a1.09,1.09,0,0,1-.68-.25A1,1,0,0,1,59.25,50.65Zm0,2.84a23.67,23.67,0,0,1,.41,4q0,1.26,0,2.31t0,1.77l-.09,1.65a3.75,3.75,0,0,1,.84-.18L61,63h.25l.31,0q-.12-1.5-.12-4c0-1.64,0-3,.06-4.16l.06-1.7a5,5,0,0,1-.92.2c-.38.05-.69.08-.94.09Z"/><path d="M63.33,61.07c0-.1,0-.21,0-.32A3.51,3.51,0,0,1,63.4,60a1.87,1.87,0,0,1,.46-.92,3.93,3.93,0,0,1,2-1.09,7.17,7.17,0,0,1,1.1-.2,6.23,6.23,0,0,1,1-.06h1.13a7.79,7.79,0,0,1,1.07.07c0-1.91-.54-3.05-1.51-3.42a1.12,1.12,0,0,0-.41-.07,1.94,1.94,0,0,0-.6.07,2.72,2.72,0,0,0-.65.25,1.83,1.83,0,0,0-.57.55,2.3,2.3,0,0,0-.37.89,4.67,4.67,0,0,0-1.9-.78.86.86,0,0,0,0-.13s.05-.16.11-.33a5.11,5.11,0,0,1,.2-.47l.33-.54a2.11,2.11,0,0,1,.48-.54,7.24,7.24,0,0,1,.66-.47,1.93,1.93,0,0,1,.85-.34,9.42,9.42,0,0,1,1.08-.13h.24a4.16,4.16,0,0,1,1.06.15,3,3,0,0,1,1.33.54q1.5,1.2,1.5,5.46c0,.85,0,1.78-.14,2.81a2.11,2.11,0,0,0,.4.53,2.73,2.73,0,0,0,.44.39l.19.13-1.48,1.59-.75-.78a3.3,3.3,0,0,1-.63.17,12,12,0,0,1-2.55.29,9.71,9.71,0,0,1-1.21-.07c-1.49-.12-2.42-.63-2.78-1.51A3.33,3.33,0,0,1,63.33,61.07Zm2-.32c0,.42.39.68,1.12.79a8,8,0,0,0,1.1.08,7.88,7.88,0,0,0,1.17-.09,3.77,3.77,0,0,0,1.45-.39l0-1.4a22.1,22.1,0,0,0-2.23-.13c-.27,0-.52,0-.74,0a3.47,3.47,0,0,0-1.48.34A.86.86,0,0,0,65.3,60.75Z"/><path d="M79.49,62.68a1,1,0,0,1-.36-.79,1.3,1.3,0,0,1,.36-.89,1.45,1.45,0,0,1,.87-.47,1.06,1.06,0,0,1,.86.26,1,1,0,0,1,.36.8,1.38,1.38,0,0,1-1.22,1.33A1,1,0,0,1,79.49,62.68Z"/><path d="M88.75,62.68a1,1,0,0,1-.36-.79,1.3,1.3,0,0,1,.36-.89,1.45,1.45,0,0,1,.87-.47,1.06,1.06,0,0,1,.86.26,1,1,0,0,1,.35.8,1.36,1.36,0,0,1-1.21,1.33A1,1,0,0,1,88.75,62.68Z"/><path d="M98,62.68a1,1,0,0,1-.37-.79A1.27,1.27,0,0,1,98,61a1.45,1.45,0,0,1,.86-.47,1.07,1.07,0,0,1,.87.26,1,1,0,0,1,.35.8,1.35,1.35,0,0,1-.35.89,1.31,1.31,0,0,1-.87.44A1,1,0,0,1,98,62.68Z"/></g><g class="cls-1"><path d="M55,78.64a.61.61,0,0,1-1.19,0c-.06.09-.37.36-1.15.36-3.41-.11-3.14-5.68.57-4.83a17.35,17.35,0,0,1,.31-2.62c.2-.59,1.63-1.17,1.63,0A51.29,51.29,0,0,1,55,78.64Zm-1.41-.35a21.22,21.22,0,0,1-.41-3.54C51,74.52,51.37,78.9,53.63,78.29Z"/><path d="M59.89,78.24C59.16,79.68,56.22,79.45,56,77a2.88,2.88,0,0,1,2.21-3.18A1.5,1.5,0,0,1,59.91,76,4.58,4.58,0,0,1,58,77.77a1.42,1.42,0,0,0,1.49,0C59.7,77.72,60.07,77.76,59.89,78.24Zm-2.08-1c.54-.34,1.71-1.43,1.4-2.2a.31.31,0,0,0-.38-.22A2.09,2.09,0,0,0,57.6,77C57.64,77.28,57.7,77.34,57.81,77.28Z"/><path d="M64.42,77.82c.65,1.31-1.76,1.93-3.35,1.08-.42-.22-.27-.87.52-.44,1,.54,2.35.12,1-.6-1.18-.61-2.4-1.47-1.84-2.94a2.22,2.22,0,0,1,3.66-.49c.51.74.35,1.86-.39,1.86a1.62,1.62,0,0,1-1-.37c-.22-.35-.07-.62-.14-1.17s-1.26-.2-1.17.58C61.82,76.39,64,76.92,64.42,77.82Z"/><path d="M69.94,78.64a.61.61,0,0,1-1.19,0c-.06.09-.37.36-1.15.36-3.41-.11-3.14-5.68.57-4.83a16.15,16.15,0,0,1,.31-2.62c.19-.59,1.62-1.17,1.62,0A49.74,49.74,0,0,1,69.94,78.64Zm-1.41-.35a20.22,20.22,0,0,1-.41-3.54C65.92,74.52,66.27,78.9,68.53,78.29Z"/><path d="M74.78,78.24c-.72,1.44-3.66,1.21-3.92-1.29a2.88,2.88,0,0,1,2.21-3.18A1.5,1.5,0,0,1,74.81,76a4.6,4.6,0,0,1-1.94,1.81,1.44,1.44,0,0,0,1.5,0C74.6,77.72,75,77.76,74.78,78.24Zm-2.08-1c.55-.34,1.72-1.43,1.41-2.2a.32.32,0,0,0-.38-.22A2.09,2.09,0,0,0,72.5,77C72.54,77.28,72.6,77.34,72.7,77.28Z"/><path d="M81.25,78.24c-.73,1.44-3.67,1.21-3.93-1.29a2.88,2.88,0,0,1,2.21-3.18A1.5,1.5,0,0,1,81.27,76a4.6,4.6,0,0,1-1.94,1.81,1.44,1.44,0,0,0,1.5,0C81.06,77.72,81.43,77.76,81.25,78.24Zm-2.08-1c.54-.34,1.71-1.43,1.4-2.2a.32.32,0,0,0-.38-.22A2.09,2.09,0,0,0,79,77C79,77.28,79.06,77.34,79.17,77.28Z"/><path d="M85.42,78c-.41,1.5-2.19,1.51-2.91-.38a12.1,12.1,0,0,1-.21-6.22c.08-.42,1.71-1,1.8.16.1,1.42-.79,7,.55,6.61.17,0,.22-.26.36-.46S85.48,77.74,85.42,78Z"/><path d="M94.15,73.1a2.82,2.82,0,0,1-3.12,3c0,.68,0,2.1-.1,2.73,0,.39-1,.5-1.44,0-.6-1-.69-4.71-.29-6.31.16-.65,1.9-.6,1.9.23,0,2.4,0,2.73,0,2.76,1.53-.12,2-3.22.67-4.37a2.68,2.68,0,0,0-3.79.53c-1,1.34-.13,1.86.2,2.12A.85.85,0,0,1,88.29,75c-.6.72-1.37-.28-1.56-.95-.59-2,1.33-3.94,3.42-4.08C91.89,69.81,94.09,70.79,94.15,73.1Z"/><path d="M97.51,78.65A2.15,2.15,0,0,1,94.13,77c-.39-3.6,4.48-4.21,4.21-1.31a8.68,8.68,0,0,0,.79,2.53C99.21,78.94,98.22,79.5,97.51,78.65Zm-.17-.48a3.7,3.7,0,0,1,.32-2.12c.09-.79,0-1.45-.61-1.45s-1.34,1.06-1.31,2.23S96.5,78.6,97.34,78.17Z"/><path d="M103.07,73.92c2,.13,2,3.29.52,4.38a3.09,3.09,0,0,1-2,.54,7.3,7.3,0,0,1-.19,2.52c-.16.38-1,.7-1.31,0-.45-1-.94-8,.86-7.91.42,0,.21.68.21,1.35a2.34,2.34,0,0,1,1.87-.92Zm-1.46,4.32a1.84,1.84,0,0,0,2-2.3c-.24-1.33-2.06-1-2.07,1.1C101.59,77.41,101.6,77.81,101.61,78.24Z"/><path d="M108.61,78.65a2.15,2.15,0,0,1-3.38-1.7c-.39-3.6,4.48-4.21,4.21-1.31a9,9,0,0,0,.79,2.53C110.31,78.94,109.32,79.5,108.61,78.65Zm-.17-.48a3.7,3.7,0,0,1,.32-2.12c.1-.79,0-1.45-.61-1.45s-1.34,1.06-1.31,2.23S107.61,78.6,108.44,78.17Z"/><path d="M114.12,78c-.4,1.5-2.18,1.51-2.91-.38a12.21,12.21,0,0,1-.21-6.22c.08-.42,1.72-1,1.81.16.09,1.42-.8,7,.54,6.61.17,0,.22-.26.37-.46S114.19,77.74,114.12,78Z"/><path d="M118.83,76.26c0,4.07-4.93,3.8-4.55-.06C114.68,72.86,118.83,73.13,118.83,76.26Zm-.76.12c-1.45,0-1.1-1.31-1.31-1.55-1,.09-1.51,3.29-.12,3.71C117.5,78.78,118.19,77.69,118.07,76.38Z"/><path d="M122.8,78.65a2.15,2.15,0,0,1-3.38-1.7c-.39-3.6,4.49-4.21,4.22-1.31a8.38,8.38,0,0,0,.79,2.53C124.51,78.94,123.52,79.5,122.8,78.65Zm-.17-.48a3.7,3.7,0,0,1,.33-2.12c.09-.79,0-1.45-.61-1.45S121,75.66,121,76.83,121.8,78.6,122.63,78.17Z"/><path d="M128.37,73.92c2,.13,2,3.29.52,4.38a3.09,3.09,0,0,1-1.95.54,7.26,7.26,0,0,1-.2,2.52c-.15.38-1,.7-1.3,0-.45-1-1-8,.86-7.91.42,0,.21.68.21,1.35a2.34,2.34,0,0,1,1.87-.92Zm-1.46,4.32a1.84,1.84,0,0,0,2-2.3c-.23-1.33-2-1-2.06,1.1C126.89,77.41,126.9,77.81,126.91,78.24Z"/><path d="M133.91,78.65a2.15,2.15,0,0,1-3.38-1.7c-.39-3.6,4.48-4.21,4.21-1.31a8.68,8.68,0,0,0,.79,2.53C135.61,78.94,134.62,79.5,133.91,78.65Zm-.17-.48a3.7,3.7,0,0,1,.32-2.12c.09-.79,0-1.45-.61-1.45s-1.34,1.06-1.31,2.23S132.9,78.6,133.74,78.17Z"/><path d="M141.16,78.41c-.29,1.12-1.88.87-1.6-.12.74-2.73.4-3.73-.4-3.56-.5.08-1.54.92-1.12,2.87l.1.33a1.15,1.15,0,0,1,0,.61.8.8,0,0,1-1.35.39,6,6,0,0,1-.63-4.2c.15-.51.51-1.16,1-1.17s.42.35.37.67a3.59,3.59,0,0,0,.1,1.59,2.2,2.2,0,0,1,1.77-1.89C141.39,73.66,141.76,76,141.16,78.41Z"/></g></svg>