<svg id="Capa_1" data-name="Capa 1" xmlns="http://www.w3.org/2000/svg" viewBox="0 0 90 90"><defs><style>.cls-1{fill:#29337f;}.cls-2{fill:#2a3281;}.cls-3{fill:#2a3283;}</style></defs><title>logo conacyt</title><path class="cls-1" d="M45.23,89.93A44.93,44.93,0,1,1,90.16,45,45,45,0,0,1,45.23,89.93Zm0-88.86A43.93,43.93,0,1,0,89.16,45,44,44,0,0,0,45.23,1.07Z"/><circle class="cls-2" cx="45.35" cy="9.84" r="3.21"/><circle class="cls-2" cx="48.16" cy="16.27" r="2.55"/><circle class="cls-2" cx="42.42" cy="16.65" r="2.55"/><circle class="cls-2" cx="37.58" cy="19.36" r="2.55"/><circle class="cls-2" cx="34.58" cy="24" r="2.55"/><circle class="cls-2" cx="33.35" cy="29.5" r="2.55"/><circle class="cls-2" cx="35.07" cy="35.08" r="2.55"/><circle class="cls-2" cx="39.07" cy="39.31" r="2.55"/><circle class="cls-2" cx="44.42" cy="41.07" r="2.55"/><circle class="cls-2" cx="49.96" cy="40.67" r="2.55"/><circle class="cls-2" cx="54.49" cy="37.76" r="2.55"/><circle class="cls-2" cx="51.34" cy="34.2" r="1.81"/><circle class="cls-2" cx="47.84" cy="36.07" r="1.81"/><circle class="cls-2" cx="43.61" cy="35.86" r="1.81"/><circle class="cls-2" cx="53.14" cy="30.41" r="1.81"/><circle class="cls-2" cx="50.46" cy="22.6" r="1.81"/><circle class="cls-2" cx="46.27" cy="21.21" r="1.81"/><circle class="cls-2" cx="42.19" cy="21.92" r="1.81"/><circle class="cls-2" cx="38.32" cy="29.32" r="1.81"/><circle class="cls-2" cx="40.23" cy="33.4" r="1.81"/><circle class="cls-2" cx="44.8" cy="32.06" r="1.46"/><circle class="cls-2" cx="48.08" cy="31.43" r="1.46"/><circle class="cls-2" cx="49.37" cy="28.26" r="1.46"/><circle class="cls-2" cx="47.04" cy="25.46" r="1.46"/><circle class="cls-2" cx="43.39" cy="26.13" r="1.46"/><circle class="cls-2" cx="42.54" cy="29.5" r="1.46"/><circle class="cls-2" cx="45.95" cy="28.76" r="1.46"/><circle class="cls-2" cx="39.39" cy="24.99" r="1.81"/><circle class="cls-2" cx="52.95" cy="26.13" r="1.81"/><circle class="cls-2" cx="53.26" cy="18.52" r="2.55"/><circle class="cls-2" cx="56.85" cy="22.6" r="2.55"/><circle class="cls-2" cx="58.61" cy="27.86" r="2.55"/><circle class="cls-2" cx="57.59" cy="33.31" r="2.55"/><circle class="cls-2" cx="52.41" cy="10.88" r="3.21"/><circle class="cls-2" cx="58.29" cy="14.53" r="3.21"/><circle class="cls-2" cx="38.61" cy="11.14" r="3.21"/><circle class="cls-2" cx="32.69" cy="14.91" r="3.21"/><circle class="cls-2" cx="28.8" cy="20.55" r="3.21"/><circle class="cls-2" cx="26.89" cy="27.24" r="3.21"/><circle class="cls-2" cx="27.86" cy="34.55" r="3.21"/><circle class="cls-2" cx="31.08" cy="40.67" r="3.21"/><circle class="cls-2" cx="36.23" cy="45.46" r="3.21"/><circle class="cls-2" cx="43.09" cy="47.73" r="3.21"/><circle class="cls-2" cx="50.35" cy="47.4" r="3.21"/><circle class="cls-2" cx="56.65" cy="44.64" r="3.21"/><circle class="cls-2" cx="61.5" cy="39.74" r="3.21"/><circle class="cls-2" cx="64.38" cy="33.31" r="3.21"/><circle class="cls-2" cx="64.71" cy="26.29" r="3.21"/><circle class="cls-2" cx="62.81" cy="19.64" r="3.21"/><path class="cls-3" d="M16.54,56.93l-.09.86a.5.5,0,0,1-.61.45c-1.44-.31-5.28-.72-6.74,3.25-1.83,4.93,4.13,5.23,5.84,4.44,0,0,.73,1.46-.55,1.92s-8.3,1.2-7.65-5.08c.63-6.05,5.82-7,9.41-6.36A.49.49,0,0,1,16.54,56.93Z"/><path class="cls-3" d="M63.91,56.93l-.08.86a.51.51,0,0,1-.62.45c-1.44-.31-5.27-.72-6.74,3.25-1.82,4.93,4.14,5.23,5.84,4.44,0,0,.73,1.46-.55,1.92s-8.29,1.2-7.64-5.08c.62-6.05,5.82-7,9.41-6.36A.48.48,0,0,1,63.91,56.93Z"/><path class="cls-3" d="M26.28,56.63c-2.54-1.56-6.13-.33-8,2.74s-1.35,6.83,1.19,8.38,6.12.33,8-2.74S28.82,58.19,26.28,56.63Zm-.78,7.23c-1.22,2-3.41,2.89-4.88,2S19,62.6,20.19,60.6s3.41-2.9,4.88-2S26.73,61.85,25.5,63.86Z"/><polygon class="cls-3" points="29.66 67.83 31.87 67.83 33.53 59.99 37.81 67.83 39.62 67.83 41.83 56.24 39.87 56.24 38.1 64.27 34.12 56.24 32.01 56.24 29.66 67.83"/><path class="cls-3" d="M50,56.24H48l-6.53,11.6h2.19L45.48,65h4.05l.82,2.84H52.5ZM46.61,63l1.87-3.41L49.13,63Z"/><polygon class="cls-3" points="65.56 56.24 67.81 56.24 69.73 60.78 73.59 56.24 75.7 56.24 71.03 62.77 69.57 67.83 67.46 67.83 68.44 62.97 65.56 56.24"/><polygon class="cls-3" points="76.18 56.24 85.75 56.24 85.75 58.3 81.86 58.3 79.79 67.83 77.52 67.83 79.43 58.26 76.18 58.26 76.18 56.24"/></svg>