<svg id="Capa_1" data-name="Capa 1" xmlns="http://www.w3.org/2000/svg" viewBox="0 0 51 33.59"><defs><style>.cls-1,.cls-2{fill:none;stroke:#000;stroke-miterlimit:10;stroke-width:0.5px;}.cls-2{stroke-dasharray:1.98 1.98;}.cls-3{fill:#f1b627;}.cls-4{fill:#fb950b;}.cls-5{fill:#f9e046;}.cls-6{fill:#c61311;}.cls-7{fill:#fb022f;}.cls-8{fill:#da6e36;}.cls-9{fill:#dba35a;}.cls-10{fill:#f7d234;}.cls-11{fill:#3f96a7;}.cls-12{fill:#cef9f8;}.cls-13{fill:#9bdbef;}.cls-14{fill:#cfcfcf;}.cls-15{fill:#bfbfbf;}.cls-16{fill:#111;}.cls-17{fill:#101010;}.cls-18{fill:#141414;}.cls-19{fill:#151515;}.cls-20{fill:#171717;}.cls-21{fill:#262626;}.cls-22{fill:#2c2b2c;}.cls-23{fill:#fafafa;}.cls-24{fill:#dfdfdf;}.cls-25{fill:#e9e9e9;}.cls-26{fill:#eaeceb;}.cls-27{fill:#cecece;}.cls-28{fill:#dbdbda;}.cls-29{fill:#030303;}.cls-30{fill:#9b9b9b;}.cls-31{fill:#9e9e9e;}.cls-32{fill:#a5a5a5;}.cls-33{fill:#a0a0a0;}.cls-34{fill:#a2a2a2;}.cls-35{fill:#acacac;}.cls-36{fill:#9f9f9f;}.cls-37{fill:#999;}.cls-38{fill:#ababab;}.cls-39{fill:#afafaf;}.cls-40{fill:#dcdcdc;}.cls-41{fill:#1a0705;}.cls-42{fill:#251612;}.cls-43{fill:#3260ad;}.cls-44{fill:#7e95b5;}.cls-45{fill:#9c88d0;}.cls-46{fill:#54d458;}.cls-47{fill:#2dabe1;}.cls-48{fill:#faf308;}.cls-49{fill:#f9f9f9;}.cls-50{fill:#cececd;}.cls-51{fill:#fefefe;}.cls-52{fill:#c8c8c8;}.cls-53{fill:#c4c4c4;}.cls-54{fill:#595959;}.cls-55{fill:#bbb;}.cls-56{fill:#3f3f3f;}.cls-57{fill:#282727;}.cls-58{fill:#585858;}.cls-59{fill:#6d6d6d;}.cls-60{fill:#818181;}</style></defs><title>EXPERIMENTOS</title><path class="cls-1" d="M10.65,34.92l.15-1" transform="translate(-1 -11.4)"/><path class="cls-2" d="M11.15,32c2.49-12.36,9.72-21.24,16.92-20.27,7.39,1,12.07,12,10.9,25" transform="translate(-1 -11.4)"/><path class="cls-1" d="M38.87,37.7l-.12,1" transform="translate(-1 -11.4)"/><path class="cls-3" d="M21.15,15.57a8.25,8.25,0,0,1-1.64,3,6.2,6.2,0,0,1-4.13,2.65c-.29,0-.6-.14-.86.1h0c.21.35.63.37.91.61h0l1.06.15A5.89,5.89,0,0,0,20.25,20h0l.47-.68A8.75,8.75,0,0,0,22.29,16l-1.14-.47Z" transform="translate(-1 -11.4)"/><path class="cls-4" d="M11.46,20.5h0a10.8,10.8,0,0,0-1,.57c-.25.18-.65.42-.58.7s.55.3.88.33c0,0,.06,0,.09.06a5,5,0,0,0-.91,2.14c0,.33.07.47.41.45a3.92,3.92,0,0,0,1.91-.64c.12-.07.21-.31.41-.11h0c.11,0,.25-.25.3-.15.34.71.52.06.71-.09a3.78,3.78,0,0,0,.49-.56Z" transform="translate(-1 -11.4)"/><path class="cls-5" d="M18.72,12.63a12.54,12.54,0,0,0-4.42,2.3h0c-.34.42-.7.83-1,1.27a4.26,4.26,0,0,0-.69,2.19h0l.26,1,.13.15h0s.12,0,.12,0a12.87,12.87,0,0,1,2.57-4.22,6.07,6.07,0,0,1,3.4-2C19,13,19.15,12.69,18.72,12.63Z" transform="translate(-1 -11.4)"/><path class="cls-6" d="M19.18,13.3h0a.83.83,0,0,0,0-.12.33.33,0,0,0-.05.12Z" transform="translate(-1 -11.4)"/><path class="cls-7" d="M20.25,20a5.89,5.89,0,0,1-3.76,2.12,1.68,1.68,0,0,1,.11.94,8,8,0,0,1-.4,2,.57.57,0,0,0,0,.55c.15.21.35,0,.51,0A5.32,5.32,0,0,0,20.25,20Z" transform="translate(-1 -11.4)"/><path class="cls-7" d="M12.59,18.39a4.26,4.26,0,0,1,.69-2.19c.32-.44.68-.85,1-1.27h0c-2.14-.16-4.14,1.72-4.76,3.47-.12.35.14.41.4.35a21.63,21.63,0,0,1,2.65-.36Z" transform="translate(-1 -11.4)"/><path class="cls-7" d="M22,12.67a8.55,8.55,0,0,0-2.46.34c-.12,0-.25.07-.31.17a.83.83,0,0,1,0,.12,4.83,4.83,0,0,0,1.91,2.23l0,0h0l1.14.47a2.63,2.63,0,0,0,.15-.35C22.65,14.63,23,13.56,22,12.67Z" transform="translate(-1 -11.4)"/><path class="cls-7" d="M14.52,21.31h0l0,0a3.56,3.56,0,0,1-1.44-1.63.61.61,0,0,0-.07-.14h0l-.13-.15c-.54.3-1.29.31-1.39,1.13h0l2.71,2.7v0l0,.13h0a1,1,0,0,0,.89-.69c.1-.25.22-.5.33-.75C15.15,21.68,14.73,21.66,14.52,21.31Z" transform="translate(-1 -11.4)"/><path class="cls-8" d="M21.4,12.36a7.34,7.34,0,0,0-2.68.27h0c.43.06.31.4.35.67h.11a.33.33,0,0,1,.05-.12c.06-.1.19-.13.31-.17A8.55,8.55,0,0,1,22,12.67.79.79,0,0,0,21.4,12.36Z" transform="translate(-1 -11.4)"/><path class="cls-9" d="M14.14,23.29a.09.09,0,0,1,0-.09,3.78,3.78,0,0,1-.49.56c-.19.15-.37.8-.71.09-.05-.1-.19.11-.3.15h0a1.37,1.37,0,0,0,0,.85,4,4,0,0,0,1.53-1.49S14.14,23.32,14.14,23.29Z" transform="translate(-1 -11.4)"/><path class="cls-9" d="M14.18,23.23l0,.06s0,.05.07.07h0Z" transform="translate(-1 -11.4)"/><path class="cls-9" d="M14.14,23.29l0-.06v0A.09.09,0,0,0,14.14,23.29Z" transform="translate(-1 -11.4)"/><path class="cls-10" d="M21.1,15.53a4.83,4.83,0,0,1-1.91-2.23h-.12a6.07,6.07,0,0,0-3.4,2,12.87,12.87,0,0,0-2.57,4.22s-.08,0-.12,0h0a.61.61,0,0,1,.07.14,3.56,3.56,0,0,0,1.44,1.63l0,0h0c.26-.24.57-.06.86-.1a6.2,6.2,0,0,0,4.13-2.65,8.25,8.25,0,0,0,1.64-3h0Zm-3.84,3.88a1.8,1.8,0,0,1-.09-3.6A1.74,1.74,0,0,1,19,17.59,1.79,1.79,0,0,1,17.26,19.41Z" transform="translate(-1 -11.4)"/><path class="cls-11" d="M17.17,15.81a1.8,1.8,0,0,0,.09,3.6A1.79,1.79,0,0,0,19,17.59,1.74,1.74,0,0,0,17.17,15.81Zm1.19,2.37h0a1,1,0,0,1-.38.39h0a1.2,1.2,0,0,1-1.69-.12L16,18.07h0a.78.78,0,0,1,0-.9.7.7,0,0,1,.36-.53h0a1.19,1.19,0,0,1,2,.37h0A1.17,1.17,0,0,1,18.36,18.18Z" transform="translate(-1 -11.4)"/><path class="cls-12" d="M18.08,17.74c-.6-.07-1.2-.15-1.8-.16-.31,0-.21.3-.24.49l.25.38,1.69.12h0a1,1,0,0,0,.38-.39h0C18.35,18,18.3,17.77,18.08,17.74Z" transform="translate(-1 -11.4)"/><polygon class="cls-12" points="15.39 5.24 15.39 5.24 15.39 5.24 15.39 5.24"/><path class="cls-12" d="M18.08,17.31c.15,0,.25-.13.27-.3h0a1.56,1.56,0,0,0-1.15-.24,1.51,1.51,0,0,1-.81-.13h0a.7.7,0,0,0-.36.53A8.81,8.81,0,0,0,18.08,17.31Z" transform="translate(-1 -11.4)"/><polygon class="cls-13" points="15.04 6.67 15.04 6.67 15.04 6.67 15.04 6.67"/><path class="cls-13" d="M18.35,17h0c0,.17-.12.33-.27.3a8.81,8.81,0,0,1-2-.14.78.78,0,0,0,0,.9c0-.11,0-.2,0-.28,0,.08,0,.17,0,.28h0c0-.19-.07-.5.24-.49.6,0,1.2.09,1.8.16.22,0,.27.23.28.44h0A1.17,1.17,0,0,0,18.35,17Z" transform="translate(-1 -11.4)"/><path class="cls-13" d="M18.35,17a1.19,1.19,0,0,0-2-.37h0a1.51,1.51,0,0,0,.81.13A1.56,1.56,0,0,1,18.35,17Z" transform="translate(-1 -11.4)"/><path class="cls-13" d="M18,18.57h0l-1.69-.12A1.2,1.2,0,0,0,18,18.57Z" transform="translate(-1 -11.4)"/><path class="cls-14" d="M40.3,21.19a.85.85,0,0,1-.91,0,.92.92,0,0,0-.61-.36c-.28-.08-.58-.09-.86-.2a4,4,0,0,0-1.3,0,.62.62,0,0,1-.19,0c-.13,0-.3,0-.21-.25l.08,0a7.33,7.33,0,0,1,3.26.13A1,1,0,0,1,40.3,21.19Z" transform="translate(-1 -11.4)"/><path class="cls-15" d="M38,20.55a9.2,9.2,0,0,0-1.39,0A2.44,2.44,0,0,1,38,20.55Z" transform="translate(-1 -11.4)"/><path class="cls-16" d="M39.72,25.43a29.59,29.59,0,0,0,.2,3.27,7,7,0,0,0,1.29,3.23c.5.67,1,1.33,1.55,2,1.72,2,3.3,4.15,4.9,6.26a5.54,5.54,0,0,1,1.06,2.13,2.14,2.14,0,0,1-.56,2.13.73.73,0,0,1-.5.27c-.08,0-.15,0-.19-.06a.24.24,0,0,1,.12-.14,1.84,1.84,0,0,0,.82-2.27,7,7,0,0,0-1.32-2.38c-1.06-1.37-2.17-2.71-3.19-4.11-.79-1.09-1.77-2-2.56-3.14a8.47,8.47,0,0,1-1.63-3.22,1.38,1.38,0,0,1-.05-.45,8,8,0,0,1-.15-1.82c0-.44,0-.87,0-1.31C39.54,25.65,39.5,25.47,39.72,25.43Z" transform="translate(-1 -11.4)"/><path class="cls-17" d="M29.75,44.81A3.43,3.43,0,0,1,27,43.57a1.91,1.91,0,0,1-.28-1.65,5.29,5.29,0,0,1,1.13-2.13c1.77-2.13,3.51-4.29,5.2-6.5a13.83,13.83,0,0,0,1.45-2.36,5.39,5.39,0,0,0,.34-1.37c.23,0,.16.22.19.36s0,.25,0,.38a2.92,2.92,0,0,1-.25.72,13.84,13.84,0,0,1-1.94,3.05c-1.45,1.87-2.92,3.73-4.45,5.54A6.21,6.21,0,0,0,27,41.83a1.83,1.83,0,0,0,.47,1.91,3.46,3.46,0,0,0,1.65.72c.3.06.61.07.91.14.07,0,.15.08.15.19S29.9,44.84,29.75,44.81Z" transform="translate(-1 -11.4)"/><path class="cls-18" d="M46.1,44.89a40,40,0,0,1-4.24,0c-2.45-.1-4.9-.08-7.36,0h-.38a.86.86,0,0,0-.45,0c-.15,0-.31.08-.41-.1a.37.37,0,0,1,.37-.16c.32,0,.64-.07,1-.06,1.65.05,3.3-.12,4.95,0,.37,0,.74,0,1.11,0a7.94,7.94,0,0,1,1.29.12,1.45,1.45,0,0,0,.3.06c1.21,0,2.42.06,3.63,0a.31.31,0,0,1,.21,0A.12.12,0,0,1,46.1,44.89Z" transform="translate(-1 -11.4)"/><path class="cls-19" d="M34.9,30c0-.13,0-.3-.09-.41,0-2.31-.05-4.61-.07-6.91,0-.19,0-.33-.24-.36,0-.12.08-.14.16-.17a5.87,5.87,0,0,1,.72-.08c.11,0,.24,0,.26.12s-.11.2-.21.22c-.34,0-.42.24-.36.54,0,.73.06,1.46,0,2.18,0,1.47,0,2.94,0,4.41C35.09,29.68,35.11,29.88,34.9,30Z" transform="translate(-1 -11.4)"/><path class="cls-20" d="M36,20.23a8.85,8.85,0,0,1,3.44,0,1.35,1.35,0,0,1,1,.82c.18.46.06.82-.42.92s-.44.23-.38.57a3.11,3.11,0,0,1,0,.61,1.7,1.7,0,0,0,0,.71.64.64,0,0,1,0,.36c-.28,0-.2-.22-.21-.36,0-.38,0-.77,0-1.15s0-.48-.47-.53h-.11c-.13,0-.3-.06-.29-.21s.19-.15.31-.16a4.67,4.67,0,0,0,1-.07c.27-.07.45-.2.37-.52a1,1,0,0,0-.84-.71,7.5,7.5,0,0,0-2.87-.11.38.38,0,0,1-.15,0C36.21,20.39,36,20.43,36,20.23Z" transform="translate(-1 -11.4)"/><path class="cls-21" d="M36,20.23c.07.11.23,0,.31.13a.2.2,0,0,1-.08.08,6.51,6.51,0,0,0-1.37.33,2.06,2.06,0,0,0-.5.28c-.42.33-.41.61,0,.93.09.08.28.05.28.23l-.16.08a.76.76,0,0,1-.72-.63.79.79,0,0,1,.42-.83A3.57,3.57,0,0,1,36,20.23Z" transform="translate(-1 -11.4)"/><path class="cls-17" d="M33,44.92a11,11,0,0,1-2.63,0c0-.2.2-.18.33-.18.66,0,1.32,0,2,0C32.77,44.74,32.94,44.71,33,44.92Z" transform="translate(-1 -11.4)"/><path class="cls-18" d="M33,44.92c-.09-.11-.21-.08-.32-.08l-2,0c-.12,0-.24,0-.33.07a1.27,1.27,0,0,1-.58-.07c.14,0,.31,0,.43-.09a.38.38,0,0,1,.28-.11,25.46,25.46,0,0,1,2.62.06c.19.2.47.07.68.18A2.68,2.68,0,0,1,33,44.92Z" transform="translate(-1 -11.4)"/><path class="cls-20" d="M39.72,25.43c-.17.33,0,.67-.08,1s0,.48,0,.72c-.19-.07-.18-.24-.18-.39a10.16,10.16,0,0,1,0-1.56c.11-.44.05-.91.19-1.35A7.5,7.5,0,0,1,39.72,25.43Z" transform="translate(-1 -11.4)"/><path class="cls-22" d="M46.1,44.89v-.15a1.92,1.92,0,0,1,1.39-.13l.17.08A4.59,4.59,0,0,1,46.1,44.89Z" transform="translate(-1 -11.4)"/><path class="cls-16" d="M39.67,23.86a6.71,6.71,0,0,1-.09,1.34.84.84,0,0,1,0-.9c.07-.37-.07-.75.1-1.11Z" transform="translate(-1 -11.4)"/><path class="cls-17" d="M33.76,44.86c-.21-.06-.45.07-.64-.1a.09.09,0,0,1,.13,0c.29.06.59-.08.87.09Z" transform="translate(-1 -11.4)"/><path class="cls-23" d="M47.49,44.61l-1.39.13H46c-.94.07-1.87,0-2.8,0a6.2,6.2,0,0,1-1.22,0l-1.24-.09a.43.43,0,0,1-.15-.51c.06-.18.26-.13.41-.14h.66l3,0a2.43,2.43,0,0,0,1.28-.36,1,1,0,0,0,.36-1.33,5.48,5.48,0,0,0-1.07-1.63,2.8,2.8,0,0,0-.57-.57,40.22,40.22,0,0,1-3.69-3.81,5,5,0,0,1-.86-1.53,2,2,0,0,0-.49-.78c-.09-.09-.21-.16-.22-.3a.57.57,0,0,1,.43-.49,3.59,3.59,0,0,0,1-.54.59.59,0,0,1,.64-.09c1.41,1.69,2.8,3.38,4.11,5.14A38.46,38.46,0,0,1,48,41a3.56,3.56,0,0,1,.65,2.14A1.61,1.61,0,0,1,47.49,44.61Z" transform="translate(-1 -11.4)"/><path class="cls-24" d="M39.57,24.3v.9a10.7,10.7,0,0,0,0,2A14,14,0,0,0,39.76,29c-.11-.21-.2,0-.28,0a14.91,14.91,0,0,1-1.85.75,4,4,0,0,1-1.51.41,1.13,1.13,0,0,1-.26,0c-.11,0-.14-.08-.14.1s-.21.16-.31.08a.49.49,0,0,0-.52,0V30a5,5,0,0,0,.1-1.33c0-1.94,0-3.87,0-5.81a3.48,3.48,0,0,1,1.73-.92c.08,0,.18-.05.19-.11.06-.37.36-.35.61-.41a14,14,0,0,0,1.82-.27,4.18,4.18,0,0,0,1,.07c.13.38.05.55-.31.67A3.27,3.27,0,0,1,39,22h-.48a.87.87,0,0,0,.7.16c.24,0,.31.09.32.31A13.08,13.08,0,0,0,39.57,24.3Z" transform="translate(-1 -11.4)"/><path class="cls-25" d="M34.89,30.33c.11-.22.24-.31.47-.12a.38.38,0,0,0,.31.12c0-.19-.23-.22-.2-.42a2.37,2.37,0,0,0,1.94-.19,20,20,0,0,0,2.2-.91c.13-.08,0,.17.15.18a7.2,7.2,0,0,0,.8,2.25c.26.46.58.88.87,1.32a1.52,1.52,0,0,0-.86.37,1.14,1.14,0,0,1-.58.29.74.74,0,0,0-.59.5c-.25.1-.47-.07-.71-.08a9.44,9.44,0,0,0-1.59.18,4.11,4.11,0,0,1-1.4.06,1,1,0,0,1-.46-.19c-.22-.25-.08-.48.12-.62.41-.29.73-.67,1.13-1,.24-.18.24-.25,0-.4a2,2,0,0,0-.8-.25,6.28,6.28,0,0,1-.86-.19c-.11,0-.25-.05-.15-.22Z" transform="translate(-1 -11.4)"/><path class="cls-26" d="M41.64,44.07H41.1c-.52,0-.52,0-.41.53H35.91a21.45,21.45,0,0,0-2.66.14h-.13c-1,0-2,0-2.94,0L30,44.67a.71.71,0,0,0-.27-.21c-.13-.09-.25-.2-.21-.37s.19-.22.35-.23a4.14,4.14,0,0,0,1.11,0,2.75,2.75,0,0,1,.81,0c1.57.17,3.15.06,4.72.11.95,0,1.9,0,2.85,0,.62,0,1.23-.12,1.84-.06C41.38,43.9,41.57,43.85,41.64,44.07Z" transform="translate(-1 -11.4)"/><path class="cls-27" d="M28.3,39.53c.27.09.4.4.68.48,0,.37-.36.54-.49.85a2.64,2.64,0,0,0-.35,2.28.5.5,0,0,0,.09.29c.1.14.15.3,0,.43a.47.47,0,0,1-.53.09c-.1,0-.15-.17-.28-.16a1.79,1.79,0,0,1-.51-1.93A5.63,5.63,0,0,1,28.3,39.53Z" transform="translate(-1 -11.4)"/><path class="cls-28" d="M27.41,43.79c.09-.11.16-.09.24,0s.38.08.51,0,0-.26-.06-.38a.34.34,0,0,1-.05-.29,5.31,5.31,0,0,0,1.72.71s0,.06.05.1-.23,0-.22.17a.23.23,0,0,0,.17.23c.16,0,.29.12.25.32A4,4,0,0,1,27.41,43.79Z" transform="translate(-1 -11.4)"/><path class="cls-22" d="M41.93,44.7l4,0c-.09.09-.19.07-.29.07l-3.45,0C42.11,44.77,42,44.79,41.93,44.7Z" transform="translate(-1 -11.4)"/><path class="cls-14" d="M37.44,21.47c-.16.11-.49,0-.43.41,0,.07-.19.09-.3.13-.45.19-1,.19-1.33.6a.43.43,0,0,1-.43.22c-.26-.71.47-.4.7-.66-.36-.09-.67.09-1,0-.07-.13-.24,0-.32-.14s.12-.21.22-.28a2.44,2.44,0,0,1,1.7-.45C36.66,21.38,37.07,21.23,37.44,21.47Z" transform="translate(-1 -11.4)"/><path class="cls-15" d="M36.22,20.38c0,.16.14.14.25.16,0,.19-.22.15-.35.19a3,3,0,0,0-1,.38,1.94,1.94,0,0,0,.74.16c.15,0,.33,0,.39.18a2.57,2.57,0,0,0-1.89.62.59.59,0,0,1-.1-1.08A3.58,3.58,0,0,1,36.22,20.38Z" transform="translate(-1 -11.4)"/><path class="cls-29" d="M36.23,21.45l-1.1-.18c-.08,0-.19,0-.2-.14S35,21,35.08,21a4.9,4.9,0,0,1,1.39-.44h.13a5.38,5.38,0,0,1,1.39,0,8.91,8.91,0,0,1,1.26.31c.16.07.3.13.14.32a6.11,6.11,0,0,1-2,.29Z" transform="translate(-1 -11.4)"/><path class="cls-30" d="M35.18,28.46a2.27,2.27,0,0,1,.89.6A2.55,2.55,0,0,1,35.18,28.46Z" transform="translate(-1 -11.4)"/><path class="cls-31" d="M35.28,27.67a4.16,4.16,0,0,1,.85.65l-.06.07-.85-.63Z" transform="translate(-1 -11.4)"/><path class="cls-32" d="M35.24,24.84l.77.53-.06.08a3.05,3.05,0,0,1-.78-.5Z" transform="translate(-1 -11.4)"/><path class="cls-33" d="M36.17,27.6a3.33,3.33,0,0,1-1-.67A3.21,3.21,0,0,1,36.17,27.6Z" transform="translate(-1 -11.4)"/><path class="cls-34" d="M35.12,24.24c.35,0,.55.21.75.45Z" transform="translate(-1 -11.4)"/><path class="cls-35" d="M35.73,29.67c-.22-.11-.46-.19-.53-.48l.54.38A.06.06,0,0,1,35.73,29.67Z" transform="translate(-1 -11.4)"/><path class="cls-36" d="M35.86,24.08l-.6-.36A.6.6,0,0,1,35.86,24.08Z" transform="translate(-1 -11.4)"/><path class="cls-37" d="M35.12,25.63a.37.37,0,0,1,.46.26Z" transform="translate(-1 -11.4)"/><path class="cls-38" d="M35.62,26.63a.72.72,0,0,1,.56.32A1.08,1.08,0,0,1,35.62,26.63Z" transform="translate(-1 -11.4)"/><path class="cls-39" d="M35.73,29.67v-.1c.13.07.27.12.34.27C35.89,29.9,35.83,29.76,35.73,29.67Z" transform="translate(-1 -11.4)"/><path class="cls-24" d="M35.16,30.31a2.93,2.93,0,0,1,.24.34s-.07.12-.09.09a1.61,1.61,0,0,1-.25-.32S35.08,30.33,35.16,30.31Z" transform="translate(-1 -11.4)"/><path class="cls-40" d="M36.6,31.64a2.53,2.53,0,0,0-.89-.3A2.18,2.18,0,0,1,34.65,31c-.19.35-.37.7-.58,1a42.58,42.58,0,0,1-3,4c-.89,1.16-1.83,2.28-2.75,3.41a1,1,0,0,0,.68.54.73.73,0,0,0,.38-.25c.22-.21.43-.44.66-.64a21.43,21.43,0,0,0,2.91-3,1.8,1.8,0,0,0,.55-.94l0,0,0,0h0a4,4,0,0,0,.74-1c.23-.35.48-.66.95-.64a.27.27,0,0,1,.08-.34c.43-.38.85-.76,1.31-1.1C36.91,31.92,36.93,31.83,36.6,31.64Z" transform="translate(-1 -11.4)"/><path class="cls-23" d="M39.5,44.46c.28-.11.44-.13.64,0A1.08,1.08,0,0,1,39.5,44.46Z" transform="translate(-1 -11.4)"/><path class="cls-41" d="M33.41,43.83" transform="translate(-1 -11.4)"/><path class="cls-42" d="M42.3,43.84c-.31,0-.43,0-.48-.07h-.29c0,.08-.14,0-.21.07a2.44,2.44,0,0,0,.85.09S42.35,44,42.3,43.84Z" transform="translate(-1 -11.4)"/><path class="cls-43" d="M46.26,42a5.38,5.38,0,0,0-1.62-2c-.08,0-.12,0-.15.06,0,.34.32.49.5.7a3.69,3.69,0,0,1,1.13,1.94.71.71,0,0,1-.4.77,2.27,2.27,0,0,1-1,.29,8.67,8.67,0,0,0-1.43.1c.16-.31.12-.37-.23-.38-.11,0-.25.06-.3-.09s.1-.16.19-.21c.26-.18.26-.25,0-.42-.07,0-.17-.08-.18-.18a3.91,3.91,0,0,1,0-1.23c.06-.26.36-.21.54-.31a.34.34,0,0,0,.16-.1.48.48,0,0,0,.23.07.47.47,0,0,0,.47-.46.46.46,0,1,0-.92,0s0,0,0,.06c-.4-.05-1,.31-1,.7s0,.83,0,1.25a.44.44,0,0,0-.27-.09.47.47,0,0,0-.33.13.91.91,0,0,0-.07-.14c-.2,0-.16.19-.17.32s0,.4,0,.6-.09.31-.31.26c-.47,0-.59-.12-.73-.62a.89.89,0,0,1,.08.17c.08.2.19.4.43.36s.32-.25.35-.46a3.15,3.15,0,0,0,0-.92c0-.21-.14-.35-.39-.31-.56.09-.57.08-.55-.5a.2.2,0,0,0,0-.07,3.61,3.61,0,0,1,.42-.16c.37,0,.7-.24,1.07-.13.14,0,.29,0,.34-.15s-.21,0-.14-.06.25-.22.16-.38-.32-.09-.49-.07a2.27,2.27,0,0,1-2-.4.69.69,0,0,1-.23-.37c0-.19,0-.46-.17-.56a7.71,7.71,0,0,1-1.35-.67c-.6.27-.66-.2-.84-.57-.09-.2-.21-.28,0-.45a.56.56,0,0,0,.17-.77c-.3-.37-.53-.45-.8-.28-.44.28-.5.28-.87-.1-.16-.15-.29-.34-.56-.22-.06,0-.12,0-.17,0s-.24-.19-.27.08-.17.32-.35.08-.38-.48-.57-.72c-.14.23-.36.41-.4.7a.88.88,0,0,0-.39.46l-.15.15a.2.2,0,0,0-.15.17l-.26.29h0a.42.42,0,0,0-.21.24c-.27.25-.54.5-.8.77a23,23,0,0,0-2.74,2.75s0-.08-.12-.08a2.51,2.51,0,0,0-.4,2.36,2.07,2.07,0,0,0,1.06.64l.71.17a1.13,1.13,0,0,0,.47.06,4.72,4.72,0,0,1,1.45-.08c2.93.11,5.86.15,8.79.08a3.77,3.77,0,0,1,1.11.06l2.58.06A4.07,4.07,0,0,0,45.47,44C46.49,43.66,46.7,43,46.26,42ZM33.64,39.45l0,0Zm8,4.36s0-.05,0-.07l.06-.44a.45.45,0,0,0,.26.08.41.41,0,0,0,.28-.09c0,.15,0,.3,0,.44A.9.9,0,0,1,41.59,43.81Z" transform="translate(-1 -11.4)"/><path class="cls-43" d="M39.73,36.22a.46.46,0,1,0,.65.43.33.33,0,0,0,0-.2l.12,0,.16-.46-.55-1-.17-.39a1.37,1.37,0,0,0-1.38-.92l-.25,0h0l-.1,0-.78.12H34.85L37,35.22Z" transform="translate(-1 -11.4)"/><path class="cls-44" d="M46.24,42.79a2.34,2.34,0,0,0-.35-1.08,11.18,11.18,0,0,0-1.37-1.62A32.5,32.5,0,0,1,41.41,37a4,4,0,0,0-2.48-1.51,8,8,0,0,1-2-.67c-.6-.29-1.13-.67-1.72-1s-.55-.19-.8.25a.51.51,0,0,0-.15.31.57.57,0,0,0-.24.31h0L33.9,35h0l-.23.38c0,.41.35.63.62.88.07.08.19,0,.28,0a.67.67,0,0,1,1,.06c.39.35.5.38.95.13a.4.4,0,0,1,.52.06c.29.24.31.47,0,.79a.38.38,0,0,0,0,.57.92.92,0,0,1,.15.43c.05.22.17.34.42.26s.28-.08.4,0a2.12,2.12,0,0,0,.63.29c.38.16.77.31.76.84a.48.48,0,0,0,.25.37,1.79,1.79,0,0,0,1.31.46c.26,0,.54,0,.8,0s.34,0,.18.25,0,.18,0,.24a.87.87,0,0,1-.23,0h0a.18.18,0,0,0-.23-.08c-.23.09-.44.23-.71.12a1.18,1.18,0,0,0-.08.12h0a.58.58,0,0,0-.44.13.65.65,0,0,0,0,.73c.2.24.42.09.63,0s.21.06.23.17A2.36,2.36,0,0,1,41,43.28c0,.1-.08.21-.19.21s-.18-.08-.24-.17a1.94,1.94,0,0,1-.2-.54.11.11,0,0,0-.13-.1c-.07,0-.08.06-.09.11a.81.81,0,0,0,.85.91h0l.15.06v.16l1.78,0v0a7.23,7.23,0,0,0,2.68-.25A.81.81,0,0,0,46.24,42.79Zm-4.74-.26v-.1h0s0,.07,0,.1Zm1.44,1.36v0H43Z" transform="translate(-1 -11.4)"/><circle class="cls-44" cx="28.35" cy="31.09" r="0.46"/><circle class="cls-44" cx="31.77" cy="29.89" r="0.46"/><circle class="cls-44" cx="31.09" cy="27.56" r="0.46"/><circle class="cls-44" cx="34.76" cy="31.54" r="0.46"/><circle class="cls-44" cx="34.41" cy="27.9" r="0.46"/><circle class="cls-44" cx="37.56" cy="30.25" r="0.46"/><path class="cls-16" d="M46.26,42.1a5.34,5.34,0,0,0-1.51-1.93L44.63,40h0a1.42,1.42,0,0,0-.2-.22,39.52,39.52,0,0,1-3.2-3.27,5.42,5.42,0,0,1-1-1.65,2.32,2.32,0,0,0-.81-1.13,2.58,2.58,0,0,0-1.69-.12,4,4,0,0,1-2.48,0,.58.58,0,0,0-.77.22l-.94,1.37s-.07,0-.08.08a5.84,5.84,0,0,1-.92,1.33A45.69,45.69,0,0,1,29,40a4.2,4.2,0,0,0-.53.77h0l-.09.21A2.58,2.58,0,0,0,28,43.22a2.22,2.22,0,0,0,1.07.64l.7.17a1.38,1.38,0,0,0,.48.06A4.73,4.73,0,0,1,31.74,44c2.93.12,5.86.16,8.79.09a3.77,3.77,0,0,1,1.11.06l2.58.06A4.39,4.39,0,0,0,45.47,44C46.48,43.74,46.7,43,46.26,42.1Zm-.54,1.44a2.08,2.08,0,0,1-1,.29,9.92,9.92,0,0,0-1.43.1l0-.07-.74.07-.33-.11c-.33.18-.65,0-1,0s-.87,0-1.3,0h-.3l-1.8.1H35.6l-1,.07-.68-.14-.09,0a2.43,2.43,0,0,0-.27,0c-.43,0-.86-.07-1.29-.1s-.88,0-1.32,0-.72,0-1.08,0c-1.49-.14-1.92-.79-1.46-2.16,0-.14.13-.27.17-.42h0l.21-.35h0a.08.08,0,0,1,0,0,4.25,4.25,0,0,1,.74-.84c.87-.82,1.79-1.58,2.59-2.47l.25-.25a1.83,1.83,0,0,0,.24-.31l.16-.17a1.37,1.37,0,0,0,.17-.17,4.78,4.78,0,0,1,.34-.42l.07-.09a4.72,4.72,0,0,1,.37-.61c.09-.13.15-.26.23-.39l.17-.24.23-.33a3.3,3.3,0,0,1,.18-.32.45.45,0,0,1,.7-.14l.13.07A3.53,3.53,0,0,1,36,34l.23,0a4,4,0,0,1,.86-.08,4.21,4.21,0,0,1,.62.05,1.36,1.36,0,0,1,.81-.27,1.44,1.44,0,0,1,1.37,1.42,2.48,2.48,0,0,1,.36.57.79.79,0,0,1,.33.64,5.75,5.75,0,0,1,.74.74A32.62,32.62,0,0,0,44.22,40a.23.23,0,0,1,.07.07h0l.26.33a2.51,2.51,0,0,0,.44.48,3.61,3.61,0,0,1,1.12,1.94A.68.68,0,0,1,45.72,43.54Z" transform="translate(-1 -11.4)"/><circle class="cls-43" cx="34.15" cy="23.65" r="0.46"/><circle class="cls-43" cx="36.74" cy="26.46" r="0.46"/><circle class="cls-43" cx="38.92" cy="25.32" r="0.46"/><circle class="cls-43" cx="42.75" cy="28.99" r="0.46"/><circle class="cls-43" cx="40.79" cy="31.6" r="0.46"/><circle class="cls-43" cx="44.11" cy="31.48" r="0.46"/><circle class="cls-43" cx="39.59" cy="28.11" r="0.46"/><path class="cls-4" d="M51.51,31.11l.11,1a2.5,2.5,0,0,1-1.3.12l-8.57-.2-8.09-.21c-1.84-.05-3.68-.08-5.52-.12a2.93,2.93,0,0,1-.89-.08c-.32-.19-.64-.37-.55-.74a.84.84,0,0,1,.56-.11c2,0,4,0,6.06.06,1.75,0,3.5,0,5.25,0,2,0,4,0,6,0C46.66,31,48.8,31,51,31A1.29,1.29,0,0,1,51.51,31.11Z" transform="translate(-1 -11.4)"/><path class="cls-7" d="M51.51,31.11c-1.2.11-2.38,0-3.58,0l-7,0L34.68,31,27.79,31a4.11,4.11,0,0,0-1.05,0,.77.77,0,0,1-.72-.7l3.91,0H40.44l10.34,0h.64Z" transform="translate(-1 -11.4)"/><path class="cls-45" d="M52,35.69,43.2,35,30,34.1l-.37,0c-.49-.13-.76-.45-.66-.78a1.62,1.62,0,0,1,.58,0c1.22.09,2.44.21,3.67.24,2.1.07,4.17.29,6.27.38s4.14.28,6.22.38c1.83.1,3.66.21,5.48.34a1.38,1.38,0,0,1,.68.19Z" transform="translate(-1 -11.4)"/><path class="cls-46" d="M51.72,33l.08.8A1.19,1.19,0,0,1,51,34l-3.84-.19c-2.08-.12-4.16-.22-6.24-.32-2.84-.14-5.68-.31-8.53-.43-1.34-.06-2.68-.09-4-.25-.3-.17-.67-.32-.53-.7a4.38,4.38,0,0,1,1.69,0c3.26.13,6.52.23,9.77.37,2.85.12,5.7.2,8.54.33l2.78.1A2.6,2.6,0,0,1,51.72,33Z" transform="translate(-1 -11.4)"/><path class="cls-47" d="M28.37,32.76c.9,0,1.76.09,2.65.11,1.61.05,3.21.15,4.81.23l3.38.19c1.31.06,2.62.1,3.92.19l2.53.15c.8,0,1.59.1,2.39.12s1.76.06,2.64.12a4.13,4.13,0,0,0,1.11,0l.11,1c-1.75-.13-3.5-.26-5.25-.37-1.48-.09-3-.14-4.45-.23s-2.85-.25-4.29-.29-3-.24-4.44-.27-3-.19-4.53-.29A.65.65,0,0,1,28.37,32.76Z" transform="translate(-1 -11.4)"/><path class="cls-48" d="M51.72,33l-5-.19-6.59-.22c-3.2-.13-6.39-.28-9.58-.39a20.55,20.55,0,0,0-2.72-.05c-.34-.12-.64-.26-.57-.61l3.29.13,3.62.08c1.72,0,3.44.09,5.17.12l4.79.09,6.87.15a2.22,2.22,0,0,0,.63,0Z" transform="translate(-1 -11.4)"/><path class="cls-49" d="M17.89,33.42l-7.93,3L1.38,39.76a.7.7,0,0,1-.35.09l0-.32,6.72-2.59,10.37-4a1.2,1.2,0,0,0,.24-.15c.2,0,.6.29.61.47s-.09.11-.17.14a2,2,0,0,1-.35,0h-.17C18.13,33.48,18,33.32,17.89,33.42Z" transform="translate(-1 -11.4)"/><path class="cls-50" d="M18.76,33.35c0-.08-.16-.42-.28-.48l-.15,0,2.4-5.36c.51-1.14,1-2.28,1.56-3.47l1.87,2.57,2.65,3.6a2.19,2.19,0,0,0,.56.72c.05.26.26.42.4.62a3.84,3.84,0,0,0,.45.61l.42.59c.15.21.31.41.46.61a3.1,3.1,0,0,0,.55.74l3.52,4.86,1.54,2.15c.06.07,0,.1-.06.12a.48.48,0,0,1-.26-.14c-.63-.78-1.21-1.61-1.8-2.43-1.08-1.52-2.21-3-3.3-4.53s-2.2-2.91-3.21-4.43a1.6,1.6,0,0,0-.3-.33c-.68-.85-1.28-1.76-1.94-2.62-.44-.58-.83-1.19-1.27-1.76-.15-.19-.24-.25-.35,0a8.82,8.82,0,0,0-.5,1.19c-1,2.12-1.92,4.26-2.91,6.44.32,0,.57-.18.85-.14a1.29,1.29,0,0,1,.42.88c0,.16-.19.15-.32.19C19.42,33.52,19.06,33.65,18.76,33.35Z" transform="translate(-1 -11.4)"/><path class="cls-51" d="M34.81,41.22c.08.09.26.19,0,.24l-.24,0q-10.35,1.11-20.7,2.19c-.07,0-.48.31-.31-.19a1.76,1.76,0,0,1,.51-.09l20.05-2.13C34.33,41.24,34.57,41.22,34.81,41.22Z" transform="translate(-1 -11.4)"/><path class="cls-52" d="M34.81,41.22a.72.72,0,0,1-.45.13L14,43.51a.81.81,0,0,1-.51,0,5.45,5.45,0,0,1,.45-1c.12,0,.13.06.15.14,0,.24-.17.43-.14.67a.94.94,0,0,0,.44,0l19.4-2.06a2.16,2.16,0,0,1,.8-.05l.08-.1Z" transform="translate(-1 -11.4)"/><path class="cls-53" d="M14.08,42.6a.15.15,0,0,0-.1-.14q1.2-2.67,2.38-5.34c.52-1.15,1-2.3,1.55-3.45,0-.06.24-.19,0-.25.11-.17.23,0,.34,0,.08.35-.14.61-.26.89-.56,1.26-1.14,2.5-1.7,3.75l-1.95,4.34C14.27,42.5,14.25,42.64,14.08,42.6Z" transform="translate(-1 -11.4)"/><path d="M18.76,33.35a2.32,2.32,0,0,0,1,.06,4.69,4.69,0,0,1,1,0l1.54.07c.38,0,.75,0,1.13,0,.17,0,.34,0,.52,0s.65,0,1,.06.66,0,1,0a9.05,9.05,0,0,0,1,0,1.14,1.14,0,0,0,.78,0c.28-.18-.07-.46-.06-.72a2.26,2.26,0,0,0-.18-.7c-.05-.15-.13-.34.12-.42a2.73,2.73,0,0,1,.68.83c1.88,2.57,3.75,5.15,5.64,7.71.39.55.35.63-.34.7l-18.82,2-.2,0c-.48,0-.52,0-.33-.49.77-1.77,1.59-3.52,2.37-5.29.53-1.2,1.11-2.39,1.62-3.6a1.49,1.49,0,0,1,.2-.31Z" transform="translate(-1 -11.4)"/><path class="cls-54" d="M18.39,33.39l-1.86,4.16-2.32,5.19c0,.07-.09.13-.05.24l20-2.12c-.83-1.14-1.62-2.25-2.43-3.35l-2.82-3.88-1.33-1.79c-.46-.46-.78-1-1.2-1.53a3.15,3.15,0,0,1-.5-.71c0-.11-.12-.22,0-.34a3.26,3.26,0,0,1,.77,1c1.94,2.64,3.86,5.28,5.79,7.93.7,1,1.39,1.91,2.08,2.86,0,.13-.09.15-.18.17a1.49,1.49,0,0,1-.36,0q-9.78,1.05-19.57,2.07c-.16,0-.39.17-.52-.09l.25-.61a19.39,19.39,0,0,0,.91-2c1.08-2.34,2.12-4.69,3.18-7a1.39,1.39,0,0,0,.06-.19Z" transform="translate(-1 -11.4)"/><path d="M25.92,29.58l.49.67c0,.28-.3.18-.44.29s-.54.15-.79.25-.49.15-.72.24-.73.22-1.09.35-.53.16-.79.25l-.72.24c-.36.14-.74.21-1.1.36a4.46,4.46,0,0,1-1.2.28,6.71,6.71,0,0,1-.93.22L19.42,31l2.12-4.68.11-.16c.17-.37.35-.74.51-1.12s.22-.33.43-.07c.52.66,1,1.36,1.49,2L25.59,29C25.72,29.21,25.78,29.42,25.92,29.58Z" transform="translate(-1 -11.4)"/><path class="cls-35" d="M13.83,43.21c.12.11.26,0,.39,0l19.84-2.11c.14,0,.3,0,.4-.12l.17.15a1.75,1.75,0,0,1-.6.14l-20,2.12c-.11,0-.24.09-.33,0S13.76,43.25,13.83,43.21Z" transform="translate(-1 -11.4)"/><path class="cls-55" d="M19.56,32.51a6.21,6.21,0,0,1,1.18-.37c.12,0,.15,0,.16.12a5.25,5.25,0,0,0,.2.78c.09.35,0,.42-.37.42a4.7,4.7,0,0,1-1-.05c.2,0,.28-.07.16-.29S20,32.55,19.56,32.51Z" transform="translate(-1 -11.4)"/><path class="cls-19" d="M25.92,29.58c-.48-.65-1-1.3-1.45-2l-1.86-2.56c-.07-.09-.17-.23-.25-.23s-.11.18-.17.28c-.19.34-.24.74-.54,1a11,11,0,0,1,.69-1.66l3.48,4.8Z" transform="translate(-1 -11.4)"/><path class="cls-56" d="M24.45,31a2.48,2.48,0,0,1,.71-.24c.22-.11.29.06.35.21.3.8.52,1.62.75,2.45.08.3-.07.43-.38.35a2.76,2.76,0,0,1-1,0c.16-.13.13-.3.08-.47-.16-.57-.35-1.13-.5-1.7A.86.86,0,0,1,24.45,31Z" transform="translate(-1 -11.4)"/><path class="cls-57" d="M25.88,33.72c.27,0,.36-.12.27-.38L25.43,31c0-.15-.08-.29-.27-.3a2.7,2.7,0,0,1,.79-.25c.2-.1.29,0,.35.2.33.89.6,1.8.84,2.72.05.17.06.36-.19.39A2.75,2.75,0,0,1,25.88,33.72Z" transform="translate(-1 -11.4)"/><path class="cls-19" d="M27,33.77c.17-.11.13-.25.08-.42-.28-.88-.55-1.77-.81-2.65,0-.15-.11-.24-.27-.24.1-.17.36,0,.46-.21a11.82,11.82,0,0,1,1.14,1.59c-.13.21,0,.36.08.55.15.38.09.81.32,1.17.08.12,0,.29-.14.26C27.52,33.74,27.22,33.92,27,33.77Z" transform="translate(-1 -11.4)"/><path class="cls-58" d="M24.45,31c.16.77.43,1.5.64,2.26,0,.16.23.46-.2.46a3.57,3.57,0,0,1-1-.05c0-.11.12-.19.09-.31a10.28,10.28,0,0,0-.66-2A5.31,5.31,0,0,1,24.45,31Z" transform="translate(-1 -11.4)"/><path class="cls-30" d="M20.73,33.46c.29,0,.39-.15.26-.41a4.24,4.24,0,0,1-.25-.91,5.33,5.33,0,0,1,1.11-.36.11.11,0,0,1,.15.08c.11.52.27,1,.4,1.52,0,.07,0,.17-.11.16A11.65,11.65,0,0,1,20.73,33.46Z" transform="translate(-1 -11.4)"/><path class="cls-59" d="M23.34,31.3c.08,0,.2-.05.25.12.16.63.35,1.25.54,1.87.05.19,0,.3-.22.33a.88.88,0,0,1-.48,0A1,1,0,0,1,23,33a9.2,9.2,0,0,0-.47-1.43A3.63,3.63,0,0,1,23.34,31.3Z" transform="translate(-1 -11.4)"/><path class="cls-60" d="M22.55,31.55c.13,0,.18,0,.22.17a6.83,6.83,0,0,0,.66,1.87,4.84,4.84,0,0,1-1.14-.05c.09-.24-.07-.43-.15-.62a9.07,9.07,0,0,0-.29-1.14A2.22,2.22,0,0,1,22.55,31.55Z" transform="translate(-1 -11.4)"/></svg>