<svg id="Capa_1" data-name="Capa 1" xmlns="http://www.w3.org/2000/svg" viewBox="0 0 50.77 45.56"><defs><style>.cls-1{fill:#4d4a67;}.cls-2{fill:#0c002e;}.cls-3{fill:#04111a;}.cls-4{fill:#2467bf;}.cls-5{fill:#041018;}.cls-6{fill:#43312f;}.cls-7{fill:#0a141c;}.cls-8{fill:#cf1a19;}.cls-9{fill:#f66f4f;}.cls-10{fill:#16252c;}.cls-11{fill:#bd6f35;}.cls-12{fill:#081b29;}.cls-13{fill:#e5cc50;}.cls-14{fill:#071924;}.cls-15{fill:#06121c;}.cls-16{fill:#ad83bb;}.cls-17{fill:#c096cf;}.cls-18{fill:#e1f1f5;}.cls-19{fill:#28143c;}.cls-20{fill:#0f141c;}.cls-21{fill:#0d131a;}.cls-22{fill:#090f13;}</style></defs><title>UNIVERSO</title><path class="cls-1" d="M23.39,2.44h.14a9,9,0,0,0,1.79.08c1.79.2,3.56.53,5.34.74.76.1,1.4.58,2.17.64a13.25,13.25,0,0,1,3.71,1.42A13.4,13.4,0,0,1,42,10.27a8.33,8.33,0,0,1,1.33,4.43,1.35,1.35,0,0,0,.15.83c0,.2,0,.33.23.1a8,8,0,0,0,1.45-3.38,12.31,12.31,0,0,0,.58-3.41,11,11,0,0,0-.12-3.19,1.2,1.2,0,0,1,0-.5A.62.62,0,0,1,46,4.56c.28-.1.43.13.59.31a13.32,13.32,0,0,1,1.58,2.54,24.39,24.39,0,0,1,2.16,6.05,22,22,0,0,1,.54,3.87A2,2,0,0,0,51,18v1.53a44.79,44.79,0,0,1-.73,5,21.72,21.72,0,0,1-3.18,7.35,17.42,17.42,0,0,1-3,3.25A18.1,18.1,0,0,1,39,38.34a14.22,14.22,0,0,1-6.46.81,17.39,17.39,0,0,1-2.69-.36.67.67,0,0,0-.55.07.33.33,0,0,0-.1.25,8.14,8.14,0,0,0,2.92,1.29,22.47,22.47,0,0,0,8.8.07c1.73-.25,3.42-.61,5.13-1,.32-.07.7-.2.88.2s-.11.63-.38.85a33.91,33.91,0,0,1-4.54,3.23,25.61,25.61,0,0,1-3.68,1.9,29,29,0,0,1-4.55,1.45,29.89,29.89,0,0,1-3.1.51c-.16,0,0,.12,0,.19-.24.28-.56.1-.84.14a1.47,1.47,0,0,0-.9-.13,27.91,27.91,0,0,1-6-.23c-.59-.08-1.18-.14-1.76-.27a26.28,26.28,0,0,1-8.49-3.23,10.71,10.71,0,0,1-3.92-4.25A13.2,13.2,0,0,1,7.41,35.5a21.82,21.82,0,0,1-.19-5.11c.12-1,.3-2,.49-2.95a16.1,16.1,0,0,1,1.64-4.17c.14-.28.44-.52.31-.9-.41-.11-.6.2-.82.44a23.22,23.22,0,0,0-3.35,4.86,21.38,21.38,0,0,0-1.2,3.12,36.19,36.19,0,0,0-1.23,5.92,25.25,25.25,0,0,1-.14,2.62c-.06.24-.09.52-.37.56s-.42-.18-.47-.44a19,19,0,0,0-.64-2.55c-.16-1-.43-2-.6-3-.3-1.69-.39-3.4-.6-5.1,0-.42,0-.85,0-1.27A26.43,26.43,0,0,1,1.07,23a14.08,14.08,0,0,1,1.47-3.38,17.69,17.69,0,0,1,2.63-3.45A22.78,22.78,0,0,1,11,11.75c1-.55,2.11-1,3.19-1.45a28.84,28.84,0,0,1,4.48-1.14A.79.79,0,0,0,19.05,9a.38.38,0,0,0,.14-.31,5.35,5.35,0,0,0-2.27-.59,18.1,18.1,0,0,0-7.71.41,2.75,2.75,0,0,1-.41.11c-.22,0-.46,0-.58-.18s.1-.37.25-.52a16,16,0,0,1,5.1-3.07l.33-.14a34.56,34.56,0,0,1,4.61-1.4c1.45-.26,2.91-.47,4.36-.68A.84.84,0,0,0,23.39,2.44Z" transform="translate(-0.23 -2.44)"/><path class="cls-2" d="M23.45,3h.14a9.18,9.18,0,0,0,1.74.07c1.74.19,3.46.52,5.2.73.74.09,1.36.55,2.1.62a12.91,12.91,0,0,1,3.62,1.38,13.09,13.09,0,0,1,5.36,4.81A8.21,8.21,0,0,1,42.9,15a1.35,1.35,0,0,0,.14.81c0,.2,0,.32.23.09a7.86,7.86,0,0,0,1.41-3.28,12,12,0,0,0,.56-3.33,10.74,10.74,0,0,0-.11-3.1,1.15,1.15,0,0,1,0-.49.59.59,0,0,1,.33-.57c.27-.1.42.12.57.3a12.22,12.22,0,0,1,1.54,2.48,23,23,0,0,1,2.1,5.88,20.87,20.87,0,0,1,.53,3.77,2.12,2.12,0,0,0,.16.67c0,.5,0,1,0,1.49a42.47,42.47,0,0,1-.7,4.88,21.24,21.24,0,0,1-3.1,7.15,17.18,17.18,0,0,1-2.92,3.17A17.75,17.75,0,0,1,38.68,38a13.75,13.75,0,0,1-6.29.79,17.78,17.78,0,0,1-2.61-.35.68.68,0,0,0-.54.07.27.27,0,0,0-.09.24A7.72,7.72,0,0,0,32,40a21.88,21.88,0,0,0,8.57.07c1.67-.24,3.33-.6,5-.94.32-.07.69-.19.86.2s-.1.61-.36.82a32.9,32.9,0,0,1-4.43,3.15A24.72,24.72,0,0,1,38,45.12a29.64,29.64,0,0,1-4.43,1.41,27.93,27.93,0,0,1-3,.49c-.15,0,0,.12,0,.19-.23.27-.54.09-.81.14a1.42,1.42,0,0,0-.88-.13A26.44,26.44,0,0,1,23.08,47c-.57-.08-1.15-.13-1.72-.26a25.43,25.43,0,0,1-8.26-3.15,10.27,10.27,0,0,1-3.81-4.13A12.49,12.49,0,0,1,7.9,35.2a20.73,20.73,0,0,1-.19-5c.12-1,.29-1.92.48-2.87a15.38,15.38,0,0,1,1.59-4.06c.14-.27.43-.51.31-.87-.4-.11-.59.19-.8.42A22.67,22.67,0,0,0,6,27.57a23.27,23.27,0,0,0-1.17,3,35.17,35.17,0,0,0-1.19,5.77,24.06,24.06,0,0,1-.13,2.55c-.07.23-.09.5-.37.54s-.4-.17-.46-.42a18.08,18.08,0,0,0-.61-2.49c-.17-1-.42-1.94-.59-2.91-.29-1.64-.39-3.31-.59-5,0-.42,0-.83,0-1.24a26,26,0,0,1,.82-4.38,13.73,13.73,0,0,1,1.43-3.29,17.5,17.5,0,0,1,2.57-3.36,22,22,0,0,1,5.66-4.34,33.15,33.15,0,0,1,3.1-1.41,27.32,27.32,0,0,1,4.36-1.11.79.79,0,0,0,.39-.13c.07-.09.15-.17.13-.3a5.07,5.07,0,0,0-2.21-.57,17.6,17.6,0,0,0-7.5.4,3.06,3.06,0,0,1-.41.1c-.21,0-.44,0-.56-.17s.1-.37.24-.51a15.67,15.67,0,0,1,5-3l.32-.14A34.23,34.23,0,0,1,18.7,3.89c1.41-.25,2.83-.45,4.24-.66A.86.86,0,0,0,23.45,3Z" transform="translate(-0.23 -2.44)"/><path class="cls-3" d="M25.54,47.43c.45-.35,1-.13,1.44-.12s1.21-.24,1.78.12Z" transform="translate(-0.23 -2.44)"/><path class="cls-4" d="M17.87,16.85l-.2,0c-.38-.33,0-.5.18-.64A8.89,8.89,0,0,1,21,14a13.78,13.78,0,0,1,5.6-1.13,13.38,13.38,0,0,1,6.52,1.62,8.15,8.15,0,0,1,4.39,5.62,9.19,9.19,0,0,1-1.19,6.74,13.76,13.76,0,0,1-5.12,4.9,15.07,15.07,0,0,1-6.85,2.07,8.93,8.93,0,0,1-6.94-2.34A6.3,6.3,0,0,1,16,23.8c1.56-3.26,4.38-4.93,7.81-5.7a6.78,6.78,0,0,1,3.23,0,4.07,4.07,0,0,1,3,5.34,6.35,6.35,0,0,1-3.25,3.9,3.73,3.73,0,0,1-5.58-2.53A3.25,3.25,0,0,1,23.83,21a2.25,2.25,0,0,1,1.94.17,1.48,1.48,0,0,1,.44,1.93c-.19.29-.41.29-.62.05s-.51-.54-.78-.8a1.32,1.32,0,0,0-2.21.3A2.54,2.54,0,0,0,22.69,26a3.07,3.07,0,0,0,3.52.65,5.56,5.56,0,0,0,3.06-4,3.28,3.28,0,0,0-2-3.46,6.92,6.92,0,0,0-5.46.41,10.53,10.53,0,0,0-1.95,1.06,9.23,9.23,0,0,0-3.09,3.61A5.82,5.82,0,0,0,19,31.73a9.58,9.58,0,0,0,5.9,1.07,14.63,14.63,0,0,0,7.46-3,10,10,0,0,0,4.3-6,7.34,7.34,0,0,0-2.13-7.32,10.15,10.15,0,0,0-4.09-2.16,19,19,0,0,0-3.89-.66,10.74,10.74,0,0,0-3.43.38,11.87,11.87,0,0,0-4,1.81C18.71,16.16,18.47,16.74,17.87,16.85Z" transform="translate(-0.23 -2.44)"/><path class="cls-5" d="M17.87,16.85a11.35,11.35,0,0,1,9.4-3.26A15.29,15.29,0,0,1,32.61,15,7.82,7.82,0,0,1,35.92,26.1a13.91,13.91,0,0,1-8.08,6.22,11.6,11.6,0,0,1-7.25.28A6.09,6.09,0,0,1,16,26.45a6,6,0,0,1,.62-2.34.22.22,0,0,1,.24.13,5.57,5.57,0,0,0,.23,5.28A6,6,0,0,0,19.73,32a8.45,8.45,0,0,0,2.74.65,13.33,13.33,0,0,0,8-1.79A12.53,12.53,0,0,0,35.63,26a7,7,0,0,0,1-4.83,11,11,0,0,0-.23-1.58,7.34,7.34,0,0,0-4.49-4.55,13.5,13.5,0,0,0-3.51-1A10.3,10.3,0,0,0,24.7,14c-.83.18-1.7.28-2.52.54a8.34,8.34,0,0,0-3.61,2.1,5.56,5.56,0,0,1-.65.53c-.05,0-.14.06-.14,0A.51.51,0,0,1,17.87,16.85Z" transform="translate(-0.23 -2.44)"/><path class="cls-6" d="M17.3,33.46a1.38,1.38,0,0,1,1.26,1.09c0,.41-.78,1.35-1.15,1.33a1.7,1.7,0,0,1-1.31-1.34C16.09,34.17,16.86,33.47,17.3,33.46Z" transform="translate(-0.23 -2.44)"/><path class="cls-6" d="M45,29.83a1.09,1.09,0,0,1-1.12-.92c0-.57.61-1.42,1-1.44a1.66,1.66,0,0,1,1.31,1.25A1.36,1.36,0,0,1,45,29.83Z" transform="translate(-0.23 -2.44)"/><path class="cls-6" d="M15.35,41c0-.66.44-1.23.94-1.22s1.23.68,1.2,1.13-.68,1.09-1,1.08A1.17,1.17,0,0,1,15.35,41Z" transform="translate(-0.23 -2.44)"/><path class="cls-7" d="M16.89,24.24l-.24-.13a8.09,8.09,0,0,1,3-3.47v.09a.6.6,0,0,1-.35.56A7.83,7.83,0,0,0,16.89,24.24Z" transform="translate(-0.23 -2.44)"/><path class="cls-8" d="M29.07,10.68l0-.2c.23-.19.21-.53.43-.72s.2-.23.38-.17c.23.35.34.78.74,1,.08.05,0,.16-.05.23h0c-.47.16-.34.75-.7,1-.2.12-.27-.06-.38-.16C29.2,11.38,29.37,10.93,29.07,10.68Z" transform="translate(-0.23 -2.44)"/><path class="cls-4" d="M35.89,42.35a.59.59,0,0,1,.64-.61.71.71,0,0,1,.06,1.41C36.15,43.17,35.93,42.83,35.89,42.35Z" transform="translate(-0.23 -2.44)"/><path class="cls-4" d="M43.76,19.32c-.25-.2-.59-.35-.63-.73s.2-.46.48-.46a.57.57,0,0,1,.65.56A.65.65,0,0,1,43.76,19.32Z" transform="translate(-0.23 -2.44)"/><path class="cls-6" d="M12.68,35.13c-.17.3-.38.67-.76.67a.73.73,0,0,1-.66-.7c0-.4.36-.59.69-.64S12.52,34.76,12.68,35.13Z" transform="translate(-0.23 -2.44)"/><path class="cls-9" d="M10.88,29.56c.24.37,0,.88.34,1.22l-.21.16a.84.84,0,0,1,0,.27c0,.24,0,.58-.3.61s-.32-.27-.36-.5a.61.61,0,0,0-.33-.42c-.05-.16.07-.25.17-.34C10.59,30.32,10.4,29.72,10.88,29.56Z" transform="translate(-0.23 -2.44)"/><path class="cls-10" d="M10.06,30.9c.25,0,.63-.31.49.3,0,.19-.1.5.15.52s.17-.29.23-.46a3,3,0,0,0,.08-.32c.34,0,.33.28.24.52S11,32,10.71,32s-.42-.18-.5-.4A1.34,1.34,0,0,1,10.06,30.9Z" transform="translate(-0.23 -2.44)"/><path class="cls-6" d="M21.36,29.2a.88.88,0,0,1-.73.58.63.63,0,0,1-.58-.64c0-.23.32-.66.61-.62S21.21,28.88,21.36,29.2Z" transform="translate(-0.23 -2.44)"/><path class="cls-6" d="M19.84,39.76c-.3-.24-.71-.41-.68-.82a.65.65,0,0,1,1.29.13C20.43,39.35,20.15,39.6,19.84,39.76Z" transform="translate(-0.23 -2.44)"/><path class="cls-11" d="M27.53,8.19c.06.2.31,0,.42.25a.7.7,0,0,0-.47.77c0,.15-.15.12-.25.08a1.39,1.39,0,0,1-.1-1.9h0C27.57,7.42,27.64,7.54,27.53,8.19Z" transform="translate(-0.23 -2.44)"/><path class="cls-6" d="M25.7,29.7c-.32-.34.18-.38.2-.37.35.2.66.52.57.91s-.23.74-.72.69a1,1,0,0,1-.59-1c.07-.16.18-.08.26,0a.93.93,0,0,1,.13.15c.09.13.16.33.36.18s.1-.29,0-.42S25.76,29.78,25.7,29.7Z" transform="translate(-0.23 -2.44)"/><path class="cls-6" d="M14.12,20.75c-.14.38-.33.65-.63.67s-.71-.35-.66-.56a1.17,1.17,0,0,1,.7-.71C13.69,20.1,13.81,20.65,14.12,20.75Z" transform="translate(-0.23 -2.44)"/><path class="cls-6" d="M27.13,7.39a3.09,3.09,0,0,0,.1,1.9c-.13.16-.26.19-.4,0a2.14,2.14,0,0,1,0-1.88C26.92,7.39,27,7.4,27.13,7.39Z" transform="translate(-0.23 -2.44)"/><path class="cls-6" d="M24.25,35.81c.2.16.15.29-.08.29a.69.69,0,0,1-.68-.73.61.61,0,0,1,.74-.62.7.7,0,0,1,.57.81c0,.16-.17.08-.25,0s-.28-.4-.49-.17S24.17,35.67,24.25,35.81Z" transform="translate(-0.23 -2.44)"/><path class="cls-6" d="M11.89,17.85c-.37.16-.5.58-.88.49s-.56-.28-.47-.58.2-.65.5-.57S11.58,17.59,11.89,17.85Z" transform="translate(-0.23 -2.44)"/><path class="cls-6" d="M46.79,24.25a.62.62,0,0,1-.53-.63c0-.25.23-.6.57-.57a.61.61,0,0,1,.61.57C47.42,24,47.13,24.16,46.79,24.25Z" transform="translate(-0.23 -2.44)"/><path class="cls-4" d="M35.32,31.08c-.28,0-.47-.18-.47-.48a.43.43,0,0,1,.49-.45.41.41,0,0,1,.44.43A.46.46,0,0,1,35.32,31.08Z" transform="translate(-0.23 -2.44)"/><path class="cls-6" d="M47,17.55c-.33-.09-.63-.27-.62-.58a.59.59,0,0,1,.62-.53.52.52,0,0,1,.52.47A.67.67,0,0,1,47,17.55Z" transform="translate(-0.23 -2.44)"/><path class="cls-12" d="M3.21,24.81c.19,0,0-.44.34-.33.11.05.07.23,0,.31s-.32.54-.66.36a3.5,3.5,0,0,1-.6-.56c.24-.19.47-.39.71-.57.06,0,.17,0,.15.08s-.14.16-.22.24A.57.57,0,0,0,3.21,24.81Z" transform="translate(-0.23 -2.44)"/><path class="cls-6" d="M30.55,10.83a.82.82,0,0,0,0-.19c-.74,0-.66-.57-.68-1.05.73,0,.62.8,1,1.15C30.94,10.8,30.67,10.8,30.55,10.83Z" transform="translate(-0.23 -2.44)"/><path class="cls-6" d="M33,22c-.2-.14-.13-.32,0-.35.36-.07.5.27.68.48s.09.51-.13.73-.39.35-.66.17c-.08-.05,0-.16.08-.21C33.2,22.56,33.36,22.29,33,22Z" transform="translate(-0.23 -2.44)"/><path class="cls-13" d="M25.7,29.7c.33,0,.56.11.54.46a.44.44,0,0,1-.42.46c-.41,0-.43-.32-.4-.63Z" transform="translate(-0.23 -2.44)"/><path class="cls-6" d="M29.86,11.8c0-.13.12-.28.09-.39-.17-.6.19-.61.61-.59C30.59,11.33,30.62,11.84,29.86,11.8Z" transform="translate(-0.23 -2.44)"/><path class="cls-4" d="M8.1,17.33a.41.41,0,0,1-.43.37c-.24,0-.41-.13-.4-.39a.39.39,0,0,1,.46-.4A.37.37,0,0,1,8.1,17.33Z" transform="translate(-0.23 -2.44)"/><path class="cls-13" d="M24.25,35.81c-.27,0-.51-.07-.48-.42A.37.37,0,0,1,24.1,35c.34,0,.49.19.45.53Z" transform="translate(-0.23 -2.44)"/><path class="cls-6" d="M27.53,8.19c-.14-.27,0-.69-.41-.79-.06-.2,0-.35.18-.56a1.85,1.85,0,0,0,.52.83C28.15,8.12,28,8.21,27.53,8.19Z" transform="translate(-0.23 -2.44)"/><path class="cls-14" d="M10.88,29.56c-.34.25,0,1-.65,1-.17-.37.27-1.23.66-1.23C11,29.33,10.89,29.48,10.88,29.56Z" transform="translate(-0.23 -2.44)"/><path class="cls-13" d="M33,22c.31,0,.53.1.53.4a.43.43,0,0,1-.52.42A.52.52,0,0,1,33,22Z" transform="translate(-0.23 -2.44)"/><path class="cls-4" d="M24,44.06c.21,0,.34.14.31.36a.42.42,0,0,1-.46.33.28.28,0,0,1-.31-.35A.45.45,0,0,1,24,44.06Z" transform="translate(-0.23 -2.44)"/><path class="cls-6" d="M41.85,27.44s0,0,0,0c0,.31-.18.26-.34.14s-.63-.31-.48-.74c.06-.18.19-.35.39-.1A4.34,4.34,0,0,1,41.85,27.44Z" transform="translate(-0.23 -2.44)"/><path class="cls-4" d="M31.92,7c0,.14-.06.31-.23.27a.46.46,0,0,1-.4-.47.25.25,0,0,1,.31-.27C31.84,6.6,31.88,6.82,31.92,7Z" transform="translate(-0.23 -2.44)"/><path class="cls-6" d="M29.07,10.68c.75.06.23.66.41,1-.06.07-.2.16-.21.1C29.21,11.38,28.94,11.06,29.07,10.68Z" transform="translate(-0.23 -2.44)"/><path class="cls-13" d="M41.85,27.44c-.44,0-.5-.3-.38-.66.2-.06.41-.15.55.08S42,27.28,41.85,27.44Z" transform="translate(-0.23 -2.44)"/><path class="cls-13" d="M5.9,21.69c-.26-.41-.33-.75.33-.79C6.44,21.3,6.36,21.57,5.9,21.69Z" transform="translate(-0.23 -2.44)"/><path class="cls-6" d="M16.49,14.8c0-.22,0-.48.3-.41a.81.81,0,0,1,.56.57c0,.19-.21.2-.37.2A.85.85,0,0,0,16.49,14.8Z" transform="translate(-0.23 -2.44)"/><path class="cls-4" d="M13.35,24.24c.16,0,.29.07.28.22a.34.34,0,0,1-.32.38A.25.25,0,0,1,13,24.6.31.31,0,0,1,13.35,24.24Z" transform="translate(-0.23 -2.44)"/><path class="cls-13" d="M16.49,14.8c.12-.06.2-.26.39-.12a.37.37,0,0,1,.1.48C16.61,15.33,16.47,15.17,16.49,14.8Z" transform="translate(-0.23 -2.44)"/><path class="cls-6" d="M29.48,9.76c.07.37.08.7-.43.72a4.69,4.69,0,0,1,.1-.67C29.2,9.61,29.33,9.55,29.48,9.76Z" transform="translate(-0.23 -2.44)"/><path class="cls-15" d="M5.9,21.69a.77.77,0,0,0,.33-.79c.25.43.14.92-.26,1C5.79,22,5.73,21.83,5.9,21.69Z" transform="translate(-0.23 -2.44)"/><path class="cls-4" d="M5.61,25.9a.37.37,0,0,1-.31-.36.26.26,0,0,1,.24-.29c.27,0,.21.17.2.33S5.77,25.85,5.61,25.9Z" transform="translate(-0.23 -2.44)"/><path class="cls-13" d="M22.66,11.1c-.19,0-.26-.08-.24-.2s0-.32.27-.34.22.06.2.19S22.8,11.06,22.66,11.1Z" transform="translate(-0.23 -2.44)"/><path class="cls-4" d="M26.32,38a.3.3,0,0,1-.23.3.18.18,0,0,1-.24-.16c0-.17.09-.24.22-.28S26.28,37.91,26.32,38Z" transform="translate(-0.23 -2.44)"/><path class="cls-4" d="M13.44,38.2c.14,0,.22.07.21.22a.28.28,0,0,1-.27.27.21.21,0,0,1-.24-.26A.29.29,0,0,1,13.44,38.2Z" transform="translate(-0.23 -2.44)"/><path class="cls-4" d="M30.82,26.94c0,.21-.07.29-.18.29A.32.32,0,0,1,30.3,27a.19.19,0,0,1,.19-.23A.37.37,0,0,1,30.82,26.94Z" transform="translate(-0.23 -2.44)"/><path class="cls-16" d="M47.7,26.9c0,.15-.1.26-.27.24a.22.22,0,0,1-.2-.24.22.22,0,0,1,.26-.24A.23.23,0,0,1,47.7,26.9Z" transform="translate(-0.23 -2.44)"/><path class="cls-4" d="M26.68,41.71c-.06.18-.16.27-.32.25a.21.21,0,0,1-.21-.22.25.25,0,0,1,.26-.26A.29.29,0,0,1,26.68,41.71Z" transform="translate(-0.23 -2.44)"/><path class="cls-4" d="M19.55,24c.17,0,.27.11.25.27a.24.24,0,0,1-.3.21c-.12,0-.22-.08-.21-.22A.27.27,0,0,1,19.55,24Z" transform="translate(-0.23 -2.44)"/><path class="cls-17" d="M30.38,16.58c.12,0,.19.05.19.19a.21.21,0,0,1-.22.21c-.16,0-.26-.08-.25-.24S30.24,16.58,30.38,16.58Z" transform="translate(-0.23 -2.44)"/><path class="cls-13" d="M38.38,15.41a.29.29,0,0,1-.23.3c-.18,0-.17-.09-.17-.21a.28.28,0,0,1,.21-.31C38.31,15.16,38.38,15.28,38.38,15.41Z" transform="translate(-0.23 -2.44)"/><path class="cls-13" d="M35.78,8.37c0,.13,0,.29-.23.26a.21.21,0,0,1-.18-.25c0-.14,0-.3.21-.31S35.75,8.24,35.78,8.37Z" transform="translate(-0.23 -2.44)"/><path class="cls-18" d="M3.21,24.81c-.11.07-.24.15-.35,0a.31.31,0,0,1,.06-.47C3.28,24.33,3.22,24.59,3.21,24.81Z" transform="translate(-0.23 -2.44)"/><path class="cls-13" d="M22.42,41.27c-.16,0-.2-.15-.17-.3s.1-.21.23-.19.17.18.16.31S22.58,41.31,22.42,41.27Z" transform="translate(-0.23 -2.44)"/><path class="cls-13" d="M33.5,18.7c0,.19-.1.31-.24.31s-.21-.15-.21-.3.05-.21.19-.21S33.49,18.58,33.5,18.7Z" transform="translate(-0.23 -2.44)"/><path class="cls-13" d="M18.16,34.7a.91.91,0,0,1-.79.83c-.37.09-.91-.46-.9-.88a.84.84,0,0,1,.83-.86C17.73,33.72,18.15,34.16,18.16,34.7Z" transform="translate(-0.23 -2.44)"/><path class="cls-13" d="M44.87,29.59c-.39,0-.64-.28-.73-.7s.55-1.17.76-1.12a1,1,0,0,1,.91.91A.93.93,0,0,1,44.87,29.59Z" transform="translate(-0.23 -2.44)"/><path class="cls-13" d="M17.18,40.86c-.1.45-.36.82-.82.8a.71.71,0,0,1-.73-.77c0-.38.19-.83.72-.81A.83.83,0,0,1,17.18,40.86Z" transform="translate(-0.23 -2.44)"/><path class="cls-19" d="M36.09,42.48a.48.48,0,0,1,.43-.38c.25,0,.4.11.38.36s-.13.41-.38.38A.47.47,0,0,1,36.09,42.48Z" transform="translate(-0.23 -2.44)"/><path class="cls-13" d="M12,35.44a.32.32,0,0,1-.34-.34.33.33,0,0,1,.37-.38c.26,0,.35.18.34.4A.32.32,0,0,1,12,35.44Z" transform="translate(-0.23 -2.44)"/><path class="cls-13" d="M20.94,29.11c0,.24-.1.31-.26.32s-.31-.07-.31-.28a.26.26,0,0,1,.26-.27A.28.28,0,0,1,20.94,29.11Z" transform="translate(-0.23 -2.44)"/><path class="cls-13" d="M20.16,39c0,.2-.11.36-.33.37a.33.33,0,0,1-.37-.33.34.34,0,0,1,.36-.4C20,38.63,20.13,38.79,20.16,39Z" transform="translate(-0.23 -2.44)"/><path class="cls-13" d="M13.44,20.61a.24.24,0,0,1,.27.25c0,.2-.11.31-.31.26s-.29-.06-.28-.24S13.29,20.64,13.44,20.61Z" transform="translate(-0.23 -2.44)"/><path class="cls-13" d="M11.09,18.06c-.2,0-.33-.08-.33-.27a.26.26,0,0,1,.26-.26.27.27,0,0,1,.32.27C11.34,18,11.2,18,11.09,18.06Z" transform="translate(-0.23 -2.44)"/><path class="cls-13" d="M46.84,23.33a.32.32,0,0,1,.31.31.29.29,0,0,1-.28.33c-.23,0-.34-.14-.34-.33S46.67,23.37,46.84,23.33Z" transform="translate(-0.23 -2.44)"/><path class="cls-13" d="M47.24,17c0,.14-.09.26-.27.26a.27.27,0,0,1-.28-.32c0-.19.15-.26.34-.24S47.23,16.85,47.24,17Z" transform="translate(-0.23 -2.44)"/><path class="cls-20" d="M17.78,34.68c-.08.21-.12.48-.47.46a.53.53,0,0,1-.52-.55c0-.29.26-.42.54-.43S17.77,34.36,17.78,34.68Z" transform="translate(-0.23 -2.44)"/><path class="cls-21" d="M44.9,29.27a.38.38,0,0,1-.37-.49.67.67,0,0,1,.57-.59c.23,0,.42.31.38.58A.59.59,0,0,1,44.9,29.27Z" transform="translate(-0.23 -2.44)"/><path class="cls-22" d="M16.31,40.43c.33,0,.51.17.49.45s-.13.41-.39.41a.48.48,0,0,1-.5-.47C15.86,40.46,16.23,40.58,16.31,40.43Z" transform="translate(-0.23 -2.44)"/></svg>