<svg xmlns="http://www.w3.org/2000/svg" viewBox="0 0 500 500"><defs><style>.cls-1{isolation:isolate;}.cls-2,.cls-4{fill:#f99;}.cls-3,.cls-5{fill:#fff;}.cls-15,.cls-4{opacity:0.39;}.cls-4{mix-blend-mode:multiply;}.cls-5{font-size:91.76px;stroke:#fff;stroke-linecap:round;stroke-linejoin:round;stroke-width:6px;font-family:ArialRoundedMTBold, Arial Rounded MT Bold;letter-spacing:-0.04em;}.cls-6{letter-spacing:-0.1em;}.cls-7{letter-spacing:-0.04em;}.cls-8{fill:#f6f6f6;}.cls-9{fill:#dadada;}.cls-10{fill:#e6332a;}.cls-11{fill:#575756;}.cls-12{fill:#1d1d1b;}.cls-13{fill:#ffcb9c;}.cls-14{fill:#1b364f;}.cls-15{fill:#274f6d;}.cls-16{fill:#662483;}.cls-17{fill:#fff48d;}.cls-18{fill:#fc6;}.cls-19{fill:#ffed00;}.cls-20{fill:#ff5e5a;}.cls-21{fill:none;stroke:#1d1d1b;stroke-miterlimit:10;}.cls-22{fill:#ff6252;}.cls-23{fill:#432918;}.cls-24{fill:#683c11;}.cls-25{fill:#2fac66;}</style></defs><title>ENCUESTA</title><g class="cls-1"><g id="BACKGROUND"><rect class="cls-2" width="500" height="500"/></g><g id="OBJECTS"><path class="cls-3" d="M379.73,340.48l1,6.3a2.25,2.25,0,0,0,2.7,1.85h0a2.25,2.25,0,0,0,1.75-2.51l-1.06-7.75Z" transform="translate(0 0)"/><ellipse class="cls-4" cx="250.32" cy="451.37" rx="206.62" ry="8.81"/><text class="cls-5" transform="translate(11.11 371.32)">ENCUES<tspan class="cls-6" x="368.93" y="0">T</tspan><tspan class="cls-7" x="416.83" y="0">A</tspan></text><polyline class="cls-8" points="324.94 82.26 316.73 82.26 316.73 91.27 325.66 82.29"/><path class="cls-8" d="M308.77,293.7H168.14V92.86a10.6,10.6,0,0,1,10.6-10.6h138V285.75A8,8,0,0,1,308.77,293.7Z" transform="translate(0 0)"/><path class="cls-9" d="M333.16,119.44H316.72v-29a8.21,8.21,0,0,1,8.22-8.21h0a8.21,8.21,0,0,1,8.22,8.21Z" transform="translate(0 0)"/><path class="cls-3" d="M159.93,256.52h16.43v29a8.21,8.21,0,0,1-8.22,8.21h0a8.2,8.2,0,0,1-8.21-8.21Z" transform="translate(0 0)"/><rect class="cls-3" x="168.14" y="256.52" width="140.37" height="37.18"/><path class="cls-9" d="M300.29,256.52h16.43v29a8.2,8.2,0,0,1-8.21,8.21h0a8.21,8.21,0,0,1-8.22-8.21Z" transform="translate(0 0)"/><path class="cls-10" d="M282.67,114.68h-6.95A2.74,2.74,0,0,1,273,112v-7a2.74,2.74,0,0,1,2.73-2.74h6.95a2.74,2.74,0,0,1,2.74,2.74v7A2.74,2.74,0,0,1,282.67,114.68Zm-6.95-11.42A1.74,1.74,0,0,0,274,105v7a1.74,1.74,0,0,0,1.73,1.73h6.95a1.74,1.74,0,0,0,1.74-1.73v-7a1.74,1.74,0,0,0-1.74-1.74Z" transform="translate(0 0)"/><path class="cls-10" d="M282.67,136.68h-6.95A2.74,2.74,0,0,1,273,134V127a2.74,2.74,0,0,1,2.73-2.74h6.95a2.74,2.74,0,0,1,2.74,2.74V134A2.74,2.74,0,0,1,282.67,136.68Zm-6.95-11.42A1.74,1.74,0,0,0,274,127V134a1.74,1.74,0,0,0,1.73,1.73h6.95a1.74,1.74,0,0,0,1.74-1.73V127a1.74,1.74,0,0,0-1.74-1.74Z" transform="translate(0 0)"/><path class="cls-10" d="M282.67,158.68h-6.95A2.74,2.74,0,0,1,273,156V149a2.74,2.74,0,0,1,2.73-2.74h6.95a2.74,2.74,0,0,1,2.74,2.74V156A2.74,2.74,0,0,1,282.67,158.68Zm-6.95-11.42A1.74,1.74,0,0,0,274,149V156a1.74,1.74,0,0,0,1.73,1.73h6.95a1.74,1.74,0,0,0,1.74-1.73V149a1.74,1.74,0,0,0-1.74-1.74Z" transform="translate(0 0)"/><path class="cls-10" d="M282.67,180.68h-6.95A2.74,2.74,0,0,1,273,178V171a2.74,2.74,0,0,1,2.73-2.74h6.95a2.74,2.74,0,0,1,2.74,2.74V178A2.74,2.74,0,0,1,282.67,180.68Zm-6.95-11.42A1.74,1.74,0,0,0,274,171V178a1.74,1.74,0,0,0,1.73,1.73h6.95a1.74,1.74,0,0,0,1.74-1.73V171a1.74,1.74,0,0,0-1.74-1.74Z" transform="translate(0 0)"/><path class="cls-10" d="M282.67,202.68h-6.95A2.74,2.74,0,0,1,273,200V193a2.74,2.74,0,0,1,2.73-2.74h6.95a2.74,2.74,0,0,1,2.74,2.74V200A2.74,2.74,0,0,1,282.67,202.68Zm-6.95-11.42A1.74,1.74,0,0,0,274,193V200a1.74,1.74,0,0,0,1.73,1.73h6.95a1.74,1.74,0,0,0,1.74-1.73V193a1.74,1.74,0,0,0-1.74-1.74Z" transform="translate(0 0)"/><path class="cls-10" d="M282.67,224.68h-6.95A2.74,2.74,0,0,1,273,222V215a2.74,2.74,0,0,1,2.73-2.74h6.95a2.74,2.74,0,0,1,2.74,2.74V222A2.74,2.74,0,0,1,282.67,224.68Zm-6.95-11.42A1.74,1.74,0,0,0,274,215V222a1.74,1.74,0,0,0,1.73,1.73h6.95a1.74,1.74,0,0,0,1.74-1.73V215a1.74,1.74,0,0,0-1.74-1.74Z" transform="translate(0 0)"/><path class="cls-10" d="M282.67,246.68h-6.95A2.74,2.74,0,0,1,273,244V237a2.74,2.74,0,0,1,2.73-2.74h6.95a2.74,2.74,0,0,1,2.74,2.74V244A2.74,2.74,0,0,1,282.67,246.68Zm-6.95-11.42A1.74,1.74,0,0,0,274,237V244a1.74,1.74,0,0,0,1.73,1.73h6.95a1.74,1.74,0,0,0,1.74-1.73V237a1.74,1.74,0,0,0-1.74-1.74Z" transform="translate(0 0)"/><rect class="cls-9" x="186.49" y="102.76" width="76.67" height="5.71"/><rect class="cls-9" x="186.49" y="125.1" width="76.67" height="5.71"/><rect class="cls-9" x="186.49" y="134.35" width="31" height="5.71"/><rect class="cls-9" x="186.49" y="149.1" width="76.67" height="5.71"/><rect class="cls-9" x="186.49" y="167.89" width="76.67" height="5.71"/><rect class="cls-9" x="186.49" y="190.76" width="76.67" height="5.71"/><rect class="cls-9" x="186.49" y="199.33" width="76.67" height="5.71"/><rect class="cls-9" x="186.49" y="212.76" width="76.67" height="5.71"/><rect class="cls-9" x="186.49" y="221.33" width="41.17" height="5.71"/><rect class="cls-9" x="186.49" y="233.34" width="76.67" height="5.71"/><rect class="cls-9" x="186.49" y="241.9" width="41.17" height="5.71"/><rect class="cls-9" x="186.49" y="177.14" width="31" height="5.71"/><path class="cls-11" d="M279.28,112h-.13a1.49,1.49,0,0,1-1.19-.79,11.65,11.65,0,0,0-2-2.75,1.5,1.5,0,1,1,2.14-2.11,16.91,16.91,0,0,1,1.35,1.57,117.06,117.06,0,0,1,8.16-9.09,1.51,1.51,0,0,1,2.12,0,1.49,1.49,0,0,1,0,2.12,111.93,111.93,0,0,0-9.23,10.48A1.51,1.51,0,0,1,279.28,112Z" transform="translate(0 0)"/><path class="cls-11" d="M279.28,134.76h-.13A1.5,1.5,0,0,1,278,134a11.51,11.51,0,0,0-2-2.76,1.5,1.5,0,0,1,2.14-2.11,18.32,18.32,0,0,1,1.35,1.57,117.06,117.06,0,0,1,8.16-9.09,1.51,1.51,0,0,1,2.12,0,1.49,1.49,0,0,1,0,2.12,113.22,113.22,0,0,0-9.23,10.48A1.51,1.51,0,0,1,279.28,134.76Z" transform="translate(0 0)"/><path class="cls-11" d="M279.28,200.1h-.13a1.49,1.49,0,0,1-1.19-.79,11.92,11.92,0,0,0-2-2.76,1.5,1.5,0,0,1,2.14-2.1,16.91,16.91,0,0,1,1.35,1.57,115.25,115.25,0,0,1,8.16-9.09A1.5,1.5,0,0,1,289.7,189a111.93,111.93,0,0,0-9.23,10.48A1.54,1.54,0,0,1,279.28,200.1Z" transform="translate(0 0)"/><path class="cls-11" d="M279.28,243h-.13a1.5,1.5,0,0,1-1.19-.78,11.51,11.51,0,0,0-2-2.76,1.5,1.5,0,0,1,2.14-2.11,16.91,16.91,0,0,1,1.35,1.57,117.06,117.06,0,0,1,8.16-9.09,1.51,1.51,0,0,1,2.12,0,1.49,1.49,0,0,1,0,2.12,111.93,111.93,0,0,0-9.23,10.48A1.51,1.51,0,0,1,279.28,243Z" transform="translate(0 0)"/><path d="M340.36,376.92l1.21,5s1.5,7.61,4.51,9,1.5-10,1.26-10.62-1.1-7.61-1.76-8.62-1-.42-4.49.68C341.09,372.42,339.57,373.65,340.36,376.92Z" transform="translate(0 0)"/><path d="M372.4,329.06s-4.06,1.46-4.49,4.51,18.32,11.2,18.32,11.2.88,0,0-1.16l-6.54-7.71s-2.43-3.86-4.4-4.58A7.61,7.61,0,0,1,372.4,329.06Z" transform="translate(0 0)"/><path class="cls-3" d="M340.36,368.26l1.08,5.22.75.47a2.24,2.24,0,0,0,3.17-.88h0v-5.48Z" transform="translate(0 0)"/><circle class="cls-12" cx="320.8" cy="187.16" r="4.06"/><circle class="cls-12" cx="325.15" cy="203.74" r="4.06"/><circle class="cls-12" cx="324.48" cy="197.91" r="4.06"/><path class="cls-13" d="M327.54,226.18l.53-.77v0a4.22,4.22,0,0,0,1.28,0c.26-.05.53-.1.79-.13l.4,0,.74.1a25.42,25.42,0,0,1,2.87.53c1.1.25,5.52,3.2,6.41,2.63l26.31,41.8-2.25,3.94-44.54-43.67S326.68,227.38,327.54,226.18Z" transform="translate(0 0)"/><path class="cls-13" d="M279.24,240c-.32-.33-.5-.51-.64-.68l0,0a4.17,4.17,0,0,1-1.27.15h-.8l-.4,0c-.29.07-.6.18-.72.21a24.19,24.19,0,0,0-2.75,1,4,4,0,0,1-3.11-.13l-22.41,49.06,2.83,3.54,37.31-50S280.26,241.08,279.24,240Z" transform="translate(0 0)"/><path class="cls-3" d="M374.66,324.62l-2.26,4.44c-.27,1.26,1.5,4.3,2.78,4.5l2.06.32,2.29-9.64Z" transform="translate(0 0)"/><path class="cls-14" d="M393.47,272c-7.21-.29-29.35.41-47,10.45-13,7.37-53.33,5.88-53.33,5.88s-13.79,18.12,10.18,30.22,22.47,18.57,25.71,26.13c2.56,6,8.26,16.67,10.57,22.76a3.23,3.23,0,0,0,4.25,1.86l.05,0a3.24,3.24,0,0,0,1.95-2.56c1.13-8.83,4.26-33.68,4-37.05-.3-4.1-13.4-21.6-13.4-21.6s27.33-2.16,38.34-10.15c0,0,1.11,15-.08,19.66-.49,1.9-1.17,4.64-1.82,7.21A58,58,0,0,1,379,328c4.87-7.9,18.57-30.66,21-40.49C402.87,275.51,398.9,272.17,393.47,272Z" transform="translate(0 0)"/><path class="cls-15" d="M319.39,296.76s-2.65,9.38,9.31,19.36,21.05,17.61,20.14,25.51l-3,25s-1.77,5-5.69,1.67L332.93,353s-4.78-9.34-6.43-15.17c0,0-.86-5.26-12.34-13.17s-18-7.73-23.25-17.22,2.2-19.17,2.2-19.17Z" transform="translate(0 0)"/><path class="cls-16" d="M319.89,225.72l5.57,4.88A67.41,67.41,0,0,1,347.9,273l1,8.13-68,6.77,3.15-54.81Z" transform="translate(0 0)"/><path class="cls-16" d="M348.9,281.15s-3.9,1.15-11,10.59c-11.28,15-52.84,8.68-57-3.82S348.9,281.15,348.9,281.15Z" transform="translate(0 0)"/><path class="cls-16" d="M285.39,249.46l-4.48,5.23-15.52-7.15s10-22.36,32.17-24.36l18.44-.42,3,6.13Z" transform="translate(0 0)"/><path class="cls-16" d="M335.52,246.61l4.87,8.08,14.17-7.15s-7.67-25-32.17-24.36L304,222.76l-3,6.13Z" transform="translate(0 0)"/><rect class="cls-17" x="171.23" y="270.39" width="239.17" height="22.12" transform="translate(-43.92 53.99) rotate(-9.87)"/><path class="cls-18" d="M410.52,271.86l30.87-16.59-34.65-5.2h0a23.26,23.26,0,0,0,1.38,16.86Z" transform="translate(0 0)"/><path class="cls-12" d="M432.3,253.91s-1.27,2-.72,3.48a4.86,4.86,0,0,0,1.72,2.23l8.09-4.35Z" transform="translate(0 0)"/><rect class="cls-12" x="150.22" y="292.85" width="22.95" height="22.12" transform="translate(-49.62 32.15) rotate(-9.85)"/><rect class="cls-19" x="153.7" y="293.94" width="3.39" height="22.12" transform="translate(-49.9 31.09) rotate(-9.85)"/><rect class="cls-19" x="163.59" y="292.22" width="3.39" height="22.12" transform="translate(-49.46 32.76) rotate(-9.85)"/><path class="cls-20" d="M146.09,317.84l6.19-1.07L148.49,295l-6.19,1.08a11,11,0,0,0-9,12.79h0A11,11,0,0,0,146.09,317.84Z" transform="translate(0 0)"/><path class="cls-12" d="M197.09,302.15l-12.81,2.23a3.55,3.55,0,0,1-4.09-2.88h0a3.56,3.56,0,0,1,2.88-4.1l12.81-2.22a3.54,3.54,0,0,1,4.09,2.88h0A3.54,3.54,0,0,1,197.09,302.15Z" transform="translate(0 0)"/><path class="cls-13" d="M244.67,302.3a6.89,6.89,0,0,1,1,.07c.85-.83,3.51-3.43,3.77-3.82s.22-1-.57-.81-4,3.4-4,3.4,2-4.19,2.64-5.25.36-2.71-.54-1.78-3.37,5.84-3.37,5.84,1.57-6,2.13-7.12-.37-1.7-1.11-1.42-3.69,9-3.69,9,1-5.56,1.5-7.36-.73-2.46-1.41-1.65-2.49,9.12-2.91,11C239.58,303,243.42,302.32,244.67,302.3Z" transform="translate(0 0)"/><path class="cls-13" d="M294.56,193.84s-3.56-1.41-4.62,1.77-.25,9.64,5.25,11.35,4.72-4.06,4.72-4.06Z" transform="translate(0 0)"/><path class="cls-13" d="M371.25,281.23a7.64,7.64,0,0,0-1,.22c-1-.68-4-2.85-4.31-3.19s-.37-1,.44-.89,4.47,2.75,4.47,2.75-2.64-3.83-3.41-4.78-.77-2.62.26-1.85,4.23,5.25,4.23,5.25-2.47-5.64-3.2-6.71.1-1.73.87-1.57,5.05,8.38,5.05,8.38-1.83-5.34-2.62-7,.34-2.54,1.14-1.85,3.86,8.63,4.57,10.44C376.38,281.12,372.49,281.06,371.25,281.23Z" transform="translate(0 0)"/><path class="cls-13" d="M326.72,199.71c.46,5.72-.34,11-8.41,15.91,0,0-3.85,4.93-1.83,10.82s-14.58,7.45-13.11-1.19-3.81-17.76-7.47-22.86-3.8-16.67,2.64-21.22c2.53-1.79,9.35-1.94,14-.32C320.4,183.6,326.07,191.4,326.72,199.71Z" transform="translate(0 0)"/><path class="cls-21" d="M317,191.92a5.95,5.95,0,1,0,5.87-6A5.95,5.95,0,0,0,317,191.92Z" transform="translate(0 0)"/><path class="cls-21" d="M302.05,192.1a5.95,5.95,0,1,0,5.87-6A5.94,5.94,0,0,0,302.05,192.1Z" transform="translate(0 0)"/><polygon class="cls-22" points="315.53 187.16 320.01 198.76 313.71 198.84 315.53 187.16"/><line class="cls-21" x1="318.18" y1="188.3" x2="312.67" y2="188.36"/><path d="M319.42,191.94c.16.64.66,1.07,1.11.95s.67-.73.5-1.37-.66-1.07-1.11-1S319.25,191.3,319.42,191.94Z" transform="translate(0 0)"/><path d="M309.23,192.44c.17.65.67,1.07,1.11,1s.67-.74.51-1.38-.67-1.07-1.12-1S309.06,191.8,309.23,192.44Z" transform="translate(0 0)"/><circle class="cls-12" cx="300.25" cy="202.9" r="4.06"/><circle class="cls-12" cx="297.44" cy="199.68" r="4.06"/><circle class="cls-12" cx="296.19" cy="193.84" r="4.06"/><circle class="cls-12" cx="316.73" cy="183.1" r="4.06"/><circle class="cls-12" cx="303.25" cy="208.15" r="4.06"/><circle class="cls-12" cx="309.17" cy="212.9" r="4.06"/><circle class="cls-12" cx="315.74" cy="215.56" r="4.06"/><circle class="cls-12" cx="322.76" cy="213.83" r="4.06"/><circle class="cls-12" cx="325.15" cy="209.57" r="4.06"/><circle class="cls-12" cx="325.28" cy="201.91" r="4.06"/><circle class="cls-12" cx="320.01" cy="206.96" r="4.06"/><circle class="cls-12" cx="315.74" cy="211.5" r="4.06"/><circle class="cls-12" cx="308.15" cy="208.83" r="4.06"/><circle class="cls-12" cx="305.11" cy="203.38" r="4.06"/><circle class="cls-12" cx="312.67" cy="204.08" r="4.06"/><circle class="cls-12" cx="319.36" cy="204.08" r="4.06"/><circle class="cls-12" cx="313.24" cy="208.83" r="4.06"/><path class="cls-3" d="M317.34,203.63a7.32,7.32,0,0,1,3-.87c1.38,0,2.71.56,2.95,2.31s-1.52,3-3.62,4c-1.25.6-5.41,1.2-7.63.05s-3.38-2-3.83-3.57a3,3,0,0,1,2-3.46,3.3,3.3,0,0,1,3,.69A3.85,3.85,0,0,0,317.34,203.63Z" transform="translate(0 0)"/><path class="cls-23" d="M292.27,187l-.22-.52a13.34,13.34,0,0,1,6.83-17.39h0a13.36,13.36,0,0,1,17.66,6.72l.64,1.43Z" transform="translate(0 0)"/><path class="cls-24" d="M292.67,192.72l26.66-10.08a4.21,4.21,0,0,0,2.71-4.21l-.06-1.88a2.43,2.43,0,0,0-3.38-2.08l-31,12.29a2.43,2.43,0,0,0-.54,4.15l1.53,1.2A4.22,4.22,0,0,0,292.67,192.72Z" transform="translate(0 0)"/><polygon class="cls-3" points="291 181.62 314.38 172.45 315.42 173.8 290.99 183.63 291 181.62"/><path class="cls-25" d="M439.85,452.16a6,6,0,0,0-6.11-2.94c-4.48.44-3.31-3.6-8.32-4.25s-5.92.83-12-4.3-11.16,4-15.69.24-7.79-9.91-15.47-7.54-4.45,8.41-9,10.69-9.29,3-11.21,8.22Z" transform="translate(0 0)"/><path class="cls-25" d="M197,450.5a6,6,0,0,1,6.11-2.95c4.48.44,3.31-3.59,8.32-4.25s5.92.83,12-4.29,11.17,4,15.7.23,7.79-9.91,15.47-7.54,4.45,8.42,9,10.7,9.29,3,11.21,8.22Z" transform="translate(0 0)"/><path class="cls-3" d="M446.52,114H366s4-9.71,9.06-10.12,6.44,2.69,8.05,2.39,4.22-8.31,10.67-8.72,8.95,5.61,12.47,6.71,10.47.49,15.9-8.26,15.74.64,16,7.39c.41,10.36,16.21,4.61,16.21,10.61Z" transform="translate(0 0)"/><path class="cls-3" d="M127.52,204H47s4-9.71,9.06-10.12,6.44,2.69,8.05,2.39,4.22-8.31,10.67-8.72,8.95,5.61,12.47,6.71,10.47.49,15.9-8.26,15.74.64,16,7.39c.41,10.36,16.21,4.61,16.21,10.61Z" transform="translate(0 0)"/><circle class="cls-17" cx="96.07" cy="68.06" r="43.06"/></g></g></svg>